<?xml version="1.0" standalone="no"?>
<!DOCTYPE svg PUBLIC "-//W3C//DTD SVG 1.1//EN" "http://www.w3.org/Graphics/SVG/1.1/DTD/svg11.dtd" >
<svg xmlns="http://www.w3.org/2000/svg" xmlns:xlink="http://www.w3.org/1999/xlink" version="1.1">
<metadata></metadata>
<defs>
<font id="rocalight" horiz-adv-x="899" >
<font-face units-per-em="2048" ascent="1591" descent="-457" />
<missing-glyph horiz-adv-x="466" />
<glyph unicode="L&#xb7;L" horiz-adv-x="1988" d="M334 94h647v-94h-799v1286h152v-1192zM1294 94h648v-94h-799v1286h151v-1192zM817 596h-201v158h201v-158z" />
<glyph unicode="l&#xb7;l" horiz-adv-x="1003" d="M303 0h-143v1286l143 35v-1321zM844 0h-144v1286l144 35v-1321zM602 596h-201v158h201v-158z" />
<glyph unicode="&#xd;" horiz-adv-x="466" />
<glyph unicode=" "  horiz-adv-x="466" />
<glyph unicode="&#x09;" horiz-adv-x="466" />
<glyph unicode="&#xa0;" horiz-adv-x="466" />
<glyph unicode="!" horiz-adv-x="518" d="M160 1286h198l-39 -924h-122zM358 0h-198v158h198v-158z" />
<glyph unicode="&#x22;" horiz-adv-x="704" d="M270 922h-123l-38 364h198zM559 922h-125l-35 364h197z" />
<glyph unicode="#" horiz-adv-x="1245" d="M1167 854h-256l-61 -367h260l-18 -102h-261l-61 -385h-106l63 385h-291l-65 -385h-107l66 385h-271l19 102h268l62 367h-271l19 102h270l53 330h107l-56 -330h293l56 330h104l-55 -330h258zM745 487l62 367h-295l-61 -367h294z" />
<glyph unicode="$" horiz-adv-x="1085" d="M1028 377q0 -158 -107.5 -264.5t-293.5 -132.5v-195h-152v186q-163 0 -379 109l29 86q226 -103 385 -103q172 0 271.5 77t99.5 210q0 63 -33 108t-118 83t-232 67q-223 44 -322.5 125.5t-99.5 214.5q0 147 107 244t292 117v207h152v-209q147 -14 286 -93l-32 -88 q-172 93 -328 93q-155 0 -245.5 -66t-90.5 -180q0 -91 78.5 -141.5t269.5 -86.5q249 -48 356 -131.5t107 -236.5z" />
<glyph unicode="%" horiz-adv-x="1687" d="M377 1315q148 0 228.5 -88t80.5 -248q0 -159 -81 -246.5t-228 -87.5t-228 87.5t-81 246.5q0 160 80.5 248t228.5 88zM1313 1286h127l-1059 -1286h-139zM377 1251q-94 0 -146.5 -71.5t-52.5 -200.5q0 -127 52.5 -198.5t146.5 -71.5t146 71t52 199q0 129 -52 200.5 t-146 71.5zM1309 643q148 0 229.5 -88t81.5 -248t-81.5 -248t-229.5 -88q-146 0 -227 88t-81 248t81 248t227 88zM1309 580q-94 0 -146.5 -72t-52.5 -201t52.5 -200.5t146.5 -71.5q95 0 147.5 71.5t52.5 200.5t-52.5 201t-147.5 72z" />
<glyph unicode="&#x26;" horiz-adv-x="1449" d="M1456 49l-117 -104l-290 254q-89 -103 -222.5 -165.5t-263.5 -62.5q-218 0 -350.5 99.5t-132.5 263.5q0 114 90.5 206t286.5 177q-88 69 -141.5 153t-53.5 154q0 132 100 211.5t265 79.5q163 0 261.5 -77.5t98.5 -205.5q0 -82 -86 -171.5t-227 -153.5l356 -299 q76 125 111 278l131 -18q-35 -187 -137 -349zM639 1221q-104 0 -167.5 -55t-63.5 -146q0 -51 51.5 -117.5t136.5 -128.5q112 49 180 118t68 132q0 89 -56.5 143t-148.5 54zM236 334q0 -121 89.5 -194.5t237.5 -73.5q102 0 209 59.5t180 157.5l-415 362q-157 -69 -229 -143 t-72 -168z" />
<glyph unicode="'" horiz-adv-x="430" d="M238 922h-123l47 364h198z" />
<glyph unicode="(" horiz-adv-x="528" d="M457 -291h-113q-235 283 -235 787q0 509 233 790h111q-187 -321 -187 -790q0 -465 191 -787z" />
<glyph unicode=")" horiz-adv-x="528" d="M74 -291q188 319 188 797q0 459 -184 780h108q236 -284 236 -780q0 -507 -238 -797h-110z" />
<glyph unicode="*" horiz-adv-x="921" d="M741 625l-106 -76l-174 266l-174 -266l-107 76l201 249l-307 82l39 125l299 -112l-19 317h133l-16 -317l299 112l39 -125l-305 -82z" />
<glyph unicode="+" horiz-adv-x="980" d="M903 522v-125h-350v-352h-125v352h-350v125h350v350h125v-350h350z" />
<glyph unicode="," horiz-adv-x="458" d="M221 -125h-121l47 365h199z" />
<glyph unicode="-" horiz-adv-x="702" d="M135 522h432v-76h-432v76z" />
<glyph unicode="." horiz-adv-x="462" d="M332 0h-201v158h201v-158z" />
<glyph unicode="/" horiz-adv-x="997" d="M805 1286h153l-753 -1286h-162z" />
<glyph unicode="0" horiz-adv-x="1370" d="M1251 641q0 -324 -146 -497t-421 -173q-274 0 -419.5 173t-145.5 497q0 326 145.5 500t419.5 174q275 0 421 -174t146 -500zM684 66q198 0 304 148.5t106 426.5q0 280 -106 430t-304 150q-197 0 -302.5 -150t-105.5 -430q0 -278 105.5 -426.5t302.5 -148.5z" />
<glyph unicode="1" horiz-adv-x="675" d="M485 1286v-1286h-151v1161h-291v70l346 55h96z" />
<glyph unicode="2" horiz-adv-x="1107" d="M997 1004q0 -131 -98 -234l-663 -676h761v-94h-931v143l708 701q78 75 78 172t-88.5 151t-245.5 54q-149 0 -325 -84l-33 80q180 98 368 98q222 0 345.5 -82t123.5 -229z" />
<glyph unicode="3" horiz-adv-x="1124" d="M616 690q187 -20 293.5 -109.5t106.5 -226.5q0 -180 -137.5 -281.5t-380.5 -101.5q-105 0 -203 28.5t-211 80.5l29 86q222 -100 385 -100q173 0 271.5 75t98.5 207q0 131 -126 206t-347 75h-145v94h145q189 0 297.5 73.5t108.5 202.5q0 103 -90 162.5t-246 59.5 q-159 0 -311 -76l-33 80q185 90 352 90q220 0 344.5 -84.5t124.5 -233.5q0 -109 -87 -190.5t-239 -116.5z" />
<glyph unicode="4" horiz-adv-x="1150" d="M913 383h166v-94h-166v-289h-151v289h-705v117l678 880h178v-903zM762 383v788l-602 -788h602z" />
<glyph unicode="5" horiz-adv-x="1148" d="M578 788q219 0 349 -102.5t130 -275.5q0 -200 -141 -319.5t-377 -119.5q-194 0 -414 109l29 86q120 -49 207.5 -74.5t177.5 -25.5q165 0 262.5 85t97.5 230q0 149 -100.5 229t-288.5 80q-179 0 -375 -43l25 639h813v-94h-670l-12 -430q144 26 287 26z" />
<glyph unicode="6" horiz-adv-x="1222" d="M680 807q215 0 332.5 -101.5t117.5 -287.5q0 -204 -135 -325.5t-362 -121.5q-258 0 -385 149t-127 451q0 381 141.5 562.5t437.5 181.5q166 0 334 -74l-22 -88q-164 68 -312 68q-209 0 -308 -147t-99 -456q123 189 387 189zM633 66q155 0 247.5 88t92.5 237 q0 156 -77 230.5t-239 74.5q-71 0 -133.5 -17t-114.5 -52t-82 -95.5t-30 -140.5q0 -148 90.5 -236.5t245.5 -88.5z" />
<glyph unicode="7" horiz-adv-x="978" d="M926 1286v-131l-631 -1155h-166l662 1192h-730v94h865z" />
<glyph unicode="8" horiz-adv-x="1249" d="M793 721q170 -29 258 -122.5t88 -233.5q0 -181 -139 -287.5t-375 -106.5t-375 106.5t-139 287.5q0 144 91.5 236t254.5 120q-128 21 -200.5 86.5t-72.5 179.5q0 151 119 239.5t322 88.5q202 0 321 -88.5t119 -239.5q0 -211 -272 -266zM915 989q0 106 -78.5 168t-211.5 62 q-134 0 -212.5 -62t-78.5 -168q0 -101 79 -161t212 -60t211.5 60t78.5 161zM268 365q0 -138 96.5 -218.5t260.5 -80.5t261 80.5t97 218.5q0 130 -97 207t-261 77t-260.5 -76.5t-96.5 -207.5z" />
<glyph unicode="9" horiz-adv-x="1218" d="M541 473q-214 0 -332.5 101t-118.5 284q0 205 136.5 331t359.5 126q250 0 381 -160t131 -453q0 -370 -137.5 -550.5t-419.5 -180.5q-149 0 -340 72l22 88q183 -65 312 -65q201 0 300 146t99 443q-73 -105 -170 -143.5t-223 -38.5zM586 1221q-152 0 -245 -92.5t-93 -243.5 q0 -141 83 -220t232 -79q102 0 181.5 30.5t129.5 98.5t50 166q0 154 -93 247t-245 93z" />
<glyph unicode=":" horiz-adv-x="468" d="M334 657h-199v158h199v-158zM334 0h-199v158h199v-158z" />
<glyph unicode=";" horiz-adv-x="518" d="M369 657h-199v158h199v-158zM248 -209h-113l47 367h187z" />
<glyph unicode="&#x3c;" horiz-adv-x="880" d="M750 233v-153l-674 317v125l674 318v-154l-529 -227z" />
<glyph unicode="=" horiz-adv-x="802" d="M139 690h525v-125h-525v125zM139 348h525v-125h-525v125z" />
<glyph unicode="&#x3e;" horiz-adv-x="880" d="M131 233l528 226l-528 227v154l674 -318v-125l-674 -317v153z" />
<glyph unicode="?" horiz-adv-x="1030" d="M51 1214q207 101 398 101q232 0 373 -91.5t141 -242.5q0 -62 -16.5 -110.5t-49.5 -82.5t-67 -56.5t-82 -45.5q-53 -25 -83 -39.5t-73.5 -41t-66.5 -49.5t-40.5 -56t-17.5 -68v-70h-150v62q0 49 19 94.5t46 79.5t75.5 72.5t87 64t100.5 62.5q62 38 95.5 84.5t33.5 117.5 q0 100 -89 161t-236 61q-169 0 -365 -86zM293 0v156h201v-156h-201z" />
<glyph unicode="@" horiz-adv-x="1832" d="M940 1315q365 0 579 -193.5t214 -523.5q0 -170 -60.5 -314.5t-165.5 -228.5t-229 -84q-80 0 -119 46t-39 167q-60 -97 -141 -155t-156 -58q-137 0 -210.5 121.5t-73.5 347.5q0 230 107.5 368t287.5 138q87 0 163 -24t167 -70v-774q0 -19 14 -19q124 0 212.5 165.5 t88.5 398.5q0 275 -172 436.5t-467 161.5q-313 0 -496.5 -200.5t-183.5 -543.5q0 -331 178.5 -525t483.5 -194q52 0 108.5 8.5t92.5 17t100 26.5l30 -84q-153 -62 -331 -62q-381 0 -603.5 219t-222.5 594q0 386 228 612t616 226zM1120 328v481q-110 45 -194 45 q-106 0 -169 -107t-63 -288q0 -217 37 -308.5t125 -91.5q67 0 142 76.5t122 192.5z" />
<glyph unicode="A" horiz-adv-x="1212" d="M1006 0l-129 362h-596l-131 -362h-103l465 1286h190l463 -1286h-159zM313 457h529l-262 739z" />
<glyph unicode="B" horiz-adv-x="1286" d="M795 723q189 -13 295 -98.5t106 -223.5q0 -207 -185.5 -304t-586.5 -97h-242v1286h443q217 0 338.5 -76t121.5 -211q0 -97 -76.5 -169.5t-213.5 -106.5zM614 1192h-280v-453q302 0 449 64t147 196q0 98 -78 145.5t-238 47.5zM334 94h145q294 0 421.5 75.5t127.5 248.5 q0 106 -96.5 172.5t-251.5 66.5q-168 0 -346 -22v-541z" />
<glyph unicode="C" horiz-adv-x="1185" d="M1102 127l22 -86q-187 -70 -401 -70q-302 0 -458 171t-156 503q0 330 156 500t458 170q214 0 401 -74l-22 -88q-188 68 -379 68q-227 0 -344 -146t-117 -430q0 -286 117 -432.5t344 -146.5q202 0 379 61z" />
<glyph unicode="D" horiz-adv-x="1339" d="M182 1286h434q615 0 615 -645q0 -641 -615 -641h-434v1286zM334 94h282q459 0 459 547q0 551 -459 551h-282v-1098z" />
<glyph unicode="E" horiz-adv-x="1081" d="M981 1286v-94h-647v-475h569v-96h-569v-527h647v-94h-799v1286h799z" />
<glyph unicode="F" horiz-adv-x="1036" d="M981 1286v-94h-647v-479h569v-95h-569v-618h-152v1286h799z" />
<glyph unicode="G" horiz-adv-x="1261" d="M682 682h448v-653q-165 -58 -407 -58q-614 0 -614 670q0 674 614 674q226 0 403 -74l-24 -88q-214 68 -379 68q-461 0 -461 -580q0 -575 461 -575q160 0 260 32v488h-301v96z" />
<glyph unicode="H" horiz-adv-x="1314" d="M981 717v569h152v-1286h-152v623h-649v-623h-150v1286h150v-569h649z" />
<glyph unicode="I" horiz-adv-x="516" d="M334 1286v-1286h-152v1286h152z" />
<glyph unicode="J" horiz-adv-x="540" d="M207 1286h151v-1362q0 -148 -69.5 -212t-229.5 -64q-71 0 -135 24l23 84q61 -14 102 -14q91 0 124.5 39t33.5 143v1362z" />
<glyph unicode="K" horiz-adv-x="1155" d="M1167 0h-200l-594 645h-41v-645h-150v1286h150v-549h43l499 549h177l-559 -590z" />
<glyph unicode="L" horiz-adv-x="1028" d="M334 94h647v-94h-799v1286h152v-1192z" />
<glyph unicode="M" horiz-adv-x="1587" d="M1126 1286h203l144 -1286h-154l-125 1182l-352 -1182h-168l-330 1171l-102 -1171h-121l131 1286h207l327 -1126z" />
<glyph unicode="N" horiz-adv-x="1380" d="M1085 1286h113v-1286h-184l-721 1133v-1133h-111v1286h172l731 -1134v1134z" />
<glyph unicode="O" horiz-adv-x="1452" d="M725 1315q304 0 462.5 -172t158.5 -502q0 -327 -158.5 -498.5t-462.5 -171.5q-302 0 -460.5 171.5t-158.5 498.5q0 330 158.5 502t460.5 172zM725 66q226 0 343.5 147t117.5 428q0 284 -117.5 432t-343.5 148q-224 0 -341.5 -148t-117.5 -432q0 -281 117.5 -428 t341.5 -147z" />
<glyph unicode="P" horiz-adv-x="1216" d="M1149 950q0 -141 -76.5 -224.5t-243 -122.5t-448.5 -40h-47v-563h-152v1286h484q246 0 364.5 -83t118.5 -253zM987 961q0 118 -84 174.5t-258 56.5h-311v-537q356 0 504.5 70t148.5 236z" />
<glyph unicode="Q" horiz-adv-x="1443" d="M1335 635q0 -281 -118.5 -447t-348.5 -206q8 -83 66.5 -129t161.5 -46h24l-26 -94h-29q-148 0 -234.5 66.5t-103.5 189.5q-306 0 -463.5 169.5t-157.5 496.5q0 334 156.5 507t458.5 173t458 -172.5t156 -507.5zM260 635q0 -281 117 -426.5t344 -145.5t344 145.5 t117 426.5q0 289 -117 437.5t-344 148.5t-344 -148.5t-117 -437.5z" />
<glyph unicode="R" horiz-adv-x="1247" d="M1137 969q0 -129 -75.5 -208t-238.5 -122l375 -639h-186l-334 610q-170 -20 -344 -20v-590h-152v1286h471q238 0 361 -80.5t123 -236.5zM977 981q0 104 -86.5 157.5t-255.5 53.5h-301v-508h24q321 0 470 72t149 225z" />
<glyph unicode="S" horiz-adv-x="1116" d="M582 748q247 -47 354.5 -134.5t107.5 -240.5q0 -186 -139.5 -294t-378.5 -108q-110 0 -207 26.5t-206 80.5l28 86q206 -98 385 -98q171 0 271 74.5t100 203.5q0 97 -84.5 160.5t-298.5 105.5q-223 44 -322.5 125.5t-99.5 214.5q0 163 130 264t339 101q195 0 369 -98 l-33 -80q-165 84 -328 84q-150 0 -243 -68.5t-93 -177.5q0 -91 78.5 -141t270.5 -86z" />
<glyph unicode="T" horiz-adv-x="1091" d="M1047 1286v-94h-426v-1192h-152v1192h-424v94h1002z" />
<glyph unicode="U" horiz-adv-x="1355" d="M1034 1286h152v-874q0 -211 -133 -327t-375 -116t-375 116t-133 327v874h149v-893q0 -175 84.5 -252.5t274.5 -77.5q189 0 272.5 77.5t83.5 252.5v893z" />
<glyph unicode="V" horiz-adv-x="1122" d="M643 0h-166l-411 1286h159l363 -1145l360 1145h111z" />
<glyph unicode="W" horiz-adv-x="1687" d="M1503 1286h113l-318 -1286h-165l-287 1098l-293 -1098h-168l-311 1286h159l267 -1106l282 1106h172l287 -1106z" />
<glyph unicode="X" horiz-adv-x="1130" d="M1124 0h-180l-393 580l-412 -580h-135l492 668l-412 618h180l320 -495l331 495h129l-405 -581z" />
<glyph unicode="Y" horiz-adv-x="1085" d="M1006 1286l-388 -692v-594h-147v586l-401 700h172l319 -602l318 602h127z" />
<glyph unicode="Z" horiz-adv-x="1112" d="M1049 1286v-102l-836 -1090h817v-94h-979v104l844 1088h-780v94h934z" />
<glyph unicode="[" horiz-adv-x="550" d="M483 1192h-153v-1407h153v-94h-305v1595h305v-94z" />
<glyph unicode="\" horiz-adv-x="1015" d="M211 1286l762 -1286h-178l-756 1286h172z" />
<glyph unicode="]" horiz-adv-x="550" d="M221 1192h-153v94h305v-1595h-305v94h153v1407z" />
<glyph unicode="^" horiz-adv-x="903" d="M225 610h-153l317 676h125l317 -676h-153l-227 531z" />
<glyph unicode="_" horiz-adv-x="878" d="M0 -102h879v-76h-879v76z" />
<glyph unicode="`" horiz-adv-x="657" d="M365 1087l-244 220h186l174 -220h-116z" />
<glyph unicode="a" horiz-adv-x="997" d="M856 598v-539q-184 -88 -362 -88q-204 0 -312 77t-108 222q0 126 97 200.5t278 86.5q153 10 264 10v68q0 114 -57.5 162.5t-192.5 48.5q-130 0 -285 -41l-22 82q168 55 348 55t266 -83.5t86 -260.5zM713 109v368q-115 0 -244 -12q-130 -10 -189 -60t-59 -147 q0 -94 64.5 -143t187.5 -49q62 0 131.5 13.5t108.5 29.5z" />
<glyph unicode="b" horiz-adv-x="1089" d="M571 942q214 0 316 -117.5t102 -363.5q0 -236 -110.5 -363t-317.5 -127q-219 0 -405 88v1227h143v-395q136 51 272 51zM846 457q0 199 -77.5 294t-240.5 95q-106 0 -229 -45v-692q113 -43 240 -43q149 0 228 101t79 290z" />
<glyph unicode="c" horiz-adv-x="897" d="M100 455q0 487 418 487q146 0 311 -55l-20 -80q-149 41 -248 41q-166 0 -240.5 -92.5t-74.5 -298.5t74.5 -298.5t240.5 -92.5q116 0 248 38l20 -79q-164 -54 -311 -54q-418 0 -418 484z" />
<glyph unicode="d" horiz-adv-x="1091" d="M936 59q-189 -88 -406 -88q-212 0 -321 124t-109 366q0 238 106.5 359.5t313.5 121.5q134 0 273 -51v395h143v-1227zM553 66q113 0 240 43v692q-122 45 -232 45q-164 0 -239.5 -93t-75.5 -296q0 -191 78.5 -291t228.5 -100z" />
<glyph unicode="e" horiz-adv-x="1032" d="M891 424h-647q3 -170 80.5 -264t214.5 -94q158 0 311 65l29 -92q-170 -68 -340 -68q-209 0 -325 128t-116 358t112 357.5t314 127.5q201 0 312.5 -120t111.5 -337q0 -61 -57 -61zM244 518h561q0 157 -74 243.5t-207 86.5q-129 0 -203 -87t-77 -243z" />
<glyph unicode="f" horiz-adv-x="612" d="M496 1221q-95 0 -127.5 -37t-32.5 -144v-127h239v-94h-239v-819h-146v819h-137v94h137v127q0 141 70 208t219 67q65 0 144 -27l-23 -84q-63 17 -104 17z" />
<glyph unicode="g" horiz-adv-x="1089" d="M936 834v-947q0 -175 -98 -259.5t-299 -84.5q-152 0 -359 68l23 80q193 -53 293 -53q162 0 228.5 47.5t66.5 164.5v173q-157 -52 -273 -52q-212 0 -315 119t-103 365q0 247 106 367t324 120q221 0 406 -108zM561 66q78 0 230 55v661q-94 66 -230 66q-161 0 -239 -96.5 t-78 -294.5t78 -294.5t239 -96.5z" />
<glyph unicode="h" horiz-adv-x="1079" d="M930 0h-144v625q0 122 -53 172.5t-182 50.5q-131 0 -248 -49v-799h-143v1286h143v-397q130 53 285 53q187 0 264.5 -78.5t77.5 -269.5v-594z" />
<glyph unicode="i" horiz-adv-x="464" d="M305 1286v-199h-145v199h145zM305 913v-913h-145v913h145z" />
<glyph unicode="j" horiz-adv-x="479" d="M319 1286v-199h-143v199h143zM319 913v-1095q0 -136 -63.5 -205.5t-198.5 -69.5h-16l-25 95h35q70 3 97.5 43.5t27.5 136.5v1095h143z" />
<glyph unicode="k" horiz-adv-x="956" d="M469 504l487 -504h-196l-406 449h-51v-449h-143v1286h143v-743h51l348 370h168z" />
<glyph unicode="l" horiz-adv-x="462" d="M303 0h-143v1286l143 35v-1321z" />
<glyph unicode="m" horiz-adv-x="1673" d="M1524 0h-144v641q0 117 -50 162t-179 45q-70 0 -123 -13t-121 -47q4 -12 4 -49v-739h-145v641q0 117 -49.5 162t-177.5 45q-112 0 -240 -57v-791h-145v834q210 108 421 108q106 0 164 -16.5t101 -57.5q94 42 170 58t178 16q189 0 262.5 -72.5t73.5 -259.5v-610z" />
<glyph unicode="n" horiz-adv-x="1073" d="M924 0h-142v625q0 126 -51.5 174.5t-185.5 48.5q-114 0 -248 -57v-791h-143v834q208 108 430 108q185 0 262.5 -79.5t77.5 -268.5v-594z" />
<glyph unicode="o" horiz-adv-x="1069" d="M971 455q0 -229 -114.5 -356.5t-321.5 -127.5t-322 127.5t-115 356.5q0 230 115 358.5t322 128.5t321.5 -128.5t114.5 -358.5zM825 455q0 186 -76 289.5t-214 103.5t-214.5 -103.5t-76.5 -289.5q0 -184 76.5 -286.5t214.5 -102.5t214 102t76 287z" />
<glyph unicode="p" horiz-adv-x="1087" d="M987 455q0 -248 -102 -366t-316 -118q-115 0 -270 52v-451h-145v1262q171 108 405 108q218 0 323 -119t105 -368zM844 457q0 200 -77.5 295.5t-238.5 95.5q-67 0 -118.5 -15.5t-110.5 -50.5v-661q146 -55 229 -55q161 0 238.5 95.5t77.5 295.5z" />
<glyph unicode="q" horiz-adv-x="1087" d="M528 942q226 0 406 -108v-1262h-143v451q-157 -52 -273 -52q-214 0 -316 118t-102 366q0 249 105 368t323 119zM561 66q81 0 230 55v661q-112 66 -230 66q-161 0 -238 -95.5t-77 -295.5t77 -295.5t238 -95.5z" />
<glyph unicode="r" horiz-adv-x="720" d="M705 918l-43 -109q-77 39 -185 39q-90 0 -182 -49v-799h-141v834q174 108 366 108q102 0 185 -24z" />
<glyph unicode="s" d="M406 -29q-133 0 -302 66l23 82q145 -53 281 -53q128 0 200 49t72 135q0 31 -7.5 51t-31.5 40.5t-71.5 37t-123.5 31.5q-147 28 -224.5 65t-105.5 85.5t-28 127.5q0 123 98.5 188.5t284.5 65.5q126 0 291 -65l-27 -82q-141 53 -264 53q-120 0 -184 -41.5t-64 -118.5 q0 -50 49 -85.5t183 -61.5q150 -28 227 -62t107 -84t30 -137q0 -135 -109.5 -211t-303.5 -76z" />
<glyph unicode="t" horiz-adv-x="618" d="M559 72l-16 -97q-36 -4 -68 -4q-149 0 -218 65.5t-69 207.5v575h-133v94h133v275l144 35v-310h239v-94h-239v-575q0 -106 32.5 -142t127.5 -36q40 0 67 6z" />
<glyph unicode="u" horiz-adv-x="1075" d="M150 913h145v-628q0 -120 53.5 -169.5t181.5 -49.5q125 0 246 47v800h146v-819q-105 -66 -203.5 -94.5t-226.5 -28.5q-186 0 -264 78.5t-78 265.5v598z" />
<glyph unicode="v" horiz-adv-x="958" d="M803 913h102l-354 -913h-141l-359 913h160l295 -768z" />
<glyph unicode="w" horiz-adv-x="1476" d="M1323 913h98l-295 -913h-131l-258 782l-252 -782h-131l-303 913h160l235 -743l234 743h172l235 -743z" />
<glyph unicode="x" horiz-adv-x="956" d="M928 0h-176l-287 389l-318 -389h-127l383 469l-329 444h176l248 -327l270 327h127l-336 -411z" />
<glyph unicode="y" d="M393 88l-340 825h158l260 -641l268 641h115l-565 -1341h-111z" />
<glyph unicode="z" horiz-adv-x="948" d="M858 795l-618 -701h632v-94h-811v98l641 721h-589v94h745v-118z" />
<glyph unicode="{" horiz-adv-x="616" d="M520 -215h35v-94h-45q-157 0 -227 64.5t-70 209.5v309q0 105 -32.5 143t-123.5 38v94q91 0 123.5 38t32.5 142v309q0 146 70 211.5t227 65.5h45v-94h-35q-81 0 -118 -43.5t-37 -139.5v-315q0 -85 -43 -153t-121 -68q78 0 121 -64.5t43 -163.5v-309q0 -95 36.5 -137.5 t118.5 -42.5z" />
<glyph unicode="|" horiz-adv-x="507" d="M330 -309h-152v1595h152v-1595z" />
<glyph unicode="}" horiz-adv-x="616" d="M98 -215q82 0 119 42.5t37 137.5v309q0 99 43 163.5t121 64.5q-78 0 -121 68t-43 153v315q0 95 -37 139t-119 44h-35v94h46q157 0 227 -65.5t70 -211.5v-309q0 -105 32.5 -142.5t122.5 -37.5v-94q-90 0 -122.5 -38t-32.5 -143v-309q0 -145 -70 -209.5t-227 -64.5h-46v94 h35z" />
<glyph unicode="~" horiz-adv-x="888" d="M698 590l54 -53q-44 -69 -84.5 -96t-100.5 -27q-61 0 -133 35q-70 34 -123 34q-37 0 -62.5 -14t-53.5 -49l-56 51q44 69 85 96t100 27q65 0 137 -37q60 -31 119 -31q38 0 64 14t54 50z" />
<glyph unicode="&#xa1;" horiz-adv-x="518" d="M158 1286h200v-156h-200v156zM358 0h-200l41 913h120z" />
<glyph unicode="&#xa2;" horiz-adv-x="921" d="M811 109l20 -80q-139 -47 -213 -52v-192h-151v188q-184 15 -274.5 135.5t-90.5 350.5q0 229 90 347.5t275 133.5v217h151v-219q99 -13 213 -51l-20 -80q-155 41 -250 41q-160 0 -237.5 -95.5t-77.5 -291.5q0 -200 77.5 -297.5t237.5 -97.5q93 0 250 43z" />
<glyph unicode="&#xa3;" horiz-adv-x="1130" d="M342 94h737v-94h-985v94q89 0 123.5 39.5t34.5 140.5v375h-158v94h158v226q0 180 84 263t266 83q171 0 348 -58l-22 -81q-157 43 -283 43q-136 0 -189 -52t-53 -184v-240h418v-94h-418v-375q0 -119 -61 -180z" />
<glyph unicode="&#xa4;" horiz-adv-x="999" d="M115 203l98 100q-53 80 -53 189q0 103 59 188l-104 106l88 93l106 -113q77 53 176 53q111 0 201 -55l107 115l88 -93l-103 -104q68 -84 68 -190q0 -107 -62 -191l97 -98l-88 -92l-97 102q-95 -66 -211 -66q-105 0 -186 62l-96 -98zM498 713q-89 0 -152 -67t-63 -161 q0 -92 63 -157.5t152 -65.5q93 0 158 65t65 158q0 94 -65 161t-158 67z" />
<glyph unicode="&#xa5;" horiz-adv-x="1048" d="M977 1286l-361 -643h320v-94h-338v-82h338v-94h-338v-373h-147v373h-332v94h332v82h-332v94h309l-369 643h170l310 -586l311 586h127z" />
<glyph unicode="&#xa6;" horiz-adv-x="507" d="M330 584h-152v702h152v-702zM178 340h152v-768h-152v768z" />
<glyph unicode="&#xa7;" horiz-adv-x="1148" d="M1092 414q0 -78 -36.5 -148t-99.5 -116q31 -50 31 -134q0 -169 -123.5 -260.5t-349.5 -91.5q-95 0 -177 24t-185 74l26 80q100 -45 178 -68.5t158 -23.5q161 0 249.5 65t88.5 183q0 75 -76 125t-295 119q-229 75 -318 152.5t-89 201.5q0 69 39.5 130t109.5 99 q-80 65 -80 176q0 148 114.5 231t315.5 83q89 0 178.5 -23t157.5 -67l-30 -74q-156 78 -297 78q-144 0 -226 -58t-82 -159q0 -61 67 -102t267 -103q272 -83 378 -169t106 -224zM520 373q259 -82 363 -148q34 29 53.5 76.5t19.5 99.5q0 85 -95 148t-341 141q-136 44 -194 72 q-57 -26 -89 -69.5t-32 -94.5q0 -69 69 -118.5t246 -106.5z" />
<glyph unicode="&#xa8;" horiz-adv-x="1300" d="M580 1286v-199h-144v199h144zM879 1286v-199h-144v199h144z" />
<glyph unicode="&#xa9;" horiz-adv-x="1540" d="M1440 645q0 -188 -89 -343t-242.5 -243t-336.5 -88q-203 0 -355.5 86t-233.5 238.5t-81 349.5q0 188 89.5 342t243 241t337.5 87q185 0 337.5 -86.5t241.5 -240.5t89 -343zM1335 645q0 121 -43.5 229.5t-118 187t-179 124t-222.5 45.5t-223 -45t-180.5 -123t-119.5 -187 t-44 -231q0 -260 160 -426t413 -166q154 0 282 79t201.5 215t73.5 298zM786 330q82 0 199 32l14 -63q-134 -45 -245 -45q-164 0 -248 98.5t-84 290.5t84 290.5t248 98.5q115 0 245 -43l-14 -63q-117 32 -199 32q-249 0 -249 -313q0 -315 249 -315z" />
<glyph unicode="&#xaa;" horiz-adv-x="729" d="M582 795q-115 -54 -213 -54q-246 0 -246 177q0 94 87.5 135t287.5 41v26q0 73 -34 105t-112 32q-85 0 -166 -24l-14 47q98 35 203 35q110 0 158.5 -47t48.5 -156v-317zM498 1038q-68 0 -144 -6q-77 -6 -110 -34.5t-33 -88.5q0 -112 145 -112q72 0 142 26v215zM147 645 h435v-74h-435v74z" />
<glyph unicode="&#xab;" horiz-adv-x="911" d="M236 600l239 -313l-96 -84l-305 397l305 399l96 -86zM575 600l240 -313l-98 -84l-303 397l303 399l98 -86z" />
<glyph unicode="&#xac;" horiz-adv-x="1146" d="M1001 645v-545h-155v445h-740v100h895z" />
<glyph unicode="&#xad;" horiz-adv-x="702" d="M135 522h432v-76h-432v76z" />
<glyph unicode="&#xae;" horiz-adv-x="1540" d="M1440 645q0 -188 -89 -343t-242.5 -243t-336.5 -88q-203 0 -355.5 86t-233.5 238.5t-81 349.5q0 188 89.5 342t243 241t337.5 87q185 0 337.5 -86.5t241.5 -240.5t89 -343zM1335 645q0 121 -43.5 229.5t-118 187t-179 124t-222.5 45.5t-223 -45t-180.5 -123t-119.5 -187 t-44 -231q0 -260 160 -426t413 -166q154 0 282 79t201.5 215t73.5 298zM1067 846q0 -74 -44.5 -121t-137.5 -72l219 -374h-111l-194 358q-94 -12 -203 -12v-346h-88v753h276q146 0 214.5 -44.5t68.5 -141.5zM975 854q0 63 -49.5 93t-153.5 30h-176v-297h16q188 2 275.5 43.5 t87.5 130.5z" />
<glyph unicode="&#xaf;" horiz-adv-x="1050" d="M274 1169v117h557v-117h-557z" />
<glyph unicode="&#xb0;" horiz-adv-x="733" d="M367 1315q129 0 196.5 -79.5t67.5 -231.5t-67.5 -232t-196.5 -80t-197 80t-68 232t68 231.5t197 79.5zM186 1004q0 -130 46.5 -199.5t134.5 -69.5t134 69t46 200q0 129 -46 197.5t-134 68.5t-134.5 -68.5t-46.5 -197.5z" />
<glyph unicode="&#xb1;" horiz-adv-x="1093" d="M961 551h-349v-268h-129v268h-350v104h350v258h129v-258h349v-104zM961 72h-828v104h828v-104z" />
<glyph unicode="&#xb4;" horiz-adv-x="636" d="M342 1087h-117l174 220h187z" />
<glyph unicode="&#xb6;" horiz-adv-x="1146" d="M53 905q0 189 105 285t311 96h244v-1714h-152v913h-76q-214 0 -323 106.5t-109 313.5zM807 -428v1714h151v-1714h-151z" />
<glyph unicode="&#xb7;" horiz-adv-x="471" d="M336 403h-201v158h201v-158z" />
<glyph unicode="&#xb8;" horiz-adv-x="1298" d="M670 -348l16 86q66 -17 94 -17q88 0 88 60q0 61 -90 61q-36 0 -92 -18l-16 84q67 18 137 18q107 0 164 -37.5t57 -107.5q0 -72 -57 -110t-166 -38q-54 0 -135 19z" />
<glyph unicode="&#xba;" horiz-adv-x="778" d="M389 741q-121 0 -188.5 76t-67.5 211t67.5 211t188.5 76t188.5 -76t67.5 -211t-67.5 -211t-188.5 -76zM557 1028q0 109 -44.5 170.5t-123.5 61.5q-81 0 -126.5 -61.5t-45.5 -170.5t45 -170t127 -61q79 0 123.5 61t44.5 170zM152 571v74h473v-74h-473z" />
<glyph unicode="&#xbb;" horiz-adv-x="913" d="M678 600l-242 313l99 86l305 -399l-305 -397l-99 84zM338 600l-242 313l99 86l305 -399l-305 -397l-99 84z" />
<glyph unicode="&#xbc;" horiz-adv-x="1353" d="M340 1286v-758h-117v668h-170v57l201 33h86zM958 1286h113l-756 -1286h-116zM1186 260h98v-90h-98v-170h-117v170h-416v68l400 522h133v-500zM1069 260v414l-313 -414h313z" />
<glyph unicode="&#xbd;" horiz-adv-x="1466" d="M958 1286h113l-756 -1286h-116zM340 1286v-758h-117v668h-170v57l201 33h86zM1376 586q0 -83 -61 -144l-367 -366h428v-76h-549v88l394 399q49 53 49 107q0 40 -49.5 62t-137.5 22q-106 0 -202 -51l-19 90q125 59 225 59q137 0 213 -49.5t76 -140.5z" />
<glyph unicode="&#xbe;" horiz-adv-x="1564" d="M408 936q104 -10 162.5 -60.5t58.5 -130.5q0 -109 -82 -170t-230 -61q-132 0 -245 66l16 94q149 -60 229 -60q94 0 145.5 33.5t51.5 93.5q0 65 -67.5 100.5t-188.5 35.5h-88v102h88q103 0 160 38t57 107q0 43 -39.5 66.5t-111.5 23.5q-136 0 -209 -45l-21 91 q99 55 234 55q123 0 190.5 -49.5t67.5 -137.5q0 -72 -46.5 -122.5t-131.5 -69.5zM1180 1286h110l-753 -1286h-119zM1407 260h96v-90h-96v-170h-117v170h-418v68l402 522h133v-500zM1290 260v414l-313 -414h313z" />
<glyph unicode="&#xbf;" horiz-adv-x="1026" d="M735 1286v-156h-200v156h200zM977 72q-207 -101 -397 -101q-232 0 -373 91.5t-141 242.5q0 52 14 95t35 72.5t55.5 55t64.5 41t72 33.5q57 24 94 43t78 48t61.5 64.5t20.5 78.5v77h150v-69q0 -42 -11 -79t-35 -69t-48.5 -57t-66.5 -53.5t-72 -46.5t-81 -47 q-68 -39 -105.5 -86t-37.5 -119q0 -100 89 -160.5t237 -60.5q168 0 364 86z" />
<glyph unicode="&#xc0;" horiz-adv-x="1212" d="M547 1456l-244 223h189l174 -223h-119zM1006 0l-129 362h-596l-131 -362h-103l465 1286h190l463 -1286h-159zM313 457h529l-262 739z" />
<glyph unicode="&#xc1;" horiz-adv-x="1212" d="M659 1456h-118l174 223h188zM1006 0l-129 362h-596l-131 -362h-103l465 1286h190l463 -1286h-159zM313 457h529l-262 739z" />
<glyph unicode="&#xc2;" horiz-adv-x="1212" d="M877 1456h-121l-148 137l-149 -137h-121l182 223h174zM1006 0l-129 362h-596l-131 -362h-103l465 1286h190l463 -1286h-159zM313 457h529l-262 739z" />
<glyph unicode="&#xc3;" horiz-adv-x="1212" d="M858 1632l55 -53q-44 -67 -86 -95t-98 -28q-59 0 -131 35t-125 35q-37 0 -63 -14.5t-54 -49.5l-55 51q43 68 84.5 95.5t99.5 27.5t150 -43q58 -26 106 -26q66 0 117 65zM1006 0l-129 362h-596l-131 -362h-103l465 1286h190l463 -1286h-159zM313 457h529l-262 739z" />
<glyph unicode="&#xc4;" horiz-adv-x="1212" d="M512 1655v-199h-145v199h145zM846 1655v-199h-146v199h146zM1006 0l-129 362h-596l-131 -362h-103l465 1286h190l463 -1286h-159zM313 457h529l-262 739z" />
<glyph unicode="&#xc5;" horiz-adv-x="1212" d="M1006 0l-129 362h-596l-131 -362h-103l455 1257q-133 24 -133 132q0 72 56.5 106.5t176.5 34.5t177 -34.5t57 -106.5q0 -106 -123 -129l452 -1260h-159zM688 1389q0 51 -19.5 71.5t-66.5 20.5t-66.5 -20.5t-19.5 -71.5q0 -50 19.5 -70.5t66.5 -20.5t66.5 20.5t19.5 70.5z M313 457h529l-262 739z" />
<glyph unicode="&#xc6;" horiz-adv-x="1683" d="M1583 1286v-94h-647v-475h569v-96h-569v-527h647v-94h-799v362h-467l-131 -362h-143l465 1286h1075zM614 1192l-264 -735h434v735h-170z" />
<glyph unicode="&#xc7;" horiz-adv-x="1185" d="M1102 127l22 -86q-187 -70 -401 -70q-302 0 -458 171t-156 503q0 330 156 500t458 170q214 0 401 -74l-22 -88q-188 68 -379 68q-227 0 -344 -146t-117 -430q0 -286 117 -432.5t344 -146.5q202 0 379 61zM528 -348l17 86q66 -17 94 -17q88 0 88 60q0 61 -90 61 q-37 0 -92 -18l-17 84q68 18 138 18q107 0 164 -37.5t57 -107.5q0 -72 -57 -110t-166 -38q-55 0 -136 19z" />
<glyph unicode="&#xc8;" horiz-adv-x="1081" d="M569 1456l-243 223h188l174 -223h-119zM981 1286v-94h-647v-475h569v-96h-569v-527h647v-94h-799v1286h799z" />
<glyph unicode="&#xc9;" horiz-adv-x="1081" d="M600 1430h-119l174 223h189zM981 1286v-94h-647v-475h569v-96h-569v-527h647v-94h-799v1286h799z" />
<glyph unicode="&#xca;" horiz-adv-x="1081" d="M850 1456h-121l-147 137l-150 -137h-121l183 223h174zM981 1286v-94h-647v-475h569v-96h-569v-527h647v-94h-799v1286h799z" />
<glyph unicode="&#xcb;" horiz-adv-x="1081" d="M487 1655v-199h-145v199h145zM821 1655v-199h-145v199h145zM981 1286v-94h-647v-475h569v-96h-569v-527h647v-94h-799v1286h799z" />
<glyph unicode="&#xcc;" horiz-adv-x="516" d="M217 1456l-244 223h189l174 -223h-119zM334 1286v-1286h-152v1286h152z" />
<glyph unicode="&#xcd;" horiz-adv-x="516" d="M322 1430h-119l174 223h188zM334 1286v-1286h-152v1286h152z" />
<glyph unicode="&#xce;" horiz-adv-x="516" d="M528 1456h-120l-148 137l-149 -137h-121l182 223h174zM334 1286v-1286h-152v1286h152z" />
<glyph unicode="&#xcf;" horiz-adv-x="516" d="M164 1655v-199h-146v199h146zM498 1655v-199h-146v199h146zM334 1286v-1286h-152v1286h152z" />
<glyph unicode="&#xd0;" horiz-adv-x="1349" d="M70 709h123v577h434q614 0 614 -645q0 -641 -614 -641h-434v614h-123v95zM344 94h283q458 0 458 547q0 551 -458 551h-283v-483h334v-95h-334v-520z" />
<glyph unicode="&#xd1;" horiz-adv-x="1380" d="M965 1632l55 -53q-44 -67 -86 -95t-98 -28q-59 0 -131 35t-125 35q-37 0 -63 -14.5t-54 -49.5l-55 51q43 68 84.5 95.5t99.5 27.5q57 0 149 -43q58 -26 107 -26q66 0 117 65zM1085 1286h113v-1286h-184l-721 1133v-1133h-111v1286h172l731 -1134v1134z" />
<glyph unicode="&#xd2;" horiz-adv-x="1452" d="M668 1456l-244 223h188l174 -223h-118zM725 1315q304 0 462.5 -172t158.5 -502q0 -327 -158.5 -498.5t-462.5 -171.5q-302 0 -460.5 171.5t-158.5 498.5q0 330 158.5 502t460.5 172zM725 66q226 0 343.5 147t117.5 428q0 284 -117.5 432t-343.5 148q-224 0 -341.5 -148 t-117.5 -432q0 -281 117.5 -428t341.5 -147z" />
<glyph unicode="&#xd3;" horiz-adv-x="1452" d="M758 1430h-119l174 223h188zM725 1315q304 0 462.5 -172t158.5 -502q0 -327 -158.5 -498.5t-462.5 -171.5q-302 0 -460.5 171.5t-158.5 498.5q0 330 158.5 502t460.5 172zM725 66q226 0 343.5 147t117.5 428q0 284 -117.5 432t-343.5 148q-224 0 -341.5 -148t-117.5 -432 q0 -281 117.5 -428t341.5 -147z" />
<glyph unicode="&#xd4;" horiz-adv-x="1452" d="M995 1456h-121l-147 137l-149 -137h-121l182 223h174zM725 1315q304 0 462.5 -172t158.5 -502q0 -327 -158.5 -498.5t-462.5 -171.5q-302 0 -460.5 171.5t-158.5 498.5q0 330 158.5 502t460.5 172zM725 66q226 0 343.5 147t117.5 428q0 284 -117.5 432t-343.5 148 q-224 0 -341.5 -148t-117.5 -432q0 -281 117.5 -428t341.5 -147z" />
<glyph unicode="&#xd5;" horiz-adv-x="1452" d="M977 1632l55 -53q-44 -67 -86 -95t-98 -28q-59 0 -131 35t-125 35q-37 0 -63 -14.5t-54 -49.5l-55 51q43 68 84.5 95.5t99.5 27.5t150 -43q58 -26 106 -26q66 0 117 65zM725 1315q304 0 462.5 -172t158.5 -502q0 -327 -158.5 -498.5t-462.5 -171.5q-302 0 -460.5 171.5 t-158.5 498.5q0 330 158.5 502t460.5 172zM725 66q226 0 343.5 147t117.5 428q0 284 -117.5 432t-343.5 148q-224 0 -341.5 -148t-117.5 -432q0 -281 117.5 -428t341.5 -147z" />
<glyph unicode="&#xd6;" horiz-adv-x="1452" d="M631 1655v-199h-146v199h146zM965 1655v-199h-146v199h146zM725 1315q304 0 462.5 -172t158.5 -502q0 -327 -158.5 -498.5t-462.5 -171.5q-302 0 -460.5 171.5t-158.5 498.5q0 330 158.5 502t460.5 172zM725 66q226 0 343.5 147t117.5 428q0 284 -117.5 432t-343.5 148 q-224 0 -341.5 -148t-117.5 -432q0 -281 117.5 -428t341.5 -147z" />
<glyph unicode="&#xd7;" horiz-adv-x="917" d="M115 715l84 88l268 -262l250 243l82 -88l-244 -243l250 -242l-90 -96l-248 250l-266 -267l-90 95l266 260z" />
<glyph unicode="&#xd8;" horiz-adv-x="1480" d="M739 1315q268 0 422 -133l96 104h148l-170 -184q125 -172 125 -461q0 -327 -158.5 -498.5t-462.5 -171.5q-265 0 -420 131l-94 -102h-147l168 182q-125 169 -125 459q0 330 158 502t460 172zM281 641q0 -214 67 -348l725 792q-121 136 -334 136q-224 0 -341 -148 t-117 -432zM739 66q226 0 343.5 147t117.5 428q0 211 -65 350l-725 -790q114 -135 329 -135z" />
<glyph unicode="&#xd9;" horiz-adv-x="1355" d="M653 1456l-243 223h188l174 -223h-119zM1034 1286h152v-874q0 -211 -133 -327t-375 -116t-375 116t-133 327v874h149v-893q0 -175 84.5 -252.5t274.5 -77.5q189 0 272.5 77.5t83.5 252.5v893z" />
<glyph unicode="&#xda;" horiz-adv-x="1355" d="M721 1456h-119l174 223h189zM1034 1286h152v-874q0 -211 -133 -327t-375 -116t-375 116t-133 327v874h149v-893q0 -175 84.5 -252.5t274.5 -77.5q189 0 272.5 77.5t83.5 252.5v893z" />
<glyph unicode="&#xdb;" horiz-adv-x="1355" d="M948 1456h-121l-147 137l-150 -137h-120l182 223h174zM1034 1286h152v-874q0 -211 -133 -327t-375 -116t-375 116t-133 327v874h149v-893q0 -175 84.5 -252.5t274.5 -77.5q189 0 272.5 77.5t83.5 252.5v893z" />
<glyph unicode="&#xdc;" horiz-adv-x="1355" d="M584 1655v-199h-146v199h146zM918 1655v-199h-146v199h146zM1034 1286h152v-874q0 -211 -133 -327t-375 -116t-375 116t-133 327v874h149v-893q0 -175 84.5 -252.5t274.5 -77.5q189 0 272.5 77.5t83.5 252.5v893z" />
<glyph unicode="&#xdd;" horiz-adv-x="1085" d="M604 1456h-119l174 223h189zM1006 1286l-388 -692v-594h-147v586l-401 700h172l319 -602l318 602h127z" />
<glyph unicode="&#xde;" horiz-adv-x="1239" d="M334 1286v-262h332q228 0 355.5 -94.5t127.5 -263.5q0 -85 -24 -142.5t-77.5 -100.5t-150.5 -68t-231 -38.5t-332 -17.5v-299h-152v1286h152zM645 930h-311v-535q262 8 400 36t195.5 84.5t57.5 160.5q0 120 -90.5 187t-251.5 67z" />
<glyph unicode="&#xdf;" horiz-adv-x="1265" d="M774 723q181 -12 291.5 -109t110.5 -243q0 -198 -140 -299t-415 -101q-79 0 -140 13v90q52 -8 119 -8q408 0 408 315q0 126 -95 201t-254 75q-86 0 -178 -8v96q214 19 308 82t94 187q0 89 -84 148t-211 59q-123 0 -203 -83t-80 -210v-928h-145v928q0 168 117 277.5 t298 109.5q201 0 332 -85t131 -216q0 -226 -264 -291z" />
<glyph unicode="&#xe0;" horiz-adv-x="997" d="M477 1087l-244 220h187l174 -220h-117zM856 598v-539q-184 -88 -362 -88q-204 0 -312 77t-108 222q0 126 97 200.5t278 86.5q153 10 264 10v68q0 114 -57.5 162.5t-192.5 48.5q-130 0 -285 -41l-22 82q168 55 348 55t266 -83.5t86 -260.5zM713 109v368q-115 0 -244 -12 q-130 -10 -189 -60t-59 -147q0 -94 64.5 -143t187.5 -49q62 0 131.5 13.5t108.5 29.5z" />
<glyph unicode="&#xe1;" horiz-adv-x="997" d="M551 1087h-117l174 220h187zM856 598v-539q-184 -88 -362 -88q-204 0 -312 77t-108 222q0 126 97 200.5t278 86.5q153 10 264 10v68q0 114 -57.5 162.5t-192.5 48.5q-130 0 -285 -41l-22 82q168 55 348 55t266 -83.5t86 -260.5zM713 109v368q-115 0 -244 -12 q-130 -10 -189 -60t-59 -147q0 -94 64.5 -143t187.5 -49q62 0 131.5 13.5t108.5 29.5z" />
<glyph unicode="&#xe2;" horiz-adv-x="997" d="M768 1087h-121l-149 136l-148 -136h-121l183 220h174zM856 598v-539q-184 -88 -362 -88q-204 0 -312 77t-108 222q0 126 97 200.5t278 86.5q153 10 264 10v68q0 114 -57.5 162.5t-192.5 48.5q-130 0 -285 -41l-22 82q168 55 348 55t266 -83.5t86 -260.5zM713 109v368 q-115 0 -244 -12q-130 -10 -189 -60t-59 -147q0 -94 64.5 -143t187.5 -49q62 0 131.5 13.5t108.5 29.5z" />
<glyph unicode="&#xe3;" horiz-adv-x="997" d="M756 1262l55 -54q-44 -67 -85.5 -94t-100.5 -27q-55 0 -127 33q-80 37 -129 37q-37 0 -62.5 -14t-54.5 -51l-55 53q44 68 85 94.5t99 26.5q63 0 143 -39q60 -29 113 -29q37 0 63.5 14.5t55.5 49.5zM856 598v-539q-184 -88 -362 -88q-204 0 -312 77t-108 222 q0 126 97 200.5t278 86.5q153 10 264 10v68q0 114 -57.5 162.5t-192.5 48.5q-130 0 -285 -41l-22 82q168 55 348 55t266 -83.5t86 -260.5zM713 109v368q-115 0 -244 -12q-130 -10 -189 -60t-59 -147q0 -94 64.5 -143t187.5 -49q62 0 131.5 13.5t108.5 29.5z" />
<glyph unicode="&#xe4;" horiz-adv-x="997" d="M430 1286v-199h-143v199h143zM729 1286v-199h-143v199h143zM856 598v-539q-184 -88 -362 -88q-204 0 -312 77t-108 222q0 126 97 200.5t278 86.5q153 10 264 10v68q0 114 -57.5 162.5t-192.5 48.5q-130 0 -285 -41l-22 82q168 55 348 55t266 -83.5t86 -260.5zM713 109 v368q-115 0 -244 -12q-130 -10 -189 -60t-59 -147q0 -94 64.5 -143t187.5 -49q62 0 131.5 13.5t108.5 29.5z" />
<glyph unicode="&#xe5;" horiz-adv-x="997" d="M737 1257q6 -18 6 -38q0 -142 -233 -142q-236 0 -236 142q0 141 236 141q203 0 227 -103zM594 1219q0 50 -19 70t-65 20q-50 0 -69 -19.5t-19 -70.5t19.5 -71t68.5 -20q46 0 65 20t19 71zM856 598v-539q-184 -88 -362 -88q-204 0 -312 77t-108 222q0 126 97 200.5 t278 86.5q153 10 264 10v68q0 114 -57.5 162.5t-192.5 48.5q-130 0 -285 -41l-22 82q168 55 348 55t266 -83.5t86 -260.5zM713 109v368q-115 0 -244 -12q-130 -10 -189 -60t-59 -147q0 -94 64.5 -143t187.5 -49q62 0 131.5 13.5t108.5 29.5z" />
<glyph unicode="&#xe6;" horiz-adv-x="1650" d="M1509 424h-647q3 -170 80.5 -264t214.5 -94q158 0 311 65l29 -92q-170 -68 -340 -68q-187 0 -301 105v-17q-184 -88 -362 -88q-204 0 -312 77t-108 222q0 126 97 200.5t278 86.5q153 10 264 10v68q0 114 -57.5 162.5t-192.5 48.5q-130 0 -285 -41l-22 82q168 55 348 55 q232 0 311 -143q112 143 328 143q201 0 312.5 -120t111.5 -337q0 -61 -58 -61zM862 518h561q0 157 -73.5 243.5t-206.5 86.5q-129 0 -203.5 -87t-77.5 -243zM713 109v368q-115 0 -244 -12q-130 -10 -189 -60t-59 -147q0 -94 64.5 -143t187.5 -49q62 0 131.5 13.5t108.5 29.5 z" />
<glyph unicode="&#xe7;" horiz-adv-x="897" d="M100 455q0 487 418 487q146 0 311 -55l-20 -80q-149 41 -248 41q-166 0 -240.5 -92.5t-74.5 -298.5t74.5 -298.5t240.5 -92.5q116 0 248 38l20 -79q-164 -54 -311 -54q-418 0 -418 484zM326 -348l16 86q66 -17 94 -17q88 0 88 60q0 61 -90 61q-37 0 -92 -18l-16 84 q68 18 137 18q107 0 164 -37.5t57 -107.5q0 -72 -57 -110t-166 -38q-54 0 -135 19z" />
<glyph unicode="&#xe8;" horiz-adv-x="1032" d="M500 1087l-244 220h186l174 -220h-116zM891 424h-647q3 -170 80.5 -264t214.5 -94q158 0 311 65l29 -92q-170 -68 -340 -68q-209 0 -325 128t-116 358t112 357.5t314 127.5q201 0 312.5 -120t111.5 -337q0 -61 -57 -61zM244 518h561q0 157 -74 243.5t-207 86.5 q-129 0 -203 -87t-77 -243z" />
<glyph unicode="&#xe9;" horiz-adv-x="1032" d="M584 1087h-117l174 220h186zM891 424h-647q3 -170 80.5 -264t214.5 -94q158 0 311 65l29 -92q-170 -68 -340 -68q-209 0 -325 128t-116 358t112 357.5t314 127.5q201 0 312.5 -120t111.5 -337q0 -61 -57 -61zM244 518h561q0 157 -74 243.5t-207 86.5q-129 0 -203 -87 t-77 -243z" />
<glyph unicode="&#xea;" horiz-adv-x="1032" d="M793 1087h-121l-150 136l-147 -136h-121l182 220h174zM891 424h-647q3 -170 80.5 -264t214.5 -94q158 0 311 65l29 -92q-170 -68 -340 -68q-209 0 -325 128t-116 358t112 357.5t314 127.5q201 0 312.5 -120t111.5 -337q0 -61 -57 -61zM244 518h561q0 157 -74 243.5 t-207 86.5q-129 0 -203 -87t-77 -243z" />
<glyph unicode="&#xeb;" horiz-adv-x="1032" d="M444 1286v-199h-143v199h143zM743 1286v-199h-143v199h143zM891 424h-647q3 -170 80.5 -264t214.5 -94q158 0 311 65l29 -92q-170 -68 -340 -68q-209 0 -325 128t-116 358t112 357.5t314 127.5q201 0 312.5 -120t111.5 -337q0 -61 -57 -61zM244 518h561q0 157 -74 243.5 t-207 86.5q-129 0 -203 -87t-77 -243z" />
<glyph unicode="&#xec;" horiz-adv-x="464" d="M188 1087l-243 220h186l174 -220h-117zM305 913v-913h-145v913h145z" />
<glyph unicode="&#xed;" horiz-adv-x="464" d="M279 1087h-117l174 220h186zM305 913v-913h-145v913h145z" />
<glyph unicode="&#xee;" horiz-adv-x="464" d="M502 1087h-121l-150 136l-147 -136h-121l182 220h174zM305 913v-913h-145v913h145z" />
<glyph unicode="&#xef;" horiz-adv-x="464" d="M154 1286v-199h-144v199h144zM453 1286v-199h-144v199h144zM305 913v-913h-145v913h145z" />
<glyph unicode="&#xf0;" horiz-adv-x="1226" d="M596 -29q-234 0 -366 118.5t-132 328.5q0 180 119.5 280.5t331.5 100.5q128 0 228 -45.5t159 -135.5q0 218 -45 349l-262 -88l-31 90l256 86q-97 166 -326 166q-154 0 -311 -68l-22 88q178 74 333 74q313 0 457 -217l217 73l31 -90l-201 -67q76 -171 76 -443 q0 -313 -131.5 -456.5t-380.5 -143.5zM571 688q-147 0 -231 -79.5t-84 -217.5q0 -152 91 -238.5t249 -86.5q157 0 246.5 86.5t89.5 238.5q0 138 -97 217.5t-264 79.5z" />
<glyph unicode="&#xf1;" horiz-adv-x="1073" d="M793 1262l55 -54q-44 -67 -85.5 -94t-100.5 -27q-55 0 -127 33q-80 37 -129 37q-37 0 -62.5 -14t-54.5 -51l-56 53q44 67 85 94t100 27q63 0 143 -39q60 -29 113 -29q37 0 63.5 14.5t55.5 49.5zM924 0h-142v625q0 126 -51.5 174.5t-185.5 48.5q-114 0 -248 -57v-791h-143 v834q208 108 430 108q185 0 262.5 -79.5t77.5 -268.5v-594z" />
<glyph unicode="&#xf2;" horiz-adv-x="1069" d="M494 1087l-244 220h186l174 -220h-116zM971 455q0 -229 -114.5 -356.5t-321.5 -127.5t-322 127.5t-115 356.5q0 230 115 358.5t322 128.5t321.5 -128.5t114.5 -358.5zM825 455q0 186 -76 289.5t-214 103.5t-214.5 -103.5t-76.5 -289.5q0 -184 76.5 -286.5t214.5 -102.5 t214 102t76 287z" />
<glyph unicode="&#xf3;" horiz-adv-x="1069" d="M584 1087h-117l174 220h186zM971 455q0 -229 -114.5 -356.5t-321.5 -127.5t-322 127.5t-115 356.5q0 230 115 358.5t322 128.5t321.5 -128.5t114.5 -358.5zM825 455q0 186 -76 289.5t-214 103.5t-214.5 -103.5t-76.5 -289.5q0 -184 76.5 -286.5t214.5 -102.5t214 102 t76 287z" />
<glyph unicode="&#xf4;" horiz-adv-x="1069" d="M805 1087h-121l-149 136l-148 -136h-121l183 220h174zM971 455q0 -229 -114.5 -356.5t-321.5 -127.5t-322 127.5t-115 356.5q0 230 115 358.5t322 128.5t321.5 -128.5t114.5 -358.5zM825 455q0 186 -76 289.5t-214 103.5t-214.5 -103.5t-76.5 -289.5q0 -184 76.5 -286.5 t214.5 -102.5t214 102t76 287z" />
<glyph unicode="&#xf5;" horiz-adv-x="1069" d="M786 1262l56 -54q-44 -67 -86 -94t-101 -27q-55 0 -127 33q-80 37 -129 37q-37 0 -62 -14t-54 -51l-56 53q44 67 85 94t100 27q63 0 143 -39q60 -29 113 -29q36 0 62.5 14t55.5 50zM971 455q0 -229 -114.5 -356.5t-321.5 -127.5t-322 127.5t-115 356.5q0 230 115 358.5 t322 128.5t321.5 -128.5t114.5 -358.5zM825 455q0 186 -76 289.5t-214 103.5t-214.5 -103.5t-76.5 -289.5q0 -184 76.5 -286.5t214.5 -102.5t214 102t76 287z" />
<glyph unicode="&#xf6;" horiz-adv-x="1069" d="M457 1286v-199h-144v199h144zM756 1286v-199h-144v199h144zM971 455q0 -229 -114.5 -356.5t-321.5 -127.5t-322 127.5t-115 356.5q0 230 115 358.5t322 128.5t321.5 -128.5t114.5 -358.5zM825 455q0 186 -76 289.5t-214 103.5t-214.5 -103.5t-76.5 -289.5 q0 -184 76.5 -286.5t214.5 -102.5t214 102t76 287z" />
<glyph unicode="&#xf7;" horiz-adv-x="944" d="M387 711v155h201v-155h-201zM125 389v139h696v-139h-696zM387 53v156h201v-156h-201z" />
<glyph unicode="&#xf8;" horiz-adv-x="1091" d="M983 455q0 -229 -114.5 -356.5t-321.5 -127.5q-185 0 -297 103l-66 -74h-108l121 133q-86 125 -86 322q0 230 114.5 358.5t321.5 128.5q184 0 293 -100l65 71h103l-117 -129q92 -124 92 -329zM256 455q0 -131 37 -215l465 510q-79 98 -211 98q-138 0 -214.5 -103.5 t-76.5 -289.5zM838 455q0 135 -41 225l-463 -514q74 -100 213 -100q138 0 214.5 102.5t76.5 286.5z" />
<glyph unicode="&#xf9;" horiz-adv-x="1075" d="M541 1087l-244 220h186l174 -220h-116zM150 913h145v-628q0 -120 53.5 -169.5t181.5 -49.5q125 0 246 47v800h146v-819q-105 -66 -203.5 -94.5t-226.5 -28.5q-186 0 -264 78.5t-78 265.5v598z" />
<glyph unicode="&#xfa;" horiz-adv-x="1075" d="M592 1087h-117l174 220h187zM150 913h145v-628q0 -120 53.5 -169.5t181.5 -49.5q125 0 246 47v800h146v-819q-105 -66 -203.5 -94.5t-226.5 -28.5q-186 0 -264 78.5t-78 265.5v598z" />
<glyph unicode="&#xfb;" horiz-adv-x="1075" d="M805 1087h-121l-149 136l-148 -136h-121l183 220h174zM150 913h145v-628q0 -120 53.5 -169.5t181.5 -49.5q125 0 246 47v800h146v-819q-105 -66 -203.5 -94.5t-226.5 -28.5q-186 0 -264 78.5t-78 265.5v598z" />
<glyph unicode="&#xfc;" horiz-adv-x="1075" d="M457 1286v-199h-144v199h144zM756 1286v-199h-144v199h144zM150 913h145v-628q0 -120 53.5 -169.5t181.5 -49.5q125 0 246 47v800h146v-819q-105 -66 -203.5 -94.5t-226.5 -28.5q-186 0 -264 78.5t-78 265.5v598z" />
<glyph unicode="&#xfd;" d="M510 1087h-117l174 220h187zM393 88l-340 825h158l260 -641l268 641h115l-565 -1341h-111z" />
<glyph unicode="&#xfe;" horiz-adv-x="1093" d="M993 455q0 -248 -102 -366t-316 -118q-115 0 -270 52v-451h-145v1714h145v-383q110 39 260 39q218 0 323 -119t105 -368zM850 457q0 200 -77 295.5t-238 95.5q-67 0 -119 -16t-111 -50v-661q146 -55 230 -55q161 0 238 95.5t77 295.5z" />
<glyph unicode="&#xff;" d="M391 1286v-199h-143v199h143zM690 1286v-199h-143v199h143zM393 88l-340 825h158l260 -641l268 641h115l-565 -1341h-111z" />
<glyph unicode="&#x100;" horiz-adv-x="1212" d="M328 1456v117h557v-117h-557zM1006 0l-129 362h-596l-131 -362h-103l465 1286h190l463 -1286h-159zM313 457h529l-262 739z" />
<glyph unicode="&#x101;" horiz-adv-x="997" d="M227 1169v117h557v-117h-557zM856 598v-539q-184 -88 -362 -88q-204 0 -312 77t-108 222q0 126 97 200.5t278 86.5q153 10 264 10v68q0 114 -57.5 162.5t-192.5 48.5q-130 0 -285 -41l-22 82q168 55 348 55t266 -83.5t86 -260.5zM713 109v368q-115 0 -244 -12 q-130 -10 -189 -60t-59 -147q0 -94 64.5 -143t187.5 -49q62 0 131.5 13.5t108.5 29.5z" />
<glyph unicode="&#x102;" horiz-adv-x="1212" d="M877 1679q0 -107 -72.5 -170t-194.5 -63q-124 0 -198 62.5t-74 170.5h123q0 -69 40 -110t107 -41q68 0 108 41t40 110h121zM1006 0l-129 362h-596l-131 -362h-103l465 1286h190l463 -1286h-159zM313 457h529l-262 739z" />
<glyph unicode="&#x103;" horiz-adv-x="997" d="M772 1307q0 -105 -79.5 -166.5t-186.5 -61.5q-115 0 -194 58t-79 170h123q0 -70 43.5 -107t104.5 -37q65 0 106 37.5t41 106.5h121zM856 598v-539q-184 -88 -362 -88q-204 0 -312 77t-108 222q0 126 97 200.5t278 86.5q153 10 264 10v68q0 114 -57.5 162.5t-192.5 48.5 q-130 0 -285 -41l-22 82q168 55 348 55t266 -83.5t86 -260.5zM713 109v368q-115 0 -244 -12q-130 -10 -189 -60t-59 -147q0 -94 64.5 -143t187.5 -49q62 0 131.5 13.5t108.5 29.5z" />
<glyph unicode="&#x104;" horiz-adv-x="1212" d="M1247 -432q-123 -25 -221 -25q-95 0 -165 58t-70 135q0 83 48.5 151.5t157.5 137.5l-120 337h-596l-131 -362h-103l465 1286h190l463 -1286h-69q-110 -95 -146.5 -145t-36.5 -105q0 -47 49 -83t113 -36h172v-63zM313 457h529l-262 739z" />
<glyph unicode="&#x105;" horiz-adv-x="997" d="M856 598v-539q-65 -30 -106 -43q-122 -103 -161.5 -156t-39.5 -110q0 -47 49 -83t113 -36h172v-63q-123 -25 -221 -25q-95 0 -165.5 58t-70.5 135q0 68 32.5 125t102.5 114q-46 -4 -67 -4q-204 0 -312 77t-108 222q0 126 97 200.5t278 86.5q153 10 264 10v68 q0 114 -57.5 162.5t-192.5 48.5q-130 0 -285 -41l-22 82q168 55 348 55t266 -83.5t86 -260.5zM713 109v368q-115 0 -244 -12q-130 -10 -189 -60t-59 -147q0 -94 64.5 -143t187.5 -49q62 0 131.5 13.5t108.5 29.5z" />
<glyph unicode="&#x106;" horiz-adv-x="1185" d="M690 1430h-119l174 223h189zM1102 127l22 -86q-187 -70 -401 -70q-302 0 -458 171t-156 503q0 330 156 500t458 170q214 0 401 -74l-22 -88q-188 68 -379 68q-227 0 -344 -146t-117 -430q0 -286 117 -432.5t344 -146.5q202 0 379 61z" />
<glyph unicode="&#x107;" horiz-adv-x="897" d="M549 1087h-117l174 220h187zM100 455q0 487 418 487q146 0 311 -55l-20 -80q-149 41 -248 41q-166 0 -240.5 -92.5t-74.5 -298.5t74.5 -298.5t240.5 -92.5q116 0 248 38l20 -79q-164 -54 -311 -54q-418 0 -418 484z" />
<glyph unicode="&#x108;" horiz-adv-x="1185" d="M977 1456h-121l-147 137l-150 -137h-121l183 223h174zM1102 127l22 -86q-187 -70 -401 -70q-302 0 -458 171t-156 503q0 330 156 500t458 170q214 0 401 -74l-22 -88q-188 68 -379 68q-227 0 -344 -146t-117 -430q0 -286 117 -432.5t344 -146.5q202 0 379 61z" />
<glyph unicode="&#x109;" horiz-adv-x="897" d="M791 1087h-121l-150 136l-147 -136h-121l182 220h174zM100 455q0 487 418 487q146 0 311 -55l-20 -80q-149 41 -248 41q-166 0 -240.5 -92.5t-74.5 -298.5t74.5 -298.5t240.5 -92.5q116 0 248 38l20 -79q-164 -54 -311 -54q-418 0 -418 484z" />
<glyph unicode="&#x10a;" horiz-adv-x="1185" d="M623 1456v199h168v-199h-168zM1102 127l22 -86q-187 -70 -401 -70q-302 0 -458 171t-156 503q0 330 156 500t458 170q214 0 401 -74l-22 -88q-188 68 -379 68q-227 0 -344 -146t-117 -430q0 -286 117 -432.5t344 -146.5q202 0 379 61z" />
<glyph unicode="&#x10b;" horiz-adv-x="897" d="M588 1286v-199h-146v199h146zM100 455q0 487 418 487q146 0 311 -55l-20 -80q-149 41 -248 41q-166 0 -240.5 -92.5t-74.5 -298.5t74.5 -298.5t240.5 -92.5q116 0 248 38l20 -79q-164 -54 -311 -54q-418 0 -418 484z" />
<glyph unicode="&#x10c;" horiz-adv-x="1185" d="M969 1679l-183 -223h-174l-182 223h121l149 -139l148 139h121zM1102 127l22 -86q-187 -70 -401 -70q-302 0 -458 171t-156 503q0 330 156 500t458 170q214 0 401 -74l-22 -88q-188 68 -379 68q-227 0 -344 -146t-117 -430q0 -286 117 -432.5t344 -146.5q202 0 379 61z " />
<glyph unicode="&#x10d;" horiz-adv-x="897" d="M776 1307l-184 -220h-174l-182 220h122l148 -133l147 133h123zM100 455q0 487 418 487q146 0 311 -55l-20 -80q-149 41 -248 41q-166 0 -240.5 -92.5t-74.5 -298.5t74.5 -298.5t240.5 -92.5q116 0 248 38l20 -79q-164 -54 -311 -54q-418 0 -418 484z" />
<glyph unicode="&#x10e;" horiz-adv-x="1339" d="M901 1679l-182 -223h-174l-183 223h121l150 -139l147 139h121zM182 1286h434q615 0 615 -645q0 -641 -615 -641h-434v1286zM334 94h282q459 0 459 547q0 551 -459 551h-282v-1098z" />
<glyph unicode="&#x10f;" horiz-adv-x="1132" d="M936 59q-189 -88 -406 -88q-212 0 -321 124t-109 366q0 238 106.5 359.5t313.5 121.5q134 0 273 -51v395h143v-1227zM1167 922h-120l47 364h198zM553 66q113 0 240 43v692q-122 45 -232 45q-164 0 -239.5 -93t-75.5 -296q0 -191 78.5 -291t228.5 -100z" />
<glyph unicode="&#x110;" horiz-adv-x="1349" d="M70 709h123v577h434q614 0 614 -645q0 -641 -614 -641h-434v614h-123v95zM344 94h283q458 0 458 547q0 551 -458 551h-283v-483h334v-95h-334v-520z" />
<glyph unicode="&#x111;" horiz-adv-x="1091" d="M936 59q-189 -88 -406 -88q-212 0 -321 124t-109 366q0 238 106.5 359.5t313.5 121.5q134 0 273 -51v170h-297v90h297v135h143v-135h131v-90h-131v-1002zM553 66q113 0 240 43v692q-122 45 -232 45q-164 0 -239.5 -93t-75.5 -296q0 -191 78.5 -291t228.5 -100z" />
<glyph unicode="&#x112;" horiz-adv-x="1081" d="M309 1456v117h557v-117h-557zM981 1286v-94h-647v-475h569v-96h-569v-527h647v-94h-799v1286h799z" />
<glyph unicode="&#x113;" horiz-adv-x="1032" d="M244 1169v117h557v-117h-557zM891 424h-647q3 -170 80.5 -264t214.5 -94q158 0 311 65l29 -92q-170 -68 -340 -68q-209 0 -325 128t-116 358t112 357.5t314 127.5q201 0 312.5 -120t111.5 -337q0 -61 -57 -61zM244 518h561q0 157 -74 243.5t-207 86.5q-129 0 -203 -87 t-77 -243z" />
<glyph unicode="&#x114;" horiz-adv-x="1081" d="M858 1679q0 -107 -72 -170t-194 -63q-124 0 -198.5 62.5t-74.5 170.5h123q0 -69 40 -110t108 -41q67 0 107 41t40 110h121zM981 1286v-94h-647v-475h569v-96h-569v-527h647v-94h-799v1286h799z" />
<glyph unicode="&#x115;" horiz-adv-x="1032" d="M793 1307q0 -105 -80 -166.5t-187 -61.5q-115 0 -193.5 58t-78.5 170h123q0 -70 43 -107t104 -37q65 0 106.5 37.5t41.5 106.5h121zM891 424h-647q3 -170 80.5 -264t214.5 -94q158 0 311 65l29 -92q-170 -68 -340 -68q-209 0 -325 128t-116 358t112 357.5t314 127.5 q201 0 312.5 -120t111.5 -337q0 -61 -57 -61zM244 518h561q0 157 -74 243.5t-207 86.5q-129 0 -203 -87t-77 -243z" />
<glyph unicode="&#x116;" horiz-adv-x="1081" d="M504 1456v199h168v-199h-168zM981 1286v-94h-647v-475h569v-96h-569v-527h647v-94h-799v1286h799z" />
<glyph unicode="&#x117;" horiz-adv-x="1032" d="M596 1286v-199h-145v199h145zM891 424h-647q3 -170 80.5 -264t214.5 -94q158 0 311 65l29 -92q-170 -68 -340 -68q-209 0 -325 128t-116 358t112 357.5t314 127.5q201 0 312.5 -120t111.5 -337q0 -61 -57 -61zM244 518h561q0 157 -74 243.5t-207 86.5q-129 0 -203 -87 t-77 -243z" />
<glyph unicode="&#x118;" horiz-adv-x="1081" d="M981 1286v-94h-647v-475h569v-96h-569v-527h647v-94h-45q-110 -95 -146 -144.5t-36 -105.5q0 -47 48.5 -83t112.5 -36h172v-63q-123 -25 -221 -25q-95 0 -165 58t-70 135q0 75 40.5 138t129.5 126h-619v1286h799z" />
<glyph unicode="&#x119;" horiz-adv-x="1032" d="M891 424h-647q3 -170 80.5 -264t214.5 -94q158 0 311 65l29 -92q-53 -24 -131 -41q-109 -94 -145 -143.5t-36 -104.5q0 -47 49 -83t113 -36h172v-63q-123 -25 -221 -25q-95 0 -165.5 58t-70.5 135q0 67 32 123t102 114q-12 -2 -39 -2q-209 0 -325 128t-116 358t112 357.5 t314 127.5q201 0 312.5 -120t111.5 -337q0 -61 -57 -61zM244 518h561q0 157 -74 243.5t-207 86.5q-129 0 -203 -87t-77 -243z" />
<glyph unicode="&#x11a;" horiz-adv-x="1081" d="M854 1679l-182 -223h-174l-183 223h121l150 -139l147 139h121zM981 1286v-94h-647v-475h569v-96h-569v-527h647v-94h-799v1286h799z" />
<glyph unicode="&#x11b;" horiz-adv-x="1032" d="M793 1307l-185 -220h-174l-182 220h123l147 -133l148 133h123zM891 424h-647q3 -170 80.5 -264t214.5 -94q158 0 311 65l29 -92q-170 -68 -340 -68q-209 0 -325 128t-116 358t112 357.5t314 127.5q201 0 312.5 -120t111.5 -337q0 -61 -57 -61zM244 518h561 q0 157 -74 243.5t-207 86.5q-129 0 -203 -87t-77 -243z" />
<glyph unicode="&#x11c;" horiz-adv-x="1261" d="M954 1456h-120l-148 137l-149 -137h-121l182 223h174zM682 682h448v-653q-165 -58 -407 -58q-614 0 -614 670q0 674 614 674q226 0 403 -74l-24 -88q-214 68 -379 68q-461 0 -461 -580q0 -575 461 -575q160 0 260 32v488h-301v96z" />
<glyph unicode="&#x11d;" horiz-adv-x="1089" d="M823 1087h-121l-149 136l-147 -136h-121l182 220h174zM936 834v-947q0 -175 -98 -259.5t-299 -84.5q-152 0 -359 68l23 80q193 -53 293 -53q162 0 228.5 47.5t66.5 164.5v173q-157 -52 -273 -52q-212 0 -315 119t-103 365q0 247 106 367t324 120q221 0 406 -108zM561 66 q78 0 230 55v661q-94 66 -230 66q-161 0 -239 -96.5t-78 -294.5t78 -294.5t239 -96.5z" />
<glyph unicode="&#x11e;" horiz-adv-x="1261" d="M944 1679q0 -107 -72 -170t-194 -63q-124 0 -198 62.5t-74 170.5h122q0 -69 40 -110t108 -41q67 0 107 41t40 110h121zM682 682h448v-653q-165 -58 -407 -58q-614 0 -614 670q0 674 614 674q226 0 403 -74l-24 -88q-214 68 -379 68q-461 0 -461 -580q0 -575 461 -575 q160 0 260 32v488h-301v96z" />
<glyph unicode="&#x11f;" horiz-adv-x="1089" d="M823 1307q0 -105 -79.5 -166.5t-186.5 -61.5q-115 0 -193.5 58t-78.5 170h123q0 -70 43 -107t104 -37q65 0 106 37.5t41 106.5h121zM936 834v-947q0 -175 -98 -259.5t-299 -84.5q-152 0 -359 68l23 80q193 -53 293 -53q162 0 228.5 47.5t66.5 164.5v173 q-157 -52 -273 -52q-212 0 -315 119t-103 365q0 247 106 367t324 120q221 0 406 -108zM561 66q78 0 230 55v661q-94 66 -230 66q-161 0 -239 -96.5t-78 -294.5t78 -294.5t239 -96.5z" />
<glyph unicode="&#x120;" horiz-adv-x="1261" d="M621 1456v199h167v-199h-167zM682 682h448v-653q-165 -58 -407 -58q-614 0 -614 670q0 674 614 674q226 0 403 -74l-24 -88q-214 68 -379 68q-461 0 -461 -580q0 -575 461 -575q160 0 260 32v488h-301v96z" />
<glyph unicode="&#x121;" horiz-adv-x="1089" d="M621 1286v-199h-146v199h146zM936 834v-947q0 -175 -98 -259.5t-299 -84.5q-152 0 -359 68l23 80q193 -53 293 -53q162 0 228.5 47.5t66.5 164.5v173q-157 -52 -273 -52q-212 0 -315 119t-103 365q0 247 106 367t324 120q221 0 406 -108zM561 66q78 0 230 55v661 q-94 66 -230 66q-161 0 -239 -96.5t-78 -294.5t78 -294.5t239 -96.5z" />
<glyph unicode="&#x122;" horiz-adv-x="1261" d="M682 682h448v-653q-165 -58 -407 -58q-614 0 -614 670q0 674 614 674q226 0 403 -74l-24 -88q-214 68 -379 68q-461 0 -461 -580q0 -575 461 -575q160 0 260 32v488h-301v96zM668 -504h-121l47 365h199z" />
<glyph unicode="&#x123;" horiz-adv-x="1089" d="M571 1434h111l-47 -367h-174zM936 834v-947q0 -175 -98 -259.5t-299 -84.5q-152 0 -359 68l23 80q193 -53 293 -53q162 0 228.5 47.5t66.5 164.5v173q-157 -52 -273 -52q-212 0 -315 119t-103 365q0 247 106 367t324 120q221 0 406 -108zM561 66q78 0 230 55v661 q-94 66 -230 66q-161 0 -239 -96.5t-78 -294.5t78 -294.5t239 -96.5z" />
<glyph unicode="&#x124;" horiz-adv-x="1314" d="M932 1456h-121l-147 137l-150 -137h-121l182 223h175zM981 717v569h152v-1286h-152v623h-649v-623h-150v1286h150v-569h649z" />
<glyph unicode="&#x125;" horiz-adv-x="1079" d="M809 1456h-121l-147 137l-150 -137h-121l183 223h174zM930 0h-144v625q0 122 -53 172.5t-182 50.5q-131 0 -248 -49v-799h-143v1286h143v-397q130 53 285 53q187 0 264.5 -78.5t77.5 -269.5v-594z" />
<glyph unicode="&#x126;" horiz-adv-x="1327" d="M66 950v82h122v254h150v-254h649v254h152v-254h123v-82h-123v-950h-152v623h-649v-623h-150v950h-122zM987 717v233h-649v-233h649z" />
<glyph unicode="&#x127;" horiz-adv-x="1079" d="M930 0h-144v625q0 122 -53 172.5t-182 50.5q-131 0 -248 -49v-799h-143v1061h-121v92h121v133h143v-133h287v-92h-287v-172q130 53 285 53q187 0 264.5 -78.5t77.5 -269.5v-594z" />
<glyph unicode="&#x128;" horiz-adv-x="516" d="M510 1632l55 -53q-44 -67 -86 -95t-98 -28q-59 0 -131 35t-125 35q-37 0 -63 -14.5t-54 -49.5l-55 51q43 68 84.5 95.5t99.5 27.5t150 -43q58 -26 106 -26q66 0 117 65zM334 1286v-1286h-152v1286h152z" />
<glyph unicode="&#x129;" horiz-adv-x="464" d="M483 1262l56 -54q-44 -67 -86 -94t-101 -27q-55 0 -127 33q-80 37 -129 37q-37 0 -62 -14t-54 -51l-56 53q44 67 85 94t100 27q63 0 143 -39q60 -29 113 -29q36 0 62.5 14t55.5 50zM305 913v-913h-145v913h145z" />
<glyph unicode="&#x12a;" horiz-adv-x="516" d="M-20 1456v117h557v-117h-557zM334 1286v-1286h-152v1286h152z" />
<glyph unicode="&#x12b;" horiz-adv-x="464" d="M-47 1169v117h557v-117h-557zM305 913v-913h-145v913h145z" />
<glyph unicode="&#x12c;" horiz-adv-x="516" d="M528 1679q0 -107 -72 -170t-194 -63q-124 0 -198 62.5t-74 170.5h123q0 -69 40 -110t107 -41q68 0 108 41t40 110h120zM334 1286v-1286h-152v1286h152z" />
<glyph unicode="&#x12d;" horiz-adv-x="462" d="M500 1307q0 -105 -80 -166.5t-187 -61.5q-115 0 -193.5 58t-78.5 170h123q0 -70 43 -107t104 -37q65 0 106.5 37.5t41.5 106.5h121zM305 913v-913h-145v913h145z" />
<glyph unicode="&#x12e;" horiz-adv-x="518" d="M336 1286v-1286h-47q-110 -95 -146.5 -145t-36.5 -105q0 -47 49 -83t113 -36h172v-63q-123 -25 -221 -25q-95 0 -165 58t-70 135q0 82 47 148.5t153 135.5v1266h152z" />
<glyph unicode="&#x12f;" horiz-adv-x="468" d="M309 1286v-199h-145v199h145zM309 913v-913h-47q-110 -95 -146 -144.5t-36 -105.5q0 -47 49 -83t113 -36h172v-63q-123 -25 -221 -25q-95 0 -165.5 58t-70.5 135q0 83 49 151.5t158 137.5v888h145z" />
<glyph unicode="&#x130;" horiz-adv-x="516" d="M174 1456v199h168v-199h-168zM334 1286v-1286h-152v1286h152z" />
<glyph unicode="&#x131;" horiz-adv-x="464" d="M305 913v-913h-145v913h145z" />
<glyph unicode="&#x132;" horiz-adv-x="1056" d="M334 1286v-1286h-152v1286h152zM723 1286h151v-1362q0 -148 -69.5 -212t-229.5 -64q-71 0 -135 24l23 84q61 -14 102 -14q91 0 124.5 39t33.5 143v1362z" />
<glyph unicode="&#x133;" horiz-adv-x="927" d="M305 1286v-199h-145v199h145zM768 1286v-199h-143v199h143zM305 913v-913h-145v913h145zM768 913v-1095q0 -136 -63.5 -205.5t-198.5 -69.5h-17l-24 95h35q70 3 97.5 43.5t27.5 136.5v1095h143z" />
<glyph unicode="&#x134;" horiz-adv-x="540" d="M555 1456h-121l-147 137l-150 -137h-121l183 223h174zM207 1286h151v-1362q0 -148 -69.5 -212t-229.5 -64q-71 0 -135 24l23 84q61 -14 102 -14q91 0 124.5 39t33.5 143v1362z" />
<glyph unicode="&#x135;" horiz-adv-x="479" d="M518 1159h-121l-147 137l-150 -137h-120l182 223h174zM319 913v-1095q0 -136 -63.5 -205.5t-198.5 -69.5h-16l-25 95h35q68 0 96.5 42t28.5 138v1095h143z" />
<glyph unicode="&#x136;" horiz-adv-x="1155" d="M1167 0h-200l-594 645h-41v-645h-150v1286h150v-549h43l499 549h177l-559 -590zM614 -504h-120l47 365h198z" />
<glyph unicode="&#x137;" horiz-adv-x="956" d="M469 504l487 -504h-196l-406 449h-51v-449h-143v1286h143v-743h51l348 370h168zM526 -504h-120l47 365h198z" />
<glyph unicode="&#x138;" horiz-adv-x="954" d="M467 504l487 -504h-196l-406 449h-51v-449h-143v913h143v-370h51l348 370h168z" />
<glyph unicode="&#x139;" horiz-adv-x="1028" d="M330 1430h-119l174 223h188zM334 94h647v-94h-799v1286h152v-1192z" />
<glyph unicode="&#x13a;" horiz-adv-x="462" d="M266 1456h-119l175 223h188zM303 0h-143v1286l143 35v-1321z" />
<glyph unicode="&#x13b;" horiz-adv-x="1028" d="M334 94h647v-94h-799v1286h152v-1192zM563 -504h-121l47 365h199z" />
<glyph unicode="&#x13c;" horiz-adv-x="462" d="M303 0h-143v1286l143 35v-1321zM209 -504h-121l47 365h199z" />
<glyph unicode="&#x13d;" horiz-adv-x="1036" d="M334 94h647v-94h-799v1286h152v-1192zM770 922h-121l47 364h199z" />
<glyph unicode="&#x13e;" horiz-adv-x="503" d="M303 0h-143v1286l143 35v-1321zM535 922h-121l47 364h198z" />
<glyph unicode="&#x141;" horiz-adv-x="1075" d="M381 94h647v-94h-799v580l-143 -97v127l143 95v581h152v-498l205 136v-127l-205 -135v-568z" />
<glyph unicode="&#x142;" horiz-adv-x="567" d="M360 0h-143v598l-139 -92v117l139 90v573l143 35v-535l148 97v-117l-148 -94v-672z" />
<glyph unicode="&#x143;" horiz-adv-x="1380" d="M758 1430h-119l174 223h188zM1085 1286h113v-1286h-184l-721 1133v-1133h-111v1286h172l731 -1134v1134z" />
<glyph unicode="&#x144;" horiz-adv-x="1073" d="M565 1087h-116l174 220h186zM924 0h-142v625q0 126 -51.5 174.5t-185.5 48.5q-114 0 -248 -57v-791h-143v834q208 108 430 108q185 0 262.5 -79.5t77.5 -268.5v-594z" />
<glyph unicode="&#x145;" horiz-adv-x="1380" d="M1085 1286h113v-1286h-184l-721 1133v-1133h-111v1286h172l731 -1134v1134zM686 -504h-121l47 365h199z" />
<glyph unicode="&#x146;" horiz-adv-x="1073" d="M924 0h-142v625q0 126 -51.5 174.5t-185.5 48.5q-114 0 -248 -57v-791h-143v834q208 108 430 108q185 0 262.5 -79.5t77.5 -268.5v-594zM514 -504h-121l47 365h199z" />
<glyph unicode="&#x147;" horiz-adv-x="1380" d="M961 1679l-183 -223h-174l-182 223h121l149 -139l148 139h121zM1085 1286h113v-1286h-184l-721 1133v-1133h-111v1286h172l731 -1134v1134z" />
<glyph unicode="&#x148;" horiz-adv-x="1073" d="M811 1307l-184 -220h-174l-183 220h123l148 -133l147 133h123zM924 0h-142v625q0 126 -51.5 174.5t-185.5 48.5q-114 0 -248 -57v-791h-143v834q208 108 430 108q185 0 262.5 -79.5t77.5 -268.5v-594z" />
<glyph unicode="&#x149;" horiz-adv-x="1236" d="M180 922h-121l47 364h199zM1087 0h-141v625q0 126 -51.5 174.5t-185.5 48.5q-114 0 -248 -57v-791h-144v834q208 108 431 108q184 0 261.5 -79.5t77.5 -268.5v-594z" />
<glyph unicode="&#x14a;" horiz-adv-x="1380" d="M1085 1286h113v-1468q0 -144 -58.5 -209.5t-170.5 -65.5h-15l-24 95h35q68 0 94 41.5t26 138.5v182h-71l-721 1133v-1133h-111v1286h172l731 -1134v1134z" />
<glyph unicode="&#x14b;" horiz-adv-x="1073" d="M584 942q185 0 262.5 -79.5t77.5 -268.5v-776q0 -139 -63.5 -207t-196.5 -68h-17l-24 95h34q69 0 97 42.5t28 137.5v807q0 126 -51.5 174.5t-185.5 48.5q-114 0 -248 -57v-791h-143v834q208 108 430 108z" />
<glyph unicode="&#x14c;" horiz-adv-x="1452" d="M446 1456v117h558v-117h-558zM725 1315q304 0 462.5 -172t158.5 -502q0 -327 -158.5 -498.5t-462.5 -171.5q-302 0 -460.5 171.5t-158.5 498.5q0 330 158.5 502t460.5 172zM725 66q226 0 343.5 147t117.5 428q0 284 -117.5 432t-343.5 148q-224 0 -341.5 -148 t-117.5 -432q0 -281 117.5 -428t341.5 -147z" />
<glyph unicode="&#x14d;" horiz-adv-x="1069" d="M256 1169v117h557v-117h-557zM971 455q0 -229 -114.5 -356.5t-321.5 -127.5t-322 127.5t-115 356.5q0 230 115 358.5t322 128.5t321.5 -128.5t114.5 -358.5zM825 455q0 186 -76 289.5t-214 103.5t-214.5 -103.5t-76.5 -289.5q0 -184 76.5 -286.5t214.5 -102.5t214 102 t76 287z" />
<glyph unicode="&#x14e;" horiz-adv-x="1452" d="M995 1679q0 -107 -72 -170t-194 -63q-124 0 -198 62.5t-74 170.5h123q0 -69 40 -110t107 -41t107 41t40 110h121zM725 1315q304 0 462.5 -172t158.5 -502q0 -327 -158.5 -498.5t-462.5 -171.5q-302 0 -460.5 171.5t-158.5 498.5q0 330 158.5 502t460.5 172zM725 66 q226 0 343.5 147t117.5 428q0 284 -117.5 432t-343.5 148q-224 0 -341.5 -148t-117.5 -432q0 -281 117.5 -428t341.5 -147z" />
<glyph unicode="&#x14f;" horiz-adv-x="1069" d="M805 1307q0 -105 -79.5 -166.5t-186.5 -61.5q-115 0 -194 58t-79 170h123q0 -70 43.5 -107t104.5 -37q65 0 106 37.5t41 106.5h121zM971 455q0 -229 -114.5 -356.5t-321.5 -127.5t-322 127.5t-115 356.5q0 230 115 358.5t322 128.5t321.5 -128.5t114.5 -358.5zM825 455 q0 186 -76 289.5t-214 103.5t-214.5 -103.5t-76.5 -289.5q0 -184 76.5 -286.5t214.5 -102.5t214 102t76 287z" />
<glyph unicode="&#x150;" horiz-adv-x="1452" d="M641 1456h-117l174 223h187zM909 1456h-116l174 223h186zM725 1315q304 0 462.5 -172t158.5 -502q0 -327 -158.5 -498.5t-462.5 -171.5q-302 0 -460.5 171.5t-158.5 498.5q0 330 158.5 502t460.5 172zM725 66q226 0 343.5 147t117.5 428q0 284 -117.5 432t-343.5 148 q-224 0 -341.5 -148t-117.5 -432q0 -281 117.5 -428t341.5 -147z" />
<glyph unicode="&#x151;" horiz-adv-x="1069" d="M449 1087h-117l174 220h186zM717 1087h-117l174 220h187zM971 455q0 -229 -114.5 -356.5t-321.5 -127.5t-322 127.5t-115 356.5q0 230 115 358.5t322 128.5t321.5 -128.5t114.5 -358.5zM825 455q0 186 -76 289.5t-214 103.5t-214.5 -103.5t-76.5 -289.5 q0 -184 76.5 -286.5t214.5 -102.5t214 102t76 287z" />
<glyph unicode="&#x152;" horiz-adv-x="1818" d="M1718 1286v-94h-647v-475h569v-96h-569v-527h647v-94h-768q-105 -31 -225 -31q-302 0 -460.5 172t-158.5 500q0 330 158.5 502t460.5 172q113 0 219 -29h774zM266 641q0 -283 117.5 -430.5t341.5 -147.5q113 0 195 39v1082q-84 37 -195 37q-224 0 -341.5 -148 t-117.5 -432z" />
<glyph unicode="&#x153;" horiz-adv-x="1765" d="M1624 424h-647q3 -170 80.5 -264t214.5 -94q158 0 311 65l29 -92q-170 -68 -340 -68q-256 0 -371 191q-112 -191 -366 -191q-207 0 -322 127.5t-115 356.5q0 230 115 358.5t322 128.5q252 0 364 -188q110 188 358 188q201 0 312.5 -120t111.5 -337q0 -61 -57 -61z M825 455q0 186 -76 289.5t-214 103.5t-214.5 -103.5t-76.5 -289.5q0 -184 76.5 -286.5t214.5 -102.5t214 102t76 287zM977 518h561q0 157 -74 243.5t-207 86.5q-129 0 -203 -87t-77 -243z" />
<glyph unicode="&#x154;" horiz-adv-x="1247" d="M662 1456h-119l174 223h188zM1137 969q0 -129 -75.5 -208t-238.5 -122l375 -639h-186l-334 610q-170 -20 -344 -20v-590h-152v1286h471q238 0 361 -80.5t123 -236.5zM977 981q0 104 -86.5 157.5t-255.5 53.5h-301v-508h24q321 0 470 72t149 225z" />
<glyph unicode="&#x155;" horiz-adv-x="720" d="M424 1087h-117l174 220h187zM705 918l-43 -109q-77 39 -185 39q-90 0 -182 -49v-799h-141v834q174 108 366 108q102 0 185 -24z" />
<glyph unicode="&#x156;" horiz-adv-x="1247" d="M1137 969q0 -129 -75.5 -208t-238.5 -122l375 -639h-186l-334 610q-170 -20 -344 -20v-590h-152v1286h471q238 0 361 -80.5t123 -236.5zM977 981q0 104 -86.5 157.5t-255.5 53.5h-301v-508h24q321 0 470 72t149 225zM610 -504h-121l48 365h198z" />
<glyph unicode="&#x157;" horiz-adv-x="720" d="M705 918l-43 -109q-77 39 -185 39q-90 0 -182 -49v-799h-141v834q174 108 366 108q102 0 185 -24zM360 -504h-120l47 365h198z" />
<glyph unicode="&#x158;" horiz-adv-x="1247" d="M897 1679l-182 -223h-174l-183 223h121l150 -139l147 139h121zM1137 969q0 -129 -75.5 -208t-238.5 -122l375 -639h-186l-334 610q-170 -20 -344 -20v-590h-152v1286h471q238 0 361 -80.5t123 -236.5zM977 981q0 104 -86.5 157.5t-255.5 53.5h-301v-508h24q321 0 470 72 t149 225z" />
<glyph unicode="&#x159;" horiz-adv-x="720" d="M684 1307l-184 -220h-174l-183 220h123l148 -133l147 133h123zM705 918l-43 -109q-77 39 -185 39q-90 0 -182 -49v-799h-141v834q174 108 366 108q102 0 185 -24z" />
<glyph unicode="&#x15a;" horiz-adv-x="1116" d="M590 1456h-119l174 223h189zM582 748q247 -47 354.5 -134.5t107.5 -240.5q0 -186 -139.5 -294t-378.5 -108q-110 0 -207 26.5t-206 80.5l28 86q206 -98 385 -98q171 0 271 74.5t100 203.5q0 97 -84.5 160.5t-298.5 105.5q-223 44 -322.5 125.5t-99.5 214.5q0 163 130 264 t339 101q195 0 369 -98l-33 -80q-165 84 -328 84q-150 0 -243 -68.5t-93 -177.5q0 -91 78.5 -141t270.5 -86z" />
<glyph unicode="&#x15b;" d="M475 1087h-117l174 220h187zM406 -29q-133 0 -302 66l23 82q145 -53 281 -53q128 0 200 49t72 135q0 31 -7.5 51t-31.5 40.5t-71.5 37t-123.5 31.5q-147 28 -224.5 65t-105.5 85.5t-28 127.5q0 123 98.5 188.5t284.5 65.5q126 0 291 -65l-27 -82q-141 53 -264 53 q-120 0 -184 -41.5t-64 -118.5q0 -50 49 -85.5t183 -61.5q150 -28 227 -62t107 -84t30 -137q0 -135 -109.5 -211t-303.5 -76z" />
<glyph unicode="&#x15c;" horiz-adv-x="1116" d="M807 1460h-121l-147 137l-150 -137h-121l183 223h174zM582 748q247 -47 354.5 -134.5t107.5 -240.5q0 -186 -139.5 -294t-378.5 -108q-110 0 -207 26.5t-206 80.5l28 86q206 -98 385 -98q171 0 271 74.5t100 203.5q0 97 -84.5 160.5t-298.5 105.5q-223 44 -322.5 125.5 t-99.5 214.5q0 163 130 264t339 101q195 0 369 -98l-33 -80q-165 84 -328 84q-150 0 -243 -68.5t-93 -177.5q0 -91 78.5 -141t270.5 -86z" />
<glyph unicode="&#x15d;" d="M735 1087h-121l-149 136l-148 -136h-120l182 220h174zM406 -29q-133 0 -302 66l23 82q145 -53 281 -53q128 0 200 49t72 135q0 31 -7.5 51t-31.5 40.5t-71.5 37t-123.5 31.5q-147 28 -224.5 65t-105.5 85.5t-28 127.5q0 123 98.5 188.5t284.5 65.5q126 0 291 -65l-27 -82 q-141 53 -264 53q-120 0 -184 -41.5t-64 -118.5q0 -50 49 -85.5t183 -61.5q150 -28 227 -62t107 -84t30 -137q0 -135 -109.5 -211t-303.5 -76z" />
<glyph unicode="&#x15e;" horiz-adv-x="1116" d="M582 748q247 -47 354.5 -134.5t107.5 -240.5q0 -186 -139.5 -294t-378.5 -108q-110 0 -207 26.5t-206 80.5l28 86q206 -98 385 -98q171 0 271 74.5t100 203.5q0 97 -84.5 160.5t-298.5 105.5q-223 44 -322.5 125.5t-99.5 214.5q0 163 130 264t339 101q195 0 369 -98 l-33 -80q-165 84 -328 84q-150 0 -243 -68.5t-93 -177.5q0 -91 78.5 -141t270.5 -86zM401 -348l17 86q66 -17 94 -17q88 0 88 60q0 61 -90 61q-36 0 -92 -18l-17 84q67 18 138 18q107 0 164 -37.5t57 -107.5q0 -72 -57 -110t-166 -38q-55 0 -136 19z" />
<glyph unicode="&#x15f;" d="M406 -29q-133 0 -302 66l23 82q145 -53 281 -53q128 0 200 49t72 135q0 31 -7.5 51t-31.5 40.5t-71.5 37t-123.5 31.5q-147 28 -224.5 65t-105.5 85.5t-28 127.5q0 123 98.5 188.5t284.5 65.5q126 0 291 -65l-27 -82q-141 53 -264 53q-120 0 -184 -41.5t-64 -118.5 q0 -50 49 -85.5t183 -61.5q150 -28 227 -62t107 -84t30 -137q0 -135 -109.5 -211t-303.5 -76zM299 -348l16 86q66 -17 95 -17q88 0 88 60q0 61 -90 61q-38 0 -93 -18l-16 84q68 18 137 18q107 0 164 -37.5t57 -107.5q0 -72 -57 -110t-166 -38q-54 0 -135 19z" />
<glyph unicode="&#x160;" horiz-adv-x="1116" d="M815 1679l-182 -223h-174l-183 223h121l150 -139l147 139h121zM582 748q247 -47 354.5 -134.5t107.5 -240.5q0 -186 -139.5 -294t-378.5 -108q-110 0 -207 26.5t-206 80.5l28 86q206 -98 385 -98q171 0 271 74.5t100 203.5q0 97 -84.5 160.5t-298.5 105.5 q-223 44 -322.5 125.5t-99.5 214.5q0 163 130 264t339 101q195 0 369 -98l-33 -80q-165 84 -328 84q-150 0 -243 -68.5t-93 -177.5q0 -91 78.5 -141t270.5 -86z" />
<glyph unicode="&#x161;" d="M721 1307l-184 -220h-175l-182 220h123l148 -133l147 133h123zM406 -29q-133 0 -302 66l23 82q145 -53 281 -53q128 0 200 49t72 135q0 31 -7.5 51t-31.5 40.5t-71.5 37t-123.5 31.5q-147 28 -224.5 65t-105.5 85.5t-28 127.5q0 123 98.5 188.5t284.5 65.5q126 0 291 -65 l-27 -82q-141 53 -264 53q-120 0 -184 -41.5t-64 -118.5q0 -50 49 -85.5t183 -61.5q150 -28 227 -62t107 -84t30 -137q0 -135 -109.5 -211t-303.5 -76z" />
<glyph unicode="&#x162;" horiz-adv-x="1091" d="M1047 1286v-94h-426v-1192h-152v1192h-424v94h1002zM379 -348l16 86q66 -17 94 -17q89 0 89 60q0 61 -91 61q-36 0 -92 -18l-16 84q67 18 137 18q107 0 164 -37.5t57 -107.5q0 -72 -57 -110t-166 -38q-54 0 -135 19z" />
<glyph unicode="&#x163;" horiz-adv-x="618" d="M559 72l-16 -97q-36 -4 -68 -4q-149 0 -218 65.5t-69 207.5v575h-133v94h133v275l144 35v-310h239v-94h-239v-575q0 -106 32.5 -142t127.5 -36q40 0 67 6zM231 -348l17 86q66 -17 94 -17q88 0 88 60q0 61 -90 61q-36 0 -92 -18l-17 84q67 18 138 18q107 0 164 -37.5 t57 -107.5q0 -72 -57 -110t-166 -38q-55 0 -136 19z" />
<glyph unicode="&#x164;" horiz-adv-x="1091" d="M815 1679l-182 -223h-174l-183 223h121l150 -139l147 139h121zM1047 1286v-94h-426v-1192h-152v1192h-424v94h1002z" />
<glyph unicode="&#x165;" horiz-adv-x="659" d="M748 922h-121l47 364h198zM559 72l-16 -97q-36 -4 -68 -4q-149 0 -218 65.5t-69 207.5v575h-133v94h133v275l144 35v-310h239v-94h-239v-575q0 -106 32.5 -142t127.5 -36q40 0 67 6z" />
<glyph unicode="&#x166;" horiz-adv-x="1107" d="M217 784v95h260v313h-424v94h1002v-94h-426v-313h262v-95h-262v-784h-152v784h-260z" />
<glyph unicode="&#x167;" horiz-adv-x="638" d="M74 492v83h125v244h-133v94h133v275l143 35v-310h240v-94h-240v-244h229v-83h-229v-248q0 -106 32.5 -142t127.5 -36q40 0 67 6l-16 -97q-36 -4 -68 -4q-149 0 -217.5 65.5t-68.5 207.5v248h-125z" />
<glyph unicode="&#x168;" horiz-adv-x="1355" d="M930 1632l55 -53q-44 -67 -86 -95t-98 -28q-59 0 -131 35t-125 35q-37 0 -63 -14.5t-54 -49.5l-55 51q43 68 84.5 95.5t99.5 27.5t150 -43q58 -26 106 -26q66 0 117 65zM1034 1286h152v-874q0 -211 -133 -327t-375 -116t-375 116t-133 327v874h149v-893 q0 -175 84.5 -252.5t274.5 -77.5q189 0 272.5 77.5t83.5 252.5v893z" />
<glyph unicode="&#x169;" horiz-adv-x="1075" d="M786 1262l56 -54q-44 -67 -86 -94t-101 -27q-55 0 -127 33q-80 37 -129 37q-37 0 -62 -14t-54 -51l-56 53q44 67 85 94t100 27q63 0 143 -39q60 -29 113 -29q36 0 62.5 14t55.5 50zM150 913h145v-628q0 -120 53.5 -169.5t181.5 -49.5q125 0 246 47v800h146v-819 q-105 -66 -203.5 -94.5t-226.5 -28.5q-186 0 -264 78.5t-78 265.5v598z" />
<glyph unicode="&#x16a;" horiz-adv-x="1355" d="M399 1456v117h557v-117h-557zM1034 1286h152v-874q0 -211 -133 -327t-375 -116t-375 116t-133 327v874h149v-893q0 -175 84.5 -252.5t274.5 -77.5q189 0 272.5 77.5t83.5 252.5v893z" />
<glyph unicode="&#x16b;" horiz-adv-x="1075" d="M256 1169v117h557v-117h-557zM150 913h145v-628q0 -120 53.5 -169.5t181.5 -49.5q125 0 246 47v800h146v-819q-105 -66 -203.5 -94.5t-226.5 -28.5q-186 0 -264 78.5t-78 265.5v598z" />
<glyph unicode="&#x16c;" horiz-adv-x="1355" d="M948 1679q0 -107 -72 -170t-194 -63q-124 0 -198 62.5t-74 170.5h122q0 -69 40 -110t108 -41q67 0 107 41t40 110h121zM1034 1286h152v-874q0 -211 -133 -327t-375 -116t-375 116t-133 327v874h149v-893q0 -175 84.5 -252.5t274.5 -77.5q189 0 272.5 77.5t83.5 252.5v893 z" />
<glyph unicode="&#x16d;" horiz-adv-x="1075" d="M805 1307q0 -105 -79.5 -166.5t-186.5 -61.5q-115 0 -194 58t-79 170h123q0 -70 43.5 -107t104.5 -37q65 0 106 37.5t41 106.5h121zM150 913h145v-628q0 -120 53.5 -169.5t181.5 -49.5q125 0 246 47v800h146v-819q-105 -66 -203.5 -94.5t-226.5 -28.5q-186 0 -264 78.5 t-78 265.5v598z" />
<glyph unicode="&#x16e;" horiz-adv-x="1355" d="M444 1583q0 72 57 106.5t177 34.5t176.5 -34.5t56.5 -106.5t-56.5 -105.5t-176.5 -33.5t-177 33.5t-57 105.5zM764 1583q0 51 -19.5 71.5t-66.5 20.5t-66.5 -20.5t-19.5 -71.5q0 -49 19.5 -69.5t66.5 -20.5t66.5 20.5t19.5 69.5zM1034 1286h152v-874q0 -211 -133 -327 t-375 -116t-375 116t-133 327v874h149v-893q0 -175 84.5 -252.5t274.5 -77.5q189 0 272.5 77.5t83.5 252.5v893z" />
<glyph unicode="&#x16f;" horiz-adv-x="1075" d="M764 1257q6 -18 6 -38q0 -142 -233 -142q-236 0 -236 142q0 141 236 141q203 0 227 -103zM621 1219q0 50 -19 70t-65 20q-50 0 -69 -19.5t-19 -70.5t19.5 -71t68.5 -20q46 0 65 20t19 71zM150 913h145v-628q0 -120 53.5 -169.5t181.5 -49.5q125 0 246 47v800h146v-819 q-105 -66 -203.5 -94.5t-226.5 -28.5q-186 0 -264 78.5t-78 265.5v598z" />
<glyph unicode="&#x170;" horiz-adv-x="1355" d="M582 1456h-117l174 223h186zM850 1456h-117l174 223h187zM1034 1286h152v-874q0 -211 -133 -327t-375 -116t-375 116t-133 327v874h149v-893q0 -175 84.5 -252.5t274.5 -77.5q189 0 272.5 77.5t83.5 252.5v893z" />
<glyph unicode="&#x171;" horiz-adv-x="1075" d="M432 1087h-117l174 220h187zM700 1087h-116l174 220h186zM150 913h145v-628q0 -120 53.5 -169.5t181.5 -49.5q125 0 246 47v800h146v-819q-105 -66 -203.5 -94.5t-226.5 -28.5q-186 0 -264 78.5t-78 265.5v598z" />
<glyph unicode="&#x172;" horiz-adv-x="1355" d="M1034 1286h152v-874q0 -148 -66.5 -250t-193.5 -152q-119 -101 -157 -152t-38 -108q0 -47 49 -83t113 -36h172v-63q-123 -25 -221 -25q-95 0 -165.5 58t-70.5 135q0 67 31.5 123t99.5 112q-18 -2 -61 -2q-242 0 -375 116t-133 327v874h149v-893q0 -175 84.5 -252.5 t274.5 -77.5q189 0 272.5 77.5t83.5 252.5v893z" />
<glyph unicode="&#x173;" horiz-adv-x="1075" d="M150 913h145v-628q0 -120 53.5 -169.5t181.5 -49.5q125 0 246 47v800h146v-819q-70 -46 -156 -80q-122 -102 -161.5 -154t-39.5 -110q0 -47 49 -83t113 -36h172v-63q-123 -25 -221 -25q-95 0 -165.5 58t-70.5 135q0 67 32.5 124.5t103.5 114.5q-54 -4 -86 -4 q-186 0 -264 78.5t-78 265.5v598z" />
<glyph unicode="&#x174;" horiz-adv-x="1687" d="M1114 1456h-121l-147 137l-150 -137h-121l183 223h174zM1503 1286h113l-318 -1286h-165l-287 1098l-293 -1098h-168l-311 1286h159l267 -1106l282 1106h172l287 -1106z" />
<glyph unicode="&#x175;" horiz-adv-x="1476" d="M1036 1087h-121l-149 136l-148 -136h-120l182 220h174zM1323 913h98l-295 -913h-131l-258 782l-252 -782h-131l-303 913h160l235 -743l234 743h172l235 -743z" />
<glyph unicode="&#x176;" horiz-adv-x="1085" d="M825 1456h-120l-148 137l-149 -137h-121l182 223h174zM1006 1286l-388 -692v-594h-147v586l-401 700h172l319 -602l318 602h127z" />
<glyph unicode="&#x177;" d="M743 1087h-120l-150 136l-147 -136h-121l182 220h174zM393 88l-340 825h158l260 -641l268 641h115l-565 -1341h-111z" />
<glyph unicode="&#x178;" horiz-adv-x="1085" d="M465 1655v-199h-146v199h146zM799 1655v-199h-146v199h146zM1006 1286l-388 -692v-594h-147v586l-401 700h172l319 -602l318 602h127z" />
<glyph unicode="&#x179;" horiz-adv-x="1112" d="M588 1456h-119l174 223h188zM1049 1286v-102l-836 -1090h817v-94h-979v104l844 1088h-780v94h934z" />
<glyph unicode="&#x17a;" horiz-adv-x="948" d="M508 1087h-117l174 220h187zM858 795l-618 -701h632v-94h-811v98l641 721h-589v94h745v-118z" />
<glyph unicode="&#x17b;" horiz-adv-x="1112" d="M469 1456v199h168v-199h-168zM1049 1286v-102l-836 -1090h817v-94h-979v104l844 1088h-780v94h934z" />
<glyph unicode="&#x17c;" horiz-adv-x="948" d="M551 1286v-199h-145v199h145zM858 795l-618 -701h632v-94h-811v98l641 721h-589v94h745v-118z" />
<glyph unicode="&#x17d;" horiz-adv-x="1112" d="M854 1679l-182 -223h-174l-183 223h121l150 -139l147 139h121zM1049 1286v-102l-836 -1090h817v-94h-979v104l844 1088h-780v94h934z" />
<glyph unicode="&#x17e;" horiz-adv-x="948" d="M764 1307l-184 -220h-174l-183 220h123l148 -133l147 133h123zM858 795l-618 -701h632v-94h-811v98l641 721h-589v94h745v-118z" />
<glyph unicode="&#x18f;" horiz-adv-x="1443" d="M283 866h-160q99 449 594 449q620 0 620 -678q0 -317 -162.5 -491.5t-457.5 -174.5q-294 0 -456.5 175t-162.5 493h1080q0 582 -461 582q-342 0 -434 -355zM717 66q199 0 317 123.5t140 351.5h-912q22 -228 140 -351.5t315 -123.5z" />
<glyph unicode="&#x192;" horiz-adv-x="1114" d="M182 -121q95 0 136 37t63 143l158 760h-162l20 94h162l25 119q31 148 114 215.5t234 67.5q50 0 137 -27l-41 -84q-47 17 -100 17q-89 0 -133 -41.5t-66 -147.5l-24 -119h239l-20 -94h-240l-158 -760q-29 -143 -112.5 -208.5t-235.5 -65.5q-58 0 -137 27l41 84 q47 -17 100 -17z" />
<glyph unicode="&#x19d;" horiz-adv-x="1380" d="M1085 1286h113v-1286h-184l-721 1133v-1315q0 -143 -58 -209t-169 -66h-15l-24 95h34q66 0 93.5 42t27.5 138v1468h172l731 -1134v1134z" />
<glyph unicode="&#x1cd;" horiz-adv-x="1212" d="M877 1679l-183 -223h-174l-182 223h121l149 -139l148 139h121zM1006 0l-129 362h-596l-131 -362h-103l465 1286h190l463 -1286h-159zM313 457h529l-262 739z" />
<glyph unicode="&#x1ce;" horiz-adv-x="997" d="M764 1307l-184 -220h-174l-183 220h123l148 -133l147 133h123zM856 598v-539q-184 -88 -362 -88q-204 0 -312 77t-108 222q0 126 97 200.5t278 86.5q153 10 264 10v68q0 114 -57.5 162.5t-192.5 48.5q-130 0 -285 -41l-22 82q168 55 348 55t266 -83.5t86 -260.5zM713 109 v368q-115 0 -244 -12q-130 -10 -189 -60t-59 -147q0 -94 64.5 -143t187.5 -49q62 0 131.5 13.5t108.5 29.5z" />
<glyph unicode="&#x1cf;" horiz-adv-x="516" d="M528 1679l-182 -223h-174l-182 223h121l149 -139l148 139h120zM334 1286v-1286h-152v1286h152z" />
<glyph unicode="&#x1d1;" horiz-adv-x="1452" d="M995 1679l-182 -223h-174l-182 223h121l149 -139l147 139h121zM725 1315q304 0 462.5 -172t158.5 -502q0 -327 -158.5 -498.5t-462.5 -171.5q-302 0 -460.5 171.5t-158.5 498.5q0 330 158.5 502t460.5 172zM725 66q226 0 343.5 147t117.5 428q0 284 -117.5 432 t-343.5 148q-224 0 -341.5 -148t-117.5 -432q0 -281 117.5 -428t341.5 -147z" />
<glyph unicode="&#x1d2;" horiz-adv-x="1069" d="M805 1307l-184 -220h-175l-182 220h123l148 -133l147 133h123zM971 455q0 -229 -114.5 -356.5t-321.5 -127.5t-322 127.5t-115 356.5q0 230 115 358.5t322 128.5t321.5 -128.5t114.5 -358.5zM825 455q0 186 -76 289.5t-214 103.5t-214.5 -103.5t-76.5 -289.5 q0 -184 76.5 -286.5t214.5 -102.5t214 102t76 287z" />
<glyph unicode="&#x1d3;" horiz-adv-x="1355" d="M948 1679l-182 -223h-174l-182 223h120l150 -139l147 139h121zM1034 1286h152v-874q0 -211 -133 -327t-375 -116t-375 116t-133 327v874h149v-893q0 -175 84.5 -252.5t274.5 -77.5q189 0 272.5 77.5t83.5 252.5v893z" />
<glyph unicode="&#x1d4;" horiz-adv-x="1075" d="M805 1307l-184 -220h-175l-182 220h123l148 -133l147 133h123zM150 913h145v-628q0 -120 53.5 -169.5t181.5 -49.5q125 0 246 47v800h146v-819q-105 -66 -203.5 -94.5t-226.5 -28.5q-186 0 -264 78.5t-78 265.5v598z" />
<glyph unicode="&#x1d5;" horiz-adv-x="1355" d="M399 1769v117h557v-117h-557zM584 1655v-199h-146v199h146zM918 1655v-199h-146v199h146zM1034 1286h152v-874q0 -211 -133 -327t-375 -116t-375 116t-133 327v874h149v-893q0 -175 84.5 -252.5t274.5 -77.5q189 0 272.5 77.5t83.5 252.5v893z" />
<glyph unicode="&#x1d6;" horiz-adv-x="1075" d="M256 1456v117h557v-117h-557zM457 1286v-199h-144v199h144zM756 1286v-199h-144v199h144zM150 913h145v-628q0 -120 53.5 -169.5t181.5 -49.5q125 0 246 47v800h146v-819q-105 -66 -203.5 -94.5t-226.5 -28.5q-186 0 -264 78.5t-78 265.5v598z" />
<glyph unicode="&#x1d7;" horiz-adv-x="1355" d="M719 1761h-119l174 224h189zM584 1655v-199h-146v199h146zM918 1655v-199h-146v199h146zM1034 1286h152v-874q0 -211 -133 -327t-375 -116t-375 116t-133 327v874h149v-893q0 -175 84.5 -252.5t274.5 -77.5q189 0 272.5 77.5t83.5 252.5v893z" />
<glyph unicode="&#x1d8;" horiz-adv-x="1075" d="M553 1456h-119l174 223h189zM457 1286v-199h-144v199h144zM756 1286v-199h-144v199h144zM150 913h145v-628q0 -120 53.5 -169.5t181.5 -49.5q125 0 246 47v800h146v-819q-105 -66 -203.5 -94.5t-226.5 -28.5q-186 0 -264 78.5t-78 265.5v598z" />
<glyph unicode="&#x1d9;" horiz-adv-x="1355" d="M948 1976l-182 -223h-174l-182 223h120l150 -139l147 139h121zM584 1655v-199h-146v199h146zM918 1655v-199h-146v199h146zM1034 1286h152v-874q0 -211 -133 -327t-375 -116t-375 116t-133 327v874h149v-893q0 -175 84.5 -252.5t274.5 -77.5q189 0 272.5 77.5t83.5 252.5 v893z" />
<glyph unicode="&#x1da;" horiz-adv-x="1075" d="M803 1679l-182 -223h-175l-182 223h121l150 -139l147 139h121zM457 1286v-199h-144v199h144zM756 1286v-199h-144v199h144zM150 913h145v-628q0 -120 53.5 -169.5t181.5 -49.5q125 0 246 47v800h146v-819q-105 -66 -203.5 -94.5t-226.5 -28.5q-186 0 -264 78.5t-78 265.5 v598z" />
<glyph unicode="&#x1db;" horiz-adv-x="1355" d="M649 1790l-243 223h188l174 -223h-119zM584 1655v-199h-146v199h146zM918 1655v-199h-146v199h146zM1034 1286h152v-874q0 -211 -133 -327t-375 -116t-375 116t-133 327v874h149v-893q0 -175 84.5 -252.5t274.5 -77.5q189 0 272.5 77.5t83.5 252.5v893z" />
<glyph unicode="&#x1dc;" horiz-adv-x="1075" d="M506 1456l-244 223h189l174 -223h-119zM457 1286v-199h-144v199h144zM756 1286v-199h-144v199h144zM150 913h145v-628q0 -120 53.5 -169.5t181.5 -49.5q125 0 246 47v800h146v-819q-105 -66 -203.5 -94.5t-226.5 -28.5q-186 0 -264 78.5t-78 265.5v598z" />
<glyph unicode="&#x1e6;" horiz-adv-x="1261" d="M954 1679l-182 -223h-174l-182 223h121l149 -139l148 139h120zM682 682h448v-653q-165 -58 -407 -58q-614 0 -614 670q0 674 614 674q226 0 403 -74l-24 -88q-214 68 -379 68q-461 0 -461 -580q0 -575 461 -575q160 0 260 32v488h-301v96z" />
<glyph unicode="&#x1e7;" horiz-adv-x="1089" d="M827 1307l-184 -220h-174l-182 220h123l147 -133l148 133h122zM936 834v-947q0 -175 -98 -259.5t-299 -84.5q-152 0 -359 68l23 80q193 -53 293 -53q162 0 228.5 47.5t66.5 164.5v173q-157 -52 -273 -52q-212 0 -315 119t-103 365q0 247 106 367t324 120q221 0 406 -108z M561 66q78 0 230 55v661q-94 66 -230 66q-161 0 -239 -96.5t-78 -294.5t78 -294.5t239 -96.5z" />
<glyph unicode="&#x1ea;" horiz-adv-x="1452" d="M725 1315q304 0 462.5 -172t158.5 -502q0 -256 -98 -417t-287 -220q-113 -98 -150 -148t-37 -106q0 -47 49 -83t113 -36h172v-63q-123 -25 -221 -25q-95 0 -165.5 58t-70.5 135q0 130 133 237q-18 -2 -59 -2q-302 0 -460.5 171.5t-158.5 498.5q0 330 158.5 502t460.5 172 zM725 66q226 0 343.5 147t117.5 428q0 284 -117.5 432t-343.5 148q-224 0 -341.5 -148t-117.5 -432q0 -281 117.5 -428t341.5 -147z" />
<glyph unicode="&#x1eb;" horiz-adv-x="1069" d="M971 455q0 -162 -58 -274.5t-168 -166.5q-122 -102 -161 -154t-39 -110q0 -47 49 -83t113 -36h172v-63q-123 -25 -222 -25q-95 0 -165 58t-70 135q0 67 31.5 123t99.5 112h-18q-207 0 -322 127.5t-115 356.5q0 230 115 358.5t322 128.5t321.5 -128.5t114.5 -358.5z M825 455q0 186 -76 289.5t-214 103.5t-214.5 -103.5t-76.5 -289.5q0 -184 76.5 -286.5t214.5 -102.5t214 102t76 287z" />
<glyph unicode="&#x1f4;" horiz-adv-x="1261" d="M721 1456h-119l174 223h189zM682 682h448v-653q-165 -58 -407 -58q-614 0 -614 670q0 674 614 674q226 0 403 -74l-24 -88q-214 68 -379 68q-461 0 -461 -580q0 -575 461 -575q160 0 260 32v488h-301v96z" />
<glyph unicode="&#x1f5;" horiz-adv-x="1089" d="M600 1087h-117l174 220h187zM936 834v-947q0 -175 -98 -259.5t-299 -84.5q-152 0 -359 68l23 80q193 -53 293 -53q162 0 228.5 47.5t66.5 164.5v173q-157 -52 -273 -52q-212 0 -315 119t-103 365q0 247 106 367t324 120q221 0 406 -108zM561 66q78 0 230 55v661 q-94 66 -230 66q-161 0 -239 -96.5t-78 -294.5t78 -294.5t239 -96.5z" />
<glyph unicode="&#x1fa;" horiz-adv-x="1212" d="M1006 0l-129 362h-596l-131 -362h-103l457 1266q-142 21 -142 133q0 122 170 139l164 209h189l-230 -209q89 -7 131.5 -41.5t42.5 -97.5q0 -103 -120 -129l456 -1270h-159zM682 1399q0 51 -19.5 71.5t-66.5 20.5t-66.5 -20.5t-19.5 -71.5q0 -49 19.5 -69.5t66.5 -20.5 t66.5 20.5t19.5 69.5zM313 457h529l-262 739z" />
<glyph unicode="&#x1fb;" horiz-adv-x="997" d="M549 1456h-119l174 223h189zM741 1257q7 -21 7 -38q0 -142 -234 -142q-235 0 -235 142q0 141 235 141q203 0 227 -103zM598 1219q0 50 -19 70t-65 20q-50 0 -69 -19.5t-19 -70.5t19.5 -71t68.5 -20q46 0 65 20t19 71zM856 598v-539q-184 -88 -362 -88q-204 0 -312 77 t-108 222q0 126 97 200.5t278 86.5q153 10 264 10v68q0 114 -57.5 162.5t-192.5 48.5q-130 0 -285 -41l-22 82q168 55 348 55t266 -83.5t86 -260.5zM713 109v368q-115 0 -244 -12q-130 -10 -189 -60t-59 -147q0 -94 64.5 -143t187.5 -49q62 0 131.5 13.5t108.5 29.5z" />
<glyph unicode="&#x1fc;" horiz-adv-x="1683" d="M987 1430h-119l174 223h189zM1583 1286v-94h-647v-475h569v-96h-569v-527h647v-94h-799v362h-467l-131 -362h-143l465 1286h1075zM614 1192l-264 -735h434v735h-170z" />
<glyph unicode="&#x1fd;" horiz-adv-x="1650" d="M848 1087h-117l174 220h187zM1509 424h-647q3 -170 80.5 -264t214.5 -94q158 0 311 65l29 -92q-170 -68 -340 -68q-187 0 -301 105v-17q-184 -88 -362 -88q-204 0 -312 77t-108 222q0 126 97 200.5t278 86.5q153 10 264 10v68q0 114 -57.5 162.5t-192.5 48.5 q-130 0 -285 -41l-22 82q168 55 348 55q232 0 311 -143q112 143 328 143q201 0 312.5 -120t111.5 -337q0 -61 -58 -61zM862 518h561q0 157 -73.5 243.5t-206.5 86.5q-129 0 -203.5 -87t-77.5 -243zM713 109v368q-115 0 -244 -12q-130 -10 -189 -60t-59 -147q0 -94 64.5 -143 t187.5 -49q62 0 131.5 13.5t108.5 29.5z" />
<glyph unicode="&#x1fe;" horiz-adv-x="1480" d="M776 1456h-119l174 223h189zM739 1315q268 0 422 -133l96 104h148l-170 -184q125 -172 125 -461q0 -327 -158.5 -498.5t-462.5 -171.5q-265 0 -420 131l-94 -102h-147l168 182q-125 169 -125 459q0 330 158 502t460 172zM281 641q0 -214 67 -348l725 792 q-121 136 -334 136q-224 0 -341 -148t-117 -432zM739 66q226 0 343.5 147t117.5 428q0 211 -65 350l-725 -790q114 -135 329 -135z" />
<glyph unicode="&#x1ff;" horiz-adv-x="1091" d="M616 1087h-116l174 220h186zM983 455q0 -229 -114.5 -356.5t-321.5 -127.5q-185 0 -297 103l-66 -74h-108l121 133q-86 125 -86 322q0 230 114.5 358.5t321.5 128.5q184 0 293 -100l65 71h103l-117 -129q92 -124 92 -329zM256 455q0 -131 37 -215l465 510q-79 98 -211 98 q-138 0 -214.5 -103.5t-76.5 -289.5zM838 455q0 135 -41 225l-463 -514q74 -100 213 -100q138 0 214.5 102.5t76.5 286.5z" />
<glyph unicode="&#x218;" horiz-adv-x="1116" d="M582 748q247 -47 354.5 -134.5t107.5 -240.5q0 -186 -139.5 -294t-378.5 -108q-110 0 -207 26.5t-206 80.5l28 86q206 -98 385 -98q171 0 271 74.5t100 203.5q0 97 -84.5 160.5t-298.5 105.5q-223 44 -322.5 125.5t-99.5 214.5q0 163 130 264t339 101q195 0 369 -98 l-33 -80q-165 84 -328 84q-150 0 -243 -68.5t-93 -177.5q0 -91 78.5 -141t270.5 -86zM553 -504h-121l47 365h199z" />
<glyph unicode="&#x219;" d="M406 -29q-133 0 -302 66l23 82q145 -53 281 -53q128 0 200 49t72 135q0 31 -7.5 51t-31.5 40.5t-71.5 37t-123.5 31.5q-147 28 -224.5 65t-105.5 85.5t-28 127.5q0 123 98.5 188.5t284.5 65.5q126 0 291 -65l-27 -82q-141 53 -264 53q-120 0 -184 -41.5t-64 -118.5 q0 -50 49 -85.5t183 -61.5q150 -28 227 -62t107 -84t30 -137q0 -135 -109.5 -211t-303.5 -76zM451 -504h-121l47 365h198z" />
<glyph unicode="&#x21a;" horiz-adv-x="1091" d="M1047 1286v-94h-426v-1192h-152v1192h-424v94h1002zM524 -504h-121l48 365h198z" />
<glyph unicode="&#x21b;" horiz-adv-x="618" d="M559 72l-16 -97q-36 -4 -68 -4q-149 0 -218 65.5t-69 207.5v575h-133v94h133v275l144 35v-310h239v-94h-239v-575q0 -106 32.5 -142t127.5 -36q40 0 67 6zM350 -504h-121l47 365h199z" />
<glyph unicode="&#x232;" horiz-adv-x="1085" d="M258 1456v117h557v-117h-557zM1006 1286l-388 -692v-594h-147v586l-401 700h172l319 -602l318 602h127z" />
<glyph unicode="&#x233;" d="M186 1169v117h557v-117h-557zM393 88l-340 825h158l260 -641l268 641h115l-565 -1341h-111z" />
<glyph unicode="&#x237;" horiz-adv-x="479" d="M319 913v-1095q0 -136 -63.5 -205.5t-198.5 -69.5h-16l-25 95h35q68 0 96.5 42t28.5 138v1095h143z" />
<glyph unicode="&#x259;" horiz-adv-x="1032" d="M141 487h650q-3 171 -80.5 266t-214.5 95q-170 0 -312 -66l-30 92q164 68 342 68q209 0 323.5 -127.5t114.5 -359.5q0 -230 -111.5 -357t-312.5 -127q-203 0 -314.5 119t-111.5 336q0 38 11.5 49.5t45.5 11.5zM791 393h-562q0 -155 74 -241t207 -86q127 0 201 86t80 241z " />
<glyph unicode="&#x272;" horiz-adv-x="1073" d="M924 0h-142v625q0 126 -51.5 174.5t-185.5 48.5q-114 0 -248 -57v-973q0 -139 -64 -207t-198 -68h-17l-24 95h35q66 0 95.5 43.5t29.5 136.5v1016q208 108 430 108q185 0 262.5 -79.5t77.5 -268.5v-594z" />
<glyph unicode="&#x2c6;" horiz-adv-x="794" d="M662 1087h-121l-150 136l-147 -136h-121l182 220h174z" />
<glyph unicode="&#x2c7;" horiz-adv-x="751" d="M645 1307l-184 -220h-174l-183 220h123l148 -133l147 133h123z" />
<glyph unicode="&#x2d8;" horiz-adv-x="794" d="M662 1307q0 -105 -80 -166.5t-187 -61.5q-115 0 -193.5 58t-78.5 170h123q0 -70 43 -107t104 -37q65 0 106.5 37.5t41.5 106.5h121z" />
<glyph unicode="&#x2d9;" horiz-adv-x="391" d="M258 1286v-199h-145v199h145z" />
<glyph unicode="&#x2da;" horiz-adv-x="585" d="M520 1257q6 -18 6 -38q0 -142 -233 -142q-236 0 -236 142q0 141 236 141q203 0 227 -103zM377 1219q0 50 -19 70t-65 20q-50 0 -69 -19.5t-19 -70.5t19.5 -71t68.5 -20q46 0 65 20t19 71z" />
<glyph unicode="&#x2db;" horiz-adv-x="1003" d="M707 70l65 -35q-137 -116 -180 -170.5t-43 -114.5q0 -47 49 -83t113 -36h172v-63q-123 -25 -221 -25q-95 0 -165.5 58t-70.5 135q0 94 65.5 171t215.5 163z" />
<glyph unicode="&#x2dc;" horiz-adv-x="987" d="M729 1262l55 -54q-44 -67 -85.5 -94t-100.5 -27q-55 0 -127 33q-80 37 -129 37q-37 0 -62.5 -14t-54.5 -51l-55 53q44 68 85 94.5t99 26.5q64 0 144 -39q60 -29 112 -29q37 0 63.5 14.5t55.5 49.5z" />
<glyph unicode="&#x2dd;" horiz-adv-x="1273" d="M362 1087h-116l174 220h186zM631 1087h-117l174 220h186z" />
<glyph unicode="&#x323;" horiz-adv-x="342" d="M256 -297h-172v158h172v-158z" />
<glyph unicode="&#x326;" horiz-adv-x="348" d="M172 -504h-121l47 365h199z" />
<glyph unicode="&#x374;" horiz-adv-x="485" d="M63 778l170 508h191l-256 -508h-105z" />
<glyph unicode="&#x375;" horiz-adv-x="485" d="M63 -166l170 508h191l-256 -508h-105z" />
<glyph unicode="&#x37e;" horiz-adv-x="518" d="M369 657h-199v158h199v-158zM248 -209h-113l47 367h187z" />
<glyph unicode="&#x384;" horiz-adv-x="477" d="M127 1087l76 322h176l-141 -322h-111z" />
<glyph unicode="&#x385;" horiz-adv-x="784" d="M285 1087l75 322h177l-144 -322h-108zM207 1286v-199h-144v199h144zM705 1286v-199h-144v199h144z" />
<glyph unicode="&#x386;" horiz-adv-x="1261" d="M233 922h-120l47 364h198zM1055 0l-129 362h-596l-131 -362h-103l465 1286h191l462 -1286h-159zM362 457h529l-262 739z" />
<glyph unicode="&#x387;" horiz-adv-x="415" d="M281 913v-206h-146v206h146z" />
<glyph unicode="&#x388;" horiz-adv-x="1292" d="M164 922h-121l47 364h199zM1192 1286v-94h-647v-475h569v-96h-569v-527h647v-94h-799v1286h799z" />
<glyph unicode="&#x389;" horiz-adv-x="1525" d="M164 922h-121l47 364h199zM1192 717v569h151v-1286h-151v623h-649v-623h-150v1286h150v-569h649z" />
<glyph unicode="&#x38a;" horiz-adv-x="716" d="M164 922h-121l47 364h199zM535 1286v-1286h-152v1286h152z" />
<glyph unicode="&#x38c;" horiz-adv-x="1624" d="M897 1315q304 0 462.5 -172t158.5 -502q0 -327 -158.5 -498.5t-462.5 -171.5q-302 0 -460 171.5t-158 498.5q0 330 158 502t460 172zM170 922h-121l47 364h199zM897 66q226 0 343.5 147t117.5 428q0 284 -117.5 432t-343.5 148q-224 0 -341.5 -148t-117.5 -432 q0 -281 117.5 -428t341.5 -147z" />
<glyph unicode="&#x38e;" horiz-adv-x="1437" d="M215 922h-121l47 364h199zM1356 1286l-387 -692v-594h-148v586l-401 700h172l319 -602l318 602h127z" />
<glyph unicode="&#x38f;" horiz-adv-x="1554" d="M272 0v111h361q-165 72 -262 229t-97 354q0 278 161.5 449.5t422.5 171.5q259 0 418.5 -171.5t159.5 -449.5q0 -196 -96 -352.5t-259 -230.5h359v-111h-467v135q137 89 221 243t84 316q0 236 -115.5 381.5t-304.5 145.5q-190 0 -307 -145.5t-117 -381.5 q0 -172 84.5 -326.5t220.5 -230.5v-137h-467zM176 922h-121l47 364h199z" />
<glyph unicode="&#x390;" horiz-adv-x="499" d="M174 1087l76 322h176l-143 -322h-109zM96 1286v-199h-143v199h143zM594 1286v-199h-143v199h143zM305 913v-698q0 -51 26 -80t72 -29h33v-106h-71q-91 0 -148 54t-57 141v718h145z" />
<glyph unicode="&#x391;" horiz-adv-x="1212" d="M1006 0l-129 362h-596l-131 -362h-103l465 1286h190l463 -1286h-159zM313 457h529l-262 739z" />
<glyph unicode="&#x392;" horiz-adv-x="1286" d="M795 723q189 -13 295 -98.5t106 -223.5q0 -207 -185.5 -304t-586.5 -97h-242v1286h443q217 0 338.5 -76t121.5 -211q0 -97 -76.5 -169.5t-213.5 -106.5zM614 1192h-280v-453q302 0 449 64t147 196q0 98 -78 145.5t-238 47.5zM334 94h145q294 0 421.5 75.5t127.5 248.5 q0 106 -96.5 172.5t-251.5 66.5q-168 0 -346 -22v-541z" />
<glyph unicode="&#x393;" horiz-adv-x="972" d="M334 0h-152v1286h744v-94h-592v-1192z" />
<glyph unicode="&#x394;" horiz-adv-x="1214" d="M987 94l-407 1102l-410 -1102h817zM68 0v94l444 1192h193l442 -1192v-94h-1079z" />
<glyph unicode="&#x395;" horiz-adv-x="1081" d="M981 1286v-94h-647v-475h569v-96h-569v-527h647v-94h-799v1286h799z" />
<glyph unicode="&#x396;" horiz-adv-x="1112" d="M1049 1286v-102l-836 -1090h817v-94h-979v104l844 1088h-780v94h934z" />
<glyph unicode="&#x397;" horiz-adv-x="1333" d="M999 717v569h152v-1286h-152v623h-665v-623h-152v1286h152v-569h665z" />
<glyph unicode="&#x398;" horiz-adv-x="1452" d="M725 1315q304 0 462.5 -172t158.5 -502q0 -327 -158.5 -498.5t-462.5 -171.5q-302 0 -460.5 171.5t-158.5 498.5q0 330 158.5 502t460.5 172zM725 66q226 0 343.5 147t117.5 428q0 284 -117.5 432t-343.5 148q-224 0 -341.5 -148t-117.5 -432q0 -281 117.5 -428 t341.5 -147zM449 573v129h552v-129h-552z" />
<glyph unicode="&#x399;" horiz-adv-x="516" d="M334 1286v-1286h-152v1286h152z" />
<glyph unicode="&#x39a;" horiz-adv-x="1155" d="M1167 0h-200l-594 645h-41v-645h-150v1286h150v-549h43l499 549h177l-559 -590z" />
<glyph unicode="&#x39b;" horiz-adv-x="1214" d="M1006 0l-426 1196l-430 -1196h-103l465 1286h193l460 -1286h-159z" />
<glyph unicode="&#x39c;" horiz-adv-x="1587" d="M1126 1286h203l144 -1286h-154l-125 1182l-352 -1182h-168l-330 1171l-102 -1171h-121l131 1286h207l327 -1126z" />
<glyph unicode="&#x39d;" horiz-adv-x="1380" d="M1085 1286h113v-1286h-184l-721 1133v-1133h-111v1286h172l731 -1134v1134z" />
<glyph unicode="&#x39e;" horiz-adv-x="1169" d="M1053 1286v-145h-934v145h934zM221 598v145h731v-145h-731zM84 0v145h999v-145h-999z" />
<glyph unicode="&#x39f;" horiz-adv-x="1452" d="M725 1315q304 0 462.5 -172t158.5 -502q0 -327 -158.5 -498.5t-462.5 -171.5q-302 0 -460.5 171.5t-158.5 498.5q0 330 158.5 502t460.5 172zM725 66q226 0 343.5 147t117.5 428q0 284 -117.5 432t-343.5 148q-224 0 -341.5 -148t-117.5 -432q0 -281 117.5 -428 t341.5 -147z" />
<glyph unicode="&#x3a0;" horiz-adv-x="1323" d="M334 0h-152v1286h959v-1286h-152v1192h-655v-1192z" />
<glyph unicode="&#x3a1;" horiz-adv-x="1216" d="M1149 950q0 -141 -76.5 -224.5t-243 -122.5t-448.5 -40h-47v-563h-152v1286h484q246 0 364.5 -83t118.5 -253zM987 961q0 118 -84 174.5t-258 56.5h-311v-537q356 0 504.5 70t148.5 236z" />
<glyph unicode="&#x3a3;" horiz-adv-x="1038" d="M80 0v137l383 518l-383 537v94h868v-94h-686l354 -494l-415 -561h772v-137h-893z" />
<glyph unicode="&#x3a4;" horiz-adv-x="1091" d="M1047 1286v-94h-426v-1192h-152v1192h-424v94h1002z" />
<glyph unicode="&#x3a5;" horiz-adv-x="1085" d="M1006 1286l-388 -692v-594h-147v586l-401 700h172l319 -602l318 602h127z" />
<glyph unicode="&#x3a6;" horiz-adv-x="1503" d="M827 1333v-133q281 -19 429.5 -163t148.5 -400q0 -254 -149 -398t-429 -163v-127h-151v127q-280 17 -429 161.5t-149 399.5q0 256 149 401t429 162v133h151zM256 637q0 -213 108.5 -334.5t311.5 -140.5v952q-203 -19 -311.5 -141t-108.5 -336zM1247 637q0 214 -108 336 t-312 141v-952q204 19 312 141t108 334z" />
<glyph unicode="&#x3a7;" horiz-adv-x="1130" d="M1124 0h-180l-393 580l-412 -580h-135l492 668l-412 618h180l320 -495l331 495h129l-405 -581z" />
<glyph unicode="&#x3a8;" horiz-adv-x="1409" d="M784 1286v-883q179 17 272 112t93 261v510h151v-491q0 -217 -131.5 -339t-384.5 -139v-317h-151v317q-256 15 -390 137.5t-134 340.5v491h151v-510q0 -169 95 -264.5t278 -110.5v885h151z" />
<glyph unicode="&#x3a9;" horiz-adv-x="1398" d="M117 0v111h360q-165 72 -261.5 229t-96.5 354q0 278 161 449.5t422 171.5q259 0 418.5 -171.5t159.5 -449.5q0 -197 -96 -353t-258 -230h358v-111h-467v135q137 89 221 243t84 316q0 236 -115.5 381.5t-304.5 145.5q-190 0 -306.5 -145t-116.5 -382q0 -172 84.5 -326.5 t220.5 -230.5v-137h-467z" />
<glyph unicode="&#x3aa;" horiz-adv-x="516" d="M164 1655v-199h-146v199h146zM498 1655v-199h-146v199h146zM334 1286v-1286h-152v1286h152z" />
<glyph unicode="&#x3ab;" horiz-adv-x="1085" d="M477 1655v-199h-145v199h145zM811 1655v-199h-145v199h145zM1006 1286l-388 -692v-594h-147v586l-401 700h172l319 -602l318 602h127z" />
<glyph unicode="&#x3ac;" horiz-adv-x="1110" d="M483 1087l76 322h176l-141 -322h-111zM926 913v-708q0 -51 27 -81t71 -30h35v-94h-74q-67 0 -116.5 24.5t-71.5 67.5q-115 -121 -283 -121q-184 0 -301 136.5t-117 351.5q0 214 116.5 348.5t301.5 134.5q69 0 141 -31t125 -82v84h146zM799 459q0 187 -74 288t-211 101 q-130 0 -200 -100.5t-70 -288.5q0 -189 70 -291t200 -102q137 0 211 102t74 291z" />
<glyph unicode="&#x3ad;" horiz-adv-x="894" d="M410 1087l75 322h177l-142 -322h-110zM403 489q-262 57 -262 230q0 107 95 165t272 58q174 0 301 -65l-35 -84q-107 55 -258 55q-110 0 -169.5 -35t-59.5 -100q0 -77 91.5 -129t227.5 -52h107v-96h-107q-175 0 -272.5 -49.5t-97.5 -138.5q0 -86 67.5 -134t188.5 -48 q131 0 315 71l29 -86q-181 -80 -344 -80q-190 0 -296 74.5t-106 206.5q0 99 82 161.5t231 75.5z" />
<glyph unicode="&#x3ae;" horiz-adv-x="1073" d="M481 1087l76 322h176l-141 -322h-111zM924 -332h-142v957q0 120 -54.5 171.5t-182.5 51.5q-114 0 -248 -57v-791h-143v834q212 108 430 108q182 0 261 -81t79 -267v-926z" />
<glyph unicode="&#x3af;" horiz-adv-x="499" d="M188 1087l76 322h176l-141 -322h-111zM305 913v-698q0 -51 26 -80t72 -29h33v-106h-71q-91 0 -148 54t-57 141v718h145z" />
<glyph unicode="&#x3b0;" horiz-adv-x="1017" d="M408 1087l75 322h176l-143 -322h-108zM330 1286v-199h-144v199h144zM827 1286v-199h-143v199h143zM150 913h143v-559q0 -146 55.5 -217t169.5 -71q132 0 197 106t65 322q0 240 -90 419h127q90 -193 90 -424q0 -261 -96 -389.5t-291 -128.5q-187 0 -278.5 85t-91.5 259 v598z" />
<glyph unicode="&#x3b1;" horiz-adv-x="1110" d="M926 913v-708q0 -51 27 -81t71 -30h35v-94h-74q-67 0 -116.5 24.5t-71.5 67.5q-115 -121 -283 -121q-184 0 -301 136.5t-117 351.5q0 214 116.5 348.5t301.5 134.5q69 0 141 -31t125 -82v84h146zM799 459q0 187 -74 288t-211 101q-130 0 -200 -100.5t-70 -288.5 q0 -189 70 -291t200 -102q137 0 211 102t74 291z" />
<glyph unicode="&#x3b2;" horiz-adv-x="1095" d="M705 711q141 -9 218.5 -98.5t77.5 -241.5q0 -190 -95 -295t-267 -105q-105 0 -191.5 39.5t-142.5 112.5v-455h-145v1241q0 193 96.5 299.5t271.5 106.5q184 0 285.5 -85.5t101.5 -240.5q0 -109 -55 -182t-155 -96zM305 961v-699q62 -94 143 -145t170 -51q113 0 174.5 82 t61.5 233q0 123 -60 190.5t-169 67.5q-78 0 -179 -8v94q153 13 238.5 87.5t85.5 193.5q0 103 -60.5 159t-170.5 56q-111 0 -172.5 -68t-61.5 -192z" />
<glyph unicode="&#x3b3;" horiz-adv-x="944" d="M377 53l-324 860h158l268 -763q127 170 187.5 339t60.5 357q0 44 -2 67h125q6 -55 6 -112q0 -196 -81 -388t-253 -405v-340h-145v385z" />
<glyph unicode="&#x3b4;" horiz-adv-x="1060" d="M967 406q0 -195 -120.5 -315t-316.5 -120t-316 120t-120 315q0 190 110.5 309.5t295.5 130.5q-106 0 -178 64.5t-72 166.5q0 106 88.5 172t232.5 66q72 0 153.5 -18.5t141.5 -47.5v-94q-60 29 -141.5 47.5t-153.5 18.5q-78 0 -127 -41t-49 -107q0 -61 51 -101t185 -83 q151 -47 243.5 -180.5t92.5 -302.5zM240 406q0 -152 80 -246t210 -94t210.5 94t80.5 246q0 155 -80 250.5t-211 95.5q-130 0 -210 -95.5t-80 -250.5z" />
<glyph unicode="&#x3b5;" horiz-adv-x="894" d="M403 489q-262 57 -262 230q0 107 95 165t272 58q174 0 301 -65l-35 -84q-107 55 -258 55q-110 0 -169.5 -35t-59.5 -100q0 -77 91.5 -129t227.5 -52h107v-96h-107q-175 0 -272.5 -49.5t-97.5 -138.5q0 -86 67.5 -134t188.5 -48q131 0 315 71l29 -86q-181 -80 -344 -80 q-190 0 -296 74.5t-106 206.5q0 99 82 161.5t231 75.5z" />
<glyph unicode="&#x3b6;" horiz-adv-x="843" d="M788 1286v-110q-304 -214 -425 -377.5t-121 -343.5q0 -94 45.5 -163.5t128.5 -98.5q98 -35 157 -57.5t108.5 -47t72.5 -42t39.5 -43.5t20 -51t3.5 -65q0 -55 -24 -114t-64 -107h-100q41 87 41 191q0 27 -3 44t-15.5 35t-30.5 30.5t-56.5 29.5t-83.5 33t-121 41 q-126 41 -195 140t-69 236q0 215 120.5 378.5t414.5 351.5h-471v110h628z" />
<glyph unicode="&#x3b7;" horiz-adv-x="1073" d="M924 -332h-142v957q0 120 -54.5 171.5t-182.5 51.5q-114 0 -248 -57v-791h-143v834q212 108 430 108q182 0 261 -81t79 -267v-926z" />
<glyph unicode="&#x3b8;" horiz-adv-x="1105" d="M991 641q0 -332 -111 -501t-329 -169q-216 0 -326 169t-110 501q0 335 109.5 504.5t326.5 169.5q218 0 329 -170t111 -504zM551 1221q-264 0 -279 -525h562q-7 259 -79 392t-204 133zM551 66q265 0 283 512h-562q15 -512 279 -512z" />
<glyph unicode="&#x3b9;" horiz-adv-x="499" d="M305 913v-698q0 -51 26 -80t72 -29h33v-106h-71q-91 0 -148 54t-57 141v718h145z" />
<glyph unicode="&#x3ba;" horiz-adv-x="966" d="M469 504l487 -504h-196l-406 449h-51v-449h-143v913h143v-370h51l254 286q91 101 275 101v-94q-104 0 -193 -93z" />
<glyph unicode="&#x3bb;" horiz-adv-x="1003" d="M799 0l-305 690l-316 -690h-135l383 840l-94 213q-35 78 -91.5 115.5t-140.5 37.5v109q145 0 235.5 -58.5t147.5 -187.5l475 -1069h-159z" />
<glyph unicode="&#x3bc;" horiz-adv-x="1085" d="M160 -334v1247h145v-628q0 -120 54 -169.5t182 -49.5q124 0 245 47v800h146v-819q-105 -66 -203.5 -94.5t-226.5 -28.5q-124 0 -197 33v-338h-145z" />
<glyph unicode="&#x3bd;" horiz-adv-x="940" d="M696 913h121q23 -94 23 -176q0 -342 -291 -737h-141l-357 913h158l295 -761q207 304 207 606q0 79 -15 155z" />
<glyph unicode="&#x3be;" horiz-adv-x="847" d="M383 680q-114 23 -181 93t-67 167q0 88 63 150t177 88h-240v108h629v-108h-113q-170 0 -270 -68t-100 -184q0 -89 71.5 -142t192.5 -53h155v-94h-155q-132 0 -220.5 -62t-88.5 -180q0 -85 61.5 -133.5t169.5 -81.5q70 -21 121.5 -44.5t99 -58.5t73 -84.5t25.5 -111.5 q0 -127 -71 -213h-92q28 89 28 174q0 36 -15.5 66.5t-35 50t-59 40t-65 30.5t-75.5 28q-71 25 -119 47.5t-96.5 57.5t-73 83t-24.5 109q0 131 82 221t213 105z" />
<glyph unicode="&#x3bf;" horiz-adv-x="1069" d="M971 455q0 -229 -114.5 -356.5t-321.5 -127.5t-322 127.5t-115 356.5q0 230 115 358.5t322 128.5t321.5 -128.5t114.5 -358.5zM825 455q0 186 -76 289.5t-214 103.5t-214.5 -103.5t-76.5 -289.5q0 -184 76.5 -286.5t214.5 -102.5t214 102t76 287z" />
<glyph unicode="&#x3c0;" horiz-adv-x="1134" d="M45 807v106h1024v-106h-182v-604q0 -51 27 -80t73 -29h33v-94h-74q-94 0 -148.5 53t-54.5 142v612h-376v-807h-144v807h-178z" />
<glyph unicode="&#x3c1;" horiz-adv-x="1077" d="M977 455q0 -229 -105 -356.5t-294 -127.5q-186 0 -293 133v-436h-148v787q0 231 110.5 359t309.5 128t309.5 -128t110.5 -359zM831 455q0 186 -72 289.5t-202 103.5q-129 0 -200.5 -103.5t-71.5 -289.5q0 -185 76 -287t214 -102q121 0 188.5 102t67.5 287z" />
<glyph unicode="&#x3c2;" horiz-adv-x="901" d="M692 -332h-94q72 117 72 193q0 31 -19 61t-45.5 53t-73 50t-81 43.5t-91.5 42.5q-125 56 -196.5 158.5t-71.5 232.5q0 197 119.5 318.5t312.5 121.5q81 0 172 -23.5t158 -60.5l-29 -82q-72 32 -155 52t-146 20q-129 0 -208.5 -95.5t-79.5 -250.5q0 -62 17.5 -109 t52.5 -81.5t73.5 -57.5t95.5 -47q46 -20 71.5 -31.5t67 -32.5t64.5 -37.5t52 -41t44 -48.5t26 -55.5t11 -66.5q0 -107 -119 -226z" />
<glyph unicode="&#x3c3;" horiz-adv-x="1130" d="M973 440q0 -227 -112.5 -348t-323.5 -121q-212 0 -325.5 121t-113.5 348q0 229 113.5 351t325.5 122h555v-108h-271q152 -109 152 -365zM827 440q0 183 -74.5 281t-215.5 98t-216 -98t-75 -281q0 -181 75 -277.5t216 -96.5t215.5 96t74.5 278z" />
<glyph unicode="&#x3c4;" horiz-adv-x="835" d="M45 807v106h739v-106h-309v-604q0 -49 27 -79t71 -30h82v-94h-120q-92 0 -148.5 53.5t-56.5 141.5v612h-285z" />
<glyph unicode="&#x3c5;" horiz-adv-x="1017" d="M150 913h143v-559q0 -146 55.5 -217t169.5 -71q132 0 197 106t65 322q0 240 -90 419h127q90 -193 90 -424q0 -261 -96 -389.5t-291 -128.5q-187 0 -278.5 85t-91.5 259v598z" />
<glyph unicode="&#x3c6;" horiz-adv-x="1343" d="M1247 459q0 -211 -133 -339t-369 -147v-305h-145v305q-237 19 -370.5 147t-133.5 339q0 210 133.5 337t370.5 144v213h145v-213q236 -19 369 -145t133 -336zM242 459q0 -165 94.5 -267.5t263.5 -121.5v774q-169 -19 -263.5 -120t-94.5 -265zM1102 459q0 164 -94.5 265 t-262.5 120v-774q168 19 262.5 121.5t94.5 267.5z" />
<glyph unicode="&#x3c7;" horiz-adv-x="948" d="M201 -332h-144l342 608l-209 445q-28 55 -73.5 86t-98.5 31h-12v94h12q124 0 203 -48t129 -151l139 -297l269 477h145l-354 -602l205 -434q28 -60 65 -94.5t72 -34.5h18v-94h-18q-101 0 -166.5 38t-103.5 120l-162 340z" />
<glyph unicode="&#x3c8;" horiz-adv-x="1298" d="M147 913h146v-497q0 -321 299 -348v1106h145v-1106q328 40 328 426q0 234 -90 419h127q90 -197 90 -424q0 -478 -455 -516v-305h-145v303q-445 24 -445 406v536z" />
<glyph unicode="&#x3c9;" horiz-adv-x="1366" d="M610 354v283h144v-283q0 -288 174 -288q188 0 188 372q0 268 -125 475h146q125 -223 125 -483q0 -459 -332 -459q-193 0 -246 183q-56 -183 -248 -183q-332 0 -332 459q0 253 127 483h144q-125 -210 -125 -479q0 -368 188 -368q172 0 172 288z" />
<glyph unicode="&#x3ca;" horiz-adv-x="499" d="M154 1286v-199h-144v199h144zM453 1286v-199h-144v199h144zM305 913v-698q0 -51 26 -80t72 -29h33v-106h-71q-91 0 -148 54t-57 141v718h145z" />
<glyph unicode="&#x3cb;" horiz-adv-x="1017" d="M406 1286v-199h-144v199h144zM705 1286v-199h-144v199h144zM150 913h143v-559q0 -146 55.5 -217t169.5 -71q132 0 197 106t65 322q0 240 -90 419h127q90 -193 90 -424q0 -261 -96 -389.5t-291 -128.5q-187 0 -278.5 85t-91.5 259v598z" />
<glyph unicode="&#x3cc;" horiz-adv-x="1069" d="M479 1087l76 322h176l-141 -322h-111zM971 455q0 -229 -114.5 -356.5t-321.5 -127.5t-322 127.5t-115 356.5q0 230 115 358.5t322 128.5t321.5 -128.5t114.5 -358.5zM825 455q0 186 -76 289.5t-214 103.5t-214.5 -103.5t-76.5 -289.5q0 -184 76.5 -286.5t214.5 -102.5 t214 102t76 287z" />
<glyph unicode="&#x3cd;" horiz-adv-x="1017" d="M451 1087l75 322h176l-141 -322h-110zM150 913h143v-559q0 -146 55.5 -217t169.5 -71q132 0 197 106t65 322q0 240 -90 419h127q90 -193 90 -424q0 -261 -96 -389.5t-291 -128.5q-187 0 -278.5 85t-91.5 259v598z" />
<glyph unicode="&#x3ce;" horiz-adv-x="1366" d="M647 1087l76 322h176l-141 -322h-111zM610 354v283h144v-283q0 -288 174 -288q188 0 188 372q0 268 -125 475h146q125 -223 125 -483q0 -459 -332 -459q-193 0 -246 183q-56 -183 -248 -183q-332 0 -332 459q0 253 127 483h144q-125 -210 -125 -479q0 -368 188 -368 q172 0 172 288z" />
<glyph unicode="&#x3cf;" horiz-adv-x="1155" d="M1167 0l-260 -332h-114l174 332l-594 645h-41v-645h-150v1286h150v-549h43l499 549h177l-559 -590z" />
<glyph unicode="&#x3d7;" horiz-adv-x="1001" d="M90 924q60 18 123 18q103 0 145.5 -91.5t42.5 -320.5q0 -50 -2 -75l217 155q20 123 71 202t142 130l86 -70q-58 -160 -196 -301q-10 -68 -10 -125q0 -172 46.5 -245.5t164.5 -73.5q0 -241 -63.5 -350t-203.5 -109q-50 0 -127 25v119q61 -21 111 -21q80 0 134 52t54 157 q-49 0 -86.5 20.5t-60.5 60t-38.5 84t-22 106.5t-9 111.5t-2.5 115.5l-215 -160q-19 -126 -69.5 -210t-147.5 -148l-88 65q45 198 209 342q6 73 6 133q0 147 -41 209t-135 62q-17 0 -35 -3v136z" />
<glyph unicode="&#x401;" horiz-adv-x="1081" d="M487 1655v-199h-145v199h145zM821 1655v-199h-145v199h145zM981 1286v-94h-647v-475h569v-96h-569v-527h647v-94h-799v1286h799z" />
<glyph unicode="&#x402;" horiz-adv-x="1353" d="M795 0v88q151 0 238 86t87 234q0 141 -80.5 224t-218.5 83q-124 0 -239 -56v-659h-152v1192h-385v94h909v-94h-372v-440q181 55 278 55q189 0 298.5 -107t109.5 -292q0 -189 -127.5 -298.5t-345.5 -109.5z" />
<glyph unicode="&#x403;" horiz-adv-x="989" d="M571 1456h-118l174 223h188zM182 0v1286h760v-94h-608v-1192h-152z" />
<glyph unicode="&#x404;" horiz-adv-x="1187" d="M1102 127l22 -86q-187 -70 -401 -70q-302 0 -458 171t-156 503q0 330 156 500t458 170q214 0 401 -74l-22 -88q-188 68 -379 68q-218 0 -335 -135t-126 -398h643v-102h-641q10 -256 127 -388t332 -132q202 0 379 61z" />
<glyph unicode="&#x405;" horiz-adv-x="1116" d="M582 748q247 -47 354.5 -134.5t107.5 -240.5q0 -186 -139.5 -294t-378.5 -108q-110 0 -207 26.5t-206 80.5l28 86q206 -98 385 -98q171 0 271 74.5t100 203.5q0 97 -84.5 160.5t-298.5 105.5q-223 44 -322.5 125.5t-99.5 214.5q0 163 130 264t339 101q195 0 369 -98 l-33 -80q-165 84 -328 84q-150 0 -243 -68.5t-93 -177.5q0 -91 78.5 -141t270.5 -86z" />
<glyph unicode="&#x406;" horiz-adv-x="516" d="M334 1286v-1286h-152v1286h152z" />
<glyph unicode="&#x407;" horiz-adv-x="516" d="M164 1655v-199h-146v199h146zM498 1655v-199h-146v199h146zM334 1286v-1286h-152v1286h152z" />
<glyph unicode="&#x408;" horiz-adv-x="540" d="M207 1286h151v-1362q0 -142 -72 -209t-227 -67q-64 0 -135 24l23 84q49 -14 102 -14q92 0 125 40t33 142v1362z" />
<glyph unicode="&#x409;" horiz-adv-x="1761" d="M432 1192l-37 -791q-9 -192 -103.5 -296.5t-260.5 -104.5v94q106 31 156.5 104t56.5 203l41 885h733v-487h172q220 -1 360 -113t140 -285q0 -204 -143 -302.5t-439 -98.5h-242v1192h-434zM1180 705h-162v-611h143q183 0 272 80t89 244q0 126 -95.5 206.5t-246.5 80.5z " />
<glyph unicode="&#x40a;" horiz-adv-x="1835" d="M1096 1286v-571h172q220 0 359.5 -103t139.5 -264q0 -177 -142.5 -262.5t-438.5 -85.5h-242v623h-612v-623h-150v1286h150v-569h612v569h152zM1096 94h143q183 0 271.5 66.5t88.5 204.5q0 113 -95.5 184.5t-246.5 71.5h-161v-527z" />
<glyph unicode="&#x40b;" horiz-adv-x="1384" d="M1272 0h-146v492q0 124 -66.5 173.5t-232.5 49.5q-108 0 -241 -58v-657h-152v1192h-389v94h932v-94h-391v-432q133 47 278 47q226 0 317 -77.5t91 -270.5v-459z" />
<glyph unicode="&#x40c;" horiz-adv-x="1155" d="M637 1456h-119l174 223h189zM1167 0h-200l-594 645h-41v-645h-150v1286h150v-549h43l499 549h177l-559 -590z" />
<glyph unicode="&#x40e;" horiz-adv-x="1019" d="M819 1679q0 -107 -72 -170t-194 -63q-124 0 -198 62.5t-74 170.5h122q0 -69 40 -110t108 -41q67 0 107 41t40 110h121zM598 281q-57 -139 -168 -224.5t-250 -85.5v111q82 0 153 43.5t120 112.5l-433 1048h160l363 -858l358 858h113z" />
<glyph unicode="&#x40f;" horiz-adv-x="1314" d="M580 -262v262h-398v1286h152v-1192h647v1192h152v-1286h-402v-262h-151z" />
<glyph unicode="&#x410;" horiz-adv-x="1212" d="M1006 0l-129 362h-596l-131 -362h-103l465 1286h190l463 -1286h-159zM313 457h529l-262 739z" />
<glyph unicode="&#x411;" horiz-adv-x="1134" d="M932 1286v-94h-598v-393h225q220 -1 360 -113t140 -285q0 -204 -143 -302.5t-439 -98.5h-295v1286h750zM334 94h196q183 0 272 80t89 244q0 126 -95.5 206.5t-246.5 80.5h-215v-611z" />
<glyph unicode="&#x412;" horiz-adv-x="1286" d="M795 723q177 -12 289 -102.5t112 -219.5q0 -204 -189.5 -302.5t-582.5 -98.5h-242v1286h443q227 0 343.5 -73t116.5 -214q0 -100 -74 -170.5t-216 -105.5zM614 1192h-280v-453q293 0 444.5 66t151.5 194q0 95 -80.5 144t-235.5 49zM334 94h145q292 0 420.5 76t128.5 248 q0 106 -97 172.5t-251 66.5q-159 0 -346 -22v-541z" />
<glyph unicode="&#x413;" horiz-adv-x="989" d="M182 0v1286h760v-94h-608v-1192h-152z" />
<glyph unicode="&#x414;" horiz-adv-x="1249" d="M31 -262v356q65 19 108.5 51.5t73 96.5t33.5 159l41 885h745v-1192h142v-356h-152v262h-840v-262h-151zM434 1192l-37 -791q-9 -203 -110 -307h594v1098h-447z" />
<glyph unicode="&#x415;" horiz-adv-x="1081" d="M981 1286v-94h-647v-475h569v-96h-569v-527h647v-94h-799v1286h799z" />
<glyph unicode="&#x416;" horiz-adv-x="1691" d="M-12 0l622 696l-506 590h177l448 -549h41v549h150v-549h43l446 549h178l-506 -590l623 -696h-201l-542 645h-41v-645h-150v645h-39l-545 -645h-198z" />
<glyph unicode="&#x417;" horiz-adv-x="1095" d="M602 690q190 -20 294.5 -108t104.5 -228q0 -182 -136 -282.5t-382 -100.5q-209 0 -413 109l28 86q226 -100 385 -100q175 0 273 74.5t98 207.5q0 126 -131 203.5t-342 77.5h-145v94h145q177 0 291 79t114 197q0 105 -88 163.5t-247 58.5q-157 0 -312 -76l-33 80 q182 90 353 90q223 0 346 -83.5t123 -234.5q0 -233 -326 -307z" />
<glyph unicode="&#x418;" horiz-adv-x="1380" d="M293 1286v-1134l731 1134h174v-1286h-111v1133l-722 -1133h-183v1286h111z" />
<glyph unicode="&#x419;" horiz-adv-x="1380" d="M961 1679q0 -107 -72.5 -170t-194.5 -63q-124 0 -198 62.5t-74 170.5h123q0 -69 40 -110t107 -41q68 0 108 41t40 110h121zM293 1286v-1134l731 1134h174v-1286h-111v1133l-722 -1133h-183v1286h111z" />
<glyph unicode="&#x41a;" horiz-adv-x="1155" d="M1167 0h-200l-594 645h-41v-645h-150v1286h150v-549h43l499 549h177l-559 -590z" />
<glyph unicode="&#x41b;" horiz-adv-x="1212" d="M449 1192l-54 -791q-13 -196 -106.5 -298.5t-257.5 -102.5v94q106 31 156 102t57 205l55 885h731v-1286h-149v1192h-432z" />
<glyph unicode="&#x41c;" horiz-adv-x="1587" d="M1126 1286h203l144 -1286h-154l-125 1182l-352 -1182h-168l-330 1171l-102 -1171h-121l131 1286h207l327 -1126z" />
<glyph unicode="&#x41d;" horiz-adv-x="1314" d="M981 717v569h152v-1286h-152v623h-649v-623h-150v1286h150v-569h649z" />
<glyph unicode="&#x41e;" horiz-adv-x="1452" d="M725 1315q298 0 459.5 -175t161.5 -499q0 -321 -161.5 -495.5t-459.5 -174.5q-296 0 -457.5 174.5t-161.5 495.5q0 324 161 499t458 175zM725 66q221 0 341 149t120 426q0 278 -120 429t-341 151q-220 0 -339.5 -151t-119.5 -429q0 -276 119.5 -425.5t339.5 -149.5z" />
<glyph unicode="&#x41f;" horiz-adv-x="1314" d="M334 0h-152v1286h951v-1286h-152v1192h-647v-1192z" />
<glyph unicode="&#x420;" horiz-adv-x="1216" d="M1149 950q0 -207 -176 -296.5t-592 -90.5h-47v-563h-152v1286h484q245 0 364 -83t119 -253zM987 961q0 117 -84.5 174t-257.5 57h-311v-537q353 0 503 70t150 236z" />
<glyph unicode="&#x421;" horiz-adv-x="1185" d="M1102 129l22 -86q-203 -72 -401 -72q-304 0 -459 170.5t-155 503.5q0 332 155 501t459 169q195 0 401 -74l-22 -88q-204 68 -379 68q-227 0 -344 -146t-117 -430q0 -287 116.5 -433t344.5 -146q198 0 379 63z" />
<glyph unicode="&#x422;" horiz-adv-x="1091" d="M1047 1286v-94h-426v-1192h-152v1192h-424v94h1002z" />
<glyph unicode="&#x423;" horiz-adv-x="1019" d="M598 281q-59 -141 -172 -225.5t-246 -84.5v111q77 0 149.5 41.5t123.5 114.5l-433 1048h160l363 -858l358 858h113z" />
<glyph unicode="&#x424;" horiz-adv-x="1404" d="M778 1286v-117q254 -19 390.5 -156t136.5 -376q0 -226 -136.5 -356.5t-390.5 -147.5v-133h-151v133q-254 17 -390.5 147.5t-136.5 356.5q0 239 136.5 376t390.5 156v117h151zM1145 637q0 190 -95 303t-272 133v-844q177 19 272 124.5t95 283.5zM260 637q0 -178 95 -283.5 t272 -124.5v844q-177 -20 -272 -133t-95 -303z" />
<glyph unicode="&#x425;" horiz-adv-x="1130" d="M1124 0h-180l-393 580l-412 -580h-135l492 668l-406 618h174l320 -495l331 495h127l-403 -581z" />
<glyph unicode="&#x426;" horiz-adv-x="1353" d="M1126 -262v262h-944v1286h152v-1192h647v1192h152v-1192h145v-356h-152z" />
<glyph unicode="&#x427;" horiz-adv-x="1187" d="M113 1286h151v-491q0 -123 69 -172.5t240 -49.5q139 0 283 58v655h150v-1286h-150v532q-164 -53 -321 -53q-233 0 -327.5 78t-94.5 270v459z" />
<glyph unicode="&#x428;" horiz-adv-x="1679" d="M334 1286v-1192h432v1192h149v-1192h431v1192h151v-1286h-1315v1286h152z" />
<glyph unicode="&#x429;" horiz-adv-x="1718" d="M334 1286v-1192h432v1192h149v-1192h431v1192h151v-1192h148v-356h-152v262h-1311v1286h152z" />
<glyph unicode="&#x42a;" horiz-adv-x="1214" d="M459 1286v-487h223q202 -1 331.5 -113t129.5 -285q0 -204 -133 -302.5t-410 -98.5h-293v1192h-268v94h420zM459 94h196q163 0 241.5 80t78.5 244q0 126 -85 206.5t-218 80.5h-213v-611z" />
<glyph unicode="&#x42b;" horiz-adv-x="1558" d="M334 1286v-487h225q217 -2 355.5 -113.5t138.5 -284.5q0 -204 -141.5 -302.5t-434.5 -98.5h-295v1286h152zM1376 1286v-1286h-151v1286h151zM334 94h196q181 0 269 80t88 244q0 126 -94.5 206.5t-243.5 80.5h-215v-611z" />
<glyph unicode="&#x42c;" horiz-adv-x="1124" d="M334 1286v-487h225q217 -2 355.5 -113.5t138.5 -284.5q0 -204 -141.5 -302.5t-434.5 -98.5h-295v1286h152zM334 94h196q181 0 269 80t88 244q0 126 -94.5 206.5t-243.5 80.5h-215v-611z" />
<glyph unicode="&#x42d;" horiz-adv-x="1189" d="M88 127q177 -61 379 -61q215 0 332 132t127 388h-643v102h645q-9 263 -126 398t-335 135q-191 0 -379 -68l-22 88q187 74 401 74q302 0 458 -170t156 -500q0 -332 -156 -503t-458 -171q-214 0 -401 70z" />
<glyph unicode="&#x42e;" horiz-adv-x="1933" d="M1206 1315q304 0 462.5 -172t158.5 -502q0 -327 -158.5 -498.5t-462.5 -171.5q-298 0 -455.5 167t-162.5 485h-256v-623h-150v1286h150v-569h258q19 293 175.5 445.5t440.5 152.5zM1206 66q226 0 343.5 147t117.5 428q0 284 -117.5 432t-343.5 148q-224 0 -341 -148 t-117 -432q0 -281 117 -428t341 -147z" />
<glyph unicode="&#x42f;" horiz-adv-x="1243" d="M109 969q0 157 122.5 237t360.5 80h469v-1286h-152v590q-181 0 -342 20l-334 -610h-186l375 639q-153 40 -233 124t-80 206zM268 981q0 -154 148.5 -225.5t470.5 -71.5h22v508h-299q-169 0 -255.5 -53.5t-86.5 -157.5z" />
<glyph unicode="&#x430;" horiz-adv-x="997" d="M856 598v-539q-184 -88 -362 -88q-204 0 -312 77t-108 222q0 126 97 200.5t278 86.5q153 10 264 10v68q0 114 -57.5 162.5t-192.5 48.5q-130 0 -285 -41l-22 82q168 55 348 55t266 -83.5t86 -260.5zM713 109v368q-115 0 -244 -12q-130 -10 -189 -60t-59 -147 q0 -94 64.5 -143t187.5 -49q62 0 131.5 13.5t108.5 29.5z" />
<glyph unicode="&#x431;" horiz-adv-x="1101" d="M1004 471q0 -229 -116.5 -364.5t-312.5 -135.5q-211 0 -335.5 162.5t-124.5 437.5q0 358 140.5 562t387.5 204q185 0 303 49v-104q-157 -53 -303 -53q-136 0 -221.5 -100t-116.5 -295q139 108 299 108q190 0 295 -123.5t105 -347.5zM287 580q0 -246 75 -380t213 -134 q129 0 200 107.5t71 305.5q0 167 -69 259.5t-195 92.5q-175 0 -291 -122q-4 -82 -4 -129z" />
<glyph unicode="&#x432;" horiz-adv-x="964" d="M594 510q130 -7 206.5 -68.5t76.5 -156.5q0 -148 -131.5 -216.5t-413.5 -68.5h-172v913h313q161 0 245.5 -52.5t84.5 -153.5q0 -72 -53 -122t-156 -75zM465 821h-160v-297q169 0 257.5 47t88.5 136q0 114 -186 114zM305 94h64q184 0 270 49.5t86 153.5q0 65 -57.5 103 t-155.5 38q-81 0 -207 -14v-330z" />
<glyph unicode="&#x433;" horiz-adv-x="720" d="M711 918l-43 -109q-77 39 -185 39q-90 0 -182 -49v-799h-141v834q174 108 366 108q102 0 185 -24z" />
<glyph unicode="&#x434;" horiz-adv-x="1075" d="M37 -238v332q82 23 128 94t56 213l37 512h625v-819h141v-332h-145v238h-697v-238h-145zM397 821l-32 -420q-15 -202 -103 -307h473v727h-338z" />
<glyph unicode="&#x435;" horiz-adv-x="1032" d="M891 424h-647q3 -167 81.5 -262.5t213.5 -95.5q162 0 311 65l29 -92q-161 -68 -340 -68q-206 0 -323.5 129.5t-117.5 356.5t113 356t313 129q198 0 311 -121.5t113 -335.5q0 -29 -15 -45t-42 -16zM244 518h561q0 155 -74.5 242.5t-206.5 87.5q-128 0 -202.5 -87.5 t-77.5 -242.5z" />
<glyph unicode="&#x436;" horiz-adv-x="1406" d="M467 504l-401 409h165l351 -370h51v370h141v-370h51l351 370h167l-403 -409l453 -504h-197l-371 449h-51v-449h-141v449h-51l-371 -449h-197z" />
<glyph unicode="&#x437;" horiz-adv-x="833" d="M451 489q139 -13 215.5 -75.5t76.5 -161.5q0 -134 -100 -207.5t-281 -73.5q-159 0 -303 80l29 86q156 -71 274 -71q113 0 174.5 47t61.5 135q0 89 -81 138.5t-228 49.5h-107v96h107q118 0 188 51.5t70 137.5q0 58 -57 92.5t-152 34.5q-112 0 -217 -55l-35 84 q133 65 260 65q158 0 252 -61t94 -162q0 -82 -65.5 -144.5t-175.5 -85.5z" />
<glyph unicode="&#x438;" horiz-adv-x="1071" d="M268 913v-761l488 761h155v-913h-110v760l-477 -760h-164v913h108z" />
<glyph unicode="&#x439;" horiz-adv-x="1071" d="M823 1307q0 -105 -79.5 -166.5t-186.5 -61.5q-115 0 -193.5 58t-78.5 170h123q0 -70 43 -107t104 -37q65 0 106 37.5t41 106.5h121zM268 913v-761l488 761h155v-913h-110v760l-477 -760h-164v913h108z" />
<glyph unicode="&#x43a;" horiz-adv-x="929" d="M469 504l453 -504h-197l-371 449h-51v-449h-143v913h143v-370h51l348 370h168z" />
<glyph unicode="&#x43b;" horiz-adv-x="1015" d="M418 819l-47 -418q-23 -205 -103 -303t-221 -98v94q78 23 119.5 95.5t56.5 211.5l56 512h577v-913h-147v819h-291z" />
<glyph unicode="&#x43c;" horiz-adv-x="1198" d="M758 913h203l143 -913h-148l-125 809l-159 -809h-170l-180 797l-109 -797h-115l133 913h207l172 -755z" />
<glyph unicode="&#x43d;" horiz-adv-x="1064" d="M760 528v385h145v-913h-145v436h-455v-436h-145v913h145v-385h455z" />
<glyph unicode="&#x43e;" horiz-adv-x="1069" d="M971 455q0 -230 -114.5 -357t-321.5 -127t-322 127t-115 357q0 231 115 359t322 128t321.5 -127.5t114.5 -359.5zM825 455q0 187 -76 290t-214 103t-214.5 -103t-76.5 -290q0 -186 76.5 -287.5t214.5 -101.5t214 101.5t76 287.5z" />
<glyph unicode="&#x43f;" horiz-adv-x="1062" d="M758 0v819h-453v-819h-145v913h743v-913h-145z" />
<glyph unicode="&#x440;" horiz-adv-x="1087" d="M987 455q0 -248 -102 -366t-316 -118q-115 0 -270 52v-451h-145v1262q171 108 405 108q218 0 323 -119t105 -368zM844 457q0 200 -77.5 295.5t-238.5 95.5q-67 0 -118.5 -15.5t-110.5 -50.5v-661q146 -55 229 -55q161 0 238.5 95.5t77.5 295.5z" />
<glyph unicode="&#x441;" horiz-adv-x="897" d="M100 455q0 249 102 368t316 119q143 0 311 -55l-20 -80q-141 41 -248 41q-161 0 -238 -95.5t-77 -295.5t77 -295.5t238 -95.5q110 0 248 40l20 -79q-171 -56 -311 -56q-213 0 -315.5 119t-102.5 365z" />
<glyph unicode="&#x442;" horiz-adv-x="819" d="M776 913v-94h-295v-819h-145v819h-293v94h733z" />
<glyph unicode="&#x443;" d="M393 88l-340 825h158l260 -641l268 641h115l-565 -1341h-111z" />
<glyph unicode="&#x444;" horiz-adv-x="1310" d="M729 -332h-145v305q-232 17 -360 143.5t-128 338.5q0 213 128 339.5t360 145.5v289l145 35v-324q231 -19 358 -145.5t127 -339.5q0 -212 -127 -337.5t-358 -144.5v-305zM244 455q0 -165 89 -265.5t251 -119.5v774q-162 -19 -251 -120.5t-89 -268.5zM1067 455 q0 166 -88.5 267.5t-249.5 121.5v-774q161 19 249.5 119t88.5 266z" />
<glyph unicode="&#x445;" horiz-adv-x="956" d="M928 0h-176l-287 389l-318 -389h-127l383 469l-329 444h176l248 -327l270 327h127l-336 -411z" />
<glyph unicode="&#x446;" horiz-adv-x="1091" d="M893 -238v238h-733v913h143v-819h455v819h143v-819h137v-332h-145z" />
<glyph unicode="&#x447;" horiz-adv-x="954" d="M90 913h143v-264q0 -118 55.5 -170.5t180.5 -52.5q87 0 182 31v456h144v-913h-144v362q-107 -30 -219 -30q-181 0 -261.5 81.5t-80.5 266.5v233z" />
<glyph unicode="&#x448;" horiz-adv-x="1435" d="M645 913h146v-819h339v819h146v-913h-1116v913h145v-819h340v819z" />
<glyph unicode="&#x449;" horiz-adv-x="1468" d="M645 913h146v-819h339v819h146v-819h139v-332h-145v238h-1110v913h145v-819h340v819z" />
<glyph unicode="&#x44a;" horiz-adv-x="985" d="M406 913v-299h135q164 0 269 -85.5t105 -219.5q0 -136 -121.5 -222.5t-312.5 -86.5h-221v821h-217v92h363zM406 94h108q111 0 181.5 60t70.5 155q0 92 -66.5 151.5t-169.5 59.5h-124v-426z" />
<glyph unicode="&#x44b;" horiz-adv-x="1241" d="M305 913v-299h135q164 0 269.5 -85.5t105.5 -219.5q0 -136 -121.5 -222.5t-312.5 -86.5h-221v913h145zM1081 913v-913h-143v913h143zM305 94h111q110 0 180 60t70 155q0 92 -66.5 151.5t-169.5 59.5h-125v-426z" />
<glyph unicode="&#x44c;" horiz-adv-x="882" d="M303 913v-299h137q164 0 268.5 -85.5t104.5 -219.5q0 -137 -120 -223t-310 -86h-223v913h143zM303 94h111q110 0 180 60t70 155q0 92 -65.5 151.5t-168.5 59.5h-127v-426z" />
<glyph unicode="&#x44d;" d="M217 418v94h436q-21 336 -313 336q-95 0 -250 -41l-20 80q168 55 311 55q211 0 314.5 -120.5t103.5 -366.5q0 -244 -103.5 -364t-314.5 -120q-140 0 -311 56l20 79q151 -40 250 -40q300 0 315 352h-438z" />
<glyph unicode="&#x44e;" horiz-adv-x="1441" d="M1343 455q0 -234 -113 -359t-325 -125q-206 0 -319 120t-117 345h-166v-436h-143v913h143v-385h168q19 201 130 307.5t304 106.5q212 0 325 -125.5t113 -361.5zM1196 455q0 190 -75 291.5t-216 101.5t-216 -101.5t-75 -291.5q0 -189 75 -289t216 -100t216 100t75 289z " />
<glyph unicode="&#x44f;" horiz-adv-x="1007" d="M63 0l254 424q-215 65 -215 244q0 245 377 245h369v-913h-146v387h-61q-113 0 -199 12l-217 -399h-162zM248 668q0 -185 395 -185h59v338h-139q-174 0 -244.5 -34t-70.5 -119z" />
<glyph unicode="&#x451;" horiz-adv-x="1032" d="M444 1286v-199h-143v199h143zM743 1286v-199h-143v199h143zM891 424h-647q3 -170 80.5 -264t214.5 -94q158 0 311 65l29 -92q-170 -68 -340 -68q-209 0 -325 128t-116 358t112 357.5t314 127.5q201 0 312.5 -120t111.5 -337q0 -61 -57 -61zM244 518h561q0 157 -74 243.5 t-207 86.5q-129 0 -203 -87t-77 -243z" />
<glyph unicode="&#x452;" horiz-adv-x="1079" d="M541 1114h-238v-225q130 53 285 53q187 0 264.5 -78.5t77.5 -269.5v-692q0 -143 -67 -208t-195 -65h-17l-24 92h35q68 0 96 42t28 139v723q0 122 -53 172.5t-182 50.5q-131 0 -248 -49v-799h-143v1114h-99v94h99v78h143v-78h238v-94z" />
<glyph unicode="&#x453;" horiz-adv-x="739" d="M446 1087h-116l174 220h186zM711 918l-43 -109q-77 39 -185 39q-90 0 -182 -49v-799h-141v834q174 108 366 108q102 0 185 -24z" />
<glyph unicode="&#x454;" d="M100 455q0 246 103.5 366.5t314.5 120.5q146 0 311 -55l-20 -80q-152 41 -248 41q-292 0 -313 -334h434v-94h-436q15 -354 315 -354q100 0 248 40l20 -79q-168 -56 -311 -56q-211 0 -314.5 120t-103.5 364z" />
<glyph unicode="&#x455;" d="M406 -29q-133 0 -302 66l23 82q145 -53 281 -53q128 0 200 49t72 135q0 31 -7.5 51t-31.5 40.5t-71.5 37t-123.5 31.5q-147 28 -224.5 65t-105.5 85.5t-28 127.5q0 123 98.5 188.5t284.5 65.5q126 0 291 -65l-27 -82q-141 53 -264 53q-120 0 -184 -41.5t-64 -118.5 q0 -50 49 -85.5t183 -61.5q150 -28 227 -62t107 -84t30 -137q0 -135 -109.5 -211t-303.5 -76z" />
<glyph unicode="&#x456;" horiz-adv-x="464" d="M305 1286v-199h-145v199h145zM305 913v-913h-145v913h145z" />
<glyph unicode="&#x457;" horiz-adv-x="464" d="M154 1286v-199h-144v199h144zM453 1286v-199h-144v199h144zM305 913v-913h-145v913h145z" />
<glyph unicode="&#x458;" horiz-adv-x="479" d="M319 1286v-199h-143v199h143zM319 913v-1095q0 -136 -63.5 -205.5t-198.5 -69.5h-16l-25 95h35q69 0 97 41.5t28 138.5v1095h143z" />
<glyph unicode="&#x459;" horiz-adv-x="1435" d="M418 819l-47 -418q-25 -211 -101.5 -306t-222.5 -95v94q79 23 121 95.5t55 211.5l58 512h575v-299h135q172 0 273.5 -82t101.5 -223q0 -142 -117 -225.5t-317 -83.5h-221v819h-293zM981 520h-125v-426h111q116 0 183 57.5t67 157.5q0 97 -63.5 154t-172.5 57z" />
<glyph unicode="&#x45a;" horiz-adv-x="1480" d="M760 559v354h145v-354h135q172 0 273.5 -74t101.5 -200q0 -131 -122.5 -208t-331.5 -77h-201v465h-455v-465h-145v913h145v-354h455zM1030 465h-125v-371h109q117 0 184.5 51.5t67.5 139.5q0 83 -63.5 131.5t-172.5 48.5z" />
<glyph unicode="&#x45b;" horiz-adv-x="1079" d="M930 0h-144v625q0 122 -53 172.5t-182 50.5q-131 0 -248 -49v-799h-143v1114h-99v94h99v78h143v-78h238v-94h-238v-225q130 53 285 53q187 0 264.5 -78.5t77.5 -269.5v-594z" />
<glyph unicode="&#x45c;" horiz-adv-x="929" d="M535 1087h-117l174 220h186zM469 504l453 -504h-197l-371 449h-51v-449h-143v913h143v-370h51l348 370h168z" />
<glyph unicode="&#x45e;" d="M733 1307q0 -105 -79.5 -166.5t-186.5 -61.5q-115 0 -193.5 58t-78.5 170h122q0 -70 43.5 -107t104.5 -37q64 0 105.5 37.5t41.5 106.5h121zM393 88l-340 825h158l260 -641l268 641h115l-565 -1341h-111z" />
<glyph unicode="&#x45f;" horiz-adv-x="1062" d="M461 -238v238h-301v913h145v-819h455v819h143v-913h-299v-238h-143z" />
<glyph unicode="&#x490;" horiz-adv-x="987" d="M788 1526h152v-334h-606v-1192h-152v1286h606v240z" />
<glyph unicode="&#x491;" horiz-adv-x="792" d="M598 1151h145v-332h-440v-819h-143v913h438v238z" />
<glyph unicode="&#x1e02;" horiz-adv-x="1286" d="M508 1456v199h168v-199h-168zM795 723q189 -13 295 -98.5t106 -223.5q0 -207 -185.5 -304t-586.5 -97h-242v1286h443q217 0 338.5 -76t121.5 -211q0 -97 -76.5 -169.5t-213.5 -106.5zM614 1192h-280v-453q302 0 449 64t147 196q0 98 -78 145.5t-238 47.5zM334 94h145 q294 0 421.5 75.5t127.5 248.5q0 106 -96.5 172.5t-251.5 66.5q-168 0 -346 -22v-541z" />
<glyph unicode="&#x1e03;" horiz-adv-x="1089" d="M571 942q214 0 316 -117.5t102 -363.5q0 -236 -110.5 -363t-317.5 -127q-219 0 -405 88v1227h143v-395q136 51 272 51zM629 1286v-199h-146v199h146zM846 457q0 199 -77.5 294t-240.5 95q-106 0 -229 -45v-692q113 -43 240 -43q149 0 228 101t79 290z" />
<glyph unicode="&#x1e0a;" horiz-adv-x="1339" d="M569 1456v199h168v-199h-168zM182 1286h434q615 0 615 -645q0 -641 -615 -641h-434v1286zM334 94h282q459 0 459 547q0 551 -459 551h-282v-1098z" />
<glyph unicode="&#x1e0b;" horiz-adv-x="1091" d="M936 59q-189 -88 -406 -88q-212 0 -321 124t-109 366q0 238 106.5 359.5t313.5 121.5q134 0 273 -51v395h143v-1227zM588 1286v-199h-146v199h146zM553 66q113 0 240 43v692q-122 45 -232 45q-164 0 -239.5 -93t-75.5 -296q0 -191 78.5 -291t228.5 -100z" />
<glyph unicode="&#x1e0c;" horiz-adv-x="1339" d="M182 1286h434q615 0 615 -645q0 -641 -615 -641h-434v1286zM334 94h282q459 0 459 547q0 551 -459 551h-282v-1098zM754 -297h-172v158h172v-158z" />
<glyph unicode="&#x1e0d;" horiz-adv-x="1091" d="M936 59q-189 -88 -406 -88q-212 0 -321 124t-109 366q0 238 106.5 359.5t313.5 121.5q134 0 273 -51v395h143v-1227zM553 66q113 0 240 43v692q-122 45 -232 45q-164 0 -239.5 -93t-75.5 -296q0 -191 78.5 -291t228.5 -100zM612 -297h-172v158h172v-158z" />
<glyph unicode="&#x1e1e;" horiz-adv-x="1036" d="M512 1456v199h168v-199h-168zM981 1286v-94h-647v-479h569v-95h-569v-618h-152v1286h799z" />
<glyph unicode="&#x1e1f;" horiz-adv-x="612" d="M467 1653v-199h-145v199h145zM496 1221q-95 0 -127.5 -37t-32.5 -144v-127h239v-94h-239v-819h-146v819h-137v94h137v127q0 141 70 208t219 67q65 0 144 -27l-23 -84q-63 17 -104 17z" />
<glyph unicode="&#x1e24;" horiz-adv-x="1314" d="M981 717v569h152v-1286h-152v623h-649v-623h-150v1286h150v-569h649zM743 -297h-172v158h172v-158z" />
<glyph unicode="&#x1e25;" horiz-adv-x="1079" d="M930 0h-144v625q0 122 -53 172.5t-182 50.5q-131 0 -248 -49v-799h-143v1286h143v-397q130 53 285 53q187 0 264.5 -78.5t77.5 -269.5v-594zM625 -297h-172v158h172v-158z" />
<glyph unicode="&#x1e40;" horiz-adv-x="1587" d="M713 1456v199h168v-199h-168zM1126 1286h203l144 -1286h-154l-125 1182l-352 -1182h-168l-330 1171l-102 -1171h-121l131 1286h207l327 -1126z" />
<glyph unicode="&#x1e41;" horiz-adv-x="1673" d="M907 1286v-199h-145v199h145zM1524 0h-144v641q0 117 -50 162t-179 45q-70 0 -123 -13t-121 -47q4 -12 4 -49v-739h-145v641q0 117 -49.5 162t-177.5 45q-112 0 -240 -57v-791h-145v834q210 108 421 108q106 0 164 -16.5t101 -57.5q94 42 170 58t178 16 q189 0 262.5 -72.5t73.5 -259.5v-610z" />
<glyph unicode="&#x1e44;" horiz-adv-x="1380" d="M627 1456v199h168v-199h-168zM1085 1286h113v-1286h-184l-721 1133v-1133h-111v1286h172l731 -1134v1134z" />
<glyph unicode="&#x1e45;" horiz-adv-x="1073" d="M602 1286v-199h-145v199h145zM924 0h-142v625q0 126 -51.5 174.5t-185.5 48.5q-114 0 -248 -57v-791h-143v834q208 108 430 108q185 0 262.5 -79.5t77.5 -268.5v-594z" />
<glyph unicode="&#x1e56;" horiz-adv-x="1216" d="M543 1456v199h168v-199h-168zM1149 950q0 -141 -76.5 -224.5t-243 -122.5t-448.5 -40h-47v-563h-152v1286h484q246 0 364.5 -83t118.5 -253zM987 961q0 118 -84 174.5t-258 56.5h-311v-537q356 0 504.5 70t148.5 236z" />
<glyph unicode="&#x1e57;" horiz-adv-x="1087" d="M618 1286v-199h-145v199h145zM987 455q0 -248 -102 -366t-316 -118q-115 0 -270 52v-451h-145v1262q171 108 405 108q218 0 323 -119t105 -368zM844 457q0 200 -77.5 295.5t-238.5 95.5q-67 0 -118.5 -15.5t-110.5 -50.5v-661q146 -55 229 -55q161 0 238.5 95.5 t77.5 295.5z" />
<glyph unicode="&#x1e5a;" horiz-adv-x="1247" d="M1137 969q0 -129 -75.5 -208t-238.5 -122l375 -639h-186l-334 610q-170 -20 -344 -20v-590h-152v1286h471q238 0 361 -80.5t123 -236.5zM977 981q0 104 -86.5 157.5t-255.5 53.5h-301v-508h24q321 0 470 72t149 225zM731 -297h-172v158h172v-158z" />
<glyph unicode="&#x1e5b;" horiz-adv-x="720" d="M705 918l-43 -109q-77 39 -185 39q-90 0 -182 -49v-799h-141v834q174 108 366 108q102 0 185 -24zM311 -293h-172v158h172v-158z" />
<glyph unicode="&#x1e60;" horiz-adv-x="1116" d="M455 1456v199h168v-199h-168zM582 748q247 -47 354.5 -134.5t107.5 -240.5q0 -186 -139.5 -294t-378.5 -108q-110 0 -207 26.5t-206 80.5l28 86q206 -98 385 -98q171 0 271 74.5t100 203.5q0 97 -84.5 160.5t-298.5 105.5q-223 44 -322.5 125.5t-99.5 214.5 q0 163 130 264t339 101q195 0 369 -98l-33 -80q-165 84 -328 84q-150 0 -243 -68.5t-93 -177.5q0 -91 78.5 -141t270.5 -86z" />
<glyph unicode="&#x1e61;" d="M516 1286v-199h-145v199h145zM406 -29q-133 0 -302 66l23 82q145 -53 281 -53q128 0 200 49t72 135q0 31 -7.5 51t-31.5 40.5t-71.5 37t-123.5 31.5q-147 28 -224.5 65t-105.5 85.5t-28 127.5q0 123 98.5 188.5t284.5 65.5q126 0 291 -65l-27 -82q-141 53 -264 53 q-120 0 -184 -41.5t-64 -118.5q0 -50 49 -85.5t183 -61.5q150 -28 227 -62t107 -84t30 -137q0 -135 -109.5 -211t-303.5 -76z" />
<glyph unicode="&#x1e62;" horiz-adv-x="1116" d="M582 748q247 -47 354.5 -134.5t107.5 -240.5q0 -186 -139.5 -294t-378.5 -108q-110 0 -207 26.5t-206 80.5l28 86q206 -98 385 -98q171 0 271 74.5t100 203.5q0 97 -84.5 160.5t-298.5 105.5q-223 44 -322.5 125.5t-99.5 214.5q0 163 130 264t339 101q195 0 369 -98 l-33 -80q-165 84 -328 84q-150 0 -243 -68.5t-93 -177.5q0 -91 78.5 -141t270.5 -86zM657 -297h-172v158h172v-158z" />
<glyph unicode="&#x1e63;" d="M406 -29q-133 0 -302 66l23 82q145 -53 281 -53q128 0 200 49t72 135q0 31 -7.5 51t-31.5 40.5t-71.5 37t-123.5 31.5q-147 28 -224.5 65t-105.5 85.5t-28 127.5q0 123 98.5 188.5t284.5 65.5q126 0 291 -65l-27 -82q-141 53 -264 53q-120 0 -184 -41.5t-64 -118.5 q0 -50 49 -85.5t183 -61.5q150 -28 227 -62t107 -84t30 -137q0 -135 -109.5 -211t-303.5 -76zM539 -297h-172v158h172v-158z" />
<glyph unicode="&#x1e6a;" horiz-adv-x="1091" d="M461 1456v199h168v-199h-168zM1047 1286v-94h-426v-1192h-152v1192h-424v94h1002z" />
<glyph unicode="&#x1e6b;" horiz-adv-x="618" d="M334 1530v-199h-146v199h146zM559 72l-16 -97q-36 -4 -68 -4q-149 0 -218 65.5t-69 207.5v575h-133v94h133v275l144 35v-310h239v-94h-239v-575q0 -106 32.5 -142t127.5 -36q40 0 67 6z" />
<glyph unicode="&#x1e6c;" horiz-adv-x="1091" d="M1047 1286v-94h-426v-1192h-152v1192h-424v94h1002zM631 -297h-172v158h172v-158z" />
<glyph unicode="&#x1e6d;" horiz-adv-x="618" d="M559 72l-16 -97q-36 -4 -68 -4q-149 0 -218 65.5t-69 207.5v575h-133v94h133v275l144 35v-310h239v-94h-239v-575q0 -106 32.5 -142t127.5 -36q40 0 67 6zM420 -297h-172v158h172v-158z" />
<glyph unicode="&#x1e80;" horiz-adv-x="1687" d="M836 1456l-244 223h188l174 -223h-118zM1503 1286h113l-318 -1286h-165l-287 1098l-293 -1098h-168l-311 1286h159l267 -1106l282 1106h172l287 -1106z" />
<glyph unicode="&#x1e81;" horiz-adv-x="1476" d="M729 1087l-244 220h187l174 -220h-117zM1323 913h98l-295 -913h-131l-258 782l-252 -782h-131l-303 913h160l235 -743l234 743h172l235 -743z" />
<glyph unicode="&#x1e82;" horiz-adv-x="1687" d="M913 1456h-118l174 223h188zM1503 1286h113l-318 -1286h-165l-287 1098l-293 -1098h-168l-311 1286h159l267 -1106l282 1106h172l287 -1106z" />
<glyph unicode="&#x1e83;" horiz-adv-x="1476" d="M815 1087h-117l174 220h187zM1323 913h98l-295 -913h-131l-258 782l-252 -782h-131l-303 913h160l235 -743l234 743h172l235 -743z" />
<glyph unicode="&#x1e84;" horiz-adv-x="1687" d="M770 1655v-199h-145v199h145zM1104 1655v-199h-146v199h146zM1503 1286h113l-318 -1286h-165l-287 1098l-293 -1098h-168l-311 1286h159l267 -1106l282 1106h172l287 -1106z" />
<glyph unicode="&#x1e85;" horiz-adv-x="1476" d="M688 1286v-199h-143v199h143zM987 1286v-199h-143v199h143zM1323 913h98l-295 -913h-131l-258 782l-252 -782h-131l-303 913h160l235 -743l234 743h172l235 -743z" />
<glyph unicode="&#x1e92;" horiz-adv-x="1112" d="M1049 1286v-102l-836 -1090h817v-94h-979v104l844 1088h-780v94h934zM637 -297h-172v158h172v-158z" />
<glyph unicode="&#x1e93;" horiz-adv-x="948" d="M858 795l-618 -701h632v-94h-811v98l641 721h-589v94h745v-118zM563 -297h-172v158h172v-158z" />
<glyph unicode="&#x1e9e;" horiz-adv-x="1277" d="M788 723q185 -14 293.5 -108.5t108.5 -243.5q0 -400 -555 -400q-81 0 -139 13v90q49 -8 118 -8q219 0 313.5 73t94.5 242q0 127 -94 201.5t-254 74.5q-68 0 -178 -8v96q102 9 175.5 27t116.5 40.5t68 55t33 64t8 74.5q0 92 -81.5 149t-213.5 57q-126 0 -204.5 -50 t-78.5 -132v-1030h-145v1030q0 124 115 200.5t301 76.5q207 0 335 -83t128 -218q0 -105 -67 -178t-198 -105z" />
<glyph unicode="&#x1ea0;" horiz-adv-x="1212" d="M1006 0l-129 362h-596l-131 -362h-103l465 1286h190l463 -1286h-159zM313 457h529l-262 739zM670 -297h-172v158h172v-158z" />
<glyph unicode="&#x1ea1;" horiz-adv-x="997" d="M856 598v-539q-184 -88 -362 -88q-204 0 -312 77t-108 222q0 126 97 200.5t278 86.5q153 10 264 10v68q0 114 -57.5 162.5t-192.5 48.5q-130 0 -285 -41l-22 82q168 55 348 55t266 -83.5t86 -260.5zM713 109v368q-115 0 -244 -12q-130 -10 -189 -60t-59 -147 q0 -94 64.5 -143t187.5 -49q62 0 131.5 13.5t108.5 29.5zM578 -297h-172v158h172v-158z" />
<glyph unicode="&#x1eb8;" horiz-adv-x="1081" d="M981 1286v-94h-647v-475h569v-96h-569v-527h647v-94h-799v1286h799zM672 -297h-172v158h172v-158z" />
<glyph unicode="&#x1eb9;" horiz-adv-x="1032" d="M891 424h-647q3 -170 80.5 -264t214.5 -94q158 0 311 65l29 -92q-170 -68 -340 -68q-209 0 -325 128t-116 358t112 357.5t314 127.5q201 0 312.5 -120t111.5 -337q0 -61 -57 -61zM244 518h561q0 157 -74 243.5t-207 86.5q-129 0 -203 -87t-77 -243zM608 -297h-172v158 h172v-158z" />
<glyph unicode="&#x1ebc;" horiz-adv-x="1081" d="M838 1632l55 -53q-44 -67 -86 -95t-98 -28q-59 0 -131 35t-125 35q-37 0 -63 -14.5t-54 -49.5l-55 51q43 68 84.5 95.5t99.5 27.5q57 0 149 -43q58 -26 107 -26q66 0 117 65zM981 1286v-94h-647v-475h569v-96h-569v-527h647v-94h-799v1286h799z" />
<glyph unicode="&#x1ebd;" horiz-adv-x="1032" d="M774 1262l55 -54q-44 -67 -85.5 -94t-100.5 -27q-55 0 -127 33q-80 37 -129 37q-37 0 -62.5 -14t-54.5 -51l-55 53q44 68 85 94.5t99 26.5q64 0 144 -39q60 -29 112 -29q37 0 63.5 14.5t55.5 49.5zM891 424h-647q3 -170 80.5 -264t214.5 -94q158 0 311 65l29 -92 q-170 -68 -340 -68q-209 0 -325 128t-116 358t112 357.5t314 127.5q201 0 312.5 -120t111.5 -337q0 -61 -57 -61zM244 518h561q0 157 -74 243.5t-207 86.5q-129 0 -203 -87t-77 -243z" />
<glyph unicode="&#x1eca;" horiz-adv-x="516" d="M334 1286v-1286h-152v1286h152zM344 -297h-172v158h172v-158z" />
<glyph unicode="&#x1ecb;" horiz-adv-x="464" d="M305 1286v-199h-145v199h145zM305 913v-913h-145v913h145zM317 -297h-172v158h172v-158z" />
<glyph unicode="&#x1ecc;" horiz-adv-x="1452" d="M725 1315q304 0 462.5 -172t158.5 -502q0 -327 -158.5 -498.5t-462.5 -171.5q-302 0 -460.5 171.5t-158.5 498.5q0 330 158.5 502t460.5 172zM725 66q226 0 343.5 147t117.5 428q0 284 -117.5 432t-343.5 148q-224 0 -341.5 -148t-117.5 -432q0 -281 117.5 -428 t341.5 -147zM811 -297h-172v158h172v-158z" />
<glyph unicode="&#x1ecd;" horiz-adv-x="1069" d="M971 455q0 -229 -114.5 -356.5t-321.5 -127.5t-322 127.5t-115 356.5q0 230 115 358.5t322 128.5t321.5 -128.5t114.5 -358.5zM825 455q0 186 -76 289.5t-214 103.5t-214.5 -103.5t-76.5 -289.5q0 -184 76.5 -286.5t214.5 -102.5t214 102t76 287zM621 -297h-172v158h172 v-158z" />
<glyph unicode="&#x1ee4;" horiz-adv-x="1355" d="M1034 1286h152v-874q0 -211 -133 -327t-375 -116t-375 116t-133 327v874h149v-893q0 -175 84.5 -252.5t274.5 -77.5q189 0 272.5 77.5t83.5 252.5v893zM764 -297h-172v158h172v-158z" />
<glyph unicode="&#x1ee5;" horiz-adv-x="1075" d="M150 913h145v-628q0 -120 53.5 -169.5t181.5 -49.5q125 0 246 47v800h146v-819q-105 -66 -203.5 -94.5t-226.5 -28.5q-186 0 -264 78.5t-78 265.5v598zM621 -297h-172v158h172v-158z" />
<glyph unicode="&#x1ef2;" horiz-adv-x="1085" d="M512 1456l-244 223h189l174 -223h-119zM1006 1286l-388 -692v-594h-147v586l-401 700h172l319 -602l318 602h127z" />
<glyph unicode="&#x1ef3;" d="M432 1092l-244 219h187l174 -219h-117zM393 88l-340 825h158l260 -641l268 641h115l-565 -1341h-111z" />
<glyph unicode="&#x1ef8;" horiz-adv-x="1085" d="M788 1632l56 -53q-44 -67 -86.5 -95t-98.5 -28q-59 0 -131 35t-125 35q-37 0 -62.5 -14.5t-53.5 -49.5l-56 51q43 67 84.5 95t100.5 28q57 0 149 -43q58 -26 107 -26q35 0 61.5 15t54.5 50zM1006 1286l-388 -692v-594h-147v586l-401 700h172l319 -602l318 602h127z" />
<glyph unicode="&#x1ef9;" d="M713 1262l55 -54q-44 -67 -85.5 -94t-100.5 -27q-55 0 -127 33q-80 37 -129 37q-37 0 -62.5 -14t-54.5 -51l-55 53q44 68 85 94.5t99 26.5q63 0 143 -39q60 -29 113 -29q37 0 63.5 14.5t55.5 49.5zM393 88l-340 825h158l260 -641l268 641h115l-565 -1341h-111z" />
<glyph unicode="&#x2000;" horiz-adv-x="1006" />
<glyph unicode="&#x2001;" horiz-adv-x="2013" />
<glyph unicode="&#x2002;" horiz-adv-x="1006" />
<glyph unicode="&#x2003;" horiz-adv-x="2013" />
<glyph unicode="&#x2004;" horiz-adv-x="671" />
<glyph unicode="&#x2005;" horiz-adv-x="503" />
<glyph unicode="&#x2006;" horiz-adv-x="335" />
<glyph unicode="&#x2007;" horiz-adv-x="335" />
<glyph unicode="&#x2008;" horiz-adv-x="251" />
<glyph unicode="&#x2009;" horiz-adv-x="402" />
<glyph unicode="&#x200a;" horiz-adv-x="111" />
<glyph unicode="&#x2010;" horiz-adv-x="702" d="M135 522h432v-76h-432v76z" />
<glyph unicode="&#x2011;" horiz-adv-x="702" d="M135 522h432v-76h-432v76z" />
<glyph unicode="&#x2012;" horiz-adv-x="702" d="M135 522h432v-76h-432v76z" />
<glyph unicode="&#x2013;" horiz-adv-x="702" d="M135 496h432v-76h-432v76z" />
<glyph unicode="&#x2014;" horiz-adv-x="1073" d="M135 496h803v-76h-803v76z" />
<glyph unicode="&#x2018;" horiz-adv-x="448" d="M221 1286h123l-47 -364h-199z" />
<glyph unicode="&#x2019;" horiz-adv-x="430" d="M236 922h-121l47 364h198z" />
<glyph unicode="&#x201a;" horiz-adv-x="458" d="M211 -209h-113l47 367h187z" />
<glyph unicode="&#x201c;" horiz-adv-x="702" d="M473 1286h125l-47 -364h-199zM219 1286h123l-47 -364h-197z" />
<glyph unicode="&#x201d;" horiz-adv-x="684" d="M236 922h-121l47 364h196zM489 922h-120l47 364h198z" />
<glyph unicode="&#x201e;" horiz-adv-x="724" d="M219 -209h-121l47 367h197zM475 -209h-123l47 367h199z" />
<glyph unicode="&#x2020;" horiz-adv-x="993" d="M49 766v94h373v426h149v-426h373v-94h-373v-1098h-149v1098h-373z" />
<glyph unicode="&#x2021;" horiz-adv-x="1116" d="M111 207h372v559h-372v94h372v426h150v-426h373v-94h-373v-559h373v-94h-373v-445h-150v445h-372v94z" />
<glyph unicode="&#x2022;" horiz-adv-x="555" d="M373 492h-191v190h191v-190z" />
<glyph unicode="&#x2026;" horiz-adv-x="1150" d="M332 0h-201v158h201v-158zM676 0h-201v158h201v-158zM1020 0h-201v158h201v-158z" />
<glyph unicode="&#x202f;" horiz-adv-x="402" />
<glyph unicode="&#x2030;" horiz-adv-x="2449" d="M377 1315q148 0 228.5 -88t80.5 -248q0 -159 -81 -246.5t-228 -87.5t-228 87.5t-81 246.5q0 160 80.5 248t228.5 88zM1315 1286h125l-1059 -1286h-139zM377 1251q-94 0 -146.5 -71.5t-52.5 -200.5q0 -127 52.5 -198.5t146.5 -71.5q95 0 148 71t53 199q0 129 -53 200.5 t-148 71.5zM1309 643q148 0 229.5 -88t81.5 -248t-81.5 -248t-229.5 -88t-229 88t-81 248t81 248t229 88zM2083 643q148 0 228.5 -88t80.5 -248t-80.5 -248t-228.5 -88t-228.5 88t-80.5 248t80.5 248t228.5 88zM1309 580q-94 0 -146.5 -72t-52.5 -201t52.5 -200.5 t146.5 -71.5t146 71.5t52 200.5t-52 201t-146 72zM2083 580q-95 0 -148 -72t-53 -201t53 -200.5t148 -71.5q94 0 146 71.5t52 200.5t-52 201t-146 72z" />
<glyph unicode="&#x2039;" horiz-adv-x="571" d="M236 600l239 -313l-96 -84l-305 397l305 399l96 -86z" />
<glyph unicode="&#x203a;" horiz-adv-x="573" d="M338 600l-242 313l99 86l305 -399l-305 -397l-99 84z" />
<glyph unicode="&#x2044;" horiz-adv-x="286" d="M467 1286h121l-760 -1286h-127z" />
<glyph unicode="&#x205f;" horiz-adv-x="503" />
<glyph unicode="&#x20ac;" horiz-adv-x="1140" d="M801 66q130 0 239 36l23 -88q-146 -43 -262 -43q-546 0 -608 539h-136l25 92h104v82h-129l25 94h111q62 537 608 537q144 0 260 -43l-25 -92q-137 41 -235 41q-198 0 -312.5 -111.5t-142.5 -331.5h586l-25 -94h-567v-82h547l-25 -92h-516q59 -444 455 -444z" />
<glyph unicode="&#x2116;" horiz-adv-x="2027" d="M1630 672q-146 0 -222.5 82.5t-76.5 240.5q0 156 76.5 238t222.5 82t223.5 -82.5t77.5 -237.5q0 -158 -77 -240.5t-224 -82.5zM1085 1286h113v-1286h-184l-721 1133v-1133h-111v1286h172l731 -1134v1134zM1812 995q0 119 -46.5 180.5t-135.5 61.5t-135.5 -61.5 t-46.5 -180.5t46.5 -181t135.5 -62t135.5 62t46.5 181zM1354 463v102h555v-102h-555z" />
<glyph unicode="&#x2122;" horiz-adv-x="1310" d="M991 1286h131l66 -579h-111l-51 479l-143 -479h-97l-131 471l-43 -471h-73l57 579h135l127 -436zM508 1286v-63h-170v-516h-111v516h-170v63h451z" />
<glyph unicode="&#x2190;" horiz-adv-x="1427" d="M51 645l459 459l94 -92l-301 -301h1047v-136h-1049l299 -299l-94 -92z" />
<glyph unicode="&#x2191;" horiz-adv-x="1011" d="M438 0v1049l-299 -299l-92 94l461 454l459 -458l-93 -95l-301 302v-1047h-135z" />
<glyph unicode="&#x2192;" horiz-adv-x="1427" d="M78 575v136h1046l-301 301l95 92l458 -459l-454 -461l-95 92l299 299h-1048z" />
<glyph unicode="&#x2193;" horiz-adv-x="1009" d="M506 -29l-461 455l92 94l299 -299v1065h135v-1063l301 301l93 -94z" />
<glyph unicode="&#x2194;" horiz-adv-x="1474" d="M51 645l459 459l94 -92l-301 -301h868l-301 301l95 92l458 -459l-454 -461l-95 92l300 299h-873l299 -299l-94 -92z" />
<glyph unicode="&#x2195;" horiz-adv-x="1058" d="M530 -29l-460 455l92 94l299 -299v828l-299 -299l-92 94l460 454l459 -458l-92 -95l-301 302v-824l301 301l92 -94z" />
<glyph unicode="&#x2196;" horiz-adv-x="1472" d="M121 1286h647v-131h-422l1086 -1083l-97 -97l-1077 1080v-422h-137v653z" />
<glyph unicode="&#x2197;" horiz-adv-x="1474" d="M41 74l1085 1083h-421v129h647v-651h-138v422l-1077 -1080z" />
<glyph unicode="&#x2198;" horiz-adv-x="1472" d="M41 1210l96 97l1077 -1080v422h138v-649h-647v127h421z" />
<glyph unicode="&#x2199;" horiz-adv-x="1472" d="M121 0v649h137v-422l1077 1080l97 -97l-1086 -1083h422v-127h-647z" />
<glyph unicode="&#x2202;" horiz-adv-x="1187" d="M516 803q271 0 387 -180q0 312 -97.5 455t-309.5 143q-56 0 -154 -23l-25 94q97 23 179 23q293 0 436 -182.5t143 -557.5q0 -306 -126.5 -455t-385.5 -149q-239 0 -368 116t-129 331q0 185 117 285t333 100zM563 66q160 0 248 92t88 233q0 137 -93.5 219t-266.5 82 q-155 0 -235.5 -76.5t-80.5 -224.5q0 -160 86.5 -242.5t253.5 -82.5z" />
<glyph unicode="&#x2212;" horiz-adv-x="841" d="M700 420h-559v94h559v-94z" />
<glyph unicode="&#x25fc;" horiz-adv-x="911" d="M0 911h911v-911h-911v911z" />
<glyph unicode="&#x2713;" horiz-adv-x="1062" d="M422 135l-373 373l98 100l281 -280l504 503l92 -94z" />
<glyph unicode="&#xe132;" horiz-adv-x="944" d="M766 1087h-117l174 220h187zM319 1087h-116l174 220h186zM305 913v-913h-145v913h145zM784 913v-1095q0 -136 -63.5 -205.5t-198.5 -69.5h-16l-25 95h35q68 0 96.5 42t28.5 138v1095h143z" />
<glyph unicode="&#xe133;" horiz-adv-x="1058" d="M850 1456h-119l174 223h189zM326 1456h-119l174 223h188zM334 1286v-1286h-152v1286h152zM723 1286h151v-1362q0 -148 -69.5 -212t-229.5 -64q-71 0 -135 24l23 84q61 -14 102 -14q91 0 124.5 39t33.5 143v1362z" />
<glyph unicode="&#xf8ff;" horiz-adv-x="2242" d="M446 874q72 -5 120 -39t48 -102q0 -47 -25 -85.5t-67 -55.5q-12 -6 -18 -8l135 -238h-186l-113 211q-23 -2 -72 -2v-209h-162v531h265q35 0 75 -3zM268 629q185 0 185 102q0 25 -15 44.5t-39 23.5q-14 2 -39 2h-92v-172zM1251 535q0 103 62 152.5t166 49.5q77 0 151 -22 l-24 -72q-58 14 -99 14q-104 0 -104 -122q0 -119 108 -119q45 0 95 12l24 -72q-74 -22 -151 -22q-103 0 -165.5 50.5t-62.5 150.5zM928 737q116 0 178.5 -46.5t62.5 -155.5q0 -201 -241 -201q-244 0 -244 201q0 111 64.5 156.5t179.5 45.5zM2138 580v-218q-103 -28 -207 -28 q-231 0 -231 125q0 42 31.5 71t71.5 41t89 15q31 2 95 2v33q0 26 -19.5 34.5t-62.5 8.5q-65 0 -133 -19l-27 70q87 22 201 22q100 0 146 -38.5t46 -118.5zM928 401q54 0 71 31t17 103q0 78 -17 107.5t-71 29.5q-57 0 -73.5 -29t-16.5 -108q0 -73 17 -103.5t73 -30.5z M1987 401v129q-45 0 -68 -2q-31 -4 -54.5 -21t-23.5 -48q0 -60 92 -60q38 0 54 2zM541 94q-209 0 -435 -53v168q206 49 429 49q212 0 417 -47q207 -49 408 -49q86 0 172 22q4 0 4 -4v-6q-171 -116 -274 -174q-134 5 -304 45q-210 49 -417 49zM1665 215q11 14 29 14h444v-184 h-577z" />
<glyph horiz-adv-x="1255" d="M1143 455q0 -238 -130.5 -361t-385.5 -123q-253 0 -383.5 123t-130.5 361q0 241 130 364t384 123q255 0 385.5 -123t130.5 -364zM627 66q177 0 266.5 98.5t89.5 290.5q0 194 -89.5 293.5t-266.5 99.5q-175 0 -265 -100t-90 -293q0 -192 90 -290.5t265 -98.5z" />
<glyph horiz-adv-x="679" d="M502 913v-913h-152v788h-291v70l347 55h96z" />
<glyph horiz-adv-x="1128" d="M1012 635q0 -41 -19 -77.5t-53.5 -66.5t-63 -49.5t-67.5 -40.5l-559 -307h762v-94h-932v143l604 330q46 25 71 40t55 38t43 46t13 50q0 94 -88.5 147.5t-245.5 53.5q-161 0 -325 -84l-33 80q177 98 369 98q220 0 344.5 -81t124.5 -226z" />
<glyph horiz-adv-x="1089" d="M604 336q186 -20 293 -110.5t107 -227.5q0 -180 -138.5 -282.5t-380.5 -102.5q-206 0 -413 111l28 83q192 -100 385 -100q172 0 271.5 77t99.5 210q0 129 -126.5 203.5t-346.5 74.5h-145v95h145q180 0 292.5 73t112.5 197q0 98 -89 154.5t-246 56.5q-161 0 -312 -74 l-32 80q81 41 175.5 64.5t176.5 23.5q218 0 343.5 -82t125.5 -225q0 -106 -87 -186.5t-239 -112.5z" />
<glyph horiz-adv-x="1095" d="M860 94h166v-94h-166v-375h-151v375h-641v117l614 796h178v-819zM709 94v705l-539 -705h539z" />
<glyph horiz-adv-x="1130" d="M567 414q220 0 350 -103t130 -276q0 -202 -140.5 -321.5t-378.5 -119.5q-75 0 -152.5 17t-128.5 36.5t-132 55.5l28 86q208 -100 385 -100q157 0 259 86.5t102 230.5q0 152 -99.5 231.5t-289.5 79.5q-163 0 -375 -45l25 641h813v-92h-670l-12 -432q179 25 286 25z" />
<glyph horiz-adv-x="1220" d="M680 807q204 0 327 -106t123 -283q0 -203 -135.5 -325t-361.5 -122q-258 0 -385 149t-127 451q0 375 143.5 559.5t435.5 184.5q137 0 334 -74l-22 -88q-166 68 -312 68q-211 0 -309 -145.5t-98 -457.5q126 189 387 189zM633 66q155 0 247.5 88.5t92.5 236.5 q0 138 -86.5 221.5t-229.5 83.5q-164 0 -262 -83.5t-98 -221.5q0 -148 92 -236.5t244 -88.5z" />
<glyph horiz-adv-x="976" d="M922 913v-131l-631 -1157h-166l661 1196h-729v92h865z" />
<glyph horiz-adv-x="1249" d="M793 721q52 -10 97 -26t92.5 -44.5t80.5 -66t54.5 -94t21.5 -125.5q0 -186 -135 -290t-379 -104t-379 104t-135 290q0 70 21.5 127.5t55 95.5t80.5 66.5t92.5 43.5t96.5 23q-115 19 -194 86t-79 180q0 155 116 241.5t325 86.5t324.5 -86.5t115.5 -241.5 q0 -110 -74.5 -177t-197.5 -89zM915 989q0 109 -76 169.5t-214 60.5t-214.5 -60.5t-76.5 -169.5q0 -104 76.5 -162.5t214.5 -58.5t214 58.5t76 162.5zM268 365q0 -141 94 -220t263 -79q170 0 264 79t94 220q0 135 -94 209.5t-264 74.5q-169 0 -263 -74.5t-94 -209.5z" />
<glyph horiz-adv-x="1202" d="M532 119q-209 0 -329.5 101t-120.5 276q0 207 133 326.5t363 119.5q259 0 385.5 -147.5t126.5 -448.5q0 -372 -137.5 -552.5t-420.5 -180.5q-184 0 -339 74l22 86q164 -66 311 -66q214 0 307 150t93 442q-76 -101 -161.5 -140.5t-232.5 -39.5zM578 848 q-157 0 -247.5 -87.5t-90.5 -238.5q0 -136 84.5 -214.5t230.5 -78.5q167 0 263.5 79.5t96.5 217.5q0 149 -90 235.5t-247 86.5z" />
<glyph horiz-adv-x="864" d="M774 145q0 -193 -86.5 -292t-255.5 -99t-255.5 99t-86.5 292t86.5 291.5t255.5 98.5t255.5 -98.5t86.5 -291.5zM434 -170q215 0 215 315q0 157 -54.5 237.5t-160.5 80.5q-107 0 -162 -80.5t-55 -237.5q0 -315 217 -315z" />
<glyph horiz-adv-x="468" d="M336 524v-751h-117v653h-170v51l213 47h74z" />
<glyph horiz-adv-x="714" d="M627 342q0 -77 -52 -129l-380 -365h430v-75h-559v102l407 389q45 45 45 94q0 46 -51.5 75.5t-130.5 29.5q-59 0 -114.5 -19t-86.5 -43l-24 68q42 26 105.5 46t127.5 20q123 0 203 -54t80 -139z" />
<glyph horiz-adv-x="724" d="M414 176q105 -17 165 -69t60 -127q0 -104 -84.5 -165t-230.5 -61q-121 0 -254 72l20 70q110 -68 227 -68q95 0 150 42.5t55 115.5q0 67 -71.5 106t-196.5 39h-78v74h78q108 0 170.5 38.5t62.5 104.5q0 54 -49.5 84.5t-136.5 30.5q-103 0 -184 -51l-23 65q91 58 219 58 q132 0 207.5 -49.5t75.5 -135.5q0 -60 -48.5 -106t-133.5 -68z" />
<glyph horiz-adv-x="745" d="M578 10h96v-76h-96v-161h-115v161h-408v93l387 497h136v-514zM463 10v418l-334 -418h334z" />
<glyph horiz-adv-x="737" d="M371 246q139 0 215 -59.5t76 -168.5q0 -127 -82 -195.5t-234 -68.5q-149 0 -254 72l21 70q108 -68 227 -68q199 0 199 174q0 170 -228 170q-79 0 -207 -22l15 374h491v-73h-379l-8 -215q58 10 148 10z" />
<glyph horiz-adv-x="776" d="M414 246q136 0 212 -60.5t76 -167.5q0 -126 -77.5 -195t-218.5 -69q-159 0 -236.5 88t-77.5 269q0 215 85.5 319.5t260.5 104.5q55 0 118.5 -14.5t86.5 -31.5l-16 -65q-26 15 -83.5 27t-103.5 12q-112 0 -166.5 -75t-56.5 -230q76 88 197 88zM403 -172q86 0 134.5 48 t48.5 134q0 72 -45.5 113t-126.5 41q-92 0 -143.5 -41t-51.5 -113q0 -86 48 -134t136 -48z" />
<glyph horiz-adv-x="645" d="M590 524v-100l-363 -651h-133l383 678h-418v73h531z" />
<glyph horiz-adv-x="804" d="M522 193q199 -63 199 -209q0 -109 -83.5 -169.5t-234.5 -60.5t-234 60.5t-83 169.5q0 155 197 209q-77 25 -113.5 62t-36.5 91q0 89 71.5 139t198.5 50t198 -50t71 -139q0 -56 -36.5 -93t-113.5 -60zM561 346q0 56 -41.5 86.5t-116.5 30.5t-117 -31t-42 -86q0 -57 42 -89 t117 -32t116.5 32t41.5 89zM209 -12q0 -77 51 -119.5t143 -42.5t143.5 42.5t51.5 119.5q0 72 -51.5 112.5t-143.5 40.5t-143 -40.5t-51 -112.5z" />
<glyph horiz-adv-x="776" d="M340 45q-127 0 -196.5 60.5t-69.5 170.5q0 121 77.5 190t217.5 69q315 0 315 -355q0 -215 -83.5 -320.5t-252.5 -105.5q-65 0 -130 17.5t-79 29.5l15 66q22 -11 75 -25t111 -14q114 0 167.5 74t53.5 231q-45 -48 -89 -68t-132 -20zM373 463q-85 0 -135 -49.5t-50 -132.5 q0 -69 47 -111.5t125 -42.5q89 0 143 42.5t54 111.5q0 83 -49.5 132.5t-134.5 49.5z" />
<glyph horiz-adv-x="864" d="M774 1139q0 -193 -86.5 -292t-255.5 -99t-255.5 99t-86.5 292t86.5 291t255.5 98t255.5 -98t86.5 -291zM434 823q106 0 160.5 80t54.5 236q0 157 -54.5 237t-160.5 80q-217 0 -217 -317q0 -316 217 -316z" />
<glyph horiz-adv-x="468" d="M336 1518v-752h-117v653h-170v51l213 48h74z" />
<glyph horiz-adv-x="714" d="M627 1335q0 -77 -52 -129l-380 -364h430v-76h-559v102l407 389q45 45 45 95q0 46 -51 75t-131 29q-59 0 -114.5 -18.5t-86.5 -42.5l-24 67q42 26 105.5 46t127.5 20q123 0 203 -54t80 -139z" />
<glyph horiz-adv-x="724" d="M414 1169q105 -17 165 -69t60 -127q0 -104 -84.5 -164.5t-230.5 -60.5q-123 0 -254 71l20 70q110 -68 227 -68q95 0 150 42.5t55 115.5q0 67 -71.5 106t-196.5 39h-78v74h78q108 0 170.5 38.5t62.5 104.5q0 54 -49.5 84.5t-136.5 30.5q-103 0 -184 -51l-23 65 q91 58 219 58q132 0 207.5 -49.5t75.5 -135.5q0 -60 -48.5 -106t-133.5 -68z" />
<glyph horiz-adv-x="745" d="M580 1004h96v-76h-96v-162h-115v162h-408v92l387 498h136v-514zM465 1004v417l-334 -417h334z" />
<glyph horiz-adv-x="737" d="M371 1239q139 0 215 -59t76 -168q0 -127 -82 -195.5t-234 -68.5q-151 0 -254 71l21 70q108 -68 227 -68q199 0 199 174q0 170 -228 170q-79 0 -207 -22l15 375h491v-74h-379l-8 -215q58 10 148 10z" />
<glyph horiz-adv-x="776" d="M414 1239q136 0 212 -60t76 -167q0 -126 -77.5 -195t-218.5 -69q-159 0 -236.5 87.5t-77.5 268.5q0 215 85.5 319.5t260.5 104.5q55 0 118.5 -14t86.5 -31l-16 -66q-26 15 -83.5 27t-103.5 12q-112 0 -166.5 -75t-56.5 -230q76 88 197 88zM403 821q86 0 134.5 48.5 t48.5 134.5q0 72 -45 112.5t-127 40.5q-92 0 -143.5 -40.5t-51.5 -112.5q0 -86 48.5 -134.5t135.5 -48.5z" />
<glyph horiz-adv-x="645" d="M590 1518v-101l-363 -651h-133l383 678h-418v74h531z" />
<glyph horiz-adv-x="804" d="M522 1186q199 -63 199 -209q0 -109 -83.5 -169t-234.5 -60t-234 60t-83 169q0 155 197 209q-77 25 -113.5 62t-36.5 91q0 89 71.5 139t198.5 50t198 -50t71 -139q0 -56 -36.5 -93t-113.5 -60zM561 1339q0 56 -41.5 86.5t-116.5 30.5t-117 -31t-42 -86q0 -57 42 -88.5 t117 -31.5t116.5 31.5t41.5 88.5zM209 981q0 -77 51 -119.5t143 -42.5t143.5 42.5t51.5 119.5q0 72 -51.5 113t-143.5 41t-143 -41t-51 -113z" />
<glyph horiz-adv-x="776" d="M340 1038q-127 0 -196.5 61t-69.5 171q0 121 77.5 189.5t217.5 68.5q315 0 315 -354q0 -215 -83.5 -320.5t-252.5 -105.5q-65 0 -130 17.5t-79 29.5l15 65q22 -11 75 -25t111 -14q114 0 167.5 74t53.5 231q-45 -48 -89 -68t-132 -20zM373 1456q-85 0 -135 -49.5 t-50 -132.5q0 -69 47 -111.5t125 -42.5q89 0 143 42.5t54 111.5q0 83 -49.5 132.5t-134.5 49.5z" />
<glyph horiz-adv-x="1376" d="M1202 641q0 -323 -132.5 -496.5t-381.5 -173.5t-381.5 173.5t-132.5 496.5q0 326 132.5 500t381.5 174t381.5 -174t132.5 -500zM688 66q172 0 264 148.5t92 426.5q0 280 -92 430t-264 150t-264 -150t-92 -430q0 -278 92 -426.5t264 -148.5z" />
<glyph horiz-adv-x="1376" d="M227 0v94h439v1067h-400v70l453 55h98v-1192h377v-94h-967z" />
<glyph horiz-adv-x="1376" d="M1133 1004q0 -130 -99 -234l-663 -676h762v-94h-932v143l708 701q78 75 78 172t-88.5 151t-245.5 54q-149 0 -325 -84l-33 80q180 98 369 98q222 0 345.5 -82t123.5 -229z" />
<glyph horiz-adv-x="1376" d="M719 682q212 -23 330 -109t118 -219q0 -180 -142 -281.5t-394 -101.5q-215 0 -445 109l29 86q221 -100 416 -100q183 0 286 75t103 207q0 131 -139 206t-383 75h-146v94h146q203 0 331.5 74.5t128.5 201.5q0 103 -93 162.5t-257 59.5q-197 0 -352 -76l-33 80 q89 44 194 67t199 23q227 0 355.5 -84.5t128.5 -233.5q0 -111 -100.5 -192t-280.5 -123z" />
<glyph horiz-adv-x="1376" d="M1026 383h166v-94h-166v-289h-152v289h-704v117l678 880h178v-903zM874 383v788l-602 -788h602z" />
<glyph horiz-adv-x="1376" d="M692 788q223 0 356.5 -102.5t133.5 -275.5q0 -200 -146.5 -319.5t-392.5 -119.5q-194 0 -414 109l29 86q120 -49 207.5 -74.5t177.5 -25.5q174 0 277.5 85.5t103.5 229.5q0 149 -103.5 229t-295.5 80q-183 0 -385 -43l24 639h834v-94h-690l-13 -430q150 26 297 26z" />
<glyph horiz-adv-x="1376" d="M758 807q215 0 332.5 -101.5t117.5 -287.5q0 -204 -135 -325.5t-362 -121.5q-258 0 -385 149t-127 451q0 381 141.5 562.5t437.5 181.5q166 0 334 -74l-22 -88q-164 68 -312 68q-209 0 -308 -147t-99 -456q123 189 387 189zM711 66q155 0 247.5 88t92.5 237 q0 156 -77 230.5t-239 74.5q-71 0 -133.5 -17t-114.5 -52t-82 -95.5t-30 -140.5q0 -148 90.5 -236.5t245.5 -88.5z" />
<glyph horiz-adv-x="1376" d="M1184 1286v-131l-748 -1155h-166l781 1192h-848v94h981z" />
<glyph horiz-adv-x="1376" d="M858 721q170 -29 258 -122.5t88 -233.5q0 -181 -139 -287.5t-375 -106.5t-375 106.5t-139 287.5q0 144 91.5 236t254.5 120q-128 21 -200 86.5t-72 179.5q0 151 119 239.5t321 88.5t321 -88.5t119 -239.5q0 -211 -272 -266zM981 989q0 106 -78.5 168t-212.5 62 t-212.5 -62t-78.5 -168q0 -101 79 -161t212 -60t212 60t79 161zM334 365q0 -138 96 -218.5t260 -80.5q165 0 262 80.5t97 218.5q0 130 -97.5 207t-261.5 77t-260 -76.5t-96 -207.5z" />
<glyph horiz-adv-x="1376" d="M618 473q-214 0 -332 101t-118 284q0 205 136.5 331t359.5 126q250 0 381 -160t131 -453q0 -370 -138 -550.5t-420 -180.5q-148 0 -339 72l22 88q183 -65 311 -65q201 0 300.5 146t99.5 443q-73 -105 -170 -143.5t-224 -38.5zM664 1221q-152 0 -245 -92.5t-93 -243.5 q0 -141 83 -220t232 -79q157 0 258.5 75t101.5 220q0 154 -92.5 247t-244.5 93z" />
<glyph horiz-adv-x="1376" d="M1202 455q0 -235 -132 -359.5t-382 -124.5t-382 124.5t-132 359.5q0 238 131.5 362.5t382.5 124.5t382.5 -124.5t131.5 -362.5zM688 66q174 0 265 99.5t91 289.5q0 192 -91.5 292.5t-264.5 100.5t-264.5 -100.5t-91.5 -292.5q0 -190 91 -289.5t265 -99.5z" />
<glyph horiz-adv-x="1376" d="M227 0v94h439v694h-400v70l453 55h98v-819h377v-94h-967z" />
<glyph horiz-adv-x="1376" d="M1135 635q0 -41 -19 -77.5t-53.5 -66.5t-63 -49.5t-67.5 -40.5l-559 -307h762v-94h-932v143l604 330q46 25 71 40t55 38t43 46t13 50q0 94 -88.5 147.5t-245.5 53.5q-161 0 -325 -84l-33 80q177 98 369 98q220 0 344.5 -81t124.5 -226z" />
<glyph horiz-adv-x="1376" d="M725 330q210 -23 329.5 -111t119.5 -221q0 -180 -140.5 -282.5t-386.5 -102.5q-249 0 -454 111l28 83q190 -100 426 -100q177 0 278 76.5t101 210.5q0 129 -139.5 203.5t-382.5 74.5h-146v95h146q203 0 330 73t127 197q0 98 -92.5 154.5t-254.5 56.5q-198 0 -352 -74 l-33 80q85 43 191 65.5t203 22.5q224 0 351.5 -82t127.5 -225q0 -107 -100.5 -187.5t-276.5 -117.5z" />
<glyph horiz-adv-x="1376" d="M1030 0h166v-94h-166v-281h-151v281h-705v117l678 890h178v-913zM879 0v799l-603 -799h603z" />
<glyph horiz-adv-x="1376" d="M682 786q229 0 364.5 -102.5t135.5 -275.5q0 -202 -146 -321.5t-393 -119.5q-108 0 -200 27.5t-214 81.5l29 86q211 -101 385 -101q166 0 273.5 87t107.5 231q0 152 -104.5 231.5t-305.5 79.5q-162 0 -374 -45l24 641h834v-92h-686l-17 -432q171 24 287 24z" />
<glyph horiz-adv-x="1376" d="M760 807q204 0 327 -106t123 -283q0 -203 -135.5 -325t-361.5 -122q-258 0 -385 149t-127 451q0 375 143.5 559.5t435.5 184.5q137 0 334 -74l-22 -88q-166 68 -312 68q-211 0 -309 -145.5t-98 -457.5q126 189 387 189zM713 66q155 0 247.5 88.5t92.5 236.5 q0 138 -86.5 221.5t-229.5 83.5q-164 0 -262 -83.5t-98 -221.5q0 -148 92 -236.5t244 -88.5z" />
<glyph horiz-adv-x="1376" d="M1180 913v-131l-748 -1157h-166l781 1196h-848v92h981z" />
<glyph horiz-adv-x="1376" d="M856 721q52 -10 97 -26t92.5 -44.5t80.5 -66t54.5 -94t21.5 -125.5q0 -186 -135 -290t-379 -104t-379 104t-135 290q0 70 21.5 127.5t55 95.5t80.5 66.5t92.5 43.5t96.5 23q-115 19 -193.5 86t-78.5 180q0 155 115.5 241.5t324.5 86.5t324.5 -86.5t115.5 -241.5 q0 -110 -74.5 -177t-197.5 -89zM979 989q0 109 -76.5 169.5t-214.5 60.5t-214.5 -60.5t-76.5 -169.5q0 -104 76.5 -162.5t214.5 -58.5t214.5 58.5t76.5 162.5zM332 365q0 -141 93.5 -220t262.5 -79q170 0 264.5 79t94.5 220q0 135 -94.5 209.5t-264.5 74.5 q-169 0 -262.5 -74.5t-93.5 -209.5z" />
<glyph horiz-adv-x="1376" d="M618 119q-209 0 -329.5 101t-120.5 276q0 207 133 326.5t363 119.5q259 0 385.5 -147.5t126.5 -448.5q0 -372 -137.5 -552.5t-420.5 -180.5q-184 0 -339 74l22 86q164 -66 311 -66q214 0 307 150t93 442q-76 -101 -161.5 -140.5t-232.5 -39.5zM664 848 q-157 0 -247.5 -87.5t-90.5 -238.5q0 -136 84.5 -214.5t230.5 -78.5q167 0 263.5 79.5t96.5 217.5q0 149 -90 235.5t-247 86.5z" />
<glyph horiz-adv-x="864" d="M774 913q0 -193 -86.5 -292t-255.5 -99t-255.5 99t-86.5 292t86.5 291.5t255.5 98.5t255.5 -98.5t86.5 -291.5zM434 598q215 0 215 315q0 157 -54.5 237.5t-160.5 80.5q-107 0 -162 -80.5t-55 -237.5q0 -315 217 -315z" />
<glyph horiz-adv-x="468" d="M336 1292v-751h-117v653h-170v51l213 47h74z" />
<glyph horiz-adv-x="714" d="M627 1110q0 -77 -52 -129l-380 -365h430v-75h-559v102l407 389q45 45 45 94q0 46 -51.5 75.5t-130.5 29.5q-59 0 -114.5 -19t-86.5 -43l-24 68q42 26 105.5 46t127.5 20q123 0 203 -54t80 -139z" />
<glyph horiz-adv-x="724" d="M414 944q105 -17 165 -69t60 -127q0 -104 -84.5 -165t-230.5 -61q-121 0 -254 72l20 70q110 -68 227 -68q95 0 150 42.5t55 115.5q0 67 -71.5 106t-196.5 39h-78v74h78q108 0 170.5 38.5t62.5 104.5q0 54 -49.5 84.5t-136.5 30.5q-103 0 -184 -51l-23 65q91 58 219 58 q132 0 207.5 -49.5t75.5 -135.5q0 -60 -48.5 -106t-133.5 -68z" />
<glyph horiz-adv-x="745" d="M580 778h96v-76h-96v-161h-115v161h-408v93l387 497h136v-514zM465 778v418l-334 -418h334z" />
<glyph horiz-adv-x="737" d="M371 1014q139 0 215 -59.5t76 -168.5q0 -127 -82 -195.5t-234 -68.5q-149 0 -254 72l21 70q108 -68 227 -68q199 0 199 174q0 170 -228 170q-79 0 -207 -22l15 374h491v-73h-379l-8 -215q57 10 148 10z" />
<glyph horiz-adv-x="776" d="M414 1014q136 0 212 -60.5t76 -167.5q0 -126 -77.5 -195t-218.5 -69q-159 0 -236.5 88t-77.5 269q0 215 85.5 319.5t260.5 104.5q55 0 118.5 -14.5t86.5 -31.5l-16 -65q-26 15 -83.5 27t-103.5 12q-112 0 -166.5 -75t-56.5 -230q76 88 197 88zM403 596q86 0 134.5 48 t48.5 134q0 72 -45.5 113t-126.5 41q-92 0 -143.5 -41t-51.5 -113q0 -86 48 -134t136 -48z" />
<glyph horiz-adv-x="645" d="M590 1292v-100l-363 -651h-133l383 678h-418v73h531z" />
<glyph horiz-adv-x="804" d="M522 961q199 -63 199 -209q0 -109 -83.5 -169.5t-234.5 -60.5t-234 60.5t-83 169.5q0 155 197 209q-77 25 -113.5 62t-36.5 91q0 89 71.5 139t198.5 50t198 -50t71 -139q0 -56 -36.5 -93t-113.5 -60zM561 1114q0 56 -41.5 86.5t-116.5 30.5t-117 -31t-42 -86 q0 -57 42 -89t117 -32t116.5 32t41.5 89zM209 756q0 -77 51 -119.5t143 -42.5t143.5 42.5t51.5 119.5q0 72 -51.5 112.5t-143.5 40.5t-143 -40.5t-51 -112.5z" />
<glyph horiz-adv-x="776" d="M340 813q-127 0 -196.5 60.5t-69.5 170.5q0 121 77.5 190t217.5 69q315 0 315 -355q0 -215 -83.5 -320.5t-252.5 -105.5q-65 0 -130 17.5t-79 29.5l15 66q22 -11 75 -25t111 -14q114 0 167.5 74t53.5 231q-45 -48 -89 -68t-132 -20zM373 1231q-85 0 -135 -49.5 t-50 -132.5q0 -69 47 -111.5t125 -42.5q89 0 143 42.5t54 111.5q0 83 -49.5 132.5t-134.5 49.5z" />
<glyph horiz-adv-x="864" d="M774 373q0 -193 -86.5 -292t-255.5 -99t-255.5 99t-86.5 292t86.5 291t255.5 98t255.5 -98t86.5 -291zM434 57q106 0 160.5 80t54.5 236q0 157 -54.5 237t-160.5 80q-217 0 -217 -317q0 -316 217 -316z" />
<glyph horiz-adv-x="468" d="M336 752v-752h-117v653h-170v52l213 47h74z" />
<glyph horiz-adv-x="714" d="M627 569q0 -77 -52 -129l-380 -364h430v-76h-559v102l407 390q45 45 45 94q0 46 -51 75t-131 29q-59 0 -114.5 -18.5t-86.5 -42.5l-24 67q42 26 105.5 46t127.5 20q123 0 203 -54t80 -139z" />
<glyph horiz-adv-x="724" d="M414 403q105 -17 165 -69t60 -127q0 -104 -84.5 -164.5t-230.5 -60.5q-123 0 -254 71l20 70q110 -68 227 -68q95 0 150 42.5t55 115.5q0 67 -71.5 106t-196.5 39h-78v74h78q108 0 170.5 38.5t62.5 104.5q0 54 -49.5 84.5t-136.5 30.5q-103 0 -184 -51l-23 66 q90 57 219 57q132 0 207.5 -49t75.5 -135q0 -60 -48.5 -106.5t-133.5 -68.5z" />
<glyph horiz-adv-x="745" d="M580 238h96v-76h-96v-162h-115v162h-408v92l387 498h136v-514zM465 238v417l-334 -417h334z" />
<glyph horiz-adv-x="737" d="M371 473q139 0 215 -59t76 -168q0 -127 -82 -195.5t-234 -68.5q-151 0 -254 71l21 70q108 -68 227 -68q199 0 199 174q0 170 -228 170q-79 0 -207 -22l15 375h491v-74h-379l-8 -215q58 10 148 10z" />
<glyph horiz-adv-x="776" d="M414 473q136 0 212 -60t76 -167q0 -126 -77.5 -195t-218.5 -69q-159 0 -236.5 87.5t-77.5 268.5q0 215 85.5 319.5t260.5 104.5q55 0 118.5 -14t86.5 -31l-16 -66q-26 15 -83.5 27t-103.5 12q-112 0 -166.5 -75t-56.5 -230q76 88 197 88zM403 55q86 0 134.5 48.5 t48.5 134.5q0 72 -45 112.5t-127 40.5q-92 0 -143.5 -40.5t-51.5 -112.5q0 -86 48.5 -134.5t135.5 -48.5z" />
<glyph horiz-adv-x="645" d="M590 752v-101l-363 -651h-133l383 678h-418v74h531z" />
<glyph horiz-adv-x="804" d="M522 420q199 -63 199 -209q0 -109 -83.5 -169t-234.5 -60t-234 60t-83 169q0 155 197 209q-77 25 -113.5 62t-36.5 91q0 89 71.5 139t198.5 50t198 -50t71 -139q0 -56 -36.5 -93t-113.5 -60zM561 573q0 56 -41.5 86.5t-116.5 30.5t-117 -31t-42 -86q0 -57 42 -88.5 t117 -31.5t116.5 31.5t41.5 88.5zM209 215q0 -77 51 -119.5t143 -42.5t143.5 42.5t51.5 119.5q0 72 -51.5 113t-143.5 41t-143 -41t-51 -113z" />
<glyph horiz-adv-x="776" d="M340 272q-127 0 -196.5 61t-69.5 171q0 121 77.5 189.5t217.5 68.5q315 0 315 -354q0 -215 -83.5 -320.5t-252.5 -105.5q-65 0 -130 17.5t-79 29.5l15 65q22 -11 75 -25t111 -14q114 0 167.5 74t53.5 231q-45 -48 -89 -68t-132 -20zM373 690q-85 0 -135 -49.5t-50 -132.5 q0 -69 47 -111.5t125 -42.5q89 0 143 42.5t54 111.5q0 83 -49.5 132.5t-134.5 49.5z" />
<glyph horiz-adv-x="382" d="M170 -125h-86l43 330h164z" />
<glyph horiz-adv-x="378" d="M272 0h-166v158h166v-158z" />
<glyph horiz-adv-x="382" d="M168 414h-86l43 331h164z" />
<glyph horiz-adv-x="378" d="M272 541h-166v155h166v-155z" />
<glyph horiz-adv-x="382" d="M168 -352h-86l43 332h164z" />
<glyph horiz-adv-x="378" d="M272 -227h-166v157h166v-157z" />
<glyph horiz-adv-x="382" d="M168 641h-86l43 330h164z" />
<glyph horiz-adv-x="378" d="M272 766h-166v158h166v-158z" />
<glyph horiz-adv-x="409" d="M332 -29h-99q-143 175 -143 391q0 229 148 400h92q-109 -189 -109 -400q0 -198 111 -391z" />
<glyph horiz-adv-x="411" d="M78 -29q112 192 112 391q0 206 -110 400h92q147 -167 147 -400q0 -215 -141 -391h-100z" />
<glyph horiz-adv-x="409" d="M334 508h-98q-144 179 -144 393q0 225 148 402h92q-109 -189 -109 -402q0 -200 111 -393z" />
<glyph horiz-adv-x="411" d="M78 508q112 192 112 393q0 208 -110 402h92q147 -170 147 -402q0 -211 -141 -393h-100z" />
<glyph horiz-adv-x="409" d="M334 -258h-98q-144 179 -144 393q0 225 148 402h92q-109 -189 -109 -402q0 -200 111 -393z" />
<glyph horiz-adv-x="411" d="M78 -258q112 192 112 393q0 208 -110 402h92q147 -170 147 -402q0 -211 -141 -393h-100z" />
<glyph horiz-adv-x="409" d="M332 735h-99q-143 175 -143 393q0 229 148 400h92q-109 -189 -109 -400q0 -200 111 -393z" />
<glyph horiz-adv-x="411" d="M78 735q112 192 112 393q0 206 -110 400h92q147 -167 147 -400q0 -217 -141 -393h-100z" />
<glyph horiz-adv-x="557" d="M313 1456h-118l174 223h188z" />
<glyph horiz-adv-x="665" d="M604 1679q0 -107 -72 -170t-194 -63q-124 0 -198 62.5t-74 170.5h122q0 -69 40 -110t108 -41q67 0 107 41t40 110h121z" />
<glyph horiz-adv-x="849" d="M692 1679l-182 -223h-174l-182 223h120l150 -139l147 139h121z" />
<glyph horiz-adv-x="385" d="M461 1456h-121l-147 137l-150 -137h-121l182 223h175z" />
<glyph horiz-adv-x="903" d="M375 1655v-199h-146v199h146zM709 1655v-199h-146v199h146z" />
<glyph horiz-adv-x="411" d="M123 1456v199h168v-199h-168z" />
<glyph horiz-adv-x="307" d="M141 1456l-243 223h188l174 -223h-119z" />
<glyph horiz-adv-x="1015" d="M326 1456h-117l174 223h186zM594 1456h-117l174 223h187z" />
<glyph horiz-adv-x="763" d="M104 1456v117h558v-117h-558z" />
<glyph horiz-adv-x="1267" d="M389 1583q0 72 57 106.5t177 34.5t176.5 -34.5t56.5 -106.5t-56.5 -105.5t-176.5 -33.5t-177 33.5t-57 105.5zM709 1583q0 51 -19.5 71.5t-66.5 20.5t-66.5 -20.5t-19.5 -71.5q0 -49 19.5 -69.5t66.5 -20.5t66.5 20.5t19.5 69.5z" />
<glyph horiz-adv-x="1296" d="M901 1632l55 -53q-44 -67 -86 -95t-98 -28q-59 0 -131 35t-125 35q-37 0 -63 -14.5t-54 -49.5l-55 51q43 68 84.5 95.5t99.5 27.5t150 -43q58 -26 106 -26q66 0 117 65z" />
<glyph horiz-adv-x="477" d="M127 1378l76 322h176l-141 -322h-111z" />
</font>
</defs>
</svg>
