<?xml version="1.0" standalone="no"?>
<!DOCTYPE svg PUBLIC "-//W3C//DTD SVG 1.1//EN" "http://www.w3.org/Graphics/SVG/1.1/DTD/svg11.dtd" >
<svg xmlns="http://www.w3.org/2000/svg" xmlns:xlink="http://www.w3.org/1999/xlink" version="1.1">
<metadata></metadata>
<defs>
<font id="rocablack_italic" horiz-adv-x="1306" >
<font-face units-per-em="2048" ascent="1591" descent="-457" />
<missing-glyph horiz-adv-x="350" />
<glyph unicode="L&#xb7;L" horiz-adv-x="2287" d="M438 184h613l-33 -184h-1004l226 1286h391zM1571 184h612l-33 -184h-1003l225 1286h391zM1024 539h-340l43 241h340z" />
<glyph unicode="l&#xb7;l" horiz-adv-x="1497" d="M369 0h-371l219 1239l387 94zM1284 0h-371l220 1239l387 94zM899 514h-340l43 242h340z" />
<glyph unicode="&#xd;" horiz-adv-x="350" />
<glyph unicode=" "  horiz-adv-x="350" />
<glyph unicode="&#x09;" horiz-adv-x="350" />
<glyph unicode="&#xa0;" horiz-adv-x="350" />
<glyph unicode="!" horiz-adv-x="579" d="M211 1286h397l-209 -880h-286zM354 0h-342l41 240h344z" />
<glyph unicode="&#x22;" horiz-adv-x="815" d="M350 858h-196l18 428h313zM750 858h-199l20 428h314z" />
<glyph unicode="#" horiz-adv-x="1171" d="M1130 801h-198l-88 -264h198l-67 -203h-201l-110 -334h-193l111 334h-185l-112 -334h-195l113 334h-207l67 203h209l86 264h-208l71 203h207l94 282h195l-96 -282h188l92 282h195l-92 -282h194zM649 537l88 264h-184l-88 -264h184z" />
<glyph unicode="$" horiz-adv-x="1245" d="M1169 408q-29 -169 -175 -280.5t-380 -143.5l-34 -199h-195l33 186q-106 3 -219.5 28.5t-206.5 68.5l74 157q189 -69 348 -69q151 0 243 42.5t105 120.5q8 48 -39.5 79.5t-157.5 68.5q-114 32 -198 67t-135 68.5t-83.5 70t-42.5 73t-12 75.5t8 78q29 163 173.5 268 t377.5 133l37 216h195l-37 -207q182 -9 364 -88l-86 -172q-187 77 -331 77q-136 0 -216.5 -33.5t-91.5 -95.5q-8 -46 36.5 -78t183.5 -75q287 -86 389 -180t73 -256z" />
<glyph unicode="%" horiz-adv-x="1947" d="M555 1315q192 0 275.5 -85t54.5 -249q-29 -166 -142.5 -251t-306.5 -85q-192 0 -275.5 85t-54.5 251q29 164 143 249t306 85zM1468 1286h269l-1248 -1286h-274zM537 1206q-73 0 -114 -52.5t-63 -172.5t1 -173.5t96 -53.5q72 0 113 53.5t63 173.5q20 120 -2 172.5 t-94 52.5zM1524 639q192 0 275 -85t54 -249q-29 -165 -141.5 -249.5t-304.5 -84.5q-193 0 -276.5 84.5t-55.5 249.5q29 164 143 249t306 85zM1505 530q-73 0 -113.5 -52t-62.5 -173q-22 -120 0.5 -172.5t95.5 -52.5t114 52.5t63 172.5q20 120 -2.5 172.5t-94.5 52.5z" />
<glyph unicode="&#x26;" horiz-adv-x="1490" d="M1475 639q-64 -194 -215 -352l135 -133l-256 -207q-25 25 -74.5 73t-71.5 70l-10 -4q-231 -117 -489 -117q-249 0 -382 104t-102 277q20 117 121.5 222.5t247.5 160.5q-41 54 -60.5 134t-7.5 143q23 132 169.5 218.5t344.5 86.5q181 0 286.5 -82.5t82.5 -208.5 q-20 -111 -96.5 -194.5t-223.5 -153.5l183 -182q49 82 92 194zM645 1024q-13 -82 66 -180q80 33 129.5 79.5t58.5 100.5q11 62 -15.5 96.5t-86.5 34.5t-100 -34.5t-52 -96.5zM410 350q-15 -82 30 -132t135 -50q134 0 252 86l-266 278q-61 -37 -102 -86.5t-49 -95.5z" />
<glyph unicode="'" horiz-adv-x="438" d="M309 858h-200l122 428h314z" />
<glyph unicode="(" horiz-adv-x="641" d="M446 -291h-294q-54 92 -87 201t-44.5 261.5t20.5 320.5q44 253 158.5 453t265.5 341h258q-111 -154 -197 -372.5t-123 -421.5q-36 -192 -26 -409.5t69 -373.5z" />
<glyph unicode=")" horiz-adv-x="641" d="M-121 -291q115 156 198 366.5t118 416.5q37 188 29 414t-66 380h260q100 -141 143.5 -341t-0.5 -453q-42 -243 -147.5 -440.5t-241.5 -342.5h-293z" />
<glyph unicode="*" horiz-adv-x="839" d="M717 643l-168 -113l-100 228l-181 -228l-133 113l197 213l-232 72l90 182l222 -98l34 274h187l-60 -274l256 98l27 -182l-262 -72z" />
<glyph unicode="+" horiz-adv-x="952" d="M905 557l-37 -201h-336l-63 -356h-199l64 356h-338l37 201h336l63 356h199l-64 -356h338z" />
<glyph unicode="," horiz-adv-x="454" d="M102 -188h-196l119 428h313z" />
<glyph unicode="-" horiz-adv-x="661" d="M82 559h481l-26 -153h-482z" />
<glyph unicode="." horiz-adv-x="497" d="M311 0h-340l43 240h340z" />
<glyph unicode="/" horiz-adv-x="1017" d="M872 1286h240l-938 -1286h-252z" />
<glyph unicode="0" horiz-adv-x="1425" d="M1360 641q-54 -308 -260.5 -489t-501.5 -181q-294 0 -434.5 181t-85.5 489q54 310 259 492t497 182q297 0 439 -182t87 -492zM631 158q50 0 85.5 14t64.5 45t51.5 89.5t42 137.5t40.5 199q21 122 30 201.5t7 139t-20 91t-48.5 46t-80.5 14.5q-49 0 -83.5 -14.5t-63 -46 t-51 -91t-42 -139t-41.5 -201.5q-21 -120 -29.5 -199t-7 -137.5t19.5 -89.5t47.5 -45t78.5 -14z" />
<glyph unicode="1" horiz-adv-x="815" d="M807 1286l-225 -1286h-392l185 1044h-277l21 123l446 119h242z" />
<glyph unicode="2" horiz-adv-x="1171" d="M1165 913q-9 -55 -27 -96t-59 -94q-33 -41 -91 -95.5t-114.5 -103t-179.5 -153t-221 -189.5h539l-31 -182h-1036l43 236l721 622q89 77 98 137q11 60 -30.5 97.5t-129.5 37.5q-196 0 -430 -131l-24 175q273 141 524 141q110 0 201.5 -32.5t150 -87.5t84.5 -128.5 t12 -153.5z" />
<glyph unicode="3" horiz-adv-x="1193" d="M834 692q141 -35 207 -124t44 -214q-32 -182 -204.5 -282.5t-450.5 -100.5q-111 0 -241 35t-250 105l88 174q83 -61 178 -96t184 -35q219 0 260 217q19 107 -56.5 162t-240.5 55h-88l31 176h92q296 0 334 205q12 74 -30.5 117.5t-125.5 43.5q-65 0 -156.5 -27.5 t-183.5 -74.5l-22 170q113 54 233.5 85.5t218.5 31.5q243 0 370 -89t99 -241q-17 -94 -94.5 -173t-195.5 -120z" />
<glyph unicode="4" horiz-adv-x="1277" d="M1042 446h144l-33 -186h-143l-45 -260h-390l46 260h-646l39 227l727 799h449zM653 446l103 584l-518 -584h415z" />
<glyph unicode="5" horiz-adv-x="1204" d="M645 850q257 0 385 -111t94 -301q-38 -215 -219.5 -341t-455.5 -126q-258 0 -492 140l90 174q184 -131 369 -131q226 0 274 264q22 120 -56 184t-247 64q-122 0 -266 -21l143 641h914l-33 -184h-533l-57 -254q14 2 90 2z" />
<glyph unicode="6" horiz-adv-x="1267" d="M807 827q229 0 322 -108.5t61 -294.5q-26 -146 -114 -250t-212.5 -153.5t-273.5 -49.5q-315 0 -444 153t-74 462q60 344 258.5 536.5t490.5 192.5q183 0 400 -84l-82 -164q-155 63 -303 63q-115 0 -204.5 -102.5t-133.5 -286.5q77 49 145 67.5t164 18.5zM596 150 q79 0 136.5 73.5t80.5 200.5q17 99 -20 158t-113 59q-93 0 -153.5 -58t-77.5 -159q-23 -125 18 -199.5t129 -74.5z" />
<glyph unicode="7" horiz-adv-x="1122" d="M1206 1286l-41 -256l-762 -1030h-442l805 1102h-639l33 184h1046z" />
<glyph unicode="8" horiz-adv-x="1400" d="M1067 713q129 -35 189.5 -130t37.5 -227q-32 -182 -218.5 -283.5t-487.5 -101.5q-300 0 -450.5 101.5t-119.5 283.5q25 133 118 227.5t235 129.5q-170 67 -133 266q25 145 191.5 240.5t395.5 95.5q149 0 262.5 -43.5t168 -120.5t38.5 -172q-37 -199 -227 -266zM915 975 q4 41 0.5 79t-34.5 65.5t-86 27.5q-83 0 -125.5 -50t-55.5 -122q-5 -32 -7 -53t1.5 -50t15.5 -46t39 -29.5t68 -12.5q44 0 76 11.5t50.5 29t30 42.5t17 48.5t9.5 50.5q0 3 0.5 5t0.5 4zM463 381q-20 -110 21.5 -173t133.5 -63q95 0 158.5 62.5t83.5 173.5q19 105 -24.5 165 t-135.5 60q-96 0 -157 -59t-80 -166z" />
<glyph unicode="9" horiz-adv-x="1267" d="M471 449q-212 0 -313.5 108.5t-67.5 300.5q38 215 197 336t403 121q629 0 518 -625q-60 -334 -261 -526.5t-490 -192.5q-184 0 -398 84l82 164q165 -63 318 -63q129 0 208 92t132 303q-77 -56 -151 -79t-177 -23zM686 1135q-91 0 -154 -73t-86 -204q-19 -104 22 -163.5 t132 -59.5q101 0 167 59t85 164q23 130 -21 203.5t-145 73.5z" />
<glyph unicode=":" horiz-adv-x="522" d="M444 674h-342l43 239h340zM326 0h-342l43 240h340z" />
<glyph unicode=";" horiz-adv-x="550" d="M457 618h-342l43 240h340zM137 -188h-196l120 428h316z" />
<glyph unicode="&#x3c;" horiz-adv-x="808" d="M664 244l-39 -226l-627 340l35 203l745 338l-39 -229l-524 -219z" />
<glyph unicode="=" horiz-adv-x="878" d="M119 729h686l-35 -201h-686zM57 387h686l-34 -203h-686z" />
<glyph unicode="&#x3e;" horiz-adv-x="808" d="M20 256l515 209l-443 199l43 235l627 -338l-37 -203l-745 -340z" />
<glyph unicode="?" horiz-adv-x="1052" d="M145 1210q242 105 455 105q238 0 369.5 -96t103.5 -250q-10 -57 -34.5 -103t-63 -78t-76 -53.5t-88.5 -42.5q-18 -8 -56 -23.5t-57 -23.5t-49.5 -23t-47 -28.5t-36 -32t-30 -40.5t-15.5 -48l-12 -70h-295l16 93q10 55 33.5 100t72.5 86.5t73.5 58.5t91.5 58q15 9 22 14 q42 25 65.5 40.5t51.5 38t43 46.5t20 51q12 68 -36.5 104.5t-149.5 36.5q-158 0 -348 -94zM119 0l43 240h340l-43 -240h-340z" />
<glyph unicode="@" horiz-adv-x="2000" d="M1137 1315q450 0 659.5 -185t149.5 -528q-31 -173 -139.5 -315.5t-284.5 -229t-385 -86.5q-139 0 -107 181q-117 -181 -248 -181q-155 0 -218 118.5t-25 336.5q30 166 110.5 284.5t191 175t240.5 56.5q196 0 369 -51q-133 -750 -135 -764t14 -14q107 17 196 150t124 331 q12 70 15.5 129t-4.5 121t-29.5 110.5t-63.5 93t-102.5 73.5t-150 46t-202.5 17q-312 0 -516.5 -178.5t-261.5 -499.5q-68 -380 48.5 -554.5t440.5 -174.5q121 0 201 26l25 -131q-114 -24 -248 -24q-442 0 -639 222t-123 636q69 398 348 603.5t750 205.5zM1065 332l80 459 q-26 20 -86 20q-84 0 -135 -98t-93 -334q-15 -85 -17.5 -147t6 -91.5t26.5 -29.5q36 0 72 23.5t64.5 62t47.5 70.5t35 65z" />
<glyph unicode="A" horiz-adv-x="1394" d="M891 0l-53 303h-510l-150 -303h-272l647 1286h510l229 -1286h-401zM420 487h387l-100 582z" />
<glyph unicode="B" horiz-adv-x="1402" d="M1059 694q149 -25 214 -107.5t42 -217.5q-32 -181 -188.5 -275t-421.5 -94h-691l226 1286h563q280 0 410.5 -84.5t101.5 -245.5q-15 -87 -81 -154.5t-175 -107.5zM745 1102h-145l-63 -357q158 0 248.5 48.5t107.5 142.5q13 82 -25.5 124t-122.5 42zM436 184h197 q103 0 166 53.5t82 157.5q15 91 -53 139t-212 48q-7 0 -110 -7z" />
<glyph unicode="C" horiz-adv-x="1208" d="M1061 262l20 -207q-123 -38 -253 -61t-224 -23q-297 0 -444.5 184t-93.5 490q54 304 265.5 487t506.5 183q93 0 216.5 -23t233.5 -61l-92 -195q-166 76 -289 76q-155 0 -256 -119t-141 -348q-40 -225 18.5 -343t206.5 -118q60 0 150 21.5t176 56.5z" />
<glyph unicode="D" horiz-adv-x="1417" d="M240 1286h583q294 0 444 -177.5t99 -469.5q-51 -288 -262.5 -463.5t-505.5 -175.5h-584zM438 184h133q132 0 222.5 118t128.5 337q40 225 -14.5 344t-194.5 119h-113z" />
<glyph unicode="E" horiz-adv-x="1191" d="M1243 1286l-33 -184h-610l-61 -346h540l-32 -185h-539l-70 -387h611l-33 -184h-1002l226 1286h1003z" />
<glyph unicode="F" horiz-adv-x="1085" d="M1163 1286l-30 -184h-533l-65 -373h489l-33 -184h-489l-96 -545h-392l226 1286h923z" />
<glyph unicode="G" horiz-adv-x="1314" d="M877 684h378l-118 -668q-7 -1 -58.5 -10.5t-80.5 -13t-88 -10t-131 -9t-161 -2.5q-324 0 -465 165t-81 505q62 349 247.5 511.5t524.5 162.5q202 0 446 -86l-88 -193q-166 72 -291 72q-149 0 -252 -122t-143 -345q-39 -225 12.5 -351t178.5 -126h77l60 338z" />
<glyph unicode="H" horiz-adv-x="1454" d="M969 756l94 530h391l-227 -1286h-391l102 573h-432l-100 -573h-392l226 1286h391l-92 -530h430z" />
<glyph unicode="I" horiz-adv-x="634" d="M631 1286l-225 -1286h-392l226 1286h391z" />
<glyph unicode="J" horiz-adv-x="653" d="M262 1286h391l-227 -1284q-35 -201 -224.5 -314t-494.5 -116h-4l31 184h12q115 0 188.5 42t85.5 116z" />
<glyph unicode="K" horiz-adv-x="1429" d="M1366 0h-438l-353 598h-65l-104 -598h-392l226 1286h391l-90 -504h73l469 504h439l-582 -602z" />
<glyph unicode="L" horiz-adv-x="1155" d="M438 184h613l-33 -184h-1004l226 1286h391z" />
<glyph unicode="M" horiz-adv-x="1781" d="M1264 1286h450l-108 -1286h-404l105 948l-443 -948h-266l-106 981l-238 -981h-291l346 1286h471l99 -792z" />
<glyph unicode="N" horiz-adv-x="1499" d="M1262 1286h237l-227 -1286h-506l-340 993l-174 -993h-238l226 1286h516l334 -979z" />
<glyph unicode="O" horiz-adv-x="1511" d="M883 1315q326 0 477 -177t94 -495q-55 -318 -268.5 -495t-540.5 -177t-478.5 177t-96.5 495q57 318 271.5 495t541.5 177zM678 160q138 0 211.5 107t120.5 376q33 178 27 286t-50 154.5t-137 46.5q-140 0 -214.5 -108t-121.5 -379q-48 -269 -11.5 -376t175.5 -107z" />
<glyph unicode="P" horiz-adv-x="1349" d="M1364 905q-35 -198 -232.5 -309t-510.5 -111h-129l-86 -485h-392l226 1286h622q269 0 401.5 -100.5t100.5 -280.5zM932 899q15 91 -32 147t-138 56h-162l-78 -432q194 0 291 54t119 175z" />
<glyph unicode="Q" horiz-adv-x="1513" d="M1456 639q-41 -233 -178.5 -397.5t-343.5 -227.5q61 -86 196 -86q35 0 41 2l-34 -213q-8 -2 -41 -2q-180 0 -320.5 68.5t-212.5 191.5q-286 22 -415.5 196.5t-77.5 467.5q56 318 270 497t541 179q328 0 479.5 -179.5t95.5 -496.5zM514 639q-33 -176 -27 -283t51 -152.5 t140 -45.5q140 0 214 107t120 374q48 269 12 380t-176 111t-214 -110t-120 -381z" />
<glyph unicode="R" horiz-adv-x="1398" d="M1370 938q-38 -256 -313 -358l200 -580h-428l-159 506q-82 -6 -176 -6l-88 -500h-392l226 1286h624q272 0 401.5 -90t104.5 -258zM979 934q15 81 -31.5 124.5t-146.5 43.5h-201l-74 -418h41q163 0 278 69t134 181z" />
<glyph unicode="S" horiz-adv-x="1226" d="M698 844q287 -84 390 -179.5t75 -256.5q-35 -201 -231.5 -319t-495.5 -118q-114 0 -235.5 26.5t-212.5 70.5l69 157q188 -69 349 -69q147 0 240.5 44t107.5 119q8 48 -39.5 79.5t-157.5 68.5q-98 28 -173.5 58.5t-126.5 58.5t-85.5 60.5t-53 61t-25 64t-5.5 65t8 68.5 q34 191 228 301.5t495 110.5q90 0 195 -23t192 -63l-86 -174q-82 35 -172.5 55t-159.5 20q-132 0 -215.5 -34.5t-93.5 -94.5q-8 -48 36 -80t183 -77z" />
<glyph unicode="T" horiz-adv-x="1245" d="M1341 1286l-32 -184h-402l-194 -1102h-391l194 1102h-401l30 184h1196z" />
<glyph unicode="U" horiz-adv-x="1468" d="M1085 1286h392l-158 -899q-34 -189 -223.5 -302.5t-472.5 -113.5t-433 113.5t-118 302.5l159 899h392l-172 -973q-12 -72 44.5 -115.5t159.5 -43.5t174.5 43.5t83.5 115.5z" />
<glyph unicode="V" horiz-adv-x="1296" d="M788 0h-487l-166 1286h397l117 -1028l473 1028h273z" />
<glyph unicode="W" horiz-adv-x="1859" d="M1673 1286h273l-486 -1286h-487l-17 645l-251 -645h-488l-82 1286h418l29 -954l364 954h363l30 -930z" />
<glyph unicode="X" horiz-adv-x="1282" d="M1202 0h-434l-199 406l-360 -406h-344l592 629l-320 657h430l172 -385l318 385h329l-526 -596z" />
<glyph unicode="Y" horiz-adv-x="1277" d="M1391 1286l-560 -696l-104 -590h-391l100 567l-289 719h439l162 -442l339 442h304z" />
<glyph unicode="Z" horiz-adv-x="1243" d="M1303 1286l-43 -248l-848 -854h698l-33 -184h-1157l41 227l873 875h-633l32 184h1070z" />
<glyph unicode="[" horiz-adv-x="671" d="M702 1118h-143l-223 -1261h143l-28 -166h-494l283 1595h491z" />
<glyph unicode="\" horiz-adv-x="1017" d="M385 1286l500 -1286h-252l-486 1286h238z" />
<glyph unicode="]" horiz-adv-x="673" d="M295 1118h-143l28 168h496l-283 -1595h-493l28 166h144z" />
<glyph unicode="^" horiz-adv-x="925" d="M264 567h-231l450 719h199l197 -719h-215l-119 455z" />
<glyph unicode="_" horiz-adv-x="909" d="M-127 -119h907l-35 -200h-907z" />
<glyph unicode="`" horiz-adv-x="624" d="M408 1087l-189 228h313l130 -228h-254z" />
<glyph unicode="a" horiz-adv-x="1150" d="M657 942q223 0 328 -91t72 -280l-94 -530q-258 -70 -494 -70q-278 0 -402 74.5t-98 226.5q52 300 693 306h26l14 84q5 26 -5 45.5t-26 29.5t-42 16t-46 7.5t-44 1.5q-168 0 -322 -43l-31 168q229 55 471 55zM496 133q34 0 112 8l56 301h-29q-50 -2 -88.5 -8.5t-80.5 -23 t-69.5 -51t-36.5 -85.5q-12 -75 30 -108t106 -33z" />
<glyph unicode="b" horiz-adv-x="1204" d="M735 942q239 0 334.5 -119.5t52.5 -365.5t-205.5 -366t-451.5 -120q-244 0 -463 70l219 1245h369l-68 -381q136 37 213 37zM731 457q31 173 16.5 249t-81.5 76q-63 0 -172 -39l-103 -583q43 -29 105 -29q98 0 151 75t84 251z" />
<glyph unicode="c" horiz-adv-x="970" d="M27 457q41 229 208 357t422 128q186 0 338 -55l-88 -158q-112 31 -227 31q-105 0 -169.5 -75t-92.5 -228q-26 -150 13.5 -225.5t139.5 -75.5q119 0 240 28l35 -155q-183 -58 -361 -58q-255 0 -376.5 128.5t-81.5 357.5z" />
<glyph unicode="d" horiz-adv-x="1200" d="M1001 41q-249 -70 -485 -70q-282 0 -405 123t-82 363q43 239 184.5 362t374.5 123q99 0 198 -24l66 368h369zM543 131q67 0 110 29l105 596q-77 26 -154 26q-73 0 -111.5 -69t-72.5 -256q-31 -187 -4.5 -256.5t127.5 -69.5z" />
<glyph unicode="e" horiz-adv-x="1157" d="M963 68q-91 -33 -223 -65t-228 -32q-273 0 -398 126.5t-85 359.5q41 232 201 358.5t415 126.5q129 0 223.5 -24t145.5 -65.5t70.5 -92.5t9.5 -109q-11 -61 -41 -111t-70 -84t-96 -59.5t-111 -40.5t-123.5 -24t-125 -12.5t-124.5 -4.5q2 -86 45 -123.5t146 -37.5 q21 0 36 1.5t43 7t52 11t86.5 20.5t122.5 29zM616 782q-74 0 -121.5 -75.5t-74.5 -229.5q133 7 211 46t92 126q11 67 -14.5 100t-92.5 33z" />
<glyph unicode="f" horiz-adv-x="704" d="M649 1116q-49 0 -72.5 -27t-31.5 -77l-17 -99h211l-37 -200h-208l-125 -713h-373l127 713l35 200l12 70q58 332 440 332q89 0 175 -22.5t133 -55.5l-111 -145q-76 24 -158 24z" />
<glyph unicode="g" horiz-adv-x="1204" d="M1149 874l-150 -841q-87 -490 -659 -490q-162 0 -369 97l84 157q213 -71 316 -71q86 0 154.5 60.5t90.5 182.5l5 27q-125 -25 -207 -25q-238 0 -333 120t-52 366t204.5 365.5t450.5 119.5q239 0 465 -68zM508 133q39 0 145 25l105 596q-38 28 -105 28q-94 0 -148 -76.5 t-85 -248.5q-32 -170 -13.5 -247t101.5 -77z" />
<glyph unicode="h" horiz-adv-x="1230" d="M1028 0h-369l117 662q9 51 -30 75.5t-128 24.5q-50 0 -120 -21l-131 -741h-369l227 1286h369l-70 -395q119 51 230 51q223 0 316.5 -85.5t62.5 -262.5z" />
<glyph unicode="i" horiz-adv-x="579" d="M594 1286l-35 -199h-369l35 199h369zM528 913l-161 -913h-369l162 913h368z" />
<glyph unicode="j" horiz-adv-x="595" d="M610 1286l-35 -199h-368l35 199h368zM545 913l-185 -1038q-58 -332 -440 -332q-91 0 -179.5 22.5t-139.5 55.5l116 146q59 -25 162 -25q52 0 75.5 26.5t33.5 77.5l188 1067h369z" />
<glyph unicode="k" horiz-adv-x="1202" d="M436 379l-67 -379h-371l227 1286h371l-127 -723h59l301 350h416l-403 -434l284 -479h-399l-211 379h-80z" />
<glyph unicode="l" horiz-adv-x="581" d="M369 0h-371l219 1239l387 94z" />
<glyph unicode="m" horiz-adv-x="1806" d="M1604 0h-369l117 659q9 53 -24.5 79t-102.5 26q-41 0 -115 -39l-8 -53l-119 -672h-369l117 662q18 100 -135 100q-26 0 -102 -21l-132 -741h-368l143 819q264 123 578 123q175 0 262 -90q181 90 348 90q219 0 316 -86.5t67 -261.5z" />
<glyph unicode="n" horiz-adv-x="1226" d="M1024 0h-369l117 662q18 100 -158 100q-46 0 -122 -21l-130 -741h-368l143 819q267 123 598 123q231 0 328 -85.5t65 -262.5z" />
<glyph unicode="o" horiz-adv-x="1251" d="M1171 457q-43 -245 -205.5 -365.5t-451.5 -120.5q-288 0 -408 120.5t-77 365.5t205.5 365t451.5 120q288 0 408 -120t77 -365zM780 457q30 180 2 252.5t-125 72.5q-101 0 -153 -72t-84 -253q-30 -180 -1.5 -253t124.5 -73q102 0 153 72t84 254z" />
<glyph unicode="p" horiz-adv-x="1196" d="M1114 457q-41 -239 -183 -362.5t-374 -123.5q-92 0 -197 27l-73 -426h-369l229 1302q248 68 482 68q281 0 404.5 -123t80.5 -362zM723 457q29 173 0.5 249t-117.5 76q-60 0 -112 -28l-105 -596q7 -2 26.5 -8.5t28 -9t24.5 -5t32 -2.5q83 0 138 77t85 247z" />
<glyph unicode="q" horiz-adv-x="1198" d="M686 942q232 0 459 -68l-232 -1302h-368l73 426q-117 -27 -202 -27q-233 0 -330.5 122.5t-56.5 363.5q86 485 657 485zM528 133q13 0 25 1t25.5 4.5t21.5 5.5t24 7t23 7l105 596q-35 28 -97 28q-93 0 -149 -79t-86 -246q-58 -324 108 -324z" />
<glyph unicode="r" horiz-adv-x="851" d="M920 926l-156 -209q-65 37 -152 37q-58 0 -123 -21l-127 -733h-368l143 819q267 123 602 123q115 0 181 -16z" />
<glyph unicode="s" horiz-adv-x="997" d="M365 -29q-250 0 -408 52l76 190q3 0 40.5 -7.5t75 -14t95 -12t106.5 -5.5q87 0 138.5 10t56.5 41q3 15 -9.5 26.5t-39.5 20t-56 15t-71.5 16.5t-73.5 19q-30 10 -55 20.5t-54 26.5t-50 34.5t-41.5 44t-29.5 55t-14.5 67.5t4.5 81q52 291 541 291q171 0 354 -59l-86 -185 q-173 43 -252 43q-182 0 -194 -57q-2 -16 10 -27t38 -19t53.5 -14t68 -14.5t69.5 -17.5q24 -8 44 -15.5t44 -18.5t42 -22t38.5 -26.5t33.5 -32.5t26.5 -38.5t17.5 -45.5t7 -54t-5 -63q-28 -154 -161 -229.5t-379 -75.5z" />
<glyph unicode="t" horiz-adv-x="751" d="M645 182l-31 -182q-113 -29 -274 -29q-177 0 -252.5 84t-46.5 248l74 410l35 200l43 244l378 66l-53 -310h227l-34 -200h-226l-77 -439q-18 -100 57 -100q101 0 180 8z" />
<glyph unicode="u" horiz-adv-x="1228" d="M150 913h368l-112 -641q-10 -63 26 -91.5t127 -28.5q63 0 125 22l131 739h369l-144 -817q-270 -125 -598 -125q-236 0 -332 84t-65 264z" />
<glyph unicode="v" horiz-adv-x="1136" d="M899 913h289l-520 -913h-410l-201 913h426l95 -602z" />
<glyph unicode="w" horiz-adv-x="1622" d="M1372 913h289l-438 -913h-365l-49 516l-248 -516h-352l-158 913h426l51 -524l252 524h299l54 -557z" />
<glyph unicode="x" horiz-adv-x="1089" d="M1001 0h-440l-125 229l-227 -229h-334l447 430l-263 483h422l115 -215l211 215h352l-446 -419z" />
<glyph unicode="y" horiz-adv-x="1079" d="M1139 913l-811 -1341h-338l280 446l-213 895h389l93 -495l295 495h305z" />
<glyph unicode="z" horiz-adv-x="1015" d="M975 713l-551 -533h455l-31 -180h-907l36 203l562 530h-439l31 180h879z" />
<glyph unicode="{" horiz-adv-x="739" d="M543 -143h20l-31 -166h-151q-168 0 -242.5 84t-46.5 245l39 211q20 116 -3.5 153.5t-117.5 37.5l29 168q94 0 129.5 32t54.5 132l39 229q29 161 133 246.5t273 85.5h151l-28 -168h-21q-68 0 -106.5 -50.5t-57.5 -162.5l-35 -189q-17 -96 -94.5 -169.5t-130.5 -73.5 q52 0 104 -76.5t35 -167.5l-32 -188q-20 -113 0.5 -163t89.5 -50z" />
<glyph unicode="|" horiz-adv-x="487" d="M209 -309h-252l283 1595h249z" />
<glyph unicode="}" horiz-adv-x="737" d="M-68 -143q69 0 106.5 48t57.5 165l35 192q10 55 38 102.5t62 76.5t67.5 45t57.5 16q-55 0 -106.5 74t-34.5 172l35 188q20 117 -0.5 165t-89.5 48h-21l29 166h154q169 0 242 -84t44 -246l-37 -209q-20 -115 3.5 -152.5t117.5 -37.5l-28 -168q-94 0 -130 -32t-55 -132 l-41 -234q-28 -162 -131 -245.5t-272 -83.5h-152l29 166h20z" />
<glyph unicode="~" horiz-adv-x="868" d="M739 616l37 -143q-54 -47 -104.5 -65.5t-126.5 -18.5q-71 0 -156 25q-64 22 -133 22q-56 0 -92.5 -11.5t-77.5 -41.5l-35 143q72 56 126.5 77.5t123.5 21.5q16 0 30.5 -1.5t24.5 -3t23 -5t18.5 -5.5t20 -7t18.5 -7q69 -21 144 -21q58 0 92.5 9t66.5 32z" />
<glyph unicode="&#xa1;" horiz-adv-x="581" d="M240 1286h344l-43 -239h-342zM385 0h-399l207 881h290z" />
<glyph unicode="&#xa2;" horiz-adv-x="989" d="M813 184l33 -155q-128 -43 -283 -56l-33 -188h-196l35 197q-200 29 -287.5 153t-50.5 326q35 204 166 328.5t340 152.5l38 215h197l-37 -209q137 -9 262 -53l-88 -158q-108 31 -227 31q-229 0 -281 -307q-56 -305 172 -305q116 0 240 28z" />
<glyph unicode="&#xa3;" horiz-adv-x="1099" d="M489 182h490l-33 -182h-993l33 184q100 0 145 40t62 143l43 241h-175l31 183h176l27 149q29 170 148 268.5t294 98.5q195 0 406 -66l-90 -188q-124 51 -209 51q-73 0 -113.5 -60t-60.5 -176l-15 -77h260l-32 -183h-260l-45 -252q-15 -96 -89 -174z" />
<glyph unicode="&#xa4;" horiz-adv-x="917" d="M-6 236l125 116q-15 60 -2 137q11 73 55 142l-88 121l184 161l88 -120q67 26 127 26q78 0 142 -31l133 125l127 -161l-127 -115q25 -70 10 -148q-12 -76 -57 -143l82 -110l-185 -162l-78 110q-82 -37 -163 -37q-75 0 -131 35l-115 -108zM461 623q-46 0 -86.5 -41 t-50.5 -99q-9 -56 17 -95.5t73 -39.5q51 0 93.5 39.5t51.5 95.5q10 58 -18.5 99t-79.5 41z" />
<glyph unicode="&#xa5;" horiz-adv-x="1290" d="M1372 1286l-403 -512h233l-33 -182h-340l-16 -98h340l-33 -185h-340l-55 -309h-391l55 309h-321l32 185h322l16 98h-321l33 182h208l-196 512h450l142 -416l295 416h323z" />
<glyph unicode="&#xa6;" horiz-adv-x="446" d="M389 586h-340l125 700h338zM8 344h338l-137 -772h-338z" />
<glyph unicode="&#xa7;" horiz-adv-x="1216" d="M1147 471q-27 -152 -178 -268q58 -58 39 -176q-31 -175 -203 -269t-459 -94q-192 0 -356 82l80 158q184 -72 305 -72q126 0 198.5 31t81.5 88q7 36 -44 72t-152 69q-271 82 -365 169t-69 235q30 159 180 268q-54 63 -35 178q31 175 204 270t460 95q166 0 362 -82 l-82 -162q-161 74 -307 74q-126 0 -200 -31t-83 -88q-8 -43 31 -71t170 -70q266 -82 357 -169.5t65 -236.5zM582 389q125 -42 196 -72q71 52 80 107q6 35 -61 75.5t-193 80.5q-156 47 -233 82q-40 -50 -49 -107q-7 -40 61 -83t199 -83z" />
<glyph unicode="&#xa8;" horiz-adv-x="645" d="M381 1286l-35 -199h-231l35 199h231zM737 1286l-35 -199h-233l35 199h233z" />
<glyph unicode="&#xa9;" horiz-adv-x="1388" d="M1335 641q-32 -187 -144 -341.5t-272.5 -241.5t-334.5 -87q-192 0 -322.5 85.5t-180.5 237t-15 347.5q25 139 97 263t172.5 211.5t227 138.5t256.5 51t238 -50.5t177.5 -138t97.5 -211.5t3 -264zM1200 641q27 149 -16 274.5t-145 198t-240 72.5q-212 0 -385.5 -157.5 t-214.5 -387.5q-28 -159 14.5 -285.5t146 -197t250.5 -70.5q208 0 379 161t211 392zM729 401q72 0 172 43l10 -110q-137 -45 -252 -45q-167 0 -242 93t-44 265t137.5 264.5t275.5 92.5q112 0 236 -46l-49 -104q-77 41 -156 41q-85 0 -141 -64t-78 -184q-22 -118 12 -182 t119 -64z" />
<glyph unicode="&#xaa;" horiz-adv-x="776" d="M711 782q-139 -39 -289 -39q-31 0 -59.5 2t-68 7.5t-69.5 17.5t-56.5 30.5t-37.5 48.5t-4 69q7 42 31 74t61 51.5t76 32.5t89 18.5t85.5 7.5t79.5 2l8 47q4 19 -4 31.5t-26 17.5t-31.5 6.5t-32.5 1.5q-101 0 -189 -24l-16 98q126 33 274 33q131 0 192.5 -54t41.5 -169z M535 1022h-11q-178 0 -196 -102q-8 -46 26 -66t84 -20q18 0 64 4zM100 649h588l-22 -125h-588z" />
<glyph unicode="&#xab;" horiz-adv-x="933" d="M432 287l-153 -117l-240 430l389 430l123 -129l-289 -315zM817 287l-153 -117l-240 430l389 430l123 -129l-289 -315z" />
<glyph unicode="&#xac;" horiz-adv-x="1017" d="M936 702l-96 -544h-238l57 323h-614l39 221h852z" />
<glyph unicode="&#xad;" horiz-adv-x="661" d="M82 559h481l-26 -153h-482z" />
<glyph unicode="&#xae;" horiz-adv-x="1388" d="M1335 641q-32 -187 -144 -341.5t-272.5 -241.5t-334.5 -87q-192 0 -322.5 85.5t-180.5 237t-15 347.5q25 140 97.5 264.5t173 212t226.5 138.5t256 51q175 0 305 -86t187 -239t24 -341zM1200 641q27 150 -16 276t-145 198.5t-240 72.5q-139 0 -267.5 -72t-217 -197.5 t-115.5 -277.5q-28 -159 14.5 -285.5t146 -197t250.5 -70.5q208 0 379 161t211 392zM1010 784q-9 -55 -49.5 -102t-102.5 -70l94 -274h-209l-75 242q-25 -2 -72 -2l-43 -240h-184l108 614h293q129 0 191 -43t49 -125zM823 784q6 38 -15.5 59t-68.5 21h-94l-35 -198h21 q82 0 132 30.5t60 87.5z" />
<glyph unicode="&#xaf;" horiz-adv-x="997" d="M303 1087l35 199h614l-34 -199h-615z" />
<glyph unicode="&#xb0;" horiz-adv-x="675" d="M463 1315q132 0 194.5 -86t36.5 -234q-26 -145 -118 -228t-224 -83t-195 83.5t-38 227.5q26 148 119 234t225 86zM315 995q-23 -129 -12.5 -176t64.5 -47q55 0 81 46t50 177q24 135 14 184.5t-63 49.5q-55 0 -82 -48.5t-52 -185.5z" />
<glyph unicode="&#xb1;" horiz-adv-x="1005" d="M920 553h-306l-47 -274h-239l47 274h-307l36 217h312l45 264h239l-47 -264h305zM823 0h-854l39 215h852z" />
<glyph unicode="&#xb4;" horiz-adv-x="604" d="M422 1087h-252l213 228h313z" />
<glyph unicode="&#xb6;" horiz-adv-x="1318" d="M90 905q32 183 153 282t310 99h373l-301 -1714h-285l162 913h-72q-198 0 -286.5 109t-53.5 311zM713 -428l303 1714h284l-301 -1714h-286z" />
<glyph unicode="&#xb7;" horiz-adv-x="522" d="M393 391h-340l43 242h340z" />
<glyph unicode="&#xb8;" horiz-adv-x="1232" d="M469 -348l31 86q56 -17 86 -17q49 0 69 15.5t25 44.5t-10 45t-66 16q-34 0 -90 -18v84q68 18 133 18q107 0 151.5 -36t32.5 -109q-25 -148 -237 -148q-51 0 -125 19z" />
<glyph unicode="&#xba;" horiz-adv-x="817" d="M434 745q-333 0 -282 287q50 283 383 283q72 0 127.5 -15.5t96 -48t56 -88.5t2.5 -131q-50 -287 -383 -287zM600 1032q15 90 11 121q-11 68 -93 68q-38 0 -64.5 -13t-42.5 -40.5t-25 -58t-17 -77.5q-17 -98 -10 -132q13 -62 92 -62q33 0 58 11.5t39.5 27.5t25.5 45.5 t15.5 51t10.5 58.5zM92 524l23 125h604l-21 -125h-606z" />
<glyph unicode="&#xbb;" horiz-adv-x="931" d="M506 600l-389 -430l-119 125l287 317l-166 301l147 117zM895 600l-389 -430l-119 125l287 317l-166 301l147 117z" />
<glyph unicode="&#xbc;" horiz-adv-x="1636" d="M608 1286l-133 -756h-287l101 568h-164l16 92l291 96h176zM1149 1286h207l-940 -1286h-221zM1452 289h80l-25 -148h-82l-24 -141h-287l25 141h-373l33 178l403 437h332zM1165 289l45 260l-254 -260h209z" />
<glyph unicode="&#xbd;" horiz-adv-x="1714" d="M1147 1286h207l-934 -1286h-219zM608 1286l-133 -756h-287l101 568h-164l16 92l291 96h176zM1651 563q-6 -36 -23.5 -67.5t-56.5 -71.5q-7 -7 -60.5 -61t-114 -107t-143.5 -113h306l-27 -143h-643l31 176l385 330q53 49 57 74q4 20 -12.5 31.5t-42.5 11.5 q-119 0 -273 -97l-14 140q163 100 346 100q65 0 116 -9t95.5 -30t64 -62.5t9.5 -101.5z" />
<glyph unicode="&#xbe;" horiz-adv-x="1871" d="M633 954q84 -29 114.5 -75t16.5 -121q-41 -226 -408 -226q-94 0 -167 22t-148 73l65 139q93 -90 224 -90q46 0 81 28.5t42 73.5q6 31 -6 52t-39.5 30.5t-56 13t-66.5 3.5h-39l22 135h43q40 0 67 2.5t58 11t49 29t23 51.5q7 37 -19 51t-71 14q-86 0 -207 -71l-14 135 q80 43 155.5 61.5t173.5 18.5q157 0 217 -45t41 -148q-9 -55 -44 -94t-107 -74zM1364 1286h207l-942 -1286h-217zM1692 289h80l-25 -148h-82l-25 -141h-286l24 141h-372l32 178l404 437h332zM1405 289l45 260l-254 -260h209z" />
<glyph unicode="&#xbf;" horiz-adv-x="1048" d="M948 1286l-43 -239h-342l41 239h344zM920 76q-239 -105 -453 -105q-238 0 -370.5 94t-104.5 244q10 57 34.5 103t62 78t74.5 53.5t87 42.5q18 8 56 23t57.5 23.5t50 23.5t47.5 28.5t36.5 32t30 40.5t15.5 48l14 78h297l-18 -101q-8 -46 -28.5 -86.5t-44 -69.5 t-61.5 -59.5t-66 -48.5t-73 -45q-50 -28 -73 -42t-56.5 -39t-50 -49.5t-21.5 -53.5q-9 -59 42 -96t143 -37q70 0 168.5 26.5t181.5 67.5z" />
<glyph unicode="&#xc0;" horiz-adv-x="1394" d="M692 1456l-190 223h315l127 -223h-252zM891 0l-53 303h-510l-150 -303h-272l647 1286h510l229 -1286h-401zM420 487h387l-100 582z" />
<glyph unicode="&#xc1;" horiz-adv-x="1394" d="M958 1456h-253l206 223h316zM891 0l-53 303h-510l-150 -303h-272l647 1286h510l229 -1286h-401zM420 487h387l-100 582z" />
<glyph unicode="&#xc2;" horiz-adv-x="1394" d="M1174 1456h-230l-84 115l-119 -115h-243l207 223h335zM891 0l-53 303h-510l-150 -303h-272l647 1286h510l229 -1286h-401zM420 487h387l-100 582z" />
<glyph unicode="&#xc3;" horiz-adv-x="1394" d="M1157 1683l33 -143q-54 -47 -103.5 -65.5t-123.5 -18.5q-63 0 -148 23q-82 24 -145 24q-54 0 -91 -12t-77 -41l-35 143q74 56 128 77.5t120 21.5q34 0 57 -4t53.5 -15.5t38.5 -13.5q59 -19 129 -19q58 0 93.5 9t70.5 34zM891 0l-53 303h-510l-150 -303h-272l647 1286h510 l229 -1286h-401zM420 487h387l-100 582z" />
<glyph unicode="&#xc4;" horiz-adv-x="1394" d="M813 1679l-41 -223h-268l39 223h270zM1200 1679l-41 -223h-268l39 223h270zM891 0l-53 303h-510l-150 -303h-272l647 1286h510l229 -1286h-401zM420 487h387l-100 582z" />
<glyph unicode="&#xc5;" horiz-adv-x="1394" d="M891 0l-53 303h-510l-150 -303h-272l647 1286h84q-40 37 -29 98q24 142 248 142q94 0 151.5 -38t45.5 -104q-12 -64 -64 -98h74l229 -1286h-401zM911 1384q3 22 5.5 42.5t-14.5 34.5t-56 14q-50 0 -69.5 -22t-26.5 -69q-3 -23 -5 -43t15 -33.5t55 -13.5q28 0 46.5 7 t28 22t13.5 27t8 34zM420 487h387l-100 582z" />
<glyph unicode="&#xc6;" horiz-adv-x="1810" d="M1862 1286l-33 -184h-610l-62 -346h541l-33 -185h-539l-69 -387h610l-33 -184h-1001l53 303h-356l-187 -303h-284l770 1286h1233zM825 1104l-381 -617h275z" />
<glyph unicode="&#xc7;" horiz-adv-x="1208" d="M1061 262l20 -207q-123 -38 -253 -61t-224 -23q-297 0 -444.5 184t-93.5 490q54 304 265.5 487t506.5 183q93 0 216.5 -23t233.5 -61l-92 -195q-166 76 -289 76q-155 0 -256 -119t-141 -348q-40 -225 18.5 -343t206.5 -118q60 0 150 21.5t176 56.5zM365 -348l30 86 q56 -17 86 -17q49 0 69 15.5t25 44.5t-9.5 45t-65.5 16q-35 0 -90 -18v84q68 18 133 18q107 0 151.5 -36t32.5 -109q-25 -148 -238 -148q-50 0 -124 19z" />
<glyph unicode="&#xc8;" horiz-adv-x="1191" d="M696 1456l-190 223h315l127 -223h-252zM1243 1286l-33 -184h-610l-61 -346h540l-32 -185h-539l-70 -387h611l-33 -184h-1002l226 1286h1003z" />
<glyph unicode="&#xc9;" horiz-adv-x="1191" d="M885 1456h-254l207 223h315zM1243 1286l-33 -184h-610l-61 -346h540l-32 -185h-539l-70 -387h611l-33 -184h-1002l226 1286h1003z" />
<glyph unicode="&#xca;" horiz-adv-x="1191" d="M1114 1456h-229l-84 115l-119 -115h-244l207 223h336zM1243 1286l-33 -184h-610l-61 -346h540l-32 -185h-539l-70 -387h611l-33 -184h-1002l226 1286h1003z" />
<glyph unicode="&#xcb;" horiz-adv-x="1191" d="M760 1679l-41 -223h-268l38 223h271zM1147 1679l-41 -223h-268l39 223h270zM1243 1286l-33 -184h-610l-61 -346h540l-32 -185h-539l-70 -387h611l-33 -184h-1002l226 1286h1003z" />
<glyph unicode="&#xcc;" horiz-adv-x="634" d="M348 1456l-190 223h315l127 -223h-252zM631 1286l-225 -1286h-392l226 1286h391z" />
<glyph unicode="&#xcd;" horiz-adv-x="634" d="M588 1456h-254l207 223h315zM631 1286l-225 -1286h-392l226 1286h391z" />
<glyph unicode="&#xce;" horiz-adv-x="634" d="M811 1456h-229l-84 115l-119 -115h-244l207 223h336zM631 1286l-225 -1286h-392l226 1286h391z" />
<glyph unicode="&#xcf;" horiz-adv-x="634" d="M451 1679l-41 -223h-269l39 223h271zM838 1679l-41 -223h-269l39 223h271zM631 1286l-225 -1286h-392l226 1286h391z" />
<glyph unicode="&#xd0;" horiz-adv-x="1454" d="M53 750h127l94 536h584q294 0 444 -177.5t99 -469.5q-51 -288 -262.5 -463.5t-505.5 -175.5h-584l96 545h-127zM473 184h133q131 0 221.5 118t128.5 337q40 225 -14 344t-194 119h-113l-62 -352h234l-37 -205h-233z" />
<glyph unicode="&#xd1;" horiz-adv-x="1499" d="M1204 1683l33 -143q-54 -47 -103.5 -65.5t-123.5 -18.5q-63 0 -148 23q-82 24 -145 24q-54 0 -91 -12t-77 -41l-35 143q74 56 128 77.5t120 21.5q34 0 57 -4t53.5 -15.5t38.5 -13.5q59 -19 129 -19q58 0 93.5 9t70.5 34zM1262 1286h237l-227 -1286h-506l-340 993 l-174 -993h-238l226 1286h516l334 -979z" />
<glyph unicode="&#xd2;" horiz-adv-x="1511" d="M776 1456l-190 223h315l127 -223h-252zM883 1315q326 0 477 -177t94 -495q-55 -318 -268.5 -495t-540.5 -177t-478.5 177t-96.5 495q57 318 271.5 495t541.5 177zM678 160q138 0 211.5 107t120.5 376q33 178 27 286t-50 154.5t-137 46.5q-140 0 -214.5 -108t-121.5 -379 q-48 -269 -11.5 -376t175.5 -107z" />
<glyph unicode="&#xd3;" horiz-adv-x="1511" d="M1001 1456h-253l206 223h316zM883 1315q326 0 477 -177t94 -495q-55 -318 -268.5 -495t-540.5 -177t-478.5 177t-96.5 495q57 318 271.5 495t541.5 177zM678 160q138 0 211.5 107t120.5 376q33 178 27 286t-50 154.5t-137 46.5q-140 0 -214.5 -108t-121.5 -379 q-48 -269 -11.5 -376t175.5 -107z" />
<glyph unicode="&#xd4;" horiz-adv-x="1511" d="M1247 1456h-229l-84 115l-119 -115h-244l207 223h336zM883 1315q326 0 477 -177t94 -495q-55 -318 -268.5 -495t-540.5 -177t-478.5 177t-96.5 495q57 318 271.5 495t541.5 177zM678 160q138 0 211.5 107t120.5 376q33 178 27 286t-50 154.5t-137 46.5 q-140 0 -214.5 -108t-121.5 -379q-48 -269 -11.5 -376t175.5 -107z" />
<glyph unicode="&#xd5;" horiz-adv-x="1511" d="M1251 1683l33 -143q-54 -47 -103.5 -65.5t-123.5 -18.5q-63 0 -148 23q-82 24 -145 24q-54 0 -91 -12t-77 -41l-35 143q74 56 128 77.5t120 21.5q34 0 57 -4t53.5 -15.5t38.5 -13.5q59 -19 129 -19q58 0 93.5 9t70.5 34zM883 1315q326 0 477 -177t94 -495 q-55 -318 -268.5 -495t-540.5 -177t-478.5 177t-96.5 495q57 318 271.5 495t541.5 177zM678 160q138 0 211.5 107t120.5 376q33 178 27 286t-50 154.5t-137 46.5q-140 0 -214.5 -108t-121.5 -379q-48 -269 -11.5 -376t175.5 -107z" />
<glyph unicode="&#xd6;" horiz-adv-x="1511" d="M887 1679l-41 -223h-268l38 223h271zM1274 1679l-41 -223h-268l39 223h270zM883 1315q326 0 477 -177t94 -495q-55 -318 -268.5 -495t-540.5 -177t-478.5 177t-96.5 495q57 318 271.5 495t541.5 177zM678 160q138 0 211.5 107t120.5 376q33 178 27 286t-50 154.5 t-137 46.5q-140 0 -214.5 -108t-121.5 -379q-48 -269 -11.5 -376t175.5 -107z" />
<glyph unicode="&#xd7;" horiz-adv-x="1044" d="M10 160l340 305l-244 307l164 141l240 -303l338 303l135 -155l-344 -309l242 -306l-164 -143l-240 301l-334 -301z" />
<glyph unicode="&#xd8;" horiz-adv-x="1507" d="M881 1315q257 0 407 -113l90 84h168l-176 -164q137 -179 82 -479q-55 -318 -268.5 -495t-540.5 -177q-249 0 -397 103l-80 -74h-182l172 158q-141 176 -88 485q57 318 271.5 495t541.5 177zM512 643q-20 -113 -25 -178l545 502q-10 86 -54.5 124.5t-129.5 38.5 q-140 0 -214.5 -108t-121.5 -379zM676 160q138 0 211.5 107t120.5 376q17 104 22 162l-538 -502q13 -75 58 -109t126 -34z" />
<glyph unicode="&#xd9;" horiz-adv-x="1468" d="M758 1456l-191 223h316l127 -223h-252zM1085 1286h392l-158 -899q-34 -189 -223.5 -302.5t-472.5 -113.5t-433 113.5t-118 302.5l159 899h392l-172 -973q-12 -72 44.5 -115.5t159.5 -43.5t174.5 43.5t83.5 115.5z" />
<glyph unicode="&#xda;" horiz-adv-x="1468" d="M985 1456h-254l207 223h315zM1085 1286h392l-158 -899q-34 -189 -223.5 -302.5t-472.5 -113.5t-433 113.5t-118 302.5l159 899h392l-172 -973q-12 -72 44.5 -115.5t159.5 -43.5t174.5 43.5t83.5 115.5z" />
<glyph unicode="&#xdb;" horiz-adv-x="1468" d="M1221 1456h-230l-84 115l-119 -115h-243l207 223h335zM1085 1286h392l-158 -899q-34 -189 -223.5 -302.5t-472.5 -113.5t-433 113.5t-118 302.5l159 899h392l-172 -973q-12 -72 44.5 -115.5t159.5 -43.5t174.5 43.5t83.5 115.5z" />
<glyph unicode="&#xdc;" horiz-adv-x="1468" d="M866 1679l-41 -223h-268l39 223h270zM1253 1679l-41 -223h-268l39 223h270zM1085 1286h392l-158 -899q-34 -189 -223.5 -302.5t-472.5 -113.5t-433 113.5t-118 302.5l159 899h392l-172 -973q-12 -72 44.5 -115.5t159.5 -43.5t174.5 43.5t83.5 115.5z" />
<glyph unicode="&#xdd;" horiz-adv-x="1277" d="M981 1456h-254l207 223h315zM1391 1286l-560 -696l-104 -590h-391l100 567l-289 719h439l162 -442l339 442h304z" />
<glyph unicode="&#xde;" horiz-adv-x="1355" d="M651 1286l-41 -227h244q83 0 156 -12t137.5 -40.5t107.5 -70.5t61.5 -105.5t4.5 -142.5q-13 -76 -49.5 -139t-86 -106t-118 -76.5t-137 -53t-153 -33t-155 -19t-153.5 -7.5l-45 -254h-410l226 1286h411zM705 874h-127l-76 -434q48 1 80 3.5t79 9.5t79.5 21.5t65.5 37.5 t54 60t29 85q20 114 -33.5 165.5t-150.5 51.5z" />
<glyph unicode="&#xdf;" horiz-adv-x="1413" d="M1028 709q154 -26 235 -126.5t56 -236.5q-19 -110 -106 -195.5t-224 -132.5t-301 -47q-68 0 -156 9l33 178q82 -4 109 -4q91 0 159 59.5t85 155.5q15 85 -49 145t-183 74l-31 4l-14 2l33 178q88 18 151.5 67t73.5 111q14 74 -29 120t-125 46q-81 0 -137 -41.5t-67 -107.5 l-172 -967h-371l152 860q40 220 199.5 337.5t420.5 117.5q249 0 387.5 -91t112.5 -237q-17 -92 -84 -169t-158 -109z" />
<glyph unicode="&#xe0;" horiz-adv-x="1150" d="M569 1087l-188 228h313l129 -228h-254zM657 942q223 0 328 -91t72 -280l-94 -530q-258 -70 -494 -70q-278 0 -402 74.5t-98 226.5q52 300 693 306h26l14 84q5 26 -5 45.5t-26 29.5t-42 16t-46 7.5t-44 1.5q-168 0 -322 -43l-31 168q229 55 471 55zM496 133q34 0 112 8 l56 301h-29q-50 -2 -88.5 -8.5t-80.5 -23t-69.5 -51t-36.5 -85.5q-12 -75 30 -108t106 -33z" />
<glyph unicode="&#xe1;" horiz-adv-x="1150" d="M778 1087h-252l213 228h314zM657 942q223 0 328 -91t72 -280l-94 -530q-258 -70 -494 -70q-278 0 -402 74.5t-98 226.5q52 300 693 306h26l14 84q5 26 -5 45.5t-26 29.5t-42 16t-46 7.5t-44 1.5q-168 0 -322 -43l-31 168q229 55 471 55zM496 133q34 0 112 8l56 301h-29 q-50 -2 -88.5 -8.5t-80.5 -23t-69.5 -51t-36.5 -85.5q-12 -75 30 -108t106 -33z" />
<glyph unicode="&#xe2;" horiz-adv-x="1150" d="M1018 1087h-242l-78 119l-114 -119h-246l211 228h338zM657 942q223 0 328 -91t72 -280l-94 -530q-258 -70 -494 -70q-278 0 -402 74.5t-98 226.5q52 300 693 306h26l14 84q5 26 -5 45.5t-26 29.5t-42 16t-46 7.5t-44 1.5q-168 0 -322 -43l-31 168q229 55 471 55zM496 133 q34 0 112 8l56 301h-29q-50 -2 -88.5 -8.5t-80.5 -23t-69.5 -51t-36.5 -85.5q-12 -75 30 -108t106 -33z" />
<glyph unicode="&#xe3;" horiz-adv-x="1150" d="M1022 1315l37 -144q-54 -48 -105.5 -67t-126.5 -19q-72 0 -139 23q-6 2 -24 7.5t-27.5 7.5t-26.5 5.5t-34.5 5t-38.5 1.5q-50 0 -87 -12t-79 -42l-37 144q74 55 129.5 76.5t118.5 21.5q34 0 57.5 -4t55 -15.5t38.5 -13.5q52 -18 129 -18q57 0 91.5 9t68.5 34zM657 942 q223 0 328 -91t72 -280l-94 -530q-258 -70 -494 -70q-278 0 -402 74.5t-98 226.5q52 300 693 306h26l14 84q5 26 -5 45.5t-26 29.5t-42 16t-46 7.5t-44 1.5q-168 0 -322 -43l-31 168q229 55 471 55zM496 133q34 0 112 8l56 301h-29q-50 -2 -88.5 -8.5t-80.5 -23t-69.5 -51 t-36.5 -85.5q-12 -75 30 -108t106 -33z" />
<glyph unicode="&#xe4;" horiz-adv-x="1150" d="M664 1286l-35 -199h-232l35 199h232zM1020 1286l-35 -199h-233l34 199h234zM657 942q223 0 328 -91t72 -280l-94 -530q-258 -70 -494 -70q-278 0 -402 74.5t-98 226.5q52 300 693 306h26l14 84q5 26 -5 45.5t-26 29.5t-42 16t-46 7.5t-44 1.5q-168 0 -322 -43l-31 168 q229 55 471 55zM496 133q34 0 112 8l56 301h-29q-50 -2 -88.5 -8.5t-80.5 -23t-69.5 -51t-36.5 -85.5q-12 -75 30 -108t106 -33z" />
<glyph unicode="&#xe5;" horiz-adv-x="1150" d="M942 1260q2 -12 -2 -39q-24 -142 -246 -142q-112 0 -161 35.5t-37 106.5q24 139 247 139q193 0 199 -100zM799 1221q9 51 -5 70.5t-59 19.5q-47 0 -69 -19.5t-31 -70.5q-9 -52 6 -72.5t61 -20.5t67 20.5t30 72.5zM657 942q223 0 328 -91t72 -280l-94 -530 q-258 -70 -494 -70q-278 0 -402 74.5t-98 226.5q52 300 693 306h26l14 84q5 26 -5 45.5t-26 29.5t-42 16t-46 7.5t-44 1.5q-168 0 -322 -43l-31 168q229 55 471 55zM496 133q34 0 112 8l56 301h-29q-50 -2 -88.5 -8.5t-80.5 -23t-69.5 -51t-36.5 -85.5q-12 -75 30 -108 t106 -33z" />
<glyph unicode="&#xe6;" horiz-adv-x="1800" d="M1606 68q-91 -33 -223 -65t-228 -32q-166 0 -278 47q-205 -47 -408 -47q-278 0 -402 74.5t-98 226.5q52 300 693 306h26l14 84q5 26 -5 45.5t-26 29.5t-42 16t-46 7.5t-44 1.5q-168 0 -322 -43l-31 168q229 55 471 55q201 0 304 -72q138 72 327 72q129 0 223.5 -24 t145.5 -65.5t70.5 -92.5t9.5 -109q-11 -61 -41 -111t-70 -84t-96 -59.5t-110.5 -40.5t-123 -24t-125 -12.5t-124.5 -4.5q2 -86 44.5 -123.5t145.5 -37.5q21 0 36 1.5t43 7t52 11t86.5 20.5t122.5 29zM1260 782q-74 0 -122 -75.5t-75 -229.5q133 7 211 46t92 126 q11 67 -14.5 100t-91.5 33zM496 133q79 0 213 29q-63 109 -39 280h-6h-29q-50 -2 -88.5 -8.5t-80.5 -23t-69.5 -51t-36.5 -85.5q-12 -75 30 -108t106 -33z" />
<glyph unicode="&#xe7;" horiz-adv-x="970" d="M27 457q41 229 208 357t422 128q186 0 338 -55l-88 -158q-112 31 -227 31q-105 0 -169.5 -75t-92.5 -228q-26 -150 13.5 -225.5t139.5 -75.5q119 0 240 28l35 -155q-183 -58 -361 -58q-255 0 -376.5 128.5t-81.5 357.5zM229 -348l31 86q56 -17 86 -17q49 0 69 15.5 t25 44.5t-9.5 45t-65.5 16q-35 0 -91 -18v84q68 18 134 18q107 0 151.5 -36t32.5 -109q-25 -148 -238 -148q-51 0 -125 19z" />
<glyph unicode="&#xe8;" horiz-adv-x="1157" d="M571 1087l-188 228h313l129 -228h-254zM963 68q-91 -33 -223 -65t-228 -32q-273 0 -398 126.5t-85 359.5q41 232 201 358.5t415 126.5q129 0 223.5 -24t145.5 -65.5t70.5 -92.5t9.5 -109q-11 -61 -41 -111t-70 -84t-96 -59.5t-111 -40.5t-123.5 -24t-125 -12.5 t-124.5 -4.5q2 -86 45 -123.5t146 -37.5q21 0 36 1.5t43 7t52 11t86.5 20.5t122.5 29zM616 782q-74 0 -121.5 -75.5t-74.5 -229.5q133 7 211 46t92 126q11 67 -14.5 100t-92.5 33z" />
<glyph unicode="&#xe9;" horiz-adv-x="1157" d="M791 1087h-252l213 228h313zM963 68q-91 -33 -223 -65t-228 -32q-273 0 -398 126.5t-85 359.5q41 232 201 358.5t415 126.5q129 0 223.5 -24t145.5 -65.5t70.5 -92.5t9.5 -109q-11 -61 -41 -111t-70 -84t-96 -59.5t-111 -40.5t-123.5 -24t-125 -12.5t-124.5 -4.5 q2 -86 45 -123.5t146 -37.5q21 0 36 1.5t43 7t52 11t86.5 20.5t122.5 29zM616 782q-74 0 -121.5 -75.5t-74.5 -229.5q133 7 211 46t92 126q11 67 -14.5 100t-92.5 33z" />
<glyph unicode="&#xea;" horiz-adv-x="1157" d="M1008 1087h-242l-78 119l-115 -119h-245l211 228h338zM963 68q-91 -33 -223 -65t-228 -32q-273 0 -398 126.5t-85 359.5q41 232 201 358.5t415 126.5q129 0 223.5 -24t145.5 -65.5t70.5 -92.5t9.5 -109q-11 -61 -41 -111t-70 -84t-96 -59.5t-111 -40.5t-123.5 -24 t-125 -12.5t-124.5 -4.5q2 -86 45 -123.5t146 -37.5q21 0 36 1.5t43 7t52 11t86.5 20.5t122.5 29zM616 782q-74 0 -121.5 -75.5t-74.5 -229.5q133 7 211 46t92 126q11 67 -14.5 100t-92.5 33z" />
<glyph unicode="&#xeb;" horiz-adv-x="1157" d="M641 1286l-35 -199h-231l35 199h231zM997 1286l-34 -199h-234l35 199h233zM963 68q-91 -33 -223 -65t-228 -32q-273 0 -398 126.5t-85 359.5q41 232 201 358.5t415 126.5q129 0 223.5 -24t145.5 -65.5t70.5 -92.5t9.5 -109q-11 -61 -41 -111t-70 -84t-96 -59.5 t-111 -40.5t-123.5 -24t-125 -12.5t-124.5 -4.5q2 -86 45 -123.5t146 -37.5q21 0 36 1.5t43 7t52 11t86.5 20.5t122.5 29zM616 782q-74 0 -121.5 -75.5t-74.5 -229.5q133 7 211 46t92 126q11 67 -14.5 100t-92.5 33z" />
<glyph unicode="&#xec;" horiz-adv-x="579" d="M283 1087l-189 228h314l129 -228h-254zM528 913l-161 -913h-369l162 913h368z" />
<glyph unicode="&#xed;" horiz-adv-x="579" d="M496 1087h-252l213 228h313zM528 913l-161 -913h-369l162 913h368z" />
<glyph unicode="&#xee;" horiz-adv-x="579" d="M715 1087h-242l-78 119l-114 -119h-246l211 228h338zM528 913l-161 -913h-369l162 913h368z" />
<glyph unicode="&#xef;" horiz-adv-x="579" d="M348 1286l-35 -199h-231l35 199h231zM705 1286l-35 -199h-234l35 199h234zM528 913l-161 -913h-369l162 913h368z" />
<glyph unicode="&#xf0;" horiz-adv-x="1273" d="M465 -29q-244 0 -361 120.5t-79 332.5q32 189 171 296t353 107q185 0 293 -102q15 139 10 209l-170 -57l-23 127l156 51q-49 75 -176 75q-156 0 -336 -63l-24 164q245 84 430 84q262 0 399 -162l162 53l20 -127l-116 -39q75 -182 26 -454q-54 -305 -239.5 -460 t-495.5 -155zM610 641q-89 0 -148.5 -57t-78.5 -160q-23 -129 13.5 -201.5t125.5 -72.5q101 0 171 72.5t93 201.5q19 103 -28 160t-148 57z" />
<glyph unicode="&#xf1;" horiz-adv-x="1226" d="M1030 1315l37 -144q-54 -48 -105.5 -67t-125.5 -19q-73 0 -140 23q-6 2 -24 7.5t-27.5 7.5t-26.5 5.5t-34.5 5t-38.5 1.5q-50 0 -87 -12t-79 -42l-37 144q74 55 129.5 76.5t118.5 21.5q34 0 57.5 -4t55 -15.5t38.5 -13.5q52 -18 129 -18q57 0 91.5 9t68.5 34zM1024 0 h-369l117 662q18 100 -158 100q-46 0 -122 -21l-130 -741h-368l143 819q267 123 598 123q231 0 328 -85.5t65 -262.5z" />
<glyph unicode="&#xf2;" horiz-adv-x="1251" d="M627 1087l-189 228h314l129 -228h-254zM1171 457q-43 -245 -205.5 -365.5t-451.5 -120.5q-288 0 -408 120.5t-77 365.5t205.5 365t451.5 120q288 0 408 -120t77 -365zM780 457q30 180 2 252.5t-125 72.5q-101 0 -153 -72t-84 -253q-30 -180 -1.5 -253t124.5 -73 q102 0 153 72t84 254z" />
<glyph unicode="&#xf3;" horiz-adv-x="1251" d="M813 1087h-252l213 228h313zM1171 457q-43 -245 -205.5 -365.5t-451.5 -120.5q-288 0 -408 120.5t-77 365.5t205.5 365t451.5 120q288 0 408 -120t77 -365zM780 457q30 180 2 252.5t-125 72.5q-101 0 -153 -72t-84 -253q-30 -180 -1.5 -253t124.5 -73q102 0 153 72 t84 254z" />
<glyph unicode="&#xf4;" horiz-adv-x="1251" d="M1051 1087h-242l-78 119l-115 -119h-245l211 228h338zM1171 457q-43 -245 -205.5 -365.5t-451.5 -120.5q-288 0 -408 120.5t-77 365.5t205.5 365t451.5 120q288 0 408 -120t77 -365zM780 457q30 180 2 252.5t-125 72.5q-101 0 -153 -72t-84 -253q-30 -180 -1.5 -253 t124.5 -73q102 0 153 72t84 254z" />
<glyph unicode="&#xf5;" horiz-adv-x="1251" d="M1057 1317l37 -143q-55 -48 -106.5 -67.5t-125.5 -19.5q-72 0 -139 23q-6 2 -24.5 7.5t-28 7.5t-26.5 5.5t-34.5 5t-38.5 1.5q-50 0 -86.5 -12t-78.5 -42l-37 144q74 55 129.5 76.5t117.5 21.5q27 0 50 -3.5t36 -7.5t34 -11.5t32 -10.5q52 -18 129 -18q57 0 91.5 9 t68.5 34zM1171 459q-43 -245 -205.5 -365.5t-451.5 -120.5q-288 0 -408 120.5t-77 365.5t205.5 365t451.5 120q288 0 408 -120t77 -365zM780 459q30 180 2 252.5t-125 72.5q-101 0 -153 -72t-84 -253q-30 -180 -1.5 -253t124.5 -73q102 0 153 72t84 254z" />
<glyph unicode="&#xf6;" horiz-adv-x="1251" d="M684 1286l-35 -199h-231l35 199h231zM1040 1286l-34 -199h-234l35 199h233zM1171 457q-43 -245 -205.5 -365.5t-451.5 -120.5q-288 0 -408 120.5t-77 365.5t205.5 365t451.5 120q288 0 408 -120t77 -365zM780 457q30 180 2 252.5t-125 72.5q-101 0 -153 -72t-84 -253 q-30 -180 -1.5 -253t124.5 -73q102 0 153 72t84 254z" />
<glyph unicode="&#xf7;" horiz-adv-x="962" d="M317 655l43 242h340l-43 -242h-340zM4 350l39 219h864l-39 -219h-864zM207 25l41 239h342l-43 -239h-340z" />
<glyph unicode="&#xf8;" horiz-adv-x="1251" d="M1171 457q-43 -245 -205.5 -365.5t-451.5 -120.5q-232 0 -356 80l-66 -51h-147l143 111q-100 121 -59 346q43 245 205.5 365t451.5 120q239 0 367 -84l71 55h136l-146 -114q97 -118 57 -342zM420 457q-9 -55 -12 -99l387 299q-7 66 -41 95.5t-97 29.5q-101 0 -153 -72 t-84 -253zM780 457q11 59 13 92l-385 -303q9 -60 42 -87.5t93 -27.5q102 0 153 72t84 254z" />
<glyph unicode="&#xf9;" horiz-adv-x="1228" d="M618 1087l-188 228h313l129 -228h-254zM150 913h368l-112 -641q-10 -63 26 -91.5t127 -28.5q63 0 125 22l131 739h369l-144 -817q-270 -125 -598 -125q-236 0 -332 84t-65 264z" />
<glyph unicode="&#xfa;" horiz-adv-x="1228" d="M811 1087h-252l213 228h313zM150 913h368l-112 -641q-10 -63 26 -91.5t127 -28.5q63 0 125 22l131 739h369l-144 -817q-270 -125 -598 -125q-236 0 -332 84t-65 264z" />
<glyph unicode="&#xfb;" horiz-adv-x="1228" d="M1036 1087h-241l-78 119l-115 -119h-246l211 228h338zM150 913h368l-112 -641q-10 -63 26 -91.5t127 -28.5q63 0 125 22l131 739h369l-144 -817q-270 -125 -598 -125q-236 0 -332 84t-65 264z" />
<glyph unicode="&#xfc;" horiz-adv-x="1228" d="M668 1286l-35 -199h-232l35 199h232zM1024 1286l-35 -199h-233l35 199h233zM150 913h368l-112 -641q-10 -63 26 -91.5t127 -28.5q63 0 125 22l131 739h369l-144 -817q-270 -125 -598 -125q-236 0 -332 84t-65 264z" />
<glyph unicode="&#xfd;" horiz-adv-x="1079" d="M770 1087h-252l213 228h313zM1139 913l-811 -1341h-338l280 446l-213 895h389l93 -495l295 495h305z" />
<glyph unicode="&#xfe;" horiz-adv-x="1196" d="M129 774l94 533h365l-66 -369q74 4 107 4q281 0 404.5 -123t80.5 -362q-41 -239 -183 -362.5t-374 -123.5q-92 0 -197 27l-73 -426h-369zM723 457q29 173 0.5 249t-117.5 76q-60 0 -112 -28l-105 -596q7 -2 26.5 -8.5t28 -9t24.5 -5t32 -2.5q83 0 138 77t85 247z" />
<glyph unicode="&#xff;" horiz-adv-x="1079" d="M643 1286l-35 -199h-231l35 199h231zM999 1286l-34 -199h-234l35 199h233zM1139 913l-811 -1341h-338l280 446l-213 895h389l93 -495l295 495h305z" />
<glyph unicode="&#x100;" horiz-adv-x="1394" d="M516 1456l39 223h614l-39 -223h-614zM891 0l-53 303h-510l-150 -303h-272l647 1286h510l229 -1286h-401zM420 487h387l-100 582z" />
<glyph unicode="&#x101;" horiz-adv-x="1150" d="M379 1087l35 199h614l-35 -199h-614zM657 942q223 0 328 -91t72 -280l-94 -530q-258 -70 -494 -70q-278 0 -402 74.5t-98 226.5q52 300 693 306h26l14 84q5 26 -5 45.5t-26 29.5t-42 16t-46 7.5t-44 1.5q-168 0 -322 -43l-31 168q229 55 471 55zM496 133q34 0 112 8 l56 301h-29q-50 -2 -88.5 -8.5t-80.5 -23t-69.5 -51t-36.5 -85.5q-12 -75 30 -108t106 -33z" />
<glyph unicode="&#x102;" horiz-adv-x="1394" d="M1214 1741q-31 -69 -60 -116t-71 -90.5t-99 -65t-130 -21.5q-78 0 -132 21t-84 62t-43 91.5t-15 118.5h116q19 -53 66.5 -79t109.5 -26q128 0 205 105h137zM891 0l-53 303h-510l-150 -303h-272l647 1286h510l229 -1286h-401zM420 487h387l-100 582z" />
<glyph unicode="&#x103;" horiz-adv-x="1150" d="M1069 1372q-31 -69 -60.5 -116t-73 -90.5t-102 -65t-133.5 -21.5q-146 0 -204.5 76t-61.5 217h117q38 -104 176 -104q150 0 227 104h115zM657 942q223 0 328 -91t72 -280l-94 -530q-258 -70 -494 -70q-278 0 -402 74.5t-98 226.5q52 300 693 306h26l14 84q5 26 -5 45.5 t-26 29.5t-42 16t-46 7.5t-44 1.5q-168 0 -322 -43l-31 168q229 55 471 55zM496 133q34 0 112 8l56 301h-29q-50 -2 -88.5 -8.5t-80.5 -23t-69.5 -51t-36.5 -85.5q-12 -75 30 -108t106 -33z" />
<glyph unicode="&#x104;" horiz-adv-x="1394" d="M891 0l-53 303h-510l-150 -303h-272l647 1286h510l229 -1286h-73q-142 -127 -162 -233q-6 -36 15.5 -55t70.5 -19h164l-23 -125q-113 -25 -250 -25q-126 0 -176 45t-33 140q10 57 64.5 130.5t169.5 141.5h-168zM420 487h387l-100 582z" />
<glyph unicode="&#x105;" horiz-adv-x="1153" d="M657 942q223 0 328 -91t72 -280l-94 -530q-17 -4 -48.5 -12.5t-48.5 -12.5q-162 -137 -182 -249q-6 -36 15.5 -55t70.5 -19h164l-23 -125q-112 -25 -249 -25q-126 0 -176 45t-33 140q6 33 22.5 68.5t64 88.5t117.5 97q-112 -11 -188 -11q-278 0 -402 74.5t-98 226.5 q52 300 693 306h26l14 84q5 26 -5 45.5t-26 29.5t-42 16t-46 7.5t-44 1.5q-168 0 -322 -43l-31 168q229 55 471 55zM496 133q34 0 112 8l56 301h-29q-50 -2 -88.5 -8.5t-80.5 -23t-69.5 -51t-36.5 -85.5q-12 -75 30 -108t106 -33z" />
<glyph unicode="&#x106;" horiz-adv-x="1208" d="M950 1456h-254l207 223h316zM1061 262l20 -207q-123 -38 -253 -61t-224 -23q-297 0 -444.5 184t-93.5 490q54 304 265.5 487t506.5 183q93 0 216.5 -23t233.5 -61l-92 -195q-166 76 -289 76q-155 0 -256 -119t-141 -348q-40 -225 18.5 -343t206.5 -118q60 0 150 21.5 t176 56.5z" />
<glyph unicode="&#x107;" horiz-adv-x="970" d="M729 1087h-252l213 228h314zM27 457q41 229 208 357t422 128q186 0 338 -55l-88 -158q-112 31 -227 31q-105 0 -169.5 -75t-92.5 -228q-26 -150 13.5 -225.5t139.5 -75.5q119 0 240 28l35 -155q-183 -58 -361 -58q-255 0 -376.5 128.5t-81.5 357.5z" />
<glyph unicode="&#x108;" horiz-adv-x="1208" d="M1194 1456h-229l-84 115l-119 -115h-244l207 223h336zM1061 262l20 -207q-123 -38 -253 -61t-224 -23q-297 0 -444.5 184t-93.5 490q54 304 265.5 487t506.5 183q93 0 216.5 -23t233.5 -61l-92 -195q-166 76 -289 76q-155 0 -256 -119t-141 -348q-40 -225 18.5 -343 t206.5 -118q60 0 150 21.5t176 56.5z" />
<glyph unicode="&#x109;" horiz-adv-x="970" d="M981 1087h-242l-77 119l-115 -119h-246l211 228h338zM27 457q41 229 208 357t422 128q186 0 338 -55l-88 -158q-112 31 -227 31q-105 0 -169.5 -75t-92.5 -228q-26 -150 13.5 -225.5t139.5 -75.5q119 0 240 28l35 -155q-183 -58 -361 -58q-255 0 -376.5 128.5 t-81.5 357.5z" />
<glyph unicode="&#x10a;" horiz-adv-x="1208" d="M610 1456l39 223h391l-39 -223h-391zM1061 262l20 -207q-123 -38 -253 -61t-224 -23q-297 0 -444.5 184t-93.5 490q54 304 265.5 487t506.5 183q93 0 216.5 -23t233.5 -61l-92 -195q-166 76 -289 76q-155 0 -256 -119t-141 -348q-40 -225 18.5 -343t206.5 -118 q60 0 150 21.5t176 56.5z" />
<glyph unicode="&#x10b;" horiz-adv-x="970" d="M821 1315l-39 -219h-366l37 219h368zM27 457q41 229 208 357t422 128q186 0 338 -55l-88 -158q-112 31 -227 31q-105 0 -169.5 -75t-92.5 -228q-26 -150 13.5 -225.5t139.5 -75.5q119 0 240 28l35 -155q-183 -58 -361 -58q-255 0 -376.5 128.5t-81.5 357.5z" />
<glyph unicode="&#x10c;" horiz-adv-x="1208" d="M1225 1679l-209 -223h-336l-129 223h244l75 -110l103 110h252zM1061 262l20 -207q-123 -38 -253 -61t-224 -23q-297 0 -444.5 184t-93.5 490q54 304 265.5 487t506.5 183q93 0 216.5 -23t233.5 -61l-92 -195q-166 76 -289 76q-155 0 -256 -119t-141 -348 q-40 -225 18.5 -343t206.5 -118q60 0 150 21.5t176 56.5z" />
<glyph unicode="&#x10d;" horiz-adv-x="970" d="M1012 1315l-211 -228h-340l-129 228h246l71 -117l109 117h254zM27 457q41 229 208 357t422 128q186 0 338 -55l-88 -158q-112 31 -227 31q-105 0 -169.5 -75t-92.5 -228q-26 -150 13.5 -225.5t139.5 -75.5q119 0 240 28l35 -155q-183 -58 -361 -58q-255 0 -376.5 128.5 t-81.5 357.5z" />
<glyph unicode="&#x10e;" horiz-adv-x="1417" d="M1184 1679l-209 -223h-336l-129 223h244l75 -110l103 110h252zM240 1286h583q294 0 444 -177.5t99 -469.5q-51 -288 -262.5 -463.5t-505.5 -175.5h-584zM438 184h133q132 0 222.5 118t128.5 337q40 225 -14.5 344t-194.5 119h-113z" />
<glyph unicode="&#x10f;" horiz-adv-x="1433" d="M1438 858h-199l121 428h313zM1001 41q-249 -70 -485 -70q-282 0 -405 123t-82 363q43 239 184.5 362t374.5 123q99 0 198 -24l66 368h369zM543 131q67 0 110 29l105 596q-77 26 -154 26q-73 0 -111.5 -69t-72.5 -256q-31 -187 -4.5 -256.5t127.5 -69.5z" />
<glyph unicode="&#x110;" horiz-adv-x="1454" d="M53 750h127l94 536h584q294 0 444 -177.5t99 -469.5q-51 -288 -262.5 -463.5t-505.5 -175.5h-584l96 545h-127zM473 184h133q131 0 221.5 118t128.5 337q40 225 -14 344t-194 119h-113l-62 -352h234l-37 -205h-233z" />
<glyph unicode="&#x111;" horiz-adv-x="1200" d="M1001 41q-249 -70 -485 -70q-282 0 -405 123t-82 363q43 239 184.5 362t374.5 123q99 0 198 -24l23 129h-313l22 124h313l21 115h369l-21 -115h119l-23 -124h-118zM543 131q67 0 110 29l105 596q-77 26 -154 26q-73 0 -111.5 -69t-72.5 -256q-31 -187 -4.5 -256.5 t127.5 -69.5z" />
<glyph unicode="&#x112;" horiz-adv-x="1191" d="M459 1456l39 223h614l-39 -223h-614zM1243 1286l-33 -184h-610l-61 -346h540l-32 -185h-539l-70 -387h611l-33 -184h-1002l226 1286h1003z" />
<glyph unicode="&#x113;" horiz-adv-x="1157" d="M360 1087l35 199h615l-35 -199h-615zM963 68q-91 -33 -223 -65t-228 -32q-273 0 -398 126.5t-85 359.5q41 232 201 358.5t415 126.5q129 0 223.5 -24t145.5 -65.5t70.5 -92.5t9.5 -109q-11 -61 -41 -111t-70 -84t-96 -59.5t-111 -40.5t-123.5 -24t-125 -12.5t-124.5 -4.5 q2 -86 45 -123.5t146 -37.5q21 0 36 1.5t43 7t52 11t86.5 20.5t122.5 29zM616 782q-74 0 -121.5 -75.5t-74.5 -229.5q133 7 211 46t92 126q11 67 -14.5 100t-92.5 33z" />
<glyph unicode="&#x114;" horiz-adv-x="1191" d="M1133 1741q-25 -55 -47 -94.5t-54 -79t-67.5 -64t-84.5 -40t-108 -15.5q-78 0 -132 21t-84 62t-43 91.5t-15 118.5h116q19 -53 67 -79t110 -26q127 0 204 105h138zM1243 1286l-33 -184h-610l-61 -346h540l-32 -185h-539l-70 -387h611l-33 -184h-1002l226 1286h1003z" />
<glyph unicode="&#x115;" horiz-adv-x="1157" d="M1055 1372q-31 -69 -60.5 -116t-73 -90.5t-102 -65t-133.5 -21.5q-146 0 -204.5 76t-61.5 217h117q38 -104 176 -104q150 0 227 104h115zM963 68q-91 -33 -223 -65t-228 -32q-273 0 -398 126.5t-85 359.5q41 232 201 358.5t415 126.5q129 0 223.5 -24t145.5 -65.5 t70.5 -92.5t9.5 -109q-11 -61 -41 -111t-70 -84t-96 -59.5t-111 -40.5t-123.5 -24t-125 -12.5t-124.5 -4.5q2 -86 45 -123.5t146 -37.5q21 0 36 1.5t43 7t52 11t86.5 20.5t122.5 29zM616 782q-74 0 -121.5 -75.5t-74.5 -229.5q133 7 211 46t92 126q11 67 -14.5 100t-92.5 33 z" />
<glyph unicode="&#x116;" horiz-adv-x="1191" d="M580 1456l38 223h392l-39 -223h-391zM1243 1286l-33 -184h-610l-61 -346h540l-32 -185h-539l-70 -387h611l-33 -184h-1002l226 1286h1003z" />
<glyph unicode="&#x117;" horiz-adv-x="1157" d="M915 1315l-38 -219h-367l37 219h368zM963 68q-91 -33 -223 -65t-228 -32q-273 0 -398 126.5t-85 359.5q41 232 201 358.5t415 126.5q129 0 223.5 -24t145.5 -65.5t70.5 -92.5t9.5 -109q-11 -61 -41 -111t-70 -84t-96 -59.5t-111 -40.5t-123.5 -24t-125 -12.5t-124.5 -4.5 q2 -86 45 -123.5t146 -37.5q21 0 36 1.5t43 7t52 11t86.5 20.5t122.5 29zM616 782q-74 0 -121.5 -75.5t-74.5 -229.5q133 7 211 46t92 126q11 67 -14.5 100t-92.5 33z" />
<glyph unicode="&#x118;" horiz-adv-x="1191" d="M1243 1286l-33 -184h-610l-61 -346h540l-32 -185h-539l-70 -387h611l-33 -184h-82q-142 -127 -162 -233q-6 -36 15.5 -55t70.5 -19h164l-23 -125q-113 -25 -249 -25q-126 0 -176 45t-33 140q10 57 64 130.5t169 141.5h-760l226 1286h1003z" />
<glyph unicode="&#x119;" horiz-adv-x="1157" d="M795 -432q-113 -25 -250 -25q-126 0 -176 45t-33 140q8 50 51.5 115t136.5 128h-12q-273 0 -398 126.5t-85 359.5q41 232 201 358.5t415 126.5q129 0 223.5 -24t145.5 -65.5t70.5 -92.5t9.5 -109q-11 -61 -41 -111t-70 -84t-96 -59.5t-111 -40.5t-123.5 -24t-125 -12.5 t-124.5 -4.5q2 -86 45 -123.5t146 -37.5q21 0 36 1.5t43 7t52 11t86.5 20.5t122.5 29l29 -155q-92 -34 -232 -68q-144 -125 -164 -233q-6 -36 15.5 -55t70.5 -19h164zM616 782q-74 0 -121.5 -75.5t-74.5 -229.5q133 7 211 46t92 126q11 67 -14.5 100t-92.5 33z" />
<glyph unicode="&#x11a;" horiz-adv-x="1191" d="M1145 1679l-209 -223h-336l-129 223h244l76 -110l102 110h252zM1243 1286l-33 -184h-610l-61 -346h540l-32 -185h-539l-70 -387h611l-33 -184h-1002l226 1286h1003z" />
<glyph unicode="&#x11b;" horiz-adv-x="1157" d="M1047 1315l-211 -228h-340l-129 228h245l72 -117l109 117h254zM963 68q-91 -33 -223 -65t-228 -32q-273 0 -398 126.5t-85 359.5q41 232 201 358.5t415 126.5q129 0 223.5 -24t145.5 -65.5t70.5 -92.5t9.5 -109q-11 -61 -41 -111t-70 -84t-96 -59.5t-111 -40.5 t-123.5 -24t-125 -12.5t-124.5 -4.5q2 -86 45 -123.5t146 -37.5q21 0 36 1.5t43 7t52 11t86.5 20.5t122.5 29zM616 782q-74 0 -121.5 -75.5t-74.5 -229.5q133 7 211 46t92 126q11 67 -14.5 100t-92.5 33z" />
<glyph unicode="&#x11c;" horiz-adv-x="1314" d="M1192 1456h-229l-84 115l-119 -115h-244l207 223h336zM877 684h378l-118 -668q-7 -1 -58.5 -10.5t-80.5 -13t-88 -10t-131 -9t-161 -2.5q-324 0 -465 165t-81 505q62 349 247.5 511.5t524.5 162.5q202 0 446 -86l-88 -193q-166 72 -291 72q-149 0 -252 -122t-143 -345 q-39 -225 12.5 -351t178.5 -126h77l60 338z" />
<glyph unicode="&#x11d;" horiz-adv-x="1204" d="M1053 1087h-242l-78 119l-115 -119h-245l211 228h338zM1149 874l-150 -841q-87 -490 -659 -490q-162 0 -369 97l84 157q213 -71 316 -71q86 0 154.5 60.5t90.5 182.5l5 27q-125 -25 -207 -25q-238 0 -333 120t-52 366t204.5 365.5t450.5 119.5q239 0 465 -68zM508 133 q39 0 145 25l105 596q-38 28 -105 28q-94 0 -148 -76.5t-85 -248.5q-32 -170 -13.5 -247t101.5 -77z" />
<glyph unicode="&#x11e;" horiz-adv-x="1314" d="M1221 1741q-25 -55 -47 -94.5t-54 -79t-67.5 -64t-84.5 -40t-108 -15.5q-78 0 -132 21t-84 62t-43 91.5t-15 118.5h116q19 -53 67 -79t110 -26q127 0 204 105h138zM877 684h378l-118 -668q-7 -1 -58.5 -10.5t-80.5 -13t-88 -10t-131 -9t-161 -2.5q-324 0 -465 165 t-81 505q62 349 247.5 511.5t524.5 162.5q202 0 446 -86l-88 -193q-166 72 -291 72q-149 0 -252 -122t-143 -345q-39 -225 12.5 -351t178.5 -126h77l60 338z" />
<glyph unicode="&#x11f;" horiz-adv-x="1204" d="M1067 1372q-31 -69 -60.5 -116t-73 -90.5t-102 -65t-133.5 -21.5q-146 0 -204.5 76t-61.5 217h117q38 -104 176 -104q150 0 227 104h115zM1149 874l-150 -841q-87 -490 -659 -490q-162 0 -369 97l84 157q213 -71 316 -71q86 0 154.5 60.5t90.5 182.5l5 27 q-125 -25 -207 -25q-238 0 -333 120t-52 366t204.5 365.5t450.5 119.5q239 0 465 -68zM508 133q39 0 145 25l105 596q-38 28 -105 28q-94 0 -148 -76.5t-85 -248.5q-32 -170 -13.5 -247t101.5 -77z" />
<glyph unicode="&#x120;" horiz-adv-x="1314" d="M633 1456l39 223h391l-39 -223h-391zM877 684h378l-118 -668q-7 -1 -58.5 -10.5t-80.5 -13t-88 -10t-131 -9t-161 -2.5q-324 0 -465 165t-81 505q62 349 247.5 511.5t524.5 162.5q202 0 446 -86l-88 -193q-166 72 -291 72q-149 0 -252 -122t-143 -345q-39 -225 12.5 -351 t178.5 -126h77l60 338z" />
<glyph unicode="&#x121;" horiz-adv-x="1204" d="M909 1315l-39 -219h-366l37 219h368zM1149 874l-150 -841q-87 -490 -659 -490q-162 0 -369 97l84 157q213 -71 316 -71q86 0 154.5 60.5t90.5 182.5l5 27q-125 -25 -207 -25q-238 0 -333 120t-52 366t204.5 365.5t450.5 119.5q239 0 465 -68zM508 133q39 0 145 25 l105 596q-38 28 -105 28q-94 0 -148 -76.5t-85 -248.5q-32 -170 -13.5 -247t101.5 -77z" />
<glyph unicode="&#x122;" horiz-adv-x="1314" d="M877 684h378l-118 -668q-7 -1 -58.5 -10.5t-80.5 -13t-88 -10t-131 -9t-161 -2.5q-324 0 -465 165t-81 505q62 349 247.5 511.5t524.5 162.5q202 0 446 -86l-88 -193q-166 72 -291 72q-149 0 -252 -122t-143 -345q-39 -225 12.5 -351t178.5 -126h77l60 338zM526 -567 h-196l121 428h313z" />
<glyph unicode="&#x123;" horiz-adv-x="1204" d="M784 1503h197l-119 -430h-315zM1149 874l-150 -841q-87 -490 -659 -490q-162 0 -369 97l84 157q213 -71 316 -71q86 0 154.5 60.5t90.5 182.5l5 27q-125 -25 -207 -25q-238 0 -333 120t-52 366t204.5 365.5t450.5 119.5q239 0 465 -68zM508 133q39 0 145 25l105 596 q-38 28 -105 28q-94 0 -148 -76.5t-85 -248.5q-32 -170 -13.5 -247t101.5 -77z" />
<glyph unicode="&#x124;" horiz-adv-x="1454" d="M1219 1456h-230l-84 115l-119 -115h-243l207 223h335zM969 756l94 530h391l-227 -1286h-391l102 573h-432l-100 -573h-392l226 1286h391l-92 -530h430z" />
<glyph unicode="&#x125;" horiz-adv-x="1230" d="M1116 1456h-229l-84 115l-119 -115h-244l207 223h336zM1028 0h-369l117 662q9 51 -30 75.5t-128 24.5q-50 0 -120 -21l-131 -741h-369l227 1286h369l-70 -395q119 51 230 51q223 0 316.5 -85.5t62.5 -262.5z" />
<glyph unicode="&#x126;" horiz-adv-x="1546" d="M92 952l25 146h135l33 188h391l-33 -188h432l33 188h391l-33 -188h136l-25 -146h-137l-168 -952h-391l102 573h-432l-100 -573h-392l166 952h-133zM1014 756l35 196h-431l-34 -196h430z" />
<glyph unicode="&#x127;" horiz-adv-x="1230" d="M1028 0h-369l117 662q9 51 -30 75.5t-128 24.5q-50 0 -120 -21l-131 -741h-369l182 1032h-129l23 125h129l22 129h369l-23 -129h312l-23 -125h-311l-25 -141q119 51 230 51q223 0 316.5 -85.5t62.5 -262.5z" />
<glyph unicode="&#x128;" horiz-adv-x="634" d="M801 1683l33 -143q-54 -47 -104 -65.5t-124 -18.5q-62 0 -147 23q-82 24 -146 24q-54 0 -91 -12t-77 -41l-34 143q74 56 127.5 77.5t119.5 21.5q34 0 57 -4t54.5 -15.5t38.5 -13.5q59 -19 129 -19q58 0 93.5 9t70.5 34zM631 1286l-225 -1286h-392l226 1286h391z" />
<glyph unicode="&#x129;" horiz-adv-x="579" d="M721 1315l37 -144q-54 -48 -105.5 -67t-126.5 -19q-72 0 -139 23q-6 2 -24 7.5t-27.5 7.5t-26.5 5.5t-34.5 5t-38.5 1.5q-50 0 -87 -12t-79 -42l-37 144q74 55 129.5 76.5t118.5 21.5q34 0 57.5 -4t55 -15.5t38.5 -13.5q52 -18 129 -18q57 0 91.5 9t68.5 34zM528 913 l-161 -913h-369l162 913h368z" />
<glyph unicode="&#x12a;" horiz-adv-x="634" d="M162 1456l39 223h614l-39 -223h-614zM631 1286l-225 -1286h-392l226 1286h391z" />
<glyph unicode="&#x12b;" horiz-adv-x="579" d="M68 1087l34 199h615l-35 -199h-614zM528 913l-161 -913h-369l162 913h368z" />
<glyph unicode="&#x12c;" horiz-adv-x="634" d="M838 1741q-25 -55 -47 -94.5t-54 -79t-67.5 -64t-84.5 -40t-108 -15.5q-78 0 -132 21t-84 62t-43 91.5t-15 118.5h116q19 -53 67 -79t110 -26q127 0 204 105h138zM631 1286l-225 -1286h-392l226 1286h391z" />
<glyph unicode="&#x12d;" horiz-adv-x="579" d="M743 1372q-31 -69 -60.5 -116t-72.5 -90.5t-101.5 -65t-133.5 -21.5q-146 0 -204.5 76t-61.5 217h116q38 -104 176 -104q151 0 228 104h114zM528 913l-161 -913h-369l162 913h368z" />
<glyph unicode="&#x12e;" horiz-adv-x="632" d="M631 1286l-225 -1286h-72q-142 -127 -162 -233q-6 -36 15.5 -55t70.5 -19h164l-23 -125q-113 -25 -249 -25q-126 0 -176 45t-33 140q10 57 64 130.5t169 141.5h-160l226 1286h391z" />
<glyph unicode="&#x12f;" horiz-adv-x="579" d="M594 1286l-35 -199h-369l35 199h369zM528 913l-161 -913h-60q-137 -121 -157 -229q-6 -36 15.5 -55t70.5 -19h163l-22 -125q-113 -25 -250 -25q-126 0 -176 45t-33 140q4 24 16.5 52t36.5 64.5t69 76.5t105 75h-147l162 913h368z" />
<glyph unicode="&#x130;" horiz-adv-x="634" d="M272 1456l39 223h391l-38 -223h-392zM631 1286l-225 -1286h-392l226 1286h391z" />
<glyph unicode="&#x131;" horiz-adv-x="579" d="M528 913l-161 -913h-369l162 913h368z" />
<glyph unicode="&#x132;" horiz-adv-x="1286" d="M631 1286l-225 -1286h-392l226 1286h391zM897 1286h391l-227 -1284q-35 -201 -224.5 -314t-494.5 -116h-4l31 184h12q115 0 188.5 42t85.5 116z" />
<glyph unicode="&#x133;" horiz-adv-x="1175" d="M594 1286l-35 -199h-369l35 199h369zM1190 1286l-35 -199h-369l35 199h369zM528 913l-161 -913h-369l162 913h368zM1124 913l-184 -1038q-58 -332 -440 -332q-91 0 -180 22.5t-140 55.5l117 146q59 -25 162 -25q51 0 74.5 26t33.5 78l189 1067h368z" />
<glyph unicode="&#x134;" horiz-adv-x="653" d="M813 1456h-229l-84 115l-119 -115h-244l207 223h336zM262 1286h391l-227 -1284q-35 -201 -224.5 -314t-494.5 -116h-4l31 184h12q115 0 188.5 42t85.5 116z" />
<glyph unicode="&#x135;" horiz-adv-x="598" d="M713 1087h-230l-84 115l-118 -115h-244l207 224h336zM547 913l-185 -1038q-58 -332 -442 -332q-91 0 -179.5 22.5t-139.5 55.5l116 146q59 -25 162 -25q52 0 75.5 26.5t33.5 77.5l188 1067h371z" />
<glyph unicode="&#x136;" horiz-adv-x="1429" d="M1366 0h-438l-353 598h-65l-104 -598h-392l226 1286h391l-90 -504h73l469 504h439l-582 -602zM555 -567h-197l121 428h314z" />
<glyph unicode="&#x137;" horiz-adv-x="1202" d="M436 379l-67 -379h-371l227 1286h371l-127 -723h59l301 350h416l-403 -434l284 -479h-399l-211 379h-80zM410 -567h-197l121 428h313z" />
<glyph unicode="&#x138;" horiz-adv-x="1202" d="M436 379l-67 -379h-371l162 913h370l-61 -350h59l301 350h416l-403 -434l284 -479h-399l-211 379h-80z" />
<glyph unicode="&#x139;" horiz-adv-x="1155" d="M606 1456h-254l207 223h315zM438 184h613l-33 -184h-1004l226 1286h391z" />
<glyph unicode="&#x13a;" horiz-adv-x="581" d="M575 1456h-253l206 223h316zM369 0h-371l219 1239l387 94z" />
<glyph unicode="&#x13b;" horiz-adv-x="1155" d="M438 184h613l-33 -184h-1004l226 1286h391zM403 -567h-196l121 428h313z" />
<glyph unicode="&#x13c;" horiz-adv-x="581" d="M369 0h-371l219 1239l387 94zM82 -567h-197l121 428h313z" />
<glyph unicode="&#x13d;" horiz-adv-x="1163" d="M954 858h-198l121 428h313zM438 184h613l-33 -184h-1004l226 1286h391z" />
<glyph unicode="&#x13e;" horiz-adv-x="825" d="M369 0h-371l219 1239l387 94zM827 858h-198l121 428h313z" />
<glyph unicode="&#x141;" horiz-adv-x="1232" d="M16 401l35 195l156 59l110 631h392l-88 -502l204 90l-32 -194l-205 -90l-72 -406h612l-32 -184h-1004l80 461z" />
<glyph unicode="&#x142;" horiz-adv-x="759" d="M18 418l33 194l152 58l100 569l387 94l-98 -553l162 60l-33 -195l-164 -59l-102 -586h-371l84 473z" />
<glyph unicode="&#x143;" horiz-adv-x="1499" d="M1030 1456h-254l207 223h315zM1262 1286h237l-227 -1286h-506l-340 993l-174 -993h-238l226 1286h516l334 -979z" />
<glyph unicode="&#x144;" horiz-adv-x="1226" d="M797 1087h-252l213 228h313zM1024 0h-369l117 662q18 100 -158 100q-46 0 -122 -21l-130 -741h-368l143 819q267 123 598 123q231 0 328 -85.5t65 -262.5z" />
<glyph unicode="&#x145;" horiz-adv-x="1499" d="M1262 1286h237l-227 -1286h-506l-340 993l-174 -993h-238l226 1286h516l334 -979zM569 -567h-196l121 428h313z" />
<glyph unicode="&#x146;" horiz-adv-x="1226" d="M1024 0h-369l117 662q18 100 -158 100q-46 0 -122 -21l-130 -741h-368l143 819q267 123 598 123q231 0 328 -85.5t65 -262.5zM408 -567h-197l121 428h313z" />
<glyph unicode="&#x147;" horiz-adv-x="1499" d="M1288 1679l-209 -223h-336l-129 223h244l76 -110l102 110h252zM1262 1286h237l-227 -1286h-506l-340 993l-174 -993h-238l226 1286h516l334 -979z" />
<glyph unicode="&#x148;" horiz-adv-x="1226" d="M1077 1315l-211 -228h-340l-129 228h246l72 -117l108 117h254zM1024 0h-369l117 662q18 100 -158 100q-46 0 -122 -21l-130 -741h-368l143 819q267 123 598 123q231 0 328 -85.5t65 -262.5z" />
<glyph unicode="&#x149;" horiz-adv-x="1499" d="M266 858h-198l120 428h314zM1296 0h-368l116 662q9 51 -30 75.5t-127 24.5q-47 0 -123 -21l-129 -741h-369l144 819q267 123 598 123q231 0 328 -85.5t65 -262.5z" />
<glyph unicode="&#x14a;" horiz-adv-x="1499" d="M1434 913l-183 -1038q-61 -332 -311 -332q-93 0 -182 22.5t-140 55.5l117 146q59 -25 162 -25q52 0 77.5 27t33.5 77l26 154h-268l-340 993l-174 -993h-238l226 1286h516l334 -979l28 160l144 819h237z" />
<glyph unicode="&#x14b;" horiz-adv-x="1226" d="M1024 0l-23 -125q-28 -159 -133.5 -245.5t-308.5 -86.5q-93 0 -180.5 22.5t-136.5 55.5l114 146q59 -25 160 -25q55 0 80 26.5t33 77.5l26 154l117 662q18 100 -158 100q-46 0 -122 -21l-130 -741h-368l143 819q267 123 598 123q231 0 328 -85.5t65 -262.5l-34 -203 l-56 -309z" />
<glyph unicode="&#x14c;" horiz-adv-x="1511" d="M598 1456l39 223h614l-39 -223h-614zM883 1315q326 0 477 -177t94 -495q-55 -318 -268.5 -495t-540.5 -177t-478.5 177t-96.5 495q57 318 271.5 495t541.5 177zM678 160q138 0 211.5 107t120.5 376q33 178 27 286t-50 154.5t-137 46.5q-140 0 -214.5 -108t-121.5 -379 q-48 -269 -11.5 -376t175.5 -107z" />
<glyph unicode="&#x14d;" horiz-adv-x="1251" d="M403 1087l35 199h615l-35 -199h-615zM1171 457q-43 -245 -205.5 -365.5t-451.5 -120.5q-288 0 -408 120.5t-77 365.5t205.5 365t451.5 120q288 0 408 -120t77 -365zM780 457q30 180 2 252.5t-125 72.5q-101 0 -153 -72t-84 -253q-30 -180 -1.5 -253t124.5 -73 q102 0 153 72t84 254z" />
<glyph unicode="&#x14e;" horiz-adv-x="1511" d="M1276 1741q-25 -55 -47 -94.5t-54 -79t-67.5 -64t-84.5 -40t-108 -15.5q-78 0 -132 21t-84 62t-43 91.5t-15 118.5h117q19 -53 66.5 -79t109.5 -26q128 0 205 105h137zM883 1315q326 0 477 -177t94 -495q-55 -318 -268.5 -495t-540.5 -177t-478.5 177t-96.5 495 q57 318 271.5 495t541.5 177zM678 160q138 0 211.5 107t120.5 376q33 178 27 286t-50 154.5t-137 46.5q-140 0 -214.5 -108t-121.5 -379q-48 -269 -11.5 -376t175.5 -107z" />
<glyph unicode="&#x14f;" horiz-adv-x="1251" d="M1081 1372q-31 -69 -60.5 -116t-72.5 -90.5t-101.5 -65t-133.5 -21.5q-76 0 -129 21t-82 62.5t-41.5 91.5t-14.5 118h117q38 -104 176 -104q151 0 228 104h114zM1171 457q-43 -245 -205.5 -365.5t-451.5 -120.5q-288 0 -408 120.5t-77 365.5t205.5 365t451.5 120 q288 0 408 -120t77 -365zM780 457q30 180 2 252.5t-125 72.5q-101 0 -153 -72t-84 -253q-30 -180 -1.5 -253t124.5 -73q102 0 153 72t84 254z" />
<glyph unicode="&#x150;" horiz-adv-x="1511" d="M807 1456h-254l170 223h313zM1229 1456h-254l170 223h313zM883 1315q326 0 477 -177t94 -495q-55 -318 -268.5 -495t-540.5 -177t-478.5 177t-96.5 495q57 318 271.5 495t541.5 177zM678 160q138 0 211.5 107t120.5 376q33 178 27 286t-50 154.5t-137 46.5 q-140 0 -214.5 -108t-121.5 -379q-48 -269 -11.5 -376t175.5 -107z" />
<glyph unicode="&#x151;" horiz-adv-x="1251" d="M621 1087h-252l170 228h313zM1042 1087h-251l170 228h313zM1171 457q-43 -245 -205.5 -365.5t-451.5 -120.5q-288 0 -408 120.5t-77 365.5t205.5 365t451.5 120q288 0 408 -120t77 -365zM780 457q30 180 2 252.5t-125 72.5q-101 0 -153 -72t-84 -253q-30 -180 -1.5 -253 t124.5 -73q102 0 153 72t84 254z" />
<glyph unicode="&#x152;" horiz-adv-x="1986" d="M2038 1286l-33 -184h-610l-62 -346h541l-33 -185h-538l-70 -387h610l-33 -184h-925q-116 -29 -240 -29q-341 0 -487.5 171t-87.5 501t265 501t548 171q128 0 235 -29h920zM514 643q-43 -245 -2.5 -364t166.5 -119q102 0 168 51l151 868q-45 51 -147 51q-251 0 -336 -487z " />
<glyph unicode="&#x153;" horiz-adv-x="1935" d="M1739 68q-91 -33 -223 -65t-228 -32q-232 0 -360 95q-160 -95 -414 -95q-288 0 -408 120.5t-77 365.5t205.5 365t451.5 120q248 0 373 -90q149 90 362 90q129 0 223.5 -24t145.5 -65.5t70.5 -92.5t9.5 -109q-11 -61 -41 -111t-70 -84t-96 -59.5t-110.5 -40.5t-123 -24 t-125 -12.5t-124.5 -4.5q2 -86 44.5 -123.5t145.5 -37.5q21 0 36 1.5t43 7t52 11t86.5 20.5t122.5 29zM1393 782q-74 0 -122 -75.5t-75 -229.5q133 7 211 46t92 126q11 67 -14.5 100t-91.5 33zM780 457q30 180 2 252.5t-125 72.5q-101 0 -153 -72t-84 -253 q-30 -180 -1.5 -253t124.5 -73q102 0 153 72t84 254z" />
<glyph unicode="&#x154;" horiz-adv-x="1398" d="M952 1456h-254l207 223h316zM1370 938q-38 -256 -313 -358l200 -580h-428l-159 506q-82 -6 -176 -6l-88 -500h-392l226 1286h624q272 0 401.5 -90t104.5 -258zM979 934q15 81 -31.5 124.5t-146.5 43.5h-201l-74 -418h41q163 0 278 69t134 181z" />
<glyph unicode="&#x155;" horiz-adv-x="851" d="M610 1087h-252l213 228h314zM920 926l-156 -209q-65 37 -152 37q-58 0 -123 -21l-127 -733h-368l143 819q267 123 602 123q115 0 181 -16z" />
<glyph unicode="&#x156;" horiz-adv-x="1398" d="M1370 938q-38 -256 -313 -358l200 -580h-428l-159 506q-82 -6 -176 -6l-88 -500h-392l226 1286h624q272 0 401.5 -90t104.5 -258zM979 934q15 81 -31.5 124.5t-146.5 43.5h-201l-74 -418h41q163 0 278 69t134 181zM516 -567h-197l121 428h314z" />
<glyph unicode="&#x157;" horiz-adv-x="851" d="M920 926l-156 -209q-65 37 -152 37q-58 0 -123 -21l-127 -733h-368l143 819q267 123 602 123q115 0 181 -16zM184 -567h-196l121 428h313z" />
<glyph unicode="&#x158;" horiz-adv-x="1398" d="M1245 1679l-209 -223h-336l-129 223h244l76 -110l102 110h252zM1370 938q-38 -256 -313 -358l200 -580h-428l-159 506q-82 -6 -176 -6l-88 -500h-392l226 1286h624q272 0 401.5 -90t104.5 -258zM979 934q15 81 -31.5 124.5t-146.5 43.5h-201l-74 -418h41q163 0 278 69 t134 181z" />
<glyph unicode="&#x159;" horiz-adv-x="851" d="M920 1315l-211 -228h-340l-129 228h245l72 -117l109 117h254zM920 926l-156 -209q-65 37 -152 37q-58 0 -123 -21l-127 -733h-368l143 819q267 123 602 123q115 0 181 -16z" />
<glyph unicode="&#x15a;" horiz-adv-x="1226" d="M870 1456h-254l207 223h316zM698 844q287 -84 390 -179.5t75 -256.5q-35 -201 -231.5 -319t-495.5 -118q-114 0 -235.5 26.5t-212.5 70.5l69 157q188 -69 349 -69q147 0 240.5 44t107.5 119q8 48 -39.5 79.5t-157.5 68.5q-98 28 -173.5 58.5t-126.5 58.5t-85.5 60.5 t-53 61t-25 64t-5.5 65t8 68.5q34 191 228 301.5t495 110.5q90 0 195 -23t192 -63l-86 -174q-82 35 -172.5 55t-159.5 20q-132 0 -215.5 -34.5t-93.5 -94.5q-8 -48 36 -80t183 -77z" />
<glyph unicode="&#x15b;" horiz-adv-x="997" d="M682 1087h-252l213 228h313zM365 -29q-250 0 -408 52l76 190q3 0 40.5 -7.5t75 -14t95 -12t106.5 -5.5q87 0 138.5 10t56.5 41q3 15 -9.5 26.5t-39.5 20t-56 15t-71.5 16.5t-73.5 19q-30 10 -55 20.5t-54 26.5t-50 34.5t-41.5 44t-29.5 55t-14.5 67.5t4.5 81 q52 291 541 291q171 0 354 -59l-86 -185q-173 43 -252 43q-182 0 -194 -57q-2 -16 10 -27t38 -19t53.5 -14t68 -14.5t69.5 -17.5q24 -8 44 -15.5t44 -18.5t42 -22t38.5 -26.5t33.5 -32.5t26.5 -38.5t17.5 -45.5t7 -54t-5 -63q-28 -154 -161 -229.5t-379 -75.5z" />
<glyph unicode="&#x15c;" horiz-adv-x="1226" d="M1130 1456h-229l-84 115l-119 -115h-243l207 223h335zM698 844q287 -84 390 -179.5t75 -256.5q-35 -201 -231.5 -319t-495.5 -118q-114 0 -235.5 26.5t-212.5 70.5l69 157q188 -69 349 -69q147 0 240.5 44t107.5 119q8 48 -39.5 79.5t-157.5 68.5q-98 28 -173.5 58.5 t-126.5 58.5t-85.5 60.5t-53 61t-25 64t-5.5 65t8 68.5q34 191 228 301.5t495 110.5q90 0 195 -23t192 -63l-86 -174q-82 35 -172.5 55t-159.5 20q-132 0 -215.5 -34.5t-93.5 -94.5q-8 -48 36 -80t183 -77z" />
<glyph unicode="&#x15d;" horiz-adv-x="997" d="M918 1087h-242l-78 119l-115 -119h-245l211 228h337zM365 -29q-250 0 -408 52l76 190q3 0 40.5 -7.5t75 -14t95 -12t106.5 -5.5q87 0 138.5 10t56.5 41q3 15 -9.5 26.5t-39.5 20t-56 15t-71.5 16.5t-73.5 19q-30 10 -55 20.5t-54 26.5t-50 34.5t-41.5 44t-29.5 55 t-14.5 67.5t4.5 81q52 291 541 291q171 0 354 -59l-86 -185q-173 43 -252 43q-182 0 -194 -57q-2 -16 10 -27t38 -19t53.5 -14t68 -14.5t69.5 -17.5q24 -8 44 -15.5t44 -18.5t42 -22t38.5 -26.5t33.5 -32.5t26.5 -38.5t17.5 -45.5t7 -54t-5 -63q-28 -154 -161 -229.5 t-379 -75.5z" />
<glyph unicode="&#x15e;" horiz-adv-x="1226" d="M698 844q287 -84 390 -179.5t75 -256.5q-35 -201 -231.5 -319t-495.5 -118q-114 0 -235.5 26.5t-212.5 70.5l69 157q188 -69 349 -69q147 0 240.5 44t107.5 119q8 48 -39.5 79.5t-157.5 68.5q-98 28 -173.5 58.5t-126.5 58.5t-85.5 60.5t-53 61t-25 64t-5.5 65t8 68.5 q34 191 228 301.5t495 110.5q90 0 195 -23t192 -63l-86 -174q-82 35 -172.5 55t-159.5 20q-132 0 -215.5 -34.5t-93.5 -94.5q-8 -48 36 -80t183 -77zM289 -348l30 86q56 -17 87 -17q49 0 69 15.5t25 44.5t-10 45t-66 16q-34 0 -90 -18v84q68 18 133 18q107 0 151.5 -36 t32.5 -109q-25 -148 -237 -148q-51 0 -125 19z" />
<glyph unicode="&#x15f;" horiz-adv-x="997" d="M365 -29q-250 0 -408 52l76 190q3 0 40.5 -7.5t75 -14t95 -12t106.5 -5.5q87 0 138.5 10t56.5 41q3 15 -9.5 26.5t-39.5 20t-56 15t-71.5 16.5t-73.5 19q-30 10 -55 20.5t-54 26.5t-50 34.5t-41.5 44t-29.5 55t-14.5 67.5t4.5 81q52 291 541 291q171 0 354 -59l-86 -185 q-173 43 -252 43q-182 0 -194 -57q-2 -16 10 -27t38 -19t53.5 -14t68 -14.5t69.5 -17.5q24 -8 44 -15.5t44 -18.5t42 -22t38.5 -26.5t33.5 -32.5t26.5 -38.5t17.5 -45.5t7 -54t-5 -63q-28 -154 -161 -229.5t-379 -75.5zM166 -348l31 86q56 -17 86 -17q49 0 69 15.5t25 44.5 t-10 45t-66 16q-35 0 -90 -18v84q68 18 133 18q107 0 151.5 -36t32.5 -109q-25 -148 -237 -148q-51 0 -125 19z" />
<glyph unicode="&#x160;" horiz-adv-x="1226" d="M1147 1679l-209 -223h-336l-129 223h244l76 -110l102 110h252zM698 844q287 -84 390 -179.5t75 -256.5q-35 -201 -231.5 -319t-495.5 -118q-114 0 -235.5 26.5t-212.5 70.5l69 157q188 -69 349 -69q147 0 240.5 44t107.5 119q8 48 -39.5 79.5t-157.5 68.5 q-98 28 -173.5 58.5t-126.5 58.5t-85.5 60.5t-53 61t-25 64t-5.5 65t8 68.5q34 191 228 301.5t495 110.5q90 0 195 -23t192 -63l-86 -174q-82 35 -172.5 55t-159.5 20q-132 0 -215.5 -34.5t-93.5 -94.5q-8 -48 36 -80t183 -77z" />
<glyph unicode="&#x161;" horiz-adv-x="997" d="M950 1315l-211 -228h-340l-129 228h246l72 -117l108 117h254zM365 -29q-250 0 -408 52l76 190q3 0 40.5 -7.5t75 -14t95 -12t106.5 -5.5q87 0 138.5 10t56.5 41q3 15 -9.5 26.5t-39.5 20t-56 15t-71.5 16.5t-73.5 19q-30 10 -55 20.5t-54 26.5t-50 34.5t-41.5 44 t-29.5 55t-14.5 67.5t4.5 81q52 291 541 291q171 0 354 -59l-86 -185q-173 43 -252 43q-182 0 -194 -57q-2 -16 10 -27t38 -19t53.5 -14t68 -14.5t69.5 -17.5q24 -8 44 -15.5t44 -18.5t42 -22t38.5 -26.5t33.5 -32.5t26.5 -38.5t17.5 -45.5t7 -54t-5 -63 q-28 -154 -161 -229.5t-379 -75.5z" />
<glyph unicode="&#x162;" horiz-adv-x="1245" d="M1341 1286l-32 -184h-402l-194 -1102h-391l194 1102h-401l30 184h1196zM299 -348l31 86q56 -17 86 -17q49 0 69 15.5t25 44.5t-10 45t-66 16q-34 0 -90 -18v84q68 18 133 18q108 0 152.5 -36t32.5 -109q-25 -148 -238 -148q-51 0 -125 19z" />
<glyph unicode="&#x163;" horiz-adv-x="751" d="M645 182l-31 -182q-113 -29 -274 -29q-177 0 -252.5 84t-46.5 248l74 410l35 200l43 244l378 66l-53 -310h227l-34 -200h-226l-77 -439q-18 -100 57 -100q101 0 180 8zM125 -348l31 86q56 -17 86 -17q49 0 69 15.5t25 44.5t-10 45t-66 16q-35 0 -90 -18v84q68 18 133 18 q107 0 151.5 -36t32.5 -109q-25 -148 -237 -148q-51 0 -125 19z" />
<glyph unicode="&#x164;" horiz-adv-x="1245" d="M1151 1679l-209 -223h-336l-129 223h244l76 -110l102 110h252zM1341 1286l-32 -184h-402l-194 -1102h-391l194 1102h-401l30 184h1196z" />
<glyph unicode="&#x165;" horiz-adv-x="976" d="M991 858h-198l120 428h314zM645 182l-31 -182q-113 -29 -274 -29q-177 0 -252.5 84t-46.5 248l74 410l35 200l43 244l378 66l-53 -310h227l-34 -200h-226l-77 -439q-18 -100 57 -100q101 0 180 8z" />
<glyph unicode="&#x166;" horiz-adv-x="1257" d="M225 637l27 160h217l53 305h-401l31 184h1196l-33 -184h-402l-53 -305h215l-28 -160h-216l-112 -637h-391l112 637h-215z" />
<glyph unicode="&#x167;" horiz-adv-x="786" d="M-6 377l35 194h88l24 142l35 200l43 244l379 66l-53 -310h227l-35 -200h-225l-25 -142h215l-34 -194h-215l-19 -103q-18 -100 58 -100q101 0 180 8l-31 -182q-113 -29 -274 -29q-177 0 -252.5 84t-46.5 248l12 74h-86z" />
<glyph unicode="&#x168;" horiz-adv-x="1468" d="M1194 1683l33 -143q-54 -47 -104 -65.5t-124 -18.5q-62 0 -147 23q-82 24 -145 24q-54 0 -91 -12t-77 -41l-35 143q74 56 128 77.5t120 21.5q34 0 57 -4t53.5 -15.5t38.5 -13.5q59 -19 129 -19q58 0 93.5 9t70.5 34zM1085 1286h392l-158 -899q-34 -189 -223.5 -302.5 t-472.5 -113.5t-433 113.5t-118 302.5l159 899h392l-172 -973q-12 -72 44.5 -115.5t159.5 -43.5t174.5 43.5t83.5 115.5z" />
<glyph unicode="&#x169;" horiz-adv-x="1228" d="M1042 1315l37 -144q-54 -48 -105.5 -67t-125.5 -19q-72 0 -139 23q-6 2 -24.5 7.5t-28 7.5t-26.5 5.5t-34.5 5t-38.5 1.5q-50 0 -87 -12t-79 -42l-37 144q74 55 129.5 76.5t118.5 21.5q27 0 50 -3.5t36 -7.5t34 -11.5t32 -10.5q52 -18 129 -18q57 0 91 9t68 34zM150 913 h368l-112 -641q-10 -63 26 -91.5t127 -28.5q63 0 125 22l131 739h369l-144 -817q-270 -125 -598 -125q-236 0 -332 84t-65 264z" />
<glyph unicode="&#x16a;" horiz-adv-x="1468" d="M565 1456l39 223h615l-39 -223h-615zM1085 1286h392l-158 -899q-34 -189 -223.5 -302.5t-472.5 -113.5t-433 113.5t-118 302.5l159 899h392l-172 -973q-12 -72 44.5 -115.5t159.5 -43.5t174.5 43.5t83.5 115.5z" />
<glyph unicode="&#x16b;" horiz-adv-x="1228" d="M395 1087l35 199h614l-34 -199h-615zM150 913h368l-112 -641q-10 -63 26 -91.5t127 -28.5q63 0 125 22l131 739h369l-144 -817q-270 -125 -598 -125q-236 0 -332 84t-65 264z" />
<glyph unicode="&#x16c;" horiz-adv-x="1468" d="M1253 1741q-31 -69 -60 -116t-71 -90.5t-99 -65t-130 -21.5q-78 0 -132 21t-84 62t-43.5 91.5t-15.5 118.5h117q19 -53 66.5 -79t109.5 -26q128 0 205 105h137zM1085 1286h392l-158 -899q-34 -189 -223.5 -302.5t-472.5 -113.5t-433 113.5t-118 302.5l159 899h392 l-172 -973q-12 -72 44.5 -115.5t159.5 -43.5t174.5 43.5t83.5 115.5z" />
<glyph unicode="&#x16d;" horiz-adv-x="1228" d="M1067 1372q-31 -69 -60.5 -116t-73 -90.5t-102 -65t-133.5 -21.5q-146 0 -204.5 76t-61.5 217h117q38 -104 176 -104q150 0 227 104h115zM150 913h368l-112 -641q-10 -63 26 -91.5t127 -28.5q63 0 125 22l131 739h369l-144 -817q-270 -125 -598 -125q-236 0 -332 84 t-65 264z" />
<glyph unicode="&#x16e;" horiz-adv-x="1468" d="M668 1587q24 142 247 142q94 0 151.5 -38t45.5 -104q-26 -141 -248 -141q-101 0 -155 32.5t-41 108.5zM971 1587q3 22 5 42t-15 34t-56 14q-50 0 -69.5 -22t-26.5 -68q-3 -23 -5 -43t15 -33.5t55 -13.5q28 0 46.5 7t28.5 22t14 27.5t8 33.5zM1085 1286h392l-158 -899 q-34 -189 -223.5 -302.5t-472.5 -113.5t-433 113.5t-118 302.5l159 899h392l-172 -973q-12 -72 44.5 -115.5t159.5 -43.5t174.5 43.5t83.5 115.5z" />
<glyph unicode="&#x16f;" horiz-adv-x="1228" d="M946 1260q2 -12 -2 -39q-24 -142 -246 -142q-112 0 -161 35.5t-37 106.5q24 139 248 139q192 0 198 -100zM803 1221q9 51 -5 70.5t-59 19.5q-47 0 -69 -19.5t-31 -70.5q-9 -52 6.5 -72.5t61.5 -20.5t66.5 20t29.5 73zM150 913h368l-112 -641q-10 -63 26 -91.5t127 -28.5 q63 0 125 22l131 739h369l-144 -817q-270 -125 -598 -125q-236 0 -332 84t-65 264z" />
<glyph unicode="&#x170;" horiz-adv-x="1468" d="M768 1456h-254l170 223h313zM1190 1456h-254l170 223h313zM1085 1286h392l-158 -899q-34 -189 -223.5 -302.5t-472.5 -113.5t-433 113.5t-118 302.5l159 899h392l-172 -973q-12 -72 44.5 -115.5t159.5 -43.5t174.5 43.5t83.5 115.5z" />
<glyph unicode="&#x171;" horiz-adv-x="1228" d="M594 1087h-252l170 228h313zM1016 1087h-252l170 228h313zM150 913h368l-112 -641q-10 -63 26 -91.5t127 -28.5q63 0 125 22l131 739h369l-144 -817q-270 -125 -598 -125q-236 0 -332 84t-65 264z" />
<glyph unicode="&#x172;" horiz-adv-x="1468" d="M1085 1286h392l-158 -899q-26 -142 -142 -243t-298 -144q-142 -127 -162 -233q-6 -36 15.5 -55t70.5 -19h164l-23 -125q-112 -25 -250 -25q-126 0 -176 45t-33 140q8 49 53 115t138 130q-18 -2 -53 -2q-283 0 -433 113.5t-118 302.5l159 899h392l-172 -973 q-12 -72 44.5 -115.5t159.5 -43.5t174.5 43.5t83.5 115.5z" />
<glyph unicode="&#x173;" horiz-adv-x="1228" d="M150 913h368l-112 -641q-10 -63 26 -91.5t127 -28.5q63 0 125 22l131 739h369l-144 -817q-146 -68 -297 -98q-140 -119 -161 -231q-6 -36 15.5 -55t70.5 -19h163l-22 -125q-112 -25 -250 -25q-126 0 -176 45t-33 140q8 50 53.5 116t139.5 129q-33 -2 -101 -2 q-236 0 -332 84t-65 264z" />
<glyph unicode="&#x174;" horiz-adv-x="1859" d="M1495 1456h-229l-84 115l-119 -115h-244l207 223h336zM1673 1286h273l-486 -1286h-487l-17 645l-251 -645h-488l-82 1286h418l29 -954l364 954h363l30 -930z" />
<glyph unicode="&#x175;" horiz-adv-x="1622" d="M1288 1087h-241l-78 119l-115 -119h-246l211 228h338zM1372 913h289l-438 -913h-365l-49 516l-248 -516h-352l-158 913h426l51 -524l252 524h299l54 -557z" />
<glyph unicode="&#x176;" horiz-adv-x="1277" d="M1157 1456h-229l-84 115l-119 -115h-244l207 223h336zM1391 1286l-560 -696l-104 -590h-391l100 567l-289 719h439l162 -442l339 442h304z" />
<glyph unicode="&#x177;" horiz-adv-x="1079" d="M1006 1087h-242l-78 119l-115 -119h-245l211 228h337zM1139 913l-811 -1341h-338l280 446l-213 895h389l93 -495l295 495h305z" />
<glyph unicode="&#x178;" horiz-adv-x="1277" d="M834 1679l-41 -223h-269l39 223h271zM1221 1679l-41 -223h-269l39 223h271zM1391 1286l-560 -696l-104 -590h-391l100 567l-289 719h439l162 -442l339 442h304z" />
<glyph unicode="&#x179;" horiz-adv-x="1243" d="M911 1456h-254l207 223h316zM1303 1286l-43 -248l-848 -854h698l-33 -184h-1157l41 227l873 875h-633l32 184h1070z" />
<glyph unicode="&#x17a;" horiz-adv-x="1015" d="M729 1090h-252l213 227h314zM975 713l-551 -533h455l-31 -180h-907l36 203l562 530h-439l31 180h879z" />
<glyph unicode="&#x17b;" horiz-adv-x="1243" d="M575 1456l39 223h392l-39 -223h-392zM1303 1286l-43 -248l-848 -854h698l-33 -184h-1157l41 227l873 875h-633l32 184h1070z" />
<glyph unicode="&#x17c;" horiz-adv-x="1015" d="M813 1315l-39 -219h-366l36 219h369zM975 713l-551 -533h455l-31 -180h-907l36 203l562 530h-439l31 180h879z" />
<glyph unicode="&#x17d;" horiz-adv-x="1243" d="M1174 1679l-209 -223h-336l-129 223h243l76 -110l103 110h252zM1303 1286l-43 -248l-848 -854h698l-33 -184h-1157l41 227l873 875h-633l32 184h1070z" />
<glyph unicode="&#x17e;" horiz-adv-x="1015" d="M979 1315l-211 -228h-340l-129 228h246l71 -117l109 117h254zM975 713l-551 -533h455l-31 -180h-907l36 203l562 530h-439l31 180h879z" />
<glyph unicode="&#x18f;" horiz-adv-x="1507" d="M545 803h-441q86 244 289 378t486 134q330 0 479 -175.5t92 -500.5q-57 -321 -266.5 -494.5t-542.5 -173.5t-482.5 173.5t-92.5 494.5h940q46 259 9 375t-169 116q-120 0 -191.5 -78t-109.5 -249zM674 156q114 0 181.5 69t111.5 230h-480q-12 -160 32 -229.5t155 -69.5z " />
<glyph unicode="&#x192;" horiz-adv-x="1361" d="M164 -18q104 0 143 98l299 797l45 120q42 115 122 188.5t169.5 101.5t194.5 28q177 0 307 -84l-144 -150q-72 29 -126 29q-56 0 -90 -17t-52 -63l-43 -117h215l-80 -200h-213l-241 -654q-102 -274 -494 -274q-179 0 -282 76l143 147q76 -26 127 -26z" />
<glyph unicode="&#x19d;" horiz-adv-x="1499" d="M414 913l-117 -657l-45 -256l-23 -125q-58 -332 -309 -332q-93 0 -181.5 22.5t-137.5 55.5l114 146q59 -25 162 -25q52 0 76.5 26.5t34.5 77.5l26 154l72 414l88 499l66 373h516l334 -979l172 979h237l-227 -1286h-506l-340 993z" />
<glyph unicode="&#x1cd;" horiz-adv-x="1394" d="M1196 1679l-209 -223h-336l-129 223h244l76 -110l102 110h252zM891 0l-53 303h-510l-150 -303h-272l647 1286h510l229 -1286h-401zM420 487h387l-100 582z" />
<glyph unicode="&#x1ce;" horiz-adv-x="1150" d="M1057 1315l-211 -228h-340l-129 228h246l71 -117l109 117h254zM657 942q223 0 328 -91t72 -280l-94 -530q-258 -70 -494 -70q-278 0 -402 74.5t-98 226.5q52 300 693 306h26l14 84q5 26 -5 45.5t-26 29.5t-42 16t-46 7.5t-44 1.5q-168 0 -322 -43l-31 168q229 55 471 55z M496 133q34 0 112 8l56 301h-29q-50 -2 -88.5 -8.5t-80.5 -23t-69.5 -51t-36.5 -85.5q-12 -75 30 -108t106 -33z" />
<glyph unicode="&#x1cf;" horiz-adv-x="634" d="M844 1679l-209 -223h-336l-129 223h244l75 -110l103 110h252zM631 1286l-225 -1286h-392l226 1286h391z" />
<glyph unicode="&#x1d1;" horiz-adv-x="1511" d="M1282 1679l-209 -223h-336l-129 223h244l76 -110l102 110h252zM883 1315q326 0 477 -177t94 -495q-55 -318 -268.5 -495t-540.5 -177t-478.5 177t-96.5 495q57 318 271.5 495t541.5 177zM678 160q138 0 211.5 107t120.5 376q33 178 27 286t-50 154.5t-137 46.5 q-140 0 -214.5 -108t-121.5 -379q-48 -269 -11.5 -376t175.5 -107z" />
<glyph unicode="&#x1d2;" horiz-adv-x="1251" d="M1092 1321l-211 -227h-340l-129 227h245l72 -117l109 117h254zM1171 457q-43 -245 -205.5 -365.5t-451.5 -120.5q-288 0 -408 120.5t-77 365.5t205.5 365t451.5 120q288 0 408 -120t77 -365zM780 457q30 180 2 252.5t-125 72.5q-101 0 -153 -72t-84 -253 q-30 -180 -1.5 -253t124.5 -73q102 0 153 72t84 254z" />
<glyph unicode="&#x1d3;" horiz-adv-x="1468" d="M1247 1679l-209 -223h-336l-129 223h244l76 -110l102 110h252zM1085 1286h392l-158 -899q-34 -189 -223.5 -302.5t-472.5 -113.5t-433 113.5t-118 302.5l159 899h392l-172 -973q-12 -72 44.5 -115.5t159.5 -43.5t174.5 43.5t83.5 115.5z" />
<glyph unicode="&#x1d4;" horiz-adv-x="1228" d="M1077 1315l-211 -228h-340l-129 228h246l72 -117l108 117h254zM150 913h368l-112 -641q-10 -63 26 -91.5t127 -28.5q63 0 125 22l131 739h369l-144 -817q-270 -125 -598 -125q-236 0 -332 84t-65 264z" />
<glyph unicode="&#x1d5;" horiz-adv-x="1468" d="M621 1772l38 223h615l-39 -223h-614zM866 1679l-41 -223h-268l39 223h270zM1253 1679l-41 -223h-268l39 223h270zM1085 1286h392l-158 -899q-34 -189 -223.5 -302.5t-472.5 -113.5t-433 113.5t-118 302.5l159 899h392l-172 -973q-12 -72 44.5 -115.5t159.5 -43.5 t174.5 43.5t83.5 115.5z" />
<glyph unicode="&#x1d6;" horiz-adv-x="1228" d="M438 1409l39 223h615l-39 -223h-615zM662 1286l-35 -199h-232l35 199h232zM1018 1286l-35 -199h-233l34 199h234zM150 913h368l-112 -641q-10 -63 26 -91.5t127 -28.5q63 0 125 22l131 739h369l-144 -817q-270 -125 -598 -125q-236 0 -332 84t-65 264z" />
<glyph unicode="&#x1d7;" horiz-adv-x="1468" d="M1055 1772h-254l207 223h315zM866 1679l-41 -223h-268l39 223h270zM1253 1679l-41 -223h-268l39 223h270zM1085 1286h392l-158 -899q-34 -189 -223.5 -302.5t-472.5 -113.5t-433 113.5t-118 302.5l159 899h392l-172 -973q-12 -72 44.5 -115.5t159.5 -43.5t174.5 43.5 t83.5 115.5z" />
<glyph unicode="&#x1d8;" horiz-adv-x="1228" d="M891 1395h-254l207 223h315zM662 1286l-35 -199h-232l35 199h232zM1018 1286l-35 -199h-233l34 199h234zM150 913h368l-112 -641q-10 -63 26 -91.5t127 -28.5q63 0 125 22l131 739h369l-144 -817q-270 -125 -598 -125q-236 0 -332 84t-65 264z" />
<glyph unicode="&#x1d9;" horiz-adv-x="1468" d="M1298 1987l-208 -224h-336l-129 224h243l76 -111l103 111h251zM866 1679l-41 -223h-268l39 223h270zM1253 1679l-41 -223h-268l39 223h270zM1085 1286h392l-158 -899q-34 -189 -223.5 -302.5t-472.5 -113.5t-433 113.5t-118 302.5l159 899h392l-172 -973 q-12 -72 44.5 -115.5t159.5 -43.5t174.5 43.5t83.5 115.5z" />
<glyph unicode="&#x1da;" horiz-adv-x="1228" d="M1120 1626l-209 -223h-336l-129 223h244l76 -110l102 110h252zM662 1286l-35 -199h-232l35 199h232zM1018 1286l-35 -199h-233l34 199h234zM150 913h368l-112 -641q-10 -63 26 -91.5t127 -28.5q63 0 125 22l131 739h369l-144 -817q-270 -125 -598 -125q-236 0 -332 84 t-65 264z" />
<glyph unicode="&#x1db;" horiz-adv-x="1468" d="M817 1767l-190 224h315l127 -224h-252zM866 1679l-41 -223h-268l39 223h270zM1253 1679l-41 -223h-268l39 223h270zM1085 1286h392l-158 -899q-34 -189 -223.5 -302.5t-472.5 -113.5t-433 113.5t-118 302.5l159 899h392l-172 -973q-12 -72 44.5 -115.5t159.5 -43.5 t174.5 43.5t83.5 115.5z" />
<glyph unicode="&#x1dc;" horiz-adv-x="1228" d="M629 1395l-191 223h316l127 -223h-252zM662 1286l-35 -199h-232l35 199h232zM1018 1286l-35 -199h-233l34 199h234zM150 913h368l-112 -641q-10 -63 26 -91.5t127 -28.5q63 0 125 22l131 739h369l-144 -817q-270 -125 -598 -125q-236 0 -332 84t-65 264z" />
<glyph unicode="&#x1e6;" horiz-adv-x="1314" d="M1221 1679l-209 -223h-336l-129 223h244l75 -110l103 110h252zM877 684h378l-118 -668q-7 -1 -58.5 -10.5t-80.5 -13t-88 -10t-131 -9t-161 -2.5q-324 0 -465 165t-81 505q62 349 247.5 511.5t524.5 162.5q202 0 446 -86l-88 -193q-166 72 -291 72q-149 0 -252 -122 t-143 -345q-39 -225 12.5 -351t178.5 -126h77l60 338z" />
<glyph unicode="&#x1e7;" horiz-adv-x="1204" d="M1079 1315l-211 -228h-340l-129 228h246l72 -117l108 117h254zM1149 874l-150 -841q-87 -490 -659 -490q-162 0 -369 97l84 157q213 -71 316 -71q86 0 154.5 60.5t90.5 182.5l5 27q-125 -25 -207 -25q-238 0 -333 120t-52 366t204.5 365.5t450.5 119.5q239 0 465 -68z M508 133q39 0 145 25l105 596q-38 28 -105 28q-94 0 -148 -76.5t-85 -248.5q-32 -170 -13.5 -247t101.5 -77z" />
<glyph unicode="&#x1ea;" horiz-adv-x="1511" d="M883 1315q326 0 477 -177t94 -495q-44 -259 -196.5 -426t-389.5 -221q-137 -125 -157 -229q-6 -36 15.5 -55t70.5 -19h164l-23 -125q-112 -25 -250 -25q-126 0 -176 45t-33 140q8 50 52 115t137 128h-23q-327 0 -478.5 177t-96.5 495q57 318 271.5 495t541.5 177z M678 160q138 0 211.5 107t120.5 376q33 178 27 286t-50 154.5t-137 46.5q-140 0 -214.5 -108t-121.5 -379q-48 -269 -11.5 -376t175.5 -107z" />
<glyph unicode="&#x1eb;" horiz-adv-x="1251" d="M1171 457q-68 -384 -434 -463q-135 -119 -155 -227q-6 -36 15.5 -55t70.5 -19h163l-22 -125q-112 -25 -250 -25q-126 0 -176 45t-33 140q8 50 52 115t137 128h-25q-288 0 -408 120.5t-77 365.5t205.5 365t451.5 120q288 0 408 -120t77 -365zM780 457q30 180 2 252.5 t-125 72.5q-101 0 -153 -72t-84 -253q-30 -180 -1.5 -253t124.5 -73q102 0 153 72t84 254z" />
<glyph unicode="&#x1f4;" horiz-adv-x="1314" d="M993 1456h-254l207 223h316zM877 684h378l-118 -668q-7 -1 -58.5 -10.5t-80.5 -13t-88 -10t-131 -9t-161 -2.5q-324 0 -465 165t-81 505q62 349 247.5 511.5t524.5 162.5q202 0 446 -86l-88 -193q-166 72 -291 72q-149 0 -252 -122t-143 -345q-39 -225 12.5 -351 t178.5 -126h77l60 338z" />
<glyph unicode="&#x1f5;" horiz-adv-x="1204" d="M836 1087h-252l213 228h313zM1149 874l-150 -841q-87 -490 -659 -490q-162 0 -369 97l84 157q213 -71 316 -71q86 0 154.5 60.5t90.5 182.5l5 27q-125 -25 -207 -25q-238 0 -333 120t-52 366t204.5 365.5t450.5 119.5q239 0 465 -68zM508 133q39 0 145 25l105 596 q-38 28 -105 28q-94 0 -148 -76.5t-85 -248.5q-32 -170 -13.5 -247t101.5 -77z" />
<glyph unicode="&#x1fa;" horiz-adv-x="1394" d="M891 0l-53 303h-510l-150 -303h-272l647 1286h94q-50 37 -39 107q18 104 146 131l190 207h316l-269 -224h-2q78 -40 64 -114q-12 -71 -76 -107h86l229 -1286h-401zM911 1393q3 22 5.5 42t-14.5 34t-56 14q-50 0 -69.5 -22t-26.5 -68q-3 -23 -5 -43t15 -33.5t55 -13.5 q28 0 46.5 7t28 22t13.5 27t8 34zM420 487h387l-100 582z" />
<glyph unicode="&#x1fb;" horiz-adv-x="1150" d="M879 1421h-254l206 224h316zM934 1225q2 -12 -2 -39q-24 -142 -246 -142q-112 0 -161.5 35.5t-37.5 106.5q24 139 248 139q193 0 199 -100zM791 1186q9 51 -5 70.5t-59 19.5q-47 0 -69 -19.5t-31 -70.5q-9 -52 6 -72t61 -20t67 20t30 72zM657 942q223 0 328 -91t72 -280 l-94 -530q-258 -70 -494 -70q-278 0 -402 74.5t-98 226.5q52 300 693 306h26l14 84q5 26 -5 45.5t-26 29.5t-42 16t-46 7.5t-44 1.5q-168 0 -322 -43l-31 168q229 55 471 55zM496 133q34 0 112 8l56 301h-29q-50 -2 -88.5 -8.5t-80.5 -23t-69.5 -51t-36.5 -85.5 q-12 -75 30 -108t106 -33z" />
<glyph unicode="&#x1fc;" horiz-adv-x="1810" d="M1303 1456h-254l206 223h316zM1862 1286l-33 -184h-610l-62 -346h541l-33 -185h-539l-69 -387h610l-33 -184h-1001l53 303h-356l-187 -303h-284l770 1286h1233zM825 1104l-381 -617h275z" />
<glyph unicode="&#x1fd;" horiz-adv-x="1800" d="M1106 1087h-252l213 228h313zM1606 68q-91 -33 -223 -65t-228 -32q-166 0 -278 47q-205 -47 -408 -47q-278 0 -402 74.5t-98 226.5q52 300 693 306h26l14 84q5 26 -5 45.5t-26 29.5t-42 16t-46 7.5t-44 1.5q-168 0 -322 -43l-31 168q229 55 471 55q201 0 304 -72 q138 72 327 72q129 0 223.5 -24t145.5 -65.5t70.5 -92.5t9.5 -109q-11 -61 -41 -111t-70 -84t-96 -59.5t-110.5 -40.5t-123 -24t-125 -12.5t-124.5 -4.5q2 -86 44.5 -123.5t145.5 -37.5q21 0 36 1.5t43 7t52 11t86.5 20.5t122.5 29zM1260 782q-74 0 -122 -75.5t-75 -229.5 q133 7 211 46t92 126q11 67 -14.5 100t-91.5 33zM496 133q79 0 213 29q-63 109 -39 280h-6h-29q-50 -2 -88.5 -8.5t-80.5 -23t-69.5 -51t-36.5 -85.5q-12 -75 30 -108t106 -33z" />
<glyph unicode="&#x1fe;" horiz-adv-x="1507" d="M1073 1456h-254l207 223h315zM881 1315q257 0 407 -113l90 84h168l-176 -164q137 -179 82 -479q-55 -318 -268.5 -495t-540.5 -177q-249 0 -397 103l-80 -74h-182l172 158q-141 176 -88 485q57 318 271.5 495t541.5 177zM512 643q-20 -113 -25 -178l545 502 q-10 86 -54.5 124.5t-129.5 38.5q-140 0 -214.5 -108t-121.5 -379zM676 160q138 0 211.5 107t120.5 376q17 104 22 162l-538 -502q13 -75 58 -109t126 -34z" />
<glyph unicode="&#x1ff;" horiz-adv-x="1251" d="M850 1087h-252l213 228h313zM1171 457q-43 -245 -205.5 -365.5t-451.5 -120.5q-232 0 -356 80l-66 -51h-147l143 111q-100 121 -59 346q43 245 205.5 365t451.5 120q239 0 367 -84l71 55h136l-146 -114q97 -118 57 -342zM420 457q-9 -55 -12 -99l387 299q-7 66 -41 95.5 t-97 29.5q-101 0 -153 -72t-84 -253zM780 457q11 59 13 92l-385 -303q9 -60 42 -87.5t93 -27.5q102 0 153 72t84 254z" />
<glyph unicode="&#x218;" horiz-adv-x="1226" d="M698 844q287 -84 390 -179.5t75 -256.5q-35 -201 -231.5 -319t-495.5 -118q-114 0 -235.5 26.5t-212.5 70.5l69 157q188 -69 349 -69q147 0 240.5 44t107.5 119q8 48 -39.5 79.5t-157.5 68.5q-98 28 -173.5 58.5t-126.5 58.5t-85.5 60.5t-53 61t-25 64t-5.5 65t8 68.5 q34 191 228 301.5t495 110.5q90 0 195 -23t192 -63l-86 -174q-82 35 -172.5 55t-159.5 20q-132 0 -215.5 -34.5t-93.5 -94.5q-8 -48 36 -80t183 -77zM424 -567h-197l121 428h314z" />
<glyph unicode="&#x219;" horiz-adv-x="997" d="M365 -29q-250 0 -408 52l76 190q3 0 40.5 -7.5t75 -14t95 -12t106.5 -5.5q87 0 138.5 10t56.5 41q3 15 -9.5 26.5t-39.5 20t-56 15t-71.5 16.5t-73.5 19q-30 10 -55 20.5t-54 26.5t-50 34.5t-41.5 44t-29.5 55t-14.5 67.5t4.5 81q52 291 541 291q171 0 354 -59l-86 -185 q-173 43 -252 43q-182 0 -194 -57q-2 -16 10 -27t38 -19t53.5 -14t68 -14.5t69.5 -17.5q24 -8 44 -15.5t44 -18.5t42 -22t38.5 -26.5t33.5 -32.5t26.5 -38.5t17.5 -45.5t7 -54t-5 -63q-28 -154 -161 -229.5t-379 -75.5zM301 -567h-197l121 428h314z" />
<glyph unicode="&#x21a;" horiz-adv-x="1245" d="M1341 1286l-32 -184h-402l-194 -1102h-391l194 1102h-401l30 184h1196zM410 -567h-197l121 428h313z" />
<glyph unicode="&#x21b;" horiz-adv-x="751" d="M645 182l-31 -182q-113 -29 -274 -29q-177 0 -252.5 84t-46.5 248l74 410l35 200l43 244l378 66l-53 -310h227l-34 -200h-226l-77 -439q-18 -100 57 -100q101 0 180 8zM215 -567h-197l121 428h314z" />
<glyph unicode="&#x232;" horiz-adv-x="1277" d="M532 1456l39 223h615l-39 -223h-615zM1391 1286l-560 -696l-104 -590h-391l100 567l-289 719h439l162 -442l339 442h304z" />
<glyph unicode="&#x233;" horiz-adv-x="1079" d="M330 1087l35 199h614l-35 -199h-614zM1139 913l-811 -1341h-338l280 446l-213 895h389l93 -495l295 495h305z" />
<glyph unicode="&#x237;" horiz-adv-x="595" d="M547 913l-185 -1038q-29 -170 -136.5 -251t-305.5 -81q-201 0 -319 78l116 146q61 -25 162 -25q92 0 109 104l188 1067h371z" />
<glyph unicode="&#x259;" horiz-adv-x="1157" d="M59 512h654q25 129 -22.5 189.5t-137.5 60.5q-99 0 -207 -23.5t-174 -46.5l-29 154q250 96 451 96q568 0 483 -485q-19 -104 -65.5 -191t-121 -153.5t-184.5 -104t-245 -37.5q-524 0 -438 496q7 45 36 45zM688 362h-323q-9 -64 -5.5 -113t33.5 -78.5t86 -29.5 q88 0 140 62.5t69 158.5z" />
<glyph unicode="&#x272;" horiz-adv-x="1226" d="M1024 0h-369l117 662q18 100 -158 100q-46 0 -122 -21l-130 -741l-22 -125q-58 -332 -440 -332q-93 0 -182 22.5t-138 55.5l115 146q55 -25 162 -25q51 0 75.5 27t32.5 77l127 719l45 254q267 123 598 123q231 0 328 -85.5t65 -262.5z" />
<glyph unicode="&#x2c6;" horiz-adv-x="755" d="M799 1087h-242l-78 119l-114 -119h-246l211 228h338z" />
<glyph unicode="&#x2c7;" horiz-adv-x="714" d="M821 1315l-211 -228h-340l-129 228h246l72 -117l108 117h254z" />
<glyph unicode="&#x2d8;" horiz-adv-x="1021" d="M1004 1372q-31 -69 -60.5 -116t-73 -90.5t-102 -65t-133.5 -21.5q-146 0 -204.5 76t-61.5 217h116q38 -104 177 -104q150 0 227 104h115z" />
<glyph unicode="&#x2d9;" horiz-adv-x="1054" d="M862 1315l-39 -219h-366l37 219h368z" />
<glyph unicode="&#x2da;" horiz-adv-x="557" d="M610 1260q2 -12 -2 -39q-24 -142 -246 -142q-112 0 -161 35.5t-37 106.5q24 139 248 139q192 0 198 -100zM467 1221q9 51 -5 70.5t-59 19.5q-47 0 -69 -19.5t-31 -70.5q-9 -52 6.5 -72.5t61.5 -20.5t66.5 20t29.5 73z" />
<glyph unicode="&#x2db;" horiz-adv-x="954" d="M578 70l55 -35q-182 -143 -205 -268q-6 -36 15.5 -55t70.5 -19h164l-23 -125q-113 -25 -249 -25q-126 0 -176 45t-33 140q5 32 24 68.5t58.5 84.5t117 98.5t181.5 90.5z" />
<glyph unicode="&#x2dc;" horiz-adv-x="1179" d="M1012 1315l37 -144q-54 -48 -105.5 -67t-126.5 -19q-72 0 -139 23q-6 2 -24.5 7.5t-28 7.5t-26.5 5.5t-34.5 5t-38.5 1.5q-50 0 -87 -12t-79 -42l-36 144q74 55 129.5 76.5t117.5 21.5q27 0 50 -3.5t36 -7.5t34 -11.5t32 -10.5q52 -18 129 -18q57 0 91.5 9t68.5 34z" />
<glyph unicode="&#x2dd;" horiz-adv-x="978" d="M403 1087h-251l170 228h313zM825 1087h-252l170 228h314z" />
<glyph unicode="&#x323;" horiz-adv-x="401" d="M209 -379h-307l43 240h307z" />
<glyph unicode="&#x326;" horiz-adv-x="454" d="M39 -567h-197l121 428h313z" />
<glyph unicode="&#x374;" horiz-adv-x="460" d="M-4 778l217 508h309l-297 -508h-229z" />
<glyph unicode="&#x375;" horiz-adv-x="460" d="M-135 -166l217 508h311l-297 -508h-231z" />
<glyph unicode="&#x37e;" horiz-adv-x="520" d="M408 586h-287l41 239h289zM127 -188h-197l121 428h316z" />
<glyph unicode="&#x384;" horiz-adv-x="452" d="M233 1087l125 322h254l-186 -322h-193z" />
<glyph unicode="&#x385;" horiz-adv-x="1009" d="M451 1087l124 322h256l-186 -322h-194zM395 1286l-35 -199h-215l35 199h215zM1073 1286l-35 -199h-215l35 199h215z" />
<glyph unicode="&#x386;" horiz-adv-x="1509" d="M293 858h-199l121 428h313zM1006 0l-54 303h-510l-149 -303h-273l648 1286h510l229 -1286h-401zM535 487h387l-101 582z" />
<glyph unicode="&#x387;" horiz-adv-x="364" d="M340 913l-43 -247h-207l45 247h205z" />
<glyph unicode="&#x388;" horiz-adv-x="1542" d="M254 858h-199l121 428h313zM1593 1286l-32 -184h-611l-61 -346h541l-33 -185h-539l-70 -387h611l-33 -184h-1001l225 1286h1003z" />
<glyph unicode="&#x389;" horiz-adv-x="1794" d="M254 858h-199l121 428h313zM1309 756l94 530h391l-227 -1286h-391l102 573h-432l-101 -573h-391l226 1286h391l-92 -530h430z" />
<glyph unicode="&#x38a;" horiz-adv-x="960" d="M254 858h-199l121 428h313zM956 1286l-225 -1286h-391l225 1286h391z" />
<glyph unicode="&#x38c;" horiz-adv-x="1773" d="M1145 1315q326 0 477 -177t94 -495q-55 -318 -268.5 -495t-540.5 -177t-478.5 177t-96.5 495q57 318 271.5 495t541.5 177zM258 858h-199l121 428h314zM940 160q138 0 211.5 107t120.5 376q33 178 27 286t-50 154.5t-137 46.5q-140 0 -214.5 -108t-121.5 -379 q-48 -269 -11.5 -376t175.5 -107z" />
<glyph unicode="&#x38e;" horiz-adv-x="1748" d="M305 858h-199l121 428h314zM1862 1286l-559 -696l-105 -590h-391l100 567l-289 719h439l162 -442l340 442h303z" />
<glyph unicode="&#x38f;" horiz-adv-x="1800" d="M229 0l39 223h320q-135 88 -195.5 215.5t-34.5 272.5q31 179 139 314.5t277 208.5t377 73q319 0 481 -162t115 -434q-26 -144 -134.5 -271t-279.5 -217h312l-39 -223h-613l39 223l8 43q105 44 167 149.5t96 295.5q38 218 -5 314.5t-180 96.5q-130 0 -203.5 -96.5 t-111.5 -314.5q-34 -193 -13.5 -299t99.5 -144l-21 -116l-26 -152h-613zM264 858h-198l120 428h314z" />
<glyph unicode="&#x390;" horiz-adv-x="630" d="M276 1087l125 322h256l-186 -322h-195zM221 1286l-35 -199h-215l35 199h215zM899 1286l-35 -199h-215l35 199h215zM524 913l-110 -620q-8 -47 7 -79t48 -32h31l-31 -182h-143q-146 0 -226.5 72.5t-58.5 191.5l115 649h368z" />
<glyph unicode="&#x391;" horiz-adv-x="1394" d="M891 0l-53 303h-510l-150 -303h-272l647 1286h510l229 -1286h-401zM420 487h387l-100 582z" />
<glyph unicode="&#x392;" horiz-adv-x="1402" d="M1059 694q149 -25 214 -107.5t42 -217.5q-32 -181 -188.5 -275t-421.5 -94h-691l226 1286h563q280 0 410.5 -84.5t101.5 -245.5q-15 -87 -81 -154.5t-175 -107.5zM745 1102h-145l-63 -357q158 0 248.5 48.5t107.5 142.5q13 82 -25.5 124t-122.5 42zM436 184h197 q103 0 166 53.5t82 157.5q15 91 -53 139t-212 48q-7 0 -110 -7z" />
<glyph unicode="&#x393;" horiz-adv-x="1028" d="M406 0h-392l226 1286h880l-33 -182h-489z" />
<glyph unicode="&#x394;" horiz-adv-x="1366" d="M834 182l-152 860l-438 -860h590zM-63 0l32 182l566 1104h509l209 -1104l-30 -182h-1286z" />
<glyph unicode="&#x395;" horiz-adv-x="1191" d="M1243 1286l-33 -184h-610l-61 -346h540l-32 -185h-539l-70 -387h611l-33 -184h-1002l226 1286h1003z" />
<glyph unicode="&#x396;" horiz-adv-x="1243" d="M1303 1286l-43 -248l-848 -854h698l-33 -184h-1157l41 227l873 875h-633l32 184h1070z" />
<glyph unicode="&#x397;" horiz-adv-x="1454" d="M969 756l94 530h391l-227 -1286h-391l102 573h-432l-100 -573h-392l226 1286h391l-92 -530h430z" />
<glyph unicode="&#x398;" horiz-adv-x="1511" d="M883 1315q326 0 477 -177t94 -495q-55 -318 -268.5 -495t-540.5 -177t-478.5 177t-96.5 495q57 318 271.5 495t541.5 177zM678 160q138 0 211.5 107t120.5 376q33 178 27 286t-50 154.5t-137 46.5q-140 0 -214.5 -108t-121.5 -379q-48 -269 -11.5 -376t175.5 -107z M582 539l32 202h330l-35 -202h-327z" />
<glyph unicode="&#x399;" horiz-adv-x="634" d="M631 1286l-225 -1286h-392l226 1286h391z" />
<glyph unicode="&#x39a;" horiz-adv-x="1429" d="M1366 0h-438l-353 598h-65l-104 -598h-392l226 1286h391l-90 -504h73l469 504h439l-582 -602z" />
<glyph unicode="&#x39b;" horiz-adv-x="1394" d="M887 0l-185 1051l-520 -1051h-272l647 1286h506l229 -1286h-405z" />
<glyph unicode="&#x39c;" horiz-adv-x="1781" d="M1264 1286h450l-108 -1286h-404l105 948l-443 -948h-266l-106 981l-238 -981h-291l346 1286h471l99 -792z" />
<glyph unicode="&#x39d;" horiz-adv-x="1499" d="M1262 1286h237l-227 -1286h-506l-340 993l-174 -993h-238l226 1286h516l334 -979z" />
<glyph unicode="&#x39e;" horiz-adv-x="1144" d="M1174 1286l-52 -287h-960l51 287h961zM135 504l51 287h836l-51 -287h-836zM-35 0l49 287h1004l-51 -287h-1002z" />
<glyph unicode="&#x39f;" horiz-adv-x="1511" d="M883 1315q326 0 477 -177t94 -495q-55 -318 -268.5 -495t-540.5 -177t-478.5 177t-96.5 495q57 318 271.5 495t541.5 177zM678 160q138 0 211.5 107t120.5 376q33 178 27 286t-50 154.5t-137 46.5q-140 0 -214.5 -108t-121.5 -379q-48 -269 -11.5 -376t175.5 -107z" />
<glyph unicode="&#x3a0;" horiz-adv-x="1454" d="M406 0h-392l226 1286h1214l-227 -1286h-391l194 1104h-432z" />
<glyph unicode="&#x3a1;" horiz-adv-x="1349" d="M1364 905q-35 -198 -232.5 -309t-510.5 -111h-129l-86 -485h-392l226 1286h622q269 0 401.5 -100.5t100.5 -280.5zM932 899q15 91 -32 147t-138 56h-162l-78 -432q194 0 291 54t119 175z" />
<glyph unicode="&#x3a3;" horiz-adv-x="1222" d="M-35 0l51 295l420 317l-276 492l33 182h1071l-31 -182h-563l209 -397l-539 -412h772l-51 -295h-1096z" />
<glyph unicode="&#x3a4;" horiz-adv-x="1245" d="M1341 1286l-32 -184h-402l-194 -1102h-391l194 1102h-401l30 184h1196z" />
<glyph unicode="&#x3a5;" horiz-adv-x="1277" d="M1391 1286l-560 -696l-104 -590h-391l100 567l-289 719h439l162 -442l339 442h304z" />
<glyph unicode="&#x3a6;" horiz-adv-x="1738" d="M1194 1335l-25 -143q300 -32 433 -173t90 -382q-43 -240 -225 -380.5t-492 -172.5l-25 -135h-391l25 135q-301 32 -434.5 172t-90.5 381q43 242 225 382.5t494 172.5l25 143h391zM1247 637q34 179 10.5 280t-112.5 140l-148 -836q101 39 159 137.5t91 278.5zM504 637 q-34 -179 -10.5 -280t112.5 -140l148 838q-101 -39 -159 -138t-91 -280z" />
<glyph unicode="&#x3a7;" horiz-adv-x="1302" d="M1202 0h-434l-199 406l-360 -406h-344l592 629l-320 657h430l172 -385l318 385h329l-526 -596z" />
<glyph unicode="&#x3a8;" horiz-adv-x="1712" d="M1171 1286l-147 -835q202 69 248 325l90 510h393l-86 -491q-40 -229 -206 -353.5t-468 -152.5l-51 -289h-391l51 289q-291 29 -412 153.5t-81 352.5l88 491h391l-90 -510q-46 -252 133 -325l147 835h391z" />
<glyph unicode="&#x3a9;" horiz-adv-x="1540" d="M-31 0l39 223h320q-135 88 -195.5 215.5t-34.5 272.5q31 179 139 314.5t277 208.5t377 73q319 0 481 -162t115 -434q-26 -144 -134.5 -271t-279.5 -217h311l-38 -223h-613l39 223l8 43q105 44 166.5 149.5t95.5 295.5q38 218 -4.5 314.5t-179.5 96.5q-130 0 -203.5 -96.5 t-111.5 -314.5q-34 -193 -13.5 -299t99.5 -144l-21 -116l-26 -152h-613z" />
<glyph unicode="&#x3aa;" horiz-adv-x="634" d="M451 1679l-41 -223h-269l39 223h271zM838 1679l-41 -223h-269l39 223h271zM631 1286l-225 -1286h-392l226 1286h391z" />
<glyph unicode="&#x3ab;" horiz-adv-x="1277" d="M827 1679l-41 -223h-268l39 223h270zM1214 1679l-40 -223h-269l39 223h270zM1391 1286l-560 -696l-104 -590h-391l100 567l-289 719h439l162 -442l339 442h304z" />
<glyph unicode="&#x3ac;" horiz-adv-x="1349" d="M594 1087l125 322h254l-187 -322h-192zM1251 913l-110 -620q-8 -46 5.5 -78.5t49.5 -32.5h33l-31 -182h-143q-168 0 -248 92q-137 -121 -320 -121q-243 0 -369.5 135.5t-88.5 352.5q37 215 191.5 349t365.5 134q172 0 284 -100l13 71h368zM821 459q28 157 -11 240 t-140 83q-94 0 -158 -83t-92 -240q-27 -156 9.5 -242t125.5 -86q101 0 169.5 84.5t96.5 243.5z" />
<glyph unicode="&#x3ad;" horiz-adv-x="1028" d="M522 1087l125 322h254l-186 -322h-193zM236 492q-163 71 -138 215q9 50 35 89.5t66 64.5t84.5 42t101 25t105 11t106.5 3q239 0 405 -98l-79 -172q-147 88 -269 88q-151 0 -166 -84q-6 -36 12.5 -59.5t60 -33.5t77.5 -13t88 -3h104l-32 -182h-99q-50 0 -81 -1t-78 -6.5 t-76 -16t-53 -31.5t-29 -51q-10 -61 36 -92t124 -31q166 0 352 114l31 -178q-249 -121 -471 -121q-78 0 -145 7t-133 26.5t-109.5 50t-65.5 81t-10 116.5q15 89 82 153.5t164 86.5z" />
<glyph unicode="&#x3ae;" horiz-adv-x="1224" d="M651 1087l125 322h254l-186 -322h-193zM965 -332h-369l174 996q8 48 -39 73t-119 25q-45 0 -123 -21l-129 -741h-368l135 768q365 174 606 174q231 0 329 -83t66 -263z" />
<glyph unicode="&#x3af;" horiz-adv-x="630" d="M287 1087l125 322h254l-187 -322h-192zM524 913l-110 -620q-8 -47 7 -79t48 -32h31l-31 -182h-143q-146 0 -226.5 72.5t-58.5 191.5l115 649h368z" />
<glyph unicode="&#x3b0;" horiz-adv-x="1159" d="M496 1087l125 322h256l-187 -322h-194zM440 1286l-34 -199h-216l35 199h215zM1118 1286l-35 -199h-215l35 199h215zM150 913h354l-98 -559q-20 -113 6.5 -157.5t115.5 -44.5q144 0 207 342q40 229 -12 419h340q51 -197 10 -424q-46 -264 -187.5 -392t-387.5 -128 q-260 0 -372 85.5t-81 260.5z" />
<glyph unicode="&#x3b1;" horiz-adv-x="1349" d="M1251 913l-110 -620q-8 -46 5.5 -78.5t49.5 -32.5h33l-31 -182h-143q-168 0 -248 92q-137 -121 -320 -121q-243 0 -369.5 135.5t-88.5 352.5q37 215 191.5 349t365.5 134q172 0 284 -100l13 71h368zM821 459q28 157 -11 240t-140 83q-94 0 -158 -83t-92 -240 q-27 -156 9.5 -242t125.5 -86q101 0 169.5 84.5t96.5 243.5z" />
<glyph unicode="&#x3b2;" horiz-adv-x="1277" d="M891 715q146 -10 233.5 -100.5t61.5 -243.5q-33 -184 -182.5 -292t-341.5 -108q-94 0 -169 30.5t-112 90.5l-74 -424h-368l213 1206q24 133 115 235t222.5 154t280.5 52q97 0 177 -14t149 -46t101 -93.5t17 -147.5q-20 -119 -110.5 -194.5t-212.5 -104.5zM537 979 l-117 -668q29 -75 72.5 -116t123.5 -41q140 0 181 227q15 91 -10.5 157t-96.5 66q-34 0 -100 -8l28 164q79 9 133 79.5t72 174.5q11 64 -23 100.5t-93 36.5q-67 0 -112 -49.5t-58 -122.5z" />
<glyph unicode="&#x3b3;" horiz-adv-x="1052" d="M217 53l-156 860h379l92 -581q174 253 220 516q1 9 4 30.5t4 34.5h289q-6 -55 -15 -108q-36 -202 -149 -395.5t-305 -397.5l-62 -344h-368z" />
<glyph unicode="&#x3b4;" horiz-adv-x="1247" d="M1159 406q-35 -204 -206 -319.5t-441 -115.5q-268 0 -398.5 115.5t-95.5 319.5q35 199 165.5 315t328.5 125q-63 0 -109 68.5t-32 142.5q15 87 79.5 147t150 85.5t185.5 25.5q207 0 353 -80l-43 -236q-144 80 -299 80q-39 0 -70 -20.5t-35 -52.5q-7 -37 13 -62.5 t63 -54.5q33 -19 100 -54q39 -19 58 -29.5t53.5 -30.5t52 -34t44 -37t39 -43.5t27.5 -49t19.5 -58.5t5 -67.5t-7.5 -79.5zM410 406q-26 -144 6 -209.5t125 -65.5q98 0 150 64t77 211q26 147 -5 213.5t-124 66.5q-97 0 -149.5 -65.5t-79.5 -214.5z" />
<glyph unicode="&#x3b5;" horiz-adv-x="1028" d="M236 492q-163 71 -138 215q9 50 35 89.5t66 64.5t84.5 42t101 25t105 11t106.5 3q239 0 405 -98l-79 -172q-147 88 -269 88q-151 0 -166 -84q-6 -36 12.5 -59.5t60 -33.5t77.5 -13t88 -3h104l-32 -182h-99q-50 0 -81 -1t-78 -6.5t-76 -16t-53 -31.5t-29 -51 q-10 -61 36 -92t124 -31q166 0 352 114l31 -178q-249 -121 -471 -121q-78 0 -145 7t-133 26.5t-109.5 50t-65.5 81t-10 116.5q15 89 82 153.5t164 86.5z" />
<glyph unicode="&#x3b6;" horiz-adv-x="823" d="M901 1286l-37 -213l-4 -22q-72 -53 -125.5 -97t-113.5 -103t-101.5 -115t-74 -125.5t-44.5 -141.5q-31 -190 62 -266q17 -15 38.5 -31t38 -27.5t36.5 -26.5t34 -27t29.5 -29.5t23 -33.5t15.5 -39t6.5 -46.5t-4.5 -55.5q-20 -116 -121 -221h-182q57 81 72 174q5 30 -6 56 t-36.5 47t-46.5 34t-53 29q-336 127 -280 443q12 70 38.5 131.5t77 117.5t90.5 95t120 91.5t120.5 76.5t135.5 78l42 24h-448l39 223h659z" />
<glyph unicode="&#x3b7;" horiz-adv-x="1224" d="M965 -332h-369l174 996q8 48 -39 73t-119 25q-45 0 -123 -21l-129 -741h-368l135 768q365 174 606 174q231 0 329 -83t66 -263z" />
<glyph unicode="&#x3b8;" horiz-adv-x="1263" d="M1210 641q-121 -670 -690 -670q-572 0 -454 670q120 674 690 674q571 0 454 -674zM727 1153q-98 0 -152.5 -90.5t-101.5 -333.5h361q36 241 10.5 332.5t-117.5 91.5zM547 131q101 0 155.5 89.5t100.5 326.5h-363q-33 -235 -8 -325.5t115 -90.5z" />
<glyph unicode="&#x3b9;" horiz-adv-x="630" d="M524 913l-110 -620q-8 -47 7 -79t48 -32h31l-31 -182h-143q-146 0 -226.5 72.5t-58.5 191.5l115 649h368z" />
<glyph unicode="&#x3ba;" horiz-adv-x="1228" d="M434 379l-67 -379h-369l162 913h368l-61 -350h47l143 176q101 115 231.5 155t348.5 40l-33 -182q-118 0 -196 -78l-193 -201l332 -473h-402l-256 379h-55z" />
<glyph unicode="&#x3bb;" horiz-adv-x="1114" d="M623 0l-117 471l-289 -471h-319l514 842l-52 207q-11 46 -57 60.5t-117 14.5l33 183q241 0 365.5 -57t156.5 -185l267 -1065h-385z" />
<glyph unicode="&#x3bc;" horiz-adv-x="1239" d="M-76 -428l144 821l92 520h368l-112 -641q-10 -63 26 -91.5t127 -28.5q63 0 125 22l131 739h369l-143 -817q-270 -125 -598 -125q-33 0 -91 4l-71 -403h-367z" />
<glyph unicode="&#x3bd;" horiz-adv-x="1054" d="M780 913h271q-6 -55 -15 -108q-36 -206 -152.5 -402.5t-316.5 -402.5h-344l-162 913h375l92 -624q99 151 156.5 282.5t83.5 270.5q8 46 12 71z" />
<glyph unicode="&#x3be;" horiz-adv-x="817" d="M399 680q-127 28 -175 56q-93 56 -74 169q29 151 294 199h-333l32 182h742l-33 -182h-51q-99 0 -172.5 -47t-87.5 -131q-12 -64 25 -107t128 -43h39l-31 -182h-57q-100 0 -162 -53t-75 -131q-14 -84 15 -143.5t89 -90.5q183 -90 145 -295q-23 -129 -104 -213h-182 q45 83 61 174q13 76 -30.5 128t-129.5 89q-125 52 -168 83q-97 68 -94 189q1 27 6 58q11 65 47.5 118t90 88t115.5 56t130 29z" />
<glyph unicode="&#x3bf;" horiz-adv-x="1251" d="M1171 457q-43 -245 -205.5 -365.5t-451.5 -120.5q-288 0 -408 120.5t-77 365.5t205.5 365t451.5 120q288 0 408 -120t77 -365zM780 457q30 180 2 252.5t-125 72.5q-101 0 -153 -72t-84 -253q-30 -180 -1.5 -253t124.5 -73q102 0 153 72t84 254z" />
<glyph unicode="&#x3c0;" horiz-adv-x="1345" d="M70 731l32 182h1237l-32 -182h-119l-78 -438q-8 -47 7 -79t48 -32h31l-31 -182h-143q-146 0 -226.5 72.5t-58.5 191.5l82 467h-264l-127 -731h-369l127 731h-116z" />
<glyph unicode="&#x3c1;" horiz-adv-x="1282" d="M1202 455q-41 -233 -196 -358.5t-402 -125.5q-142 0 -248 64l-65 -367h-371l139 787q41 236 211 361.5t447 125.5q278 0 402 -125t83 -362zM811 455q30 177 1.5 252t-122.5 75q-110 0 -169.5 -75t-90.5 -252q-31 -172 2 -246t141 -74q100 0 153.5 73t84.5 247z" />
<glyph unicode="&#x3c2;" horiz-adv-x="921" d="M582 -332h-217q88 120 98 182q8 41 0.5 70t-31 47t-45.5 28.5t-59 23.5t-56 22q-141 62 -205.5 172t-37.5 264q38 211 212.5 338t424.5 127q164 0 297 -84l-91 -162q-113 64 -204 64q-92 0 -159 -72.5t-89 -191.5q-15 -88 3.5 -159t70.5 -110q16 -13 37 -28.5t36.5 -26.5 t34.5 -26t32.5 -27t28 -27.5t24.5 -30.5t18 -34t11.5 -38.5t3.5 -43.5t-5 -51q-9 -57 -45.5 -118.5t-87.5 -107.5z" />
<glyph unicode="&#x3c3;" horiz-adv-x="1325" d="M1171 461q-86 -490 -657 -490q-569 0 -483 490q80 452 649 452h692l-33 -182h-249q109 -109 81 -270zM780 461q29 163 0.5 228t-127.5 65q-103 0 -153 -64.5t-78 -228.5q-31 -183 -4 -255.5t125 -72.5q103 0 153.5 71.5t83.5 256.5z" />
<glyph unicode="&#x3c4;" horiz-adv-x="899" d="M45 731l31 182h846l-31 -182h-238l-78 -438q-8 -46 8 -78.5t48 -32.5h28l-30 -182h-140q-146 0 -227 72.5t-59 191.5l82 467h-240z" />
<glyph unicode="&#x3c5;" horiz-adv-x="1159" d="M150 913h354l-98 -559q-20 -113 6.5 -157.5t115.5 -44.5q144 0 207 342q40 229 -12 419h340q51 -197 10 -424q-46 -264 -187.5 -392t-387.5 -128q-260 0 -372 85.5t-81 260.5z" />
<glyph unicode="&#x3c6;" horiz-adv-x="1583" d="M1503 457q-74 -416 -631 -475l-55 -314h-383l55 314q-533 59 -462 475q37 206 195.5 326t434.5 149l39 221h383l-39 -221q266 -29 383 -149.5t80 -325.5zM397 457q-28 -146 -1 -227t118 -113l119 682q-100 -32 -154.5 -113t-81.5 -229zM1130 457q28 146 1.5 228 t-115.5 114l-119 -682q100 32 153 111.5t80 228.5z" />
<glyph unicode="&#x3c7;" horiz-adv-x="1054" d="M184 -332h-348l457 590l-158 442q-12 37 -26 48.5t-50 11.5h-28l32 182h138q111 0 194 -51t117 -148l47 -129l215 299h348l-458 -594l145 -407q8 -25 13.5 -37.5t20 -25.5t34.5 -13h32l-30 -182h-160q-96 0 -167 39t-99 119l-54 151z" />
<glyph unicode="&#x3c8;" horiz-adv-x="1667" d="M147 913h371l-86 -497q-37 -225 137 -285l181 1022h370l-178 -1014q215 76 268 355q41 236 -12 419h371q52 -197 10 -424q-79 -451 -666 -509l-55 -312h-371l54 307q-276 22 -397.5 122t-90.5 280z" />
<glyph unicode="&#x3c9;" horiz-adv-x="1642" d="M598 354l49 283h371l-49 -283q-35 -202 59 -202q51 0 91 74t65 212q20 119 10 250.5t-45 224.5h371q34 -97 43 -231t-11 -252q-35 -204 -190 -332.5t-365 -128.5q-108 0 -173 58.5t-76 160.5q-47 -102 -132.5 -160.5t-195.5 -58.5q-208 0 -318 129t-73 332 q20 112 76.5 247t125.5 236h371q-68 -94 -124.5 -227.5t-78.5 -251.5q-24 -136 -9 -209t65 -73q104 0 143 202z" />
<glyph unicode="&#x3ca;" horiz-adv-x="630" d="M344 1286l-35 -199h-231l35 199h231zM700 1286l-34 -199h-234l35 199h233zM524 913l-110 -620q-8 -47 7 -79t48 -32h31l-31 -182h-143q-146 0 -226.5 72.5t-58.5 191.5l115 649h368z" />
<glyph unicode="&#x3cb;" horiz-adv-x="1159" d="M641 1286l-35 -199h-231l35 199h231zM997 1286l-34 -199h-234l35 199h233zM150 913h354l-98 -559q-20 -113 6.5 -157.5t115.5 -44.5q144 0 207 342q40 229 -12 419h340q51 -197 10 -424q-46 -264 -187.5 -392t-387.5 -128q-260 0 -372 85.5t-81 260.5z" />
<glyph unicode="&#x3cc;" horiz-adv-x="1251" d="M627 1087l125 322h254l-187 -322h-192zM1171 457q-43 -245 -205.5 -365.5t-451.5 -120.5q-288 0 -408 120.5t-77 365.5t205.5 365t451.5 120q288 0 408 -120t77 -365zM780 457q30 180 2 252.5t-125 72.5q-101 0 -153 -72t-84 -253q-30 -180 -1.5 -253t124.5 -73 q102 0 153 72t84 254z" />
<glyph unicode="&#x3cd;" horiz-adv-x="1159" d="M526 1087l125 322h254l-186 -322h-193zM150 913h354l-98 -559q-20 -113 6.5 -157.5t115.5 -44.5q144 0 207 342q40 229 -12 419h340q51 -197 10 -424q-46 -264 -187.5 -392t-387.5 -128q-260 0 -372 85.5t-81 260.5z" />
<glyph unicode="&#x3ce;" horiz-adv-x="1642" d="M811 1087l125 322h254l-186 -322h-193zM598 354l49 283h371l-49 -283q-35 -202 59 -202q51 0 91 74t65 212q20 119 10 250.5t-45 224.5h371q34 -97 43 -231t-11 -252q-35 -204 -190 -332.5t-365 -128.5q-108 0 -173 58.5t-76 160.5q-47 -102 -132.5 -160.5t-195.5 -58.5 q-208 0 -318 129t-73 332q20 112 76.5 247t125.5 236h371q-68 -94 -124.5 -227.5t-78.5 -251.5q-24 -136 -9 -209t65 -73q104 0 143 202z" />
<glyph unicode="&#x3cf;" horiz-adv-x="1429" d="M1366 0l-424 -334h-283l224 334l-324 598h-49l-104 -598h-392l226 1286h391l-88 -504h49l469 504h440l-575 -596z" />
<glyph unicode="&#x3d7;" horiz-adv-x="1335" d="M164 924q71 18 190 18q59 0 101.5 -13t68 -40t40 -60t17.5 -80.5t0 -93t-12 -106.5l195 108q82 113 201.5 187t263.5 102l114 -162q-98 -192 -294 -266q-17 -53 -27 -117q-39 -212 152 -256q-42 -232 -204.5 -354.5t-404.5 -122.5q-48 0 -114 25l41 223q39 -18 124 -18 q64 0 114.5 30.5t60.5 89.5q-191 57 -146 351l-139 -70q-87 -193 -287 -319l-201 108q29 193 154 299q13 61 16 82q13 76 11 132t-33.5 88t-93.5 32q-21 0 -33 -2z" />
<glyph unicode="&#x401;" horiz-adv-x="1191" d="M748 1679l-41 -223h-269l39 223h271zM1135 1679l-41 -223h-269l39 223h271zM1243 1286l-33 -184h-610l-61 -346h540l-32 -185h-539l-70 -387h611l-33 -184h-1002l226 1286h1003z" />
<glyph unicode="&#x402;" horiz-adv-x="1554" d="M858 0l31 182q82 0 126 62.5t66 181.5q20 108 -15 174t-112 66q-55 0 -123 -21l-114 -645h-391l194 1104h-405l30 182h1203l-31 -182h-406l-47 -270q102 12 209 12q217 0 325.5 -113.5t74.5 -304.5q-34 -195 -201.5 -311.5t-413.5 -116.5z" />
<glyph unicode="&#x403;" horiz-adv-x="1155" d="M911 1456h-254l207 223h316zM14 0l226 1286h1005l-31 -182h-614l-194 -1104h-392z" />
<glyph unicode="&#x404;" horiz-adv-x="1204" d="M1059 262l20 -207q-123 -37 -254 -60.5t-221 -23.5q-192 0 -326.5 84.5t-190.5 238t-21 351.5q54 299 268 484.5t504 185.5q90 0 215 -23.5t233 -60.5l-92 -195q-155 76 -289 76t-232 -99t-145 -282h453l-31 -182h-452q-13 -174 49 -269.5t188 -95.5q135 0 324 78z" />
<glyph unicode="&#x405;" horiz-adv-x="1226" d="M698 844q287 -84 390 -179.5t75 -256.5q-35 -201 -231.5 -319t-495.5 -118q-114 0 -235.5 26.5t-212.5 70.5l69 157q188 -69 349 -69q147 0 240.5 44t107.5 119q8 48 -39.5 79.5t-157.5 68.5q-98 28 -173.5 58.5t-126.5 58.5t-85.5 60.5t-53 61t-25 64t-5.5 65t8 68.5 q34 191 228 301.5t495 110.5q90 0 195 -23t192 -63l-86 -174q-82 35 -172.5 55t-159.5 20q-132 0 -215.5 -34.5t-93.5 -94.5q-8 -48 36 -80t183 -77z" />
<glyph unicode="&#x406;" horiz-adv-x="634" d="M631 1286l-225 -1286h-392l226 1286h391z" />
<glyph unicode="&#x407;" horiz-adv-x="634" d="M451 1679l-41 -223h-269l39 223h271zM838 1679l-41 -223h-269l39 223h271zM631 1286l-225 -1286h-392l226 1286h391z" />
<glyph unicode="&#x408;" horiz-adv-x="653" d="M262 1286h391l-227 -1284q-35 -201 -224.5 -314t-494.5 -116h-4l31 184h12q115 0 188.5 42t85.5 116z" />
<glyph unicode="&#x409;" horiz-adv-x="2195" d="M735 1104l-153 -703q-44 -196 -219.5 -298.5t-448.5 -102.5l33 182q49 15 83.5 30t68.5 40t56.5 62t34.5 87l193 885h1059l-82 -467h231q169 0 298 -55t191 -151t42 -212q-38 -215 -213 -308t-541 -93h-545l195 1104h-283zM1528 635h-201l-80 -453h187q113 0 169 54.5 t78 181.5q17 92 -28 154.5t-125 62.5z" />
<glyph unicode="&#x40a;" horiz-adv-x="2211" d="M1456 1286l-92 -530h233q169 -1 299 -50t194 -134t46 -189q-34 -196 -217 -289.5t-533 -93.5h-546l100 573h-436l-101 -573h-389l226 1286h391l-94 -530h436l92 530h391zM1264 184h166q118 0 181.5 47.5t82.5 149.5q13 83 -38.5 137.5t-142.5 54.5h-182z" />
<glyph unicode="&#x40b;" horiz-adv-x="1589" d="M1397 0h-391l100 565q8 48 -32.5 74.5t-121.5 26.5q-42 0 -121 -21l-114 -645h-391l194 1104h-405l30 182h1201l-31 -182h-404l-47 -273q105 15 209 15q248 0 346 -82.5t66 -265.5z" />
<glyph unicode="&#x40c;" horiz-adv-x="1429" d="M989 1456h-254l207 223h315zM1366 0h-438l-353 598h-65l-104 -598h-392l226 1286h391l-90 -504h73l469 504h439l-582 -602z" />
<glyph unicode="&#x40e;" horiz-adv-x="1126" d="M1167 1741q-31 -69 -60 -116t-71 -90.5t-99 -65t-130 -21.5q-78 0 -132 21t-84 62t-43.5 91.5t-15.5 118.5h117q19 -53 66.5 -79t109.5 -26q128 0 205 105h137zM825 453q-126 -235 -320 -344t-491 -109l33 182q195 0 320 70l-230 1034h424l117 -592l305 592h270z" />
<glyph unicode="&#x40f;" horiz-adv-x="1454" d="M379 -262l47 262h-412l226 1286h391l-193 -1104h430l195 1104h391l-227 -1286h-410l-47 -262h-391z" />
<glyph unicode="&#x410;" horiz-adv-x="1394" d="M891 0l-53 303h-510l-150 -303h-272l647 1286h510l229 -1286h-401zM420 487h387l-100 582z" />
<glyph unicode="&#x411;" horiz-adv-x="1372" d="M1286 1286l-31 -182h-657l-49 -285h229q281 -2 423 -113.5t108 -304.5q-35 -203 -221.5 -302t-532.5 -99h-541l226 1286h1046zM438 184h183q205 0 249 234q17 99 -20.5 158t-114.5 59h-219z" />
<glyph unicode="&#x412;" horiz-adv-x="1402" d="M1059 694q149 -25 214 -107.5t42 -217.5q-32 -181 -188.5 -275t-421.5 -94h-691l226 1286h563q280 0 410.5 -84.5t101.5 -245.5q-15 -87 -81 -154.5t-175 -107.5zM745 1102h-145l-63 -357q158 0 248.5 48.5t107.5 142.5q13 82 -25.5 124t-122.5 42zM436 184h197 q103 0 166 53.5t82 157.5q15 91 -53 139t-212 48q-7 0 -110 -7z" />
<glyph unicode="&#x413;" horiz-adv-x="1155" d="M14 0l226 1286h1005l-31 -182h-614l-194 -1104h-392z" />
<glyph unicode="&#x414;" horiz-adv-x="1452" d="M-131 -262l45 262l23 121l2 16l8 45q103 30 161 76.5t78 142.5l197 885h1008l-195 -1104h133l-31 -182h-2l-45 -262h-393l45 262h-598l-45 -262h-391zM735 1104l-155 -703q-26 -127 -115 -219h340l162 922h-232z" />
<glyph unicode="&#x415;" horiz-adv-x="1191" d="M1243 1286l-33 -184h-610l-61 -346h540l-32 -185h-539l-70 -387h611l-33 -184h-1002l226 1286h1003z" />
<glyph unicode="&#x416;" horiz-adv-x="2230" d="M-150 0l682 690l-366 596h440l291 -504h55l88 504h392l-91 -504h52l471 504h440l-580 -596l443 -690h-447l-368 598h-41l-107 -598h-391l107 598h-43l-576 -598h-451z" />
<glyph unicode="&#x417;" horiz-adv-x="1167" d="M821 692q156 -39 217 -117t37 -221q-14 -78 -56 -141t-94.5 -102t-122 -67.5t-125.5 -42t-119.5 -21t-89 -8.5t-48.5 -1q-271 0 -494 140l90 174q170 -131 353 -131q125 0 185 58t77 157q11 60 -5 103t-56.5 68t-97 36.5t-132.5 11.5h-88l31 176h92q73 0 128.5 12.5 t89 32t56 48.5t32.5 55.5t15 60.5q13 73 -27 115t-112 42q-145 0 -344 -102l-23 170q124 59 243 88t210 29q146 0 258.5 -38.5t171 -113.5t41.5 -174q-10 -56 -40.5 -106t-73.5 -86t-87.5 -62t-91.5 -43z" />
<glyph unicode="&#x418;" horiz-adv-x="1499" d="M479 1286l-170 -964l668 964h522l-227 -1286h-238l170 969l-674 -969h-516l226 1286h239z" />
<glyph unicode="&#x419;" horiz-adv-x="1499" d="M1272 1741q-25 -55 -47 -94.5t-54 -79t-67.5 -64t-84.5 -40t-108 -15.5q-78 0 -132 21t-84 62t-43 91.5t-15 118.5h117q19 -53 66.5 -79t109.5 -26q128 0 205 105h137zM479 1286l-170 -964l668 964h522l-227 -1286h-238l170 969l-674 -969h-516l226 1286h239z" />
<glyph unicode="&#x41a;" horiz-adv-x="1429" d="M1366 0h-438l-353 598h-65l-104 -598h-392l226 1286h391l-90 -504h73l469 504h439l-582 -602z" />
<glyph unicode="&#x41b;" horiz-adv-x="1439" d="M733 1104l-155 -703q-41 -190 -215.5 -295.5t-448.5 -105.5l33 182q109 32 165.5 83.5t73.5 135.5l195 885h1059l-228 -1286h-391l195 1104h-283z" />
<glyph unicode="&#x41c;" horiz-adv-x="1781" d="M1264 1286h450l-108 -1286h-404l105 948l-443 -948h-266l-106 981l-238 -981h-291l346 1286h471l99 -792z" />
<glyph unicode="&#x41d;" horiz-adv-x="1454" d="M969 756l94 530h391l-227 -1286h-391l102 573h-432l-100 -573h-392l226 1286h391l-92 -530h430z" />
<glyph unicode="&#x41e;" horiz-adv-x="1511" d="M883 1315q326 0 477 -177t94 -495q-55 -318 -268.5 -495t-540.5 -177t-478.5 177t-96.5 495q57 318 271.5 495t541.5 177zM678 160q138 0 211.5 107t120.5 376q33 178 27 286t-50 154.5t-137 46.5q-140 0 -214.5 -108t-121.5 -379q-48 -269 -11.5 -376t175.5 -107z" />
<glyph unicode="&#x41f;" horiz-adv-x="1454" d="M406 0h-392l226 1286h1214l-227 -1286h-391l194 1104h-432z" />
<glyph unicode="&#x420;" horiz-adv-x="1349" d="M1364 905q-35 -198 -232.5 -309t-510.5 -111h-129l-86 -485h-392l226 1286h622q269 0 401.5 -100.5t100.5 -280.5zM932 899q15 91 -32 147t-138 56h-162l-78 -432q194 0 291 54t119 175z" />
<glyph unicode="&#x421;" horiz-adv-x="1208" d="M1061 262l20 -207q-123 -38 -253 -61t-224 -23q-297 0 -444.5 184t-93.5 490q54 304 265.5 487t506.5 183q93 0 216.5 -23t233.5 -61l-92 -195q-166 76 -289 76q-155 0 -256 -119t-141 -348q-40 -225 18.5 -343t206.5 -118q60 0 150 21.5t176 56.5z" />
<glyph unicode="&#x422;" horiz-adv-x="1245" d="M1341 1286l-32 -184h-402l-194 -1102h-391l194 1102h-401l30 184h1196z" />
<glyph unicode="&#x423;" horiz-adv-x="1126" d="M825 453q-126 -235 -320 -344t-491 -109l33 182q195 0 320 70l-230 1034h424l117 -592l305 592h270z" />
<glyph unicode="&#x424;" horiz-adv-x="1746" d="M1192 1286l-23 -129q297 -32 433 -164.5t98 -353.5q-37 -214 -219.5 -341.5t-491.5 -158.5l-24 -139h-392l25 137q-300 31 -438 159t-101 343q38 222 222.5 354.5t496.5 163.5l23 129h391zM504 639q-22 -125 8.5 -196.5t120.5 -102.5l110 618q-103 -32 -158.5 -107.5 t-80.5 -211.5zM1255 639q25 133 -3.5 210t-116.5 109l-109 -616q99 31 154 102t75 195z" />
<glyph unicode="&#x425;" horiz-adv-x="1282" d="M1202 0h-434l-199 406l-360 -406h-344l592 629l-320 657h430l172 -385l318 385h329l-526 -596z" />
<glyph unicode="&#x426;" horiz-adv-x="1540" d="M983 -262l47 262h-1016l226 1286h391l-193 -1104h430l195 1104h391l-194 -1104h194l-31 -182l-47 -262h-393z" />
<glyph unicode="&#x427;" horiz-adv-x="1286" d="M215 1286h391l-117 -663q-8 -49 37.5 -74t114.5 -25q56 0 121 21l131 741h389l-225 -1286h-391l61 348q-105 -12 -205 -12q-240 0 -342.5 83t-70.5 265z" />
<glyph unicode="&#x428;" horiz-adv-x="1990" d="M631 1286l-193 -1104h287l195 1104h391l-195 -1104h289l194 1104h392l-228 -1286h-1749l226 1286h391z" />
<glyph unicode="&#x429;" horiz-adv-x="2074" d="M631 1286l-193 -1104h287l195 1104h391l-195 -1104h289l194 1104h392l-195 -1104h193l-25 -133h2l-55 -311h-391l47 262h-1553l226 1286h391z" />
<glyph unicode="&#x42a;" horiz-adv-x="1486" d="M731 1286l-82 -467h230q168 -1 298 -56.5t193 -151t43 -210.5q-37 -211 -216 -306t-540 -95h-544l194 1104h-198l32 182h590zM537 184h184q112 0 171 55t81 179q17 91 -30 154t-128 63h-199z" />
<glyph unicode="&#x42b;" horiz-adv-x="1968" d="M631 1286l-84 -467h233q167 -1 296.5 -56.5t192 -151t42.5 -210.5q-38 -215 -212.5 -308t-539.5 -93h-545l226 1286h391zM1968 1286l-225 -1286h-391l225 1286h391zM436 184h185q119 0 173 52t78 182q15 92 -30 154.5t-125 62.5h-203z" />
<glyph unicode="&#x42c;" horiz-adv-x="1382" d="M631 1286l-82 -467h229q166 -1 295.5 -57t192.5 -151.5t43 -209.5q-37 -211 -215.5 -306t-538.5 -95h-541l226 1286h391zM436 182h185q110 0 168.5 55.5t80.5 180.5q15 91 -30 154t-125 63h-199z" />
<glyph unicode="&#x42d;" horiz-adv-x="1204" d="M25 262q162 -78 297 -78q133 0 226 92.5t140 272.5h-452l32 182h453q19 187 -43.5 284t-198.5 97q-120 0 -317 -76l-23 195q277 84 479 84q298 0 443.5 -181.5t91.5 -488.5q-55 -310 -265.5 -492t-510.5 -182q-93 0 -213.5 23t-231.5 61z" />
<glyph unicode="&#x42e;" horiz-adv-x="2183" d="M1554 1315q326 0 477.5 -177.5t94.5 -494.5q-55 -318 -268.5 -495t-540.5 -177q-309 0 -462 158t-124 444h-225l-100 -573h-392l226 1286h393l-94 -530h229q80 266 285 412.5t501 146.5zM1350 160q138 0 211 107t120 376q33 178 27.5 286t-49.5 154.5t-137 46.5 q-140 0 -214.5 -108t-121.5 -379q-48 -269 -11.5 -376t175.5 -107z" />
<glyph unicode="&#x42f;" horiz-adv-x="1398" d="M145 938q31 177 186 262.5t445 85.5h623l-228 -1286h-391l90 504q-55 0 -149 4l-348 -508h-445l408 575q-124 53 -168.5 141.5t-22.5 221.5zM575 934q-20 -109 61.5 -179.5t221.5 -70.5h43l74 420h-158q-101 0 -164 -44t-78 -126z" />
<glyph unicode="&#x430;" horiz-adv-x="1150" d="M657 942q223 0 328 -91t72 -280l-94 -530q-258 -70 -494 -70q-278 0 -402 74.5t-98 226.5q52 300 693 306h26l14 84q5 26 -5 45.5t-26 29.5t-42 16t-46 7.5t-44 1.5q-168 0 -322 -43l-31 168q229 55 471 55zM496 133q34 0 112 8l56 301h-29q-50 -2 -88.5 -8.5t-80.5 -23 t-69.5 -51t-36.5 -85.5q-12 -75 30 -108t106 -33z" />
<glyph unicode="&#x431;" horiz-adv-x="1245" d="M1169 471q-40 -226 -215.5 -364t-423.5 -138q-261 0 -391.5 166t-83.5 436q29 162 96 301t165.5 243t232.5 163t287 59q174 0 297 49l-33 -184q-152 -47 -297 -47q-115 0 -188.5 -72t-118.5 -200q115 59 233 59q233 0 355 -130t85 -341zM422 580q-35 -202 2 -315 t137 -113q90 0 154 85.5t92 241.5q23 132 -11.5 206.5t-119.5 74.5q-132 0 -232 -68q-15 -71 -22 -112z" />
<glyph unicode="&#x432;" horiz-adv-x="1224" d="M893 510q136 -10 192 -65.5t37 -159.5q-25 -146 -198.5 -215.5t-509.5 -69.5h-416l162 913h528q243 0 349 -50t87 -156q-14 -74 -70 -122.5t-161 -74.5zM614 731h-114l-29 -168q255 0 270 92q8 38 -23.5 57t-103.5 19zM403 182h66q134 0 202 25.5t77 79.5 q9 57 -26.5 83.5t-121.5 26.5q-71 0 -162 -16z" />
<glyph unicode="&#x433;" horiz-adv-x="851" d="M920 926l-156 -209q-65 37 -152 37q-58 0 -123 -21l-127 -733h-368l143 819q267 123 602 123q115 0 181 -16z" />
<glyph unicode="&#x434;" horiz-adv-x="1312" d="M-125 -238l51 287l25 133q85 26 135.5 73.5t75.5 145.5l125 512h901l-127 -731h131l-25 -133h2l-51 -287h-370l43 238h-504l-41 -238h-371zM612 731l-80 -330q-35 -133 -112 -219h268l96 549h-172z" />
<glyph unicode="&#x435;" horiz-adv-x="1157" d="M963 68q-91 -33 -223 -65t-228 -32q-273 0 -398 126.5t-85 359.5q41 232 201 358.5t415 126.5q129 0 223.5 -24t145.5 -65.5t70.5 -92.5t9.5 -109q-11 -61 -41 -111t-70 -84t-96 -59.5t-111 -40.5t-123.5 -24t-125 -12.5t-124.5 -4.5q2 -86 45 -123.5t146 -37.5 q21 0 36 1.5t43 7t52 11t86.5 20.5t122.5 29zM616 782q-74 0 -121.5 -75.5t-74.5 -229.5q133 7 211 46t92 126q11 67 -14.5 100t-92.5 33z" />
<glyph unicode="&#x436;" horiz-adv-x="1816" d="M616 379l-346 -379h-399l440 481l-229 432h399l168 -350h66l61 350h371l-62 -350h70l291 350h399l-383 -432l273 -481h-394l-211 379h-77l-68 -379h-371l68 379h-66z" />
<glyph unicode="&#x437;" horiz-adv-x="1032" d="M758 500q89 -22 133 -88.5t29 -159.5q-25 -137 -170 -209t-398 -72q-215 0 -428 121l92 178q154 -114 324 -114q166 0 188 127q11 60 -52 85t-224 25h-98l30 182h107q153 0 221.5 25t79.5 82q6 38 -32 58t-116 20q-139 0 -313 -88l-22 172q207 98 407 98 q247 0 361.5 -54.5t93.5 -172.5q-25 -142 -213 -215z" />
<glyph unicode="&#x438;" horiz-adv-x="1257" d="M399 913l-104 -602l379 602h534l-161 -913h-240l104 602l-399 -602h-514l162 913h239z" />
<glyph unicode="&#x439;" horiz-adv-x="1257" d="M1098 1372q-31 -69 -60.5 -116t-73 -90.5t-102 -65t-133.5 -21.5q-146 0 -204.5 76t-61.5 217h117q38 -104 176 -104q150 0 227 104h115zM399 913l-104 -602l379 602h534l-161 -913h-240l104 602l-399 -602h-514l162 913h239z" />
<glyph unicode="&#x43a;" horiz-adv-x="1193" d="M436 379l-67 -379h-371l162 913h370l-61 -350h47l291 350h420l-383 -432l272 -481h-430l-203 379h-47z" />
<glyph unicode="&#x43b;" horiz-adv-x="1271" d="M614 731l-79 -330q-49 -198 -208.5 -299.5t-408.5 -101.5l31 182q87 26 139.5 74t75.5 145l121 512h936l-162 -913h-371l127 731h-201z" />
<glyph unicode="&#x43c;" horiz-adv-x="1755" d="M1028 913h604l-35 -913h-370l20 707l-229 -707h-584l-2 670l-205 -670h-278l276 913h598l-4 -659z" />
<glyph unicode="&#x43d;" horiz-adv-x="1222" d="M739 575l62 338h370l-159 -913h-371l66 391h-267l-69 -391h-373l162 913h372l-59 -338h266z" />
<glyph unicode="&#x43e;" horiz-adv-x="1251" d="M1171 457q-43 -245 -205.5 -365.5t-451.5 -120.5q-288 0 -408 120.5t-77 365.5t205.5 365t451.5 120q288 0 408 -120t77 -365zM780 457q30 180 2 252.5t-125 72.5q-101 0 -153 -72t-84 -253q-30 -180 -1.5 -253t124.5 -73q102 0 153 72t84 254z" />
<glyph unicode="&#x43f;" horiz-adv-x="1222" d="M641 0l129 731h-270l-129 -731h-373l162 913h1011l-159 -913h-371z" />
<glyph unicode="&#x440;" horiz-adv-x="1196" d="M1114 457q-41 -239 -183 -362.5t-374 -123.5q-92 0 -197 27l-73 -426h-369l229 1302q248 68 482 68q281 0 404.5 -123t80.5 -362zM723 457q29 173 0.5 249t-117.5 76q-60 0 -112 -28l-105 -596q7 -2 26.5 -8.5t28 -9t24.5 -5t32 -2.5q83 0 138 77t85 247z" />
<glyph unicode="&#x441;" horiz-adv-x="970" d="M27 457q41 229 208 357t422 128q186 0 338 -55l-88 -158q-112 31 -227 31q-105 0 -169.5 -75t-92.5 -228q-26 -150 13.5 -225.5t139.5 -75.5q119 0 240 28l35 -155q-183 -58 -361 -58q-255 0 -376.5 128.5t-81.5 357.5z" />
<glyph unicode="&#x442;" horiz-adv-x="1062" d="M1096 913l-31 -182h-326l-129 -731h-370l129 731h-324l31 182h1020z" />
<glyph unicode="&#x443;" horiz-adv-x="1079" d="M1139 913l-811 -1341h-338l280 446l-213 895h389l93 -495l295 495h305z" />
<glyph unicode="&#x444;" horiz-adv-x="1552" d="M797 -332h-371l55 314q-525 56 -454 475q74 419 622 475l41 237l387 95l-57 -332q521 -58 450 -475q-74 -416 -618 -475zM397 457q-20 -123 7 -195t108 -102l106 596q-93 -31 -146 -103t-75 -196zM1098 457q22 123 -4 195t-107 104l-104 -596q91 32 142 103.5t73 193.5z " />
<glyph unicode="&#x445;" horiz-adv-x="1089" d="M1001 0h-440l-125 229l-227 -229h-334l447 430l-263 483h422l115 -215l211 215h352l-446 -419z" />
<glyph unicode="&#x446;" horiz-adv-x="1355" d="M819 -238l41 238h-862l162 913h370l-129 -731h275l129 731h371l-129 -731h219l-33 -182l-43 -238h-371z" />
<glyph unicode="&#x447;" horiz-adv-x="1202" d="M113 913h370l-57 -327q-9 -51 29.5 -76t126.5 -25q57 0 127 17l71 411h371l-160 -913h-370l55 317q-108 -12 -213 -12q-232 0 -329.5 85.5t-65.5 262.5z" />
<glyph unicode="&#x448;" horiz-adv-x="1740" d="M741 913h371l-129 -731h209l129 731h371l-162 -913h-1532l162 913h370l-129 -731h211z" />
<glyph unicode="&#x449;" horiz-adv-x="1873" d="M741 913h371l-129 -731h209l129 731h371l-129 -731h221l-25 -131h2l-51 -289h-371l43 238h-1384l162 913h370l-129 -731h211z" />
<glyph unicode="&#x44a;" horiz-adv-x="1241" d="M604 913l-51 -286h102q281 0 406.5 -79t97.5 -237q-56 -311 -520 -311h-565l127 731h-152l31 182h524zM475 182h109q160 0 184 135q11 64 -28 95.5t-130 31.5h-88z" />
<glyph unicode="&#x44b;" horiz-adv-x="1720" d="M530 913l-51 -286h103q281 0 405 -78.5t96 -237.5q-53 -311 -520 -311h-565l162 913h370zM1669 913l-162 -913h-370l161 913h371zM401 182h107q160 0 184 135q11 63 -23.5 95t-115.5 32h-104z" />
<glyph unicode="&#x44c;" horiz-adv-x="1165" d="M530 913l-51 -286h103q281 0 405.5 -79t95.5 -237q-53 -311 -520 -311h-565l162 913h370zM401 182h72q197 0 221 135q11 64 -29.5 95.5t-134.5 31.5h-81z" />
<glyph unicode="&#x44d;" horiz-adv-x="972" d="M127 371l33 182h352q6 207 -164 207q-116 0 -237 -31l-35 158q174 55 358 55q254 0 377 -128t82 -357q-21 -123 -80.5 -218t-145 -152.5t-188 -86.5t-217.5 -29q-178 0 -338 58l90 155q109 -28 228 -28q100 0 156.5 58t84.5 157h-356z" />
<glyph unicode="&#x44e;" horiz-adv-x="1810" d="M1731 457q-43 -240 -209.5 -363t-448.5 -123q-261 0 -385.5 106.5t-107.5 313.5h-142l-69 -391h-371l162 913h370l-59 -338h147q135 367 627 367q282 0 404.5 -123.5t81.5 -361.5zM1350 457q32 175 3 250t-136 75t-161 -73.5t-87 -251.5q-32 -175 -3 -249.5t136 -74.5 t162 73.5t86 250.5z" />
<glyph unicode="&#x44f;" horiz-adv-x="1189" d="M-66 0l279 377q-180 74 -150 244q52 292 523 292h553l-162 -913h-371l56 322h-66h-39l-221 -322h-402zM455 616q-9 -55 34 -82.5t138 -27.5h67l41 225h-67q-192 0 -213 -115z" />
<glyph unicode="&#x451;" horiz-adv-x="1157" d="M641 1286l-35 -199h-231l35 199h231zM997 1286l-34 -199h-234l35 199h233zM963 68q-91 -33 -223 -65t-228 -32q-273 0 -398 126.5t-85 359.5q41 232 201 358.5t415 126.5q129 0 223.5 -24t145.5 -65.5t70.5 -92.5t9.5 -109q-11 -61 -41 -111t-70 -84t-96 -59.5 t-111 -40.5t-123.5 -24t-125 -12.5t-124.5 -4.5q2 -86 45 -123.5t146 -37.5q21 0 36 1.5t43 7t52 11t86.5 20.5t122.5 29zM616 782q-74 0 -121.5 -75.5t-74.5 -229.5q133 7 211 46t92 126q11 67 -14.5 100t-92.5 33z" />
<glyph unicode="&#x452;" horiz-adv-x="1230" d="M1028 0l-22 -125q-28 -160 -133.5 -246t-311.5 -86q-91 0 -179.5 22.5t-139.5 55.5l116 146q62 -25 162 -25q55 0 81 27t34 77l27 154h-3l117 662q9 51 -30 75.5t-128 24.5q-50 0 -120 -21l-131 -741h-369l182 1032h-108l26 146h109l18 108h369l-19 -108h355l-27 -146 h-354l-25 -141q119 51 230 51q223 0 316.5 -85.5t62.5 -262.5l-66 -377l-35 -194z" />
<glyph unicode="&#x453;" horiz-adv-x="802" d="M608 1087h-252l213 228h314zM920 926l-156 -209q-65 37 -152 37q-58 0 -123 -21l-127 -733h-368l143 819q267 123 602 123q115 0 181 -16z" />
<glyph unicode="&#x454;" horiz-adv-x="972" d="M27 457q41 230 207 357.5t423 127.5q187 0 338 -55l-88 -158q-112 31 -227 31q-91 0 -149 -51t-91 -156h357l-31 -182h-358q-6 -109 33.5 -162t129.5 -53q112 0 240 28l35 -155q-180 -58 -361 -58q-257 0 -377.5 128t-80.5 358z" />
<glyph unicode="&#x455;" horiz-adv-x="997" d="M365 -29q-250 0 -408 52l76 190q3 0 40.5 -7.5t75 -14t95 -12t106.5 -5.5q87 0 138.5 10t56.5 41q3 15 -9.5 26.5t-39.5 20t-56 15t-71.5 16.5t-73.5 19q-30 10 -55 20.5t-54 26.5t-50 34.5t-41.5 44t-29.5 55t-14.5 67.5t4.5 81q52 291 541 291q171 0 354 -59l-86 -185 q-173 43 -252 43q-182 0 -194 -57q-2 -16 10 -27t38 -19t53.5 -14t68 -14.5t69.5 -17.5q24 -8 44 -15.5t44 -18.5t42 -22t38.5 -26.5t33.5 -32.5t26.5 -38.5t17.5 -45.5t7 -54t-5 -63q-28 -154 -161 -229.5t-379 -75.5z" />
<glyph unicode="&#x456;" horiz-adv-x="579" d="M594 1286l-35 -199h-369l35 199h369zM528 913l-161 -913h-369l162 913h368z" />
<glyph unicode="&#x457;" horiz-adv-x="579" d="M348 1286l-35 -199h-231l35 199h231zM705 1286l-35 -199h-234l35 199h234zM528 909l-161 -913h-369l162 913h368z" />
<glyph unicode="&#x458;" horiz-adv-x="595" d="M610 1286l-35 -199h-368l35 199h368zM545 913l-185 -1038q-58 -332 -440 -332q-91 0 -179.5 22.5t-139.5 55.5l116 146q59 -25 162 -25q52 0 75.5 26.5t33.5 77.5l188 1067h369z" />
<glyph unicode="&#x459;" horiz-adv-x="1857" d="M614 731l-79 -330q-49 -198 -208.5 -299.5t-408.5 -101.5l31 182q87 26 139.5 74t75.5 145l121 512h936l-52 -286h105q280 0 406.5 -79t97.5 -237q-53 -311 -523 -311h-567l129 731h-203zM1145 444h-8l-45 -262h110q160 0 184 135q11 63 -49 95t-192 32z" />
<glyph unicode="&#x45a;" horiz-adv-x="1808" d="M739 575l62 338h370l-59 -338h105q265 0 398.5 -75.5t110.5 -210.5q-25 -137 -160 -213t-354 -76h-571l70 391h-273l-69 -391h-371l162 913h370l-59 -338h268zM1081 391h-2l-35 -209h111q75 0 123 28t57 77q8 50 -58.5 77t-195.5 27z" />
<glyph unicode="&#x45b;" horiz-adv-x="1230" d="M1028 0h-369l117 662q9 51 -30 75.5t-128 24.5q-50 0 -120 -21l-131 -741h-369l182 1032h-108l26 146h109l18 108h369l-19 -108h357l-27 -146h-356l-25 -141q119 51 230 51q223 0 316.5 -85.5t62.5 -262.5z" />
<glyph unicode="&#x45c;" horiz-adv-x="1193" d="M834 1087h-252l213 228h313zM436 379l-67 -379h-371l162 913h370l-61 -350h47l291 350h420l-383 -432l272 -481h-430l-203 379h-47z" />
<glyph unicode="&#x45e;" horiz-adv-x="1079" d="M1040 1372q-31 -69 -60.5 -116t-72.5 -90.5t-101.5 -65t-133.5 -21.5q-146 0 -204.5 76t-61.5 217h116q38 -104 176 -104q151 0 228 104h114zM1139 913l-811 -1341h-338l280 446l-213 895h389l93 -495l295 495h305z" />
<glyph unicode="&#x45f;" horiz-adv-x="1222" d="M279 -238l43 238h-324l162 913h372l-129 -731h269l129 731h370l-159 -913h-320l-43 -238h-370z" />
<glyph unicode="&#x490;" horiz-adv-x="1155" d="M14 0l226 1286h612l43 240h393l-51 -289l-23 -133h-612l-194 -1104h-394z" />
<glyph unicode="&#x491;" horiz-adv-x="915" d="M-2 0l162 913h411l43 238h371l-51 -287l-23 -133h-413l-129 -731h-371z" />
<glyph unicode="&#x1e02;" horiz-adv-x="1402" d="M633 1456l39 223h391l-39 -223h-391zM1059 694q149 -25 214 -107.5t42 -217.5q-32 -181 -188.5 -275t-421.5 -94h-691l226 1286h563q280 0 410.5 -84.5t101.5 -245.5q-15 -87 -81 -154.5t-175 -107.5zM745 1102h-145l-63 -357q158 0 248.5 48.5t107.5 142.5 q13 82 -25.5 124t-122.5 42zM436 184h197q103 0 166 53.5t82 157.5q15 91 -53 139t-212 48q-7 0 -110 -7z" />
<glyph unicode="&#x1e03;" horiz-adv-x="1204" d="M735 942q239 0 334.5 -119.5t52.5 -365.5t-205.5 -366t-451.5 -120q-244 0 -463 70l219 1245h369l-68 -381q136 37 213 37zM1081 1286l-39 -219h-366l37 219h368zM731 457q31 173 16.5 249t-81.5 76q-63 0 -172 -39l-103 -583q43 -29 105 -29q98 0 151 75t84 251z" />
<glyph unicode="&#x1e0a;" horiz-adv-x="1417" d="M649 1456l39 223h391l-39 -223h-391zM240 1286h583q294 0 444 -177.5t99 -469.5q-51 -288 -262.5 -463.5t-505.5 -175.5h-584zM438 184h133q132 0 222.5 118t128.5 337q40 225 -14.5 344t-194.5 119h-113z" />
<glyph unicode="&#x1e0b;" horiz-adv-x="1200" d="M1001 41q-249 -70 -485 -70q-282 0 -405 123t-82 363q43 239 184.5 362t374.5 123q99 0 198 -24l66 368h369zM735 1286l-39 -219h-366l37 219h368zM543 131q67 0 110 29l105 596q-77 26 -154 26q-73 0 -111.5 -69t-72.5 -256q-31 -187 -4.5 -256.5t127.5 -69.5z" />
<glyph unicode="&#x1e0c;" horiz-adv-x="1417" d="M240 1286h583q294 0 444 -177.5t99 -469.5q-51 -288 -262.5 -463.5t-505.5 -175.5h-584zM438 184h133q132 0 222.5 118t128.5 337q40 225 -14.5 344t-194.5 119h-113zM666 -379h-308l43 240h308z" />
<glyph unicode="&#x1e0d;" horiz-adv-x="1200" d="M1001 41q-249 -70 -485 -70q-282 0 -405 123t-82 363q43 239 184.5 362t374.5 123q99 0 198 -24l66 368h369zM543 131q67 0 110 29l105 596q-77 26 -154 26q-73 0 -111.5 -69t-72.5 -256q-31 -187 -4.5 -256.5t127.5 -69.5zM578 -379h-308l43 240h308z" />
<glyph unicode="&#x1e1e;" horiz-adv-x="1085" d="M516 1456l39 223h391l-39 -223h-391zM1163 1286l-30 -184h-533l-65 -373h489l-33 -184h-489l-96 -545h-392l226 1286h923z" />
<glyph unicode="&#x1e1f;" horiz-adv-x="704" d="M807 1649l-39 -219h-367l37 219h369zM649 1116q-49 0 -72.5 -27t-31.5 -77l-17 -99h211l-37 -200h-208l-125 -713h-373l127 713l35 200l12 70q58 332 440 332q89 0 175 -22.5t133 -55.5l-111 -145q-76 24 -158 24z" />
<glyph unicode="&#x1e24;" horiz-adv-x="1454" d="M969 756l94 530h391l-227 -1286h-391l102 573h-432l-100 -573h-392l226 1286h391l-92 -530h430zM709 -379h-308l43 240h308z" />
<glyph unicode="&#x1e25;" horiz-adv-x="1230" d="M1028 0h-369l117 662q9 51 -30 75.5t-128 24.5q-50 0 -120 -21l-131 -741h-369l227 1286h369l-70 -395q119 51 230 51q223 0 316.5 -85.5t62.5 -262.5zM598 -379h-307l43 240h307z" />
<glyph unicode="&#x1e40;" horiz-adv-x="1781" d="M844 1456l39 223h391l-39 -223h-391zM1264 1286h450l-108 -1286h-404l105 948l-443 -948h-266l-106 981l-238 -981h-291l346 1286h471l99 -792z" />
<glyph unicode="&#x1e41;" horiz-adv-x="1806" d="M1231 1315l-39 -219h-367l37 219h369zM1604 0h-369l117 659q9 53 -24.5 79t-102.5 26q-41 0 -115 -39l-8 -53l-119 -672h-369l117 662q18 100 -135 100q-26 0 -102 -21l-132 -741h-368l143 819q264 123 578 123q175 0 262 -90q181 90 348 90q219 0 316 -86.5t67 -261.5z " />
<glyph unicode="&#x1e44;" horiz-adv-x="1499" d="M713 1456l39 223h391l-39 -223h-391zM1262 1286h237l-227 -1286h-506l-340 993l-174 -993h-238l226 1286h516l334 -979z" />
<glyph unicode="&#x1e45;" horiz-adv-x="1226" d="M930 1315l-39 -219h-367l37 219h369zM1024 0h-369l117 662q18 100 -158 100q-46 0 -122 -21l-130 -741h-368l143 819q267 123 598 123q231 0 328 -85.5t65 -262.5z" />
<glyph unicode="&#x1e56;" horiz-adv-x="1349" d="M670 1456l39 223h391l-39 -223h-391zM1364 905q-35 -198 -232.5 -309t-510.5 -111h-129l-86 -485h-392l226 1286h622q269 0 401.5 -100.5t100.5 -280.5zM932 899q15 91 -32 147t-138 56h-162l-78 -432q194 0 291 54t119 175z" />
<glyph unicode="&#x1e57;" horiz-adv-x="1196" d="M913 1315l-39 -219h-366l37 219h368zM1114 457q-41 -239 -183 -362.5t-374 -123.5q-92 0 -197 27l-73 -426h-369l229 1302q248 68 482 68q281 0 404.5 -123t80.5 -362zM723 457q29 173 0.5 249t-117.5 76q-60 0 -112 -28l-105 -596q7 -2 26.5 -8.5t28 -9t24.5 -5t32 -2.5 q83 0 138 77t85 247z" />
<glyph unicode="&#x1e5a;" horiz-adv-x="1398" d="M1370 938q-38 -256 -313 -358l200 -580h-428l-159 506q-82 -6 -176 -6l-88 -500h-392l226 1286h624q272 0 401.5 -90t104.5 -258zM979 934q15 81 -31.5 124.5t-146.5 43.5h-201l-74 -418h41q163 0 278 69t134 181zM682 -379h-307l43 240h307z" />
<glyph unicode="&#x1e5b;" horiz-adv-x="851" d="M920 926l-156 -209q-65 37 -152 37q-58 0 -123 -21l-127 -733h-368l143 819q267 123 602 123q115 0 181 -16zM262 -379h-307l43 240h307z" />
<glyph unicode="&#x1e60;" horiz-adv-x="1226" d="M557 1456l39 223h391l-39 -223h-391zM698 844q287 -84 390 -179.5t75 -256.5q-35 -201 -231.5 -319t-495.5 -118q-114 0 -235.5 26.5t-212.5 70.5l69 157q188 -69 349 -69q147 0 240.5 44t107.5 119q8 48 -39.5 79.5t-157.5 68.5q-98 28 -173.5 58.5t-126.5 58.5 t-85.5 60.5t-53 61t-25 64t-5.5 65t8 68.5q34 191 228 301.5t495 110.5q90 0 195 -23t192 -63l-86 -174q-82 35 -172.5 55t-159.5 20q-132 0 -215.5 -34.5t-93.5 -94.5q-8 -48 36 -80t183 -77z" />
<glyph unicode="&#x1e61;" horiz-adv-x="997" d="M795 1315l-39 -219h-367l37 219h369zM365 -29q-250 0 -408 52l76 190q3 0 40.5 -7.5t75 -14t95 -12t106.5 -5.5q87 0 138.5 10t56.5 41q3 15 -9.5 26.5t-39.5 20t-56 15t-71.5 16.5t-73.5 19q-30 10 -55 20.5t-54 26.5t-50 34.5t-41.5 44t-29.5 55t-14.5 67.5t4.5 81 q52 291 541 291q171 0 354 -59l-86 -185q-173 43 -252 43q-182 0 -194 -57q-2 -16 10 -27t38 -19t53.5 -14t68 -14.5t69.5 -17.5q24 -8 44 -15.5t44 -18.5t42 -22t38.5 -26.5t33.5 -32.5t26.5 -38.5t17.5 -45.5t7 -54t-5 -63q-28 -154 -161 -229.5t-379 -75.5z" />
<glyph unicode="&#x1e62;" horiz-adv-x="1226" d="M698 844q287 -84 390 -179.5t75 -256.5q-35 -201 -231.5 -319t-495.5 -118q-114 0 -235.5 26.5t-212.5 70.5l69 157q188 -69 349 -69q147 0 240.5 44t107.5 119q8 48 -39.5 79.5t-157.5 68.5q-98 28 -173.5 58.5t-126.5 58.5t-85.5 60.5t-53 61t-25 64t-5.5 65t8 68.5 q34 191 228 301.5t495 110.5q90 0 195 -23t192 -63l-86 -174q-82 35 -172.5 55t-159.5 20q-132 0 -215.5 -34.5t-93.5 -94.5q-8 -48 36 -80t183 -77zM608 -379h-307l43 240h307z" />
<glyph unicode="&#x1e63;" horiz-adv-x="997" d="M365 -29q-250 0 -408 52l76 190q3 0 40.5 -7.5t75 -14t95 -12t106.5 -5.5q87 0 138.5 10t56.5 41q3 15 -9.5 26.5t-39.5 20t-56 15t-71.5 16.5t-73.5 19q-30 10 -55 20.5t-54 26.5t-50 34.5t-41.5 44t-29.5 55t-14.5 67.5t4.5 81q52 291 541 291q171 0 354 -59l-86 -185 q-173 43 -252 43q-182 0 -194 -57q-2 -16 10 -27t38 -19t53.5 -14t68 -14.5t69.5 -17.5q24 -8 44 -15.5t44 -18.5t42 -22t38.5 -26.5t33.5 -32.5t26.5 -38.5t17.5 -45.5t7 -54t-5 -63q-28 -154 -161 -229.5t-379 -75.5zM489 -379h-307l43 240h307z" />
<glyph unicode="&#x1e6a;" horiz-adv-x="1245" d="M578 1456l38 223h392l-39 -223h-391zM1341 1286l-32 -184h-402l-194 -1102h-391l194 1102h-401l30 184h1196z" />
<glyph unicode="&#x1e6b;" horiz-adv-x="751" d="M625 1577l-39 -219h-367l37 219h369zM645 182l-31 -182q-113 -29 -274 -29q-177 0 -252.5 84t-46.5 248l74 410l35 200l43 244l378 66l-53 -310h227l-34 -200h-226l-77 -439q-18 -100 57 -100q101 0 180 8z" />
<glyph unicode="&#x1e6c;" horiz-adv-x="1245" d="M1341 1286l-32 -184h-402l-194 -1102h-391l194 1102h-401l30 184h1196zM602 -379h-307l43 240h307z" />
<glyph unicode="&#x1e6d;" horiz-adv-x="751" d="M645 182l-31 -182q-113 -29 -274 -29q-177 0 -252.5 84t-46.5 248l74 410l35 200l43 244l378 66l-53 -310h227l-34 -200h-226l-77 -439q-18 -100 57 -100q101 0 180 8zM385 -379h-307l43 240h307z" />
<glyph unicode="&#x1e80;" horiz-adv-x="1859" d="M1018 1456l-191 223h316l127 -223h-252zM1673 1286h273l-486 -1286h-487l-17 645l-251 -645h-488l-82 1286h418l29 -954l364 954h363l30 -930z" />
<glyph unicode="&#x1e81;" horiz-adv-x="1622" d="M831 1087l-188 228h313l129 -228h-254zM1372 913h289l-438 -913h-365l-49 516l-248 -516h-352l-158 913h426l51 -524l252 524h299l54 -557z" />
<glyph unicode="&#x1e82;" horiz-adv-x="1859" d="M1278 1456h-254l207 223h315zM1673 1286h273l-486 -1286h-487l-17 645l-251 -645h-488l-82 1286h418l29 -954l364 954h363l30 -930z" />
<glyph unicode="&#x1e83;" horiz-adv-x="1622" d="M1077 1087h-252l213 228h314zM1372 913h289l-438 -913h-365l-49 516l-248 -516h-352l-158 913h426l51 -524l252 524h299l54 -557z" />
<glyph unicode="&#x1e84;" horiz-adv-x="1859" d="M1135 1679l-41 -223h-269l39 223h271zM1522 1679l-41 -223h-269l39 223h271zM1673 1286h273l-486 -1286h-487l-17 645l-251 -645h-488l-82 1286h418l29 -954l364 954h363l30 -930z" />
<glyph unicode="&#x1e85;" horiz-adv-x="1622" d="M915 1286l-34 -199h-232l35 199h231zM1272 1286l-35 -199h-233l34 199h234zM1372 913h289l-438 -913h-365l-49 516l-248 -516h-352l-158 913h426l51 -524l252 524h299l54 -557z" />
<glyph unicode="&#x1e92;" horiz-adv-x="1243" d="M1303 1286l-43 -248l-848 -854h698l-33 -184h-1157l41 227l873 875h-633l32 184h1070zM594 -379h-307l43 240h307z" />
<glyph unicode="&#x1e93;" horiz-adv-x="1015" d="M975 713l-551 -533h455l-31 -180h-907l36 203l562 530h-439l31 180h879zM500 -379h-307l43 240h307z" />
<glyph unicode="&#x1e9e;" horiz-adv-x="1419" d="M1034 709q167 -28 241 -121.5t48 -241.5q-31 -173 -201 -274t-430 -101q-65 0 -153 9l30 178q86 -4 111 -4q104 0 178.5 58t93.5 157q15 87 -54 145.5t-206 73.5l-19 3l-26 3l31 178q90 18 151.5 65.5t73.5 112.5q14 77 -27 121.5t-124 44.5q-85 0 -141 -40t-68 -109 l-170 -967h-369l152 860q38 220 198 337.5t420 117.5q270 0 399.5 -85t100.5 -243q-17 -100 -79.5 -172t-160.5 -106z" />
<glyph unicode="&#x1ea0;" horiz-adv-x="1394" d="M891 0l-53 303h-510l-150 -303h-272l647 1286h510l229 -1286h-401zM420 487h387l-100 582zM602 -379h-307l43 240h307z" />
<glyph unicode="&#x1ea1;" horiz-adv-x="1150" d="M657 942q223 0 328 -91t72 -280l-94 -530q-258 -70 -494 -70q-278 0 -402 74.5t-98 226.5q52 300 693 306h26l14 84q5 26 -5 45.5t-26 29.5t-42 16t-46 7.5t-44 1.5q-168 0 -322 -43l-31 168q229 55 471 55zM496 133q34 0 112 8l56 301h-29q-50 -2 -88.5 -8.5t-80.5 -23 t-69.5 -51t-36.5 -85.5q-12 -75 30 -108t106 -33zM551 -379h-307l43 240h307z" />
<glyph unicode="&#x1eb8;" horiz-adv-x="1191" d="M1243 1286l-33 -184h-610l-61 -346h540l-32 -185h-539l-70 -387h611l-33 -184h-1002l226 1286h1003zM600 -379h-307l43 240h307z" />
<glyph unicode="&#x1eb9;" horiz-adv-x="1157" d="M963 68q-91 -33 -223 -65t-228 -32q-273 0 -398 126.5t-85 359.5q41 232 201 358.5t415 126.5q129 0 223.5 -24t145.5 -65.5t70.5 -92.5t9.5 -109q-11 -61 -41 -111t-70 -84t-96 -59.5t-111 -40.5t-123.5 -24t-125 -12.5t-124.5 -4.5q2 -86 45 -123.5t146 -37.5 q21 0 36 1.5t43 7t52 11t86.5 20.5t122.5 29zM616 782q-74 0 -121.5 -75.5t-74.5 -229.5q133 7 211 46t92 126q11 67 -14.5 100t-92.5 33zM557 -379h-307l43 240h307z" />
<glyph unicode="&#x1ebc;" horiz-adv-x="1191" d="M1096 1683l32 -143q-54 -47 -103.5 -65.5t-123.5 -18.5q-62 0 -147 23q-82 24 -146 24q-54 0 -91 -12t-77 -41l-34 143q74 56 127.5 77.5t119.5 21.5q34 0 57 -4t54.5 -15.5t38.5 -13.5q59 -19 129 -19q58 0 93.5 9t70.5 34zM1243 1286l-33 -184h-610l-61 -346h540 l-32 -185h-539l-70 -387h611l-33 -184h-1002l226 1286h1003z" />
<glyph unicode="&#x1ebd;" horiz-adv-x="1157" d="M999 1315l37 -144q-54 -48 -105.5 -67t-125.5 -19q-72 0 -139 23q-6 2 -24.5 7.5t-28 7.5t-26.5 5.5t-34.5 5t-38.5 1.5q-50 0 -87 -12t-79 -42l-37 144q74 55 129.5 76.5t118.5 21.5q27 0 50 -3.5t36 -7.5t34 -11.5t32 -10.5q52 -18 129 -18q57 0 91 9t68 34zM963 68 q-91 -33 -223 -65t-228 -32q-273 0 -398 126.5t-85 359.5q41 232 201 358.5t415 126.5q129 0 223.5 -24t145.5 -65.5t70.5 -92.5t9.5 -109q-11 -61 -41 -111t-70 -84t-96 -59.5t-111 -40.5t-123.5 -24t-125 -12.5t-124.5 -4.5q2 -86 45 -123.5t146 -37.5q21 0 36 1.5t43 7 t52 11t86.5 20.5t122.5 29zM616 782q-74 0 -121.5 -75.5t-74.5 -229.5q133 7 211 46t92 126q11 67 -14.5 100t-92.5 33z" />
<glyph unicode="&#x1eca;" horiz-adv-x="634" d="M631 1286l-225 -1286h-392l226 1286h391zM289 -379h-307l43 240h307z" />
<glyph unicode="&#x1ecb;" horiz-adv-x="579" d="M594 1286l-35 -199h-369l35 199h369zM528 913l-161 -913h-369l162 913h368zM270 -379h-307l43 240h307z" />
<glyph unicode="&#x1ecc;" horiz-adv-x="1511" d="M883 1315q326 0 477 -177t94 -495q-55 -318 -268.5 -495t-540.5 -177t-478.5 177t-96.5 495q57 318 271.5 495t541.5 177zM678 160q138 0 211.5 107t120.5 376q33 178 27 286t-50 154.5t-137 46.5q-140 0 -214.5 -108t-121.5 -379q-48 -269 -11.5 -376t175.5 -107z M733 -379h-307l43 240h307z" />
<glyph unicode="&#x1ecd;" horiz-adv-x="1251" d="M1171 457q-43 -245 -205.5 -365.5t-451.5 -120.5q-288 0 -408 120.5t-77 365.5t205.5 365t451.5 120q288 0 408 -120t77 -365zM780 457q30 180 2 252.5t-125 72.5q-101 0 -153 -72t-84 -253q-30 -180 -1.5 -253t124.5 -73q102 0 153 72t84 254zM606 -379h-307l43 240h307 z" />
<glyph unicode="&#x1ee4;" horiz-adv-x="1468" d="M1085 1286h392l-158 -899q-34 -189 -223.5 -302.5t-472.5 -113.5t-433 113.5t-118 302.5l159 899h392l-172 -973q-12 -72 44.5 -115.5t159.5 -43.5t174.5 43.5t83.5 115.5zM713 -379h-307l43 240h307z" />
<glyph unicode="&#x1ee5;" horiz-adv-x="1228" d="M150 913h368l-112 -641q-10 -63 26 -91.5t127 -28.5q63 0 125 22l131 739h369l-144 -817q-270 -125 -598 -125q-236 0 -332 84t-65 264zM598 -379h-307l43 240h307z" />
<glyph unicode="&#x1ef2;" horiz-adv-x="1277" d="M745 1456l-190 223h315l127 -223h-252zM1391 1286l-560 -696l-104 -590h-391l100 567l-289 719h439l162 -442l339 442h304z" />
<glyph unicode="&#x1ef3;" horiz-adv-x="1079" d="M557 1087l-188 228h313l129 -228h-254zM1139 913l-811 -1341h-338l280 446l-213 895h389l93 -495l295 495h305z" />
<glyph unicode="&#x1ef8;" horiz-adv-x="1277" d="M1145 1683l33 -143q-54 -47 -104 -65.5t-124 -18.5q-62 0 -147 23q-82 24 -146 24q-54 0 -91 -12t-77 -41l-34 143q74 56 127.5 77.5t119.5 21.5q34 0 57 -4t54.5 -15.5t38.5 -13.5q59 -19 129 -19q58 0 93.5 9t70.5 34zM1391 1286l-560 -696l-104 -590h-391l100 567 l-289 719h439l162 -442l339 442h304z" />
<glyph unicode="&#x1ef9;" horiz-adv-x="1079" d="M961 1315l36 -144q-54 -48 -105.5 -67t-125.5 -19q-72 0 -139 23q-6 2 -24.5 7.5t-28 7.5t-26.5 5.5t-34.5 5t-38.5 1.5q-50 0 -87 -12t-79 -42l-37 144q74 55 129.5 76.5t118.5 21.5q27 0 50 -3.5t36 -7.5t34 -11.5t32 -10.5q52 -18 129 -18q57 0 91.5 9t68.5 34z M1139 913l-811 -1341h-338l280 446l-213 895h389l93 -495l295 495h305z" />
<glyph unicode="&#x2000;" horiz-adv-x="997" />
<glyph unicode="&#x2001;" horiz-adv-x="1995" />
<glyph unicode="&#x2002;" horiz-adv-x="997" />
<glyph unicode="&#x2003;" horiz-adv-x="1995" />
<glyph unicode="&#x2004;" horiz-adv-x="665" />
<glyph unicode="&#x2005;" horiz-adv-x="498" />
<glyph unicode="&#x2006;" horiz-adv-x="332" />
<glyph unicode="&#x2007;" horiz-adv-x="332" />
<glyph unicode="&#x2008;" horiz-adv-x="249" />
<glyph unicode="&#x2009;" horiz-adv-x="399" />
<glyph unicode="&#x200a;" horiz-adv-x="110" />
<glyph unicode="&#x2010;" horiz-adv-x="661" d="M82 559h481l-26 -153h-482z" />
<glyph unicode="&#x2011;" horiz-adv-x="661" d="M82 559h481l-26 -153h-482z" />
<glyph unicode="&#x2012;" horiz-adv-x="661" d="M82 559h481l-26 -153h-482z" />
<glyph unicode="&#x2013;" horiz-adv-x="882" d="M86 557h694l-35 -201h-694z" />
<glyph unicode="&#x2014;" horiz-adv-x="1179" d="M86 557h991l-35 -201h-991z" />
<glyph unicode="&#x2018;" horiz-adv-x="450" d="M315 1286h199l-121 -428h-311z" />
<glyph unicode="&#x2019;" horiz-adv-x="436" d="M307 858h-198l120 428h314z" />
<glyph unicode="&#x201a;" horiz-adv-x="452" d="M102 -188h-198l121 428h313z" />
<glyph unicode="&#x201c;" horiz-adv-x="870" d="M737 1286h197l-123 -428h-311zM315 1286h199l-121 -428h-311z" />
<glyph unicode="&#x201d;" horiz-adv-x="854" d="M307 858h-198l120 428h314zM727 858h-199l123 428h312z" />
<glyph unicode="&#x201e;" horiz-adv-x="872" d="M102 -188h-198l121 428h311zM520 -188h-198l122 428h314z" />
<glyph unicode="&#x2020;" horiz-adv-x="1167" d="M45 643l39 217h352l76 426h383l-76 -426h355l-37 -217h-355l-172 -975h-383l172 975h-354z" />
<glyph unicode="&#x2021;" horiz-adv-x="1236" d="M20 309h355l59 334h-354l39 217h352l76 426h383l-76 -426h356l-39 -217h-354l-59 -334h354l-37 -217h-356l-74 -424h-383l74 424h-352z" />
<glyph unicode="&#x2022;" horiz-adv-x="681" d="M508 377h-416l76 420h414z" />
<glyph unicode="&#x2026;" horiz-adv-x="1441" d="M311 0h-340l43 240h340zM784 0h-340l43 240h340zM1257 0h-339l43 240h339z" />
<glyph unicode="&#x202f;" horiz-adv-x="399" />
<glyph unicode="&#x2030;" horiz-adv-x="2826" d="M553 1307q199 0 280 -82.5t52 -251.5q-31 -171 -141 -253.5t-308 -82.5q-199 0 -280 82.5t-50 253.5q29 169 139 251.5t308 82.5zM1470 1286h273l-1247 -1286h-283zM535 1198q-73 0 -114 -52.5t-63 -172.5q-20 -121 2 -174.5t95 -53.5t113.5 53.5t62.5 174.5 q22 120 -0.5 172.5t-95.5 52.5zM1524 639q199 0 279.5 -82.5t49.5 -251.5q-29 -169 -138.5 -251.5t-307.5 -82.5q-199 0 -281 82.5t-51 251.5q29 169 140 251.5t309 82.5zM2400 639q199 0 280 -82.5t52 -251.5q-31 -169 -141 -251.5t-307 -82.5q-198 0 -280.5 82.5 t-51.5 251.5q29 169 139.5 251.5t308.5 82.5zM1505 530q-73 0 -114.5 -52.5t-63.5 -172.5t1 -172.5t97 -52.5q73 0 114 52.5t63 172.5q22 119 -1.5 172t-95.5 53zM2382 530q-72 0 -113 -52.5t-63 -172.5q-20 -120 2 -172.5t94 -52.5q73 0 113.5 52t62.5 173 q22 120 -0.5 172.5t-95.5 52.5z" />
<glyph unicode="&#x2039;" horiz-adv-x="550" d="M432 287l-153 -117l-240 430l389 430l123 -129l-289 -315z" />
<glyph unicode="&#x203a;" horiz-adv-x="546" d="M506 600l-389 -430l-119 125l287 317l-166 301l147 117z" />
<glyph unicode="&#x2044;" horiz-adv-x="399" d="M561 1286h242l-934 -1286h-256z" />
<glyph unicode="&#x205f;" horiz-adv-x="498" />
<glyph unicode="&#x20ac;" horiz-adv-x="1198" d="M784 184q90 0 220 45l22 -196q-208 -62 -362 -62q-203 0 -329 115t-149 322h-176l86 182h92q2 14 17 98h-146l86 182h123q95 206 261 321.5t366 115.5q169 0 373 -70l-90 -188q-129 55 -224 55q-92 0 -171 -61.5t-132 -172.5h451l-86 -182h-426l-19 -98h398l-86 -182 h-314q12 -106 69 -165t146 -59z" />
<glyph unicode="&#x2116;" horiz-adv-x="2197" d="M1847 743q-330 0 -278 287q49 285 381 285q328 0 276 -285q-49 -287 -379 -287zM1262 1286h237l-227 -1286h-506l-340 993l-174 -993h-238l226 1286h516l334 -979zM2013 1030q19 106 0.5 148.5t-82.5 42.5t-97 -42.5t-52 -148.5q-19 -107 -0.5 -150.5t82.5 -43.5t96.5 43 t52.5 151zM1507 522l23 125h600l-23 -125h-600z" />
<glyph unicode="&#x2122;" horiz-adv-x="1484" d="M1206 1286h256l-47 -579h-203l50 428l-201 -428h-119l-47 428l-102 -428h-158l156 579h251l33 -262zM700 1286l-18 -102h-170l-84 -477h-197l84 477h-172l19 102h538z" />
<glyph unicode="&#x2190;" horiz-adv-x="1329" d="M39 645l641 561l151 -184l-276 -248h739l-45 -262h-743l188 -246l-217 -184z" />
<glyph unicode="&#x2191;" horiz-adv-x="1144" d="M322 0l139 791l-258 -228l-150 187l641 557l445 -562l-217 -186l-181 229l-139 -788h-280z" />
<glyph unicode="&#x2192;" horiz-adv-x="1329" d="M47 510l47 264h740l-189 248l217 184l443 -561l-637 -563l-152 184l272 244h-741z" />
<glyph unicode="&#x2193;" horiz-adv-x="1142" d="M461 -29l-447 557l215 187l181 -228l139 799h280l-139 -794l260 227l150 -187z" />
<glyph unicode="&#x2194;" horiz-adv-x="1843" d="M45 680l641 561l152 -184l-277 -248h793l-189 248l217 184l443 -561l-637 -563l-154 184l277 246h-799l188 -246l-217 -184z" />
<glyph unicode="&#x2195;" horiz-adv-x="919" d="M346 -29l-340 435l170 147l123 -164l88 500l-182 -164l-117 147l494 435l338 -439l-172 -147l-123 164l-88 -496l184 168l117 -147z" />
<glyph unicode="&#x2196;" horiz-adv-x="1380" d="M1274 162l-223 -191l-645 844l-56 -309h-266l139 780h748l-47 -262h-310z" />
<glyph unicode="&#x2197;" horiz-adv-x="1380" d="M-49 162l962 862h-309l45 262h750l-139 -780h-265l56 311l-947 -846z" />
<glyph unicode="&#x2198;" horiz-adv-x="1380" d="M121 1124l221 191l645 -844l55 309h267l-138 -780h-747l45 262h311z" />
<glyph unicode="&#x2199;" horiz-adv-x="1380" d="M-4 0l137 780h266l-55 -309l944 844l156 -191l-965 -862h312l-48 -262h-747z" />
<glyph unicode="&#x2202;" horiz-adv-x="1241" d="M518 827q100 0 166 -23.5t127 -78.5q6 56 9 93t3 83.5t-6.5 76.5t-21 61.5t-38 49.5t-60 29.5t-85.5 11.5q-96 0 -182 -18l-16 168q140 35 264 35q292 0 422 -192t69 -537q-107 -615 -733 -615q-243 0 -361 121t-81 332q34 188 173.5 295.5t350.5 107.5zM494 150 q99 0 170 73.5t94 200.5q17 101 -30 159t-146 58q-88 0 -149.5 -58t-78.5 -159q-23 -127 15 -200.5t125 -73.5z" />
<glyph unicode="&#x2212;" horiz-adv-x="1064" d="M950 481h-878l39 221h878z" />
<glyph unicode="&#x25fc;" horiz-adv-x="911" d="M0 911h911v-911h-911v911z" />
<glyph unicode="&#x2713;" horiz-adv-x="894" d="M268 135l-288 373l237 205l135 -185l416 379l154 -190z" />
<glyph unicode="&#xe132;" horiz-adv-x="1177" d="M1092 1087h-252l213 228h313zM489 1087h-251l213 228h313zM528 913l-161 -913h-369l162 913h368zM1126 913l-184 -1038q-29 -170 -136.5 -251t-305.5 -81q-202 0 -320 78l117 146q61 -25 162 -25q91 0 108 104l189 1067h370z" />
<glyph unicode="&#xe133;" horiz-adv-x="1286" d="M1249 1456h-254l207 223h316zM606 1456h-254l207 223h315zM631 1286l-225 -1286h-392l226 1286h391zM897 1286h391l-227 -1284q-35 -201 -224.5 -314t-494.5 -116h-4l31 184h12q115 0 188.5 42t85.5 116z" />
<glyph unicode="&#xf8ff;" horiz-adv-x="2359" d="M446 874q72 -5 120 -39t48 -102q0 -47 -25 -85.5t-67 -55.5q-12 -6 -18 -8l135 -238h-186l-113 211q-23 -2 -72 -2v-209h-162v531h265q35 0 75 -3zM268 629q185 0 185 102q0 25 -15 44.5t-39 23.5q-14 2 -39 2h-92v-172zM1251 535q0 103 62 152.5t166 49.5q77 0 151 -22 l-24 -72q-58 14 -99 14q-104 0 -104 -122q0 -119 108 -119q45 0 95 12l24 -72q-74 -22 -151 -22q-103 0 -165.5 50.5t-62.5 150.5zM928 737q116 0 178.5 -46.5t62.5 -155.5q0 -201 -241 -201q-244 0 -244 201q0 111 64.5 156.5t179.5 45.5zM2138 580v-218q-103 -28 -207 -28 q-231 0 -231 125q0 42 31.5 71t71.5 41t89 15q31 2 95 2v33q0 26 -19.5 34.5t-62.5 8.5q-65 0 -133 -19l-27 70q87 22 201 22q100 0 146 -38.5t46 -118.5zM928 401q54 0 71 31t17 103q0 78 -17 107.5t-71 29.5q-57 0 -73.5 -29t-16.5 -108q0 -73 17 -103.5t73 -30.5z M1987 401v129q-45 0 -68 -2q-31 -4 -54.5 -21t-23.5 -48q0 -60 92 -60q38 0 54 2zM541 94q-209 0 -435 -53v168q206 49 429 49q212 0 417 -47q207 -49 408 -49q86 0 172 22q4 0 4 -4v-6q-171 -116 -274 -174q-134 5 -304 45q-210 49 -417 49zM1665 215q11 14 29 14h444v-184 h-577z" />
<glyph horiz-adv-x="1427" d="M1335 461q-40 -228 -237 -359t-498 -131q-298 0 -447.5 131t-109.5 359q40 225 235 353t494 128q300 0 451.5 -128t111.5 -353zM633 158q109 0 169 71t89 234q28 160 -7.5 229.5t-144.5 69.5q-104 0 -161.5 -69.5t-85.5 -229.5q-29 -163 4 -234t137 -71z" />
<glyph horiz-adv-x="821" d="M758 913l-162 -913h-389l119 672h-279l23 123l446 118h242z" />
<glyph horiz-adv-x="1101" d="M1032 643q-24 -126 -100 -205q-21 -20 -46.5 -39.5t-44.5 -34t-52.5 -34t-49.5 -29t-58 -31t-54.5 -27.5t-63 -31t-61.5 -30h430l-33 -182h-946l37 217q418 137 608 275q75 63 90 133q9 60 -32.5 97.5t-120.5 37.5q-142 0 -375 -133l-25 174q267 141 520 141 q218 0 310.5 -73.5t66.5 -225.5z" />
<glyph horiz-adv-x="1187" d="M766 338q137 -37 205.5 -128t46.5 -210q-31 -177 -208 -280t-448 -103q-114 0 -245.5 37t-245.5 102l88 174q79 -61 180 -97t193 -36q68 0 118 18.5t80.5 52.5t47.5 73.5t26 91.5q17 97 -65 148.5t-254 51.5h-88l30 177h92q102 0 173.5 16.5t109 47t54.5 61.5t24 71 q12 72 -36.5 113t-145.5 41q-64 0 -157 -28t-187 -75l-23 170q109 53 231.5 84t221.5 31q245 0 372 -83.5t101 -227.5q-17 -95 -95.5 -174t-195.5 -119z" />
<glyph horiz-adv-x="1206" d="M928 188h143l-35 -188h-141l-66 -373h-389l66 373h-565l41 227l624 686h449zM539 188l82 469l-416 -469h334z" />
<glyph horiz-adv-x="1189" d="M563 477q254 0 388 -112.5t100 -298.5q-37 -212 -222 -339.5t-454 -127.5q-109 0 -244.5 38t-245.5 101l88 174q89 -63 185.5 -97t183.5 -34q112 0 184.5 69t94.5 195q22 118 -58.5 183t-249.5 65q-122 0 -266 -21l143 641h914l-33 -184h-541l-53 -254q12 2 86 2z" />
<glyph horiz-adv-x="1269" d="M803 827q220 0 318 -103.5t63 -299.5q-26 -146 -114 -250t-212.5 -153.5t-273.5 -49.5q-310 0 -441 155t-77 460q60 337 261.5 533t487.5 196q177 0 399 -84l-81 -164q-162 63 -318 63q-56 0 -101.5 -13.5t-78.5 -43t-57.5 -62t-44 -84.5t-32 -94.5t-28.5 -107.5 q149 102 330 102zM590 150q86 0 149 73.5t86 200.5q17 100 -23.5 158.5t-127.5 58.5q-99 0 -167 -58.5t-85 -158.5q-23 -126 22 -200t146 -74z" />
<glyph horiz-adv-x="1118" d="M1137 913l-41 -235l-723 -1051h-482l807 1102h-641l33 184h1047z" />
<glyph horiz-adv-x="1402" d="M1069 713q137 -36 193.5 -127.5t33.5 -229.5q-34 -188 -215 -286.5t-491 -98.5t-456 98.5t-114 286.5q25 138 114.5 229.5t238.5 127.5q-78 31 -114 103t-19 163q26 154 185.5 245t401.5 91q241 0 368 -91t101 -245q-17 -92 -78 -164t-149 -102zM948 975q15 88 -22 130 t-129 42q-182 0 -211 -172q-17 -97 19 -144t128 -47q181 0 215 191zM444 381q-20 -114 25.5 -175t151.5 -61t174 61t88 175q19 109 -28 167t-153 58t-172.5 -58t-85.5 -167z" />
<glyph horiz-adv-x="1290" d="M436 94q-220 0 -318.5 103t-64.5 297q38 218 192.5 333t407.5 115q317 0 446 -150t75 -456q-60 -342 -257.5 -530.5t-494.5 -188.5q-187 0 -395 84l82 164q161 -66 315 -66q48 0 88.5 11.5t70.5 29t55.5 48.5t42.5 60.5t34 75.5t27 82t24 91q-83 -55 -160 -79t-170 -24z M649 764q-93 0 -153.5 -69.5t-83.5 -200.5q-19 -103 20.5 -158t132.5 -55q103 0 168 55t84 158q23 130 -20.5 200t-147.5 70z" />
<glyph horiz-adv-x="905" d="M772 150q-32 -186 -156.5 -290t-314.5 -104q-188 0 -276 104t-54 290q32 184 155.5 286.5t311.5 102.5q191 0 278.5 -102.5t55.5 -286.5zM326 -96q44 0 66.5 50t47.5 198q14 76 19 121.5t2 75t-14 40t-33 10.5q-40 0 -62.5 -50t-48.5 -197q-26 -146 -21.5 -197t44.5 -51z " />
<glyph horiz-adv-x="557" d="M457 528l-133 -755h-285l100 565h-164l17 92l289 98h176z" />
<glyph horiz-adv-x="761" d="M664 336q-11 -65 -82 -139q-8 -8 -60.5 -61.5t-113 -106.5t-142.5 -113h305l-26 -143h-643l30 176l385 330q47 43 55 63q2 5 3 10q4 20 -13 31.5t-43 11.5q-122 0 -272 -96l-14 139q165 101 344 101q52 0 95 -5t84 -19t66.5 -36t37.5 -58.5t4 -84.5z" />
<glyph horiz-adv-x="776" d="M485 180q155 -54 131 -198q-20 -114 -120 -170t-287 -56q-175 0 -318 94l68 140q100 -90 221 -90q46 0 83 29.5t44 74.5q9 55 -27.5 76.5t-142.5 21.5h-39l25 136h43q101 0 143 20t51 72q12 65 -86 65q-94 0 -208 -71l-15 137q144 78 328 78q146 0 211.5 -48t48.5 -143 q-18 -106 -154 -168z" />
<glyph horiz-adv-x="825" d="M598 61h80l-25 -147h-82l-24 -141h-287l25 141h-373l33 178l403 436h332zM311 61l45 261l-254 -261h209z" />
<glyph horiz-adv-x="778" d="M324 297q170 0 251.5 -66.5t59.5 -187.5q-25 -136 -136 -211.5t-286 -75.5q-176 0 -315 94l63 140q107 -90 223 -90q51 0 84.5 29.5t42.5 84.5q12 66 -34.5 102t-141.5 36q-86 0 -131 -2l86 378h569l-26 -145h-293l-21 -86h5z" />
<glyph horiz-adv-x="808" d="M408 268q147 0 215.5 -63t46.5 -180q-23 -128 -128 -198.5t-272 -70.5q-174 0 -255.5 87t-53.5 245q38 215 159.5 333t303.5 118q149 0 256 -52l-62 -129q-76 37 -190 37q-65 0 -107.5 -39.5t-54.5 -111.5q68 24 142 24zM295 -104q45 0 75 29.5t40 84.5q9 57 -10.5 88 t-63.5 31q-43 0 -72.5 -31t-38.5 -88q-18 -114 70 -114z" />
<glyph horiz-adv-x="735" d="M686 528l-33 -180l-401 -575h-320l461 610h-399l24 145h668z" />
<glyph horiz-adv-x="911" d="M631 186q77 -26 106.5 -76.5t16.5 -129.5q-20 -115 -129 -169.5t-320 -54.5q-212 0 -301.5 54t-69.5 170q15 82 63 131.5t134 74.5q-80 46 -59 156q15 94 112.5 145.5t257.5 51.5t239 -51.5t62 -145.5q-9 -53 -39 -94t-73 -62zM487 328q8 40 -9.5 62t-57.5 22t-65 -22 t-33 -62q-7 -41 11 -64.5t56 -23.5q39 0 64.5 23t33.5 65zM248 4q-9 -54 12 -83.5t68 -29.5q49 0 80.5 29.5t40.5 83.5q9 51 -12 79t-70 28q-47 0 -78.5 -28t-40.5 -79z" />
<glyph horiz-adv-x="808" d="M242 27q-147 0 -217 63.5t-48 179.5q22 128 126.5 198.5t273.5 70.5q174 0 255 -86t52 -244q-37 -217 -157.5 -335t-303.5 -118q-144 0 -258 54l64 127q82 -37 192 -37q62 0 104.5 40t55.5 113q-74 -26 -139 -26zM350 399q-90 0 -110 -114q-11 -62 6.5 -90.5t66.5 -28.5 q46 0 72.5 29t36.5 90q9 59 -8 86.5t-64 27.5z" />
<glyph horiz-adv-x="905" d="M942 1143q-32 -186 -156 -289.5t-315 -103.5q-188 0 -276 104t-54 289q32 184 155.5 286.5t311.5 102.5q191 0 278.5 -102.5t55.5 -286.5zM496 897q44 0 66.5 50t47.5 198q14 76 19 121.5t2 75t-14 40.5t-33 11q-40 0 -62.5 -50.5t-48.5 -197.5q-26 -146 -21.5 -197 t44.5 -51z" />
<glyph horiz-adv-x="557" d="M627 1522l-133 -756h-285l100 565h-164l17 92l289 99h176z" />
<glyph horiz-adv-x="761" d="M834 1329q-11 -65 -82 -139q-8 -8 -60.5 -61.5t-113 -106.5t-142.5 -113h305l-26 -143h-643l30 176l385 330q54 50 58 74q4 20 -13 31.5t-43 11.5q-120 0 -272 -97l-14 140q163 100 344 100q52 0 95 -5t84 -19t66.5 -36t37.5 -58.5t4 -84.5z" />
<glyph horiz-adv-x="776" d="M655 1174q156 -54 131 -199q-20 -114 -120 -169.5t-287 -55.5q-175 0 -318 94l68 139q100 -90 221 -90q46 0 83 29.5t44 74.5q9 55 -27.5 77t-142.5 22h-39l25 135h43q101 0 143 20t51 72q12 66 -86 66q-92 0 -208 -72l-15 137q144 78 328 78q146 0 211.5 -48t48.5 -143 q-17 -105 -154 -167z" />
<glyph horiz-adv-x="825" d="M768 1055h80l-25 -148h-82l-24 -141h-287l25 141h-373l33 178l403 437h332zM481 1055l45 260l-254 -260h209z" />
<glyph horiz-adv-x="778" d="M494 1290q170 0 251.5 -66.5t59.5 -187.5q-25 -136 -136 -211t-286 -75q-176 0 -315 94l63 139q107 -90 223 -90q51 0 84.5 30t42.5 85q12 66 -34 101.5t-142 35.5q-86 0 -131 -2l86 379h569l-26 -146h-293l-21 -86h5z" />
<glyph horiz-adv-x="808" d="M578 1262q147 0 215.5 -63.5t46.5 -180.5q-23 -128 -128 -198t-272 -70q-174 0 -255.5 86.5t-53.5 244.5q38 215 159.5 333t303.5 118q151 0 256 -51l-62 -129q-76 37 -190 37q-65 0 -107.5 -40t-54.5 -112q71 25 142 25zM465 889q44 0 74.5 30t40.5 85q9 57 -10.5 87.5 t-63.5 30.5q-43 0 -72.5 -31t-38.5 -87q-9 -55 9 -85t61 -30z" />
<glyph horiz-adv-x="735" d="M856 1522l-33 -181l-401 -575h-320l461 610h-399l24 146h668z" />
<glyph horiz-adv-x="911" d="M801 1180q149 -51 123 -207q-20 -115 -129 -169t-320 -54q-212 0 -301.5 54t-69.5 169q15 82 63 132t134 75q-80 46 -59 155q15 94 112.5 145.5t257.5 51.5t239 -51.5t62 -145.5q-9 -53 -39 -93.5t-73 -61.5zM657 1321q8 40 -9.5 62t-57.5 22t-65 -22t-33 -62 q-7 -41 11 -64.5t56 -23.5q39 0 64.5 23t33.5 65zM418 997q-9 -54 12 -83t68 -29q101 0 120 112q9 52 -11.5 79.5t-69.5 27.5q-47 0 -78.5 -28t-40.5 -79z" />
<glyph horiz-adv-x="808" d="M412 1020q-147 0 -217 63.5t-48 180.5q22 128 126.5 198t273.5 70q174 0 255 -86t52 -244q-37 -216 -157.5 -334t-303.5 -118q-146 0 -258 53l64 127q82 -37 192 -37q62 0 104.5 40.5t55.5 113.5q-76 -27 -139 -27zM520 1393q-89 0 -110 -115q-11 -62 6.5 -90.5 t66.5 -28.5q46 0 72.5 29t36.5 90q9 59 -8 87t-64 28z" />
<glyph d="M1249 641q-54 -311 -243 -490.5t-461 -179.5q-275 0 -402 179t-73 491q55 313 245.5 493.5t464.5 180.5t399.5 -180t69.5 -494zM578 158q79 0 128 107t97 374q48 271 37 383.5t-90 112.5q-83 0 -134.5 -111t-99.5 -385q-31 -180 -35.5 -282.5t18.5 -150.5t79 -48z" />
<glyph d="M53 0l31 184h332l151 860h-278l20 123l447 119h241l-192 -1102h295l-33 -184h-1014z" />
<glyph d="M1235 946q-8 -47 -32 -102t-56 -96q-60 -73 -114.5 -132.5t-185.5 -177t-310 -256.5h542l-30 -182h-1037l41 236l750 622q88 75 98 137q10 60 -42.5 97.5t-145.5 37.5q-86 0 -207 -36.5t-221 -94.5l-25 175q119 62 265.5 101.5t256.5 39.5q229 0 355.5 -103t97.5 -266z " />
<glyph d="M895 692q134 -34 202 -126t46 -212q-31 -173 -210 -278t-444 -105q-99 0 -233 38.5t-256 101.5l88 174q179 -131 369 -131q113 0 182.5 60t91.5 175q17 97 -64.5 148t-252.5 51h-88l30 176h93q157 0 248 53t108 152q14 78 -32 119.5t-146 41.5q-141 0 -340 -102l-23 170 q106 53 229.5 85t219.5 32q238 0 366.5 -90t102.5 -240q-17 -92 -95 -172t-192 -121z" />
<glyph d="M1059 446h143l-33 -186h-143l-45 -260h-389l45 260h-645l39 227l725 799h450zM670 446l102 584l-518 -584h416z" />
<glyph d="M688 850q259 0 390.5 -110.5t97.5 -301.5q-38 -216 -219.5 -341.5t-454.5 -125.5q-113 0 -245.5 38t-246.5 102l90 174q184 -131 369 -131q228 0 276 264q22 121 -56.5 184.5t-248.5 63.5q-125 0 -266 -21l141 641h914l-33 -184h-537l-57 -254q12 2 86 2z" />
<glyph d="M825 827q214 0 314.5 -106.5t66.5 -296.5q-37 -215 -194.5 -334t-405.5 -119q-327 0 -451 147t-67 468q60 341 260.5 535t489.5 194q185 0 399 -84l-82 -164q-158 63 -317 63q-48 0 -88.5 -11.5t-70.5 -29.5t-55.5 -49.5t-42.5 -61.5t-34 -77t-27 -83.5t-24 -92.5 q88 56 160 79t169 23zM612 150q89 0 151 71.5t85 202.5q19 102 -21.5 159.5t-130.5 57.5q-103 0 -168 -56.5t-84 -160.5q-23 -130 21 -202t147 -72z" />
<glyph d="M1294 1286l-43 -235l-712 -1051h-480l795 1102h-629l33 184h1036z" />
<glyph d="M977 713q134 -37 192 -129t33 -228q-34 -188 -204 -286.5t-461 -98.5t-426 98.5t-101 286.5q23 137 113 228.5t237 128.5q-168 65 -133 266q29 164 168 250t377 86q241 0 349.5 -85.5t80.5 -250.5q-17 -96 -74.5 -164t-150.5 -102zM854 975q30 172 -111 172 q-140 0 -170 -172q-17 -93 10.5 -142t96.5 -49q139 0 174 191zM432 381q-41 -236 135 -236q177 0 221 236q38 225 -141 225q-86 0 -140.5 -57t-74.5 -168z" />
<glyph d="M489 449q-212 0 -313 108.5t-67 300.5q38 214 204.5 335.5t423.5 121.5q280 0 411 -166t79 -459q-58 -336 -259 -527.5t-493 -191.5q-181 0 -395 84l82 164q162 -63 315 -63q49 0 89.5 11.5t70.5 28.5t55.5 48t42 59.5t33.5 75t27 81.5t24 91q-83 -55 -158 -78.5 t-172 -23.5zM705 1135q-92 0 -153.5 -72t-84.5 -205q-20 -107 19.5 -165t131.5 -58q105 0 169.5 57.5t84.5 165.5q23 132 -20 204.5t-147 72.5z" />
<glyph d="M1217 463q-40 -230 -219 -361t-451 -131q-278 0 -413 131t-95 361q40 224 220.5 351.5t457.5 127.5q274 0 407 -127.5t93 -351.5zM580 158q72 0 117 72.5t73 232.5q28 157 8 228t-92 71q-78 0 -124.5 -70.5t-74.5 -228.5q-29 -160 -7 -232.5t100 -72.5z" />
<glyph d="M53 0l31 184h332l84 488h-277l21 123l446 118h242l-127 -729h295l-33 -184h-1014z" />
<glyph d="M1184 643q-18 -117 -101 -205q-88 -83 -213 -142t-307 -114h518l-32 -182h-1035l39 217q24 8 131 40.5t193.5 60.5t195.5 76t177 98q76 67 88 133q12 68 -38.5 101.5t-164.5 33.5q-182 0 -416 -133l-22 174q270 141 520 141q262 0 377.5 -74t89.5 -225z" />
<glyph d="M827 338q138 -37 204 -126.5t44 -211.5q-31 -180 -204.5 -281.5t-448.5 -101.5q-116 0 -246.5 36.5t-243.5 102.5l91 174q171 -133 364 -133q233 0 277 236q17 100 -63 150t-255 50h-88l31 177h92q321 0 356 198q14 75 -31.5 113.5t-148.5 38.5q-139 0 -340 -103l-22 170 q109 54 228 84.5t220 30.5q247 0 372 -83.5t99 -231.5q-17 -96 -93 -172.5t-194 -116.5z" />
<glyph d="M1022 188h143l-35 -188h-141l-65 -373h-394l68 373h-649l41 227l708 686h451zM631 188l90 512l-508 -512h418z" />
<glyph d="M621 477q264 0 392.5 -108.5t94.5 -302.5q-38 -220 -216 -343.5t-458 -123.5q-111 0 -242.5 37t-248.5 102l90 174q89 -62 187 -96.5t183 -34.5q107 0 180 70t95 194q20 117 -60.5 182.5t-244.5 65.5q-135 0 -267 -21l144 641h911l-33 -184h-536l-55 -254q16 2 84 2z" />
<glyph d="M778 827q226 0 342 -109.5t82 -293.5q-35 -206 -206 -329.5t-421 -123.5q-281 0 -411.5 163t-79.5 452q60 342 259.5 535.5t490.5 193.5q182 0 399 -84l-82 -164q-165 63 -317 63q-56 0 -101.5 -13.5t-78.5 -43t-57.5 -62t-44 -84.5t-32 -94.5t-28.5 -107.5 q134 102 286 102zM608 150q89 0 151 72.5t85 201.5q19 103 -21 160t-131 57q-100 0 -166.5 -57t-85.5 -160q-23 -129 21.5 -201.5t146.5 -72.5z" />
<glyph d="M1227 913l-43 -235l-713 -1051h-479l794 1102h-628l32 184h1037z" />
<glyph d="M981 713q131 -37 189.5 -130.5t35.5 -226.5q-32 -181 -208 -283t-457 -102q-280 0 -419.5 102t-107.5 283q23 133 114.5 227t236.5 130q-80 32 -114.5 103.5t-17.5 166.5q28 157 171.5 244.5t371.5 87.5q230 0 344 -87.5t86 -244.5q-17 -96 -76 -167t-149 -103zM858 979 q30 168 -110 168q-68 0 -111.5 -42.5t-56.5 -125.5q-35 -195 104 -195t174 195zM436 381q-20 -115 14.5 -175.5t120.5 -60.5q89 0 145.5 60t76.5 176q20 110 -16.5 167.5t-125.5 57.5q-86 0 -140.5 -57t-74.5 -168z" />
<glyph d="M487 96q-223 0 -339.5 112.5t-84.5 295.5q35 195 208 316.5t417 121.5q285 0 415 -158.5t79 -445.5q-58 -334 -259.5 -526.5t-492.5 -192.5q-187 0 -395 84l82 164q158 -66 315 -66q130 0 214.5 95.5t127.5 302.5q-58 -37 -91 -55t-85 -33t-111 -15zM655 762 q-89 0 -151 -68t-84 -190q-19 -104 21.5 -162.5t131.5 -58.5q100 0 166.5 58.5t85.5 162.5q22 121 -23.5 189.5t-146.5 68.5z" />
<glyph horiz-adv-x="905" d="M899 918q-32 -186 -156.5 -290t-314.5 -104q-188 0 -276 104t-54 290q32 184 155.5 286.5t311.5 102.5q191 0 278.5 -102.5t55.5 -286.5zM453 672q44 0 66.5 50t47.5 198q14 76 19 121.5t2 75t-14 40t-33 10.5q-40 0 -62.5 -50t-48.5 -197q-26 -146 -21.5 -197t44.5 -51z " />
<glyph horiz-adv-x="557" d="M584 1296l-133 -755h-285l100 565h-164l17 92l289 98h176z" />
<glyph horiz-adv-x="761" d="M791 1104q-11 -65 -82 -139q-8 -8 -60.5 -61.5t-113 -106.5t-142.5 -113h305l-26 -143h-643l30 176l385 330q47 43 55 63q2 5 3 10q4 20 -13 31.5t-43 11.5q-122 0 -272 -96l-14 139q165 101 344 101q52 0 95 -5t84 -19t66.5 -36t37.5 -58.5t4 -84.5z" />
<glyph horiz-adv-x="776" d="M610 948q155 -54 131 -198q-20 -114 -120 -170t-287 -56q-175 0 -318 94l68 140q100 -90 221 -90q46 0 83 29.5t44 74.5q9 55 -27.5 76.5t-142.5 21.5h-39l25 136h43q101 0 143 20t51 72q12 65 -86 65q-95 0 -209 -71l-14 137q144 78 328 78q146 0 211.5 -48t48.5 -143 q-18 -106 -154 -168z" />
<glyph horiz-adv-x="825" d="M725 829h80l-25 -147h-82l-24 -141h-287l25 141h-373l33 178l403 436h332zM438 829l45 261l-254 -261h209z" />
<glyph horiz-adv-x="778" d="M451 1065q170 0 251.5 -66.5t59.5 -187.5q-25 -136 -136 -211.5t-286 -75.5q-176 0 -315 94l63 140q107 -90 223 -90q51 0 84.5 29.5t42.5 84.5q12 66 -34.5 102t-141.5 36q-86 0 -131 -2l86 378h569l-26 -145h-293l-21 -86h5z" />
<glyph horiz-adv-x="808" d="M535 1036q147 0 215.5 -63t46.5 -180q-23 -128 -128 -198.5t-272 -70.5q-174 0 -255.5 87t-53.5 245q38 215 159.5 333t303.5 118q149 0 256 -52l-62 -129q-76 37 -190 37q-65 0 -107.5 -39.5t-54.5 -111.5q68 24 142 24zM422 664q45 0 75 29.5t40 84.5q9 57 -10.5 88 t-63.5 31q-43 0 -72.5 -31t-38.5 -88q-18 -114 70 -114z" />
<glyph horiz-adv-x="735" d="M813 1296l-33 -180l-401 -575h-320l461 610h-399l24 145h668z" />
<glyph horiz-adv-x="911" d="M758 954q77 -26 106.5 -76.5t16.5 -129.5q-20 -115 -129 -169.5t-320 -54.5q-212 0 -301.5 54t-69.5 170q15 82 63 131.5t134 74.5q-80 46 -59 156q15 94 112.5 145.5t257.5 51.5t239 -51.5t62 -145.5q-9 -53 -39 -94t-73 -62zM614 1096q8 40 -9.5 62t-57.5 22t-65 -22 t-33 -62q-7 -41 11 -64.5t56 -23.5q39 0 64.5 23t33.5 65zM375 772q-9 -54 12 -83.5t68 -29.5q49 0 80 29.5t40 83.5q9 52 -11.5 79.5t-69.5 27.5q-47 0 -78.5 -28t-40.5 -79z" />
<glyph horiz-adv-x="808" d="M369 795q-147 0 -217 63.5t-48 179.5q22 128 126.5 198.5t273.5 70.5q174 0 255 -86t52 -244q-37 -217 -157.5 -335t-303.5 -118q-144 0 -258 54l64 127q82 -37 192 -37q62 0 104.5 40t55.5 113q-74 -26 -139 -26zM477 1167q-90 0 -110 -114q-11 -62 6.5 -90.5 t66.5 -28.5q46 0 72.5 29t36.5 90q9 59 -8 86.5t-64 27.5z" />
<glyph horiz-adv-x="905" d="M813 377q-32 -186 -156 -289.5t-315 -103.5q-188 0 -276 104t-54 289q32 184 155.5 286.5t311.5 102.5q191 0 278.5 -102.5t55.5 -286.5zM367 131q44 0 66.5 50t47.5 198q14 76 19 121.5t2 75t-14 40.5t-33 11q-40 0 -62.5 -50.5t-48.5 -197.5q-26 -146 -21.5 -197 t44.5 -51z" />
<glyph horiz-adv-x="557" d="M498 756l-133 -756h-285l100 565h-164l17 92l289 99h176z" />
<glyph horiz-adv-x="761" d="M705 563q-11 -65 -82 -139q-8 -8 -60.5 -61.5t-113 -106.5t-142.5 -113h305l-26 -143h-643l30 176l385 330q54 50 58 74q4 20 -13 31.5t-43 11.5q-120 0 -272 -97l-14 140q163 100 344 100q52 0 95 -5t84 -19t66.5 -36t37.5 -58.5t4 -84.5z" />
<glyph horiz-adv-x="776" d="M524 408q156 -54 131 -199q-20 -114 -120 -169.5t-287 -55.5q-175 0 -318 94l68 139q100 -90 221 -90q46 0 83 29.5t44 74.5q9 55 -27.5 77t-142.5 22h-39l25 135h43q101 0 143 20t51 72q12 66 -86 66q-93 0 -209 -72l-14 137q144 78 328 78q146 0 211.5 -48t48.5 -143 q-17 -105 -154 -167z" />
<glyph horiz-adv-x="825" d="M639 289h80l-25 -148h-82l-24 -141h-287l25 141h-373l33 178l403 437h332zM352 289l45 260l-254 -260h209z" />
<glyph horiz-adv-x="778" d="M365 524q170 0 251.5 -66.5t59.5 -187.5q-25 -136 -136 -211t-286 -75q-176 0 -315 94l63 139q107 -90 223 -90q51 0 84.5 30t42.5 85q12 66 -34 101.5t-142 35.5q-86 0 -131 -2l86 379h569l-26 -146h-293l-21 -86h5z" />
<glyph horiz-adv-x="808" d="M449 496q147 0 215.5 -63.5t46.5 -180.5q-23 -128 -128 -198t-272 -70q-174 0 -255.5 86.5t-53.5 244.5q38 215 159.5 333t303.5 118q151 0 256 -51l-62 -129q-76 37 -190 37q-65 0 -107.5 -40t-54.5 -112q71 25 142 25zM336 123q44 0 74.5 30t40.5 85q9 57 -10.5 87.5 t-63.5 30.5q-43 0 -72.5 -31t-38.5 -87q-9 -55 9 -85t61 -30z" />
<glyph horiz-adv-x="735" d="M727 756l-33 -181l-401 -575h-320l461 610h-399l24 146h668z" />
<glyph horiz-adv-x="911" d="M672 414q149 -51 123 -207q-20 -115 -129 -169t-320 -54q-212 0 -301.5 54t-69.5 169q15 82 63 132t134 75q-80 46 -59 155q15 94 112.5 145.5t257.5 51.5t239 -51.5t62 -145.5q-9 -53 -39 -93.5t-73 -61.5zM528 555q8 40 -9.5 62t-57.5 22t-65.5 -22t-33.5 -62 q-7 -41 11 -64.5t57 -23.5t64.5 23t33.5 65zM289 231q-9 -54 12 -83t68 -29q101 0 120 112q9 52 -11.5 79.5t-69.5 27.5q-47 0 -78.5 -28t-40.5 -79z" />
<glyph horiz-adv-x="808" d="M283 254q-147 0 -217 63.5t-48 180.5q22 128 126.5 198t273.5 70q174 0 255 -86t52 -244q-37 -216 -157.5 -334t-303.5 -118q-146 0 -258 53l64 127q82 -37 192 -37q62 0 104.5 40.5t55.5 113.5q-77 -27 -139 -27zM391 627q-89 0 -110 -115q-11 -62 6.5 -90.5t66.5 -28.5 q46 0 72.5 29t36.5 90q9 59 -8 87t-64 28z" />
<glyph horiz-adv-x="374" d="M70 -154h-166l96 342h254z" />
<glyph horiz-adv-x="346" d="M176 0h-219l33 188h219z" />
<glyph horiz-adv-x="374" d="M168 387h-166l96 340h252z" />
<glyph horiz-adv-x="346" d="M270 541h-219l33 186h219z" />
<glyph horiz-adv-x="374" d="M35 -369h-166l96 340h252z" />
<glyph horiz-adv-x="346" d="M137 -217h-219l33 188h219z" />
<glyph horiz-adv-x="374" d="M207 612h-166l94 330h254z" />
<glyph horiz-adv-x="346" d="M309 754h-219l33 188h219z" />
<glyph horiz-adv-x="462" d="M305 -49h-215q-53 93 -77.5 186t-2.5 215q42 242 252 426h191q-62 -85 -113 -205t-68 -221q-38 -206 33 -401z" />
<glyph horiz-adv-x="462" d="M-74 -49q138 190 176 401q19 101 11 221t-39 205h188q146 -183 103 -426q-22 -123 -79.5 -217t-142.5 -184h-217z" />
<glyph horiz-adv-x="462" d="M403 504h-217q-53 90 -77.5 184t-2.5 215q43 244 254 426h189q-61 -83 -111 -203t-69 -223q-18 -104 -8.5 -206.5t42.5 -192.5z" />
<glyph horiz-adv-x="462" d="M25 504q64 89 111 194t65 205q17 101 8.5 221t-39.5 205h188q148 -181 105 -426q-22 -122 -80.5 -217t-142.5 -182h-215z" />
<glyph horiz-adv-x="462" d="M268 -262h-217q-52 91 -76.5 185.5t-3.5 215.5q45 247 254 426h189q-61 -84 -111.5 -204t-69.5 -222q-37 -201 35 -401z" />
<glyph horiz-adv-x="462" d="M-111 -262q139 197 177 401q18 100 9.5 221t-40.5 205h188q148 -177 105 -426q-22 -121 -80.5 -215.5t-143.5 -185.5h-215z" />
<glyph horiz-adv-x="462" d="M442 725h-217q-52 91 -76.5 185.5t-3.5 215.5q45 247 254 426h189q-61 -83 -111 -203t-69 -223q-17 -102 -8 -206.5t42 -194.5z" />
<glyph horiz-adv-x="462" d="M63 725q139 197 177 401q18 100 9.5 221t-40.5 205h188q148 -177 105 -426q-22 -122 -80.5 -216.5t-142.5 -184.5h-216z" />
<glyph horiz-adv-x="851" d="M702 1456h-253l206 223h316z" />
<glyph horiz-adv-x="727" d="M885 1741q-25 -55 -47 -94.5t-54 -79t-67.5 -64t-84.5 -40t-108 -15.5q-78 0 -132 21t-84 62t-43 91.5t-15 118.5h117q19 -53 66.5 -79t109.5 -26q128 0 205 105h137z" />
<glyph horiz-adv-x="806" d="M930 1679l-209 -223h-336l-129 223h244l75 -110l103 110h252z" />
<glyph horiz-adv-x="845" d="M915 1456h-229l-84 115l-119 -115h-243l206 223h336z" />
<glyph horiz-adv-x="858" d="M559 1679l-41 -223h-268l39 223h270zM946 1679l-41 -223h-268l39 223h270z" />
<glyph horiz-adv-x="391" d="M150 1456l38 223h392l-39 -223h-391z" />
<glyph horiz-adv-x="614" d="M342 1456l-190 223h315l127 -223h-252z" />
<glyph horiz-adv-x="1001" d="M477 1456h-254l170 223h314zM899 1456h-254l170 223h313z" />
<glyph horiz-adv-x="724" d="M207 1456l39 223h614l-39 -223h-614z" />
<glyph horiz-adv-x="509" d="M166 1587q24 142 248 142q94 0 151 -38t45 -104q-26 -141 -248 -141q-101 0 -155 32.5t-41 108.5zM469 1587q3 22 5 42t-15 34t-56 14q-50 0 -69.5 -22t-26.5 -68q-3 -23 -4.5 -43t15.5 -33.5t55 -13.5q28 0 46.5 7t28 22t13.5 27t8 34z" />
<glyph horiz-adv-x="1230" d="M1030 1683l33 -143q-54 -47 -103.5 -65.5t-123.5 -18.5q-63 0 -148 23q-82 24 -145 24q-54 0 -91 -12t-77 -41l-35 143q74 56 128 77.5t120 21.5q34 0 57 -4t53.5 -15.5t38.5 -13.5q59 -19 129 -19q58 0 93.5 9t70.5 34z" />
<glyph horiz-adv-x="452" d="M233 1378l125 322h254l-186 -322h-193z" />
</font>
</defs>
</svg>
