<?xml version="1.0" standalone="no"?>
<!DOCTYPE svg PUBLIC "-//W3C//DTD SVG 1.1//EN" "http://www.w3.org/Graphics/SVG/1.1/DTD/svg11.dtd" >
<svg xmlns="http://www.w3.org/2000/svg" xmlns:xlink="http://www.w3.org/1999/xlink" version="1.1">
<metadata></metadata>
<defs>
<font id="rocaregular" horiz-adv-x="1148" >
<font-face units-per-em="2048" ascent="1591" descent="-457" />
<missing-glyph horiz-adv-x="432" />
<glyph unicode="L&#xb7;L" horiz-adv-x="2134" d="M406 127h645v-127h-887v1286h242v-1159zM1446 127h645v-127h-887v1286h242v-1159zM915 575h-256v189h256v-189z" />
<glyph unicode="l&#xb7;l" horiz-adv-x="1208" d="M377 0h-234v1268l234 57v-1325zM1065 0h-234v1268l234 57v-1325zM729 565h-256v189h256v-189z" />
<glyph unicode="&#xd;" horiz-adv-x="432" />
<glyph unicode=" "  horiz-adv-x="432" />
<glyph unicode="&#x09;" horiz-adv-x="432" />
<glyph unicode="&#xa0;" horiz-adv-x="432" />
<glyph unicode="!" horiz-adv-x="550" d="M137 1286h277l-47 -907h-185zM403 0h-256v188h256v-188z" />
<glyph unicode="&#x22;" horiz-adv-x="757" d="M289 897h-154l-45 389h244zM623 897h-154l-43 389h244z" />
<glyph unicode="#" horiz-adv-x="1241" d="M1163 834h-239l-56 -328h242l-25 -139h-241l-60 -367h-139l60 367h-259l-61 -367h-141l63 367h-252l23 139h252l55 328h-254l25 141h254l51 311h139l-53 -311h260l53 311h139l-53 -311h240zM729 506l55 328h-260l-55 -328h260z" />
<glyph unicode="$" horiz-adv-x="1163" d="M1112 389q0 -163 -116.5 -271t-321.5 -136v-197h-170v186q-193 3 -410 105l35 112q222 -90 385 -90q166 0 261 64t95 176q0 78 -74.5 128.5t-254.5 88.5q-139 29 -233.5 67.5t-146 87t-72.5 101t-21 119.5q0 153 116 253t320 122v211h170v-209q169 -12 325 -90l-41 -119 q-191 86 -340 86q-152 0 -237.5 -53.5t-85.5 -147.5q0 -75 69 -119t248 -82q271 -59 385.5 -148t114.5 -245z" />
<glyph unicode="%" horiz-adv-x="1814" d="M403 1315q166 0 255.5 -87t89.5 -249q0 -161 -89.5 -247.5t-255.5 -86.5q-167 0 -255.5 86t-88.5 248q0 163 88.5 249.5t255.5 86.5zM1350 1286h182l-1065 -1286h-191zM403 1235q-88 0 -134 -65t-46 -191q0 -124 46 -189t134 -65t133.5 64.5t45.5 189.5q0 126 -45.5 191 t-133.5 65zM1409 641q167 0 256.5 -86.5t89.5 -247.5q0 -163 -89.5 -249.5t-256.5 -86.5q-166 0 -254 86.5t-88 249.5q0 161 88 247.5t254 86.5zM1409 561q-88 0 -133 -64.5t-45 -189.5q0 -126 45 -191t133 -65q180 0 180 256q0 254 -180 254z" />
<glyph unicode="&#x26;" horiz-adv-x="1490" d="M1491 94l-168 -149l-246 215q-98 -88 -228.5 -138.5t-258.5 -50.5q-235 0 -377.5 102t-142.5 269q0 236 354 383q-74 63 -121 145.5t-47 149.5q0 131 114.5 213t295.5 82q172 0 281.5 -79.5t109.5 -205.5q0 -92 -78 -179t-219 -155l305 -252q63 119 88 246l219 -33 q-35 -192 -145 -344zM674 1196q-89 0 -142 -47t-53 -127q0 -46 42 -105t114 -116q98 43 156.5 103.5t58.5 119.5q0 79 -48 125.5t-128 46.5zM326 342q0 -106 77.5 -171t204.5 -65q85 0 176 45.5t158 122.5l-383 330q-233 -112 -233 -262z" />
<glyph unicode="'" horiz-adv-x="440" d="M252 897h-154l47 389h246z" />
<glyph unicode="(" horiz-adv-x="579" d="M520 -291h-182q-116 141 -181 340.5t-65 444.5q0 251 68 451t188 341h168q-91 -156 -138.5 -363t-47.5 -429q0 -221 48 -424.5t142 -360.5z" />
<glyph unicode=")" horiz-adv-x="579" d="M61 -291q93 156 141 361.5t48 429.5q0 218 -47.5 424t-136.5 362h165q121 -140 188.5 -339t67.5 -447t-64.5 -449t-180.5 -342h-181z" />
<glyph unicode="*" horiz-adv-x="909" d="M743 631l-125 -88l-163 250l-164 -250l-127 88l190 237l-291 78l48 146l282 -107l-16 301h153l-14 -301l283 107l47 -146l-291 -78z" />
<glyph unicode="+" horiz-adv-x="989" d="M924 535v-154h-353v-352h-153v352h-352v154h352v354h153v-354h353z" />
<glyph unicode="," horiz-adv-x="464" d="M233 -150h-151l47 390h244z" />
<glyph unicode="-" horiz-adv-x="700" d="M121 537h459v-107h-459v107z" />
<glyph unicode="." horiz-adv-x="483" d="M371 0h-256v188h256v-188z" />
<glyph unicode="/" horiz-adv-x="1024" d="M801 1286h186l-749 -1286h-199z" />
<glyph unicode="0" horiz-adv-x="1415" d="M1313 641q0 -318 -159.5 -494t-446.5 -176q-286 0 -445.5 176t-159.5 494q0 319 159.5 496.5t445.5 177.5q287 0 446.5 -177.5t159.5 -496.5zM707 100q174 0 257 130.5t83 410.5q0 283 -83 415t-257 132q-172 0 -254 -132t-82 -415q0 -280 82 -410.5t254 -130.5z" />
<glyph unicode="1" horiz-adv-x="739" d="M569 1286v-1286h-241v1116h-293v90l383 80h151z" />
<glyph unicode="2" horiz-adv-x="1150" d="M1055 981q0 -117 -82 -219q-39 -49 -283 -298t-338 -337h697v-127h-988v178l697 672q78 72 78 158q0 83 -79.5 130.5t-215.5 47.5q-175 0 -361 -101l-43 115q211 115 424 115q226 0 360 -90.5t134 -243.5z" />
<glyph unicode="3" horiz-adv-x="1171" d="M702 690q175 -25 275 -114.5t100 -221.5q0 -180 -146.5 -281.5t-406.5 -101.5q-216 0 -461 121l41 119q218 -113 396 -113q155 0 241 70t86 197q0 118 -114.5 182.5t-325.5 64.5h-127v127h129q183 0 283 65t100 183q0 92 -78.5 145.5t-216.5 53.5q-155 0 -321 -86 l-41 114q94 46 197 73.5t190 27.5q233 0 366 -85.5t133 -236.5q0 -103 -80 -184t-219 -119z" />
<glyph unicode="4" horiz-adv-x="1218" d="M987 408h162v-129h-162v-279h-242v279h-694v157l656 850h280v-878zM745 408v710l-544 -710h544z" />
<glyph unicode="5" horiz-adv-x="1189" d="M594 811q237 0 377.5 -105.5t140.5 -285.5q0 -204 -151 -326.5t-404 -122.5q-215 0 -459 121l39 119q231 -113 395 -113q149 0 234.5 79.5t85.5 217.5t-98.5 211.5t-282.5 73.5q-152 0 -342 -33l27 639h866v-129h-635l-12 -362q93 16 219 16z" />
<glyph unicode="6" horiz-adv-x="1261" d="M725 815q224 0 342.5 -104.5t118.5 -290.5q0 -209 -142 -329t-374 -120q-284 0 -424 150.5t-140 456.5q0 366 152.5 551.5t452.5 185.5q179 0 370 -78l-34 -117q-171 66 -318 66q-362 0 -371 -527q71 85 161 120.5t206 35.5zM659 98q133 0 212 82.5t79 222.5 q0 273 -274 273q-135 0 -224.5 -69.5t-89.5 -203.5q0 -139 80 -222t217 -83z" />
<glyph unicode="7" horiz-adv-x="1048" d="M1001 1286v-170l-608 -1116h-284l655 1157h-709v129h946z" />
<glyph unicode="8" horiz-adv-x="1327" d="M901 717q160 -30 246 -125t86 -232q0 -181 -152.5 -285t-416.5 -104t-417 104t-153 285q0 140 88.5 233.5t243.5 123.5q-244 57 -244 266q0 149 133 240.5t349 91.5q217 0 349 -90.5t132 -241.5q0 -206 -244 -266zM920 983q0 93 -66.5 151t-189.5 58t-189.5 -58 t-66.5 -151t63.5 -151t192.5 -58q131 0 193.5 58t62.5 151zM352 371q0 -128 83 -201.5t229 -73.5q145 0 229 74t84 201q0 121 -84 191.5t-229 70.5q-146 0 -229 -70t-83 -192z" />
<glyph unicode="9" horiz-adv-x="1259" d="M535 463q-217 0 -338 104.5t-121 290.5q0 209 139.5 333t374.5 124q277 0 420 -158.5t143 -458.5q0 -357 -151.5 -542t-440.5 -185q-165 0 -373 76l35 117q183 -64 322 -64q180 0 267 125t93 391q-72 -87 -161 -120t-209 -33zM598 1188q-132 0 -210.5 -85.5t-78.5 -228.5 q0 -127 73 -198.5t204 -71.5q139 0 225 69.5t86 198.5q0 145 -81 230.5t-218 85.5z" />
<glyph unicode=":" horiz-adv-x="497" d="M375 664h-254v188h254v-188zM375 0h-254v188h254v-188z" />
<glyph unicode=";" horiz-adv-x="540" d="M408 643h-256v188h256v-188zM264 -201h-147l49 389h235z" />
<glyph unicode="&#x3c;" horiz-adv-x="870" d="M756 240v-183l-693 326v154l693 325v-184l-525 -219z" />
<glyph unicode="=" horiz-adv-x="845" d="M127 705h592v-154h-592v154zM127 362h592v-153h-592v153z" />
<glyph unicode="&#x3e;" horiz-adv-x="870" d="M115 240l524 219l-524 219v184l692 -325v-154l-692 -326v183z" />
<glyph unicode="?" horiz-adv-x="1056" d="M47 1212q217 103 420 103q237 0 383.5 -93.5t146.5 -244.5q0 -60 -17 -108t-50 -81.5t-68 -55.5t-84 -44q-36 -16 -58.5 -27t-54.5 -28.5t-52 -32.5t-43 -37t-36 -44t-21.5 -50.5t-8.5 -60.5v-29h-205v31q0 58 20 111t46.5 90t72.5 77t77.5 61.5t82.5 53.5 q68 43 103.5 86t35.5 106q0 88 -78 139.5t-210 51.5q-171 0 -361 -88zM274 0v188h254v-188h-254z" />
<glyph unicode="@" horiz-adv-x="1929" d="M983 1315q404 0 632 -190t228 -525q0 -172 -70.5 -315.5t-198 -228.5t-284.5 -85q-77 0 -115 44.5t-38 156.5q-51 -88 -123 -144.5t-150 -56.5q-146 0 -224.5 120t-78.5 343q0 238 115.5 374t306.5 136q158 0 354 -78v-770q0 -16 15 -16q120 6 201 158.5t81 373.5 q0 131 -38.5 237.5t-116 187t-203.5 125t-293 44.5q-319 0 -501.5 -192t-182.5 -527q0 -349 169.5 -536t487.5 -187q116 0 269 43l37 -102q-133 -47 -306 -47q-410 0 -641 220t-231 609q0 390 237 609t662 219zM1139 330v473q-86 35 -160 35q-100 0 -153.5 -105t-53.5 -305 q0 -184 30.5 -267t98.5 -83q67 0 132 75t106 177z" />
<glyph unicode="A" horiz-adv-x="1302" d="M997 0l-116 340h-557l-121 -340h-168l459 1286h309l469 -1286h-275zM369 469h467l-230 668z" />
<glyph unicode="B" horiz-adv-x="1353" d="M901 713q179 -19 277 -103.5t98 -220.5q0 -198 -172.5 -293.5t-530.5 -95.5h-409v1286h493q244 0 377 -79t133 -224q0 -93 -70 -164t-196 -106zM641 1159h-235v-418q518 0 518 234q0 184 -283 184zM406 127h165q235 0 342 67.5t107 215.5q0 100 -94 159.5t-256 59.5 q-104 0 -264 -17v-485z" />
<glyph unicode="C" horiz-adv-x="1216" d="M1128 178l37 -131q-213 -76 -432 -76q-306 0 -473.5 176t-167.5 498q0 321 167.5 495.5t473.5 174.5q216 0 432 -78l-37 -129q-187 72 -358 72q-207 0 -313.5 -136t-106.5 -399t106.5 -398.5t311.5 -135.5q183 0 360 67z" />
<glyph unicode="D" horiz-adv-x="1392" d="M164 1286h495q309 0 475 -167t166 -478q0 -309 -166 -475t-475 -166h-495v1286zM406 127h233q200 2 301.5 131.5t101.5 382.5q0 256 -103.5 387t-307.5 131h-225v-1032z" />
<glyph unicode="E" horiz-adv-x="1142" d="M1051 1286v-127h-645v-428h569v-129h-569v-475h645v-127h-887v1286h887z" />
<glyph unicode="F" horiz-adv-x="1073" d="M1022 1286v-127h-616v-440h550v-127h-550v-592h-242v1286h858z" />
<glyph unicode="G" horiz-adv-x="1304" d="M717 682h475v-657q-190 -54 -453 -54q-327 0 -486 165t-159 505q0 342 158 508t483 166q222 0 432 -78l-37 -129q-203 70 -358 70q-207 0 -314.5 -136.5t-107.5 -400.5t103.5 -401.5t304.5 -137.5q140 0 207 21v430h-248v129z" />
<glyph unicode="H" horiz-adv-x="1390" d="M985 731v555h242v-1286h-242v604h-582v-604h-239v1286h239v-555h582z" />
<glyph unicode="I" horiz-adv-x="569" d="M406 1286v-1286h-242v1286h242z" />
<glyph unicode="J" horiz-adv-x="591" d="M188 1286h240v-1333q0 -331 -430 -334q-52 0 -90 14l14 123q46 -8 72 -8q102 0 148 40t46 132v1366z" />
<glyph unicode="K" horiz-adv-x="1277" d="M1300 0h-307l-544 627h-43v-627h-242v1286h242v-532h45l464 532h277l-537 -592z" />
<glyph unicode="L" horiz-adv-x="1093" d="M406 127h645v-127h-887v1286h242v-1159z" />
<glyph unicode="M" horiz-adv-x="1687" d="M1157 1286h295l135 -1286h-250l-102 1092l-330 -1092h-209l-313 1085l-88 -1085h-191l129 1286h308l303 -1007z" />
<glyph unicode="N" horiz-adv-x="1449" d="M1126 1286h160v-1286h-309l-655 1071v-1071h-158v1286h301l661 -1073v1073z" />
<glyph unicode="O" horiz-adv-x="1499" d="M750 1315q318 0 487.5 -174t169.5 -500q0 -323 -169.5 -496.5t-487.5 -173.5q-317 0 -487.5 174t-170.5 496q0 325 170.5 499.5t487.5 174.5zM750 100q199 0 295 132.5t96 408.5q0 279 -96 412t-295 133q-197 0 -293.5 -133.5t-96.5 -411.5q0 -276 96.5 -408.5 t293.5 -132.5z" />
<glyph unicode="P" horiz-adv-x="1288" d="M1229 934q0 -206 -179.5 -302.5t-566.5 -96.5h-77v-535h-242v1286h543q258 0 390 -89.5t132 -262.5zM981 938q0 107 -76.5 164t-222.5 57h-276v-500q310 0 442.5 64.5t132.5 214.5z" />
<glyph unicode="Q" horiz-adv-x="1495" d="M1403 637q0 -263 -117.5 -428.5t-339.5 -214.5q19 -67 78 -104t150 -37q26 0 30 2l-18 -140q-2 -2 -33 -2q-162 0 -274 68t-158 190q-306 7 -467.5 179t-161.5 487q0 327 169 500.5t487 173.5t486.5 -173.5t168.5 -500.5zM356 637q0 -276 96 -407.5t296 -131.5 q198 0 293.5 131.5t95.5 407.5q0 281 -95 414t-294 133q-200 0 -296 -133t-96 -414z" />
<glyph unicode="R" horiz-adv-x="1325" d="M1223 956q0 -126 -76 -213.5t-223 -128.5l358 -614h-287l-309 571q-134 -14 -280 -14v-557h-242v1286h534q255 0 390 -84.5t135 -245.5zM975 963q0 97 -76 146.5t-223 49.5h-270v-475h30q267 0 403 71t136 208z" />
<glyph unicode="S" horiz-adv-x="1177" d="M621 784q271 -62 385 -152.5t114 -246.5q0 -191 -155 -302.5t-420 -111.5q-216 0 -443 103l35 112q206 -86 383 -86q165 0 262 63.5t97 170.5q0 79 -75.5 131t-254.5 90q-139 29 -233.5 68t-146 87.5t-72.5 101t-21 120.5q0 173 149 278t396 105q200 0 387 -94l-41 -115 q-177 82 -340 82q-147 0 -235.5 -56t-88.5 -147q0 -74 69 -117.5t249 -83.5z" />
<glyph unicode="T" horiz-adv-x="1169" d="M1130 1286v-127h-425v-1159h-242v1159h-424v127h1091z" />
<glyph unicode="U" horiz-adv-x="1421" d="M1028 1286h242v-885q0 -201 -149 -316.5t-410 -115.5t-410 115.5t-149 316.5v885h241v-924q0 -135 78 -199.5t240 -64.5q161 0 239 64.5t78 199.5v924z" />
<glyph unicode="V" horiz-adv-x="1206" d="M745 0h-284l-414 1286h275l325 -1079l338 1079h172z" />
<glyph unicode="W" horiz-adv-x="1781" d="M1544 1286h176l-301 -1286h-278l-242 954l-244 -954h-288l-312 1286h269l235 -1036l256 1036h240l258 -1034z" />
<glyph unicode="X" horiz-adv-x="1214" d="M1221 0h-299l-342 514l-373 -514h-215l493 649l-426 637h285l291 -446l313 446h205l-424 -579z" />
<glyph unicode="Y" horiz-adv-x="1175" d="M1120 1286l-411 -694v-592h-240v580l-414 706h279l291 -541l293 541h202z" />
<glyph unicode="Z" horiz-adv-x="1179" d="M1116 1286v-158l-788 -1001h778v-127h-1063v152l813 1007h-739v127h999z" />
<glyph unicode="[" horiz-adv-x="606" d="M539 1163h-152v-1351h152v-121h-379v1595h379v-123z" />
<glyph unicode="\" horiz-adv-x="1034" d="M233 1286l764 -1286h-209l-753 1286h198z" />
<glyph unicode="]" horiz-adv-x="606" d="M219 1163h-153v123h380v-1595h-380v121h153v1351z" />
<glyph unicode="^" horiz-adv-x="927" d="M244 594h-183l326 692h154l325 -692h-184l-219 526z" />
<glyph unicode="_" horiz-adv-x="905" d="M0 -109h905v-122h-905v122z" />
<glyph unicode="`" horiz-adv-x="657" d="M356 1087l-243 224h237l174 -224h-168z" />
<glyph unicode="a" horiz-adv-x="1071" d="M948 588v-535q-211 -82 -413 -82q-235 0 -356.5 75.5t-121.5 223.5q0 133 120 205.5t360 89.5q86 6 182 6v74q0 92 -58.5 130t-171.5 38q-146 0 -301 -41l-36 115q189 55 395 55q200 0 300.5 -86t100.5 -268zM719 119v346q-64 0 -170 -8q-130 -8 -199 -52.5t-69 -140.5 q0 -88 64.5 -132t174.5 -44q99 0 199 31z" />
<glyph unicode="b" d="M618 942q226 0 335.5 -118.5t109.5 -364.5q0 -240 -123.5 -364t-364.5 -124q-230 0 -436 82v1233h226v-389q140 45 253 45zM834 457q0 190 -60.5 277t-191.5 87q-99 0 -217 -43v-651q85 -35 196 -35q273 0 273 365z" />
<glyph unicode="c" horiz-adv-x="940" d="M84 455q0 238 121.5 362.5t351.5 124.5q165 0 330 -55l-35 -109q-148 37 -248 37q-149 0 -219 -86t-70 -272t69.5 -271.5t219.5 -85.5q122 0 248 35l35 -108q-165 -56 -330 -56q-230 0 -351.5 124t-121.5 360z" />
<glyph unicode="d" horiz-adv-x="1150" d="M1014 53q-207 -82 -439 -82q-241 0 -365 124t-124 364q0 239 112.5 361t333.5 122q124 0 252 -41v385h230v-1233zM590 92q104 0 194 35v657q-109 37 -217 37q-134 0 -192 -84t-58 -280q0 -188 66.5 -276.5t206.5 -88.5z" />
<glyph unicode="e" horiz-adv-x="1097" d="M977 416h-662q1 -153 71 -235.5t198 -82.5q85 0 159 16.5t179 51.5l39 -117q-207 -78 -381 -78q-236 0 -366 127.5t-130 358.5t124 358t349 127q227 0 348 -121t121 -350q0 -55 -49 -55zM315 530h484q0 138 -62 213.5t-176 75.5t-179.5 -76t-66.5 -213z" />
<glyph unicode="f" horiz-adv-x="657" d="M528 1182q-80 0 -108.5 -33.5t-28.5 -118.5v-117h236v-135h-234v-778h-231v778h-113v135h113v105q0 148 78.5 222.5t248.5 74.5q112 0 211 -45l-45 -109q-79 21 -127 21z" />
<glyph unicode="g" d="M1012 850v-907q0 -400 -467 -400q-159 0 -375 78l35 111q209 -62 311 -62q136 0 201 53.5t65 172.5v116q-143 -41 -252 -41q-226 0 -335 119t-109 365q0 248 120 367.5t369 119.5q230 0 437 -92zM567 92q84 0 217 43v637q-74 51 -190 51q-143 0 -211 -89.5t-68 -276.5 t61.5 -276t190.5 -89z" />
<glyph unicode="h" horiz-adv-x="1155" d="M1022 0h-227v639q0 94 -51.5 135t-168.5 41q-107 0 -204 -39v-776h-228v1286h228v-397q122 53 266 53q204 0 294.5 -81t90.5 -267v-594z" />
<glyph unicode="i" horiz-adv-x="516" d="M373 1286v-199h-230v199h230zM373 913v-913h-230v913h230z" />
<glyph unicode="j" horiz-adv-x="530" d="M389 1286v-199h-229v199h229zM389 913v-1073q0 -146 -75 -221.5t-238 -75.5q-34 0 -72.5 8.5t-58.5 20.5l16 113q52 -9 84 -9q64 0 89.5 36.5t25.5 115.5v1085h229z" />
<glyph unicode="k" horiz-adv-x="1071" d="M623 496l460 -496h-297l-364 422h-51v-422h-228v1286h228v-735h51l323 362h265z" />
<glyph unicode="l" horiz-adv-x="520" d="M377 0h-234v1268l234 57v-1325z" />
<glyph unicode="m" horiz-adv-x="1740" d="M1610 0h-228v647q0 93 -44.5 130.5t-153.5 37.5q-100 0 -199 -51q4 -6 4 -51v-713h-229v649q0 91 -46.5 128.5t-156.5 37.5q-78 0 -192 -43v-772h-228v827q227 115 475 115q99 0 162.5 -18.5t110.5 -61.5q92 43 171.5 61.5t176.5 18.5q203 0 290 -77.5t87 -260.5v-604z " />
<glyph unicode="n" d="M1016 0h-228v639q0 97 -49 136.5t-168 39.5q-91 0 -206 -43v-772h-228v827q222 115 492 115q204 0 295.5 -82t91.5 -266v-594z" />
<glyph unicode="o" horiz-adv-x="1155" d="M1071 455q0 -234 -126 -359t-367 -125t-367.5 125t-126.5 359q0 237 126.5 362t367.5 125t367 -125t126 -362zM842 455q0 368 -264 368q-263 0 -263 -368q0 -363 263 -363q264 0 264 363z" />
<glyph unicode="p" horiz-adv-x="1146" d="M1061 455q0 -244 -110.5 -364t-334.5 -120q-118 0 -251 41v-440h-228v1278q194 92 436 92q246 0 367 -120.5t121 -366.5zM831 457q0 190 -66.5 278t-209.5 88q-104 0 -190 -51v-637q122 -43 217 -43q129 0 189 88t60 277z" />
<glyph unicode="q" d="M573 942q237 0 439 -92v-1278h-228v440q-139 -41 -254 -41q-224 0 -334 120t-110 364q0 246 120.5 366.5t366.5 120.5zM590 92q75 0 194 43v637q-87 51 -190 51q-141 0 -210 -89.5t-69 -276.5q0 -186 67.5 -275.5t207.5 -89.5z" />
<glyph unicode="r" horiz-adv-x="782" d="M776 922l-71 -148q-69 41 -179 41q-84 0 -161 -39v-776h-228v827q203 115 451 115q100 0 188 -20z" />
<glyph unicode="s" horiz-adv-x="952" d="M438 -29q-180 0 -348 60l31 116q141 -49 301 -49q112 0 178 38.5t66 111.5q0 52 -54 81.5t-198 63.5q-186 43 -262 103t-76 178q0 132 108 200t320 68q147 0 323 -63l-36 -113q-161 49 -267 49q-231 0 -231 -131q0 -46 60 -77t194 -60q188 -38 264 -97.5t76 -185.5 q0 -141 -116 -217t-333 -76z" />
<glyph unicode="t" horiz-adv-x="679" d="M629 113l-11 -127q-84 -15 -143 -15q-161 0 -239 72t-78 223v512h-113v135h113v263l229 47v-310h240v-135h-240v-522q0 -85 28 -117.5t103 -32.5q53 0 111 7z" />
<glyph unicode="u" horiz-adv-x="1150" d="M133 913h229v-632q0 -98 50.5 -140.5t167.5 -42.5q100 0 204 37v778h230v-819q-115 -65 -230 -94t-260 -29q-209 0 -300 80.5t-91 265.5v596z" />
<glyph unicode="v" horiz-adv-x="1042" d="M829 913h177l-363 -913h-244l-364 913h268l254 -706z" />
<glyph unicode="w" horiz-adv-x="1556" d="M1343 913h173l-293 -913h-222l-219 682l-221 -682h-215l-313 913h270l197 -669l213 669h219l215 -669z" />
<glyph unicode="x" horiz-adv-x="1024" d="M1012 0h-285l-246 334l-280 -334h-195l385 453l-342 460h270l220 -286l243 286h199l-350 -409z" />
<glyph unicode="y" horiz-adv-x="983" d="M391 66l-356 847h262l225 -596l242 596h190l-579 -1341h-201z" />
<glyph unicode="z" horiz-adv-x="989" d="M909 764l-563 -637h572v-127h-861v137l605 654h-560v122h807v-149z" />
<glyph unicode="{" horiz-adv-x="673" d="M586 -188h30v-121h-86q-163 0 -241 72t-78 223v272q0 109 -32 146.5t-126 37.5v123q94 0 126 35.5t32 138.5v279q0 152 78 224.5t241 72.5h86v-123h-30q-78 0 -113 -46t-35 -147v-268q0 -88 -51.5 -158.5t-122.5 -70.5q69 0 121.5 -69.5t52.5 -164.5v-264 q0 -101 35 -146.5t113 -45.5z" />
<glyph unicode="|" horiz-adv-x="495" d="M336 -309h-176v1595h176v-1595z" />
<glyph unicode="}" horiz-adv-x="671" d="M88 -188q78 0 113 45t35 147v266q0 100 51 166t123 66q-71 0 -122.5 70.5t-51.5 160.5v266q0 103 -35 149t-113 46h-31v121h86q164 0 242 -72.5t78 -224.5v-270q0 -109 32 -147t126 -38v-123q-94 0 -126 -35.5t-32 -138.5v-280q0 -151 -78 -223t-242 -72h-86v121h31z" />
<glyph unicode="~" horiz-adv-x="897" d="M725 600l57 -88q-47 -61 -89.5 -85t-108.5 -24q-74 0 -146 33q-63 29 -131 29q-44 0 -73.5 -12.5t-61.5 -46.5l-57 86q53 65 97 89.5t107 24.5q66 0 142 -35q57 -26 131 -26q46 0 75.5 12t57.5 43z" />
<glyph unicode="&#xa1;" horiz-adv-x="550" d="M147 1286h256v-188h-256v188zM414 0h-277l45 901h185z" />
<glyph unicode="&#xa2;" horiz-adv-x="962" d="M854 137l35 -108q-139 -46 -238 -54v-190h-172v192q-393 41 -393 482q0 440 393 481v217h172v-215q118 -12 238 -51l-35 -111q-139 37 -248 37q-291 0 -291 -356q0 -361 291 -361q103 0 248 37z" />
<glyph unicode="&#xa3;" horiz-adv-x="1140" d="M430 127h660v-127h-1006v129q94 0 130 39.5t36 140.5v324h-166v129h166v196q0 175 92.5 264t275.5 89q181 0 379 -60l-34 -123q-154 48 -265 48q-116 0 -161 -55t-45 -181v-178h366v-129h-366v-328q0 -110 -62 -178z" />
<glyph unicode="&#xa4;" horiz-adv-x="987" d="M96 215l101 104q-43 78 -43 173t49 172l-107 110l115 117l108 -115q75 43 160 43q105 0 185 -47l110 119l115 -117l-105 -108q56 -82 56 -174q0 -94 -49 -175l98 -102l-115 -119l-98 107q-91 -56 -197 -56q-92 0 -172 52l-96 -103zM492 678q-75 0 -128 -56.5t-53 -136.5 q0 -78 53 -134t128 -56q79 0 134.5 56t55.5 134q0 80 -55.5 136.5t-134.5 56.5z" />
<glyph unicode="&#xa5;" horiz-adv-x="1157" d="M1096 1286l-351 -594h295v-127h-346v-88h346v-129h-346v-348h-239v348h-334v129h334v88h-334v127h278l-346 594h277l280 -522l285 522h201z" />
<glyph unicode="&#xa6;" horiz-adv-x="495" d="M358 584h-223v702h223v-702zM135 342h223v-770h-223v770z" />
<glyph unicode="&#xa7;" horiz-adv-x="1193" d="M1141 436q0 -77 -36 -146.5t-101 -119.5q47 -56 47 -150q0 -171 -137.5 -263.5t-391.5 -92.5q-178 0 -370 92l34 109q213 -84 336 -84q151 0 233.5 52t82.5 147q0 61 -70 104.5t-254 99.5q-254 78 -352.5 159.5t-98.5 213.5q0 71 39 135.5t109 110.5q-78 63 -78 176 q0 158 132 245t370 87q186 0 356 -86l-39 -107q-165 76 -311 76q-141 0 -219 -47.5t-78 -132.5q0 -22 6 -38.5t24 -32t37 -27t59.5 -26t75.5 -26t99 -30.5q280 -83 388 -170t108 -228zM565 379q222 -68 314 -119q33 27 52 67.5t19 82.5q0 68 -90.5 125t-298.5 114 q-134 38 -217 74q-90 -54 -90 -141q0 -58 72.5 -104.5t238.5 -98.5z" />
<glyph unicode="&#xa8;" horiz-adv-x="1083" d="M473 1286v-199h-178v199h178zM799 1286v-199h-178v199h178z" />
<glyph unicode="&#xa9;" horiz-adv-x="1513" d="M1425 643q0 -187 -89 -341.5t-242 -242.5t-336 -88q-305 0 -487.5 187t-182.5 485q0 140 53 264.5t142.5 213t213.5 139.5t261 51q184 0 337 -86.5t241.5 -240t88.5 -341.5zM1309 643q0 157 -72.5 288.5t-199 207t-279.5 75.5t-280 -74.5t-200 -206t-73 -290.5 q0 -253 156 -415t403 -162q151 0 276.5 77.5t197 210t71.5 289.5zM793 356q78 0 190 37l21 -82q-140 -45 -250 -45q-168 0 -256 97t-88 282t87.5 281t256.5 96q113 0 250 -45l-21 -78q-116 35 -190 35q-111 0 -169.5 -73.5t-58.5 -215.5q0 -141 59 -215t169 -74z" />
<glyph unicode="&#xaa;" horiz-adv-x="759" d="M629 791q-126 -50 -244 -50q-58 0 -105.5 9t-88 28.5t-63 55t-22.5 84.5q0 52 28 88t82 55.5t121 28t157 8.5v35q0 58 -34 82t-100 24q-91 0 -176 -25l-22 66q109 35 231 35q120 0 178 -50t58 -161v-313zM494 1032q-33 0 -99 -4q-77 -5 -117 -30.5t-40 -84.5 q0 -102 141 -102q54 0 115 18v203zM129 647h500v-94h-500v94z" />
<glyph unicode="&#xab;" horiz-adv-x="935" d="M248 600l239 -313l-110 -97l-314 410l314 412l110 -99zM608 600l242 -313l-113 -97l-313 410l313 412l113 -99z" />
<glyph unicode="&#xac;" horiz-adv-x="1120" d="M989 668v-545h-188v397h-707v148h895z" />
<glyph unicode="&#xad;" horiz-adv-x="700" d="M121 537h459v-107h-459v107z" />
<glyph unicode="&#xae;" horiz-adv-x="1513" d="M1425 643q0 -187 -89 -341.5t-242 -242.5t-336 -88q-305 0 -487.5 187t-182.5 485q0 188 89.5 341.5t243 240t337.5 86.5q185 0 337.5 -86t241 -239.5t88.5 -342.5zM1309 643q0 157 -72.5 288.5t-199 207t-279.5 75.5t-280 -74.5t-200 -206t-73 -290.5q0 -253 156 -415 t403 -162q151 0 276.5 77.5t197 210t71.5 289.5zM1057 823q0 -138 -162 -186l195 -336h-150l-170 313q-98 -8 -158 -8v-305h-125v700h287q283 0 283 -178zM930 827q0 107 -168 107h-150v-260h19q152 2 225.5 39.5t73.5 113.5z" />
<glyph unicode="&#xaf;" horiz-adv-x="1050" d="M258 1139v147h590v-147h-590z" />
<glyph unicode="&#xb0;" horiz-adv-x="724" d="M362 1315q132 0 205.5 -83t73.5 -233q0 -149 -73.5 -230t-205.5 -81t-204 81t-72 230q0 151 72 233.5t204 82.5zM213 999q0 -129 36 -189t113 -60t114.5 60.5t37.5 188.5q0 131 -37.5 192.5t-114.5 61.5t-113 -61t-36 -193z" />
<glyph unicode="&#xb1;" horiz-adv-x="1081" d="M967 551h-338v-270h-172v270h-342v147h342v260h172v-260h338v-147zM967 45h-852v145h852v-145z" />
<glyph unicode="&#xb4;" horiz-adv-x="636" d="M346 1087h-168l176 224h238z" />
<glyph unicode="&#xb6;" horiz-adv-x="1230" d="M49 905q0 186 106 283.5t310 97.5h295v-1714h-203v913h-76q-212 0 -322 107t-110 313zM854 -428v1714h205v-1714h-205z" />
<glyph unicode="&#xb7;" horiz-adv-x="497" d="M377 399h-256v189h256v-189z" />
<glyph unicode="&#xb8;" horiz-adv-x="1298" d="M670 -348l16 86q66 -17 94 -17q88 0 88 60q0 61 -90 61q-36 0 -92 -18l-16 84q73 18 137 18q221 0 221 -145q0 -148 -223 -148q-54 0 -135 19z" />
<glyph unicode="&#xba;" horiz-adv-x="806" d="M403 743q-134 0 -211 72t-77 215q0 137 74.5 211t213.5 74q134 0 211.5 -73t77.5 -212q0 -140 -75 -213.5t-214 -73.5zM555 1030q0 215 -152 215q-153 0 -153 -215q0 -217 153 -217q152 0 152 217zM137 553v94h531v-94h-531z" />
<glyph unicode="&#xbb;" horiz-adv-x="935" d="M690 600l-241 313l112 99l313 -412l-313 -410l-112 97zM328 600l-242 313l113 99l313 -412l-313 -410l-113 97z" />
<glyph unicode="&#xbc;" horiz-adv-x="1472" d="M401 1286v-758h-182v631h-170v70l232 57h120zM1001 1286h150l-754 -1286h-157zM1313 262h96v-98h-96v-164h-160v164h-412v92l389 506h183v-500zM1153 262v389l-295 -389h295z" />
<glyph unicode="&#xbd;" horiz-adv-x="1585" d="M1001 1286h150l-752 -1286h-157zM401 1286v-758h-182v631h-170v70l232 57h120zM1505 578q0 -74 -61 -142q-19 -22 -157.5 -161t-178.5 -173h391v-102h-594v121l375 373q49 53 49 94q0 33 -39 51t-106 18q-114 0 -226 -69l-26 110q132 74 268 74q140 0 222.5 -48 t82.5 -146z" />
<glyph unicode="&#xbe;" horiz-adv-x="1687" d="M475 942q205 -35 205 -192q0 -109 -86 -169.5t-252 -60.5q-148 0 -283 78l27 111q141 -72 238 -72q77 0 121 32t44 87q0 121 -235 121h-72v114h74q207 0 207 127q0 40 -36.5 60t-98.5 20q-119 0 -207 -55l-29 106q114 66 268 66q277 0 277 -189q0 -131 -162 -184z M1225 1286h147l-751 -1286h-158zM1538 262h94v-98h-94v-164h-162v164h-411v92l389 506h184v-500zM1376 262v389l-295 -389h295z" />
<glyph unicode="&#xbf;" horiz-adv-x="1052" d="M782 1286v-188h-256v188h256zM1008 74q-214 -103 -418 -103q-238 0 -384.5 92.5t-146.5 243.5q0 62 18.5 109.5t55 81t72.5 55t88 43.5q51 22 79.5 35.5t67.5 39t59.5 50.5t36 63t15.5 84v33h207v-35q0 -52 -11 -97t-34.5 -81.5t-46 -63.5t-61 -55t-63 -43.5t-67.5 -40.5 q-76 -43 -116 -87.5t-40 -110.5q0 -84 79.5 -135.5t209.5 -51.5q168 0 359 88z" />
<glyph unicode="&#xc0;" horiz-adv-x="1302" d="M565 1456l-243 223h237l176 -223h-170zM997 0l-116 340h-557l-121 -340h-168l459 1286h309l469 -1286h-275zM369 469h467l-230 668z" />
<glyph unicode="&#xc1;" horiz-adv-x="1302" d="M733 1456h-170l176 223h238zM997 0l-116 340h-557l-121 -340h-168l459 1286h309l469 -1286h-275zM369 469h467l-230 668z" />
<glyph unicode="&#xc2;" horiz-adv-x="1302" d="M952 1456h-168l-131 125l-131 -125h-170l183 223h237zM997 0l-116 340h-557l-121 -340h-168l459 1286h309l469 -1286h-275zM369 469h467l-230 668z" />
<glyph unicode="&#xc3;" horiz-adv-x="1302" d="M924 1651l57 -86q-46 -60 -90.5 -84.5t-108.5 -24.5q-65 0 -141 31t-135 31q-42 0 -72 -13.5t-63 -46.5l-58 86q53 63 97.5 88t107.5 25q66 0 154 -39q54 -23 119 -23q44 0 74 12.5t59 43.5zM997 0l-116 340h-557l-121 -340h-168l459 1286h309l469 -1286h-275zM369 469 h467l-230 668z" />
<glyph unicode="&#xc4;" horiz-adv-x="1302" d="M565 1665v-209h-192v209h192zM926 1665v-209h-195v209h195zM997 0l-116 340h-557l-121 -340h-168l459 1286h309l469 -1286h-275zM369 469h467l-230 668z" />
<glyph unicode="&#xc5;" horiz-adv-x="1302" d="M997 0l-116 340h-557l-121 -340h-168l452 1272q-71 35 -71 114q0 142 233 142q112 0 173 -36t61 -106q0 -84 -74 -114l463 -1272h-275zM735 1386q0 47 -17.5 69t-68.5 22q-50 0 -68 -21t-18 -70q0 -47 17.5 -68.5t68.5 -21.5q50 0 68 22t18 68zM369 469h467l-230 668z " />
<glyph unicode="&#xc6;" horiz-adv-x="1761" d="M1669 1286v-127h-645v-428h569v-129h-569v-475h645v-127h-887v340h-428l-133 -340h-207l504 1286h1151zM678 1159l-272 -690h376v690h-104z" />
<glyph unicode="&#xc7;" horiz-adv-x="1216" d="M1128 178l37 -131q-213 -76 -432 -76q-306 0 -473.5 176t-167.5 498q0 321 167.5 495.5t473.5 174.5q216 0 432 -78l-37 -129q-187 72 -358 72q-207 0 -313.5 -136t-106.5 -399t106.5 -398.5t311.5 -135.5q183 0 360 67zM539 -348l16 86q66 -17 94 -17q88 0 88 60 q0 61 -90 61q-37 0 -92 -18l-16 84q73 18 137 18q221 0 221 -145q0 -148 -223 -148q-54 0 -135 19z" />
<glyph unicode="&#xc8;" horiz-adv-x="1142" d="M573 1456l-243 223h237l176 -223h-170zM1051 1286v-127h-645v-428h569v-129h-569v-475h645v-127h-887v1286h887z" />
<glyph unicode="&#xc9;" horiz-adv-x="1142" d="M659 1440h-170l177 223h237zM1051 1286v-127h-645v-428h569v-129h-569v-475h645v-127h-887v1286h887z" />
<glyph unicode="&#xca;" horiz-adv-x="1142" d="M905 1456h-168l-131 125l-131 -125h-170l182 223h238zM1051 1286v-127h-645v-428h569v-129h-569v-475h645v-127h-887v1286h887z" />
<glyph unicode="&#xcb;" horiz-adv-x="1142" d="M526 1665v-209h-192v209h192zM887 1665v-209h-195v209h195zM1051 1286v-127h-645v-428h569v-129h-569v-475h645v-127h-887v1286h887z" />
<glyph unicode="&#xcc;" horiz-adv-x="569" d="M223 1456l-243 223h237l176 -223h-170zM406 1286v-1286h-242v1286h242z" />
<glyph unicode="&#xcd;" horiz-adv-x="569" d="M369 1440h-170l176 223h237zM406 1286v-1286h-242v1286h242z" />
<glyph unicode="&#xce;" horiz-adv-x="569" d="M586 1456h-168l-131 125l-131 -125h-170l182 223h238zM406 1286v-1286h-242v1286h242z" />
<glyph unicode="&#xcf;" horiz-adv-x="569" d="M201 1665v-209h-193v209h193zM561 1665v-209h-194v209h194zM406 1286v-1286h-242v1286h242z" />
<glyph unicode="&#xd0;" horiz-adv-x="1413" d="M55 725h129v561h496q309 0 475 -167t166 -478q0 -309 -166 -475t-475 -166h-496v588h-129v137zM426 127h233q200 2 302 131.5t102 382.5q0 255 -104 386.5t-308 131.5h-225v-434h303v-137h-303v-461z" />
<glyph unicode="&#xd1;" horiz-adv-x="1449" d="M1016 1651l57 -86q-46 -60 -90.5 -84.5t-108.5 -24.5q-65 0 -141 31t-135 31q-42 0 -72 -13.5t-63 -46.5l-57 86q53 63 97 88t107 25q66 0 154 -39q54 -23 119 -23q44 0 74 12.5t59 43.5zM1126 1286h160v-1286h-309l-655 1071v-1071h-158v1286h301l661 -1073v1073z" />
<glyph unicode="&#xd2;" horiz-adv-x="1499" d="M674 1456l-244 223h238l176 -223h-170zM750 1315q318 0 487.5 -174t169.5 -500q0 -323 -169.5 -496.5t-487.5 -173.5q-317 0 -487.5 174t-170.5 496q0 325 170.5 499.5t487.5 174.5zM750 100q199 0 295 132.5t96 408.5q0 279 -96 412t-295 133q-197 0 -293.5 -133.5 t-96.5 -411.5q0 -276 96.5 -408.5t293.5 -132.5z" />
<glyph unicode="&#xd3;" horiz-adv-x="1499" d="M805 1440h-170l176 223h238zM750 1315q318 0 487.5 -174t169.5 -500q0 -323 -169.5 -496.5t-487.5 -173.5q-317 0 -487.5 174t-170.5 496q0 325 170.5 499.5t487.5 174.5zM750 100q199 0 295 132.5t96 408.5q0 279 -96 412t-295 133q-197 0 -293.5 -133.5t-96.5 -411.5 q0 -276 96.5 -408.5t293.5 -132.5z" />
<glyph unicode="&#xd4;" horiz-adv-x="1499" d="M1051 1456h-168l-131 125l-131 -125h-170l182 223h237zM750 1315q318 0 487.5 -174t169.5 -500q0 -323 -169.5 -496.5t-487.5 -173.5q-317 0 -487.5 174t-170.5 496q0 325 170.5 499.5t487.5 174.5zM750 100q199 0 295 132.5t96 408.5q0 279 -96 412t-295 133 q-197 0 -293.5 -133.5t-96.5 -411.5q0 -276 96.5 -408.5t293.5 -132.5z" />
<glyph unicode="&#xd5;" horiz-adv-x="1499" d="M1026 1651l57 -86q-46 -60 -90 -84.5t-108 -24.5q-66 0 -142 31t-135 31q-42 0 -72 -13.5t-63 -46.5l-57 86q53 63 97.5 88t107.5 25q65 0 153 -39q54 -23 119 -23q44 0 74 12.5t59 43.5zM750 1315q318 0 487.5 -174t169.5 -500q0 -323 -169.5 -496.5t-487.5 -173.5 q-317 0 -487.5 174t-170.5 496q0 325 170.5 499.5t487.5 174.5zM750 100q199 0 295 132.5t96 408.5q0 279 -96 412t-295 133q-197 0 -293.5 -133.5t-96.5 -411.5q0 -276 96.5 -408.5t293.5 -132.5z" />
<glyph unicode="&#xd6;" horiz-adv-x="1499" d="M666 1665v-209h-193v209h193zM1026 1665v-209h-195v209h195zM750 1315q318 0 487.5 -174t169.5 -500q0 -323 -169.5 -496.5t-487.5 -173.5q-317 0 -487.5 174t-170.5 496q0 325 170.5 499.5t487.5 174.5zM750 100q199 0 295 132.5t96 408.5q0 279 -96 412t-295 133 q-197 0 -293.5 -133.5t-96.5 -411.5q0 -276 96.5 -408.5t293.5 -132.5z" />
<glyph unicode="&#xd7;" horiz-adv-x="980" d="M102 737l107 107l287 -281l274 271l107 -111l-273 -270l273 -269l-109 -112l-272 274l-285 -285l-111 115l285 279z" />
<glyph unicode="&#xd8;" horiz-adv-x="1517" d="M758 1315q266 0 432 -125l90 96h158l-164 -176q141 -176 141 -469q0 -323 -169.5 -496.5t-487.5 -173.5q-261 0 -426 121l-84 -92h-164l162 174q-146 169 -146 467q0 325 170.5 499.5t487.5 174.5zM369 641q0 -180 39 -293l649 699q-93 139 -299 139q-197 0 -293 -133 t-96 -412zM758 100q199 0 295 132.5t96 408.5q0 175 -37 293l-647 -701q93 -133 293 -133z" />
<glyph unicode="&#xd9;" horiz-adv-x="1421" d="M666 1456l-244 223h237l177 -223h-170zM1028 1286h242v-885q0 -201 -149 -316.5t-410 -115.5t-410 115.5t-149 316.5v885h241v-924q0 -135 78 -199.5t240 -64.5q161 0 239 64.5t78 199.5v924z" />
<glyph unicode="&#xda;" horiz-adv-x="1421" d="M780 1456h-170l176 223h238zM1028 1286h242v-885q0 -201 -149 -316.5t-410 -115.5t-410 115.5t-149 316.5v885h241v-924q0 -135 78 -199.5t240 -64.5q161 0 239 64.5t78 199.5v924z" />
<glyph unicode="&#xdb;" horiz-adv-x="1421" d="M1012 1456h-168l-131 125l-131 -125h-170l182 223h237zM1028 1286h242v-885q0 -201 -149 -316.5t-410 -115.5t-410 115.5t-149 316.5v885h241v-924q0 -135 78 -199.5t240 -64.5q161 0 239 64.5t78 199.5v924z" />
<glyph unicode="&#xdc;" horiz-adv-x="1421" d="M627 1665v-209h-193v209h193zM987 1665v-209h-194v209h194zM1028 1286h242v-885q0 -201 -149 -316.5t-410 -115.5t-410 115.5t-149 316.5v885h241v-924q0 -135 78 -199.5t240 -64.5q161 0 239 64.5t78 199.5v924z" />
<glyph unicode="&#xdd;" horiz-adv-x="1175" d="M705 1456h-170l176 223h237zM1120 1286l-411 -694v-592h-240v580l-414 706h279l291 -541l293 541h202z" />
<glyph unicode="&#xde;" horiz-adv-x="1304" d="M412 1286v-250h305q232 0 372 -92.5t140 -269.5q0 -92 -34 -158t-96.5 -109.5t-166.5 -70t-226 -38t-294 -15.5v-283h-248v1286h248zM682 909h-270v-497q125 4 209.5 12t157.5 25t114.5 45t64.5 71.5t23 104.5q0 118 -80.5 178.5t-218.5 60.5z" />
<glyph unicode="&#xdf;" horiz-adv-x="1343" d="M874 717q177 -17 284.5 -115.5t107.5 -241.5q0 -186 -149 -287.5t-419 -101.5q-87 0 -149 11v124q55 -8 119 -8q164 0 252 72.5t88 206.5q0 110 -90 182t-236 72q-108 0 -133 -2v127q171 19 252.5 75.5t81.5 157.5q0 84 -73 138.5t-187 54.5q-109 0 -179.5 -68 t-70.5 -172v-942h-230v901q0 188 127 301t340 113q223 0 365.5 -87.5t142.5 -223.5q0 -105 -63.5 -180t-180.5 -107z" />
<glyph unicode="&#xe0;" horiz-adv-x="1071" d="M498 1087l-244 224h238l174 -224h-168zM948 588v-535q-211 -82 -413 -82q-235 0 -356.5 75.5t-121.5 223.5q0 133 120 205.5t360 89.5q86 6 182 6v74q0 92 -58.5 130t-171.5 38q-146 0 -301 -41l-36 115q189 55 395 55q200 0 300.5 -86t100.5 -268zM719 119v346 q-64 0 -170 -8q-130 -8 -199 -52.5t-69 -140.5q0 -88 64.5 -132t174.5 -44q99 0 199 31z" />
<glyph unicode="&#xe1;" horiz-adv-x="1071" d="M612 1087h-168l177 224h237zM948 588v-535q-211 -82 -413 -82q-235 0 -356.5 75.5t-121.5 223.5q0 133 120 205.5t360 89.5q86 6 182 6v74q0 92 -58.5 130t-171.5 38q-146 0 -301 -41l-36 115q189 55 395 55q200 0 300.5 -86t100.5 -268zM719 119v346q-64 0 -170 -8 q-130 -8 -199 -52.5t-69 -140.5q0 -88 64.5 -132t174.5 -44q99 0 199 31z" />
<glyph unicode="&#xe2;" horiz-adv-x="1071" d="M842 1087h-168l-133 127l-129 -127h-170l182 224h238zM948 588v-535q-211 -82 -413 -82q-235 0 -356.5 75.5t-121.5 223.5q0 133 120 205.5t360 89.5q86 6 182 6v74q0 92 -58.5 130t-171.5 38q-146 0 -301 -41l-36 115q189 55 395 55q200 0 300.5 -86t100.5 -268z M719 119v346q-64 0 -170 -8q-130 -8 -199 -52.5t-69 -140.5q0 -88 64.5 -132t174.5 -44q99 0 199 31z" />
<glyph unicode="&#xe3;" horiz-adv-x="1071" d="M821 1282l58 -88q-44 -59 -89 -83t-110 -24q-70 0 -137 29q-75 33 -142 33q-41 0 -71 -14t-62 -48l-59 89q54 63 99.5 87.5t105.5 24.5q52 0 151 -37q66 -24 123 -24q44 0 73 12t60 43zM948 588v-535q-211 -82 -413 -82q-235 0 -356.5 75.5t-121.5 223.5q0 133 120 205.5 t360 89.5q86 6 182 6v74q0 92 -58.5 130t-171.5 38q-146 0 -301 -41l-36 115q189 55 395 55q200 0 300.5 -86t100.5 -268zM719 119v346q-64 0 -170 -8q-130 -8 -199 -52.5t-69 -140.5q0 -88 64.5 -132t174.5 -44q99 0 199 31z" />
<glyph unicode="&#xe4;" horiz-adv-x="1071" d="M479 1286v-199h-178v199h178zM805 1286v-199h-178v199h178zM948 588v-535q-211 -82 -413 -82q-235 0 -356.5 75.5t-121.5 223.5q0 133 120 205.5t360 89.5q86 6 182 6v74q0 92 -58.5 130t-171.5 38q-146 0 -301 -41l-36 115q189 55 395 55q200 0 300.5 -86t100.5 -268z M719 119v346q-64 0 -170 -8q-130 -8 -199 -52.5t-69 -140.5q0 -88 64.5 -132t174.5 -44q99 0 199 31z" />
<glyph unicode="&#xe5;" horiz-adv-x="1071" d="M782 1257q6 -18 6 -38q0 -142 -233 -142q-236 0 -236 142q0 141 236 141q203 0 227 -103zM639 1219q0 50 -19 70t-65 20q-50 0 -69 -19.5t-19 -70.5t19.5 -71t68.5 -20q46 0 65 20t19 71zM948 588v-535q-211 -82 -413 -82q-235 0 -356.5 75.5t-121.5 223.5 q0 133 120 205.5t360 89.5q86 6 182 6v74q0 92 -58.5 130t-171.5 38q-146 0 -301 -41l-36 115q189 55 395 55q200 0 300.5 -86t100.5 -268zM719 119v346q-64 0 -170 -8q-130 -8 -199 -52.5t-69 -140.5q0 -88 64.5 -132t174.5 -44q99 0 199 31z" />
<glyph unicode="&#xe6;" horiz-adv-x="1736" d="M1616 416h-662q1 -153 71 -235.5t198 -82.5q85 0 159 16.5t179 51.5l38 -117q-207 -78 -380 -78q-176 0 -295 72q-200 -72 -389 -72q-235 0 -356.5 75.5t-121.5 223.5q0 133 120 205.5t360 89.5q86 6 182 6v74q0 92 -58.5 130t-171.5 38q-146 0 -301 -41l-36 115 q189 55 395 55q221 0 321 -106q121 106 328 106q227 0 348 -121t121 -350q0 -55 -49 -55zM954 530h484q0 138 -62 213.5t-176 75.5t-179.5 -76t-66.5 -213zM719 119v346q-64 0 -170 -8q-130 -8 -199 -52.5t-69 -140.5q0 -88 64.5 -132t174.5 -44q99 0 199 31z" />
<glyph unicode="&#xe7;" horiz-adv-x="940" d="M84 455q0 238 121.5 362.5t351.5 124.5q165 0 330 -55l-35 -109q-148 37 -248 37q-149 0 -219 -86t-70 -272t69.5 -271.5t219.5 -85.5q122 0 248 35l35 -108q-165 -56 -330 -56q-230 0 -351.5 124t-121.5 360zM358 -348l17 86q66 -17 94 -17q88 0 88 60q0 61 -90 61 q-37 0 -92 -18l-17 84q74 18 138 18q221 0 221 -145q0 -148 -223 -148q-55 0 -136 19z" />
<glyph unicode="&#xe8;" horiz-adv-x="1097" d="M504 1087l-244 224h238l174 -224h-168zM977 416h-662q1 -153 71 -235.5t198 -82.5q85 0 159 16.5t179 51.5l39 -117q-207 -78 -381 -78q-236 0 -366 127.5t-130 358.5t124 358t349 127q227 0 348 -121t121 -350q0 -55 -49 -55zM315 530h484q0 138 -62 213.5t-176 75.5 t-179.5 -76t-66.5 -213z" />
<glyph unicode="&#xe9;" horiz-adv-x="1097" d="M639 1087h-168l176 224h238zM977 416h-662q1 -153 71 -235.5t198 -82.5q85 0 159 16.5t179 51.5l39 -117q-207 -78 -381 -78q-236 0 -366 127.5t-130 358.5t124 358t349 127q227 0 348 -121t121 -350q0 -55 -49 -55zM315 530h484q0 138 -62 213.5t-176 75.5t-179.5 -76 t-66.5 -213z" />
<glyph unicode="&#xea;" horiz-adv-x="1097" d="M854 1087h-168l-133 127l-129 -127h-170l182 224h238zM977 416h-662q1 -153 71 -235.5t198 -82.5q85 0 159 16.5t179 51.5l39 -117q-207 -78 -381 -78q-236 0 -366 127.5t-130 358.5t124 358t349 127q227 0 348 -121t121 -350q0 -55 -49 -55zM315 530h484 q0 138 -62 213.5t-176 75.5t-179.5 -76t-66.5 -213z" />
<glyph unicode="&#xeb;" horiz-adv-x="1097" d="M481 1286v-199h-178v199h178zM807 1286v-199h-178v199h178zM977 416h-662q1 -153 71 -235.5t198 -82.5q85 0 159 16.5t179 51.5l39 -117q-207 -78 -381 -78q-236 0 -366 127.5t-130 358.5t124 358t349 127q227 0 348 -121t121 -350q0 -55 -49 -55zM315 530h484 q0 138 -62 213.5t-176 75.5t-179.5 -76t-66.5 -213z" />
<glyph unicode="&#xec;" horiz-adv-x="516" d="M197 1087l-244 224h237l175 -224h-168zM373 913v-913h-230v913h230z" />
<glyph unicode="&#xed;" horiz-adv-x="516" d="M332 1087h-168l176 224h238zM373 913v-913h-230v913h230z" />
<glyph unicode="&#xee;" horiz-adv-x="516" d="M557 1087h-168l-133 127l-129 -127h-170l182 224h238zM373 913v-913h-230v913h230z" />
<glyph unicode="&#xef;" horiz-adv-x="516" d="M184 1286v-199h-178v199h178zM510 1286v-199h-178v199h178zM373 913v-913h-230v913h230z" />
<glyph unicode="&#xf0;" horiz-adv-x="1265" d="M600 -29q-242 0 -379 119t-137 330q0 183 122 286t339 103q243 0 364 -150q-3 191 -39 297l-229 -77l-35 102l219 74q-87 131 -280 131q-159 0 -322 -66l-35 117q204 78 369 78q303 0 459 -197l194 66l35 -103l-170 -57q88 -178 88 -446q0 -607 -563 -607zM594 670 q-129 0 -202 -71t-73 -196q0 -142 77 -223.5t212 -81.5q140 0 219.5 81.5t79.5 223.5q0 125 -83.5 196t-229.5 71z" />
<glyph unicode="&#xf1;" d="M848 1282l57 -88q-44 -59 -88.5 -83t-109.5 -24q-71 0 -138 29q-75 33 -141 33q-41 0 -71 -14t-62 -48l-59 89q54 63 99 87.5t105 24.5q53 0 152 -37q66 -24 123 -24q44 0 73 12t60 43zM1016 0h-228v639q0 97 -49 136.5t-168 39.5q-91 0 -206 -43v-772h-228v827 q222 115 492 115q204 0 295.5 -82t91.5 -266v-594z" />
<glyph unicode="&#xf2;" horiz-adv-x="1155" d="M520 1087l-244 224h238l174 -224h-168zM1071 455q0 -234 -126 -359t-367 -125t-367.5 125t-126.5 359q0 237 126.5 362t367.5 125t367 -125t126 -362zM842 455q0 368 -264 368q-263 0 -263 -368q0 -363 263 -363q264 0 264 363z" />
<glyph unicode="&#xf3;" horiz-adv-x="1155" d="M647 1087h-168l176 224h238zM1071 455q0 -234 -126 -359t-367 -125t-367.5 125t-126.5 359q0 237 126.5 362t367.5 125t367 -125t126 -362zM842 455q0 368 -264 368q-263 0 -263 -368q0 -363 263 -363q264 0 264 363z" />
<glyph unicode="&#xf4;" horiz-adv-x="1155" d="M879 1087h-168l-133 127l-129 -127h-170l182 224h237zM1071 455q0 -234 -126 -359t-367 -125t-367.5 125t-126.5 359q0 237 126.5 362t367.5 125t367 -125t126 -362zM842 455q0 368 -264 368q-263 0 -263 -368q0 -363 263 -363q264 0 264 363z" />
<glyph unicode="&#xf5;" horiz-adv-x="1155" d="M854 1282l57 -88q-44 -59 -88.5 -83t-109.5 -24q-71 0 -138 29q-75 33 -141 33q-41 0 -71 -14t-62 -48l-59 89q54 63 99 87.5t105 24.5q53 0 152 -37q66 -24 123 -24q44 0 73 12t60 43zM1071 455q0 -234 -126 -359t-367 -125t-367.5 125t-126.5 359q0 237 126.5 362 t367.5 125t367 -125t126 -362zM842 455q0 368 -264 368q-263 0 -263 -368q0 -363 263 -363q264 0 264 363z" />
<glyph unicode="&#xf6;" horiz-adv-x="1155" d="M504 1286v-199h-178v199h178zM829 1286v-199h-178v199h178zM1071 455q0 -234 -126 -359t-367 -125t-367.5 125t-126.5 359q0 237 126.5 362t367.5 125t367 -125t126 -362zM842 455q0 368 -264 368q-263 0 -263 -368q0 -363 263 -363q264 0 264 363z" />
<glyph unicode="&#xf7;" horiz-adv-x="968" d="M365 690v189h256v-189h-256zM98 375v170h772v-170h-772zM365 43v186h256v-186h-256z" />
<glyph unicode="&#xf8;" horiz-adv-x="1171" d="M1079 455q0 -234 -126 -359t-367 -125q-207 0 -328 92l-63 -63h-125l123 123q-101 125 -101 332q0 237 126.5 362t367.5 125q206 0 332 -94l65 65h117l-123 -122q102 -123 102 -336zM324 455q0 -102 22 -179l445 445q-65 102 -205 102q-262 0 -262 -368zM850 455 q0 100 -23 184l-444 -449q67 -98 203 -98q264 0 264 363z" />
<glyph unicode="&#xf9;" horiz-adv-x="1150" d="M549 1087l-244 224h238l174 -224h-168zM133 913h229v-632q0 -98 50.5 -140.5t167.5 -42.5q100 0 204 37v778h230v-819q-115 -65 -230 -94t-260 -29q-209 0 -300 80.5t-91 265.5v596z" />
<glyph unicode="&#xfa;" horiz-adv-x="1150" d="M651 1087h-168l176 224h238zM133 913h229v-632q0 -98 50.5 -140.5t167.5 -42.5q100 0 204 37v778h230v-819q-115 -65 -230 -94t-260 -29q-209 0 -300 80.5t-91 265.5v596z" />
<glyph unicode="&#xfb;" horiz-adv-x="1150" d="M872 1087h-167l-134 127l-129 -127h-170l183 224h237zM133 913h229v-632q0 -98 50.5 -140.5t167.5 -42.5q100 0 204 37v778h230v-819q-115 -65 -230 -94t-260 -29q-209 0 -300 80.5t-91 265.5v596z" />
<glyph unicode="&#xfc;" horiz-adv-x="1150" d="M498 1286v-199h-179v199h179zM823 1286v-199h-178v199h178zM133 913h229v-632q0 -98 50.5 -140.5t167.5 -42.5q100 0 204 37v778h230v-819q-115 -65 -230 -94t-260 -29q-209 0 -300 80.5t-91 265.5v596z" />
<glyph unicode="&#xfd;" horiz-adv-x="983" d="M584 1087h-168l176 224h237zM391 66l-356 847h262l225 -596l242 596h190l-579 -1341h-201z" />
<glyph unicode="&#xfe;" horiz-adv-x="1153" d="M1067 455q0 -244 -110 -364t-334 -120q-119 0 -252 41v-440h-228v1722h228v-370q102 18 209 18q246 0 366.5 -120.5t120.5 -366.5zM838 457q0 190 -67 278t-210 88q-104 0 -190 -51v-637q122 -43 217 -43q129 0 189.5 88t60.5 277z" />
<glyph unicode="&#xff;" horiz-adv-x="983" d="M446 1286v-199h-178v199h178zM772 1286v-199h-178v199h178zM391 66l-356 847h262l225 -596l242 596h190l-579 -1341h-201z" />
<glyph unicode="&#x100;" horiz-adv-x="1302" d="M352 1456v158h590v-158h-590zM997 0l-116 340h-557l-121 -340h-168l459 1286h309l469 -1286h-275zM369 469h467l-230 668z" />
<glyph unicode="&#x101;" horiz-adv-x="1071" d="M256 1139v147h590v-147h-590zM948 588v-535q-211 -82 -413 -82q-235 0 -356.5 75.5t-121.5 223.5q0 133 120 205.5t360 89.5q86 6 182 6v74q0 92 -58.5 130t-171.5 38q-146 0 -301 -41l-36 115q189 55 395 55q200 0 300.5 -86t100.5 -268zM719 119v346q-64 0 -170 -8 q-130 -8 -199 -52.5t-69 -140.5q0 -88 64.5 -132t174.5 -44q99 0 199 31z" />
<glyph unicode="&#x102;" horiz-adv-x="1302" d="M940 1702q-13 -117 -87 -186.5t-204 -69.5q-133 0 -208.5 68.5t-84.5 187.5h123q10 -62 55.5 -97.5t112.5 -35.5q68 0 114 34.5t58 98.5h121zM997 0l-116 340h-557l-121 -340h-168l459 1286h309l469 -1286h-275zM369 469h467l-230 668z" />
<glyph unicode="&#x103;" horiz-adv-x="1071" d="M846 1331q-12 -116 -90 -184t-201 -68q-128 0 -206 66t-87 186h123q10 -64 57.5 -96.5t110.5 -32.5q67 0 114 32.5t58 96.5h121zM948 588v-535q-211 -82 -413 -82q-235 0 -356.5 75.5t-121.5 223.5q0 133 120 205.5t360 89.5q86 6 182 6v74q0 92 -58.5 130t-171.5 38 q-146 0 -301 -41l-36 115q189 55 395 55q200 0 300.5 -86t100.5 -268zM719 119v346q-64 0 -170 -8q-130 -8 -199 -52.5t-69 -140.5q0 -88 64.5 -132t174.5 -44q99 0 199 31z" />
<glyph unicode="&#x104;" horiz-adv-x="1302" d="M997 0l-116 340h-557l-121 -340h-168l459 1286h309l469 -1286h-72q-92 -81 -127 -134.5t-35 -109.5q0 -43 41 -72.5t101 -29.5h172v-86q-113 -25 -234 -25q-108 0 -174.5 52.5t-66.5 136.5q0 148 178 268h-58zM369 469h467l-230 668z" />
<glyph unicode="&#x105;" horiz-adv-x="1073" d="M948 588v-535q-78 -28 -100 -35q-105 -90 -144.5 -146.5t-39.5 -115.5q0 -43 40.5 -72.5t100.5 -29.5h172v-86q-113 -25 -234 -25q-108 0 -174.5 52.5t-66.5 136.5q0 134 147 245q-59 -6 -114 -6q-235 0 -356.5 75.5t-121.5 223.5q0 133 120 205.5t360 89.5q86 6 182 6 v74q0 92 -58.5 130t-171.5 38q-146 0 -301 -41l-36 115q189 55 395 55q200 0 300.5 -86t100.5 -268zM719 119v346q-64 0 -170 -8q-130 -8 -199 -52.5t-69 -140.5q0 -88 64.5 -132t174.5 -44q99 0 199 31z" />
<glyph unicode="&#x106;" horiz-adv-x="1216" d="M741 1440h-170l177 223h237zM1128 178l37 -131q-213 -76 -432 -76q-306 0 -473.5 176t-167.5 498q0 321 167.5 495.5t473.5 174.5q216 0 432 -78l-37 -129q-187 72 -358 72q-207 0 -313.5 -136t-106.5 -399t106.5 -398.5t311.5 -135.5q183 0 360 67z" />
<glyph unicode="&#x107;" horiz-adv-x="940" d="M594 1087h-168l176 224h238zM84 455q0 238 121.5 362.5t351.5 124.5q165 0 330 -55l-35 -109q-148 37 -248 37q-149 0 -219 -86t-70 -272t69.5 -271.5t219.5 -85.5q122 0 248 35l35 -108q-165 -56 -330 -56q-230 0 -351.5 124t-121.5 360z" />
<glyph unicode="&#x108;" horiz-adv-x="1216" d="M1018 1456h-168l-131 125l-131 -125h-170l182 223h238zM1128 178l37 -131q-213 -76 -432 -76q-306 0 -473.5 176t-167.5 498q0 321 167.5 495.5t473.5 174.5q216 0 432 -78l-37 -129q-187 72 -358 72q-207 0 -313.5 -136t-106.5 -399t106.5 -398.5t311.5 -135.5 q183 0 360 67z" />
<glyph unicode="&#x109;" horiz-adv-x="940" d="M844 1087h-168l-133 127l-129 -127h-170l182 224h238zM84 455q0 238 121.5 362.5t351.5 124.5q165 0 330 -55l-35 -109q-148 37 -248 37q-149 0 -219 -86t-70 -272t69.5 -271.5t219.5 -85.5q122 0 248 35l35 -108q-165 -56 -330 -56q-230 0 -351.5 124t-121.5 360z" />
<glyph unicode="&#x10a;" horiz-adv-x="1216" d="M573 1456v209h252v-209h-252zM1128 178l37 -131q-213 -76 -432 -76q-306 0 -473.5 176t-167.5 498q0 321 167.5 495.5t473.5 174.5q216 0 432 -78l-37 -129q-187 72 -358 72q-207 0 -313.5 -136t-106.5 -399t106.5 -398.5t311.5 -135.5q183 0 360 67z" />
<glyph unicode="&#x10b;" horiz-adv-x="940" d="M637 1296v-204h-229v204h229zM84 455q0 238 121.5 362.5t351.5 124.5q165 0 330 -55l-35 -109q-148 37 -248 37q-149 0 -219 -86t-70 -272t69.5 -271.5t219.5 -85.5q122 0 248 35l35 -108q-165 -56 -330 -56q-230 0 -351.5 124t-121.5 360z" />
<glyph unicode="&#x10c;" horiz-adv-x="1216" d="M1012 1679l-181 -223h-237l-180 223h168l131 -127l131 127h168zM1128 178l37 -131q-213 -76 -432 -76q-306 0 -473.5 176t-167.5 498q0 321 167.5 495.5t473.5 174.5q216 0 432 -78l-37 -129q-187 72 -358 72q-207 0 -313.5 -136t-106.5 -399t106.5 -398.5t311.5 -135.5 q183 0 360 67z" />
<glyph unicode="&#x10d;" horiz-adv-x="940" d="M831 1311l-182 -224h-239l-181 224h170l131 -125l132 125h169zM84 455q0 238 121.5 362.5t351.5 124.5q165 0 330 -55l-35 -109q-148 37 -248 37q-149 0 -219 -86t-70 -272t69.5 -271.5t219.5 -85.5q122 0 248 35l35 -108q-165 -56 -330 -56q-230 0 -351.5 124 t-121.5 360z" />
<glyph unicode="&#x10e;" horiz-adv-x="1392" d="M952 1679l-180 -223h-237l-181 223h168l131 -127l131 127h168zM164 1286h495q309 0 475 -167t166 -478q0 -309 -166 -475t-475 -166h-495v1286zM406 127h233q200 2 301.5 131.5t101.5 382.5q0 256 -103.5 387t-307.5 131h-225v-1032z" />
<glyph unicode="&#x10f;" horiz-adv-x="1263" d="M1272 897h-152l47 389h244zM1014 53q-207 -82 -439 -82q-241 0 -365 124t-124 364q0 239 112.5 361t333.5 122q124 0 252 -41v385h230v-1233zM590 92q104 0 194 35v657q-109 37 -217 37q-134 0 -192 -84t-58 -280q0 -188 66.5 -276.5t206.5 -88.5z" />
<glyph unicode="&#x110;" horiz-adv-x="1413" d="M55 725h129v561h496q309 0 475 -167t166 -478q0 -309 -166 -475t-475 -166h-496v588h-129v137zM426 127h233q200 2 302 131.5t102 382.5q0 255 -104 386.5t-308 131.5h-225v-434h303v-137h-303v-461z" />
<glyph unicode="&#x111;" horiz-adv-x="1150" d="M1014 53q-207 -82 -439 -82q-241 0 -365 124t-124 364q0 239 112.5 361t333.5 122q124 0 252 -41v154h-307v104h307v127h230v-127h129v-104h-129v-1002zM590 92q104 0 194 35v657q-109 37 -217 37q-134 0 -192 -84t-58 -280q0 -188 66.5 -276.5t206.5 -88.5z" />
<glyph unicode="&#x112;" horiz-adv-x="1142" d="M322 1456v158h589v-158h-589zM1051 1286v-127h-645v-428h569v-129h-569v-475h645v-127h-887v1286h887z" />
<glyph unicode="&#x113;" horiz-adv-x="1097" d="M260 1139v147h590v-147h-590zM977 416h-662q1 -153 71 -235.5t198 -82.5q85 0 159 16.5t179 51.5l39 -117q-207 -78 -381 -78q-236 0 -366 127.5t-130 358.5t124 358t349 127q227 0 348 -121t121 -350q0 -55 -49 -55zM315 530h484q0 138 -62 213.5t-176 75.5t-179.5 -76 t-66.5 -213z" />
<glyph unicode="&#x114;" horiz-adv-x="1142" d="M905 1702q-13 -117 -87 -186.5t-204 -69.5q-133 0 -208 68.5t-84 187.5h122q10 -62 55.5 -97.5t112.5 -35.5q68 0 114 34.5t58 98.5h121zM1051 1286v-127h-645v-428h569v-129h-569v-475h645v-127h-887v1286h887z" />
<glyph unicode="&#x115;" horiz-adv-x="1097" d="M852 1331q-12 -116 -90 -184t-201 -68q-128 0 -206 66t-87 186h123q10 -64 57.5 -96.5t110.5 -32.5q67 0 114 32.5t58 96.5h121zM977 416h-662q1 -153 71 -235.5t198 -82.5q85 0 159 16.5t179 51.5l39 -117q-207 -78 -381 -78q-236 0 -366 127.5t-130 358.5t124 358 t349 127q227 0 348 -121t121 -350q0 -55 -49 -55zM315 530h484q0 138 -62 213.5t-176 75.5t-179.5 -76t-66.5 -213z" />
<glyph unicode="&#x116;" horiz-adv-x="1142" d="M492 1456v209h251v-209h-251zM1051 1286v-127h-645v-428h569v-129h-569v-475h645v-127h-887v1286h887z" />
<glyph unicode="&#x117;" horiz-adv-x="1097" d="M678 1296v-204h-229v204h229zM977 416h-662q1 -153 71 -235.5t198 -82.5q85 0 159 16.5t179 51.5l39 -117q-207 -78 -381 -78q-236 0 -366 127.5t-130 358.5t124 358t349 127q227 0 348 -121t121 -350q0 -55 -49 -55zM315 530h484q0 138 -62 213.5t-176 75.5t-179.5 -76 t-66.5 -213z" />
<glyph unicode="&#x118;" horiz-adv-x="1142" d="M1051 1286v-127h-645v-428h569v-129h-569v-475h645v-127h-60q-92 -81 -127 -134.5t-35 -109.5q0 -43 41 -72.5t101 -29.5h172v-86q-113 -25 -234 -25q-108 0 -174.5 52.5t-66.5 136.5q0 148 178 268h-682v1286h887z" />
<glyph unicode="&#x119;" horiz-adv-x="1097" d="M977 416h-662q1 -153 71 -235.5t198 -82.5q85 0 159 16.5t179 51.5l39 -117q-107 -37 -168 -51q-90 -79 -125 -132.5t-35 -109.5q0 -43 40.5 -72.5t100.5 -29.5h172v-86q-113 -25 -233 -25q-108 0 -175 52.5t-67 136.5q0 129 139 239h-30q-236 0 -366 127.5t-130 358.5 t124 358t349 127q227 0 348 -121t121 -350q0 -55 -49 -55zM315 530h484q0 138 -62 213.5t-176 75.5t-179.5 -76t-66.5 -213z" />
<glyph unicode="&#x11a;" horiz-adv-x="1142" d="M915 1679l-180 -223h-237l-181 223h168l131 -127l132 127h167zM1051 1286v-127h-645v-428h569v-129h-569v-475h645v-127h-887v1286h887z" />
<glyph unicode="&#x11b;" horiz-adv-x="1097" d="M854 1311l-182 -224h-240l-180 224h170l131 -125l131 125h170zM977 416h-662q1 -153 71 -235.5t198 -82.5q85 0 159 16.5t179 51.5l39 -117q-207 -78 -381 -78q-236 0 -366 127.5t-130 358.5t124 358t349 127q227 0 348 -121t121 -350q0 -55 -49 -55zM315 530h484 q0 138 -62 213.5t-176 75.5t-179.5 -76t-66.5 -213z" />
<glyph unicode="&#x11c;" horiz-adv-x="1304" d="M1004 1456h-168l-131 125l-132 -125h-170l183 223h237zM717 682h475v-657q-190 -54 -453 -54q-327 0 -486 165t-159 505q0 342 158 508t483 166q222 0 432 -78l-37 -129q-203 70 -358 70q-207 0 -314.5 -136.5t-107.5 -400.5t103.5 -401.5t304.5 -137.5q140 0 207 21v430 h-248v129z" />
<glyph unicode="&#x11d;" d="M891 1087h-168l-133 127l-129 -127h-170l182 224h238zM1012 850v-907q0 -400 -467 -400q-159 0 -375 78l35 111q209 -62 311 -62q136 0 201 53.5t65 172.5v116q-143 -41 -252 -41q-226 0 -335 119t-109 365q0 248 120 367.5t369 119.5q230 0 437 -92zM567 92q84 0 217 43 v637q-74 51 -190 51q-143 0 -211 -89.5t-68 -276.5t61.5 -276t190.5 -89z" />
<glyph unicode="&#x11e;" horiz-adv-x="1304" d="M989 1702q-13 -117 -87 -186.5t-204 -69.5q-133 0 -208 68.5t-84 187.5h122q10 -62 55.5 -97.5t112.5 -35.5q68 0 114 34.5t58 98.5h121zM717 682h475v-657q-190 -54 -453 -54q-327 0 -486 165t-159 505q0 342 158 508t483 166q222 0 432 -78l-37 -129q-203 70 -358 70 q-207 0 -314.5 -136.5t-107.5 -400.5t103.5 -401.5t304.5 -137.5q140 0 207 21v430h-248v129z" />
<glyph unicode="&#x11f;" d="M879 1331q-12 -116 -90 -184t-201 -68q-128 0 -206 66t-87 186h123q10 -64 57.5 -96.5t110.5 -32.5q67 0 114 32.5t58 96.5h121zM1012 850v-907q0 -400 -467 -400q-159 0 -375 78l35 111q209 -62 311 -62q136 0 201 53.5t65 172.5v116q-143 -41 -252 -41q-226 0 -335 119 t-109 365q0 248 120 367.5t369 119.5q230 0 437 -92zM567 92q84 0 217 43v637q-74 51 -190 51q-143 0 -211 -89.5t-68 -276.5t61.5 -276t190.5 -89z" />
<glyph unicode="&#x120;" horiz-adv-x="1304" d="M582 1456v209h252v-209h-252zM717 682h475v-657q-190 -54 -453 -54q-327 0 -486 165t-159 505q0 342 158 508t483 166q222 0 432 -78l-37 -129q-203 70 -358 70q-207 0 -314.5 -136.5t-107.5 -400.5t103.5 -401.5t304.5 -137.5q140 0 207 21v430h-248v129z" />
<glyph unicode="&#x121;" d="M692 1296v-204h-229v204h229zM1012 850v-907q0 -400 -467 -400q-159 0 -375 78l35 111q209 -62 311 -62q136 0 201 53.5t65 172.5v116q-143 -41 -252 -41q-226 0 -335 119t-109 365q0 248 120 367.5t369 119.5q230 0 437 -92zM567 92q84 0 217 43v637q-74 51 -190 51 q-143 0 -211 -89.5t-68 -276.5t61.5 -276t190.5 -89z" />
<glyph unicode="&#x122;" horiz-adv-x="1304" d="M717 682h475v-657q-190 -54 -453 -54q-327 0 -486 165t-159 505q0 342 158 508t483 166q222 0 432 -78l-37 -129q-203 70 -358 70q-207 0 -314.5 -136.5t-107.5 -400.5t103.5 -401.5t304.5 -137.5q140 0 207 21v430h-248v129zM705 -528h-152l47 389h244z" />
<glyph unicode="&#x123;" d="M602 1460h143l-47 -391h-227zM1012 850v-907q0 -400 -467 -400q-159 0 -375 78l35 111q209 -62 311 -62q136 0 201 53.5t65 172.5v116q-143 -41 -252 -41q-226 0 -335 119t-109 365q0 248 120 367.5t369 119.5q230 0 437 -92zM567 92q84 0 217 43v637q-74 51 -190 51 q-143 0 -211 -89.5t-68 -276.5t61.5 -276t190.5 -89z" />
<glyph unicode="&#x124;" horiz-adv-x="1390" d="M997 1456h-168l-131 125l-131 -125h-170l183 223h237zM985 731v555h242v-1286h-242v604h-582v-604h-239v1286h239v-555h582z" />
<glyph unicode="&#x125;" horiz-adv-x="1155" d="M881 1456h-168l-131 125l-131 -125h-170l182 223h237zM1022 0h-227v639q0 94 -51.5 135t-168.5 41q-107 0 -204 -39v-776h-228v1286h228v-397q122 53 266 53q204 0 294.5 -81t90.5 -267v-594z" />
<glyph unicode="&#x126;" horiz-adv-x="1431" d="M53 950v107h131v229h240v-229h582v229h241v-229h131v-107h-131v-950h-241v604h-582v-604h-240v950h-131zM1006 731v219h-582v-219h582z" />
<glyph unicode="&#x127;" horiz-adv-x="1155" d="M1022 0h-227v639q0 94 -51.5 135t-168.5 41q-107 0 -204 -39v-776h-228v1051h-127v104h127v131h228v-131h301v-104h-301v-162q122 53 266 53q204 0 294.5 -81t90.5 -267v-594z" />
<glyph unicode="&#x128;" horiz-adv-x="569" d="M561 1651l57 -86q-46 -60 -90 -84.5t-108 -24.5q-65 0 -141 31t-136 31q-42 0 -72 -13.5t-63 -46.5l-57 86q53 63 97.5 88t107.5 25q65 0 153 -39q54 -23 119 -23q44 0 74 12.5t59 43.5zM406 1286v-1286h-242v1286h242z" />
<glyph unicode="&#x129;" horiz-adv-x="516" d="M535 1282l57 -88q-44 -59 -89 -83t-110 -24q-70 0 -137 29q-75 33 -141 33q-41 0 -71 -14t-62 -48l-60 89q54 63 99.5 87.5t105.5 24.5q53 0 152 -37q66 -24 122 -24q44 0 73.5 12t60.5 43zM373 913v-913h-230v913h230z" />
<glyph unicode="&#x12a;" horiz-adv-x="569" d="M-10 1456v158h590v-158h-590zM406 1286v-1286h-242v1286h242z" />
<glyph unicode="&#x12b;" horiz-adv-x="516" d="M-37 1139v147h590v-147h-590zM373 913v-913h-230v913h230z" />
<glyph unicode="&#x12c;" horiz-adv-x="569" d="M580 1702q-13 -117 -87 -186.5t-204 -69.5q-133 0 -208.5 68.5t-84.5 187.5h123q10 -62 55.5 -97.5t112.5 -35.5q68 0 114 34.5t58 98.5h121zM406 1286v-1286h-242v1286h242z" />
<glyph unicode="&#x12d;" horiz-adv-x="514" d="M549 1331q-12 -116 -90 -184t-201 -68q-128 0 -206 66t-87 186h123q10 -64 57.5 -96.5t110.5 -32.5q67 0 114 32.5t58 96.5h121zM373 913v-913h-230v913h230z" />
<glyph unicode="&#x12e;" horiz-adv-x="569" d="M408 1286v-1286h-58q-92 -81 -127 -134.5t-35 -109.5q0 -43 41 -72.5t101 -29.5h172v-86q-113 -25 -234 -25q-108 0 -174.5 52.5t-66.5 136.5q0 148 178 268h-39v1286h242z" />
<glyph unicode="&#x12f;" horiz-adv-x="518" d="M375 1286v-199h-230v199h230zM375 913v-913h-53q-90 -79 -125 -132.5t-35 -109.5q0 -43 40.5 -72.5t100.5 -29.5h172v-86q-113 -25 -233 -25q-108 0 -175 52.5t-67 136.5q0 146 174 266h-29v913h230z" />
<glyph unicode="&#x130;" horiz-adv-x="569" d="M158 1456v209h252v-209h-252zM406 1286v-1286h-242v1286h242z" />
<glyph unicode="&#x131;" horiz-adv-x="516" d="M373 913v-913h-230v913h230z" />
<glyph unicode="&#x132;" horiz-adv-x="1161" d="M406 1286v-1286h-242v1286h242zM758 1286h239v-1333q0 -331 -430 -334q-52 0 -90 14l15 123q46 -8 71 -8q102 0 148.5 40t46.5 132v1366z" />
<glyph unicode="&#x133;" horiz-adv-x="1036" d="M373 1286v-199h-230v199h230zM895 1286v-199h-229v199h229zM373 913v-913h-230v913h230zM895 913v-1073q0 -146 -75 -221.5t-238 -75.5q-34 0 -72.5 8.5t-58.5 20.5l16 113q52 -9 84 -9q64 0 89.5 36.5t25.5 115.5v1085h229z" />
<glyph unicode="&#x134;" horiz-adv-x="591" d="M610 1456h-168l-131 125l-131 -125h-170l183 223h237zM188 1286h240v-1333q0 -331 -430 -334q-52 0 -90 14l14 123q46 -8 72 -8q102 0 148 40t46 132v1366z" />
<glyph unicode="&#x135;" horiz-adv-x="530" d="M575 1133h-167l-132 124l-131 -124h-170l183 223h237zM389 913v-1073q0 -146 -75 -221.5t-238 -75.5q-34 0 -72.5 8.5t-58.5 20.5l16 113q45 -9 84 -9q64 0 89.5 36.5t25.5 115.5v1085h229z" />
<glyph unicode="&#x136;" horiz-adv-x="1277" d="M1300 0h-307l-544 627h-43v-627h-242v1286h242v-532h45l464 532h277l-537 -592zM672 -528h-152l47 389h244z" />
<glyph unicode="&#x137;" horiz-adv-x="1071" d="M623 496l460 -496h-297l-364 422h-51v-422h-228v1286h228v-735h51l323 362h265zM569 -528h-151l47 389h244z" />
<glyph unicode="&#x138;" horiz-adv-x="1071" d="M621 496l460 -496h-297l-364 422h-49v-422h-230v913h230v-362h49l325 362h265z" />
<glyph unicode="&#x139;" horiz-adv-x="1093" d="M381 1440h-170l176 223h238zM406 127h645v-127h-887v1286h242v-1159z" />
<glyph unicode="&#x13a;" horiz-adv-x="520" d="M328 1456h-170l176 223h237zM377 0h-234v1268l234 57v-1325z" />
<glyph unicode="&#x13b;" horiz-adv-x="1093" d="M406 127h645v-127h-887v1286h242v-1159zM592 -528h-152l47 389h244z" />
<glyph unicode="&#x13c;" horiz-adv-x="520" d="M377 0h-234v1268l234 57v-1325zM244 -528h-152l47 389h244z" />
<glyph unicode="&#x13d;" horiz-adv-x="1101" d="M836 897h-152l47 389h244zM406 127h645v-127h-887v1286h242v-1159z" />
<glyph unicode="&#x13e;" horiz-adv-x="630" d="M377 0h-234v1268l234 57v-1325zM635 897h-152l47 389h244z" />
<glyph unicode="&#x141;" horiz-adv-x="1153" d="M76 453v151l147 82v600h242v-498l203 117v-153l-203 -115v-510h645v-127h-887v535z" />
<glyph unicode="&#x142;" horiz-adv-x="649" d="M446 0h-233v551l-143 -78v145l143 80v570l233 57v-534l146 75v-145l-146 -78v-643z" />
<glyph unicode="&#x143;" horiz-adv-x="1449" d="M821 1440h-170l176 223h238zM1126 1286h160v-1286h-309l-655 1071v-1071h-158v1286h301l661 -1073v1073z" />
<glyph unicode="&#x144;" d="M621 1087h-168l176 224h237zM1016 0h-228v639q0 97 -49 136.5t-168 39.5q-91 0 -206 -43v-772h-228v827q222 115 492 115q204 0 295.5 -82t91.5 -266v-594z" />
<glyph unicode="&#x145;" horiz-adv-x="1449" d="M1126 1286h160v-1286h-309l-655 1071v-1071h-158v1286h301l661 -1073v1073zM723 -528h-152l47 389h244z" />
<glyph unicode="&#x146;" d="M1016 0h-228v639q0 97 -49 136.5t-168 39.5q-91 0 -206 -43v-772h-228v827q222 115 492 115q204 0 295.5 -82t91.5 -266v-594zM561 -528h-151l47 389h243z" />
<glyph unicode="&#x147;" horiz-adv-x="1449" d="M1042 1679l-180 -223h-237l-181 223h168l131 -127l131 127h168zM1126 1286h160v-1286h-309l-655 1071v-1071h-158v1286h301l661 -1073v1073z" />
<glyph unicode="&#x148;" d="M879 1311l-183 -224h-239l-181 224h170l132 -125l131 125h170zM1016 0h-228v639q0 97 -49 136.5t-168 39.5q-91 0 -206 -43v-772h-228v827q222 115 492 115q204 0 295.5 -82t91.5 -266v-594z" />
<glyph unicode="&#x149;" horiz-adv-x="1355" d="M199 897h-152l47 389h244zM1223 0h-228v639q0 97 -49 136.5t-168 39.5q-92 0 -207 -43v-772h-227v827q222 115 492 115q204 0 295.5 -82t91.5 -266v-594z" />
<glyph unicode="&#x14a;" horiz-adv-x="1449" d="M1126 1286h160v-1446q0 -297 -242 -297q-35 0 -73.5 8.5t-57.5 20.5l17 113q45 -9 84 -9q66 0 89 36t23 116v172h-149l-655 1071v-1071h-158v1286h301l661 -1073v1073z" />
<glyph unicode="&#x14b;" d="M629 942q204 0 295.5 -82t91.5 -266v-754q0 -146 -74.5 -221.5t-234.5 -75.5q-35 0 -74.5 8.5t-59.5 20.5l17 113q56 -9 84 -9q61 0 87.5 38t26.5 114v811q0 97 -49 136.5t-168 39.5q-91 0 -206 -43v-772h-228v827q222 115 492 115z" />
<glyph unicode="&#x14c;" horiz-adv-x="1499" d="M455 1456v158h589v-158h-589zM750 1315q318 0 487.5 -174t169.5 -500q0 -323 -169.5 -496.5t-487.5 -173.5q-317 0 -487.5 174t-170.5 496q0 325 170.5 499.5t487.5 174.5zM750 100q199 0 295 132.5t96 408.5q0 279 -96 412t-295 133q-197 0 -293.5 -133.5t-96.5 -411.5 q0 -276 96.5 -408.5t293.5 -132.5z" />
<glyph unicode="&#x14d;" horiz-adv-x="1155" d="M283 1139v147h589v-147h-589zM1071 455q0 -234 -126 -359t-367 -125t-367.5 125t-126.5 359q0 237 126.5 362t367.5 125t367 -125t126 -362zM842 455q0 368 -264 368q-263 0 -263 -368q0 -363 263 -363q264 0 264 363z" />
<glyph unicode="&#x14e;" horiz-adv-x="1499" d="M1042 1702q-13 -117 -86.5 -186.5t-203.5 -69.5q-133 0 -208.5 68.5t-84.5 187.5h123q10 -62 55.5 -97.5t112.5 -35.5q68 0 114 34.5t58 98.5h120zM750 1315q318 0 487.5 -174t169.5 -500q0 -323 -169.5 -496.5t-487.5 -173.5q-317 0 -487.5 174t-170.5 496 q0 325 170.5 499.5t487.5 174.5zM750 100q199 0 295 132.5t96 408.5q0 279 -96 412t-295 133q-197 0 -293.5 -133.5t-96.5 -411.5q0 -276 96.5 -408.5t293.5 -132.5z" />
<glyph unicode="&#x14f;" horiz-adv-x="1155" d="M870 1331q-12 -116 -90 -184t-200 -68q-128 0 -206 66t-87 186h123q10 -64 57.5 -96.5t110.5 -32.5q67 0 114 32.5t58 96.5h120zM1071 455q0 -234 -126 -359t-367 -125t-367.5 125t-126.5 359q0 237 126.5 362t367.5 125t367 -125t126 -362zM842 455q0 368 -264 368 q-263 0 -263 -368q0 -363 263 -363q264 0 264 363z" />
<glyph unicode="&#x150;" horiz-adv-x="1499" d="M657 1456h-168l160 223h238zM987 1456h-168l160 223h238zM750 1315q318 0 487.5 -174t169.5 -500q0 -323 -169.5 -496.5t-487.5 -173.5q-317 0 -487.5 174t-170.5 496q0 325 170.5 499.5t487.5 174.5zM750 100q199 0 295 132.5t96 408.5q0 279 -96 412t-295 133 q-197 0 -293.5 -133.5t-96.5 -411.5q0 -276 96.5 -408.5t293.5 -132.5z" />
<glyph unicode="&#x151;" horiz-adv-x="1155" d="M487 1087h-168l162 224h236zM817 1087h-168l162 224h236zM1071 455q0 -234 -126 -359t-367 -125t-367.5 125t-126.5 359q0 237 126.5 362t367.5 125t367 -125t126 -362zM842 455q0 368 -264 368q-263 0 -263 -368q0 -363 263 -363q264 0 264 363z" />
<glyph unicode="&#x152;" horiz-adv-x="1914" d="M1823 1286v-127h-645v-428h569v-129h-569v-475h645v-127h-844q-112 -31 -229 -31q-322 0 -490 171.5t-168 500.5q0 330 168 502t490 172q121 0 225 -29h848zM360 641q0 -267 99 -404t291 -137q112 0 186 45v998q-76 43 -186 43q-192 0 -291 -137.5t-99 -407.5z" />
<glyph unicode="&#x153;" horiz-adv-x="1859" d="M1739 416h-662q1 -153 71 -235.5t198 -82.5q85 0 158.5 16.5t178.5 51.5l39 -117q-207 -78 -381 -78q-247 0 -380 142q-127 -142 -383 -142q-241 0 -367.5 125t-126.5 359q0 237 126.5 362t367.5 125q253 0 380 -139q124 139 361 139q227 0 348 -121t121 -350 q0 -55 -49 -55zM842 455q0 368 -264 368q-263 0 -263 -368q0 -363 263 -363q264 0 264 363zM1077 530h484q0 138 -62 213.5t-176 75.5t-179.5 -76t-66.5 -213z" />
<glyph unicode="&#x154;" horiz-adv-x="1325" d="M725 1456h-170l176 223h238zM1223 956q0 -126 -76 -213.5t-223 -128.5l358 -614h-287l-309 571q-134 -14 -280 -14v-557h-242v1286h534q255 0 390 -84.5t135 -245.5zM975 963q0 97 -76 146.5t-223 49.5h-270v-475h30q267 0 403 71t136 208z" />
<glyph unicode="&#x155;" horiz-adv-x="782" d="M469 1087h-168l176 224h238zM776 922l-71 -148q-69 41 -179 41q-84 0 -161 -39v-776h-228v827q203 115 451 115q100 0 188 -20z" />
<glyph unicode="&#x156;" horiz-adv-x="1325" d="M1223 956q0 -126 -76 -213.5t-223 -128.5l358 -614h-287l-309 571q-134 -14 -280 -14v-557h-242v1286h534q255 0 390 -84.5t135 -245.5zM975 963q0 97 -76 146.5t-223 49.5h-270v-475h30q267 0 403 71t136 208zM664 -528h-152l47 389h244z" />
<glyph unicode="&#x157;" horiz-adv-x="782" d="M776 922l-71 -148q-69 41 -179 41q-84 0 -161 -39v-776h-228v827q203 115 451 115q100 0 188 -20zM365 -528h-152l47 389h244z" />
<glyph unicode="&#x158;" horiz-adv-x="1325" d="M973 1679l-180 -223h-238l-180 223h168l131 -127l131 127h168zM1223 956q0 -126 -76 -213.5t-223 -128.5l358 -614h-287l-309 571q-134 -14 -280 -14v-557h-242v1286h534q255 0 390 -84.5t135 -245.5zM975 963q0 97 -76 146.5t-223 49.5h-270v-475h30q267 0 403 71 t136 208z" />
<glyph unicode="&#x159;" horiz-adv-x="782" d="M737 1311l-182 -224h-240l-180 224h170l131 -125l131 125h170zM776 922l-71 -148q-69 41 -179 41q-84 0 -161 -39v-776h-228v827q203 115 451 115q100 0 188 -20z" />
<glyph unicode="&#x15a;" horiz-adv-x="1177" d="M647 1456h-170l176 223h238zM621 784q271 -62 385 -152.5t114 -246.5q0 -191 -155 -302.5t-420 -111.5q-216 0 -443 103l35 112q206 -86 383 -86q165 0 262 63.5t97 170.5q0 79 -75.5 131t-254.5 90q-139 29 -233.5 68t-146 87.5t-72.5 101t-21 120.5q0 173 149 278 t396 105q200 0 387 -94l-41 -115q-177 82 -340 82q-147 0 -235.5 -56t-88.5 -147q0 -74 69 -117.5t249 -83.5z" />
<glyph unicode="&#x15b;" horiz-adv-x="952" d="M528 1087h-168l177 224h237zM438 -29q-180 0 -348 60l31 116q141 -49 301 -49q112 0 178 38.5t66 111.5q0 52 -54 81.5t-198 63.5q-186 43 -262 103t-76 178q0 132 108 200t320 68q147 0 323 -63l-36 -113q-161 49 -267 49q-231 0 -231 -131q0 -46 60 -77t194 -60 q188 -38 264 -97.5t76 -185.5q0 -141 -116 -217t-333 -76z" />
<glyph unicode="&#x15c;" horiz-adv-x="1177" d="M885 1458h-168l-131 125l-131 -125h-170l182 223h238zM621 784q271 -62 385 -152.5t114 -246.5q0 -191 -155 -302.5t-420 -111.5q-216 0 -443 103l35 112q206 -86 383 -86q165 0 262 63.5t97 170.5q0 79 -75.5 131t-254.5 90q-139 29 -233.5 68t-146 87.5t-72.5 101 t-21 120.5q0 173 149 278t396 105q200 0 387 -94l-41 -115q-177 82 -340 82q-147 0 -235.5 -56t-88.5 -147q0 -74 69 -117.5t249 -83.5z" />
<glyph unicode="&#x15d;" horiz-adv-x="952" d="M784 1087h-168l-133 127l-129 -127h-170l183 224h237zM438 -29q-180 0 -348 60l31 116q141 -49 301 -49q112 0 178 38.5t66 111.5q0 52 -54 81.5t-198 63.5q-186 43 -262 103t-76 178q0 132 108 200t320 68q147 0 323 -63l-36 -113q-161 49 -267 49q-231 0 -231 -131 q0 -46 60 -77t194 -60q188 -38 264 -97.5t76 -185.5q0 -141 -116 -217t-333 -76z" />
<glyph unicode="&#x15e;" horiz-adv-x="1177" d="M621 784q271 -62 385 -152.5t114 -246.5q0 -191 -155 -302.5t-420 -111.5q-216 0 -443 103l35 112q206 -86 383 -86q165 0 262 63.5t97 170.5q0 79 -75.5 131t-254.5 90q-139 29 -233.5 68t-146 87.5t-72.5 101t-21 120.5q0 173 149 278t396 105q200 0 387 -94l-41 -115 q-177 82 -340 82q-147 0 -235.5 -56t-88.5 -147q0 -74 69 -117.5t249 -83.5zM428 -348l16 86q66 -17 95 -17q88 0 88 60q0 61 -90 61q-37 0 -93 -18l-16 84q73 18 137 18q221 0 221 -145q0 -148 -223 -148q-54 0 -135 19z" />
<glyph unicode="&#x15f;" horiz-adv-x="952" d="M438 -29q-180 0 -348 60l31 116q141 -49 301 -49q112 0 178 38.5t66 111.5q0 52 -54 81.5t-198 63.5q-186 43 -262 103t-76 178q0 132 108 200t320 68q147 0 323 -63l-36 -113q-161 49 -267 49q-231 0 -231 -131q0 -46 60 -77t194 -60q188 -38 264 -97.5t76 -185.5 q0 -141 -116 -217t-333 -76zM317 -348l17 86q66 -17 94 -17q88 0 88 60q0 61 -90 61q-36 0 -92 -18l-17 84q73 18 138 18q221 0 221 -145q0 -148 -223 -148q-55 0 -136 19z" />
<glyph unicode="&#x160;" horiz-adv-x="1177" d="M891 1679l-180 -223h-238l-180 223h168l131 -127l131 127h168zM621 784q271 -62 385 -152.5t114 -246.5q0 -191 -155 -302.5t-420 -111.5q-216 0 -443 103l35 112q206 -86 383 -86q165 0 262 63.5t97 170.5q0 79 -75.5 131t-254.5 90q-139 29 -233.5 68t-146 87.5 t-72.5 101t-21 120.5q0 173 149 278t396 105q200 0 387 -94l-41 -115q-177 82 -340 82q-147 0 -235.5 -56t-88.5 -147q0 -74 69 -117.5t249 -83.5z" />
<glyph unicode="&#x161;" horiz-adv-x="952" d="M780 1311l-182 -224h-240l-180 224h170l131 -125l131 125h170zM438 -29q-180 0 -348 60l31 116q141 -49 301 -49q112 0 178 38.5t66 111.5q0 52 -54 81.5t-198 63.5q-186 43 -262 103t-76 178q0 132 108 200t320 68q147 0 323 -63l-36 -113q-161 49 -267 49 q-231 0 -231 -131q0 -46 60 -77t194 -60q188 -38 264 -97.5t76 -185.5q0 -141 -116 -217t-333 -76z" />
<glyph unicode="&#x162;" horiz-adv-x="1169" d="M1130 1286v-127h-425v-1159h-242v1159h-424v127h1091zM418 -348l16 86q66 -17 94 -17q88 0 88 60q0 61 -90 61q-36 0 -92 -18l-16 84q74 18 137 18q221 0 221 -145q0 -148 -223 -148q-54 0 -135 19z" />
<glyph unicode="&#x163;" horiz-adv-x="679" d="M629 113l-11 -127q-84 -15 -143 -15q-161 0 -239 72t-78 223v512h-113v135h113v263l229 47v-310h240v-135h-240v-522q0 -85 28 -117.5t103 -32.5q53 0 111 7zM258 -348l16 86q66 -17 95 -17q88 0 88 60q0 61 -90 61q-37 0 -93 -18l-16 84q74 18 137 18q221 0 221 -145 q0 -148 -223 -148q-54 0 -135 19z" />
<glyph unicode="&#x164;" horiz-adv-x="1169" d="M885 1679l-180 -223h-238l-180 223h168l131 -127l131 127h168zM1130 1286v-127h-425v-1159h-242v1159h-424v127h1091z" />
<glyph unicode="&#x165;" horiz-adv-x="770" d="M836 897h-152l47 389h244zM629 113l-11 -127q-84 -15 -143 -15q-161 0 -239 72t-78 223v512h-113v135h113v263l229 47v-310h240v-135h-240v-522q0 -85 28 -117.5t103 -32.5q53 0 111 7z" />
<glyph unicode="&#x166;" horiz-adv-x="1183" d="M221 729v119h250v311h-424v127h1092v-127h-426v-311h250v-119h-250v-729h-242v729h-250z" />
<glyph unicode="&#x167;" horiz-adv-x="704" d="M61 449v124h113v205h-113v135h113v263l229 47v-310h240v-135h-240v-205h230v-124h-230v-193q0 -85 28.5 -117.5t103.5 -32.5q52 0 110 7l-10 -127q-84 -15 -143 -15q-162 0 -240 72.5t-78 222.5v183h-113z" />
<glyph unicode="&#x168;" horiz-adv-x="1421" d="M987 1651l57 -86q-46 -60 -90 -84.5t-108 -24.5q-65 0 -141 31t-136 31q-42 0 -72 -13.5t-63 -46.5l-57 86q53 63 97.5 88t107.5 25q65 0 153 -39q54 -23 119 -23q44 0 74 12.5t59 43.5zM1028 1286h242v-885q0 -201 -149 -316.5t-410 -115.5t-410 115.5t-149 316.5v885 h241v-924q0 -135 78 -199.5t240 -64.5q161 0 239 64.5t78 199.5v924z" />
<glyph unicode="&#x169;" horiz-adv-x="1150" d="M850 1282l57 -88q-44 -59 -88.5 -83t-109.5 -24q-71 0 -138 29q-75 33 -141 33q-41 0 -71 -14t-62 -48l-59 89q54 63 99 87.5t105 24.5q53 0 152 -37q66 -24 123 -24q44 0 73 12t60 43zM133 913h229v-632q0 -98 50.5 -140.5t167.5 -42.5q100 0 204 37v778h230v-819 q-115 -65 -230 -94t-260 -29q-209 0 -300 80.5t-91 265.5v596z" />
<glyph unicode="&#x16a;" horiz-adv-x="1421" d="M416 1456v158h590v-158h-590zM1028 1286h242v-885q0 -201 -149 -316.5t-410 -115.5t-410 115.5t-149 316.5v885h241v-924q0 -135 78 -199.5t240 -64.5q161 0 239 64.5t78 199.5v924z" />
<glyph unicode="&#x16b;" horiz-adv-x="1150" d="M287 1139v147h590v-147h-590zM133 913h229v-632q0 -98 50.5 -140.5t167.5 -42.5q100 0 204 37v778h230v-819q-115 -65 -230 -94t-260 -29q-209 0 -300 80.5t-91 265.5v596z" />
<glyph unicode="&#x16c;" horiz-adv-x="1421" d="M1004 1702q-13 -117 -87 -186.5t-204 -69.5q-133 0 -208.5 68.5t-84.5 187.5h123q10 -62 55.5 -97.5t112.5 -35.5q68 0 114 34.5t58 98.5h121zM1028 1286h242v-885q0 -201 -149 -316.5t-410 -115.5t-410 115.5t-149 316.5v885h241v-924q0 -135 78 -199.5t240 -64.5 q161 0 239 64.5t78 199.5v924z" />
<glyph unicode="&#x16d;" horiz-adv-x="1150" d="M866 1331q-12 -116 -90 -184t-201 -68q-127 0 -205 66t-87 186h123q10 -64 57 -96.5t110 -32.5q67 0 114 32.5t58 96.5h121zM133 913h229v-632q0 -98 50.5 -140.5t167.5 -42.5q100 0 204 37v778h230v-819q-115 -65 -230 -94t-260 -29q-209 0 -300 80.5t-91 265.5v596z " />
<glyph unicode="&#x16e;" horiz-adv-x="1421" d="M477 1585q0 141 234 141q112 0 172.5 -35.5t60.5 -105.5q0 -73 -57.5 -107t-175.5 -34q-116 0 -175 33.5t-59 107.5zM797 1585q0 47 -17.5 68.5t-68.5 21.5q-50 0 -68 -21t-18 -69q0 -47 17.5 -68.5t68.5 -21.5q50 0 68 22t18 68zM1028 1286h242v-885q0 -201 -149 -316.5 t-410 -115.5t-410 115.5t-149 316.5v885h241v-924q0 -135 78 -199.5t240 -64.5q161 0 239 64.5t78 199.5v924z" />
<glyph unicode="&#x16f;" horiz-adv-x="1150" d="M803 1257q6 -18 6 -38q0 -142 -234 -142q-235 0 -235 142q0 141 235 141q204 0 228 -103zM659 1219q0 50 -19 70t-65 20q-50 0 -69 -19.5t-19 -70.5t19.5 -71t68.5 -20q46 0 65 20t19 71zM133 913h229v-632q0 -98 50.5 -140.5t167.5 -42.5q100 0 204 37v778h230v-819 q-115 -65 -230 -94t-260 -29q-209 0 -300 80.5t-91 265.5v596z" />
<glyph unicode="&#x170;" horiz-adv-x="1421" d="M610 1456h-168l160 223h238zM940 1456h-168l160 223h237zM1028 1286h242v-885q0 -201 -149 -316.5t-410 -115.5t-410 115.5t-149 316.5v885h241v-924q0 -135 78 -199.5t240 -64.5q161 0 239 64.5t78 199.5v924z" />
<glyph unicode="&#x171;" horiz-adv-x="1150" d="M467 1087h-168l162 224h235zM797 1087h-168l162 224h235zM133 913h229v-632q0 -98 50.5 -140.5t167.5 -42.5q100 0 204 37v778h230v-819q-115 -65 -230 -94t-260 -29q-209 0 -300 80.5t-91 265.5v596z" />
<glyph unicode="&#x172;" horiz-adv-x="1421" d="M1028 1286h242v-885q0 -147 -80 -249t-229 -148q-94 -82 -130 -136t-36 -112q0 -43 40.5 -72.5t100.5 -29.5h172v-86q-113 -25 -234 -25q-108 0 -174.5 52.5t-66.5 136.5q0 129 137 239q-18 -2 -59 -2q-261 0 -410 115.5t-149 316.5v885h241v-924q0 -135 78 -199.5 t240 -64.5q161 0 239 64.5t78 199.5v924z" />
<glyph unicode="&#x173;" horiz-adv-x="1150" d="M133 913h229v-632q0 -98 50.5 -140.5t167.5 -42.5q100 0 204 37v778h230v-819q-106 -59 -207 -88q-97 -85 -133.5 -139t-36.5 -111q0 -43 40.5 -72.5t100.5 -29.5h172v-86q-113 -25 -233 -25q-108 0 -175 52.5t-67 136.5q0 130 143 243q-62 -4 -94 -4q-209 0 -300 80.5 t-91 265.5v596z" />
<glyph unicode="&#x174;" horiz-adv-x="1781" d="M1219 1456h-168l-131 125l-132 -125h-170l183 223h237zM1544 1286h176l-301 -1286h-278l-242 954l-244 -954h-288l-312 1286h269l235 -1036l256 1036h240l258 -1034z" />
<glyph unicode="&#x175;" horiz-adv-x="1556" d="M1122 1087h-168l-133 127l-129 -127h-170l183 224h237zM1343 913h173l-293 -913h-222l-219 682l-221 -682h-215l-313 913h270l197 -669l213 669h219l215 -669z" />
<glyph unicode="&#x176;" horiz-adv-x="1175" d="M913 1456h-168l-131 125l-131 -125h-170l183 223h237zM1120 1286l-411 -694v-592h-240v580l-414 706h279l291 -541l293 541h202z" />
<glyph unicode="&#x177;" horiz-adv-x="983" d="M821 1087h-168l-133 127l-129 -127h-170l182 224h238zM391 66l-356 847h262l225 -596l242 596h190l-579 -1341h-201z" />
<glyph unicode="&#x178;" horiz-adv-x="1175" d="M539 1665v-209h-193v209h193zM899 1665v-209h-194v209h194zM1120 1286l-411 -694v-592h-240v580l-414 706h279l291 -541l293 541h202z" />
<glyph unicode="&#x179;" horiz-adv-x="1179" d="M668 1456h-170l176 223h237zM1116 1286v-158l-788 -1001h778v-127h-1063v152l813 1007h-739v127h999z" />
<glyph unicode="&#x17a;" horiz-adv-x="989" d="M567 1087h-168l176 224h238zM909 764l-563 -637h572v-127h-861v137l605 654h-560v122h807v-149z" />
<glyph unicode="&#x17b;" horiz-adv-x="1179" d="M467 1456v209h252v-209h-252zM1116 1286v-158l-788 -1001h778v-127h-1063v152l813 1007h-739v127h999z" />
<glyph unicode="&#x17c;" horiz-adv-x="989" d="M618 1296v-204h-229v204h229zM909 764l-563 -637h572v-127h-861v137l605 654h-560v122h807v-149z" />
<glyph unicode="&#x17d;" horiz-adv-x="1179" d="M922 1679l-181 -223h-237l-180 223h168l131 -127l131 127h168zM1116 1286v-158l-788 -1001h778v-127h-1063v152l813 1007h-739v127h999z" />
<glyph unicode="&#x17e;" horiz-adv-x="989" d="M811 1311l-182 -224h-240l-180 224h170l131 -125l131 125h170zM909 764l-563 -637h572v-127h-861v137l605 654h-560v122h807v-149z" />
<glyph unicode="&#x18f;" horiz-adv-x="1492" d="M371 842h-265q47 232 210 352.5t427 120.5q324 0 491 -172.5t167 -505.5q0 -318 -172 -492t-486 -174t-485.5 174.5t-171.5 493.5h1047q-1 279 -97 413t-293 134q-155 0 -246.5 -84.5t-125.5 -259.5zM743 100q340 0 383 410h-766q44 -410 383 -410z" />
<glyph unicode="&#x192;" horiz-adv-x="1226" d="M227 -82q78 0 114.5 33t55.5 119l146 708h-142l29 135h141l21 97q32 156 127 228.5t266 72.5q116 0 201 -45l-70 -107q-62 19 -123 19q-74 0 -112.5 -35t-55.5 -121l-22 -109h233l-28 -135h-234l-145 -698q-31 -153 -126 -224t-267 -71q-115 0 -201 45l69 107 q65 -19 123 -19z" />
<glyph unicode="&#x19d;" horiz-adv-x="1449" d="M324 913v-1073q0 -297 -242 -297q-82 0 -131 29l16 113q45 -9 84 -9q62 0 87.5 37t25.5 115v1458h301l661 -1073v1073h160v-1286h-309l-655 1071v-158h2z" />
<glyph unicode="&#x1cd;" horiz-adv-x="1302" d="M948 1679l-180 -223h-238l-180 223h168l131 -127l131 127h168zM997 0l-116 340h-557l-121 -340h-168l459 1286h309l469 -1286h-275zM369 469h467l-230 668z" />
<glyph unicode="&#x1ce;" horiz-adv-x="1071" d="M840 1311l-183 -224h-239l-180 224h170l131 -125l131 125h170zM948 588v-535q-211 -82 -413 -82q-235 0 -356.5 75.5t-121.5 223.5q0 133 120 205.5t360 89.5q86 6 182 6v74q0 92 -58.5 130t-171.5 38q-146 0 -301 -41l-36 115q189 55 395 55q200 0 300.5 -86t100.5 -268 zM719 119v346q-64 0 -170 -8q-130 -8 -199 -52.5t-69 -140.5q0 -88 64.5 -132t174.5 -44q99 0 199 31z" />
<glyph unicode="&#x1cf;" horiz-adv-x="569" d="M586 1679l-180 -223h-238l-180 223h168l131 -127l131 127h168zM406 1286v-1286h-242v1286h242z" />
<glyph unicode="&#x1d1;" horiz-adv-x="1499" d="M1049 1679l-181 -223h-237l-180 223h167l132 -127l131 127h168zM750 1315q318 0 487.5 -174t169.5 -500q0 -323 -169.5 -496.5t-487.5 -173.5q-317 0 -487.5 174t-170.5 496q0 325 170.5 499.5t487.5 174.5zM750 100q199 0 295 132.5t96 408.5q0 279 -96 412t-295 133 q-197 0 -293.5 -133.5t-96.5 -411.5q0 -276 96.5 -408.5t293.5 -132.5z" />
<glyph unicode="&#x1d2;" horiz-adv-x="1155" d="M879 1313l-183 -223h-239l-181 223h170l132 -125l131 125h170zM1071 455q0 -234 -126 -359t-367 -125t-367.5 125t-126.5 359q0 237 126.5 362t367.5 125t367 -125t126 -362zM842 455q0 368 -264 368q-263 0 -263 -368q0 -363 263 -363q264 0 264 363z" />
<glyph unicode="&#x1d3;" horiz-adv-x="1421" d="M1012 1679l-181 -223h-237l-180 223h168l131 -127l131 127h168zM1028 1286h242v-885q0 -201 -149 -316.5t-410 -115.5t-410 115.5t-149 316.5v885h241v-924q0 -135 78 -199.5t240 -64.5q161 0 239 64.5t78 199.5v924z" />
<glyph unicode="&#x1d4;" horiz-adv-x="1150" d="M874 1311l-182 -224h-239l-181 224h170l131 -125l132 125h169zM133 913h229v-632q0 -98 50.5 -140.5t167.5 -42.5q100 0 204 37v778h230v-819q-115 -65 -230 -94t-260 -29q-209 0 -300 80.5t-91 265.5v596z" />
<glyph unicode="&#x1d5;" horiz-adv-x="1421" d="M416 1769v158h590v-158h-590zM627 1665v-209h-193v209h193zM987 1665v-209h-194v209h194zM1028 1286h242v-885q0 -201 -149 -316.5t-410 -115.5t-410 115.5t-149 316.5v885h241v-924q0 -135 78 -199.5t240 -64.5q161 0 239 64.5t78 199.5v924z" />
<glyph unicode="&#x1d6;" horiz-adv-x="1150" d="M279 1456v158h589v-158h-589zM496 1286v-199h-179v199h179zM821 1286v-199h-178v199h178zM133 913h229v-632q0 -98 50.5 -140.5t167.5 -42.5q100 0 204 37v778h230v-819q-115 -65 -230 -94t-260 -29q-209 0 -300 80.5t-91 265.5v596z" />
<glyph unicode="&#x1d7;" horiz-adv-x="1421" d="M784 1765h-170l177 224h237zM627 1665v-209h-193v209h193zM987 1665v-209h-194v209h194zM1028 1286h242v-885q0 -201 -149 -316.5t-410 -115.5t-410 115.5t-149 316.5v885h241v-924q0 -135 78 -199.5t240 -64.5q161 0 239 64.5t78 199.5v924z" />
<glyph unicode="&#x1d8;" horiz-adv-x="1150" d="M631 1456h-170l176 223h237zM496 1286v-199h-179v199h179zM821 1286v-199h-178v199h178zM133 913h229v-632q0 -98 50.5 -140.5t167.5 -42.5q100 0 204 37v778h230v-819q-115 -65 -230 -94t-260 -29q-209 0 -300 80.5t-91 265.5v596z" />
<glyph unicode="&#x1d9;" horiz-adv-x="1421" d="M1012 1970l-181 -223h-237l-180 223h168l131 -127l131 127h168zM627 1665v-209h-193v209h193zM987 1665v-209h-194v209h194zM1028 1286h242v-885q0 -201 -149 -316.5t-410 -115.5t-410 115.5t-149 316.5v885h241v-924q0 -135 78 -199.5t240 -64.5q161 0 239 64.5 t78 199.5v924z" />
<glyph unicode="&#x1da;" horiz-adv-x="1150" d="M872 1659l-180 -223h-237l-181 223h168l131 -127l132 127h167zM496 1286v-199h-179v199h179zM821 1286v-199h-178v199h178zM133 913h229v-632q0 -98 50.5 -140.5t167.5 -42.5q100 0 204 37v778h230v-819q-115 -65 -230 -94t-260 -29q-209 0 -300 80.5t-91 265.5v596z" />
<glyph unicode="&#x1db;" horiz-adv-x="1421" d="M647 1774l-244 223h238l176 -223h-170zM627 1665v-209h-193v209h193zM987 1665v-209h-194v209h194zM1028 1286h242v-885q0 -201 -149 -316.5t-410 -115.5t-410 115.5t-149 316.5v885h241v-924q0 -135 78 -199.5t240 -64.5q161 0 239 64.5t78 199.5v924z" />
<glyph unicode="&#x1dc;" horiz-adv-x="1150" d="M522 1456l-243 223h237l176 -223h-170zM496 1286v-199h-179v199h179zM821 1286v-199h-178v199h178zM133 913h229v-632q0 -98 50.5 -140.5t167.5 -42.5q100 0 204 37v778h230v-819q-115 -65 -230 -94t-260 -29q-209 0 -300 80.5t-91 265.5v596z" />
<glyph unicode="&#x1e6;" horiz-adv-x="1304" d="M1001 1679l-180 -223h-237l-181 223h168l131 -127l132 127h167zM717 682h475v-657q-190 -54 -453 -54q-327 0 -486 165t-159 505q0 342 158 508t483 166q222 0 432 -78l-37 -129q-203 70 -358 70q-207 0 -314.5 -136.5t-107.5 -400.5t103.5 -401.5t304.5 -137.5 q140 0 207 21v430h-248v129z" />
<glyph unicode="&#x1e7;" d="M889 1311l-182 -224h-240l-180 224h170l131 -125l131 125h170zM1012 850v-907q0 -400 -467 -400q-159 0 -375 78l35 111q209 -62 311 -62q136 0 201 53.5t65 172.5v116q-143 -41 -252 -41q-226 0 -335 119t-109 365q0 248 120 367.5t369 119.5q230 0 437 -92zM567 92 q84 0 217 43v637q-74 51 -190 51q-143 0 -211 -89.5t-68 -276.5t61.5 -276t190.5 -89z" />
<glyph unicode="&#x1ea;" horiz-adv-x="1499" d="M750 1315q318 0 487.5 -174t169.5 -500q0 -257 -109 -420.5t-317 -220.5q-92 -81 -127 -134.5t-35 -109.5q0 -43 41 -72.5t101 -29.5h172v-86q-112 -25 -234 -25q-108 0 -175 52.5t-67 136.5q0 128 140 241q-14 -2 -47 -2q-317 0 -487.5 174t-170.5 496 q0 325 170.5 499.5t487.5 174.5zM750 100q199 0 295 132.5t96 408.5q0 279 -96 412t-295 133q-197 0 -293.5 -133.5t-96.5 -411.5q0 -276 96.5 -408.5t293.5 -132.5z" />
<glyph unicode="&#x1eb;" horiz-adv-x="1155" d="M1071 455q0 -177 -72.5 -292t-212.5 -161q-93 -83 -128 -136t-35 -110q0 -43 40.5 -72.5t100.5 -29.5h172v-86q-112 -25 -234 -25q-108 0 -174.5 52.5t-66.5 136.5q0 129 139 239h-22q-241 0 -367.5 125t-126.5 359q0 237 126.5 362t367.5 125t367 -125t126 -362z M842 455q0 368 -264 368q-263 0 -263 -368q0 -363 263 -363q264 0 264 363z" />
<glyph unicode="&#x1f4;" horiz-adv-x="1304" d="M778 1456h-170l176 223h238zM717 682h475v-657q-190 -54 -453 -54q-327 0 -486 165t-159 505q0 342 158 508t483 166q222 0 432 -78l-37 -129q-203 70 -358 70q-207 0 -314.5 -136.5t-107.5 -400.5t103.5 -401.5t304.5 -137.5q140 0 207 21v430h-248v129z" />
<glyph unicode="&#x1f5;" d="M666 1087h-168l176 224h237zM1012 850v-907q0 -400 -467 -400q-159 0 -375 78l35 111q209 -62 311 -62q136 0 201 53.5t65 172.5v116q-143 -41 -252 -41q-226 0 -335 119t-109 365q0 248 120 367.5t369 119.5q230 0 437 -92zM567 92q84 0 217 43v637q-74 51 -190 51 q-143 0 -211 -89.5t-68 -276.5t61.5 -276t190.5 -89z" />
<glyph unicode="&#x1fa;" horiz-adv-x="1302" d="M997 0l-116 340h-557l-121 -340h-168l457 1278q-80 35 -80 119q0 116 155 137l164 207h238l-230 -211q67 -12 103.5 -46t36.5 -87q0 -80 -74 -115l467 -1282h-275zM731 1397q0 47 -17.5 68.5t-68.5 21.5q-50 0 -68 -21t-18 -69q0 -47 17.5 -68.5t68.5 -21.5q50 0 68 22 t18 68zM369 469h467l-230 668z" />
<glyph unicode="&#x1fb;" horiz-adv-x="1071" d="M623 1444h-170l176 223h237zM782 1245q6 -18 6 -39q0 -141 -233 -141q-236 0 -236 141q0 142 236 142q203 0 227 -103zM639 1206q0 50 -19 70t-65 20q-50 0 -69 -19.5t-19 -70.5t19 -70.5t69 -19.5q46 0 65 20t19 70zM948 588v-535q-211 -82 -413 -82q-235 0 -356.5 75.5 t-121.5 223.5q0 133 120 205.5t360 89.5q86 6 182 6v74q0 92 -58.5 130t-171.5 38q-146 0 -301 -41l-36 115q189 55 395 55q200 0 300.5 -86t100.5 -268zM719 119v346q-64 0 -170 -8q-130 -8 -199 -52.5t-69 -140.5q0 -88 64.5 -132t174.5 -44q99 0 199 31z" />
<glyph unicode="&#x1fc;" horiz-adv-x="1761" d="M1065 1440h-170l176 223h238zM1669 1286v-127h-645v-428h569v-129h-569v-475h645v-127h-887v340h-428l-133 -340h-207l504 1286h1151zM678 1159l-272 -690h376v690h-104z" />
<glyph unicode="&#x1fd;" horiz-adv-x="1736" d="M926 1087h-168l176 224h237zM1616 416h-662q1 -153 71 -235.5t198 -82.5q85 0 159 16.5t179 51.5l38 -117q-207 -78 -380 -78q-176 0 -295 72q-200 -72 -389 -72q-235 0 -356.5 75.5t-121.5 223.5q0 133 120 205.5t360 89.5q86 6 182 6v74q0 92 -58.5 130t-171.5 38 q-146 0 -301 -41l-36 115q189 55 395 55q221 0 321 -106q121 106 328 106q227 0 348 -121t121 -350q0 -55 -49 -55zM954 530h484q0 138 -62 213.5t-176 75.5t-179.5 -76t-66.5 -213zM719 119v346q-64 0 -170 -8q-130 -8 -199 -52.5t-69 -140.5q0 -88 64.5 -132t174.5 -44 q99 0 199 31z" />
<glyph unicode="&#x1fe;" horiz-adv-x="1517" d="M842 1456h-170l176 223h237zM758 1315q266 0 432 -125l90 96h158l-164 -176q141 -176 141 -469q0 -323 -169.5 -496.5t-487.5 -173.5q-261 0 -426 121l-84 -92h-164l162 174q-146 169 -146 467q0 325 170.5 499.5t487.5 174.5zM369 641q0 -180 39 -293l649 699 q-93 139 -299 139q-197 0 -293 -133t-96 -412zM758 100q199 0 295 132.5t96 408.5q0 175 -37 293l-647 -701q93 -133 293 -133z" />
<glyph unicode="&#x1ff;" horiz-adv-x="1171" d="M682 1087h-168l176 224h238zM1079 455q0 -234 -126 -359t-367 -125q-207 0 -328 92l-63 -63h-125l123 123q-101 125 -101 332q0 237 126.5 362t367.5 125q206 0 332 -94l65 65h117l-123 -122q102 -123 102 -336zM324 455q0 -102 22 -179l445 445q-65 102 -205 102 q-262 0 -262 -368zM850 455q0 100 -23 184l-444 -449q67 -98 203 -98q264 0 264 363z" />
<glyph unicode="&#x218;" horiz-adv-x="1177" d="M621 784q271 -62 385 -152.5t114 -246.5q0 -191 -155 -302.5t-420 -111.5q-216 0 -443 103l35 112q206 -86 383 -86q165 0 262 63.5t97 170.5q0 79 -75.5 131t-254.5 90q-139 29 -233.5 68t-146 87.5t-72.5 101t-21 120.5q0 173 149 278t396 105q200 0 387 -94l-41 -115 q-177 82 -340 82q-147 0 -235.5 -56t-88.5 -147q0 -74 69 -117.5t249 -83.5zM592 -528h-152l47 389h244z" />
<glyph unicode="&#x219;" horiz-adv-x="952" d="M438 -29q-180 0 -348 60l31 116q141 -49 301 -49q112 0 178 38.5t66 111.5q0 52 -54 81.5t-198 63.5q-186 43 -262 103t-76 178q0 132 108 200t320 68q147 0 323 -63l-36 -113q-161 49 -267 49q-231 0 -231 -131q0 -46 60 -77t194 -60q188 -38 264 -97.5t76 -185.5 q0 -141 -116 -217t-333 -76zM473 -528h-151l47 389h243z" />
<glyph unicode="&#x21a;" horiz-adv-x="1169" d="M1130 1286v-127h-425v-1159h-242v1159h-424v127h1091zM567 -528h-151l47 389h244z" />
<glyph unicode="&#x21b;" horiz-adv-x="679" d="M629 113l-11 -127q-84 -15 -143 -15q-161 0 -239 72t-78 223v512h-113v135h113v263l229 47v-310h240v-135h-240v-522q0 -85 28 -117.5t103 -32.5q53 0 111 7zM377 -528h-152l47 389h244z" />
<glyph unicode="&#x232;" horiz-adv-x="1175" d="M307 1456v158h590v-158h-590zM1120 1286l-411 -694v-592h-240v580l-414 706h279l291 -541l293 541h202z" />
<glyph unicode="&#x233;" horiz-adv-x="983" d="M217 1139v147h590v-147h-590zM391 66l-356 847h262l225 -596l242 596h190l-579 -1341h-201z" />
<glyph unicode="&#x237;" horiz-adv-x="530" d="M389 913v-1073q0 -149 -76 -223t-237 -74q-78 0 -131 29l16 113q35 -9 84 -9q62 0 88.5 36.5t26.5 115.5v1085h229z" />
<glyph unicode="&#x259;" horiz-adv-x="1097" d="M119 498h663q-1 155 -72.5 236t-193.5 81q-91 0 -184 -19.5t-154 -47.5l-41 116q199 78 381 78q241 0 368.5 -125.5t127.5 -361.5q0 -224 -122 -354t-349 -130q-229 0 -350 121t-121 350q0 31 10.5 43.5t36.5 12.5zM782 381h-483q0 -134 61.5 -210.5t178.5 -76.5 q114 0 177 77.5t66 209.5z" />
<glyph unicode="&#x272;" d="M1016 0h-228v639q0 97 -49 136.5t-168 39.5q-91 0 -206 -43v-932q0 -146 -75 -221.5t-237 -75.5q-34 0 -72.5 8.5t-58.5 20.5l17 113q56 -9 84 -9q61 0 87.5 38t26.5 114v999q222 115 492 115q204 0 295.5 -82t91.5 -266v-594z" />
<glyph unicode="&#x2c6;" horiz-adv-x="794" d="M692 1087h-168l-133 127l-129 -127h-170l182 224h238z" />
<glyph unicode="&#x2c7;" horiz-adv-x="751" d="M676 1311l-182 -224h-240l-180 224h170l131 -125l131 125h170z" />
<glyph unicode="&#x2d8;" horiz-adv-x="892" d="M750 1331q-12 -116 -90 -184t-201 -68q-128 0 -206 66t-87 186h123q10 -64 57.5 -96.5t110.5 -32.5q67 0 114 32.5t58 96.5h121z" />
<glyph unicode="&#x2d9;" horiz-adv-x="641" d="M438 1296v-204h-229v204h229z" />
<glyph unicode="&#x2da;" horiz-adv-x="585" d="M520 1257q6 -18 6 -38q0 -142 -233 -142q-236 0 -236 142q0 141 236 141q203 0 227 -103zM377 1219q0 50 -19 70t-65 20q-50 0 -69 -19.5t-19 -70.5t19.5 -71t68.5 -20q46 0 65 20t19 71z" />
<glyph unicode="&#x2db;" horiz-adv-x="1003" d="M707 70l65 -35q-116 -98 -159.5 -157.5t-43.5 -121.5q0 -43 41 -72.5t101 -29.5h172v-86q-113 -25 -234 -25q-108 0 -174.5 52.5t-66.5 136.5q0 190 299 338z" />
<glyph unicode="&#x2dc;" horiz-adv-x="1075" d="M801 1282l57 -88q-44 -59 -89 -83t-110 -24q-70 0 -137 29q-75 33 -141 33q-41 0 -71 -14t-62 -48l-60 89q54 63 99.5 87.5t105.5 24.5q53 0 152 -37q66 -24 123 -24q44 0 73 12t60 43z" />
<glyph unicode="&#x2dd;" horiz-adv-x="1189" d="M352 1087h-168l162 224h236zM682 1087h-168l162 224h235z" />
<glyph unicode="&#x323;" horiz-adv-x="370" d="M307 -328h-225v189h225v-189z" />
<glyph unicode="&#x326;" horiz-adv-x="393" d="M203 -528h-152l47 389h244z" />
<glyph unicode="&#x374;" horiz-adv-x="485" d="M29 778l157 508h238l-244 -508h-151z" />
<glyph unicode="&#x375;" horiz-adv-x="485" d="M41 -166l158 508h237l-241 -508h-154z" />
<glyph unicode="&#x37e;" horiz-adv-x="528" d="M391 631h-235v188h235v-188zM260 -201h-147l49 389h235z" />
<glyph unicode="&#x384;" horiz-adv-x="477" d="M137 1087l74 322h209l-141 -322h-142z" />
<glyph unicode="&#x385;" horiz-adv-x="880" d="M319 1087l74 322h209l-141 -322h-142zM236 1286v-199h-173v199h173zM809 1286v-199h-172v199h172z" />
<glyph unicode="&#x386;" horiz-adv-x="1376" d="M244 897h-152l47 389h244zM1071 0l-117 340h-557l-121 -340h-167l458 1286h310l469 -1286h-275zM442 469h467l-229 668z" />
<glyph unicode="&#x387;" horiz-adv-x="405" d="M287 913v-223h-170v223h170z" />
<glyph unicode="&#x388;" horiz-adv-x="1406" d="M184 897h-151l47 389h244zM1317 1286v-127h-645v-428h569v-129h-569v-475h645v-127h-887v1286h887z" />
<glyph unicode="&#x389;" horiz-adv-x="1652" d="M184 897h-151l47 389h244zM1247 731v555h242v-1286h-242v604h-581v-604h-240v1286h240v-555h581z" />
<glyph unicode="&#x38a;" horiz-adv-x="819" d="M184 897h-151l47 389h244zM655 1286v-1286h-241v1286h241z" />
<glyph unicode="&#x38c;" horiz-adv-x="1708" d="M958 1315q318 0 488 -174t170 -500q0 -323 -170 -496.5t-488 -173.5q-316 0 -486.5 173.5t-170.5 496.5q0 325 170 499.5t487 174.5zM188 897h-151l47 389h244zM958 100q199 0 295.5 132.5t96.5 408.5q0 279 -96.5 412t-295.5 133q-197 0 -293 -133t-96 -412 q0 -276 96 -408.5t293 -132.5z" />
<glyph unicode="&#x38e;" horiz-adv-x="1579" d="M236 897h-152l47 389h244zM1522 1286l-412 -694v-592h-240v580l-413 706h278l291 -541l293 541h203z" />
<glyph unicode="&#x38f;" horiz-adv-x="1673" d="M301 0v154h348q-162 84 -254 227.5t-92 318.5q0 277 173.5 444t459.5 167t459.5 -167t173.5 -444q0 -172 -93 -316.5t-255 -229.5h346v-154h-531v184q125 72 196 208.5t71 307.5q0 228 -97.5 356t-269.5 128t-268.5 -127.5t-96.5 -356.5q0 -180 68 -315.5t190 -198.5 v-186h-528zM195 897h-152l47 389h244z" />
<glyph unicode="&#x390;" horiz-adv-x="557" d="M182 1087l74 322h209l-141 -322h-142zM98 1286v-199h-172v199h172zM672 1286v-199h-172v199h172zM371 913v-669q0 -48 25 -78.5t67 -30.5h33v-135h-99q-113 0 -184.5 61t-71.5 160v692h230z" />
<glyph unicode="&#x391;" horiz-adv-x="1302" d="M997 0l-116 340h-557l-121 -340h-168l459 1286h309l469 -1286h-275zM369 469h467l-230 668z" />
<glyph unicode="&#x392;" horiz-adv-x="1353" d="M901 713q179 -19 277 -103.5t98 -220.5q0 -198 -172.5 -293.5t-530.5 -95.5h-409v1286h493q244 0 377 -79t133 -224q0 -93 -70 -164t-196 -106zM641 1159h-235v-418q518 0 518 234q0 184 -283 184zM406 127h165q235 0 342 67.5t107 215.5q0 100 -94 159.5t-256 59.5 q-104 0 -264 -17v-485z" />
<glyph unicode="&#x393;" horiz-adv-x="1011" d="M406 0h-242v1286h807v-127h-565v-1159z" />
<glyph unicode="&#x394;" horiz-adv-x="1292" d="M963 127l-365 1010l-371 -1010h736zM59 0v127l426 1159h314l436 -1159v-127h-1176z" />
<glyph unicode="&#x395;" horiz-adv-x="1142" d="M1051 1286v-127h-645v-428h569v-129h-569v-475h645v-127h-887v1286h887z" />
<glyph unicode="&#x396;" horiz-adv-x="1179" d="M1116 1286v-158l-788 -1001h778v-127h-1063v152l813 1007h-739v127h999z" />
<glyph unicode="&#x397;" horiz-adv-x="1400" d="M995 731v555h244v-1286h-244v604h-589v-604h-242v1286h242v-555h589z" />
<glyph unicode="&#x398;" horiz-adv-x="1499" d="M750 1315q318 0 487.5 -174t169.5 -500q0 -323 -169.5 -496.5t-487.5 -173.5q-317 0 -487.5 174t-170.5 496q0 325 170.5 499.5t487.5 174.5zM750 100q199 0 295 132.5t96 408.5q0 279 -96 412t-295 133q-197 0 -293.5 -133.5t-96.5 -411.5q0 -276 96.5 -408.5 t293.5 -132.5zM510 563v150h479v-150h-479z" />
<glyph unicode="&#x399;" horiz-adv-x="569" d="M406 1286v-1286h-242v1286h242z" />
<glyph unicode="&#x39a;" horiz-adv-x="1277" d="M1300 0h-307l-544 627h-43v-627h-242v1286h242v-532h45l464 532h277l-537 -592z" />
<glyph unicode="&#x39b;" horiz-adv-x="1302" d="M997 0l-391 1137l-403 -1137h-168l459 1286h311l467 -1286h-275z" />
<glyph unicode="&#x39c;" horiz-adv-x="1687" d="M1157 1286h295l135 -1286h-250l-102 1092l-330 -1092h-209l-313 1085l-88 -1085h-191l129 1286h308l303 -1007z" />
<glyph unicode="&#x39d;" horiz-adv-x="1449" d="M1126 1286h160v-1286h-309l-655 1071v-1071h-158v1286h301l661 -1073v1073z" />
<glyph unicode="&#x39e;" horiz-adv-x="1181" d="M1071 1286v-199h-960v199h960zM201 563v199h782v-199h-782zM80 0v199h1020v-199h-1020z" />
<glyph unicode="&#x39f;" horiz-adv-x="1499" d="M750 1315q318 0 487.5 -174t169.5 -500q0 -323 -169.5 -496.5t-487.5 -173.5q-317 0 -487.5 174t-170.5 496q0 325 170.5 499.5t487.5 174.5zM750 100q199 0 295 132.5t96 408.5q0 279 -96 412t-295 133q-197 0 -293.5 -133.5t-96.5 -411.5q0 -276 96.5 -408.5 t293.5 -132.5z" />
<glyph unicode="&#x3a0;" horiz-adv-x="1394" d="M406 0h-242v1286h1069v-1286h-244v1159h-583v-1159z" />
<glyph unicode="&#x3a1;" horiz-adv-x="1288" d="M1229 934q0 -206 -179.5 -302.5t-566.5 -96.5h-77v-535h-242v1286h543q258 0 390 -89.5t132 -262.5zM981 938q0 107 -76.5 164t-222.5 57h-276v-500q310 0 442.5 64.5t132.5 214.5z" />
<glyph unicode="&#x3a3;" horiz-adv-x="1124" d="M78 0v197l383 442l-383 520v127h960v-127h-663l334 -457l-435 -505h789v-197h-985z" />
<glyph unicode="&#x3a4;" horiz-adv-x="1169" d="M1130 1286v-127h-425v-1159h-242v1159h-424v127h1091z" />
<glyph unicode="&#x3a5;" horiz-adv-x="1175" d="M1120 1286l-411 -694v-592h-240v580l-414 706h279l291 -541l293 541h202z" />
<glyph unicode="&#x3a6;" horiz-adv-x="1617" d="M930 1333v-135q295 -25 449.5 -168t154.5 -393q0 -249 -154.5 -391.5t-449.5 -167.5v-129h-242v129q-295 25 -449.5 167.5t-154.5 391.5q0 250 154.5 393t449.5 168v135h242zM350 637q0 -209 83.5 -324t254.5 -143v936q-171 -28 -254.5 -143.5t-83.5 -325.5zM1268 637 q0 209 -83.5 324t-254.5 143v-932q171 28 254.5 142t83.5 323z" />
<glyph unicode="&#x3a7;" horiz-adv-x="1214" d="M1221 0h-299l-342 514l-373 -514h-215l493 649l-426 637h285l291 -446l313 446h205l-424 -579z" />
<glyph unicode="&#x3a8;" horiz-adv-x="1546" d="M897 1286v-870q307 53 307 360v510h244v-491q0 -444 -551 -488v-307h-242v307q-557 44 -557 488v491h244v-510q0 -314 313 -360v870h242z" />
<glyph unicode="&#x3a9;" horiz-adv-x="1476" d="M104 0v154h349q-162 84 -254.5 227.5t-92.5 318.5q0 277 173.5 444t459.5 167t459.5 -167t173.5 -444q0 -172 -93 -316.5t-255 -229.5h346v-154h-530v184q125 72 195.5 208.5t70.5 307.5q0 228 -97.5 356t-269.5 128t-268 -127.5t-96 -356.5q0 -180 68 -315.5t190 -198.5 v-186h-529z" />
<glyph unicode="&#x3aa;" horiz-adv-x="569" d="M201 1665v-209h-193v209h193zM561 1665v-209h-194v209h194zM406 1286v-1286h-242v1286h242z" />
<glyph unicode="&#x3ab;" horiz-adv-x="1175" d="M545 1665v-209h-193v209h193zM905 1665v-209h-194v209h194zM1120 1286l-411 -694v-592h-240v580l-414 706h279l291 -541l293 541h202z" />
<glyph unicode="&#x3ac;" horiz-adv-x="1218" d="M502 1087l73 322h209l-141 -322h-141zM1042 913v-675q0 -48 24.5 -79.5t66.5 -31.5h34v-127h-98q-72 0 -130.5 23.5t-90.5 66.5q-116 -119 -293 -119q-209 0 -341 136.5t-132 351.5q0 214 124 348.5t322 134.5q76 0 151 -28t134 -78v77h229zM831 459q0 175 -68 269.5 t-194 94.5q-123 0 -189.5 -94.5t-66.5 -269.5q0 -177 66.5 -273t189.5 -96q126 0 194 96t68 273z" />
<glyph unicode="&#x3ad;" horiz-adv-x="960" d="M428 1087l74 322h209l-142 -322h-141zM356 489q-101 28 -168 82.5t-67 143.5q0 61 32 106t91 71t133 38t166 12q186 0 336 -78l-41 -116q-127 67 -277 67q-96 0 -151.5 -29.5t-55.5 -87.5q0 -73 89.5 -113t220.5 -40h106v-127h-104q-105 0 -182 -15.5t-125 -51.5t-48 -91 q0 -77 63 -118.5t171 -41.5q146 0 329 88l41 -120q-202 -97 -389 -97q-130 0 -228.5 29t-159 93.5t-60.5 158.5q0 95 73.5 157.5t204.5 79.5z" />
<glyph unicode="&#x3ae;" d="M520 1087l74 322h209l-141 -322h-142zM1016 -332h-228v971q0 92 -54.5 134t-164.5 42q-90 0 -204 -43v-772h-230v809q263 133 492 133q203 0 296 -82t93 -266v-926z" />
<glyph unicode="&#x3af;" horiz-adv-x="557" d="M197 1087l73 322h209l-141 -322h-141zM371 913v-669q0 -48 25 -78.5t67 -30.5h33v-135h-99q-113 0 -184.5 61t-71.5 160v692h230z" />
<glyph unicode="&#x3b0;" horiz-adv-x="1087" d="M416 1087l73 322h209l-141 -322h-141zM332 1286v-199h-172v199h172zM905 1286v-199h-172v199h172zM133 913h223v-559q0 -134 49 -195t156 -61q223 0 223 396q0 237 -90 419h209q90 -194 90 -424q0 -262 -106.5 -390t-323.5 -128q-218 0 -324 85t-106 259v598z" />
<glyph unicode="&#x3b1;" horiz-adv-x="1218" d="M1042 913v-675q0 -48 24.5 -79.5t66.5 -31.5h34v-127h-98q-72 0 -130.5 23.5t-90.5 66.5q-116 -119 -293 -119q-209 0 -341 136.5t-132 351.5q0 214 124 348.5t322 134.5q76 0 151 -28t134 -78v77h229zM831 459q0 175 -68 269.5t-194 94.5q-123 0 -189.5 -94.5 t-66.5 -269.5q0 -177 66.5 -273t189.5 -96q126 0 194 96t68 273z" />
<glyph unicode="&#x3b2;" horiz-adv-x="1181" d="M778 713q146 -9 235 -99.5t89 -242.5q0 -188 -109.5 -294t-292.5 -106q-103 0 -189 36.5t-138 103.5v-443h-232v1202q0 206 122.5 323.5t326.5 117.5q192 0 309 -79.5t117 -236.5q0 -112 -64.5 -184t-173.5 -98zM373 965v-684q121 -183 289 -183q102 0 155 77t53 206 q0 111 -54 178.5t-157 67.5q-27 0 -151 -9v119q130 12 203 84.5t73 184.5q0 88 -54.5 137t-149.5 49q-98 0 -152.5 -61.5t-54.5 -165.5z" />
<glyph unicode="&#x3b3;" horiz-adv-x="1001" d="M360 53l-323 860h242l247 -704q207 304 207 637q0 44 -2 67h187q6 -55 6 -110q0 -200 -82.5 -393.5t-251.5 -401.5v-340h-230v385z" />
<glyph unicode="&#x3b4;" d="M1069 406q0 -198 -134 -316.5t-360 -118.5q-227 0 -360 118t-133 317q0 193 112.5 312t303.5 128q-92 0 -161 66t-69 157q0 114 97.5 178t250.5 64q180 0 326 -70v-147q-144 69 -307 69q-66 0 -108 -31.5t-42 -84.5q0 -52 42.5 -85.5t146.5 -72.5q395 -151 395 -483z M313 406q0 -149 69 -232.5t193 -83.5q123 0 193 83.5t70 232.5q0 152 -70 236.5t-193 84.5q-124 0 -193 -84.5t-69 -236.5z" />
<glyph unicode="&#x3b5;" horiz-adv-x="960" d="M356 489q-101 28 -168 82.5t-67 143.5q0 61 32 106t91 71t133 38t166 12q186 0 336 -78l-41 -116q-127 67 -277 67q-96 0 -151.5 -29.5t-55.5 -87.5q0 -73 89.5 -113t220.5 -40h106v-127h-104q-105 0 -182 -15.5t-125 -51.5t-48 -91q0 -77 63 -118.5t171 -41.5 q146 0 329 88l41 -120q-202 -97 -389 -97q-130 0 -228.5 29t-159 93.5t-60.5 158.5q0 95 73.5 157.5t204.5 79.5z" />
<glyph unicode="&#x3b6;" horiz-adv-x="851" d="M801 1286v-158q-259 -184 -374.5 -339.5t-115.5 -333.5q0 -89 40 -157t116 -101q114 -50 176 -82t107.5 -68t61 -72t15.5 -88q0 -115 -86 -221h-133q43 84 43 184q0 68 -50.5 103.5t-213.5 91.5q-145 51 -225 152.5t-80 248.5q0 88 24.5 165.5t66 142t112 131t147 122.5 t186.5 126h-468v153h651z" />
<glyph unicode="&#x3b7;" d="M1016 -332h-228v971q0 92 -54.5 134t-164.5 42q-90 0 -204 -43v-772h-230v809q263 133 492 133q203 0 296 -82t93 -266v-926z" />
<glyph unicode="&#x3b8;" horiz-adv-x="1183" d="M1087 639q0 -332 -125 -500t-372 -168q-246 0 -370 168t-124 500q0 672 494 672q497 0 497 -672zM590 1192q-125 0 -186 -115.5t-68 -367.5h512q-7 251 -69.5 367t-188.5 116zM590 90q126 0 188 114t68 361h-508q6 -246 67 -360.5t185 -114.5z" />
<glyph unicode="&#x3b9;" horiz-adv-x="557" d="M371 913v-669q0 -48 25 -78.5t67 -30.5h33v-135h-99q-113 0 -184.5 61t-71.5 160v692h230z" />
<glyph unicode="&#x3ba;" horiz-adv-x="1081" d="M606 483l477 -483h-290l-367 422h-55v-422h-228v913h228v-362h51l207 244q63 78 153.5 107.5t225.5 29.5v-129q-113 0 -193 -86z" />
<glyph unicode="&#x3bb;" horiz-adv-x="1062" d="M780 0l-266 596l-272 -596h-211l379 831l-99 220q-57 125 -211 125v135q183 0 291.5 -57.5t165.5 -186.5l475 -1067h-252z" />
<glyph unicode="&#x3bc;" horiz-adv-x="1161" d="M143 -369v1282h230v-632q0 -98 50 -140.5t167 -42.5q101 0 205 37v778h229v-819q-115 -65 -229.5 -94t-259.5 -29q-95 0 -162 17v-357h-230z" />
<glyph unicode="&#x3bd;" horiz-adv-x="999" d="M719 913h178q16 -65 16 -149q0 -362 -309 -764h-217l-352 913h244l264 -706q186 281 186 584q0 71 -10 122z" />
<glyph unicode="&#x3be;" horiz-adv-x="851" d="M391 680q-121 25 -194.5 86t-73.5 162q0 85 68.5 140.5t183.5 80.5h-279v137h682v-137h-92q-150 0 -241 -60t-91 -163q0 -79 64.5 -128.5t179.5 -49.5h117v-127h-123q-126 0 -204.5 -60.5t-78.5 -165.5q0 -153 211 -217q281 -86 281 -297q0 -126 -72 -213h-127 q31 88 31 174q0 44 -18 78t-56.5 59.5t-71.5 41t-90 36.5q-51 18 -83 31.5t-73.5 34t-67 43t-49.5 51.5t-35 67t-11 83q0 130 88 213.5t225 99.5z" />
<glyph unicode="&#x3bf;" horiz-adv-x="1155" d="M1071 455q0 -234 -126 -359t-367 -125t-367.5 125t-126.5 359q0 237 126.5 362t367.5 125t367 -125t126 -362zM842 455q0 368 -264 368q-263 0 -263 -368q0 -363 263 -363q264 0 264 363z" />
<glyph unicode="&#x3c0;" horiz-adv-x="1232" d="M47 778v135h1120v-135h-161v-540q0 -50 25 -80.5t67 -30.5h32v-127h-100q-115 0 -184.5 60t-69.5 161v557h-342v-778h-227v778h-160z" />
<glyph unicode="&#x3c1;" horiz-adv-x="1171" d="M1087 455q0 -230 -117 -357t-331 -127q-170 0 -287 99v-402h-231v787q0 233 125.5 360t357.5 127t357.5 -127t125.5 -360zM856 455q0 368 -252 368t-252 -368q0 -180 66.5 -271.5t197.5 -91.5q240 0 240 363z" />
<glyph unicode="&#x3c2;" horiz-adv-x="925" d="M725 -332h-141q71 117 71 205q0 31 -23.5 60t-71 57.5t-86.5 47.5t-103 46q-136 58 -213.5 164t-77.5 244q0 203 132.5 326.5t350.5 123.5q181 0 330 -84l-41 -113q-153 70 -277 70q-120 0 -194 -87t-74 -228q0 -105 54 -171t153 -114q56 -27 96.5 -49t86.5 -54t74.5 -63 t47.5 -71.5t19 -83.5q0 -54 -30 -113.5t-83 -112.5z" />
<glyph unicode="&#x3c3;" horiz-adv-x="1222" d="M1073 449q0 -233 -126 -355.5t-367 -122.5q-243 0 -369.5 122.5t-126.5 355.5q0 227 126.5 345.5t369.5 118.5h614v-127h-281q160 -111 160 -337zM842 449q0 175 -64.5 260.5t-197.5 85.5t-198 -85.5t-65 -260.5q0 -183 64.5 -270t198.5 -87t198 87t64 270z" />
<glyph unicode="&#x3c4;" horiz-adv-x="874" d="M37 778v135h792v-135h-288v-540q0 -50 25.5 -80.5t66.5 -30.5h63v-127h-129q-114 0 -185 61t-71 160v557h-274z" />
<glyph unicode="&#x3c5;" horiz-adv-x="1087" d="M133 913h223v-559q0 -134 49 -195t156 -61q223 0 223 396q0 237 -90 419h209q90 -194 90 -424q0 -262 -106.5 -390t-323.5 -128q-218 0 -324 85t-106 259v598z" />
<glyph unicode="&#x3c6;" horiz-adv-x="1456" d="M846 1153v-217q254 -23 391 -146.5t137 -330.5q0 -210 -137 -334.5t-391 -147.5v-309h-236v309q-255 23 -391.5 147.5t-136.5 334.5q0 207 136.5 330.5t391.5 146.5v217h236zM313 459q0 -323 297 -375v745q-297 -49 -297 -370zM1143 459q0 317 -297 370v-743 q297 50 297 373z" />
<glyph unicode="&#x3c7;" horiz-adv-x="1005" d="M258 -332h-219l352 602l-221 439q-50 96 -143 96h-19v127h58q242 0 342 -199l116 -231l234 411h223l-363 -600l213 -424q53 -108 121 -108h25v-127h-72q-202 0 -282 158l-136 270z" />
<glyph unicode="&#x3c8;" horiz-adv-x="1458" d="M131 913h236v-497q0 -282 256 -328v1077h237v-1073q279 58 279 402q0 235 -90 419h225q90 -200 90 -424q0 -465 -504 -514v-307h-237v305q-492 35 -492 404v536z" />
<glyph unicode="&#x3c9;" horiz-adv-x="1492" d="M633 354v283h229v-283q0 -256 150 -256q79 0 120.5 86t41.5 254q0 267 -125 475h229q125 -220 125 -483q0 -220 -102 -339.5t-287 -119.5q-208 0 -269 195q-58 -195 -266 -195q-185 0 -287 119.5t-102 339.5q0 256 125 483h229q-60 -101 -92.5 -226t-32.5 -253 q0 -166 41 -251t121 -85q152 0 152 256z" />
<glyph unicode="&#x3ca;" horiz-adv-x="557" d="M182 1286v-199h-178v199h178zM508 1286v-199h-178v199h178zM371 913v-669q0 -48 25 -78.5t67 -30.5h33v-135h-99q-113 0 -184.5 61t-71.5 160v692h230z" />
<glyph unicode="&#x3cb;" horiz-adv-x="1087" d="M455 1286v-199h-179v199h179zM780 1286v-199h-178v199h178zM133 913h223v-559q0 -134 49 -195t156 -61q223 0 223 396q0 237 -90 419h209q90 -194 90 -424q0 -262 -106.5 -390t-323.5 -128q-218 0 -324 85t-106 259v598z" />
<glyph unicode="&#x3cc;" horiz-adv-x="1155" d="M512 1087l74 322h209l-142 -322h-141zM1071 455q0 -234 -126 -359t-367 -125t-367.5 125t-126.5 359q0 237 126.5 362t367.5 125t367 -125t126 -362zM842 455q0 368 -264 368q-263 0 -263 -368q0 -363 263 -363q264 0 264 363z" />
<glyph unicode="&#x3cd;" horiz-adv-x="1087" d="M455 1087l73 322h209l-141 -322h-141zM133 913h223v-559q0 -134 49 -195t156 -61q223 0 223 396q0 237 -90 419h209q90 -194 90 -424q0 -262 -106.5 -390t-323.5 -128q-218 0 -324 85t-106 259v598z" />
<glyph unicode="&#x3ce;" horiz-adv-x="1492" d="M688 1087l74 322h209l-142 -322h-141zM633 354v283h229v-283q0 -256 150 -256q79 0 120.5 86t41.5 254q0 267 -125 475h229q125 -220 125 -483q0 -220 -102 -339.5t-287 -119.5q-208 0 -269 195q-58 -195 -266 -195q-185 0 -287 119.5t-102 339.5q0 256 125 483h229 q-60 -101 -92.5 -226t-32.5 -253q0 -166 41 -251t121 -85q152 0 152 256z" />
<glyph unicode="&#x3cf;" horiz-adv-x="1277" d="M1300 0l-303 -332h-178l174 332l-544 627h-43v-627h-242v1286h242v-532h45l464 532h277l-537 -592z" />
<glyph unicode="&#x3d7;" horiz-adv-x="1142" d="M98 924q68 18 150 18q56 0 96 -18.5t65.5 -52t40 -89.5t20 -122t5.5 -158v-8l195 129q67 237 299 321l108 -104q-60 -170 -219 -289q-8 -52 -8 -121q0 -150 50 -219.5t159 -77.5q0 -465 -365 -465q-50 0 -127 25v157q55 -18 119 -18q76 0 128 43.5t52 130.5 q-54 5 -94.5 34t-63.5 70t-37 100.5t-18.5 113.5t-5.5 122l-186 -122q-22 -115 -76 -198t-149 -146l-140 81q28 194 172 326q6 61 6 115q0 137 -39.5 199.5t-134.5 62.5q-22 0 -34 -2z" />
<glyph unicode="&#x401;" horiz-adv-x="1142" d="M522 1665v-209h-192v209h192zM883 1665v-209h-195v209h195zM1051 1286v-127h-645v-428h569v-129h-569v-475h645v-127h-887v1286h887z" />
<glyph unicode="&#x402;" horiz-adv-x="1452" d="M872 0v123q127 0 197 78.5t70 212.5q0 129 -70 205.5t-188 76.5q-108 0 -199 -43v-653h-244v1159h-399v127h1034v-127h-391v-373q143 35 256 35q202 0 321 -109.5t119 -295.5q0 -192 -137 -304t-369 -112z" />
<glyph unicode="&#x403;" horiz-adv-x="1069" d="M651 1456h-170l176 223h238zM164 0v1286h862v-127h-620v-1159h-242z" />
<glyph unicode="&#x404;" horiz-adv-x="1216" d="M1128 178l35 -131q-219 -76 -430 -76q-304 0 -472.5 177t-168.5 497q0 318 168.5 494t472.5 176q217 0 430 -78l-35 -129q-182 72 -358 72q-192 0 -299 -121.5t-119 -353.5h590v-134h-590q15 -226 121 -343t295 -117q177 0 360 67z" />
<glyph unicode="&#x405;" horiz-adv-x="1177" d="M621 782q272 -62 385.5 -151.5t113.5 -245.5q0 -191 -155 -302.5t-420 -111.5q-216 0 -443 103l35 112q206 -86 383 -86q176 0 267.5 62t91.5 172q0 77 -75 128t-255 93q-139 33 -232.5 72t-146 86t-73.5 98.5t-21 118.5q0 174 149 279.5t396 105.5q198 0 387 -94 l-41 -115q-190 82 -340 82q-147 0 -235.5 -57t-88.5 -150q0 -73 69 -116t249 -83z" />
<glyph unicode="&#x406;" horiz-adv-x="569" d="M406 1286v-1286h-242v1286h242z" />
<glyph unicode="&#x407;" horiz-adv-x="569" d="M201 1665v-209h-193v209h193zM561 1665v-209h-194v209h194zM406 1286v-1286h-242v1286h242z" />
<glyph unicode="&#x408;" horiz-adv-x="591" d="M188 1286h240v-1333q0 -159 -112 -245.5t-318 -88.5q-36 0 -90 14l14 123q33 -8 72 -8q102 0 148 40t46 132v1366z" />
<glyph unicode="&#x409;" horiz-adv-x="1953" d="M518 1159l-35 -758q-9 -194 -128.5 -297.5t-327.5 -103.5v127q104 31 156.5 94t58.5 180l39 885h868v-479h197q238 -1 392 -116t154 -290q0 -209 -150.5 -305t-477.5 -96h-359v1159h-387zM1335 678h-186v-551h168q165 0 242 70t77 221q0 114 -85 187t-216 73z" />
<glyph unicode="&#x40a;" horiz-adv-x="2007" d="M1204 1286v-555h199q237 -2 392 -106t155 -265q0 -183 -154 -271.5t-475 -88.5h-358v604h-560v-604h-239v1286h239v-555h560v555h241zM1204 129h170q163 0 240.5 59t77.5 183q0 101 -84 166t-215 65h-189v-473z" />
<glyph unicode="&#x40b;" horiz-adv-x="1484" d="M1380 0h-237v520q0 95 -60.5 135.5t-197.5 40.5q-93 0 -201 -43v-653h-244v1159h-401v127h1046v-127h-401v-368q123 30 258 30q237 0 337.5 -79t100.5 -269v-473z" />
<glyph unicode="&#x40c;" horiz-adv-x="1277" d="M721 1456h-170l176 223h238zM1300 0h-307l-544 627h-43v-627h-242v1286h242v-532h45l464 532h277l-537 -592z" />
<glyph unicode="&#x40e;" horiz-adv-x="1077" d="M899 1702q-13 -117 -87 -186.5t-204 -69.5q-133 0 -208.5 68.5t-84.5 187.5h123q10 -62 55.5 -97.5t112.5 -35.5q68 0 114 34.5t58 98.5h121zM702 346q-70 -181 -211.5 -272.5t-328.5 -91.5v139q180 0 293 119l-435 1046h273l311 -749l299 749h172z" />
<glyph unicode="&#x40f;" horiz-adv-x="1390" d="M573 -262v262h-409v1286h242v-1159h579v1159h242v-1286h-412v-262h-242z" />
<glyph unicode="&#x410;" horiz-adv-x="1302" d="M997 0l-116 340h-557l-121 -340h-168l459 1286h309l469 -1286h-275zM369 469h467l-230 668z" />
<glyph unicode="&#x411;" horiz-adv-x="1243" d="M1034 1286v-127h-628v-352h231q246 -2 396.5 -113.5t150.5 -292.5q0 -204 -154.5 -302.5t-474.5 -98.5h-391v1286h870zM406 129h202q318 0 318 289q0 117 -82.5 188.5t-216.5 71.5h-221v-549z" />
<glyph unicode="&#x412;" horiz-adv-x="1353" d="M901 713q172 -19 273.5 -107.5t101.5 -216.5q0 -389 -703 -389h-409v1286h493q258 0 384 -74.5t126 -228.5q0 -95 -68 -164t-198 -106zM641 1159h-235v-418q254 0 386 60t132 174q0 91 -71.5 137.5t-211.5 46.5zM406 127h165q233 0 341 68.5t108 214.5q0 100 -94.5 159.5 t-255.5 59.5q-97 0 -264 -17v-485z" />
<glyph unicode="&#x413;" horiz-adv-x="1069" d="M164 0v1286h862v-127h-620v-1159h-242z" />
<glyph unicode="&#x414;" horiz-adv-x="1347" d="M27 -262v389q100 29 154.5 90.5t60.5 183.5l41 885h856v-1159h141v-389h-244v262h-766v-262h-243zM520 1159l-35 -758q-9 -173 -102 -274h514v1032h-377z" />
<glyph unicode="&#x415;" horiz-adv-x="1142" d="M1051 1286v-127h-645v-428h569v-129h-569v-475h645v-127h-887v1286h887z" />
<glyph unicode="&#x416;" horiz-adv-x="1921" d="M-25 0l613 694l-502 592h274l435 -532h45v532h239v-532h47l433 532h276l-504 -592l613 -694h-306l-514 627h-45v-627h-239v627h-45l-512 -627h-308z" />
<glyph unicode="&#x417;" horiz-adv-x="1142" d="M688 690q375 -54 375 -336q0 -71 -24.5 -130.5t-67.5 -100t-97.5 -71t-118 -48t-124 -25.5t-121.5 -8q-226 0 -459 121l39 119q228 -113 397 -113q160 0 243 71.5t83 195.5q0 118 -119.5 182.5t-318.5 64.5h-127v127h127q186 0 285.5 71t99.5 179q0 93 -79 145t-218 52 q-156 0 -322 -86l-41 114q198 101 389 101q227 0 363.5 -86t136.5 -236q0 -113 -79.5 -189.5t-221.5 -113.5z" />
<glyph unicode="&#x418;" horiz-adv-x="1449" d="M322 1286v-1073l661 1073h303v-1286h-160v1071l-655 -1071h-307v1286h158z" />
<glyph unicode="&#x419;" horiz-adv-x="1449" d="M1018 1702q-13 -117 -87 -186.5t-204 -69.5q-133 0 -208.5 68.5t-84.5 187.5h123q10 -62 55.5 -97.5t112.5 -35.5q68 0 114 34.5t58 98.5h121zM322 1286v-1073l661 1073h303v-1286h-160v1071l-655 -1071h-307v1286h158z" />
<glyph unicode="&#x41a;" horiz-adv-x="1277" d="M1300 0h-307l-544 627h-43v-627h-242v1286h242v-532h45l464 532h277l-537 -592z" />
<glyph unicode="&#x41b;" horiz-adv-x="1318" d="M528 1159l-45 -758q-12 -194 -129.5 -297.5t-326.5 -103.5v127q108 33 158.5 96.5t54.5 177.5l51 885h864v-1286h-242v1159h-385z" />
<glyph unicode="&#x41c;" horiz-adv-x="1687" d="M1157 1286h295l135 -1286h-250l-102 1092l-330 -1092h-209l-313 1085l-88 -1085h-191l129 1286h308l303 -1007z" />
<glyph unicode="&#x41d;" horiz-adv-x="1390" d="M985 731v555h242v-1286h-242v604h-582v-604h-239v1286h239v-555h582z" />
<glyph unicode="&#x41e;" horiz-adv-x="1499" d="M750 1315q315 0 486 -175.5t171 -498.5q0 -320 -171 -495t-486 -175q-314 0 -486 175.5t-172 494.5q0 322 172 498t486 176zM750 100q391 0 391 541q0 276 -97.5 410.5t-293.5 134.5t-293 -134.5t-97 -410.5q0 -541 390 -541z" />
<glyph unicode="&#x41f;" horiz-adv-x="1390" d="M406 0h-242v1286h1063v-1286h-242v1159h-579v-1159z" />
<glyph unicode="&#x420;" horiz-adv-x="1288" d="M1229 934q0 -206 -179.5 -302.5t-566.5 -96.5h-77v-535h-242v1286h543q522 0 522 -352zM981 938q0 107 -76.5 164t-222.5 57h-276v-500q308 0 441.5 62.5t133.5 216.5z" />
<glyph unicode="&#x421;" horiz-adv-x="1216" d="M1128 180l37 -133q-228 -76 -432 -76q-309 0 -475 174.5t-166 499.5q0 324 166 497t475 173q204 0 432 -78l-37 -129q-195 72 -358 72q-207 0 -313.5 -135.5t-106.5 -399.5q0 -265 105.5 -399.5t312.5 -134.5q181 0 360 69z" />
<glyph unicode="&#x422;" horiz-adv-x="1169" d="M1130 1286v-127h-425v-1159h-242v1159h-424v127h1091z" />
<glyph unicode="&#x423;" horiz-adv-x="1077" d="M702 346q-69 -178 -206.5 -271t-333.5 -93v139q182 0 293 117l-435 1048h273l311 -749l299 749h172z" />
<glyph unicode="&#x424;" horiz-adv-x="1556" d="M901 1286v-123q276 -25 422.5 -160t146.5 -366q0 -220 -146.5 -348.5t-422.5 -153.5v-135h-244v135q-277 23 -425 152t-148 350q0 231 148 367t425 161v121h244zM352 637q0 -320 305 -369v764q-305 -52 -305 -395zM1202 637q0 340 -301 395v-762q301 49 301 367z" />
<glyph unicode="&#x425;" horiz-adv-x="1214" d="M1221 0h-299l-342 514l-373 -514h-215l493 649l-422 637h281l291 -446l313 446h203l-422 -579z" />
<glyph unicode="&#x426;" horiz-adv-x="1445" d="M1151 -262v262h-987v1286h242v-1159h579v1159h242v-1159h166v-389h-242z" />
<glyph unicode="&#x427;" horiz-adv-x="1245" d="M109 1286h241v-557q0 -93 64 -133.5t200 -40.5q110 0 228 43v688h241v-1286h-241v459q-140 -35 -285 -35q-239 0 -343.5 80t-104.5 268v514z" />
<glyph unicode="&#x428;" horiz-adv-x="1824" d="M406 1286v-1159h387v1159h239v-1159h387v1159h242v-1286h-1497v1286h242z" />
<glyph unicode="&#x429;" horiz-adv-x="1880" d="M406 1286v-1159h387v1159h239v-1159h387v1159h242v-1159h168v-389h-244v262h-1421v1286h242z" />
<glyph unicode="&#x42a;" horiz-adv-x="1337" d="M522 1286v-479h230q149 -1 269 -54t187.5 -145.5t67.5 -206.5q0 -207 -146 -304t-458 -97h-391v1159h-248v127h489zM522 129h203q152 0 223.5 70t71.5 219q0 114 -78.5 187t-200.5 73h-219v-549z" />
<glyph unicode="&#x42b;" horiz-adv-x="1738" d="M406 1286v-479h231q235 -1 389 -117t154 -289q0 -209 -149.5 -305t-475.5 -96h-391v1286h242zM1575 1286v-1286h-242v1286h242zM406 129h202q166 0 242 69t76 220q0 114 -85 187t-214 73h-221v-549z" />
<glyph unicode="&#x42c;" horiz-adv-x="1239" d="M406 1286v-479h231q233 -2 388 -117.5t155 -288.5q0 -207 -151 -304t-474 -97h-391v1286h242zM406 127h202q161 0 238.5 71t77.5 220q0 113 -84 186.5t-213 73.5h-221v-551z" />
<glyph unicode="&#x42d;" horiz-adv-x="1216" d="M88 178q178 -67 361 -67q190 0 295 116.5t120 343.5h-590v134h590q-11 233 -117 354t-301 121q-173 0 -358 -72l-35 129q216 78 432 78q306 0 472.5 -174.5t166.5 -495.5q0 -324 -166.5 -499t-474.5 -175q-217 0 -430 76z" />
<glyph unicode="&#x42e;" horiz-adv-x="2060" d="M1311 1315q318 0 487.5 -174t169.5 -500q0 -323 -169.5 -496.5t-487.5 -173.5q-308 0 -478 163.5t-180 469.5h-250v-604h-239v1286h239v-555h254q23 283 192 433.5t462 150.5zM1311 100q199 0 295 132.5t96 408.5q0 279 -96 412t-295 133q-197 0 -293 -133t-96 -412 q0 -276 96 -408.5t293 -132.5z" />
<glyph unicode="&#x42f;" horiz-adv-x="1323" d="M102 956q0 330 525 330h534v-1286h-243v557q-150 0 -279 14l-311 -571h-285l358 614q-299 89 -299 342zM350 963q0 -137 135.5 -208t401.5 -71h31v475h-269q-147 0 -223 -49.5t-76 -146.5z" />
<glyph unicode="&#x430;" horiz-adv-x="1071" d="M948 588v-535q-211 -82 -413 -82q-235 0 -356.5 76.5t-121.5 222.5q0 260 480 295q86 6 182 6v74q0 89 -54.5 128.5t-175.5 39.5q-146 0 -301 -41l-36 115q189 55 395 55q203 0 302 -87t99 -267zM719 119v346q-64 0 -170 -8q-138 -9 -203 -55.5t-65 -137.5 q0 -176 239 -176q95 0 199 31z" />
<glyph unicode="&#x431;" horiz-adv-x="1175" d="M1092 471q0 -227 -132 -363.5t-350 -136.5q-232 0 -373 163.5t-141 436.5q0 349 154.5 557.5t427.5 208.5q185 0 303 49v-135q-89 -28 -150.5 -39.5t-152.5 -11.5q-250 0 -313 -346q131 88 274 88q211 0 332 -125.5t121 -345.5zM344 580q0 -229 69.5 -355.5t196.5 -126.5 q117 0 182.5 100t65.5 281q0 154 -63.5 240t-178.5 86q-162 0 -268 -100q-4 -82 -4 -125z" />
<glyph unicode="&#x432;" horiz-adv-x="1077" d="M721 510q136 -9 209.5 -67.5t73.5 -157.5q0 -147 -144.5 -216t-451.5 -69h-265v913h398q389 0 389 -206q0 -147 -209 -197zM520 786h-147v-247q319 0 319 149q0 98 -172 98zM373 127h65q168 0 248 40.5t80 125.5q0 62 -52 95.5t-147 33.5q-75 0 -194 -14v-281z" />
<glyph unicode="&#x433;" horiz-adv-x="765" d="M758 918l-56 -144q-81 35 -178 35q-80 0 -155 -37v-772h-228v834q203 108 426 108q105 0 191 -24z" />
<glyph unicode="&#x434;" horiz-adv-x="1181" d="M33 -238v365q83 25 128.5 87.5t55.5 186.5l37 512h737v-786h142v-365h-232v238h-631v-238h-237zM475 786l-29 -385q-12 -173 -96 -274h408v659h-283z" />
<glyph unicode="&#x435;" horiz-adv-x="1097" d="M977 416h-662q1 -149 72.5 -233.5t196.5 -84.5q158 0 338 68l39 -117q-196 -78 -381 -78q-233 0 -364.5 128.5t-131.5 357.5t125 357t348 128q224 0 346.5 -123.5t122.5 -347.5q0 -55 -49 -55zM315 530h484q0 137 -63 213t-175 76q-113 0 -179 -76.5t-67 -212.5z" />
<glyph unicode="&#x436;" horiz-adv-x="1583" d="M426 496l-373 417h262l312 -362h51v362h227v-362h51l312 362h264l-375 -417l426 -496h-297l-330 422h-51v-422h-227v422h-51l-328 -422h-297z" />
<glyph unicode="&#x437;" horiz-adv-x="921" d="M580 494q124 -17 194 -81t70 -161q0 -135 -113 -208t-323 -73q-179 0 -365 97l41 120q166 -88 305 -88q106 0 163.5 41.5t57.5 118.5q0 160 -315 160h-107v129h109q132 0 202 41t70 117q0 51 -52.5 79.5t-143.5 28.5q-123 0 -250 -67l-43 116q159 78 313 78 q193 0 300.5 -58.5t107.5 -166.5q0 -78 -60.5 -137t-160.5 -86z" />
<glyph unicode="&#x438;" horiz-adv-x="1159" d="M301 913v-714l424 714h293v-913h-162v713l-424 -713h-289v913h158z" />
<glyph unicode="&#x439;" horiz-adv-x="1159" d="M889 1331q-12 -116 -90 -184t-201 -68q-128 0 -206 66t-87 186h123q10 -64 57.5 -96.5t110.5 -32.5q67 0 114 32.5t58 96.5h121zM301 913v-714l424 714h293v-913h-162v713l-424 -713h-289v913h158z" />
<glyph unicode="&#x43a;" horiz-adv-x="1044" d="M623 496l426 -496h-297l-330 422h-51v-422h-228v913h228v-362h51l311 362h264z" />
<glyph unicode="&#x43b;" horiz-adv-x="1128" d="M489 786l-38 -385q-40 -401 -412 -401v127q81 24 124.5 88t55.5 186l47 512h719v-913h-231v786h-265z" />
<glyph unicode="&#x43c;" horiz-adv-x="1425" d="M850 913h354l139 -913h-229l-121 776l-143 -776h-320l-163 764l-107 -764h-176l129 913h352l154 -729z" />
<glyph unicode="&#x43d;" horiz-adv-x="1142" d="M770 547v366h229v-913h-229v420h-397v-420h-230v913h230v-366h397z" />
<glyph unicode="&#x43e;" horiz-adv-x="1155" d="M1071 455q0 -235 -126 -359.5t-367 -124.5q-239 0 -366.5 124.5t-127.5 359.5q0 236 127.5 361.5t366.5 125.5q241 0 367 -125t126 -362zM842 455q0 368 -264 368q-263 0 -263 -368q0 -363 263 -363q264 0 264 363z" />
<glyph unicode="&#x43f;" horiz-adv-x="1140" d="M768 0v786h-395v-786h-230v913h856v-913h-231z" />
<glyph unicode="&#x440;" d="M1063 455q0 -484 -447 -484q-116 0 -249 41v-440h-230v1278q194 92 436 92q246 0 368 -120.5t122 -366.5zM834 457q0 192 -66.5 279t-212.5 87q-102 0 -188 -51v-637q119 -43 215 -43q131 0 191.5 87t60.5 278z" />
<glyph unicode="&#x441;" horiz-adv-x="940" d="M84 455q0 242 119.5 364.5t353.5 122.5q165 0 330 -55l-35 -109q-136 37 -248 37q-147 0 -218 -88t-71 -270t70.5 -269.5t218.5 -87.5q116 0 248 35l35 -108q-171 -56 -330 -56q-233 0 -353 122.5t-120 361.5z" />
<glyph unicode="&#x442;" horiz-adv-x="923" d="M889 913v-127h-314v-786h-229v786h-309v127h852z" />
<glyph unicode="&#x443;" horiz-adv-x="983" d="M391 66l-356 847h262l225 -596l242 596h190l-579 -1341h-201z" />
<glyph unicode="&#x444;" horiz-adv-x="1423" d="M829 -332h-235v309q-248 23 -380 146t-132 332q0 212 132 335t380 146v270l235 58v-328q248 -23 379 -146.5t131 -334.5q0 -209 -131 -332t-379 -146v-309zM313 455q0 -149 71.5 -238.5t209.5 -114.5v711q-281 -53 -281 -358zM1108 455q0 305 -279 358v-711 q279 53 279 353z" />
<glyph unicode="&#x445;" horiz-adv-x="1024" d="M1012 0h-285l-246 334l-280 -334h-195l385 453l-342 460h270l220 -286l243 286h199l-350 -409z" />
<glyph unicode="&#x446;" horiz-adv-x="1208" d="M938 -238v238h-795v913h230v-786h395v786h229v-786h170v-365h-229z" />
<glyph unicode="&#x447;" horiz-adv-x="1062" d="M80 913h229v-288q0 -92 51.5 -134t165.5 -42q82 0 164 24v440h230v-913h-230v344q-126 -22 -219 -22q-203 0 -297 83.5t-94 264.5v243z" />
<glyph unicode="&#x448;" horiz-adv-x="1572" d="M672 913h231v-786h297v786h232v-913h-1289v913h230v-786h299v786z" />
<glyph unicode="&#x449;" horiz-adv-x="1644" d="M672 913h231v-786h297v786h232v-786h172v-365h-232v238h-1229v913h230v-786h299v786z" />
<glyph unicode="&#x44a;" horiz-adv-x="1097" d="M465 913v-295h127q210 0 329 -83t119 -226t-121.5 -226t-330.5 -83h-352v786h-199v127h428zM465 127h110q103 0 163.5 50t60.5 136q0 80 -59.5 129.5t-159.5 49.5h-115v-365z" />
<glyph unicode="&#x44b;" horiz-adv-x="1439" d="M373 913v-295h125q210 0 330 -83t120 -226t-122 -226t-332 -83h-351v913h230zM1296 913v-913h-229v913h229zM373 127h112q102 0 162 50t60 136q0 80 -58.5 129.5t-154.5 49.5h-121v-365z" />
<glyph unicode="&#x44c;" horiz-adv-x="1003" d="M371 913v-295h127q210 0 329 -83t119 -226t-120 -226t-330 -83h-353v913h228zM371 127h100q109 0 171.5 50t62.5 136q0 80 -60 129.5t-160 49.5h-114v-365z" />
<glyph unicode="&#x44d;" horiz-adv-x="942" d="M203 399v129h422q-24 287 -285 287q-99 0 -250 -37l-35 109q168 55 330 55q231 0 352 -123.5t121 -363.5q0 -242 -124 -363t-349 -121q-159 0 -330 56l35 108q143 -35 250 -35q264 0 287 299h-424z" />
<glyph unicode="&#x44e;" horiz-adv-x="1603" d="M1520 455q0 -235 -127 -359.5t-369 -124.5q-230 0 -356.5 115.5t-137.5 333.5h-157v-420h-230v913h230v-366h164q23 193 147.5 294t339.5 101q243 0 369.5 -124.5t126.5 -362.5zM1288 455q0 368 -264 368q-262 0 -262 -368q0 -363 262 -363q264 0 264 363z" />
<glyph unicode="&#x44f;" horiz-adv-x="1093" d="M57 0l242 406q-209 68 -209 243q0 264 418 264h442v-913h-229v362h-68q-67 0 -149 7l-199 -369h-248zM328 649q0 -157 327 -157h66v294h-117q-149 0 -212.5 -31.5t-63.5 -105.5z" />
<glyph unicode="&#x451;" horiz-adv-x="1097" d="M481 1286v-199h-178v199h178zM807 1286v-199h-178v199h178zM977 416h-662q1 -153 71 -235.5t198 -82.5q85 0 159 16.5t179 51.5l39 -117q-207 -78 -381 -78q-236 0 -366 127.5t-130 358.5t124 358t349 127q227 0 348 -121t121 -350q0 -55 -49 -55zM315 530h484 q0 138 -62 213.5t-176 75.5t-179.5 -76t-66.5 -213z" />
<glyph unicode="&#x452;" horiz-adv-x="1155" d="M655 1083h-284v-194q122 53 266 53q204 0 294.5 -81t90.5 -267v-703q0 -149 -76.5 -221.5t-236.5 -72.5q-33 0 -71.5 8.5t-59.5 19.5l16 113q28 -8 84 -8q64 0 90.5 36t26.5 115v758q0 94 -51.5 135t-168.5 41q-107 0 -204 -39v-776h-228v1083h-104v113h104v90h228v-90 h284v-113z" />
<glyph unicode="&#x453;" horiz-adv-x="776" d="M483 1087h-168l177 224h237zM758 918l-56 -144q-81 35 -178 35q-80 0 -155 -37v-772h-228v834q203 108 426 108q105 0 191 -24z" />
<glyph unicode="&#x454;" horiz-adv-x="942" d="M84 455q0 241 120.5 364t352.5 123q168 0 330 -55l-35 -109q-148 37 -248 37q-261 0 -285 -287h420v-127h-422q21 -301 287 -301q105 0 248 35l35 -108q-168 -56 -330 -56q-232 0 -352.5 123t-120.5 361z" />
<glyph unicode="&#x455;" horiz-adv-x="952" d="M438 -29q-189 0 -348 60l31 116q173 -49 301 -49q116 0 180 39.5t64 110.5q0 53 -55.5 84t-196.5 61q-184 38 -261 100t-77 181q0 132 108 200t320 68q147 0 323 -63l-36 -113q-161 49 -267 49q-231 0 -231 -131q0 -46 60 -77t194 -60q188 -38 264 -97.5t76 -185.5 q0 -141 -116 -217t-333 -76z" />
<glyph unicode="&#x456;" horiz-adv-x="516" d="M373 1286v-203h-230v203h230zM373 913v-913h-230v913h230z" />
<glyph unicode="&#x457;" horiz-adv-x="516" d="M184 1286v-199h-178v199h178zM510 1286v-199h-178v199h178zM373 911v-913h-230v913h230z" />
<glyph unicode="&#x458;" horiz-adv-x="530" d="M389 1286v-203h-229v203h229zM389 913v-1073q0 -146 -75 -221.5t-238 -75.5q-34 0 -72.5 8.5t-58.5 20.5l16 113q45 -9 84 -9q62 0 88.5 37t26.5 115v1085h229z" />
<glyph unicode="&#x459;" horiz-adv-x="1617" d="M489 786l-38 -385q-22 -206 -123.5 -303.5t-288.5 -97.5v127q81 24 124.5 88t55.5 186l49 512h717v-295h127q216 0 333.5 -80t117.5 -229q0 -147 -119.5 -228t-335.5 -81h-352v786h-267zM1069 492h-84v-365h113q106 0 163.5 48.5t57.5 137.5q0 84 -65.5 131.5 t-184.5 47.5z" />
<glyph unicode="&#x45a;" horiz-adv-x="1628" d="M770 565v348h229v-348h127q209 0 329 -74.5t120 -203.5q0 -134 -124 -210.5t-341 -76.5h-340v436h-397v-436h-230v913h230v-348h397zM1081 436h-82v-309h113q102 0 162.5 43t60.5 115q0 70 -67.5 110.5t-186.5 40.5z" />
<glyph unicode="&#x45b;" horiz-adv-x="1155" d="M1022 0h-227v639q0 94 -51.5 135t-168.5 41q-107 0 -204 -39v-776h-228v1083h-104v113h104v90h228v-90h286v-113h-286v-194q122 53 266 53q204 0 294.5 -81t90.5 -267v-594z" />
<glyph unicode="&#x45c;" horiz-adv-x="1044" d="M623 1087h-168l176 224h237zM623 496l426 -496h-297l-330 422h-51v-422h-228v913h228v-362h51l311 362h264z" />
<glyph unicode="&#x45e;" horiz-adv-x="983" d="M809 1331q-12 -116 -90 -184t-201 -68q-128 0 -206 66t-87 186h123q10 -64 57.5 -96.5t110.5 -32.5q67 0 114 32.5t58 96.5h121zM391 66l-356 847h262l225 -596l242 596h190l-579 -1341h-201z" />
<glyph unicode="&#x45f;" horiz-adv-x="1140" d="M457 -238v238h-314v913h230v-786h397v786h229v-913h-313v-238h-229z" />
<glyph unicode="&#x490;" horiz-adv-x="1067" d="M782 1526h244v-367h-620v-1159h-242v1286h618v240z" />
<glyph unicode="&#x491;" horiz-adv-x="851" d="M580 1151h231v-365h-438v-786h-230v913h437v238z" />
<glyph unicode="&#x1e02;" horiz-adv-x="1353" d="M508 1456v209h252v-209h-252zM901 713q179 -19 277 -103.5t98 -220.5q0 -198 -172.5 -293.5t-530.5 -95.5h-409v1286h493q244 0 377 -79t133 -224q0 -93 -70 -164t-196 -106zM641 1159h-235v-418q518 0 518 234q0 184 -283 184zM406 127h165q235 0 342 67.5t107 215.5 q0 100 -94 159.5t-256 59.5q-104 0 -264 -17v-485z" />
<glyph unicode="&#x1e03;" d="M733 1288v-205h-229v205h229zM618 942q226 0 335.5 -118.5t109.5 -364.5q0 -240 -123.5 -364t-364.5 -124q-230 0 -436 82v1233h226v-389q140 45 253 45zM834 457q0 190 -60.5 277t-191.5 87q-99 0 -217 -43v-651q85 -35 196 -35q273 0 273 365z" />
<glyph unicode="&#x1e0a;" horiz-adv-x="1392" d="M555 1456v209h252v-209h-252zM164 1286h495q309 0 475 -167t166 -478q0 -309 -166 -475t-475 -166h-495v1286zM406 127h233q200 2 301.5 131.5t101.5 382.5q0 256 -103.5 387t-307.5 131h-225v-1032z" />
<glyph unicode="&#x1e0b;" horiz-adv-x="1150" d="M616 1288v-205h-229v205h229zM1014 53q-207 -82 -439 -82q-241 0 -365 124t-124 364q0 239 112.5 361t333.5 122q124 0 252 -41v385h230v-1233zM590 92q104 0 194 35v657q-109 37 -217 37q-134 0 -192 -84t-58 -280q0 -188 66.5 -276.5t206.5 -88.5z" />
<glyph unicode="&#x1e0c;" horiz-adv-x="1392" d="M164 1286h495q309 0 475 -167t166 -478q0 -309 -166 -475t-475 -166h-495v1286zM406 127h233q200 2 301.5 131.5t101.5 382.5q0 256 -103.5 387t-307.5 131h-225v-1032zM799 -328h-226v189h226v-189z" />
<glyph unicode="&#x1e0d;" horiz-adv-x="1150" d="M1014 53q-207 -82 -439 -82q-241 0 -365 124t-124 364q0 239 112.5 361t333.5 122q124 0 252 -41v385h230v-1233zM590 92q104 0 194 35v657q-109 37 -217 37q-134 0 -192 -84t-58 -280q0 -188 66.5 -276.5t206.5 -88.5zM674 -328h-225v189h225v-189z" />
<glyph unicode="&#x1e1e;" horiz-adv-x="1073" d="M475 1456v209h252v-209h-252zM1022 1286v-127h-616v-440h550v-127h-550v-592h-242v1286h858z" />
<glyph unicode="&#x1e1f;" horiz-adv-x="657" d="M528 1651v-205h-229v205h229zM528 1182q-80 0 -108.5 -33.5t-28.5 -118.5v-117h236v-135h-234v-778h-231v778h-113v135h113v105q0 148 78.5 222.5t248.5 74.5q112 0 211 -45l-45 -109q-79 21 -127 21z" />
<glyph unicode="&#x1e24;" horiz-adv-x="1390" d="M985 731v555h242v-1286h-242v604h-582v-604h-239v1286h239v-555h582zM805 -328h-225v189h225v-189z" />
<glyph unicode="&#x1e25;" horiz-adv-x="1155" d="M1022 0h-227v639q0 94 -51.5 135t-168.5 41q-107 0 -204 -39v-776h-228v1286h228v-397q122 53 266 53q204 0 294.5 -81t90.5 -267v-594zM690 -328h-225v189h225v-189z" />
<glyph unicode="&#x1e40;" horiz-adv-x="1687" d="M723 1456v209h252v-209h-252zM1157 1286h295l135 -1286h-250l-102 1092l-330 -1092h-209l-313 1085l-88 -1085h-191l129 1286h308l303 -1007z" />
<glyph unicode="&#x1e41;" horiz-adv-x="1740" d="M997 1296v-204h-229v204h229zM1610 0h-228v647q0 93 -44.5 130.5t-153.5 37.5q-100 0 -199 -51q4 -6 4 -51v-713h-229v649q0 91 -46.5 128.5t-156.5 37.5q-78 0 -192 -43v-772h-228v827q227 115 475 115q99 0 162.5 -18.5t110.5 -61.5q92 43 171.5 61.5t176.5 18.5 q203 0 290 -77.5t87 -260.5v-604z" />
<glyph unicode="&#x1e44;" horiz-adv-x="1449" d="M623 1456v209h251v-209h-251zM1126 1286h160v-1286h-309l-655 1071v-1071h-158v1286h301l661 -1073v1073z" />
<glyph unicode="&#x1e45;" d="M686 1296v-204h-229v204h229zM1016 0h-228v639q0 97 -49 136.5t-168 39.5q-91 0 -206 -43v-772h-228v827q222 115 492 115q204 0 295.5 -82t91.5 -266v-594z" />
<glyph unicode="&#x1e56;" horiz-adv-x="1288" d="M545 1456v209h252v-209h-252zM1229 934q0 -206 -179.5 -302.5t-566.5 -96.5h-77v-535h-242v1286h543q258 0 390 -89.5t132 -262.5zM981 938q0 107 -76.5 164t-222.5 57h-276v-500q310 0 442.5 64.5t132.5 214.5z" />
<glyph unicode="&#x1e57;" horiz-adv-x="1146" d="M692 1296v-204h-229v204h229zM1061 455q0 -244 -110.5 -364t-334.5 -120q-118 0 -251 41v-440h-228v1278q194 92 436 92q246 0 367 -120.5t121 -366.5zM831 457q0 190 -66.5 278t-209.5 88q-104 0 -190 -51v-637q122 -43 217 -43q129 0 189 88t60 277z" />
<glyph unicode="&#x1e5a;" horiz-adv-x="1325" d="M1223 956q0 -126 -76 -213.5t-223 -128.5l358 -614h-287l-309 571q-134 -14 -280 -14v-557h-242v1286h534q255 0 390 -84.5t135 -245.5zM975 963q0 97 -76 146.5t-223 49.5h-270v-475h30q267 0 403 71t136 208zM791 -328h-226v189h226v-189z" />
<glyph unicode="&#x1e5b;" horiz-adv-x="782" d="M776 922l-71 -148q-69 41 -179 41q-84 0 -161 -39v-776h-228v827q203 115 451 115q100 0 188 -20zM362 -326h-225v189h225v-189z" />
<glyph unicode="&#x1e60;" horiz-adv-x="1177" d="M446 1456v209h252v-209h-252zM621 784q271 -62 385 -152.5t114 -246.5q0 -191 -155 -302.5t-420 -111.5q-216 0 -443 103l35 112q206 -86 383 -86q165 0 262 63.5t97 170.5q0 79 -75.5 131t-254.5 90q-139 29 -233.5 68t-146 87.5t-72.5 101t-21 120.5q0 173 149 278 t396 105q200 0 387 -94l-41 -115q-177 82 -340 82q-147 0 -235.5 -56t-88.5 -147q0 -74 69 -117.5t249 -83.5z" />
<glyph unicode="&#x1e61;" horiz-adv-x="952" d="M582 1296v-204h-230v204h230zM438 -29q-180 0 -348 60l31 116q141 -49 301 -49q112 0 178 38.5t66 111.5q0 52 -54 81.5t-198 63.5q-186 43 -262 103t-76 178q0 132 108 200t320 68q147 0 323 -63l-36 -113q-161 49 -267 49q-231 0 -231 -131q0 -46 60 -77t194 -60 q188 -38 264 -97.5t76 -185.5q0 -141 -116 -217t-333 -76z" />
<glyph unicode="&#x1e62;" horiz-adv-x="1177" d="M621 784q271 -62 385 -152.5t114 -246.5q0 -191 -155 -302.5t-420 -111.5q-216 0 -443 103l35 112q206 -86 383 -86q165 0 262 63.5t97 170.5q0 79 -75.5 131t-254.5 90q-139 29 -233.5 68t-146 87.5t-72.5 101t-21 120.5q0 173 149 278t396 105q200 0 387 -94l-41 -115 q-177 82 -340 82q-147 0 -235.5 -56t-88.5 -147q0 -74 69 -117.5t249 -83.5zM715 -328h-226v189h226v-189z" />
<glyph unicode="&#x1e63;" horiz-adv-x="952" d="M438 -29q-180 0 -348 60l31 116q141 -49 301 -49q112 0 178 38.5t66 111.5q0 52 -54 81.5t-198 63.5q-186 43 -262 103t-76 178q0 132 108 200t320 68q147 0 323 -63l-36 -113q-161 49 -267 49q-231 0 -231 -131q0 -46 60 -77t194 -60q188 -38 264 -97.5t76 -185.5 q0 -141 -116 -217t-333 -76zM594 -328h-225v189h225v-189z" />
<glyph unicode="&#x1e6a;" horiz-adv-x="1169" d="M457 1456v209h252v-209h-252zM1130 1286v-127h-425v-1159h-242v1159h-424v127h1091z" />
<glyph unicode="&#x1e6b;" horiz-adv-x="679" d="M383 1546v-205h-229v205h229zM629 113l-11 -127q-84 -15 -143 -15q-161 0 -239 72t-78 223v512h-113v135h113v263l229 47v-310h240v-135h-240v-522q0 -85 28 -117.5t103 -32.5q53 0 111 7z" />
<glyph unicode="&#x1e6c;" horiz-adv-x="1169" d="M1130 1286v-127h-425v-1159h-242v1159h-424v127h1091zM696 -328h-225v189h225v-189z" />
<glyph unicode="&#x1e6d;" horiz-adv-x="679" d="M629 113l-11 -127q-84 -15 -143 -15q-161 0 -239 72t-78 223v512h-113v135h113v263l229 47v-310h240v-135h-240v-522q0 -85 28 -117.5t103 -32.5q53 0 111 7zM471 -328h-225v189h225v-189z" />
<glyph unicode="&#x1e80;" horiz-adv-x="1781" d="M879 1456l-244 223h237l177 -223h-170zM1544 1286h176l-301 -1286h-278l-242 954l-244 -954h-288l-312 1286h269l235 -1036l256 1036h240l258 -1034z" />
<glyph unicode="&#x1e81;" horiz-adv-x="1556" d="M758 1087l-244 224h238l174 -224h-168zM1343 913h173l-293 -913h-222l-219 682l-221 -682h-215l-313 913h270l197 -669l213 669h219l215 -669z" />
<glyph unicode="&#x1e82;" horiz-adv-x="1781" d="M1008 1456h-170l176 223h237zM1544 1286h176l-301 -1286h-278l-242 954l-244 -954h-288l-312 1286h269l235 -1036l256 1036h240l258 -1034z" />
<glyph unicode="&#x1e83;" horiz-adv-x="1556" d="M887 1087h-168l176 224h238zM1343 913h173l-293 -913h-222l-219 682l-221 -682h-215l-313 913h270l197 -669l213 669h219l215 -669z" />
<glyph unicode="&#x1e84;" horiz-adv-x="1781" d="M848 1665v-209h-193v209h193zM1208 1665v-209h-194v209h194zM1544 1286h176l-301 -1286h-278l-242 954l-244 -954h-288l-312 1286h269l235 -1036l256 1036h240l258 -1034z" />
<glyph unicode="&#x1e85;" horiz-adv-x="1556" d="M739 1286v-199h-178v199h178zM1065 1286v-199h-178v199h178zM1343 913h173l-293 -913h-222l-219 682l-221 -682h-215l-313 913h270l197 -669l213 669h219l215 -669z" />
<glyph unicode="&#x1e92;" horiz-adv-x="1179" d="M1116 1286v-158l-788 -1001h778v-127h-1063v152l813 1007h-739v127h999zM696 -328h-225v189h225v-189z" />
<glyph unicode="&#x1e93;" horiz-adv-x="989" d="M909 764l-563 -637h572v-127h-861v137l605 654h-560v122h807v-149zM602 -328h-225v189h225v-189z" />
<glyph unicode="&#x1e9e;" horiz-adv-x="1353" d="M887 717q183 -19 287 -113.5t104 -243.5q0 -189 -146.5 -289t-422.5 -100q-89 0 -148 11v124q52 -8 117 -8q178 0 260 68t82 211q0 112 -89.5 183t-236.5 71q-98 0 -133 -2v127q98 10 164.5 30.5t102.5 51.5t50.5 66t14.5 81q0 86 -70.5 138.5t-187.5 52.5 q-114 0 -183 -46.5t-69 -123.5v-1006h-229v967q0 160 126 252t343 92q233 0 369 -84.5t136 -227.5q0 -104 -61 -176.5t-180 -105.5z" />
<glyph unicode="&#x1ea0;" horiz-adv-x="1302" d="M997 0l-116 340h-557l-121 -340h-168l459 1286h309l469 -1286h-275zM369 469h467l-230 668zM721 -328h-225v189h225v-189z" />
<glyph unicode="&#x1ea1;" horiz-adv-x="1071" d="M948 588v-535q-211 -82 -413 -82q-235 0 -356.5 75.5t-121.5 223.5q0 133 120 205.5t360 89.5q86 6 182 6v74q0 92 -58.5 130t-171.5 38q-146 0 -301 -41l-36 115q189 55 395 55q200 0 300.5 -86t100.5 -268zM719 119v346q-64 0 -170 -8q-130 -8 -199 -52.5t-69 -140.5 q0 -88 64.5 -132t174.5 -44q99 0 199 31zM641 -328h-225v189h225v-189z" />
<glyph unicode="&#x1eb8;" horiz-adv-x="1142" d="M1051 1286v-127h-645v-428h569v-129h-569v-475h645v-127h-887v1286h887zM721 -328h-225v189h225v-189z" />
<glyph unicode="&#x1eb9;" horiz-adv-x="1097" d="M977 416h-662q1 -153 71 -235.5t198 -82.5q85 0 159 16.5t179 51.5l39 -117q-207 -78 -381 -78q-236 0 -366 127.5t-130 358.5t124 358t349 127q227 0 348 -121t121 -350q0 -55 -49 -55zM315 530h484q0 138 -62 213.5t-176 75.5t-179.5 -76t-66.5 -213zM664 -328h-226 v189h226v-189z" />
<glyph unicode="&#x1ebc;" horiz-adv-x="1142" d="M885 1651l57 -86q-46 -60 -90.5 -84.5t-108.5 -24.5q-65 0 -141 31t-135 31q-42 0 -72 -13.5t-63 -46.5l-58 86q53 63 97.5 88t107.5 25q66 0 154 -39q54 -23 119 -23q44 0 74 12.5t59 43.5zM1051 1286v-127h-645v-428h569v-129h-569v-475h645v-127h-887v1286h887z" />
<glyph unicode="&#x1ebd;" horiz-adv-x="1097" d="M825 1282l58 -88q-44 -59 -89 -83t-110 -24q-70 0 -137 29q-75 33 -141 33q-41 0 -71.5 -14t-62.5 -48l-59 89q54 63 99.5 87.5t105.5 24.5q52 0 151 -37q66 -24 123 -24q44 0 73 12t60 43zM977 416h-662q1 -153 71 -235.5t198 -82.5q85 0 159 16.5t179 51.5l39 -117 q-207 -78 -381 -78q-236 0 -366 127.5t-130 358.5t124 358t349 127q227 0 348 -121t121 -350q0 -55 -49 -55zM315 530h484q0 138 -62 213.5t-176 75.5t-179.5 -76t-66.5 -213z" />
<glyph unicode="&#x1eca;" horiz-adv-x="569" d="M406 1286v-1286h-242v1286h242zM393 -328h-225v189h225v-189z" />
<glyph unicode="&#x1ecb;" horiz-adv-x="516" d="M373 1286v-199h-230v199h230zM373 913v-913h-230v913h230zM369 -328h-226v189h226v-189z" />
<glyph unicode="&#x1ecc;" horiz-adv-x="1499" d="M750 1315q318 0 487.5 -174t169.5 -500q0 -323 -169.5 -496.5t-487.5 -173.5q-317 0 -487.5 174t-170.5 496q0 325 170.5 499.5t487.5 174.5zM750 100q199 0 295 132.5t96 408.5q0 279 -96 412t-295 133q-197 0 -293.5 -133.5t-96.5 -411.5q0 -276 96.5 -408.5 t293.5 -132.5zM862 -328h-225v189h225v-189z" />
<glyph unicode="&#x1ecd;" horiz-adv-x="1155" d="M1071 455q0 -234 -126 -359t-367 -125t-367.5 125t-126.5 359q0 237 126.5 362t367.5 125t367 -125t126 -362zM842 455q0 368 -264 368q-263 0 -263 -368q0 -363 263 -363q264 0 264 363zM690 -328h-225v189h225v-189z" />
<glyph unicode="&#x1ee4;" horiz-adv-x="1421" d="M1028 1286h242v-885q0 -201 -149 -316.5t-410 -115.5t-410 115.5t-149 316.5v885h241v-924q0 -135 78 -199.5t240 -64.5q161 0 239 64.5t78 199.5v924zM823 -328h-225v189h225v-189z" />
<glyph unicode="&#x1ee5;" horiz-adv-x="1150" d="M133 913h229v-632q0 -98 50.5 -140.5t167.5 -42.5q100 0 204 37v778h230v-819q-115 -65 -230 -94t-260 -29q-209 0 -300 80.5t-91 265.5v596zM688 -328h-225v189h225v-189z" />
<glyph unicode="&#x1ef2;" horiz-adv-x="1175" d="M561 1456l-244 223h238l176 -223h-170zM1120 1286l-411 -694v-592h-240v580l-414 706h279l291 -541l293 541h202z" />
<glyph unicode="&#x1ef3;" horiz-adv-x="983" d="M471 1090l-244 223h238l174 -223h-168zM391 66l-356 847h262l225 -596l242 596h190l-579 -1341h-201z" />
<glyph unicode="&#x1ef8;" horiz-adv-x="1175" d="M872 1651l58 -86q-46 -60 -90.5 -84.5t-108.5 -24.5q-65 0 -141 31t-135 31q-42 0 -72.5 -13.5t-63.5 -46.5l-57 86q53 63 97.5 88t107.5 25q66 0 154 -39q54 -23 118 -23q44 0 74 12.5t59 43.5zM1120 1286l-411 -694v-592h-240v580l-414 706h279l291 -541l293 541h202z " />
<glyph unicode="&#x1ef9;" horiz-adv-x="983" d="M772 1282l57 -88q-44 -59 -88.5 -83t-109.5 -24q-70 0 -137 29q-75 33 -142 33q-41 0 -71 -14t-62 -48l-59 89q54 63 99.5 87.5t105.5 24.5q52 0 151 -37q66 -24 123 -24q44 0 73 12t60 43zM391 66l-356 847h262l225 -596l242 596h190l-579 -1341h-201z" />
<glyph unicode="&#x2000;" horiz-adv-x="998" />
<glyph unicode="&#x2001;" horiz-adv-x="1997" />
<glyph unicode="&#x2002;" horiz-adv-x="998" />
<glyph unicode="&#x2003;" horiz-adv-x="1997" />
<glyph unicode="&#x2004;" horiz-adv-x="665" />
<glyph unicode="&#x2005;" horiz-adv-x="499" />
<glyph unicode="&#x2006;" horiz-adv-x="332" />
<glyph unicode="&#x2007;" horiz-adv-x="332" />
<glyph unicode="&#x2008;" horiz-adv-x="249" />
<glyph unicode="&#x2009;" horiz-adv-x="399" />
<glyph unicode="&#x200a;" horiz-adv-x="110" />
<glyph unicode="&#x2010;" horiz-adv-x="700" d="M121 537h459v-107h-459v107z" />
<glyph unicode="&#x2011;" horiz-adv-x="700" d="M121 537h459v-107h-459v107z" />
<glyph unicode="&#x2012;" horiz-adv-x="700" d="M121 537h459v-107h-459v107z" />
<glyph unicode="&#x2013;" horiz-adv-x="782" d="M123 518h536v-123h-536v123z" />
<glyph unicode="&#x2014;" horiz-adv-x="1132" d="M123 518h887v-123h-887v123z" />
<glyph unicode="&#x2018;" horiz-adv-x="458" d="M215 1286h154l-47 -389h-244z" />
<glyph unicode="&#x2019;" horiz-adv-x="440" d="M250 897h-152l47 389h244z" />
<glyph unicode="&#x201a;" horiz-adv-x="464" d="M227 -201h-147l47 389h238z" />
<glyph unicode="&#x201c;" horiz-adv-x="776" d="M535 1286h153l-47 -389h-244zM215 1286h154l-50 -389h-241z" />
<glyph unicode="&#x201d;" horiz-adv-x="759" d="M250 897h-152l47 389h244zM569 897h-151l47 389h244z" />
<glyph unicode="&#x201e;" horiz-adv-x="792" d="M231 -201h-151l47 389h244zM553 -201h-154l47 389h244z" />
<glyph unicode="&#x2020;" horiz-adv-x="1075" d="M45 719v141h373v426h239v-426h373v-141h-373v-1051h-239v1051h-373z" />
<glyph unicode="&#x2021;" horiz-adv-x="1181" d="M98 246h373v473h-373v141h373v426h240v-426h372v-141h-372v-473h372v-142h-372v-436h-240v436h-373v142z" />
<glyph unicode="&#x2022;" horiz-adv-x="612" d="M444 449h-276v276h276v-276z" />
<glyph unicode="&#x2026;" horiz-adv-x="1280" d="M371 0h-256v188h256v-188zM768 0h-256v188h256v-188zM1165 0h-256v188h256v-188z" />
<glyph unicode="&#x202f;" horiz-adv-x="399" />
<glyph unicode="&#x2030;" horiz-adv-x="2631" d="M403 1311q169 0 257 -85.5t88 -248.5t-88.5 -249.5t-256.5 -86.5t-256 86.5t-88 249.5t88 248.5t256 85.5zM1352 1286h182l-1065 -1286h-195zM403 1231q-88 0 -134 -64.5t-46 -189.5q0 -124 46 -189t134 -65q89 0 135 64.5t46 189.5q0 254 -181 254zM1409 641 q169 0 257.5 -85.5t88.5 -248.5q0 -164 -88.5 -250t-257.5 -86t-256.5 86t-87.5 250q0 163 88 248.5t256 85.5zM2236 641q168 0 256 -85.5t88 -248.5q0 -164 -87.5 -250t-256.5 -86t-257.5 86t-88.5 250q0 163 88.5 248.5t257.5 85.5zM1409 561q-88 0 -134 -65t-46 -189 q0 -126 46 -191t134 -65t134 65t46 191q0 124 -46 189t-134 65zM2236 561q-180 0 -180 -254q0 -256 180 -256q88 0 133.5 65t45.5 191q0 125 -45.5 189.5t-133.5 64.5z" />
<glyph unicode="&#x2039;" horiz-adv-x="575" d="M248 600l239 -313l-110 -97l-314 410l314 412l110 -99z" />
<glyph unicode="&#x203a;" horiz-adv-x="573" d="M328 600l-242 313l111 99l315 -412l-313 -410l-113 97z" />
<glyph unicode="&#x2044;" horiz-adv-x="333" d="M467 1286h166l-754 -1286h-176z" />
<glyph unicode="&#x205f;" horiz-adv-x="499" />
<glyph unicode="&#x20ac;" horiz-adv-x="1181" d="M836 111q115 0 233 39l37 -130q-162 -49 -299 -49q-252 0 -405.5 127t-194.5 373h-154l37 127h103q-3 18 -3 88h-137l37 127h117q41 244 193.5 371t404.5 127q162 0 311 -51l-39 -130q-143 46 -237 46q-163 0 -263 -92.5t-131 -270.5h547l-35 -127h-526v-88h502l-37 -127 h-451q31 -178 130.5 -269t259.5 -91z" />
<glyph unicode="&#x2116;" horiz-adv-x="2127" d="M1731 698q-156 0 -236 78.5t-80 231.5q0 151 80 229t236 78t236.5 -78t80.5 -229q0 -153 -80.5 -231.5t-236.5 -78.5zM1126 1286h162v-1286h-309l-655 1071v-1071h-160v1286h303l659 -1073v1073zM1892 1008q0 114 -39.5 168.5t-121.5 54.5t-121 -54.5t-39 -168.5t39 -169 t121 -55t121.5 55t39.5 169zM1440 485v111h581v-111h-581z" />
<glyph unicode="&#x2122;" horiz-adv-x="1398" d="M1044 1286h181l61 -579h-145l-43 460l-140 -460h-106l-131 454l-39 -454h-104l57 579h180l111 -373zM543 1286v-78h-172v-501h-144v501h-174v78h490z" />
<glyph unicode="&#x2190;" horiz-adv-x="1417" d="M45 645l498 498l129 -127l-279 -281h950v-184h-952l277 -279l-129 -127z" />
<glyph unicode="&#x2191;" horiz-adv-x="1079" d="M442 0v952l-274 -272l-127 129l500 494l497 -498l-127 -129l-276 274v-950h-193z" />
<glyph unicode="&#x2192;" horiz-adv-x="1417" d="M74 551v184h950l-279 281l129 127l498 -498l-493 -500l-129 127l276 279h-952z" />
<glyph unicode="&#x2193;" horiz-adv-x="1077" d="M539 -29l-500 494l127 129l276 -275v967h191v-962l276 274l127 -129z" />
<glyph unicode="&#x2194;" horiz-adv-x="1636" d="M45 657l498 498l129 -127l-279 -280h850l-278 280l129 127l497 -498l-493 -499l-129 129l278 278h-858l279 -278l-129 -129z" />
<glyph unicode="&#x2195;" horiz-adv-x="1026" d="M514 -29l-455 447l115 114l250 -249v708l-252 -252l-113 115l455 449l451 -453l-113 -115l-252 252v-702l252 252l113 -115z" />
<glyph unicode="&#x2196;" horiz-adv-x="1466" d="M117 1286h696v-180h-387l1001 -1000l-131 -133l-993 996v-383h-186v700z" />
<glyph unicode="&#x2197;" horiz-adv-x="1466" d="M37 106l999 1000h-383v180h697v-700h-187v385l-993 -996z" />
<glyph unicode="&#x2198;" horiz-adv-x="1466" d="M37 1178l133 133l993 -998v385h187v-698h-697v178h385z" />
<glyph unicode="&#x2199;" horiz-adv-x="1466" d="M117 0v698h186v-385l993 998l131 -133l-1001 -1000h387v-178h-696z" />
<glyph unicode="&#x2202;" horiz-adv-x="1228" d="M512 813q121 0 211 -34.5t156 -116.5q-5 267 -88 395.5t-277 128.5q-63 0 -166 -21l-33 123q111 27 211 27q298 0 451 -186t153 -549q0 -308 -139 -458.5t-424 -150.5q-245 0 -379.5 117.5t-134.5 331.5q0 186 120.5 289.5t338.5 103.5zM578 98q141 0 218.5 84.5 t77.5 220.5q0 124 -82 197.5t-231 73.5q-132 0 -203 -70t-71 -201q0 -148 75 -226.5t216 -78.5z" />
<glyph unicode="&#x2212;" horiz-adv-x="940" d="M813 442h-686v144h686v-144z" />
<glyph unicode="&#x25fc;" horiz-adv-x="911" d="M0 911h911v-911h-911v911z" />
<glyph unicode="&#x2713;" horiz-adv-x="1021" d="M403 135l-372 373l137 139l244 -244l456 457l129 -131z" />
<glyph unicode="&#xe132;" horiz-adv-x="1046" d="M868 1087h-168l177 224h237zM356 1087h-168l177 224h237zM373 913v-913h-230v913h230zM905 913v-1073q0 -149 -76 -223t-237 -74q-78 0 -131 29l16 113q35 -9 84 -9q62 0 88.5 36.5t26.5 115.5v1085h229z" />
<glyph unicode="&#xe133;" horiz-adv-x="1161" d="M956 1456h-170l177 223h237zM379 1456h-170l176 223h238zM406 1286v-1286h-242v1286h242zM758 1286h239v-1333q0 -331 -430 -334q-52 0 -90 14l15 123q46 -8 71 -8q102 0 148.5 40t46.5 132v1366z" />
<glyph unicode="&#xf8ff;" horiz-adv-x="2242" d="M446 874q72 -5 120 -39t48 -102q0 -47 -25 -85.5t-67 -55.5q-12 -6 -18 -8l135 -238h-186l-113 211q-23 -2 -72 -2v-209h-162v531h265q35 0 75 -3zM268 629q185 0 185 102q0 25 -15 44.5t-39 23.5q-14 2 -39 2h-92v-172zM1251 535q0 103 62 152.5t166 49.5q77 0 151 -22 l-24 -72q-58 14 -99 14q-104 0 -104 -122q0 -119 108 -119q45 0 95 12l24 -72q-74 -22 -151 -22q-103 0 -165.5 50.5t-62.5 150.5zM928 737q116 0 178.5 -46.5t62.5 -155.5q0 -201 -241 -201q-244 0 -244 201q0 111 64.5 156.5t179.5 45.5zM2138 580v-218q-103 -28 -207 -28 q-231 0 -231 125q0 42 31.5 71t71.5 41t89 15q31 2 95 2v33q0 26 -19.5 34.5t-62.5 8.5q-65 0 -133 -19l-27 70q87 22 201 22q100 0 146 -38.5t46 -118.5zM928 401q54 0 71 31t17 103q0 78 -17 107.5t-71 29.5q-57 0 -73.5 -29t-16.5 -108q0 -73 17 -103.5t73 -30.5z M1987 401v129q-45 0 -68 -2q-31 -4 -54.5 -21t-23.5 -48q0 -60 92 -60q38 0 54 2zM541 94q-209 0 -435 -53v168q206 49 429 49q212 0 417 -47q207 -49 408 -49q86 0 172 22q4 0 4 -4v-6q-171 -116 -274 -174q-134 5 -304 45q-210 49 -417 49zM1665 215q11 14 29 14h444v-184 h-577z" />
<glyph horiz-adv-x="1341" d="M1243 457q0 -235 -148 -360.5t-425 -125.5q-276 0 -424 125.5t-148 360.5q0 234 148 359.5t424 125.5q277 0 425 -125t148 -360zM670 100q155 0 231 88.5t76 270.5q0 180 -76 268t-231 88q-303 0 -303 -356q0 -359 303 -359z" />
<glyph horiz-adv-x="743" d="M586 913v-913h-242v743h-293v91l383 79h152z" />
<glyph horiz-adv-x="1138" d="M1034 639q0 -63 -47.5 -126t-107.5 -97l-504 -289h653v-127h-954v172l598 307q59 30 101 75.5t42 84.5q0 80 -76 128t-207 48q-160 0 -339 -102l-43 114q205 115 421 115q224 0 343.5 -78.5t119.5 -224.5z" />
<glyph horiz-adv-x="1144" d="M692 336q173 -26 274 -117t101 -221q0 -178 -148.5 -280.5t-404.5 -102.5q-107 0 -229 32.5t-232 88.5l41 119q199 -113 395 -113q160 0 244 72t84 194q0 117 -116.5 183.5t-323.5 66.5h-127v125h129q187 0 285 66.5t98 175.5q0 89 -78.5 139.5t-216.5 50.5 q-74 0 -160.5 -23t-161.5 -63l-41 115q89 46 194 72t196 26q231 0 364 -82.5t133 -226.5q0 -101 -80.5 -181.5t-218.5 -115.5z" />
<glyph horiz-adv-x="1157" d="M928 129h159v-129h-159v-375h-242v375h-625v158l586 755h281v-784zM686 129v616l-473 -616h473z" />
<glyph horiz-adv-x="1173" d="M584 438q236 0 377 -106.5t141 -284.5q0 -207 -150.5 -328.5t-404.5 -121.5q-203 0 -459 118l41 121q206 -112 393 -112q143 0 232.5 80t89.5 216q0 139 -98.5 213t-284.5 74q-162 0 -340 -35l26 641h865v-127h-635l-10 -364q112 16 217 16z" />
<glyph horiz-adv-x="1261" d="M725 815q215 0 338 -105.5t123 -289.5q0 -209 -142 -329t-374 -120q-564 0 -564 607q0 359 156 548t451 189q149 0 368 -78l-34 -117q-164 66 -322 66q-194 0 -278 -130t-87 -397q129 156 365 156zM662 98q132 0 210 82.5t78 222.5q0 125 -74 199t-200 74 q-143 0 -228.5 -74.5t-85.5 -198.5q0 -139 81.5 -222t218.5 -83z" />
<glyph horiz-adv-x="1046" d="M997 913v-170l-608 -1118h-285l656 1161h-709v127h946z" />
<glyph horiz-adv-x="1329" d="M901 717q69 -15 126 -41.5t104.5 -68.5t74.5 -105.5t27 -141.5q0 -186 -148 -287.5t-421 -101.5q-272 0 -420 101.5t-148 287.5q0 79 27 143t75 106t105 68.5t125 39.5q-106 25 -175 94t-69 172q0 155 128 243.5t352 88.5q226 0 353.5 -88.5t127.5 -243.5 q0 -101 -67 -170.5t-177 -95.5zM920 983q0 101 -66 155t-190 54q-123 0 -189.5 -54t-66.5 -155t66.5 -155t189.5 -54q124 0 190 54t66 155zM352 371q0 -130 82 -202.5t230 -72.5q150 0 232.5 72t82.5 203q0 126 -82 194t-233 68q-148 0 -230 -68t-82 -194z" />
<glyph horiz-adv-x="1257" d="M541 109q-218 0 -339.5 102t-121.5 285q0 211 135.5 328.5t378.5 117.5q285 0 424 -148.5t139 -451.5q0 -361 -149.5 -544t-442.5 -183q-188 0 -372 78l34 114q168 -65 324 -65q82 0 143.5 24.5t101.5 67t65 109.5t35.5 142.5t12.5 174.5q-75 -83 -157 -117t-211 -34z M604 815q-137 0 -214 -80.5t-77 -222.5q0 -124 74 -194t203 -70q147 0 230 70.5t83 195.5q0 141 -79.5 221t-219.5 80z" />
<glyph horiz-adv-x="894" d="M817 147q0 -191 -95.5 -292t-275.5 -101q-178 0 -273 101t-95 292q0 189 95 289.5t273 100.5q180 0 275.5 -100.5t95.5 -289.5zM449 -141q85 0 125 68.5t40 219.5q0 152 -40 221.5t-125 69.5t-125.5 -70t-40.5 -221t40 -219.5t126 -68.5z" />
<glyph horiz-adv-x="509" d="M391 526v-753h-180v620h-170v66l238 67h112z" />
<glyph horiz-adv-x="745" d="M670 340q0 -80 -56 -133l-346 -332h394v-102h-601v131l385 366q46 46 46 86q0 36 -40.5 58t-101.5 22q-64 0 -123.5 -21t-101.5 -53l-31 95q53 35 126 57.5t147 22.5q132 0 217.5 -51t85.5 -146z" />
<glyph horiz-adv-x="757" d="M475 178q99 -22 153 -73.5t54 -124.5q0 -107 -89 -166.5t-251 -59.5q-143 0 -289 82l31 94q113 -75 233 -75q80 0 127.5 37t47.5 100t-62 96t-182 33h-66v96h68q217 0 217 125q0 48 -42.5 71t-115.5 23q-102 0 -192 -57l-29 92q109 66 258 66q140 0 216.5 -49t76.5 -138 q0 -58 -43 -102.5t-121 -69.5z" />
<glyph horiz-adv-x="788" d="M631 29h92v-103h-92v-153h-180v153h-402v125l371 475h211v-497zM451 29v358l-295 -358h295z" />
<glyph horiz-adv-x="765" d="M381 264q154 0 236.5 -60.5t82.5 -174.5q0 -132 -89 -203.5t-253 -71.5t-286 82l28 94q117 -75 236 -75q168 0 168 151q0 158 -221 158q-75 0 -185 -14l17 376h530v-102h-354l-8 -166q21 6 98 6z" />
<glyph horiz-adv-x="802" d="M440 254q142 0 221.5 -62t79.5 -172q0 -126 -84.5 -196t-238.5 -70q-166 0 -252 88.5t-86 259.5q0 215 92 325t272 110q63 0 130 -14t102 -34l-25 -90q-31 15 -87.5 26t-106.5 11q-192 0 -195 -246q73 64 178 64zM418 -145q72 0 111.5 40.5t39.5 114.5q0 66 -38 104 t-107 38q-75 0 -117.5 -38t-42.5 -104q0 -74 40.5 -114.5t113.5 -40.5z" />
<glyph horiz-adv-x="690" d="M641 526v-131l-346 -622h-205l379 651h-418v102h590z" />
<glyph horiz-adv-x="858" d="M600 190q95 -31 140.5 -81.5t45.5 -126.5q0 -111 -91 -169.5t-265 -58.5t-265 58.5t-91 169.5q0 80 45 131t141 77q-131 46 -131 154q0 91 79.5 142t221.5 51q141 0 219 -51t78 -142q0 -111 -127 -154zM563 340q0 49 -35 76.5t-98 27.5q-64 0 -99.5 -27t-35.5 -77 q0 -52 35 -80.5t100 -28.5q63 0 98 28.5t35 80.5zM266 -6q0 -68 43 -106t121 -38q77 0 120.5 38.5t43.5 105.5q0 64 -43.5 99.5t-120.5 35.5q-78 0 -121 -35.5t-43 -99.5z" />
<glyph horiz-adv-x="802" d="M348 39q-137 0 -212 61t-75 174q0 124 84.5 193.5t237.5 69.5q167 0 253.5 -88.5t86.5 -258.5q0 -215 -90.5 -325.5t-267.5 -110.5q-69 0 -136 16t-100 35l25 89q86 -39 194 -39q193 0 193 247q-41 -35 -81 -49t-112 -14zM385 438q-72 0 -113 -41t-41 -114 q0 -66 39.5 -104t108.5 -38q75 0 117.5 38t42.5 104q0 73 -41 114t-113 41z" />
<glyph horiz-adv-x="894" d="M817 1141q0 -191 -95.5 -292t-275.5 -101q-178 0 -273 101t-95 292q0 189 94.5 289t273.5 100q180 0 275.5 -100t95.5 -289zM449 852q85 0 125 69t40 220q0 152 -40 221.5t-125 69.5t-125.5 -70t-40.5 -221t40.5 -220t125.5 -69z" />
<glyph horiz-adv-x="509" d="M391 1520v-754h-180v620h-170v66l238 68h112z" />
<glyph horiz-adv-x="745" d="M670 1333q0 -80 -56 -133l-346 -332h394v-102h-601v131l385 367q46 46 46 86q0 36 -40.5 58t-101.5 22q-64 0 -123.5 -21t-101.5 -53l-31 94q53 35 126 57.5t147 22.5q132 0 217.5 -51t85.5 -146z" />
<glyph horiz-adv-x="757" d="M475 1171q99 -22 153 -73.5t54 -124.5q0 -107 -88.5 -166t-251.5 -59q-145 0 -289 81l31 95q115 -76 233 -76q80 0 127.5 37t47.5 100t-62 96t-182 33h-66v96h68q217 0 217 125q0 48 -43 71.5t-115 23.5q-101 0 -192 -58l-29 92q109 66 258 66q140 0 216.5 -49t76.5 -138 q0 -58 -43 -102.5t-121 -69.5z" />
<glyph horiz-adv-x="788" d="M633 1022h92v-102h-92v-154h-180v154h-402v124l371 476h211v-498zM453 1022v358l-295 -358h295z" />
<glyph horiz-adv-x="765" d="M381 1257q154 0 236.5 -60.5t82.5 -174.5q0 -132 -89 -203t-253 -71q-165 0 -286 81l28 95q118 -76 236 -76q168 0 168 151q0 158 -221 158q-75 0 -185 -14l17 377h530v-103h-354l-8 -166q21 6 98 6z" />
<glyph horiz-adv-x="802" d="M440 1247q142 0 221.5 -61.5t79.5 -171.5q0 -126 -84.5 -196t-238.5 -70q-166 0 -252 88.5t-86 259.5q0 215 92 324.5t272 109.5q63 0 130 -13.5t102 -33.5l-25 -90q-31 15 -87.5 26t-106.5 11q-192 0 -195 -246q72 63 178 63zM418 848q72 0 111.5 41t39.5 115 q0 66 -38 103.5t-107 37.5q-75 0 -117.5 -37.5t-42.5 -103.5q0 -74 40.5 -115t113.5 -41z" />
<glyph horiz-adv-x="690" d="M641 1520v-131l-346 -623h-205l379 651h-418v103h590z" />
<glyph horiz-adv-x="858" d="M600 1184q95 -31 140.5 -82t45.5 -127q0 -111 -91 -169t-265 -58t-265 58t-91 169q0 159 186 209q-131 46 -131 153q0 91 79.5 142t221.5 51q141 0 219 -51t78 -142q0 -110 -127 -153zM563 1333q0 50 -35 77.5t-98 27.5q-64 0 -99.5 -27.5t-35.5 -77.5q0 -52 35 -80 t100 -28q63 0 98 28t35 80zM266 987q0 -68 43 -105.5t121 -37.5q77 0 120.5 38t43.5 105q0 64 -43.5 99.5t-120.5 35.5q-78 0 -121 -35.5t-43 -99.5z" />
<glyph horiz-adv-x="802" d="M348 1032q-137 0 -212 61t-75 175q0 124 84.5 193t237.5 69q167 0 253.5 -88t86.5 -258q0 -215 -90.5 -325.5t-267.5 -110.5q-69 0 -136 16t-100 35l25 88q86 -39 194 -39q193 0 193 248q-42 -35 -81.5 -49.5t-111.5 -14.5zM385 1432q-72 0 -113 -41.5t-41 -114.5 q0 -66 39.5 -103.5t108.5 -37.5q75 0 117.5 37.5t42.5 103.5q0 73 -41 114.5t-113 41.5z" />
<glyph horiz-adv-x="1376" d="M1239 641q0 -318 -144.5 -494t-406.5 -176t-406.5 176t-144.5 494q0 321 144.5 497.5t406.5 176.5t406.5 -176.5t144.5 -497.5zM688 100q285 0 285 541q0 547 -285 547t-285 -547q0 -541 285 -541z" />
<glyph horiz-adv-x="1376" d="M207 0v129h405v987h-362v90l452 80h152v-1157h354v-129h-1001z" />
<glyph horiz-adv-x="1376" d="M1169 981q0 -117 -84 -219q-39 -49 -283 -298.5t-337 -336.5h696v-127h-987v178l696 672q78 75 78 158t-79.5 130.5t-215.5 47.5q-169 0 -360 -101l-43 115q212 115 424 115q227 0 361 -90t134 -244z" />
<glyph horiz-adv-x="1376" d="M788 686q189 -28 297.5 -116.5t108.5 -215.5q0 -177 -151 -280t-412 -103q-224 0 -479 121l41 119q215 -113 413 -113q160 0 249 70.5t89 196.5q0 117 -123 182t-346 65h-127v127h129q190 0 304 66t114 182q0 94 -80.5 146.5t-224.5 52.5q-179 0 -346 -86l-41 114 q94 48 205 74.5t208 26.5q235 0 371.5 -86.5t136.5 -235.5q0 -103 -89.5 -184t-246.5 -123z" />
<glyph horiz-adv-x="1376" d="M1067 408h160v-129h-160v-279h-242v279h-696v157l657 850h281v-878zM825 408v710l-544 -710h544z" />
<glyph horiz-adv-x="1376" d="M688 811q240 0 382 -105.5t142 -285.5q0 -204 -154.5 -326.5t-414.5 -122.5q-214 0 -459 121l41 119q228 -113 396 -113q155 0 243 79.5t88 217.5t-100 211.5t-289 73.5q-181 0 -346 -33l27 639h878v-129h-647l-12 -362q96 16 225 16z" />
<glyph horiz-adv-x="1376" d="M784 815q218 0 338.5 -103.5t120.5 -291.5q0 -209 -138 -329t-378 -120q-287 0 -425 148.5t-138 458.5q0 365 153 551t453 186q178 0 369 -78l-33 -117q-175 66 -324 66q-193 0 -277 -131.5t-87 -395.5q72 85 161 120.5t205 35.5zM719 98q134 0 212.5 82t78.5 223 q0 273 -277 273q-137 0 -225 -69t-88 -204q0 -140 80 -222.5t219 -82.5z" />
<glyph horiz-adv-x="1376" d="M1202 1286v-170l-682 -1116h-282l727 1157h-783v129h1020z" />
<glyph horiz-adv-x="1376" d="M911 717q162 -30 247 -124t85 -233q0 -183 -146.5 -286t-408.5 -103q-261 0 -407 103t-146 286q0 141 87 233.5t245 123.5q-244 57 -244 266q0 157 122.5 244.5t342.5 87.5q223 0 345 -86t122 -246q0 -102 -63 -169t-181 -97zM930 983q0 98 -64 153.5t-178 55.5 q-112 0 -175.5 -55.5t-63.5 -153.5t63.5 -153.5t175.5 -55.5q114 0 178 55.5t64 153.5zM391 371q0 -129 79.5 -202t217.5 -73q140 0 219.5 73t79.5 202q0 123 -79.5 192.5t-219.5 69.5q-138 0 -217.5 -69.5t-79.5 -192.5z" />
<glyph horiz-adv-x="1376" d="M592 463q-217 0 -338 104.5t-121 290.5q0 209 142.5 333t381.5 124q264 0 408.5 -162.5t144.5 -454.5q0 -357 -150.5 -542t-441.5 -185q-161 0 -372 76l35 117q183 -64 321 -64q190 0 273 129t88 387q-73 -87 -162.5 -120t-208.5 -33zM657 1188q-134 0 -212 -84.5 t-78 -229.5q0 -129 72.5 -199.5t203.5 -70.5q140 0 226.5 69t86.5 199q0 146 -81 231t-218 85z" />
<glyph horiz-adv-x="1376" d="M1239 459q0 -233 -143.5 -360.5t-405.5 -127.5q-265 0 -409 127t-144 361q0 232 144 357.5t409 125.5q263 0 406 -125.5t143 -357.5zM690 100q283 0 283 359q0 356 -283 356q-287 0 -287 -356q0 -359 287 -359z" />
<glyph horiz-adv-x="1376" d="M207 0v129h405v614h-362v91l452 79h152v-784h354v-129h-1001z" />
<glyph horiz-adv-x="1376" d="M1171 639q0 -66 -46.5 -127.5t-108.5 -95.5l-539 -289h686v-127h-987v172l631 307q64 32 103.5 76t39.5 84q0 84 -78.5 130t-222.5 46q-172 0 -354 -102l-43 114q208 115 424 115q238 0 366.5 -78.5t128.5 -224.5z" />
<glyph horiz-adv-x="1376" d="M793 334q190 -29 297.5 -117.5t107.5 -218.5q0 -180 -148.5 -281.5t-408.5 -101.5q-117 0 -244.5 31.5t-240.5 89.5l39 119q198 -113 421 -113q157 0 244.5 69.5t87.5 196.5q0 119 -123 184.5t-346 65.5h-127v125h129q191 0 303.5 65t112.5 179q0 89 -79 138.5t-224 49.5 q-178 0 -348 -86l-39 115q90 48 200.5 73t210.5 25q238 0 372 -82.5t134 -228.5q0 -103 -88 -181.5t-243 -115.5z" />
<glyph horiz-adv-x="1376" d="M1073 72h160v-131h-160v-316h-242v316h-698v159l658 813h282v-841zM831 72v690l-546 -690h546z" />
<glyph horiz-adv-x="1376" d="M680 670q246 0 388 -105t142 -286q0 -209 -151.5 -330t-415.5 -121q-202 0 -459 119l41 121q214 -113 396 -113q147 0 239 81t92 216q0 139 -102 213t-293 74q-165 0 -340 -35l27 641h876v-127h-643l-14 -365q122 17 217 17z" />
<glyph horiz-adv-x="1376" d="M770 815q216 0 345.5 -107.5t129.5 -287.5q0 -204 -143.5 -326.5t-382.5 -122.5q-270 0 -411.5 155t-141.5 452q0 362 154 549.5t450 187.5q161 0 371 -78l-35 -117q-167 66 -322 66q-194 0 -277.5 -130t-88.5 -397q126 156 352 156zM719 98q133 0 212 82.5t79 222.5 q0 125 -74.5 199t-200.5 74q-144 0 -228.5 -74t-84.5 -199q0 -139 81 -222t216 -83z" />
<glyph horiz-adv-x="1376" d="M1198 913v-170l-680 -1118h-285l730 1161h-783v127h1018z" />
<glyph horiz-adv-x="1376" d="M911 717q67 -15 124 -42t104.5 -69t74.5 -105t27 -141q0 -183 -146 -286t-407 -103q-262 0 -407.5 103t-145.5 286q0 78 27.5 142t75 106t104.5 69t123 40q-106 25 -175 94.5t-69 173.5q0 157 123 243.5t344 86.5q220 0 342.5 -86.5t122.5 -243.5q0 -103 -65.5 -172 t-176.5 -96zM928 985q0 100 -62 153.5t-178 53.5t-179 -53.5t-63 -153.5q0 -101 63 -156t179 -55q115 0 177.5 55t62.5 156zM391 371q0 -132 77 -203.5t220 -71.5t221 71.5t78 203.5q0 126 -78 194t-221 68t-220 -68t-77 -194z" />
<glyph horiz-adv-x="1376" d="M614 111q-218 0 -346.5 105t-128.5 284q0 202 142.5 322t382.5 120q274 0 413.5 -152t139.5 -448q0 -356 -151 -541.5t-441 -185.5q-189 0 -373 78l35 114q165 -65 321 -65q188 0 273.5 129.5t87.5 388.5q-75 -81 -152 -115t-203 -34zM664 815q-135 0 -213 -80t-78 -219 q0 -124 73.5 -195t202.5 -71q147 0 230.5 71t83.5 197q0 138 -80.5 217.5t-218.5 79.5z" />
<glyph horiz-adv-x="894" d="M817 915q0 -191 -95.5 -292t-275.5 -101q-178 0 -273 101t-95 292q0 189 95 289.5t273 100.5q180 0 275.5 -100.5t95.5 -289.5zM449 627q85 0 125 68.5t40 219.5q0 152 -40 221.5t-125 69.5t-125.5 -70t-40.5 -221t40 -219.5t126 -68.5z" />
<glyph horiz-adv-x="509" d="M391 1294v-753h-180v620h-170v66l238 67h112z" />
<glyph horiz-adv-x="745" d="M670 1108q0 -80 -56 -133l-346 -332h394v-102h-601v131l385 366q46 46 46 86q0 36 -40.5 58t-101.5 22q-64 0 -123.5 -21t-101.5 -53l-31 95q53 35 126 57.5t147 22.5q132 0 217.5 -51t85.5 -146z" />
<glyph horiz-adv-x="757" d="M475 946q99 -22 153 -73.5t54 -124.5q0 -107 -89 -166.5t-251 -59.5q-143 0 -289 82l31 94q113 -75 233 -75q80 0 127.5 37t47.5 100t-62 96t-182 33h-66v96h68q217 0 217 125q0 48 -42.5 71t-115.5 23q-102 0 -192 -57l-29 92q109 66 258 66q140 0 216.5 -49t76.5 -138 q0 -58 -43 -102.5t-121 -69.5z" />
<glyph horiz-adv-x="788" d="M633 797h92v-103h-92v-153h-180v153h-402v125l371 475h211v-497zM453 797v358l-295 -358h295z" />
<glyph horiz-adv-x="765" d="M381 1032q154 0 236.5 -60.5t82.5 -174.5q0 -132 -89 -203.5t-253 -71.5t-286 82l28 94q117 -75 236 -75q168 0 168 151q0 158 -221 158q-75 0 -185 -14l17 376h530v-102h-354l-8 -166q21 6 98 6z" />
<glyph horiz-adv-x="802" d="M440 1022q142 0 221.5 -62t79.5 -172q0 -126 -84.5 -196t-238.5 -70q-166 0 -252 88.5t-86 259.5q0 215 92 325t272 110q63 0 130 -14t102 -34l-25 -90q-31 15 -87.5 26t-106.5 11q-192 0 -195 -246q73 64 178 64zM418 623q72 0 111.5 40.5t39.5 114.5q0 66 -38 104 t-107 38q-75 0 -117.5 -38t-42.5 -104q0 -74 40.5 -114.5t113.5 -40.5z" />
<glyph horiz-adv-x="690" d="M641 1294v-131l-346 -622h-205l379 651h-418v102h590z" />
<glyph horiz-adv-x="858" d="M600 958q95 -31 140.5 -81.5t45.5 -126.5q0 -111 -91 -169.5t-265 -58.5t-265 58.5t-91 169.5q0 80 45 131t141 77q-131 46 -131 154q0 91 79.5 142t221.5 51q141 0 219 -51t78 -142q0 -111 -127 -154zM563 1108q0 49 -35 76.5t-98 27.5q-64 0 -99.5 -27t-35.5 -77 q0 -52 35 -80.5t100 -28.5q63 0 98 28.5t35 80.5zM266 762q0 -68 43 -106t121 -38q77 0 120.5 38.5t43.5 105.5q0 64 -43.5 99.5t-120.5 35.5q-78 0 -121 -35.5t-43 -99.5z" />
<glyph horiz-adv-x="802" d="M348 807q-137 0 -212 61t-75 174q0 124 84.5 193.5t237.5 69.5q167 0 253.5 -88.5t86.5 -258.5q0 -215 -90.5 -325.5t-267.5 -110.5q-69 0 -136 16t-100 35l25 89q86 -39 194 -39q193 0 193 247q-41 -35 -81 -49t-112 -14zM385 1206q-72 0 -113 -41t-41 -114 q0 -66 39.5 -104t108.5 -38q75 0 117.5 38t42.5 104q0 73 -41 114t-113 41z" />
<glyph horiz-adv-x="894" d="M817 375q0 -191 -95.5 -292t-275.5 -101q-178 0 -273 101t-95 292q0 189 94.5 289t273.5 100q180 0 275.5 -100t95.5 -289zM449 86q85 0 125 69t40 220q0 152 -40 221.5t-125 69.5t-125.5 -70t-40.5 -221t40.5 -220t125.5 -69z" />
<glyph horiz-adv-x="509" d="M391 754v-754h-180v621h-170v65l238 68h112z" />
<glyph horiz-adv-x="745" d="M670 567q0 -80 -56 -133l-346 -332h394v-102h-601v131l385 367q46 46 46 86q0 36 -40.5 58t-101.5 22q-64 0 -123.5 -21t-101.5 -53l-31 94q53 35 126 57.5t147 22.5q132 0 217.5 -51t85.5 -146z" />
<glyph horiz-adv-x="757" d="M475 406q99 -22 153 -74t54 -125q0 -107 -88.5 -166t-251.5 -59q-145 0 -289 81l31 95q115 -76 233 -76q80 0 127.5 37t47.5 100t-62 96t-182 33h-66v96h68q217 0 217 125q0 48 -43 71.5t-115 23.5q-101 0 -192 -58l-29 92q109 66 258 66q140 0 216.5 -48.5t76.5 -137.5 q0 -58 -43 -102.5t-121 -69.5z" />
<glyph horiz-adv-x="788" d="M633 256h92v-102h-92v-154h-180v154h-402v125l371 475h211v-498zM453 256v358l-295 -358h295z" />
<glyph horiz-adv-x="765" d="M381 492q154 0 236.5 -61t82.5 -175q0 -132 -89 -203t-253 -71q-165 0 -286 81l28 95q118 -76 236 -76q168 0 168 151q0 158 -221 158q-75 0 -185 -14l17 377h530v-103h-354l-8 -166q24 7 98 7z" />
<glyph horiz-adv-x="802" d="M440 481q142 0 221.5 -61.5t79.5 -171.5q0 -126 -84.5 -196t-238.5 -70q-166 0 -252 88.5t-86 259.5q0 215 92 324.5t272 109.5q63 0 130 -13.5t102 -33.5l-25 -90q-31 15 -87.5 26t-106.5 11q-192 0 -195 -246q72 63 178 63zM418 82q72 0 111.5 41t39.5 115 q0 66 -38 103.5t-107 37.5q-75 0 -117.5 -37.5t-42.5 -103.5q0 -74 40.5 -115t113.5 -41z" />
<glyph horiz-adv-x="690" d="M641 754v-131l-346 -623h-205l379 651h-418v103h590z" />
<glyph horiz-adv-x="858" d="M600 418q95 -31 140.5 -82t45.5 -127q0 -111 -91 -169t-265 -58t-265 58t-91 169q0 159 186 209q-131 46 -131 153q0 91 79.5 142t221.5 51q141 0 219 -51t78 -142q0 -110 -127 -153zM563 567q0 50 -35 77.5t-98 27.5q-64 0 -99.5 -27.5t-35.5 -77.5q0 -52 35 -80 t100 -28q63 0 98 28t35 80zM266 221q0 -68 43 -105.5t121 -37.5q77 0 120.5 38t43.5 105q0 64 -43.5 99.5t-120.5 35.5q-78 0 -121 -35.5t-43 -99.5z" />
<glyph horiz-adv-x="802" d="M348 266q-137 0 -212 61t-75 175q0 124 84.5 193t237.5 69q167 0 253.5 -88t86.5 -258q0 -215 -90.5 -325.5t-267.5 -110.5q-69 0 -136 16t-100 35l25 88q86 -39 194 -39q193 0 193 248q-42 -35 -81.5 -49.5t-111.5 -14.5zM385 666q-72 0 -113 -41.5t-41 -114.5 q0 -66 39.5 -103.5t108.5 -37.5q75 0 117.5 37.5t42.5 103.5q0 73 -41 114.5t-113 41.5z" />
<glyph horiz-adv-x="387" d="M186 -135h-118l43 334h198z" />
<glyph horiz-adv-x="372" d="M281 0h-189v170h189v-170z" />
<glyph horiz-adv-x="387" d="M184 403h-116l41 336h200z" />
<glyph horiz-adv-x="372" d="M281 541h-189v168h189v-168z" />
<glyph horiz-adv-x="387" d="M184 -358h-116l41 333h200z" />
<glyph horiz-adv-x="372" d="M281 -223h-189v170h189v-170z" />
<glyph horiz-adv-x="387" d="M184 631h-116l41 330h200z" />
<glyph horiz-adv-x="372" d="M281 762h-189v168h189v-168z" />
<glyph horiz-adv-x="436" d="M371 -37h-144q-149 185 -149 395q0 234 162 410h129q-52 -90 -80.5 -198t-28.5 -212q0 -200 111 -395z" />
<glyph horiz-adv-x="438" d="M66 -37q112 194 112 395q0 102 -29 211t-81 199h129q161 -171 161 -410q0 -209 -147 -395h-145z" />
<glyph horiz-adv-x="436" d="M373 506h-144q-149 185 -149 395q0 233 162 412h129q-52 -90 -80.5 -198.5t-28.5 -213.5q0 -205 111 -395z" />
<glyph horiz-adv-x="438" d="M66 506q112 191 112 395q0 104 -29 213t-81 199h129q161 -175 161 -412q0 -205 -147 -395h-145z" />
<glyph horiz-adv-x="436" d="M373 -260h-144q-149 185 -149 397q0 234 162 410h129q-52 -88 -80.5 -197t-28.5 -213q0 -207 111 -397z" />
<glyph horiz-adv-x="438" d="M66 -260q112 194 112 397q0 102 -29 211t-81 199h129q161 -171 161 -410q0 -207 -147 -397h-145z" />
<glyph horiz-adv-x="436" d="M371 731h-144q-149 185 -149 397q0 234 162 410h129q-52 -90 -80.5 -198.5t-28.5 -211.5q0 -202 111 -397z" />
<glyph horiz-adv-x="438" d="M66 731q112 194 112 397q0 102 -29 210t-81 200h129q161 -171 161 -410q0 -211 -147 -397h-145z" />
<glyph horiz-adv-x="675" d="M406 1456h-170l176 223h237z" />
<glyph horiz-adv-x="700" d="M645 1702q-13 -117 -87 -186.5t-204 -69.5q-133 0 -208.5 68.5t-84.5 187.5h123q10 -62 55.5 -97.5t112.5 -35.5q68 0 114 34.5t58 98.5h121z" />
<glyph horiz-adv-x="849" d="M723 1679l-180 -223h-238l-180 223h168l131 -127l131 127h168z" />
<glyph horiz-adv-x="561" d="M580 1456h-168l-131 125l-131 -125h-170l182 223h237z" />
<glyph horiz-adv-x="903" d="M379 1665v-209h-193v209h193zM739 1665v-209h-194v209h194z" />
<glyph horiz-adv-x="411" d="M80 1456v209h252v-209h-252z" />
<glyph horiz-adv-x="425" d="M172 1456l-244 223h238l176 -223h-170z" />
<glyph horiz-adv-x="1028" d="M332 1456h-168l160 223h237zM662 1456h-168l159 223h238z" />
<glyph horiz-adv-x="763" d="M88 1456v158h590v-158h-590z" />
<glyph horiz-adv-x="1011" d="M266 1585q0 141 234 141q112 0 172.5 -35.5t60.5 -105.5q0 -73 -57.5 -107t-175.5 -34q-116 0 -175 33.5t-59 107.5zM586 1585q0 47 -17.5 68.5t-68.5 21.5q-50 0 -68 -21t-18 -69q0 -47 17.5 -68.5t68.5 -21.5q50 0 68 22t18 68z" />
<glyph horiz-adv-x="1296" d="M895 1651l57 -86q-46 -60 -90 -84.5t-108 -24.5q-66 0 -142 31t-135 31q-42 0 -72 -13.5t-63 -46.5l-57 86q53 63 97 88t107 25q66 0 154 -39q54 -23 119 -23q44 0 74 12.5t59 43.5z" />
<glyph horiz-adv-x="477" d="M137 1378l74 322h209l-141 -322h-142z" />
</font>
</defs>
</svg>
