<?xml version="1.0" standalone="no"?>
<!DOCTYPE svg PUBLIC "-//W3C//DTD SVG 1.1//EN" "http://www.w3.org/Graphics/SVG/1.1/DTD/svg11.dtd" >
<svg xmlns="http://www.w3.org/2000/svg" xmlns:xlink="http://www.w3.org/1999/xlink" version="1.1">
<metadata></metadata>
<defs>
<font id="rocabold" horiz-adv-x="1376" >
<font-face units-per-em="2048" ascent="1591" descent="-457" />
<missing-glyph horiz-adv-x="395" />
<glyph unicode="L&#xb7;L" horiz-adv-x="2295" d="M485 164h645v-164h-989v1286h344v-1122zM1616 164h645v-164h-989v1286h344v-1122zM1022 549h-315v225h315v-225z" />
<glyph unicode="l&#xb7;l" horiz-adv-x="1435" d="M461 0h-338v1249l338 82v-1331zM1313 0h-338v1249l338 82v-1331zM870 530h-315v226h315v-226z" />
<glyph unicode="&#xd;" horiz-adv-x="395" />
<glyph unicode=" "  horiz-adv-x="395" />
<glyph unicode="&#x09;" horiz-adv-x="395" />
<glyph unicode="&#xa0;" horiz-adv-x="395" />
<glyph unicode="!" horiz-adv-x="585" d="M113 1286h360l-53 -889h-254zM451 0h-318v223h318v-223z" />
<glyph unicode="&#x22;" horiz-adv-x="817" d="M307 870h-184l-53 416h295zM692 870h-186l-51 416h295z" />
<glyph unicode="#" horiz-adv-x="1236" d="M1157 811h-221l-49 -285h223l-31 -182h-223l-57 -344h-176l57 344h-221l-60 -344h-178l60 344h-232l31 182h231l47 285h-233l33 182h231l49 293h178l-49 -293h221l50 293h178l-49 -293h221zM709 526l49 285h-221l-50 -285h222z" />
<glyph unicode="$" horiz-adv-x="1251" d="M1204 401q0 -167 -125.5 -276.5t-351.5 -140.5v-199h-190v186q-225 6 -445 99l43 143q218 -76 381 -76t253.5 50t90.5 139q0 57 -63 94t-209 76q-135 36 -231 75t-153.5 76t-90 82t-43.5 85.5t-11 94.5q0 160 126 264t352 130v213h190v-207q192 -13 369 -90l-52 -154 q-204 80 -354 80q-146 0 -227.5 -40.5t-81.5 -111.5q0 -56 58 -91t225 -79q301 -79 420.5 -170.5t119.5 -251.5z" />
<glyph unicode="%" horiz-adv-x="1953" d="M432 1315q187 0 285 -85.5t98 -248.5q0 -164 -98 -250t-285 -86t-285 86t-98 250q0 163 98 248.5t285 85.5zM1391 1286h241l-1069 -1286h-250zM432 1214q-82 0 -120 -56t-38 -177q0 -122 38 -179t120 -57t120 57t38 179q0 121 -38 177t-120 56zM1522 639q188 0 285.5 -85 t97.5 -249q0 -163 -98 -248.5t-285 -85.5t-285 85.5t-98 248.5q0 164 97.5 249t285.5 85zM1522 541q-82 0 -120 -57t-38 -179q0 -121 38 -177t120 -56t119.5 56t37.5 177q0 122 -37.5 179t-119.5 57z" />
<glyph unicode="&#x26;" horiz-adv-x="1538" d="M1528 143l-221 -196l-199 168q-109 -67 -238 -104.5t-252 -37.5q-252 0 -405.5 103.5t-153.5 275.5q0 116 87.5 218t240.5 163q-60 57 -98.5 136.5t-38.5 144.5q0 130 130.5 215.5t328.5 85.5q183 0 303.5 -81.5t120.5 -205.5q0 -205 -279 -342l248 -201q46 97 63 207 l316 -45q-33 -190 -150 -342zM711 1167q-71 0 -112.5 -38t-41.5 -105q0 -40 31.5 -91t87.5 -102q85 35 132.5 87t47.5 108q0 66 -38 103.5t-107 37.5zM426 352q0 -91 62.5 -146.5t166.5 -55.5q69 0 143 30t134 84l-346 297q-76 -44 -118 -98.5t-42 -110.5z" />
<glyph unicode="'" horiz-adv-x="452" d="M266 870h-186l49 416h295z" />
<glyph unicode="(" horiz-adv-x="636" d="M590 -291h-258q-116 141 -186 340t-70 443q0 253 76.5 453.5t203.5 340.5h230q-88 -156 -137.5 -371.5t-49.5 -422.5q0 -210 49 -418t142 -365z" />
<glyph unicode=")" horiz-adv-x="636" d="M47 -291q92 155 140.5 364t48.5 421q0 207 -49 422t-138 370h230q127 -141 204.5 -341t77.5 -451q0 -245 -71 -444t-187 -341h-256z" />
<glyph unicode="*" horiz-adv-x="892" d="M745 639l-143 -104l-153 235l-156 -235l-146 104l177 221l-271 74l56 170l264 -100l-17 282h181l-15 -282l266 100l56 -170l-275 -74z" />
<glyph unicode="+" horiz-adv-x="997" d="M946 551v-186h-354v-357h-186v357h-355v186h355v354h186v-354h354z" />
<glyph unicode="," horiz-adv-x="473" d="M246 -176h-185l48 416h294z" />
<glyph unicode="-" horiz-adv-x="698" d="M106 551h486v-137h-486v137z" />
<glyph unicode="." horiz-adv-x="507" d="M412 0h-318v223h318v-223z" />
<glyph unicode="/" horiz-adv-x="1050" d="M795 1286h225l-748 -1286h-239z" />
<glyph unicode="0" horiz-adv-x="1466" d="M1378 641q0 -312 -173.5 -491t-475.5 -179q-298 0 -470.5 179t-172.5 491q0 313 172.5 493.5t470.5 180.5q302 0 475.5 -180t173.5 -494zM729 139q101 0 157 47t81.5 155t25.5 302q0 195 -25.5 304t-82 156.5t-156.5 47.5q-97 0 -151 -47.5t-78.5 -156.5t-24.5 -304 q0 -194 24.5 -302t78.5 -155t151 -47z" />
<glyph unicode="1" horiz-adv-x="808" d="M659 1286v-1286h-340v1069h-292v111l422 106h210z" />
<glyph unicode="2" horiz-adv-x="1200" d="M1120 958q0 -115 -65 -206q-53 -72 -216.5 -240t-357.5 -348h625v-164h-1049v217l682 639q78 72 78 143q0 66 -70 108t-182 42q-194 0 -401 -121l-49 154q237 133 483 133q232 0 377 -99.5t145 -257.5z" />
<glyph unicode="3" horiz-adv-x="1222" d="M797 692q164 -32 255 -121t91 -217q0 -181 -156 -282t-436 -101q-247 0 -510 133l53 156q215 -125 408 -125q136 0 207 63t71 183q0 105 -102.5 160t-298.5 55h-107v160h111q177 0 267.5 55.5t90.5 163.5q0 80 -67 127t-182 47q-71 0 -161 -26t-173 -70l-49 151 q102 51 216 81t210 30q247 0 389.5 -88t142.5 -240q0 -97 -72 -176t-198 -119z" />
<glyph unicode="4" horiz-adv-x="1292" d="M1071 434h154v-168h-154v-266h-342v266h-686v205l631 815h397v-852zM729 434v625l-481 -625h481z" />
<glyph unicode="5" horiz-adv-x="1234" d="M612 838q257 0 409.5 -110t152.5 -296q0 -212 -162 -336.5t-437 -124.5q-241 0 -507 133l53 156q223 -125 405 -125q131 0 203 71.5t72 203.5q0 126 -96.5 193t-278.5 67q-137 0 -303 -25l31 641h921v-166h-596l-12 -289q65 7 145 7z" />
<glyph unicode="6" horiz-adv-x="1304" d="M774 823q234 0 352.5 -107.5t118.5 -293.5q0 -215 -148 -333t-386 -118q-313 0 -467 152t-154 461q0 351 164.5 541t468.5 190q192 0 410 -82l-48 -150q-175 66 -323 66q-150 0 -235.5 -115.5t-94.5 -331.5q78 66 156 93.5t186 27.5zM690 133q109 0 172.5 77t63.5 208 q0 110 -61 171.5t-171 61.5q-117 0 -188.5 -61.5t-71.5 -171.5q0 -131 69 -208t187 -77z" />
<glyph unicode="7" horiz-adv-x="1128" d="M1085 1286v-215l-583 -1071h-416l649 1120h-688v166h1038z" />
<glyph unicode="8" horiz-adv-x="1415" d="M1022 715q149 -33 232 -128.5t83 -228.5q0 -181 -167.5 -284t-462.5 -103t-462 103t-167 284q0 135 83.5 229t231.5 128q-213 64 -213 266q0 146 148.5 240t378.5 94q229 0 376.5 -93.5t147.5 -240.5q0 -200 -209 -266zM924 977q0 78 -53 131t-164 53t-164.5 -53.5 t-53.5 -130.5q0 -40 8 -71t30 -61.5t67.5 -47.5t112.5 -17t112.5 16.5t67 47.5t29.5 62t8 71zM442 377q0 -116 70.5 -182t194.5 -66t194 66t70 182q0 112 -69.5 174.5t-194.5 62.5t-195 -62.5t-70 -174.5z" />
<glyph unicode="9" horiz-adv-x="1302" d="M528 453q-220 0 -344.5 107.5t-124.5 297.5q0 214 142 335.5t391 121.5q310 0 466 -157.5t156 -465.5q0 -341 -166 -531t-464 -190q-187 0 -410 82l47 148q192 -64 336 -64q154 0 228.5 103t86.5 331q-72 -65 -152.5 -91.5t-191.5 -26.5zM614 1151q-110 0 -173.5 -76.5 t-63.5 -210.5q0 -113 61 -176t170 -63q120 0 191 62.5t71 174.5q0 135 -68.5 212t-187.5 77z" />
<glyph unicode=":" horiz-adv-x="528" d="M422 670h-316v223h316v-223zM422 0h-316v223h316v-223z" />
<glyph unicode=";" horiz-adv-x="563" d="M449 627h-316v223h316v-223zM281 -193h-183l47 416h293z" />
<glyph unicode="&#x3c;" horiz-adv-x="860" d="M762 246v-215l-711 336v186l711 334v-219l-520 -209z" />
<glyph unicode="=" horiz-adv-x="892" d="M111 721h669v-184h-669v184zM111 379h669v-186h-669v186z" />
<glyph unicode="&#x3e;" horiz-adv-x="860" d="M98 246l518 213l-518 209v219l711 -334v-186l-711 -336v215z" />
<glyph unicode="?" horiz-adv-x="1087" d="M43 1210q224 105 442 105q246 0 398.5 -95t152.5 -249q0 -58 -17.5 -104t-51.5 -79t-69 -54.5t-85 -43.5q-52 -23 -80 -37t-70 -40t-63.5 -51t-38 -62.5t-16.5 -81.5v-23h-269v39q0 59 17 111t40.5 87.5t64.5 71.5t71 56t78 49q74 45 111.5 85.5t37.5 96.5 q0 74 -66.5 116t-183.5 42q-166 0 -352 -92zM252 0v223h317v-223h-317z" />
<glyph unicode="@" horiz-adv-x="2033" d="M1032 1315q445 0 688.5 -186.5t243.5 -526.5q0 -129 -47.5 -244.5t-132 -201t-209 -135.5t-270.5 -50q-73 0 -110.5 43.5t-37.5 143.5q-107 -187 -248 -187q-156 0 -240.5 119t-84.5 338q0 245 125.5 379.5t328.5 134.5q193 0 379 -59v-766q0 -15 17 -15 q114 14 188 153.5t74 344.5q0 592 -666 592q-324 0 -507 -183.5t-183 -508.5q0 -370 161 -548.5t492 -178.5q122 0 234 32l43 -122q-132 -31 -277 -31q-443 0 -684 221t-241 627q0 396 247.5 605.5t716.5 209.5zM1157 332v463q-49 24 -121 24q-94 0 -136 -100t-42 -324 q0 -295 90 -295q37 0 71.5 23t61 60.5t45 74t31.5 74.5z" />
<glyph unicode="A" horiz-adv-x="1400" d="M987 0l-104 315h-510l-111 -315h-239l448 1286h444l476 -1286h-404zM430 481h399l-196 590z" />
<glyph unicode="B" horiz-adv-x="1427" d="M1018 700q169 -23 258.5 -106t89.5 -219q0 -375 -627 -375h-598v1286h553q274 0 418.5 -82t144.5 -239q0 -89 -62 -158t-177 -107zM672 1122h-189v-379q435 0 435 205q0 174 -246 174zM483 164h191q170 0 253 58t83 177q0 94 -91.5 145.5t-259.5 51.5q-75 0 -176 -8v-424 z" />
<glyph unicode="C" horiz-adv-x="1249" d="M1159 236l49 -183q-248 -82 -463 -82q-310 0 -490.5 181.5t-180.5 492.5q0 309 180 489.5t489 180.5q99 0 224.5 -22t240.5 -60l-49 -172q-198 74 -336 74q-184 0 -280.5 -125.5t-96.5 -364.5q0 -238 94.5 -361.5t276.5 -123.5q156 0 342 76z" />
<glyph unicode="D" horiz-adv-x="1452" d="M141 1286h568q308 0 488.5 -174t180.5 -473q0 -295 -180.5 -467t-488.5 -172h-568v1286zM483 164h179q168 5 256 126t88 349q0 236 -92 359.5t-269 123.5h-162v-958z" />
<glyph unicode="E" horiz-adv-x="1208" d="M1128 1286v-164h-645v-374h570v-164h-570v-420h645v-164h-987v1286h987z" />
<glyph unicode="F" horiz-adv-x="1114" d="M1067 1286v-164h-584v-397h531v-164h-531v-561h-342v1286h926z" />
<glyph unicode="G" horiz-adv-x="1351" d="M748 684h512v-666q-244 -47 -504 -47q-347 0 -511.5 163t-164.5 507q0 346 162 510t506 164q221 0 462 -84l-47 -170q-194 69 -336 69q-183 0 -280.5 -126.5t-97.5 -362.5q0 -239 90.5 -368.5t259.5 -129.5q122 0 143 9v366h-194v166z" />
<glyph unicode="H" horiz-adv-x="1472" d="M989 748v538h342v-1286h-342v584h-506v-584h-342v1286h342v-538h506z" />
<glyph unicode="I" horiz-adv-x="626" d="M485 1286v-1286h-344v1286h344z" />
<glyph unicode="J" horiz-adv-x="649" d="M166 1286h342v-1300q0 -191 -150 -295.5t-428 -104.5q-27 0 -39 6v164q8 -2 41 -2q115 0 174.5 41t59.5 121v1370z" />
<glyph unicode="K" horiz-adv-x="1411" d="M1448 0h-426l-490 608h-47v-608h-344v1286h344v-512h47l426 512h388l-510 -594z" />
<glyph unicode="L" horiz-adv-x="1165" d="M485 164h645v-164h-989v1286h344v-1122z" />
<glyph unicode="M" horiz-adv-x="1800" d="M1192 1286h393l129 -1286h-358l-78 993l-303 -993h-252l-295 991l-74 -991h-268l127 1286h420l274 -876z" />
<glyph unicode="N" horiz-adv-x="1525" d="M1169 1286h215v-1286h-448l-582 1006v-1006h-213v1286h447l581 -1005v1005z" />
<glyph unicode="O" horiz-adv-x="1552" d="M778 1315q333 0 516 -176t183 -496t-183 -496t-516 -176t-516.5 176t-183.5 496t183.5 496t516.5 176zM778 141q167 0 239.5 116t72.5 386q0 272 -72.5 389t-239.5 117q-169 0 -241 -116t-72 -390q0 -271 72 -386.5t241 -115.5z" />
<glyph unicode="P" horiz-adv-x="1366" d="M1319 913q0 -200 -185 -305.5t-538 -105.5h-111v-502h-344v1286h609q273 0 421 -97t148 -276zM975 911q0 97 -67.5 154t-184.5 57h-238v-456q259 0 374.5 57.5t115.5 187.5z" />
<glyph unicode="Q" horiz-adv-x="1552" d="M1477 639q0 -244 -115.5 -408t-327.5 -223q29 -49 87.5 -76.5t135.5 -27.5q33 0 37 2l-12 -189q-4 -2 -31 -2q-178 0 -318.5 68t-217.5 190q-306 19 -471.5 192t-165.5 474q0 320 182 495t516 175t517.5 -175t183.5 -495zM463 639q0 -270 72 -385t241 -115 q168 0 241 115.5t73 384.5q0 271 -73 387.5t-241 116.5q-169 0 -241 -116t-72 -388z" />
<glyph unicode="R" horiz-adv-x="1413" d="M1317 944q0 -123 -76 -219t-205 -137l336 -588h-393l-285 528q-93 -8 -211 -8v-520h-342v1286h607q275 0 422 -88t147 -254zM973 944q0 86 -65.5 132t-188.5 46h-236v-438h41q209 0 329 69.5t120 190.5z" />
<glyph unicode="S" horiz-adv-x="1245" d="M662 825q298 -77 419 -171t121 -253q0 -198 -172 -314t-467 -116q-245 0 -471 99l41 143q209 -76 381 -76q160 0 253 50.5t93 136.5q0 58 -63.5 95.5t-210.5 76.5q-134 36 -230 74.5t-153.5 76t-90.5 83t-44 87.5t-11 96q0 185 170 293.5t459 108.5q200 0 410 -88 l-54 -154q-194 78 -354 78q-141 0 -225 -42.5t-84 -113.5q0 -56 59 -92t224 -78z" />
<glyph unicode="T" horiz-adv-x="1253" d="M1221 1286v-164h-422v-1122h-342v1122h-424v164h1188z" />
<glyph unicode="U" horiz-adv-x="1495" d="M1022 1286h342v-895q0 -192 -167 -306t-449 -114q-283 0 -450 114t-167 306v895h342v-956q0 -93 72 -144t203 -51t202.5 50.5t71.5 144.5v956z" />
<glyph unicode="V" horiz-adv-x="1300" d="M860 0h-416l-415 1286h397l287 -1007l313 1007h240z" />
<glyph unicode="W" horiz-adv-x="1886" d="M1589 1286h248l-285 -1286h-403l-193 795l-186 -795h-424l-311 1286h389l201 -956l225 956h313l228 -954z" />
<glyph unicode="X" horiz-adv-x="1306" d="M1327 0h-428l-289 440l-329 -440h-301l495 631l-442 655h397l262 -391l291 391h289l-443 -577z" />
<glyph unicode="Y" horiz-adv-x="1275" d="M1249 1286l-440 -696v-590h-342v571l-426 715h395l260 -473l267 473h286z" />
<glyph unicode="Z" horiz-adv-x="1255" d="M1192 1286v-219l-739 -903h735v-164h-1153v203l776 919h-692v164h1073z" />
<glyph unicode="[" horiz-adv-x="665" d="M600 1133h-151v-1291h151v-151h-461v1595h461v-153z" />
<glyph unicode="\" horiz-adv-x="1056" d="M260 1286l766 -1286h-244l-751 1286h229z" />
<glyph unicode="]" horiz-adv-x="667" d="M217 1133h-154v153h465v-1595h-465v151h154v1291z" />
<glyph unicode="^" horiz-adv-x="956" d="M266 575h-217l336 711h186l334 -711h-219l-207 521z" />
<glyph unicode="_" horiz-adv-x="935" d="M0 -115h936v-176h-936v176z" />
<glyph unicode="`" horiz-adv-x="657" d="M346 1087l-242 226h293l176 -226h-227z" />
<glyph unicode="a" horiz-adv-x="1155" d="M1049 578v-533q-239 -74 -469 -74q-539 0 -539 301q0 292 594 301q18 2 90 2v80q0 123 -207 123q-165 0 -319 -43l-52 152q213 55 449 55q453 0 453 -364zM725 129v320q-61 0 -88 -3q-61 -3 -107.5 -11t-91 -26t-68.5 -53t-24 -86q0 -81 65 -119t162 -38q66 0 152 16z " />
<glyph unicode="b" horiz-adv-x="1214" d="M670 942q242 0 359.5 -119.5t117.5 -365.5q0 -486 -557 -486q-242 0 -471 74v1241h319v-383q140 39 232 39zM819 457q0 178 -42 258t-136 80q-96 0 -203 -39v-606q67 -31 148 -31q122 0 177.5 81t55.5 257z" />
<glyph unicode="c" horiz-adv-x="989" d="M68 457q0 232 139 358.5t393 126.5q181 0 352 -55l-53 -142q-139 33 -246 33q-132 0 -196 -79t-64 -242t64 -241.5t196 -78.5q116 0 246 31l53 -139q-177 -58 -352 -58q-254 0 -393 127t-139 359z" />
<glyph unicode="d" horiz-adv-x="1216" d="M1098 45q-230 -74 -471 -74q-275 0 -416 123.5t-141 362.5t120.5 362t356.5 123q108 0 229 -31v375h322v-1241zM631 119q85 0 145 31v614q-92 31 -201 31q-100 0 -140 -74.5t-40 -263.5q0 -187 53 -262.5t183 -75.5z" />
<glyph unicode="e" horiz-adv-x="1169" d="M1073 406h-678q2 -134 61.5 -202.5t174.5 -68.5q70 0 142 14.5t226 55.5l52 -144q-78 -31 -200.5 -60.5t-225.5 -29.5q-265 0 -410 127t-145 359t136 358.5t386 126.5q256 0 387 -122.5t133 -364.5q0 -49 -39 -49zM395 547h398q0 115 -50 178t-141 63q-98 0 -151.5 -62.5 t-55.5 -178.5z" />
<glyph unicode="f" horiz-adv-x="706" d="M565 1137q-63 0 -87.5 -29t-24.5 -90v-105h229v-178h-227v-735h-326v735h-100v178h100v82q0 320 373 320q77 0 155.5 -19.5t130.5 -48.5l-71 -133q-76 23 -152 23z" />
<glyph unicode="g" horiz-adv-x="1214" d="M1096 866v-862q0 -461 -545 -461q-167 0 -393 90l49 142q236 -68 332 -68q108 0 170.5 58t62.5 180v57q-138 -31 -227 -31q-241 0 -358 120t-117 366t136.5 365.5t416.5 119.5q240 0 473 -76zM573 119q85 0 203 31v610q-57 35 -145 35q-123 0 -180.5 -81t-57.5 -257 q0 -175 43 -256.5t137 -81.5z" />
<glyph unicode="h" horiz-adv-x="1236" d="M1124 0h-321v653q0 66 -48 95.5t-151 29.5q-87 0 -160 -24v-754h-321v1286h321v-395q122 51 248 51q222 0 327 -84t105 -264v-594z" />
<glyph unicode="i" horiz-adv-x="571" d="M446 1286v-199h-323v199h323zM446 913v-913h-323v913h323z" />
<glyph unicode="j" horiz-adv-x="587" d="M465 1286v-199h-326v199h326zM465 913v-1050q0 -320 -367 -320q-70 0 -144.5 18t-117.5 44l64 135q49 -19 139 -19q57 0 78.5 29.5t21.5 89.5v1073h326z" />
<glyph unicode="k" horiz-adv-x="1200" d="M793 485l430 -485h-410l-317 393h-50v-393h-323v1286h323v-727h50l299 354h370z" />
<glyph unicode="l" horiz-adv-x="583" d="M461 0h-338v1249l338 82v-1331z" />
<glyph unicode="m" horiz-adv-x="1816" d="M1704 0h-320v655q0 66 -38.5 95.5t-124.5 29.5q-69 0 -148 -43v-737h-319v657q0 64 -42.5 92.5t-136.5 28.5q-57 0 -139 -26v-752h-319v821q242 121 536 121q180 0 279 -86q176 86 350 86q218 0 320 -83t102 -261v-598z" />
<glyph unicode="n" horiz-adv-x="1232" d="M1120 0h-323v653q0 66 -48 95.5t-151 29.5q-73 0 -158 -26v-752h-323v821q245 121 559 121q228 0 336 -84t108 -264v-594z" />
<glyph unicode="o" horiz-adv-x="1251" d="M1184 457q0 -486 -557 -486t-557 486q0 485 557 485t557 -485zM858 457q0 181 -54 259.5t-177 78.5t-177.5 -78.5t-54.5 -259.5q0 -180 54.5 -259t177.5 -79t177 79t54 259z" />
<glyph unicode="p" horiz-adv-x="1212" d="M1145 457q0 -241 -120.5 -363.5t-356.5 -122.5q-103 0 -230 31v-430h-321v1294q232 76 471 76q557 0 557 -485zM819 457q0 178 -56 258t-179 80q-86 0 -146 -35v-610q115 -31 201 -31q94 0 137 80t43 258z" />
<glyph unicode="q" horiz-adv-x="1214" d="M625 942q239 0 471 -76v-1294h-320v430q-136 -31 -229 -31q-477 0 -477 486q0 485 555 485zM623 119q68 0 153 31v610q-55 35 -145 35q-120 0 -178 -83t-58 -255t55.5 -255t172.5 -83z" />
<glyph unicode="r" horiz-adv-x="849" d="M854 924l-102 -189q-60 43 -172 43q-77 0 -140 -24v-754h-323v821q236 121 547 121q120 0 190 -18z" />
<glyph unicode="s" horiz-adv-x="1009" d="M475 -29q-230 0 -401 54l41 153q193 -43 323 -43q213 0 213 111q0 39 -69 68t-203 59q-73 17 -127.5 38.5t-100 54.5t-69 81.5t-23.5 111.5q0 283 482 283q166 0 358 -61l-47 -148q-170 45 -270 45q-209 0 -209 -96q0 -41 67 -68t211 -61q57 -13 100 -27.5t84.5 -37.5 t67.5 -52t42 -70.5t16 -93.5q0 -301 -486 -301z" />
<glyph unicode="t" horiz-adv-x="745" d="M705 160l-17 -164q-86 -25 -213 -25q-352 0 -352 320v444h-100v178h100v250l326 60v-310h237v-178h-237v-467q0 -62 23 -89t77 -27q91 0 156 8z" />
<glyph unicode="u" horiz-adv-x="1234" d="M113 913h323v-639q0 -73 47 -106t152 -33q81 0 158 27v751h325v-817q-247 -125 -559 -125q-233 0 -339.5 83t-106.5 265v594z" />
<glyph unicode="v" horiz-adv-x="1132" d="M858 913h258l-371 -913h-356l-375 913h394l206 -637z" />
<glyph unicode="w" horiz-adv-x="1646" d="M1368 913h252l-293 -913h-317l-176 569l-189 -569h-307l-328 913h393l154 -587l193 587h268l194 -587z" />
<glyph unicode="x" horiz-adv-x="1097" d="M1102 0h-404l-200 272l-240 -272h-266l383 436l-352 477h374l187 -243l213 243h280l-366 -407z" />
<glyph unicode="y" horiz-adv-x="1073" d="M389 41l-373 872h375l189 -548l213 548h272l-594 -1341h-303z" />
<glyph unicode="z" horiz-adv-x="1036" d="M967 729l-504 -565h506v-164h-916v182l565 578h-528v153h877v-184z" />
<glyph unicode="{" horiz-adv-x="735" d="M659 -158h25v-151h-129q-346 0 -346 319v230q0 114 -32.5 151t-129.5 37v154q97 0 129.5 33.5t32.5 134.5v243q0 159 87.5 240.5t258.5 81.5h129v-154h-25q-73 0 -106 -49t-33 -158v-213q0 -94 -61 -166.5t-125 -72.5q61 0 123.5 -74t62.5 -166v-213q0 -109 33 -158 t106 -49z" />
<glyph unicode="|" horiz-adv-x="479" d="M342 -309h-203v1595h203v-1595z" />
<glyph unicode="}" horiz-adv-x="733" d="M76 -158q75 0 107 47.5t32 159.5v215q0 104 60 171t124 67q-63 0 -123.5 72.5t-60.5 168.5v213q0 112 -32 159.5t-107 47.5h-25v152h129q346 0 346 -320v-229q0 -113 32 -150.5t128 -37.5v-152q-97 0 -128.5 -33.5t-31.5 -134.5v-248q0 -319 -346 -319h-129v151h25z" />
<glyph unicode="~" horiz-adv-x="907" d="M756 610l61 -125q-47 -52 -94 -72t-121 -20q-77 0 -160 27q-84 26 -139 26q-52 0 -85.5 -12t-67.5 -43l-64 125q62 57 112 79.5t117 22.5q75 0 146 -30q53 -23 145 -23q55 0 87.5 10t62.5 35z" />
<glyph unicode="&#xa1;" horiz-adv-x="587" d="M135 1286h318v-223h-318v223zM475 0h-362l51 887h256z" />
<glyph unicode="&#xa2;" horiz-adv-x="1009" d="M901 170l51 -141q-125 -43 -266 -56v-188h-192v195q-207 26 -315.5 149t-108.5 332t108.5 332t315.5 149v215h192v-211q133 -9 266 -53l-51 -141q-134 32 -248 32q-258 0 -258 -323q0 -324 258 -324q103 0 248 33z" />
<glyph unicode="&#xa3;" horiz-adv-x="1150" d="M526 164h574v-164h-1028v166q100 0 138 39.5t38 142.5v268h-176v164h176v166q0 172 101.5 267.5t285.5 95.5q186 0 414 -64l-50 -168q-143 49 -243 49q-92 0 -130 -58t-38 -177v-111h311v-164h-311v-276q0 -104 -62 -176z" />
<glyph unicode="&#xa4;" horiz-adv-x="974" d="M76 229l104 109q-33 74 -33 151q0 83 39 156l-110 113l143 149l115 -121q68 33 139 33q91 0 164 -37l117 125l143 -149l-109 -111q46 -75 46 -158t-39 -153l102 -107l-143 -147l-105 108q-81 -43 -176 -43q-81 0 -154 39l-100 -104zM485 641q-59 0 -101 -46t-42 -112 q0 -63 42 -107t101 -44q65 0 110.5 44t45.5 107q0 66 -45.5 112t-110.5 46z" />
<glyph unicode="&#xa5;" horiz-adv-x="1275" d="M1227 1286l-338 -538h266v-164h-352v-97h352v-165h-352v-322h-342v322h-338v165h338v97h-338v164h244l-320 538h395l246 -450l254 450h285z" />
<glyph unicode="&#xa6;" horiz-adv-x="479" d="M391 586h-303v700h303v-700zM88 344h303v-772h-303v772z" />
<glyph unicode="&#xa7;" horiz-adv-x="1245" d="M1194 459q0 -154 -137 -266q63 -60 63 -168q0 -173 -153.5 -267t-434.5 -94q-190 0 -382 86l47 141q199 -75 335 -75q138 0 214.5 38t76.5 107q0 44 -66 83t-206 79q-191 54 -297.5 108t-153.5 121t-47 164q0 72 36.5 140t105.5 120q-72 63 -72 178q0 169 151 262t426 93 q181 0 381 -84l-49 -144q-175 74 -325 74q-136 0 -210.5 -36.5t-74.5 -102.5q0 -49 53 -79t211 -75q289 -82 398.5 -168.5t109.5 -234.5zM616 385q157 -45 258 -86q68 55 68 121q0 88 -334 182q-159 46 -243 80q-56 -53 -56 -119q0 -90 307 -178z" />
<glyph unicode="&#xa8;" horiz-adv-x="843" d="M356 1286v-199h-217v199h217zM711 1286v-199h-219v199h219z" />
<glyph unicode="&#xa9;" horiz-adv-x="1482" d="M1411 641q0 -140 -53 -265t-142.5 -213.5t-213 -140t-259.5 -51.5q-203 0 -355.5 85.5t-233 237t-80.5 347.5q0 140 52.5 264.5t142.5 212t213.5 138.5t260.5 51q184 0 337 -86t242 -239t89 -341zM1278 641q0 152 -70.5 279t-193.5 200.5t-271 73.5q-149 0 -273 -72.5 t-195.5 -199.5t-71.5 -281q0 -244 154 -401.5t393 -157.5q146 0 267.5 74.5t191 203t69.5 281.5zM799 387q79 0 182 41l27 -100q-128 -45 -254 -45q-174 0 -267.5 94t-93.5 270q0 175 94 269t267 94q117 0 254 -45l-27 -97q-98 39 -180 39q-98 0 -150.5 -67t-52.5 -193 t52 -193t149 -67z" />
<glyph unicode="&#xaa;" horiz-adv-x="794" d="M680 784q-134 -41 -274 -41q-318 0 -318 175q0 58 35 97t99 57t124.5 24t140.5 6v43q0 74 -118 74q-92 0 -187 -25l-30 88q123 33 262 33q131 0 198.5 -52.5t67.5 -166.5v-312zM487 1024h-45q-176 0 -176 -106q0 -49 38.5 -71t96.5 -22q23 0 86 11v188zM111 649h569v-114 h-569v114z" />
<glyph unicode="&#xab;" horiz-adv-x="964" d="M262 600l240 -313l-127 -111l-324 424l324 424l127 -111zM645 600l244 -313l-127 -111l-326 424l324 424l127 -111z" />
<glyph unicode="&#xac;" horiz-adv-x="1091" d="M975 690v-545h-223v349h-672v196h895z" />
<glyph unicode="&#xad;" horiz-adv-x="698" d="M106 551h486v-137h-486v137z" />
<glyph unicode="&#xae;" horiz-adv-x="1482" d="M1411 641q0 -140 -53 -265t-142.5 -213.5t-213 -140t-259.5 -51.5q-203 0 -355.5 85.5t-233 237t-80.5 347.5q0 188 89.5 341.5t242.5 240t337 86.5t336.5 -86t242 -239.5t89.5 -342.5zM1278 641q0 153 -70.5 280.5t-193.5 201t-271 73.5q-149 0 -273 -72.5t-195.5 -200 t-71.5 -282.5q0 -244 154 -401.5t393 -157.5q146 0 267.5 74.5t191 203t69.5 281.5zM1034 797q0 -60 -36 -106.5t-105 -69.5l168 -295h-193l-141 266q-24 -4 -111 -4v-262h-165v643h301q138 0 210 -43.5t72 -128.5zM864 799q0 88 -129 88h-119v-219h21q227 3 227 131z" />
<glyph unicode="&#xaf;" horiz-adv-x="1050" d="M242 1104v182h622v-182h-622z" />
<glyph unicode="&#xb0;" horiz-adv-x="716" d="M358 1315q136 0 214.5 -85t78.5 -233q0 -146 -78 -228.5t-215 -82.5t-214.5 82.5t-77.5 228.5q0 148 78 233t214 85zM240 997q0 -129 26 -181t92 -52t92.5 52t26.5 181q0 133 -26.5 186.5t-92.5 53.5t-92 -53t-26 -187z" />
<glyph unicode="&#xb1;" horiz-adv-x="1067" d="M973 553h-328v-274h-219v274h-332v195h332v262h219v-262h328v-195zM973 14h-879v193h879v-193z" />
<glyph unicode="&#xb4;" horiz-adv-x="636" d="M352 1087h-227l180 226h293z" />
<glyph unicode="&#xb6;" horiz-adv-x="1325" d="M43 905q0 184 107.5 282.5t308.5 98.5h354v-1714h-260v913h-76q-211 0 -322.5 108t-111.5 312zM907 -428v1714h260v-1714h-260z" />
<glyph unicode="&#xb7;" horiz-adv-x="528" d="M422 393h-316v225h316v-225z" />
<glyph unicode="&#xb8;" horiz-adv-x="1298" d="M670 -348l16 86q63 -17 94 -17q49 0 68.5 15.5t19.5 44.5t-20 45t-70 16q-36 0 -92 -18l-16 84q66 18 137 18q221 0 221 -145q0 -148 -223 -148q-51 0 -135 19z" />
<glyph unicode="&#xba;" horiz-adv-x="839" d="M420 745q-151 0 -238.5 68t-87.5 219q0 139 83 211t243 72q147 0 236 -69.5t89 -213.5q0 -287 -325 -287zM553 1032q0 33 -2 57.5t-10 52.5t-22 45.5t-39 29.5t-60 12q-78 0 -106.5 -50t-28.5 -147q0 -45 4.5 -76.5t17.5 -63t41.5 -47.5t71.5 -16q34 0 58.5 11t39 28.5 t22.5 45.5t10.5 55t2.5 63zM123 535v114h594v-114h-594z" />
<glyph unicode="&#xbb;" horiz-adv-x="962" d="M702 600l-241 313l127 111l323 -424l-323 -424l-127 111zM317 600l-241 313l125 111l325 -424l-323 -424l-127 111z" />
<glyph unicode="&#xbc;" horiz-adv-x="1601" d="M467 1286v-756h-252v588h-172v84l264 84h160zM1051 1286h188l-752 -1286h-202zM1454 264h92v-106h-92v-158h-209v158h-405v121l374 485h240v-500zM1245 264v361l-274 -361h274z" />
<glyph unicode="&#xbd;" horiz-adv-x="1714" d="M1049 1286h188l-748 -1286h-198zM467 1286v-756h-252v588h-172v84l264 84h160zM1647 567q0 -67 -60 -139q-34 -41 -125.5 -132.5t-177.5 -166.5h348v-129h-643v158l357 344q49 49 49 80q0 25 -28 38t-71 13q-119 0 -252 -86l-34 129q142 92 313 92q324 0 324 -201z" />
<glyph unicode="&#xbe;" horiz-adv-x="1822" d="M549 950q98 -25 143 -72t45 -122q0 -228 -366 -228q-171 0 -324 88l37 132q125 -84 246 -84q60 0 96.5 29.5t36.5 76.5q0 107 -211 107h-53v129h55q60 0 99 6.5t68.5 30.5t29.5 67q0 70 -119 70q-105 0 -205 -66l-37 125q132 76 307 76q154 0 224.5 -45.5t70.5 -145.5 q0 -59 -34.5 -100t-108.5 -74zM1274 1286h190l-753 -1286h-201zM1681 264h93v-106h-93v-158h-208v158h-406v121l375 485h239v-500zM1473 264v361l-277 -361h277z" />
<glyph unicode="&#xbf;" horiz-adv-x="1083" d="M836 1286v-223h-320v223h320zM1042 76q-225 -105 -442 -105q-245 0 -397 93.5t-152 244.5q0 59 18 105.5t53 79t71 54t86 42.5q48 20 79.5 35t69.5 40t60 51t37.5 64.5t15.5 83.5v25h270v-41q0 -71 -20.5 -129.5t-60 -103.5t-77.5 -74.5t-94 -63.5q-84 -49 -126 -90 t-42 -98q0 -68 69 -110t179 -42q75 0 172 25.5t182 66.5z" />
<glyph unicode="&#xc0;" horiz-adv-x="1400" d="M582 1456l-242 223h293l176 -223h-227zM987 0l-104 315h-510l-111 -315h-239l448 1286h444l476 -1286h-404zM430 481h399l-196 590z" />
<glyph unicode="&#xc1;" horiz-adv-x="1400" d="M815 1456h-227l176 223h293zM987 0l-104 315h-510l-111 -315h-239l448 1286h444l476 -1286h-404zM430 481h399l-196 590z" />
<glyph unicode="&#xc2;" horiz-adv-x="1400" d="M1034 1456h-221l-113 113l-110 -113h-221l178 223h309zM987 0l-104 315h-510l-111 -315h-239l448 1286h444l476 -1286h-404zM430 481h399l-196 590z" />
<glyph unicode="&#xc3;" horiz-adv-x="1400" d="M995 1673l60 -125q-47 -52 -93.5 -72t-119.5 -20q-84 0 -154 25q-72 26 -147 26q-51 0 -85 -12t-69 -43l-61 125q61 58 111 81t116 23q67 0 160 -34q58 -21 131 -21q53 0 85.5 10t65.5 37zM987 0l-104 315h-510l-111 -315h-239l448 1286h444l476 -1286h-404zM430 481h399 l-196 590z" />
<glyph unicode="&#xc4;" horiz-adv-x="1400" d="M625 1675v-219h-248v219h248zM1012 1675v-219h-246v219h246zM987 0l-104 315h-510l-111 -315h-239l448 1286h444l476 -1286h-404zM430 481h399l-196 590z" />
<glyph unicode="&#xc5;" horiz-adv-x="1400" d="M987 0l-104 315h-510l-111 -315h-239l448 1286h45q-49 36 -49 100q0 142 233 142q104 0 169 -37.5t65 -104.5q0 -66 -49 -100h30l476 -1286h-404zM786 1386q0 22 -2 35t-10 27.5t-26.5 21.5t-47.5 7q-52 0 -69 -22t-17 -69q0 -22 2.5 -35.5t10.5 -27.5t26 -20.5t47 -6.5 q53 0 69.5 23t16.5 67zM430 481h399l-196 590z" />
<glyph unicode="&#xc6;" horiz-adv-x="1847" d="M1767 1286v-164h-645v-374h570v-164h-570v-420h645v-164h-987v315h-385l-137 -315h-276l546 1286h1239zM748 1122l-281 -641h313v641h-32z" />
<glyph unicode="&#xc7;" horiz-adv-x="1249" d="M1159 236l49 -183q-248 -82 -463 -82q-310 0 -490.5 181.5t-180.5 492.5q0 309 180 489.5t489 180.5q99 0 224.5 -22t240.5 -60l-49 -172q-198 74 -336 74q-184 0 -280.5 -125.5t-96.5 -364.5q0 -238 94.5 -361.5t276.5 -123.5q156 0 342 76zM551 -348l16 86 q63 -17 95 -17q49 0 68.5 15.5t19.5 44.5q0 61 -91 61q-37 0 -92 -18l-16 84q66 18 137 18q221 0 221 -145q0 -148 -223 -148q-51 0 -135 19z" />
<glyph unicode="&#xc8;" horiz-adv-x="1208" d="M578 1456l-242 223h293l176 -223h-227zM1128 1286v-164h-645v-374h570v-164h-570v-420h645v-164h-987v1286h987z" />
<glyph unicode="&#xc9;" horiz-adv-x="1208" d="M727 1450h-227l176 223h293zM1128 1286v-164h-645v-374h570v-164h-570v-420h645v-164h-987v1286h987z" />
<glyph unicode="&#xca;" horiz-adv-x="1208" d="M967 1456h-222l-112 113l-111 -113h-221l178 223h309zM1128 1286v-164h-645v-374h570v-164h-570v-420h645v-164h-987v1286h987z" />
<glyph unicode="&#xcb;" horiz-adv-x="1208" d="M569 1675v-219h-247v219h247zM956 1675v-219h-245v219h245zM1128 1286v-164h-645v-374h570v-164h-570v-420h645v-164h-987v1286h987z" />
<glyph unicode="&#xcc;" horiz-adv-x="626" d="M229 1456l-241 223h293l176 -223h-228zM485 1286v-1286h-344v1286h344z" />
<glyph unicode="&#xcd;" horiz-adv-x="626" d="M424 1450h-227l176 223h293zM485 1286v-1286h-344v1286h344z" />
<glyph unicode="&#xce;" horiz-adv-x="626" d="M647 1456h-221l-113 113l-110 -113h-221l178 223h309zM485 1286v-1286h-344v1286h344z" />
<glyph unicode="&#xcf;" horiz-adv-x="626" d="M244 1675v-219h-248v219h248zM631 1675v-219h-246v219h246zM485 1286v-1286h-344v1286h344z" />
<glyph unicode="&#xd0;" horiz-adv-x="1482" d="M41 741h131v545h567q308 0 489 -174t181 -473q0 -294 -181 -466.5t-489 -172.5h-567v559h-131v182zM514 164h178q168 5 256 126t88 349q0 237 -91.5 360t-268.5 123h-162v-381h270v-182h-270v-395z" />
<glyph unicode="&#xd1;" horiz-adv-x="1525" d="M1071 1673l59 -125q-47 -52 -93.5 -72t-118.5 -20q-84 0 -154 25q-72 26 -148 26q-51 0 -84.5 -12t-68.5 -43l-62 125q61 58 111.5 81t116.5 23t159 -34q58 -21 132 -21q53 0 85.5 10t65.5 37zM1169 1286h215v-1286h-448l-582 1006v-1006h-213v1286h447l581 -1005v1005z " />
<glyph unicode="&#xd2;" horiz-adv-x="1552" d="M680 1456l-242 223h293l176 -223h-227zM778 1315q333 0 516 -176t183 -496t-183 -496t-516 -176t-516.5 176t-183.5 496t183.5 496t516.5 176zM778 141q167 0 239.5 116t72.5 386q0 272 -72.5 389t-239.5 117q-169 0 -241 -116t-72 -390q0 -271 72 -386.5t241 -115.5z " />
<glyph unicode="&#xd3;" horiz-adv-x="1552" d="M860 1450h-227l176 223h293zM778 1315q333 0 516 -176t183 -496t-183 -496t-516 -176t-516.5 176t-183.5 496t183.5 496t516.5 176zM778 141q167 0 239.5 116t72.5 386q0 272 -72.5 389t-239.5 117q-169 0 -241 -116t-72 -390q0 -271 72 -386.5t241 -115.5z" />
<glyph unicode="&#xd4;" horiz-adv-x="1552" d="M1110 1456h-221l-113 113l-110 -113h-222l179 223h309zM778 1315q333 0 516 -176t183 -496t-183 -496t-516 -176t-516.5 176t-183.5 496t183.5 496t516.5 176zM778 141q167 0 239.5 116t72.5 386q0 272 -72.5 389t-239.5 117q-169 0 -241 -116t-72 -390q0 -271 72 -386.5 t241 -115.5z" />
<glyph unicode="&#xd5;" horiz-adv-x="1552" d="M1081 1673l60 -125q-47 -52 -93.5 -72t-119.5 -20q-84 0 -154 25q-72 26 -147 26q-51 0 -85 -12t-69 -43l-61 125q61 58 111 81t116 23q67 0 160 -34q58 -21 131 -21q53 0 85.5 10t65.5 37zM778 1315q333 0 516 -176t183 -496t-183 -496t-516 -176t-516.5 176t-183.5 496 t183.5 496t516.5 176zM778 141q167 0 239.5 116t72.5 386q0 272 -72.5 389t-239.5 117q-169 0 -241 -116t-72 -390q0 -271 72 -386.5t241 -115.5z" />
<glyph unicode="&#xd6;" horiz-adv-x="1552" d="M707 1675v-219h-248v219h248zM1094 1675v-219h-246v219h246zM778 1315q333 0 516 -176t183 -496t-183 -496t-516 -176t-516.5 176t-183.5 496t183.5 496t516.5 176zM778 141q167 0 239.5 116t72.5 386q0 272 -72.5 389t-239.5 117q-169 0 -241 -116t-72 -390 q0 -271 72 -386.5t241 -115.5z" />
<glyph unicode="&#xd7;" horiz-adv-x="1050" d="M90 760l129 131l307 -303l301 299l134 -135l-302 -297l297 -297l-131 -135l-297 301l-307 -304l-131 136l303 301z" />
<glyph unicode="&#xd8;" horiz-adv-x="1558" d="M780 1315q269 0 443 -117l84 88h168l-158 -168q162 -176 162 -475q0 -320 -183 -496t-516 -176q-260 0 -434 111l-76 -82h-180l156 166q-166 172 -166 477q0 320 183.5 496t516.5 176zM467 643q0 -126 16 -227l553 583q-36 77 -99 113.5t-157 36.5q-169 0 -241 -116 t-72 -390zM780 141q167 0 239.5 116t72.5 386q0 125 -15 217l-549 -586q71 -133 252 -133z" />
<glyph unicode="&#xd9;" horiz-adv-x="1495" d="M678 1456l-242 223h293l176 -223h-227zM1022 1286h342v-895q0 -192 -167 -306t-449 -114q-283 0 -450 114t-167 306v895h342v-956q0 -93 72 -144t203 -51t202.5 50.5t71.5 144.5v956z" />
<glyph unicode="&#xda;" horiz-adv-x="1495" d="M850 1456h-227l176 223h293zM1022 1286h342v-895q0 -192 -167 -306t-449 -114q-283 0 -450 114t-167 306v895h342v-956q0 -93 72 -144t203 -51t202.5 50.5t71.5 144.5v956z" />
<glyph unicode="&#xdb;" horiz-adv-x="1495" d="M1081 1456h-221l-112 113l-111 -113h-221l178 223h309zM1022 1286h342v-895q0 -192 -167 -306t-449 -114q-283 0 -450 114t-167 306v895h342v-956q0 -93 72 -144t203 -51t202.5 50.5t71.5 144.5v956z" />
<glyph unicode="&#xdc;" horiz-adv-x="1495" d="M678 1675v-219h-248v219h248zM1065 1675v-219h-246v219h246zM1022 1286h342v-895q0 -192 -167 -306t-449 -114q-283 0 -450 114t-167 306v895h342v-956q0 -93 72 -144t203 -51t202.5 50.5t71.5 144.5v956z" />
<glyph unicode="&#xdd;" horiz-adv-x="1275" d="M819 1456h-227l176 223h293zM1249 1286l-440 -696v-590h-342v571l-426 715h395l260 -473l267 473h286z" />
<glyph unicode="&#xde;" horiz-adv-x="1378" d="M500 1286v-233h274q112 0 207 -21.5t171 -64.5t119.5 -115.5t43.5 -167.5q0 -73 -23 -132.5t-62.5 -101.5t-100 -74t-126.5 -52.5t-153 -33.5t-168 -19t-182 -9v-262h-359v1286h359zM723 887h-223v-455q64 1 108 3.5t97.5 9t89.5 16t72.5 26.5t57.5 40.5t34.5 57.5 t13.5 77q0 116 -69 170.5t-181 54.5z" />
<glyph unicode="&#xdf;" horiz-adv-x="1429" d="M987 711q170 -23 274.5 -122.5t104.5 -238.5q0 -173 -159 -276t-425 -103q-60 0 -157 9v161q65 -6 116 -6q124 0 196.5 63.5t72.5 172.5q0 94 -91 162.5t-221 68.5h-73v164q122 19 190 70.5t68 126.5q0 77 -61 125.5t-158 48.5q-96 0 -155.5 -50t-59.5 -129v-958h-326 v874q0 209 138.5 325t389.5 116q246 0 399.5 -89.5t153.5 -232.5q0 -97 -58.5 -173.5t-158.5 -108.5z" />
<glyph unicode="&#xe0;" horiz-adv-x="1155" d="M518 1087l-242 226h293l176 -226h-227zM1049 578v-533q-239 -74 -469 -74q-539 0 -539 301q0 292 594 301q18 2 90 2v80q0 123 -207 123q-165 0 -319 -43l-52 152q213 55 449 55q453 0 453 -364zM725 129v320q-61 0 -88 -3q-61 -3 -107.5 -11t-91 -26t-68.5 -53t-24 -86 q0 -81 65 -119t162 -38q66 0 152 16z" />
<glyph unicode="&#xe1;" horiz-adv-x="1155" d="M684 1087h-227l180 226h293zM1049 578v-533q-239 -74 -469 -74q-539 0 -539 301q0 292 594 301q18 2 90 2v80q0 123 -207 123q-165 0 -319 -43l-52 152q213 55 449 55q453 0 453 -364zM725 129v320q-61 0 -88 -3q-61 -3 -107.5 -11t-91 -26t-68.5 -53t-24 -86 q0 -81 65 -119t162 -38q66 0 152 16z" />
<glyph unicode="&#xe2;" horiz-adv-x="1155" d="M926 1087h-224l-110 117l-113 -117h-221l180 226h307zM1049 578v-533q-239 -74 -469 -74q-539 0 -539 301q0 292 594 301q18 2 90 2v80q0 123 -207 123q-165 0 -319 -43l-52 152q213 55 449 55q453 0 453 -364zM725 129v320q-61 0 -88 -3q-61 -3 -107.5 -11t-91 -26 t-68.5 -53t-24 -86q0 -81 65 -119t162 -38q66 0 152 16z" />
<glyph unicode="&#xe3;" horiz-adv-x="1155" d="M893 1305l63 -125q-47 -53 -95.5 -74t-121.5 -21q-64 0 -145 25q-93 29 -154 29q-49 0 -82.5 -12.5t-70.5 -43.5l-62 125q62 58 113 80.5t115 22.5q73 0 159 -33q58 -21 131 -21q55 0 88 10.5t62 37.5zM1049 578v-533q-239 -74 -469 -74q-539 0 -539 301q0 292 594 301 q18 2 90 2v80q0 123 -207 123q-165 0 -319 -43l-52 152q213 55 449 55q453 0 453 -364zM725 129v320q-61 0 -88 -3q-61 -3 -107.5 -11t-91 -26t-68.5 -53t-24 -86q0 -81 65 -119t162 -38q66 0 152 16z" />
<glyph unicode="&#xe4;" horiz-adv-x="1155" d="M535 1286v-199h-218v199h218zM889 1286v-199h-219v199h219zM1049 578v-533q-239 -74 -469 -74q-539 0 -539 301q0 292 594 301q18 2 90 2v80q0 123 -207 123q-165 0 -319 -43l-52 152q213 55 449 55q453 0 453 -364zM725 129v320q-61 0 -88 -3q-61 -3 -107.5 -11t-91 -26 t-68.5 -53t-24 -86q0 -81 65 -119t162 -38q66 0 152 16z" />
<glyph unicode="&#xe5;" horiz-adv-x="1155" d="M834 1260q6 -18 6 -39q0 -142 -234 -142q-235 0 -235 142q0 139 235 139q204 0 228 -100zM690 1221q0 51 -18.5 70.5t-65.5 19.5q-50 0 -69 -19.5t-19 -70.5q0 -52 19 -72.5t69 -20.5q47 0 65.5 20.5t18.5 72.5zM1049 578v-533q-239 -74 -469 -74q-539 0 -539 301 q0 292 594 301q18 2 90 2v80q0 123 -207 123q-165 0 -319 -43l-52 152q213 55 449 55q453 0 453 -364zM725 129v320q-61 0 -88 -3q-61 -3 -107.5 -11t-91 -26t-68.5 -53t-24 -86q0 -81 65 -119t162 -38q66 0 152 16z" />
<glyph unicode="&#xe6;" horiz-adv-x="1830" d="M1735 406h-678q3 -271 235 -271q70 0 143 14.5t226 55.5l51 -144q-78 -31 -200.5 -60.5t-225.5 -29.5q-175 0 -299 56q-210 -56 -407 -56q-539 0 -539 301q0 292 594 301q18 2 90 2v80q0 123 -207 123q-165 0 -319 -43l-52 152q213 55 449 55q213 0 328 -84 q128 84 329 84q257 0 388.5 -123t132.5 -364q0 -49 -39 -49zM1057 547h397q0 115 -49.5 178t-140.5 63q-98 0 -151.5 -62.5t-55.5 -178.5zM725 129v320q-61 0 -88 -3q-61 -3 -107.5 -11t-91 -26t-68.5 -53t-24 -86q0 -81 65 -119t162 -38q66 0 152 16z" />
<glyph unicode="&#xe7;" horiz-adv-x="989" d="M68 457q0 232 139 358.5t393 126.5q181 0 352 -55l-53 -142q-139 33 -246 33q-132 0 -196 -79t-64 -242t64 -241.5t196 -78.5q116 0 246 31l53 -139q-177 -58 -352 -58q-254 0 -393 127t-139 359zM393 -348l17 86q63 -17 94 -17q49 0 68.5 15.5t19.5 44.5t-20 45t-70 16 q-37 0 -92 -18l-17 84q66 18 137 18q222 0 222 -145q0 -148 -224 -148q-51 0 -135 19z" />
<glyph unicode="&#xe8;" horiz-adv-x="1169" d="M510 1087l-242 226h293l176 -226h-227zM1073 406h-678q2 -134 61.5 -202.5t174.5 -68.5q70 0 142 14.5t226 55.5l52 -144q-78 -31 -200.5 -60.5t-225.5 -29.5q-265 0 -410 127t-145 359t136 358.5t386 126.5q256 0 387 -122.5t133 -364.5q0 -49 -39 -49zM395 547h398 q0 115 -50 178t-141 63q-98 0 -151.5 -62.5t-55.5 -178.5z" />
<glyph unicode="&#xe9;" horiz-adv-x="1169" d="M702 1087h-227l180 226h293zM1073 406h-678q2 -134 61.5 -202.5t174.5 -68.5q70 0 142 14.5t226 55.5l52 -144q-78 -31 -200.5 -60.5t-225.5 -29.5q-265 0 -410 127t-145 359t136 358.5t386 126.5q256 0 387 -122.5t133 -364.5q0 -49 -39 -49zM395 547h398q0 115 -50 178 t-141 63q-98 0 -151.5 -62.5t-55.5 -178.5z" />
<glyph unicode="&#xea;" horiz-adv-x="1169" d="M924 1087h-224l-110 117l-113 -117h-221l180 226h307zM1073 406h-678q2 -134 61.5 -202.5t174.5 -68.5q70 0 142 14.5t226 55.5l52 -144q-78 -31 -200.5 -60.5t-225.5 -29.5q-265 0 -410 127t-145 359t136 358.5t386 126.5q256 0 387 -122.5t133 -364.5q0 -49 -39 -49z M395 547h398q0 115 -50 178t-141 63q-98 0 -151.5 -62.5t-55.5 -178.5z" />
<glyph unicode="&#xeb;" horiz-adv-x="1169" d="M522 1286v-199h-217v199h217zM877 1286v-199h-220v199h220zM1073 406h-678q2 -134 61.5 -202.5t174.5 -68.5q70 0 142 14.5t226 55.5l52 -144q-78 -31 -200.5 -60.5t-225.5 -29.5q-265 0 -410 127t-145 359t136 358.5t386 126.5q256 0 387 -122.5t133 -364.5 q0 -49 -39 -49zM395 547h398q0 115 -50 178t-141 63q-98 0 -151.5 -62.5t-55.5 -178.5z" />
<glyph unicode="&#xec;" horiz-adv-x="571" d="M203 1087l-242 226h293l176 -226h-227zM446 913v-913h-323v913h323z" />
<glyph unicode="&#xed;" horiz-adv-x="571" d="M391 1087h-227l180 226h293zM446 913v-913h-323v913h323z" />
<glyph unicode="&#xee;" horiz-adv-x="571" d="M621 1087h-224l-110 117l-113 -117h-221l180 226h307zM446 913v-913h-323v913h323z" />
<glyph unicode="&#xef;" horiz-adv-x="571" d="M217 1286v-199h-217v199h217zM571 1286v-199h-219v199h219zM446 913v-913h-323v913h323z" />
<glyph unicode="&#xf0;" horiz-adv-x="1310" d="M604 -29q-250 0 -392 120t-142 331q0 187 124.5 293t344.5 106q216 0 344 -119q-7 151 -33 238l-193 -63l-43 120l179 60q-76 92 -230 92q-162 0 -334 -66l-47 150q223 82 408 82q292 0 452 -174l177 59l43 -121l-140 -47q103 -177 103 -448q0 -306 -158 -459.5 t-463 -153.5zM618 651q-107 0 -168 -62t-61 -171q0 -133 63 -209t173 -76q120 0 187 75.5t67 209.5q0 109 -69 171t-192 62z" />
<glyph unicode="&#xf1;" horiz-adv-x="1232" d="M909 1305l64 -125q-47 -53 -95.5 -74t-121.5 -21q-65 0 -146 25q-93 29 -153 29q-49 0 -83 -12.5t-71 -43.5l-61 125q62 58 112.5 80.5t114.5 22.5q74 0 160 -33q58 -21 131 -21q55 0 87.5 10.5t61.5 37.5zM1120 0h-323v653q0 66 -48 95.5t-151 29.5q-73 0 -158 -26v-752 h-323v821q245 121 559 121q228 0 336 -84t108 -264v-594z" />
<glyph unicode="&#xf2;" horiz-adv-x="1251" d="M551 1087l-242 226h293l176 -226h-227zM1184 457q0 -486 -557 -486t-557 486q0 485 557 485t557 -485zM858 457q0 181 -54 259.5t-177 78.5t-177.5 -78.5t-54.5 -259.5q0 -180 54.5 -259t177.5 -79t177 79t54 259z" />
<glyph unicode="&#xf3;" horiz-adv-x="1251" d="M719 1087h-227l180 226h293zM1184 457q0 -486 -557 -486t-557 486q0 485 557 485t557 -485zM858 457q0 181 -54 259.5t-177 78.5t-177.5 -78.5t-54.5 -259.5q0 -180 54.5 -259t177.5 -79t177 79t54 259z" />
<glyph unicode="&#xf4;" horiz-adv-x="1251" d="M961 1087h-224l-110 117l-113 -117h-221l180 226h307zM1184 457q0 -486 -557 -486t-557 486q0 485 557 485t557 -485zM858 457q0 181 -54 259.5t-177 78.5t-177.5 -78.5t-54.5 -259.5q0 -180 54.5 -259t177.5 -79t177 79t54 259z" />
<glyph unicode="&#xf5;" horiz-adv-x="1251" d="M930 1307l63 -125q-47 -53 -95.5 -74t-121.5 -21q-64 0 -145 25q-93 29 -154 29q-49 0 -82.5 -12.5t-70.5 -43.5l-62 125q62 58 112.5 80.5t114.5 22.5q74 0 160 -33q55 -20 131 -20q55 0 88 10t62 37zM1184 459q0 -486 -557 -486t-557 486q0 485 557 485t557 -485z M858 459q0 181 -54 259.5t-177 78.5t-177.5 -78.5t-54.5 -259.5q0 -180 54.5 -259t177.5 -79t177 79t54 259z" />
<glyph unicode="&#xf6;" horiz-adv-x="1251" d="M559 1286v-199h-217v199h217zM913 1286v-199h-219v199h219zM1184 457q0 -486 -557 -486t-557 486q0 485 557 485t557 -485zM858 457q0 181 -54 259.5t-177 78.5t-177.5 -78.5t-54.5 -259.5q0 -180 54.5 -259t177.5 -79t177 79t54 259z" />
<glyph unicode="&#xf7;" horiz-adv-x="995" d="M342 666v225h315v-225h-315zM72 358v203h852v-203h-852zM342 31v223h315v-223h-315z" />
<glyph unicode="&#xf8;" horiz-adv-x="1259" d="M1188 457q0 -486 -557 -486q-230 0 -367 84l-59 -55h-144l127 117q-114 120 -114 340q0 485 557 485q239 0 373 -88l65 59h131l-127 -116q115 -121 115 -340zM399 457q0 -67 11 -142l413 375q-53 105 -192 105q-123 0 -177.5 -78.5t-54.5 -259.5zM862 457q0 72 -10 137 l-410 -377q53 -98 189 -98q123 0 177 79t54 259z" />
<glyph unicode="&#xf9;" horiz-adv-x="1234" d="M557 1087l-242 226h293l176 -226h-227zM113 913h323v-639q0 -73 47 -106t152 -33q81 0 158 27v751h325v-817q-247 -125 -559 -125q-233 0 -339.5 83t-106.5 265v594z" />
<glyph unicode="&#xfa;" horiz-adv-x="1234" d="M719 1087h-227l180 226h293zM113 913h323v-639q0 -73 47 -106t152 -33q81 0 158 27v751h325v-817q-247 -125 -559 -125q-233 0 -339.5 83t-106.5 265v594z" />
<glyph unicode="&#xfb;" horiz-adv-x="1234" d="M948 1087h-223l-111 117l-112 -117h-221l180 226h307zM113 913h323v-639q0 -73 47 -106t152 -33q81 0 158 27v751h325v-817q-247 -125 -559 -125q-233 0 -339.5 83t-106.5 265v594z" />
<glyph unicode="&#xfc;" horiz-adv-x="1234" d="M545 1286v-199h-217v199h217zM899 1286v-199h-219v199h219zM113 913h323v-639q0 -73 47 -106t152 -33q81 0 158 27v751h325v-817q-247 -125 -559 -125q-233 0 -339.5 83t-106.5 265v594z" />
<glyph unicode="&#xfd;" horiz-adv-x="1073" d="M666 1087h-228l180 226h293zM389 41l-373 872h375l189 -548l213 548h272l-594 -1341h-303z" />
<glyph unicode="&#xfe;" horiz-adv-x="1218" d="M1151 457q0 -241 -120.5 -363.5t-356.5 -122.5q-103 0 -230 31v-430h-321v1731h321v-369q65 8 150 8q557 0 557 -485zM825 457q0 178 -56 258t-179 80q-86 0 -146 -35v-610q115 -31 201 -31q94 0 137 80t43 258z" />
<glyph unicode="&#xff;" horiz-adv-x="1073" d="M510 1286v-199h-217v199h217zM864 1286v-199h-219v199h219zM389 41l-373 872h375l189 -548l213 548h272l-594 -1341h-303z" />
<glyph unicode="&#x100;" horiz-adv-x="1400" d="M379 1456v201h622v-201h-622zM987 0l-104 315h-510l-111 -315h-239l448 1286h444l476 -1286h-404zM430 481h399l-196 590z" />
<glyph unicode="&#x101;" horiz-adv-x="1155" d="M287 1104v182h622v-182h-622zM1049 578v-533q-239 -74 -469 -74q-539 0 -539 301q0 292 594 301q18 2 90 2v80q0 123 -207 123q-165 0 -319 -43l-52 152q213 55 449 55q453 0 453 -364zM725 129v320q-61 0 -88 -3q-61 -3 -107.5 -11t-91 -26t-68.5 -53t-24 -86 q0 -81 65 -119t162 -38q66 0 152 16z" />
<glyph unicode="&#x102;" horiz-adv-x="1400" d="M1012 1729q-27 -132 -100 -206.5t-214 -74.5q-273 0 -319 281h123q23 -57 73 -86t117 -29q153 0 199 115h121zM987 0l-104 315h-510l-111 -315h-239l448 1286h444l476 -1286h-404zM430 481h399l-196 590z" />
<glyph unicode="&#x103;" horiz-adv-x="1155" d="M926 1360q-29 -133 -103 -207t-213 -74q-272 0 -317 281h123q22 -57 73 -85t117 -28q152 0 199 113h121zM1049 578v-533q-239 -74 -469 -74q-539 0 -539 301q0 292 594 301q18 2 90 2v80q0 123 -207 123q-165 0 -319 -43l-52 152q213 55 449 55q453 0 453 -364zM725 129 v320q-61 0 -88 -3q-61 -3 -107.5 -11t-91 -26t-68.5 -53t-24 -86q0 -81 65 -119t162 -38q66 0 152 16z" />
<glyph unicode="&#x104;" horiz-adv-x="1400" d="M987 0l-104 315h-510l-111 -315h-239l448 1286h444l476 -1286h-76q-139 -125 -139 -238q0 -37 31.5 -59t86.5 -22h172v-113q-109 -25 -249 -25q-122 0 -185 47.5t-63 139.5q0 38 14 78t58.5 93t115.5 99h-170zM430 481h399l-196 590z" />
<glyph unicode="&#x105;" horiz-adv-x="1155" d="M1049 578v-533q-49 -15 -99 -27q-84 -71 -121.5 -132.5t-37.5 -123.5q0 -37 31.5 -59t86.5 -22h172v-113q-109 -25 -250 -25q-122 0 -184.5 47.5t-62.5 139.5q0 56 36 122t123 128q-119 -9 -163 -9q-539 0 -539 301q0 292 594 301q18 2 90 2v80q0 123 -207 123 q-165 0 -319 -43l-52 152q213 55 449 55q453 0 453 -364zM725 129v320q-61 0 -88 -3q-61 -3 -107.5 -11t-91 -26t-68.5 -53t-24 -86q0 -81 65 -119t162 -38q66 0 152 16z" />
<glyph unicode="&#x106;" horiz-adv-x="1249" d="M803 1450h-228l177 223h292zM1159 236l49 -183q-248 -82 -463 -82q-310 0 -490.5 181.5t-180.5 492.5q0 309 180 489.5t489 180.5q99 0 224.5 -22t240.5 -60l-49 -172q-198 74 -336 74q-184 0 -280.5 -125.5t-96.5 -364.5q0 -238 94.5 -361.5t276.5 -123.5q156 0 342 76z " />
<glyph unicode="&#x107;" horiz-adv-x="989" d="M643 1087h-227l180 226h293zM68 457q0 232 139 358.5t393 126.5q181 0 352 -55l-53 -142q-139 33 -246 33q-132 0 -196 -79t-64 -242t64 -241.5t196 -78.5q116 0 246 31l53 -139q-177 -58 -352 -58q-254 0 -393 127t-139 359z" />
<glyph unicode="&#x108;" horiz-adv-x="1249" d="M1063 1456h-221l-113 113l-111 -113h-221l178 223h310zM1159 236l49 -183q-248 -82 -463 -82q-310 0 -490.5 181.5t-180.5 492.5q0 309 180 489.5t489 180.5q99 0 224.5 -22t240.5 -60l-49 -172q-198 74 -336 74q-184 0 -280.5 -125.5t-96.5 -364.5q0 -238 94.5 -361.5 t276.5 -123.5q156 0 342 76z" />
<glyph unicode="&#x109;" horiz-adv-x="989" d="M901 1087h-223l-111 117l-112 -117h-222l181 226h307zM68 457q0 232 139 358.5t393 126.5q181 0 352 -55l-53 -142q-139 33 -246 33q-132 0 -196 -79t-64 -242t64 -241.5t196 -78.5q116 0 246 31l53 -139q-177 -58 -352 -58q-254 0 -393 127t-139 359z" />
<glyph unicode="&#x10a;" horiz-adv-x="1249" d="M518 1456v219h348v-219h-348zM1159 236l49 -183q-248 -82 -463 -82q-310 0 -490.5 181.5t-180.5 492.5q0 309 180 489.5t489 180.5q99 0 224.5 -22t240.5 -60l-49 -172q-198 74 -336 74q-184 0 -280.5 -125.5t-96.5 -364.5q0 -238 94.5 -361.5t276.5 -123.5q156 0 342 76 z" />
<glyph unicode="&#x10b;" horiz-adv-x="989" d="M694 1309v-215h-323v215h323zM68 457q0 232 139 358.5t393 126.5q181 0 352 -55l-53 -142q-139 33 -246 33q-132 0 -196 -79t-64 -242t64 -241.5t196 -78.5q116 0 246 31l53 -139q-177 -58 -352 -58q-254 0 -393 127t-139 359z" />
<glyph unicode="&#x10c;" horiz-adv-x="1249" d="M1057 1679l-178 -223h-308l-178 223h219l113 -114l113 114h219zM1159 236l49 -183q-248 -82 -463 -82q-310 0 -490.5 181.5t-180.5 492.5q0 309 180 489.5t489 180.5q99 0 224.5 -22t240.5 -60l-49 -172q-198 74 -336 74q-184 0 -280.5 -125.5t-96.5 -364.5 q0 -238 94.5 -361.5t276.5 -123.5q156 0 342 76z" />
<glyph unicode="&#x10d;" horiz-adv-x="989" d="M891 1313l-180 -226h-310l-178 226h223l111 -115l111 115h223zM68 457q0 232 139 358.5t393 126.5q181 0 352 -55l-53 -142q-139 33 -246 33q-132 0 -196 -79t-64 -242t64 -241.5t196 -78.5q116 0 246 31l53 -139q-177 -58 -352 -58q-254 0 -393 127t-139 359z" />
<glyph unicode="&#x10e;" horiz-adv-x="1452" d="M1008 1679l-179 -223h-307l-178 223h219l113 -114l112 114h220zM141 1286h568q308 0 488.5 -174t180.5 -473q0 -295 -180.5 -467t-488.5 -172h-568v1286zM483 164h179q168 5 256 126t88 349q0 236 -92 359.5t-269 123.5h-162v-958z" />
<glyph unicode="&#x10f;" horiz-adv-x="1409" d="M1386 870h-184l47 416h295zM1098 45q-230 -74 -471 -74q-275 0 -416 123.5t-141 362.5t120.5 362t356.5 123q108 0 229 -31v375h322v-1241zM631 119q85 0 145 31v614q-92 31 -201 31q-100 0 -140 -74.5t-40 -263.5q0 -187 53 -262.5t183 -75.5z" />
<glyph unicode="&#x110;" horiz-adv-x="1482" d="M41 741h131v545h567q308 0 489 -174t181 -473q0 -294 -181 -466.5t-489 -172.5h-567v559h-131v182zM514 164h178q168 5 256 126t88 349q0 237 -91.5 360t-268.5 123h-162v-381h270v-182h-270v-395z" />
<glyph unicode="&#x111;" horiz-adv-x="1216" d="M1098 45q-230 -74 -471 -74q-275 0 -416 123.5t-141 362.5t120.5 362t356.5 123q108 0 229 -31v138h-321v118h321v119h322v-119h127v-118h-127v-1004zM631 119q85 0 145 31v614q-92 31 -201 31q-100 0 -140 -74.5t-40 -263.5q0 -187 53 -262.5t183 -75.5z" />
<glyph unicode="&#x112;" horiz-adv-x="1208" d="M336 1456v201h622v-201h-622zM1128 1286v-164h-645v-374h570v-164h-570v-420h645v-164h-987v1286h987z" />
<glyph unicode="&#x113;" horiz-adv-x="1169" d="M279 1104v182h622v-182h-622zM1073 406h-678q2 -134 61.5 -202.5t174.5 -68.5q70 0 142 14.5t226 55.5l52 -144q-78 -31 -200.5 -60.5t-225.5 -29.5q-265 0 -410 127t-145 359t136 358.5t386 126.5q256 0 387 -122.5t133 -364.5q0 -49 -39 -49zM395 547h398 q0 115 -50 178t-141 63q-98 0 -151.5 -62.5t-55.5 -178.5z" />
<glyph unicode="&#x114;" horiz-adv-x="1208" d="M956 1729q-27 -133 -99.5 -207t-213.5 -74q-273 0 -319 281h122q23 -57 73.5 -86t117.5 -29q153 0 199 115h120zM1128 1286v-164h-645v-374h570v-164h-570v-420h645v-164h-987v1286h987z" />
<glyph unicode="&#x115;" horiz-adv-x="1169" d="M920 1360q-29 -133 -103 -207t-213 -74q-272 0 -317 281h123q22 -57 73 -85t117 -28q152 0 199 113h121zM1073 406h-678q2 -134 61.5 -202.5t174.5 -68.5q70 0 142 14.5t226 55.5l52 -144q-78 -31 -200.5 -60.5t-225.5 -29.5q-265 0 -410 127t-145 359t136 358.5 t386 126.5q256 0 387 -122.5t133 -364.5q0 -49 -39 -49zM395 547h398q0 115 -50 178t-141 63q-98 0 -151.5 -62.5t-55.5 -178.5z" />
<glyph unicode="&#x116;" horiz-adv-x="1208" d="M475 1456v219h348v-219h-348zM1128 1286v-164h-645v-374h570v-164h-570v-420h645v-164h-987v1286h987z" />
<glyph unicode="&#x117;" horiz-adv-x="1169" d="M770 1309v-215h-324v215h324zM1073 406h-678q2 -134 61.5 -202.5t174.5 -68.5q70 0 142 14.5t226 55.5l52 -144q-78 -31 -200.5 -60.5t-225.5 -29.5q-265 0 -410 127t-145 359t136 358.5t386 126.5q256 0 387 -122.5t133 -364.5q0 -49 -39 -49zM395 547h398 q0 115 -50 178t-141 63q-98 0 -151.5 -62.5t-55.5 -178.5z" />
<glyph unicode="&#x118;" horiz-adv-x="1208" d="M1128 1286v-164h-645v-374h570v-164h-570v-420h645v-164h-75q-140 -126 -140 -238q0 -37 32 -59t87 -22h172v-113q-109 -25 -250 -25q-122 0 -184.5 47.5t-62.5 139.5q0 38 14 78t58.5 93t115.5 99h-754v1286h987z" />
<glyph unicode="&#x119;" horiz-adv-x="1169" d="M1073 406h-678q2 -134 61.5 -202.5t174.5 -68.5q70 0 142 14.5t226 55.5l52 -144q-86 -33 -207 -61q-139 -125 -139 -238q0 -37 31.5 -59t86.5 -22h172v-113q-109 -25 -250 -25q-122 0 -184.5 47.5t-62.5 139.5q0 130 147 241h-20q-265 0 -410 127t-145 359t136 358.5 t386 126.5q256 0 387 -122.5t133 -364.5q0 -49 -39 -49zM395 547h398q0 115 -50 178t-141 63q-98 0 -151.5 -62.5t-55.5 -178.5z" />
<glyph unicode="&#x11a;" horiz-adv-x="1208" d="M981 1679l-178 -223h-307l-179 223h220l112 -114l113 114h219zM1128 1286v-164h-645v-374h570v-164h-570v-420h645v-164h-987v1286h987z" />
<glyph unicode="&#x11b;" horiz-adv-x="1169" d="M922 1313l-181 -226h-309l-178 226h223l111 -115l110 115h224zM1073 406h-678q2 -134 61.5 -202.5t174.5 -68.5q70 0 142 14.5t226 55.5l52 -144q-78 -31 -200.5 -60.5t-225.5 -29.5q-265 0 -410 127t-145 359t136 358.5t386 126.5q256 0 387 -122.5t133 -364.5 q0 -49 -39 -49zM395 547h398q0 115 -50 178t-141 63q-98 0 -151.5 -62.5t-55.5 -178.5z" />
<glyph unicode="&#x11c;" horiz-adv-x="1351" d="M1055 1456h-221l-113 113l-111 -113h-221l178 223h310zM748 684h512v-666q-244 -47 -504 -47q-347 0 -511.5 163t-164.5 507q0 346 162 510t506 164q221 0 462 -84l-47 -170q-194 69 -336 69q-183 0 -280.5 -126.5t-97.5 -362.5q0 -239 90.5 -368.5t259.5 -129.5 q122 0 143 9v366h-194v166z" />
<glyph unicode="&#x11d;" horiz-adv-x="1214" d="M967 1087h-224l-110 117l-113 -117h-221l180 226h307zM1096 866v-862q0 -461 -545 -461q-167 0 -393 90l49 142q236 -68 332 -68q108 0 170.5 58t62.5 180v57q-138 -31 -227 -31q-241 0 -358 120t-117 366t136.5 365.5t416.5 119.5q240 0 473 -76zM573 119q85 0 203 31 v610q-57 35 -145 35q-123 0 -180.5 -81t-57.5 -257q0 -175 43 -256.5t137 -81.5z" />
<glyph unicode="&#x11e;" horiz-adv-x="1351" d="M1038 1729q-27 -133 -99.5 -207t-213.5 -74q-273 0 -319 281h122q23 -57 73.5 -86t117.5 -29q153 0 199 115h120zM748 684h512v-666q-244 -47 -504 -47q-347 0 -511.5 163t-164.5 507q0 346 162 510t506 164q221 0 462 -84l-47 -170q-194 69 -336 69 q-183 0 -280.5 -126.5t-97.5 -362.5q0 -239 90.5 -368.5t259.5 -129.5q122 0 143 9v366h-194v166z" />
<glyph unicode="&#x11f;" horiz-adv-x="1214" d="M938 1360q-29 -133 -102.5 -207t-212.5 -74q-273 0 -318 281h123q22 -57 73 -85t117 -28q152 0 199 113h121zM1096 866v-862q0 -461 -545 -461q-167 0 -393 90l49 142q236 -68 332 -68q108 0 170.5 58t62.5 180v57q-138 -31 -227 -31q-241 0 -358 120t-117 366 t136.5 365.5t416.5 119.5q240 0 473 -76zM573 119q85 0 203 31v610q-57 35 -145 35q-123 0 -180.5 -81t-57.5 -257q0 -175 43 -256.5t137 -81.5z" />
<glyph unicode="&#x120;" horiz-adv-x="1351" d="M537 1456v219h348v-219h-348zM748 684h512v-666q-244 -47 -504 -47q-347 0 -511.5 163t-164.5 507q0 346 162 510t506 164q221 0 462 -84l-47 -170q-194 69 -336 69q-183 0 -280.5 -126.5t-97.5 -362.5q0 -239 90.5 -368.5t259.5 -129.5q122 0 143 9v366h-194v166z" />
<glyph unicode="&#x121;" horiz-adv-x="1214" d="M770 1309v-215h-324v215h324zM1096 866v-862q0 -461 -545 -461q-167 0 -393 90l49 142q236 -68 332 -68q108 0 170.5 58t62.5 180v57q-138 -31 -227 -31q-241 0 -358 120t-117 366t136.5 365.5t416.5 119.5q240 0 473 -76zM573 119q85 0 203 31v610q-57 35 -145 35 q-123 0 -180.5 -81t-57.5 -257q0 -175 43 -256.5t137 -81.5z" />
<glyph unicode="&#x122;" horiz-adv-x="1351" d="M748 684h512v-666q-244 -47 -504 -47q-347 0 -511.5 163t-164.5 507q0 346 162 510t506 164q221 0 462 -84l-47 -170q-194 69 -336 69q-183 0 -280.5 -126.5t-97.5 -362.5q0 -239 90.5 -368.5t259.5 -129.5q122 0 143 9v366h-194v166zM743 -555h-184l47 416h295z" />
<glyph unicode="&#x123;" horiz-adv-x="1214" d="M635 1489h182l-47 -418h-289zM1096 866v-862q0 -461 -545 -461q-167 0 -393 90l49 142q236 -68 332 -68q108 0 170.5 58t62.5 180v57q-138 -31 -227 -31q-241 0 -358 120t-117 366t136.5 365.5t416.5 119.5q240 0 473 -76zM573 119q85 0 203 31v610q-57 35 -145 35 q-123 0 -180.5 -81t-57.5 -257q0 -175 43 -256.5t137 -81.5z" />
<glyph unicode="&#x124;" horiz-adv-x="1472" d="M1071 1456h-221l-113 113l-110 -113h-221l178 223h309zM989 748v538h342v-1286h-342v584h-506v-584h-342v1286h342v-538h506z" />
<glyph unicode="&#x125;" horiz-adv-x="1236" d="M958 1456h-221l-112 113l-111 -113h-221l178 223h309zM1124 0h-321v653q0 66 -48 95.5t-151 29.5q-87 0 -160 -24v-754h-321v1286h321v-395q122 51 248 51q222 0 327 -84t105 -264v-594z" />
<glyph unicode="&#x126;" horiz-adv-x="1548" d="M41 952v133h137v201h342v-201h506v201h342v-201h139v-133h-139v-952h-342v584h-506v-584h-342v952h-137zM1026 748v204h-506v-204h506z" />
<glyph unicode="&#x127;" horiz-adv-x="1236" d="M-8 1038v119h131v129h321v-129h320v-119h-320v-147q122 51 248 51q222 0 327 -84t105 -264v-594h-321v653q0 66 -48 95.5t-151 29.5q-87 0 -160 -24v-754h-321v1038h-131z" />
<glyph unicode="&#x128;" horiz-adv-x="626" d="M621 1673l59 -125q-47 -52 -93.5 -72t-119.5 -20q-84 0 -154 25q-72 26 -147 26q-51 0 -85 -12t-69 -43l-61 125q61 58 111 81t116 23q67 0 160 -34q58 -21 131 -21q54 0 87 10.5t65 36.5zM485 1286v-1286h-344v1286h344z" />
<glyph unicode="&#x129;" horiz-adv-x="571" d="M588 1305l63 -125q-47 -53 -95.5 -74t-121.5 -21q-64 0 -145 25q-93 29 -154 29q-49 0 -82.5 -12.5t-70.5 -43.5l-62 125q62 58 112.5 80.5t114.5 22.5q74 0 160 -33q58 -21 131 -21q55 0 88 10.5t62 37.5zM446 913v-913h-323v913h323z" />
<glyph unicode="&#x12a;" horiz-adv-x="626" d="M2 1456v201h623v-201h-623zM485 1286v-1286h-344v1286h344z" />
<glyph unicode="&#x12b;" horiz-adv-x="571" d="M-27 1104v182h623v-182h-623zM446 913v-913h-323v913h323z" />
<glyph unicode="&#x12c;" horiz-adv-x="626" d="M633 1729q-27 -132 -100 -206.5t-214 -74.5q-273 0 -319 281h123q23 -57 73 -86t117 -29q153 0 199 115h121zM485 1286v-1286h-344v1286h344z" />
<glyph unicode="&#x12d;" horiz-adv-x="571" d="M602 1360q-29 -133 -102.5 -207t-212.5 -74q-273 0 -318 281h123q22 -57 73.5 -85t117.5 -28q151 0 198 113h121zM446 913v-913h-323v913h323z" />
<glyph unicode="&#x12e;" horiz-adv-x="626" d="M485 1286v-1286h-69q-140 -126 -140 -238q0 -37 32 -59t87 -22h172v-113q-109 -25 -250 -25q-122 0 -184.5 47.5t-62.5 139.5q0 38 14 78t58.5 93t115.5 99h-117v1286h344z" />
<glyph unicode="&#x12f;" horiz-adv-x="571" d="M446 1286v-199h-323v199h323zM446 913v-913h-59q-70 -64 -102.5 -120t-32.5 -113q0 -37 32 -59.5t87 -22.5h172v-113q-109 -25 -250 -25q-122 0 -185 47.5t-63 139.5q0 60 41 129.5t141 136.5h-104v913h323z" />
<glyph unicode="&#x130;" horiz-adv-x="626" d="M139 1456v219h348v-219h-348zM485 1286v-1286h-344v1286h344z" />
<glyph unicode="&#x131;" horiz-adv-x="571" d="M446 913v-913h-323v913h323z" />
<glyph unicode="&#x132;" horiz-adv-x="1275" d="M485 1286v-1286h-344v1286h344zM793 1286h342v-1300q0 -191 -150 -295.5t-428 -104.5q-27 0 -39 6v164q8 -2 41 -2q115 0 174.5 41t59.5 121v1370z" />
<glyph unicode="&#x133;" horiz-adv-x="1157" d="M446 1286v-199h-323v199h323zM1032 1286v-199h-325v199h325zM446 913v-913h-323v913h323zM1032 913v-1050q0 -320 -366 -320q-70 0 -145 18t-118 44l64 135q49 -19 139 -19q57 0 79 29.5t22 89.5v1073h325z" />
<glyph unicode="&#x134;" horiz-adv-x="649" d="M672 1456h-221l-113 113l-111 -113h-221l178 223h310zM166 1286h342v-1300q0 -191 -150 -295.5t-428 -104.5q-27 0 -39 6v164q8 -2 41 -2q115 0 174.5 41t59.5 121v1370z" />
<glyph unicode="&#x135;" horiz-adv-x="587" d="M637 1102h-221l-113 112l-110 -112h-222l179 223h309zM465 913v-1050q0 -320 -367 -320q-70 0 -144.5 18t-117.5 44l64 135q49 -19 139 -19q57 0 78.5 29.5t21.5 89.5v1073h326z" />
<glyph unicode="&#x136;" horiz-adv-x="1411" d="M1448 0h-426l-490 608h-47v-608h-344v1286h344v-512h47l426 512h388l-510 -594zM733 -555h-184l47 416h295z" />
<glyph unicode="&#x137;" horiz-adv-x="1200" d="M793 485l430 -485h-410l-317 393h-50v-393h-323v1286h323v-727h50l299 354h370zM616 -555h-184l47 416h295z" />
<glyph unicode="&#x138;" horiz-adv-x="1200" d="M793 485l430 -485h-410l-317 393h-50v-393h-323v913h323v-354h50l297 354h370z" />
<glyph unicode="&#x139;" horiz-adv-x="1165" d="M440 1450h-227l176 223h293zM485 164h645v-164h-989v1286h344v-1122z" />
<glyph unicode="&#x13a;" horiz-adv-x="583" d="M399 1456h-227l176 223h293zM461 0h-338v1249l338 82v-1331z" />
<glyph unicode="&#x13b;" horiz-adv-x="1165" d="M485 164h645v-164h-989v1286h344v-1122zM623 -555h-185l47 416h295z" />
<glyph unicode="&#x13c;" horiz-adv-x="583" d="M461 0h-338v1249l338 82v-1331zM279 -555h-185l47 416h295z" />
<glyph unicode="&#x13d;" horiz-adv-x="1175" d="M907 870h-184l47 416h295zM485 164h645v-164h-989v1286h344v-1122z" />
<glyph unicode="&#x13e;" horiz-adv-x="772" d="M461 0h-338v1249l338 82v-1331zM745 870h-184l47 416h295z" />
<glyph unicode="&#x141;" horiz-adv-x="1239" d="M63 418v180l152 68v620h344v-498l199 97v-180l-199 -99v-442h645v-164h-989v485z" />
<glyph unicode="&#x142;" horiz-adv-x="739" d="M59 436v178l146 64v571l338 82v-543l143 60v-178l-143 -60v-610h-338v500z" />
<glyph unicode="&#x143;" horiz-adv-x="1525" d="M895 1450h-227l176 223h293zM1169 1286h215v-1286h-448l-582 1006v-1006h-213v1286h447l581 -1005v1005z" />
<glyph unicode="&#x144;" horiz-adv-x="1232" d="M684 1087h-227l180 226h293zM1120 0h-323v653q0 66 -48 95.5t-151 29.5q-73 0 -158 -26v-752h-323v821q245 121 559 121q228 0 336 -84t108 -264v-594z" />
<glyph unicode="&#x145;" horiz-adv-x="1525" d="M1169 1286h215v-1286h-448l-582 1006v-1006h-213v1286h447l581 -1005v1005zM762 -555h-184l47 416h295z" />
<glyph unicode="&#x146;" horiz-adv-x="1232" d="M1120 0h-323v653q0 66 -48 95.5t-151 29.5q-73 0 -158 -26v-752h-323v821q245 121 559 121q228 0 336 -84t108 -264v-594zM612 -555h-184l47 416h295z" />
<glyph unicode="&#x147;" horiz-adv-x="1525" d="M1133 1679l-179 -223h-307l-178 223h219l113 -114l112 114h220zM1169 1286h215v-1286h-448l-582 1006v-1006h-213v1286h447l581 -1005v1005z" />
<glyph unicode="&#x148;" horiz-adv-x="1232" d="M952 1313l-180 -226h-309l-178 226h223l110 -115l111 115h223zM1120 0h-323v653q0 66 -48 95.5t-151 29.5q-73 0 -158 -26v-752h-323v821q245 121 559 121q228 0 336 -84t108 -264v-594z" />
<glyph unicode="&#x149;" horiz-adv-x="1486" d="M217 870h-184l47 416h295zM1374 0h-323v653q0 66 -48 95.5t-151 29.5q-73 0 -158 -26v-752h-323v821q245 121 559 121q228 0 336 -84t108 -264v-594z" />
<glyph unicode="&#x14a;" horiz-adv-x="1525" d="M1169 1286h215v-1423q0 -320 -256 -320q-71 0 -145 18t-117 44l64 135q49 -19 137 -19q57 0 79.5 30t22.5 89v160h-233l-582 1006v-1006h-213v1286h447l581 -1005v1005z" />
<glyph unicode="&#x14b;" horiz-adv-x="1232" d="M676 942q228 0 336 -84t108 -264v-731q0 -320 -366 -320q-71 0 -145 18t-117 44l63 135q52 -19 137 -19q58 0 81.5 30t23.5 89v813q0 66 -48 95.5t-151 29.5q-73 0 -158 -26v-752h-323v821q245 121 559 121z" />
<glyph unicode="&#x14c;" horiz-adv-x="1552" d="M465 1456v201h622v-201h-622zM778 1315q333 0 516 -176t183 -496t-183 -496t-516 -176t-516.5 176t-183.5 496t183.5 496t516.5 176zM778 141q167 0 239.5 116t72.5 386q0 272 -72.5 389t-239.5 117q-169 0 -241 -116t-72 -390q0 -271 72 -386.5t241 -115.5z" />
<glyph unicode="&#x14d;" horiz-adv-x="1251" d="M315 1104v182h623v-182h-623zM1184 457q0 -486 -557 -486t-557 486q0 485 557 485t557 -485zM858 457q0 181 -54 259.5t-177 78.5t-177.5 -78.5t-54.5 -259.5q0 -180 54.5 -259t177.5 -79t177 79t54 259z" />
<glyph unicode="&#x14e;" horiz-adv-x="1552" d="M1094 1729q-27 -132 -100 -206.5t-214 -74.5q-273 0 -319 281h123q23 -57 73 -86t117 -29q153 0 199 115h121zM778 1315q333 0 516 -176t183 -496t-183 -496t-516 -176t-516.5 176t-183.5 496t183.5 496t516.5 176zM778 141q167 0 239.5 116t72.5 386q0 272 -72.5 389 t-239.5 117q-169 0 -241 -116t-72 -390q0 -271 72 -386.5t241 -115.5z" />
<glyph unicode="&#x14f;" horiz-adv-x="1251" d="M944 1360q-29 -133 -102.5 -207t-212.5 -74q-273 0 -318 281h123q22 -57 73.5 -85t117.5 -28q151 0 198 113h121zM1184 457q0 -486 -557 -486t-557 486q0 485 557 485t557 -485zM858 457q0 181 -54 259.5t-177 78.5t-177.5 -78.5t-54.5 -259.5q0 -180 54.5 -259 t177.5 -79t177 79t54 259z" />
<glyph unicode="&#x150;" horiz-adv-x="1552" d="M676 1456h-225l145 223h293zM1073 1456h-225l145 223h293zM778 1315q333 0 516 -176t183 -496t-183 -496t-516 -176t-516.5 176t-183.5 496t183.5 496t516.5 176zM778 141q167 0 239.5 116t72.5 386q0 272 -72.5 389t-239.5 117q-169 0 -241 -116t-72 -390 q0 -271 72 -386.5t241 -115.5z" />
<glyph unicode="&#x151;" horiz-adv-x="1251" d="M532 1087h-225l146 226h292zM930 1087h-225l145 226h293zM1184 457q0 -486 -557 -486t-557 486q0 485 557 485t557 -485zM858 457q0 181 -54 259.5t-177 78.5t-177.5 -78.5t-54.5 -259.5q0 -180 54.5 -259t177.5 -79t177 79t54 259z" />
<glyph unicode="&#x152;" horiz-adv-x="2019" d="M1939 1286v-164h-645v-374h570v-164h-570v-420h645v-164h-925q-110 -29 -236 -29q-345 0 -522.5 171t-177.5 501t177.5 501t522.5 171q127 0 240 -29h921zM465 643q0 -502 313 -502q107 0 174 49v910q-67 49 -174 49q-313 0 -313 -506z" />
<glyph unicode="&#x153;" horiz-adv-x="1964" d="M1868 406h-678q3 -271 235 -271q70 0 143 14.5t226 55.5l51 -144q-78 -31 -200.5 -60.5t-225.5 -29.5q-247 0 -389 111q-141 -111 -403 -111q-557 0 -557 486q0 485 557 485q262 0 397 -106q133 106 362 106q257 0 388.5 -123t132.5 -364q0 -49 -39 -49zM858 457 q0 181 -54 259.5t-177 78.5t-177.5 -78.5t-54.5 -259.5q0 -180 54.5 -259t177.5 -79t177 79t54 259zM1190 547h397q0 115 -49.5 178t-140.5 63q-98 0 -151.5 -62.5t-55.5 -178.5z" />
<glyph unicode="&#x154;" horiz-adv-x="1413" d="M797 1456h-228l176 223h293zM1317 944q0 -123 -76 -219t-205 -137l336 -588h-393l-285 528q-93 -8 -211 -8v-520h-342v1286h607q275 0 422 -88t147 -254zM973 944q0 86 -65.5 132t-188.5 46h-236v-438h41q209 0 329 69.5t120 190.5z" />
<glyph unicode="&#x155;" horiz-adv-x="849" d="M518 1087h-227l180 226h293zM854 924l-102 -189q-60 43 -172 43q-77 0 -140 -24v-754h-323v821q236 121 547 121q120 0 190 -18z" />
<glyph unicode="&#x156;" horiz-adv-x="1413" d="M1317 944q0 -123 -76 -219t-205 -137l336 -588h-393l-285 528q-93 -8 -211 -8v-520h-342v1286h607q275 0 422 -88t147 -254zM973 944q0 86 -65.5 132t-188.5 46h-236v-438h41q209 0 329 69.5t120 190.5zM721 -555h-184l47 416h295z" />
<glyph unicode="&#x157;" horiz-adv-x="849" d="M854 924l-102 -189q-60 43 -172 43q-77 0 -140 -24v-754h-323v821q236 121 547 121q120 0 190 -18zM371 -555h-185l47 416h295z" />
<glyph unicode="&#x158;" horiz-adv-x="1413" d="M1053 1679l-179 -223h-307l-178 223h219l113 -114l113 114h219zM1317 944q0 -123 -76 -219t-205 -137l336 -588h-393l-285 528q-93 -8 -211 -8v-520h-342v1286h607q275 0 422 -88t147 -254zM973 944q0 86 -65.5 132t-188.5 46h-236v-438h41q209 0 329 69.5t120 190.5z " />
<glyph unicode="&#x159;" horiz-adv-x="849" d="M795 1313l-181 -226h-309l-178 226h223l111 -115l110 115h224zM854 924l-102 -189q-60 43 -172 43q-77 0 -140 -24v-754h-323v821q236 121 547 121q120 0 190 -18z" />
<glyph unicode="&#x15a;" horiz-adv-x="1245" d="M713 1456h-228l177 223h292zM662 825q298 -77 419 -171t121 -253q0 -198 -172 -314t-467 -116q-245 0 -471 99l41 143q209 -76 381 -76q160 0 253 50.5t93 136.5q0 58 -63.5 95.5t-210.5 76.5q-134 36 -230 74.5t-153.5 76t-90.5 83t-44 87.5t-11 96q0 185 170 293.5 t459 108.5q200 0 410 -88l-54 -154q-194 78 -354 78q-141 0 -225 -42.5t-84 -113.5q0 -56 59 -92t224 -78z" />
<glyph unicode="&#x15b;" horiz-adv-x="1009" d="M588 1087h-228l181 226h293zM475 -29q-230 0 -401 54l41 153q193 -43 323 -43q213 0 213 111q0 39 -69 68t-203 59q-73 17 -127.5 38.5t-100 54.5t-69 81.5t-23.5 111.5q0 283 482 283q166 0 358 -61l-47 -148q-170 45 -270 45q-209 0 -209 -96q0 -41 67 -68t211 -61 q57 -13 100 -27.5t84.5 -37.5t67.5 -52t42 -70.5t16 -93.5q0 -301 -486 -301z" />
<glyph unicode="&#x15c;" horiz-adv-x="1245" d="M969 1456h-221l-113 113l-111 -113h-221l178 223h310zM662 825q298 -77 419 -171t121 -253q0 -198 -172 -314t-467 -116q-245 0 -471 99l41 143q209 -76 381 -76q160 0 253 50.5t93 136.5q0 58 -63.5 95.5t-210.5 76.5q-134 36 -230 74.5t-153.5 76t-90.5 83t-44 87.5 t-11 96q0 185 170 293.5t459 108.5q200 0 410 -88l-54 -154q-194 78 -354 78q-141 0 -225 -42.5t-84 -113.5q0 -56 59 -92t224 -78z" />
<glyph unicode="&#x15d;" horiz-adv-x="1009" d="M838 1087h-224l-110 117l-113 -117h-221l180 226h307zM475 -29q-230 0 -401 54l41 153q193 -43 323 -43q213 0 213 111q0 39 -69 68t-203 59q-73 17 -127.5 38.5t-100 54.5t-69 81.5t-23.5 111.5q0 283 482 283q166 0 358 -61l-47 -148q-170 45 -270 45q-209 0 -209 -96 q0 -41 67 -68t211 -61q57 -13 100 -27.5t84.5 -37.5t67.5 -52t42 -70.5t16 -93.5q0 -301 -486 -301z" />
<glyph unicode="&#x15e;" horiz-adv-x="1245" d="M662 825q298 -77 419 -171t121 -253q0 -198 -172 -314t-467 -116q-245 0 -471 99l41 143q209 -76 381 -76q160 0 253 50.5t93 136.5q0 58 -63.5 95.5t-210.5 76.5q-134 36 -230 74.5t-153.5 76t-90.5 83t-44 87.5t-11 96q0 185 170 293.5t459 108.5q200 0 410 -88 l-54 -154q-194 78 -354 78q-141 0 -225 -42.5t-84 -113.5q0 -56 59 -92t224 -78zM459 -348l16 86q63 -17 94 -17q49 0 68.5 15.5t19.5 44.5t-20 45t-70 16q-37 0 -92 -18l-16 84q66 18 137 18q221 0 221 -145q0 -148 -223 -148q-51 0 -135 19z" />
<glyph unicode="&#x15f;" horiz-adv-x="1009" d="M475 -29q-230 0 -401 54l41 153q193 -43 323 -43q213 0 213 111q0 39 -69 68t-203 59q-73 17 -127.5 38.5t-100 54.5t-69 81.5t-23.5 111.5q0 283 482 283q166 0 358 -61l-47 -148q-170 45 -270 45q-209 0 -209 -96q0 -41 67 -68t211 -61q57 -13 100 -27.5t84.5 -37.5 t67.5 -52t42 -70.5t16 -93.5q0 -301 -486 -301zM336 -348l16 86q63 -17 94 -17q89 0 89 60q0 61 -91 61q-36 0 -92 -18l-16 84q66 18 137 18q221 0 221 -145q0 -148 -223 -148q-51 0 -135 19z" />
<glyph unicode="&#x160;" horiz-adv-x="1245" d="M971 1679l-178 -223h-308l-178 223h219l113 -114l113 114h219zM662 825q298 -77 419 -171t121 -253q0 -198 -172 -314t-467 -116q-245 0 -471 99l41 143q209 -76 381 -76q160 0 253 50.5t93 136.5q0 58 -63.5 95.5t-210.5 76.5q-134 36 -230 74.5t-153.5 76t-90.5 83 t-44 87.5t-11 96q0 185 170 293.5t459 108.5q200 0 410 -88l-54 -154q-194 78 -354 78q-141 0 -225 -42.5t-84 -113.5q0 -56 59 -92t224 -78z" />
<glyph unicode="&#x161;" horiz-adv-x="1009" d="M846 1313l-180 -226h-310l-178 226h223l111 -115l111 115h223zM475 -29q-230 0 -401 54l41 153q193 -43 323 -43q213 0 213 111q0 39 -69 68t-203 59q-73 17 -127.5 38.5t-100 54.5t-69 81.5t-23.5 111.5q0 283 482 283q166 0 358 -61l-47 -148q-170 45 -270 45 q-209 0 -209 -96q0 -41 67 -68t211 -61q57 -13 100 -27.5t84.5 -37.5t67.5 -52t42 -70.5t16 -93.5q0 -301 -486 -301z" />
<glyph unicode="&#x162;" horiz-adv-x="1253" d="M1221 1286v-164h-422v-1122h-342v1122h-424v164h1188zM461 -348l16 86q63 -17 94 -17q49 0 68.5 15.5t19.5 44.5t-20 45t-70 16q-37 0 -92 -18l-16 84q66 18 137 18q221 0 221 -145q0 -148 -223 -148q-51 0 -135 19z" />
<glyph unicode="&#x163;" horiz-adv-x="745" d="M705 160l-17 -164q-86 -25 -213 -25q-352 0 -352 320v444h-100v178h100v250l326 60v-310h237v-178h-237v-467q0 -62 23 -89t77 -27q91 0 156 8zM287 -348l16 86q63 -17 94 -17q49 0 68.5 15.5t19.5 44.5t-20 45t-70 16q-37 0 -92 -18l-16 84q66 18 137 18q221 0 221 -145 q0 -148 -223 -148q-51 0 -135 19z" />
<glyph unicode="&#x164;" horiz-adv-x="1253" d="M958 1679l-178 -223h-307l-178 223h219l113 -114l112 114h219zM1221 1286v-164h-422v-1122h-342v1122h-424v164h1188z" />
<glyph unicode="&#x165;" horiz-adv-x="892" d="M930 870h-185l48 416h294zM705 160l-17 -164q-86 -25 -213 -25q-352 0 -352 320v444h-100v178h100v250l326 60v-310h237v-178h-237v-467q0 -62 23 -89t77 -27q91 0 156 8z" />
<glyph unicode="&#x166;" horiz-adv-x="1265" d="M227 668v145h236v309h-424v164h1188v-164h-422v-309h235v-145h-235v-668h-342v668h-236z" />
<glyph unicode="&#x167;" horiz-adv-x="778" d="M45 399v172h100v164h-100v178h100v250l326 60v-310h238v-178h-238v-164h227v-172h-227v-131q0 -62 23 -89t77 -27q91 0 156 8l-16 -164q-86 -25 -213 -25q-353 0 -353 320v108h-100z" />
<glyph unicode="&#x168;" horiz-adv-x="1495" d="M1051 1673l59 -125q-47 -52 -93.5 -72t-119.5 -20q-84 0 -154 25q-72 26 -147 26q-51 0 -85 -12t-69 -43l-61 125q61 58 111 81t116 23q67 0 160 -34q58 -21 131 -21q54 0 87 10.5t65 36.5zM1022 1286h342v-895q0 -192 -167 -306t-449 -114q-283 0 -450 114t-167 306v895 h342v-956q0 -93 72 -144t203 -51t202.5 50.5t71.5 144.5v956z" />
<glyph unicode="&#x169;" horiz-adv-x="1234" d="M918 1305l63 -125q-47 -53 -95.5 -74t-121.5 -21q-65 0 -146 25q-93 29 -153 29q-49 0 -83 -12.5t-71 -43.5l-61 125q62 58 112.5 80.5t114.5 22.5q74 0 160 -33q58 -21 131 -21q55 0 88 10.5t62 37.5zM113 913h323v-639q0 -73 47 -106t152 -33q81 0 158 27v751h325v-817 q-247 -125 -559 -125q-233 0 -339.5 83t-106.5 265v594z" />
<glyph unicode="&#x16a;" horiz-adv-x="1495" d="M436 1456v201h623v-201h-623zM1022 1286h342v-895q0 -192 -167 -306t-449 -114q-283 0 -450 114t-167 306v895h342v-956q0 -93 72 -144t203 -51t202.5 50.5t71.5 144.5v956z" />
<glyph unicode="&#x16b;" horiz-adv-x="1234" d="M324 1104v182h622v-182h-622zM113 913h323v-639q0 -73 47 -106t152 -33q81 0 158 27v751h325v-817q-247 -125 -559 -125q-233 0 -339.5 83t-106.5 265v594z" />
<glyph unicode="&#x16c;" horiz-adv-x="1495" d="M1065 1729q-27 -133 -99.5 -207t-213.5 -74q-274 0 -320 281h123q23 -57 73 -86t117 -29q153 0 199 115h121zM1022 1286h342v-895q0 -192 -167 -306t-449 -114q-283 0 -450 114t-167 306v895h342v-956q0 -93 72 -144t203 -51t202.5 50.5t71.5 144.5v956z" />
<glyph unicode="&#x16d;" horiz-adv-x="1234" d="M934 1360q-29 -133 -103 -207t-213 -74q-272 0 -317 281h123q22 -57 73 -85t117 -28q152 0 199 113h121zM113 913h323v-639q0 -73 47 -106t152 -33q81 0 158 27v751h325v-817q-247 -125 -559 -125q-233 0 -339.5 83t-106.5 265v594z" />
<glyph unicode="&#x16e;" horiz-adv-x="1495" d="M512 1587q0 142 233 142q104 0 169 -37.5t65 -104.5q0 -141 -234 -141q-233 0 -233 141zM831 1587q0 22 -2 34.5t-10 27t-26.5 21.5t-47.5 7q-52 0 -69 -21.5t-17 -68.5q0 -22 2.5 -35.5t10.5 -27.5t26 -20.5t47 -6.5q53 0 69.5 23t16.5 67zM1022 1286h342v-895 q0 -192 -167 -306t-449 -114q-283 0 -450 114t-167 306v895h342v-956q0 -93 72 -144t203 -51t202.5 50.5t71.5 144.5v956z" />
<glyph unicode="&#x16f;" horiz-adv-x="1234" d="M844 1260q6 -18 6 -39q0 -142 -234 -142q-235 0 -235 142q0 139 235 139q204 0 228 -100zM700 1221q0 51 -18.5 70.5t-65.5 19.5q-50 0 -69 -19.5t-19 -70.5q0 -52 19 -72.5t69 -20.5q47 0 65.5 20.5t18.5 72.5zM113 913h323v-639q0 -73 47 -106t152 -33q81 0 158 27v751 h325v-817q-247 -125 -559 -125q-233 0 -339.5 83t-106.5 265v594z" />
<glyph unicode="&#x170;" horiz-adv-x="1495" d="M639 1456h-225l145 223h293zM1036 1456h-225l145 223h293zM1022 1286h342v-895q0 -192 -167 -306t-449 -114q-283 0 -450 114t-167 306v895h342v-956q0 -93 72 -144t203 -51t202.5 50.5t71.5 144.5v956z" />
<glyph unicode="&#x171;" horiz-adv-x="1234" d="M508 1087h-225l145 226h293zM905 1087h-225l145 226h293zM113 913h323v-639q0 -73 47 -106t152 -33q81 0 158 27v751h325v-817q-247 -125 -559 -125q-233 0 -339.5 83t-106.5 265v594z" />
<glyph unicode="&#x172;" horiz-adv-x="1495" d="M1022 1286h342v-895q0 -142 -94.5 -244t-263.5 -145q-142 -130 -142 -240q0 -37 32 -59t87 -22h172v-113q-109 -25 -250 -25q-122 0 -185 47.5t-63 139.5q0 54 34 118t116 125q-18 -2 -59 -2q-283 0 -450 114t-167 306v895h342v-956q0 -93 72 -144t203 -51t202.5 50.5 t71.5 144.5v956z" />
<glyph unicode="&#x173;" horiz-adv-x="1234" d="M113 913h323v-639q0 -73 47 -106t152 -33q81 0 158 27v751h325v-817q-131 -66 -262 -94q-141 -129 -141 -240q0 -37 32 -59t87 -22h172v-113q-109 -25 -250 -25q-122 0 -185 47.5t-63 139.5q0 54 34.5 118t116.5 125q-33 -2 -100 -2q-233 0 -339.5 83t-106.5 265v594z " />
<glyph unicode="&#x174;" horiz-adv-x="1886" d="M1333 1456h-221l-113 113l-110 -113h-221l178 223h309zM1589 1286h248l-285 -1286h-403l-193 795l-186 -795h-424l-311 1286h389l201 -956l225 956h313l228 -954z" />
<glyph unicode="&#x175;" horiz-adv-x="1646" d="M1219 1087h-224l-110 117l-113 -117h-221l180 226h307zM1368 913h252l-293 -913h-317l-176 569l-189 -569h-307l-328 913h393l154 -587l193 587h268l194 -587z" />
<glyph unicode="&#x176;" horiz-adv-x="1275" d="M1010 1456h-222l-112 113l-111 -113h-221l178 223h309zM1249 1286l-440 -696v-590h-342v571l-426 715h395l260 -473l267 473h286z" />
<glyph unicode="&#x177;" horiz-adv-x="1073" d="M909 1087h-223l-111 117l-112 -117h-221l180 226h307zM389 41l-373 872h375l189 -548l213 548h272l-594 -1341h-303z" />
<glyph unicode="&#x178;" horiz-adv-x="1275" d="M621 1675v-219h-248v219h248zM1008 1675v-219h-246v219h246zM1249 1286l-440 -696v-590h-342v571l-426 715h395l260 -473l267 473h286z" />
<glyph unicode="&#x179;" horiz-adv-x="1255" d="M760 1456h-228l177 223h292zM1192 1286v-219l-739 -903h735v-164h-1153v203l776 919h-692v164h1073z" />
<glyph unicode="&#x17a;" horiz-adv-x="1036" d="M635 1090h-227l180 225h293zM967 729l-504 -565h506v-164h-916v182l565 578h-528v153h877v-184z" />
<glyph unicode="&#x17b;" horiz-adv-x="1255" d="M461 1456v219h348v-219h-348zM1192 1286v-219l-739 -903h735v-164h-1153v203l776 919h-692v164h1073z" />
<glyph unicode="&#x17c;" horiz-adv-x="1036" d="M694 1309v-215h-323v215h323zM967 729l-504 -565h506v-164h-916v182l565 578h-528v153h877v-184z" />
<glyph unicode="&#x17d;" horiz-adv-x="1255" d="M995 1679l-178 -223h-307l-178 223h219l113 -114l112 114h219zM1192 1286v-219l-739 -903h735v-164h-1153v203l776 919h-692v164h1073z" />
<glyph unicode="&#x17e;" horiz-adv-x="1036" d="M862 1313l-180 -226h-309l-178 226h223l110 -115l111 115h223zM967 729l-504 -565h506v-164h-916v182l565 578h-528v153h877v-184z" />
<glyph unicode="&#x18f;" horiz-adv-x="1548" d="M469 815h-383q46 241 223.5 370.5t462.5 129.5q338 0 518 -174.5t180 -501.5q0 -321 -181.5 -494.5t-516.5 -173.5q-337 0 -518.5 173.5t-181.5 494.5h1013q0 265 -75.5 387.5t-237.5 122.5q-137 0 -210.5 -81t-92.5 -253zM772 141q138 0 211.5 79.5t93.5 254.5h-610 q20 -175 93.5 -254.5t211.5 -79.5z" />
<glyph unicode="&#x192;" horiz-adv-x="1349" d="M276 -39q60 0 93 28t45 91l135 655h-141l38 178h142l14 74q34 166 141 244t299 78q167 0 273 -68l-103 -133q-80 22 -145 22q-59 0 -91.5 -28t-45.5 -92l-19 -97h228l-39 -178h-226l-133 -631q-34 -166 -140.5 -243.5t-299.5 -77.5q-165 0 -272 67l102 134 q77 -23 145 -23z" />
<glyph unicode="&#x19d;" horiz-adv-x="1525" d="M1169 1286h215v-1286h-448l-582 1006v-1143q0 -320 -254 -320q-71 0 -145 18t-117 44l64 135q46 -19 137 -19q57 0 79.5 30t22.5 89v1446h447l581 -1005v1005z" />
<glyph unicode="&#x1cd;" horiz-adv-x="1400" d="M1024 1679l-178 -223h-307l-179 223h220l112 -114l113 114h219zM987 0l-104 315h-510l-111 -315h-239l448 1286h444l476 -1286h-404zM430 481h399l-196 590z" />
<glyph unicode="&#x1ce;" horiz-adv-x="1155" d="M922 1313l-181 -226h-309l-178 226h223l111 -115l110 115h224zM1049 578v-533q-239 -74 -469 -74q-539 0 -539 301q0 292 594 301q18 2 90 2v80q0 123 -207 123q-165 0 -319 -43l-52 152q213 55 449 55q453 0 453 -364zM725 129v320q-61 0 -88 -3q-61 -3 -107.5 -11 t-91 -26t-68.5 -53t-24 -86q0 -81 65 -119t162 -38q66 0 152 16z" />
<glyph unicode="&#x1cf;" horiz-adv-x="626" d="M645 1679l-178 -223h-307l-178 223h219l112 -114l113 114h219zM485 1286v-1286h-344v1286h344z" />
<glyph unicode="&#x1d1;" horiz-adv-x="1552" d="M1108 1679l-178 -223h-307l-179 223h220l112 -114l113 114h219zM778 1315q333 0 516 -176t183 -496t-183 -496t-516 -176t-516.5 176t-183.5 496t183.5 496t516.5 176zM778 141q167 0 239.5 116t72.5 386q0 272 -72.5 389t-239.5 117q-169 0 -241 -116t-72 -390 q0 -271 72 -386.5t241 -115.5z" />
<glyph unicode="&#x1d2;" horiz-adv-x="1251" d="M961 1317l-181 -225h-309l-178 225h223l111 -115l110 115h224zM1184 457q0 -486 -557 -486t-557 486q0 485 557 485t557 -485zM858 457q0 181 -54 259.5t-177 78.5t-177.5 -78.5t-54.5 -259.5q0 -180 54.5 -259t177.5 -79t177 79t54 259z" />
<glyph unicode="&#x1d3;" horiz-adv-x="1495" d="M1079 1679l-178 -223h-307l-178 223h219l113 -114l112 114h219zM1022 1286h342v-895q0 -192 -167 -306t-449 -114q-283 0 -450 114t-167 306v895h342v-956q0 -93 72 -144t203 -51t202.5 50.5t71.5 144.5v956z" />
<glyph unicode="&#x1d4;" horiz-adv-x="1234" d="M948 1313l-180 -226h-309l-178 226h223l110 -115l111 115h223zM113 913h323v-639q0 -73 47 -106t152 -33q81 0 158 27v751h325v-817q-247 -125 -559 -125q-233 0 -339.5 83t-106.5 265v594z" />
<glyph unicode="&#x1d5;" horiz-adv-x="1495" d="M436 1772v200h623v-200h-623zM678 1675v-219h-248v219h248zM1065 1675v-219h-246v219h246zM1022 1286h342v-895q0 -192 -167 -306t-449 -114q-283 0 -450 114t-167 306v895h342v-956q0 -93 72 -144t203 -51t202.5 50.5t71.5 144.5v956z" />
<glyph unicode="&#x1d6;" horiz-adv-x="1234" d="M303 1456v201h623v-201h-623zM541 1286v-199h-217v199h217zM895 1286v-199h-219v199h219zM113 913h323v-639q0 -73 47 -106t152 -33q81 0 158 27v751h325v-817q-247 -125 -559 -125q-233 0 -339.5 83t-106.5 265v594z" />
<glyph unicode="&#x1d7;" horiz-adv-x="1495" d="M860 1769h-227l176 224h293zM678 1675v-219h-248v219h248zM1065 1675v-219h-246v219h246zM1022 1286h342v-895q0 -192 -167 -306t-449 -114q-283 0 -450 114t-167 306v895h342v-956q0 -93 72 -144t203 -51t202.5 50.5t71.5 144.5v956z" />
<glyph unicode="&#x1d8;" horiz-adv-x="1234" d="M719 1456h-227l176 223h293zM541 1286v-199h-217v199h217zM895 1286v-199h-219v199h219zM113 913h323v-639q0 -73 47 -106t152 -33q81 0 158 27v751h325v-817q-247 -125 -559 -125q-233 0 -339.5 83t-106.5 265v594z" />
<glyph unicode="&#x1d9;" horiz-adv-x="1495" d="M1079 1964l-178 -223h-307l-178 223h219l113 -115l112 115h219zM678 1675v-219h-248v219h248zM1065 1675v-219h-246v219h246zM1022 1286h342v-895q0 -192 -167 -306t-449 -114q-283 0 -450 114t-167 306v895h342v-956q0 -93 72 -144t203 -51t202.5 50.5t71.5 144.5v956z " />
<glyph unicode="&#x1da;" horiz-adv-x="1234" d="M946 1636l-178 -223h-307l-178 223h219l112 -114l113 114h219zM541 1286v-199h-217v199h217zM895 1286v-199h-219v199h219zM113 913h323v-639q0 -73 47 -106t152 -33q81 0 158 27v751h325v-817q-247 -125 -559 -125q-233 0 -339.5 83t-106.5 265v594z" />
<glyph unicode="&#x1db;" horiz-adv-x="1495" d="M643 1755l-242 223h293l176 -223h-227zM678 1675v-219h-248v219h248zM1065 1675v-219h-246v219h246zM1022 1286h342v-895q0 -192 -167 -306t-449 -114q-283 0 -450 114t-167 306v895h342v-956q0 -93 72 -144t203 -51t202.5 50.5t71.5 144.5v956z" />
<glyph unicode="&#x1dc;" horiz-adv-x="1234" d="M539 1456l-242 223h293l176 -223h-227zM541 1286v-199h-217v199h217zM895 1286v-199h-219v199h219zM113 913h323v-639q0 -73 47 -106t152 -33q81 0 158 27v751h325v-817q-247 -125 -559 -125q-233 0 -339.5 83t-106.5 265v594z" />
<glyph unicode="&#x1e6;" horiz-adv-x="1351" d="M1051 1679l-179 -223h-307l-178 223h219l113 -114l112 114h220zM748 684h512v-666q-244 -47 -504 -47q-347 0 -511.5 163t-164.5 507q0 346 162 510t506 164q221 0 462 -84l-47 -170q-194 69 -336 69q-183 0 -280.5 -126.5t-97.5 -362.5q0 -239 90.5 -368.5t259.5 -129.5 q122 0 143 9v366h-194v166z" />
<glyph unicode="&#x1e7;" horiz-adv-x="1214" d="M956 1313l-180 -226h-309l-178 226h223l111 -115l110 115h223zM1096 866v-862q0 -461 -545 -461q-167 0 -393 90l49 142q236 -68 332 -68q108 0 170.5 58t62.5 180v57q-138 -31 -227 -31q-241 0 -358 120t-117 366t136.5 365.5t416.5 119.5q240 0 473 -76zM573 119 q85 0 203 31v610q-57 35 -145 35q-123 0 -180.5 -81t-57.5 -257q0 -175 43 -256.5t137 -81.5z" />
<glyph unicode="&#x1ea;" horiz-adv-x="1552" d="M778 1315q333 0 516 -176t183 -496q0 -259 -121.5 -425t-349.5 -222q-136 -124 -136 -234q0 -37 32 -59t87 -22h172v-113q-109 -25 -250 -25q-122 0 -184.5 47.5t-62.5 139.5q0 130 147 241h-33q-333 0 -516.5 176t-183.5 496t183.5 496t516.5 176zM778 141 q167 0 239.5 116t72.5 386q0 272 -72.5 389t-239.5 117q-169 0 -241 -116t-72 -390q0 -271 72 -386.5t241 -115.5z" />
<glyph unicode="&#x1eb;" horiz-adv-x="1251" d="M1184 457q0 -378 -338 -461q-135 -124 -135 -234q0 -37 31.5 -59t86.5 -22h172v-113q-109 -25 -249 -25q-122 0 -185 47.5t-63 139.5q0 130 147 241h-24q-557 0 -557 486q0 485 557 485t557 -485zM858 457q0 181 -54 259.5t-177 78.5t-177.5 -78.5t-54.5 -259.5 q0 -180 54.5 -259t177.5 -79t177 79t54 259z" />
<glyph unicode="&#x1f4;" horiz-adv-x="1351" d="M842 1456h-228l177 223h292zM748 684h512v-666q-244 -47 -504 -47q-347 0 -511.5 163t-164.5 507q0 346 162 510t506 164q221 0 462 -84l-47 -170q-194 69 -336 69q-183 0 -280.5 -126.5t-97.5 -362.5q0 -239 90.5 -368.5t259.5 -129.5q122 0 143 9v366h-194v166z" />
<glyph unicode="&#x1f5;" horiz-adv-x="1214" d="M741 1087h-227l180 226h293zM1096 866v-862q0 -461 -545 -461q-167 0 -393 90l49 142q236 -68 332 -68q108 0 170.5 58t62.5 180v57q-138 -31 -227 -31q-241 0 -358 120t-117 366t136.5 365.5t416.5 119.5q240 0 473 -76zM573 119q85 0 203 31v610q-57 35 -145 35 q-123 0 -180.5 -81t-57.5 -257q0 -175 43 -256.5t137 -81.5z" />
<glyph unicode="&#x1fa;" horiz-adv-x="1400" d="M987 0l-104 315h-510l-111 -315h-239l448 1286h53q-61 36 -61 109q0 111 143 135l162 205h293l-236 -217q105 -38 105 -123q0 -74 -62 -109h47l476 -1286h-404zM782 1395q0 22 -2 34.5t-10 27t-26.5 21.5t-47.5 7q-52 0 -69 -21.5t-17 -68.5q0 -22 2.5 -35.5t10.5 -27.5 t26 -20.5t47 -6.5q53 0 69.5 23t16.5 67zM430 481h399l-196 590z" />
<glyph unicode="&#x1fb;" horiz-adv-x="1155" d="M709 1427h-228l176 224h293zM829 1231q7 -21 7 -39q0 -141 -234 -141q-235 0 -235 141q0 139 235 139q203 0 227 -100zM686 1192q0 51 -18.5 70.5t-65.5 19.5q-50 0 -69 -19.5t-19 -70.5q0 -52 19 -72t69 -20q47 0 65.5 20t18.5 72zM1049 578v-533q-239 -74 -469 -74 q-539 0 -539 301q0 292 594 301q18 2 90 2v80q0 123 -207 123q-165 0 -319 -43l-52 152q213 55 449 55q453 0 453 -364zM725 129v320q-61 0 -88 -3q-61 -3 -107.5 -11t-91 -26t-68.5 -53t-24 -86q0 -81 65 -119t162 -38q66 0 152 16z" />
<glyph unicode="&#x1fc;" horiz-adv-x="1847" d="M1153 1450h-227l176 223h293zM1767 1286v-164h-645v-374h570v-164h-570v-420h645v-164h-987v315h-385l-137 -315h-276l546 1286h1239zM748 1122l-281 -641h313v641h-32z" />
<glyph unicode="&#x1fd;" horiz-adv-x="1830" d="M1016 1087h-228l181 226h293zM1735 406h-678q3 -271 235 -271q70 0 143 14.5t226 55.5l51 -144q-78 -31 -200.5 -60.5t-225.5 -29.5q-175 0 -299 56q-210 -56 -407 -56q-539 0 -539 301q0 292 594 301q18 2 90 2v80q0 123 -207 123q-165 0 -319 -43l-52 152 q213 55 449 55q213 0 328 -84q128 84 329 84q257 0 388.5 -123t132.5 -364q0 -49 -39 -49zM1057 547h397q0 115 -49.5 178t-140.5 63q-98 0 -151.5 -62.5t-55.5 -178.5zM725 129v320q-61 0 -88 -3q-61 -3 -107.5 -11t-91 -26t-68.5 -53t-24 -86q0 -81 65 -119t162 -38 q66 0 152 16z" />
<glyph unicode="&#x1fe;" horiz-adv-x="1558" d="M920 1456h-228l176 223h293zM780 1315q269 0 443 -117l84 88h168l-158 -168q162 -176 162 -475q0 -320 -183 -496t-516 -176q-260 0 -434 111l-76 -82h-180l156 166q-166 172 -166 477q0 320 183.5 496t516.5 176zM467 643q0 -126 16 -227l553 583q-36 77 -99 113.5 t-157 36.5q-169 0 -241 -116t-72 -390zM780 141q167 0 239.5 116t72.5 386q0 125 -15 217l-549 -586q71 -133 252 -133z" />
<glyph unicode="&#x1ff;" horiz-adv-x="1259" d="M756 1087h-228l181 226h292zM1188 457q0 -486 -557 -486q-230 0 -367 84l-59 -55h-144l127 117q-114 120 -114 340q0 485 557 485q239 0 373 -88l65 59h131l-127 -116q115 -121 115 -340zM399 457q0 -67 11 -142l413 375q-53 105 -192 105q-123 0 -177.5 -78.5 t-54.5 -259.5zM862 457q0 72 -10 137l-410 -377q53 -98 189 -98q123 0 177 79t54 259z" />
<glyph unicode="&#x218;" horiz-adv-x="1245" d="M662 825q298 -77 419 -171t121 -253q0 -198 -172 -314t-467 -116q-245 0 -471 99l41 143q209 -76 381 -76q160 0 253 50.5t93 136.5q0 58 -63.5 95.5t-210.5 76.5q-134 36 -230 74.5t-153.5 76t-90.5 83t-44 87.5t-11 96q0 185 170 293.5t459 108.5q200 0 410 -88 l-54 -154q-194 78 -354 78q-141 0 -225 -42.5t-84 -113.5q0 -56 59 -92t224 -78zM635 -555h-184l47 416h295z" />
<glyph unicode="&#x219;" horiz-adv-x="1009" d="M475 -29q-230 0 -401 54l41 153q193 -43 323 -43q213 0 213 111q0 39 -69 68t-203 59q-73 17 -127.5 38.5t-100 54.5t-69 81.5t-23.5 111.5q0 283 482 283q166 0 358 -61l-47 -148q-170 45 -270 45q-209 0 -209 -96q0 -41 67 -68t211 -61q57 -13 100 -27.5t84.5 -37.5 t67.5 -52t42 -70.5t16 -93.5q0 -301 -486 -301zM498 -555h-185l47 416h295z" />
<glyph unicode="&#x21a;" horiz-adv-x="1253" d="M1221 1286v-164h-422v-1122h-342v1122h-424v164h1188zM616 -555h-184l47 416h295z" />
<glyph unicode="&#x21b;" horiz-adv-x="745" d="M705 160l-17 -164q-86 -25 -213 -25q-352 0 -352 320v444h-100v178h100v250l326 60v-310h237v-178h-237v-467q0 -62 23 -89t77 -27q91 0 156 8zM403 -555h-184l47 416h295z" />
<glyph unicode="&#x232;" horiz-adv-x="1275" d="M365 1456v201h622v-201h-622zM1249 1286l-440 -696v-590h-342v571l-426 715h395l260 -473l267 473h286z" />
<glyph unicode="&#x233;" horiz-adv-x="1073" d="M252 1104v182h622v-182h-622zM389 41l-373 872h375l189 -548l213 548h272l-594 -1341h-303z" />
<glyph unicode="&#x237;" horiz-adv-x="587" d="M465 913v-1050q0 -163 -89.5 -241.5t-277.5 -78.5q-156 0 -262 62l64 135q59 -19 139 -19q52 0 76 28.5t24 90.5v1073h326z" />
<glyph unicode="&#x259;" horiz-adv-x="1169" d="M96 508h678q0 137 -65 203.5t-170 66.5q-99 0 -202 -21.5t-167 -45.5l-51 141q221 90 426 90q276 0 415.5 -122.5t139.5 -362.5q0 -221 -131.5 -353.5t-388.5 -132.5q-258 0 -389.5 123t-133.5 365q0 49 39 49zM774 369h-397q0 -112 47 -177t145 -65q101 0 152 67.5 t53 174.5z" />
<glyph unicode="&#x272;" horiz-adv-x="1232" d="M1120 0h-323v653q0 66 -48 95.5t-151 29.5q-73 0 -158 -26v-889q0 -320 -364 -320q-71 0 -145 18t-117 44l63 135q49 -19 137 -19q103 0 103 119v981q245 121 559 121q228 0 336 -84t108 -264v-594z" />
<glyph unicode="&#x2c6;" horiz-adv-x="794" d="M727 1087h-223l-111 117l-112 -117h-222l181 226h307z" />
<glyph unicode="&#x2c7;" horiz-adv-x="751" d="M709 1313l-181 -226h-309l-178 226h223l111 -115l110 115h224z" />
<glyph unicode="&#x2d8;" horiz-adv-x="1001" d="M846 1360q-29 -133 -103 -207t-213 -74q-272 0 -317 281h123q22 -57 73 -85t117 -28q152 0 199 113h121z" />
<glyph unicode="&#x2d9;" horiz-adv-x="919" d="M639 1309v-215h-324v215h324z" />
<glyph unicode="&#x2da;" horiz-adv-x="585" d="M520 1260q6 -18 6 -39q0 -142 -233 -142q-236 0 -236 142q0 139 236 139q203 0 227 -100zM377 1221q0 51 -18.5 70.5t-65.5 19.5q-50 0 -69 -19.5t-19 -70.5q0 -52 19 -72.5t69 -20.5q47 0 65.5 20.5t18.5 72.5z" />
<glyph unicode="&#x2db;" horiz-adv-x="1003" d="M707 70l65 -35q-95 -77 -137.5 -142.5t-42.5 -130.5q0 -37 32 -59t87 -22h172v-113q-109 -25 -250 -25q-122 0 -185 47.5t-63 139.5q0 35 14 72.5t46.5 84t100 94.5t161.5 89z" />
<glyph unicode="&#x2dc;" horiz-adv-x="1173" d="M879 1305l63 -125q-47 -53 -95.5 -74t-121.5 -21q-64 0 -145 25q-93 29 -154 29q-49 0 -83 -12.5t-71 -43.5l-61 125q62 58 112.5 80.5t114.5 22.5q74 0 160 -33q58 -21 131 -21q55 0 88 10.5t62 37.5z" />
<glyph unicode="&#x2dd;" horiz-adv-x="1095" d="M342 1087h-225l145 226h293zM739 1087h-225l145 226h293z" />
<glyph unicode="&#x323;" horiz-adv-x="401" d="M365 -362h-285v223h285v-223z" />
<glyph unicode="&#x326;" horiz-adv-x="444" d="M236 -555h-185l47 416h295z" />
<glyph unicode="&#x374;" horiz-adv-x="485" d="M-10 778l143 508h291l-227 -508h-207z" />
<glyph unicode="&#x375;" horiz-adv-x="485" d="M18 -166l144 508h291l-230 -508h-205z" />
<glyph unicode="&#x37e;" horiz-adv-x="538" d="M416 600h-275v223h275v-223zM272 -193h-182l47 416h293z" />
<glyph unicode="&#x384;" horiz-adv-x="477" d="M147 1087l74 322h242l-137 -322h-179z" />
<glyph unicode="&#x385;" horiz-adv-x="989" d="M358 1087l72 322h246l-139 -322h-179zM268 1286v-199h-205v199h205zM924 1286v-199h-205v199h205z" />
<glyph unicode="&#x386;" horiz-adv-x="1501" d="M252 870h-184l47 416h295zM1090 0l-105 315h-510l-110 -315h-240l448 1286h445l475 -1286h-403zM532 481h400l-197 590z" />
<glyph unicode="&#x387;" horiz-adv-x="393" d="M295 913v-239h-197v239h197z" />
<glyph unicode="&#x388;" horiz-adv-x="1536" d="M205 870h-185l48 416h294zM1456 1286v-164h-645v-374h569v-164h-569v-420h645v-164h-987v1286h987z" />
<glyph unicode="&#x389;" horiz-adv-x="1792" d="M205 870h-185l48 416h294zM1309 748v538h342v-1286h-342v584h-506v-584h-342v1286h342v-538h506z" />
<glyph unicode="&#x38a;" horiz-adv-x="931" d="M205 870h-185l48 416h294zM791 1286v-1286h-345v1286h345z" />
<glyph unicode="&#x38c;" horiz-adv-x="1802" d="M1028 1315q333 0 515.5 -176t182.5 -496t-182.5 -496t-515.5 -176t-516.5 176t-183.5 496t183.5 496t516.5 176zM209 870h-184l47 416h295zM1028 141q166 0 238.5 116t72.5 386q0 273 -72.5 389.5t-238.5 116.5q-169 0 -241 -116t-72 -390q0 -271 72 -386.5t241 -115.5z " />
<glyph unicode="&#x38e;" horiz-adv-x="1732" d="M256 870h-184l47 416h295zM1706 1286l-440 -696v-590h-342v571l-426 715h395l260 -473l266 473h287z" />
<glyph unicode="&#x38f;" horiz-adv-x="1804" d="M330 0v201h336q-157 89 -244.5 220.5t-87.5 285.5q0 274 187.5 438t500.5 164q315 0 504.5 -164t189.5 -438q0 -152 -89.5 -284t-250.5 -222h330v-201h-598v240q219 107 219 467q0 221 -75.5 328.5t-229.5 107.5q-152 0 -226.5 -107.5t-74.5 -328.5q0 -373 207 -465v-242 h-598zM215 870h-184l47 416h295z" />
<glyph unicode="&#x390;" horiz-adv-x="620" d="M195 1087l71 322h246l-139 -322h-178zM104 1286v-199h-204v199h204zM760 1286v-199h-205v199h205zM444 913v-637q0 -47 22.5 -77.5t61.5 -30.5h33v-168h-129q-138 0 -224.5 68.5t-86.5 181.5v663h323z" />
<glyph unicode="&#x391;" horiz-adv-x="1400" d="M987 0l-104 315h-510l-111 -315h-239l448 1286h444l476 -1286h-404zM430 481h399l-196 590z" />
<glyph unicode="&#x392;" horiz-adv-x="1427" d="M1018 700q169 -23 258.5 -106t89.5 -219q0 -375 -627 -375h-598v1286h553q274 0 418.5 -82t144.5 -239q0 -89 -62 -158t-177 -107zM672 1122h-189v-379q435 0 435 205q0 174 -246 174zM483 164h191q170 0 253 58t83 177q0 94 -91.5 145.5t-259.5 51.5q-75 0 -176 -8v-424 z" />
<glyph unicode="&#x393;" horiz-adv-x="1052" d="M483 0h-342v1286h877v-164h-535v-1122z" />
<glyph unicode="&#x394;" horiz-adv-x="1378" d="M934 164l-313 907l-330 -907h643zM51 0v164l406 1122h446l428 -1122v-164h-1280z" />
<glyph unicode="&#x395;" horiz-adv-x="1208" d="M1128 1286v-164h-645v-374h570v-164h-570v-420h645v-164h-987v1286h987z" />
<glyph unicode="&#x396;" horiz-adv-x="1255" d="M1192 1286v-219l-739 -903h735v-164h-1153v203l776 919h-692v164h1073z" />
<glyph unicode="&#x397;" horiz-adv-x="1476" d="M993 748v538h342v-1286h-342v584h-510v-584h-342v1286h342v-538h510z" />
<glyph unicode="&#x398;" horiz-adv-x="1552" d="M778 1315q333 0 516 -176t183 -496t-183 -496t-516 -176t-516.5 176t-183.5 496t183.5 496t516.5 176zM778 141q167 0 239.5 116t72.5 386q0 272 -72.5 389t-239.5 117q-169 0 -241 -116t-72 -390q0 -271 72 -386.5t241 -115.5zM575 553v172h402v-172h-402z" />
<glyph unicode="&#x399;" horiz-adv-x="626" d="M485 1286v-1286h-344v1286h344z" />
<glyph unicode="&#x39a;" horiz-adv-x="1411" d="M1448 0h-426l-490 608h-47v-608h-344v1286h344v-512h47l426 512h388l-510 -594z" />
<glyph unicode="&#x39b;" horiz-adv-x="1400" d="M987 0l-354 1071l-371 -1071h-239l448 1286h444l476 -1286h-404z" />
<glyph unicode="&#x39c;" horiz-adv-x="1800" d="M1192 1286h393l129 -1286h-358l-78 993l-303 -993h-252l-295 991l-74 -991h-268l127 1286h420l274 -876z" />
<glyph unicode="&#x39d;" horiz-adv-x="1525" d="M1169 1286h215v-1286h-448l-582 1006v-1006h-213v1286h447l581 -1005v1005z" />
<glyph unicode="&#x39e;" horiz-adv-x="1196" d="M1094 1286v-258h-992v258h992zM176 522v258h842v-258h-842zM78 0v258h1040v-258h-1040z" />
<glyph unicode="&#x39f;" horiz-adv-x="1552" d="M778 1315q333 0 516 -176t183 -496t-183 -496t-516 -176t-516.5 176t-183.5 496t183.5 496t516.5 176zM778 141q167 0 239.5 116t72.5 386q0 272 -72.5 389t-239.5 117q-169 0 -241 -116t-72 -390q0 -271 72 -386.5t241 -115.5z" />
<glyph unicode="&#x3a0;" horiz-adv-x="1474" d="M483 0h-342v1286h1192v-1286h-342v1122h-508v-1122z" />
<glyph unicode="&#x3a1;" horiz-adv-x="1366" d="M1319 913q0 -200 -185 -305.5t-538 -105.5h-111v-502h-344v1286h609q273 0 421 -97t148 -276zM975 911q0 97 -67.5 154t-184.5 57h-238v-456q259 0 374.5 57.5t115.5 187.5z" />
<glyph unicode="&#x3a3;" horiz-adv-x="1220" d="M76 0v262l383 359l-383 501v164h1061v-164h-639l311 -417l-451 -443h803v-262h-1085z" />
<glyph unicode="&#x3a4;" horiz-adv-x="1253" d="M1221 1286v-164h-422v-1122h-342v1122h-424v164h1188z" />
<glyph unicode="&#x3a5;" horiz-adv-x="1275" d="M1249 1286l-440 -696v-590h-342v571l-426 715h395l260 -473l267 473h286z" />
<glyph unicode="&#x3a6;" horiz-adv-x="1742" d="M1042 1335v-141q312 -29 472.5 -170.5t160.5 -386.5q0 -243 -160.5 -384.5t-472.5 -170.5v-133h-342v133q-311 29 -471.5 170t-160.5 385t160.5 386t471.5 171v141h342zM455 637q0 -201 57.5 -308.5t187.5 -144.5v906q-129 -35 -187 -143.5t-58 -309.5zM1290 637 q0 201 -58.5 309.5t-189.5 143.5v-904q131 35 189.5 142.5t58.5 308.5z" />
<glyph unicode="&#x3a7;" horiz-adv-x="1306" d="M1327 0h-428l-289 440l-329 -440h-301l495 631l-442 655h397l262 -391l291 391h289l-443 -577z" />
<glyph unicode="&#x3a8;" horiz-adv-x="1697" d="M1022 1286v-850q244 64 244 340v510h344v-491q0 -226 -145.5 -351t-442.5 -151v-293h-344v293q-297 26 -443.5 151t-146.5 351v491h344v-510q0 -276 246 -340v850h344z" />
<glyph unicode="&#x3a9;" horiz-adv-x="1562" d="M88 0v201h336q-157 89 -244.5 220.5t-87.5 285.5q0 274 187.5 438t500.5 164q315 0 505 -164t190 -438q0 -152 -89.5 -284t-250.5 -222h329v-201h-598v240q219 107 219 467q0 221 -75.5 328.5t-229.5 107.5q-152 0 -226.5 -107.5t-74.5 -328.5q0 -373 207 -465v-242h-598 z" />
<glyph unicode="&#x3aa;" horiz-adv-x="626" d="M244 1675v-219h-248v219h248zM631 1675v-219h-246v219h246zM485 1286v-1286h-344v1286h344z" />
<glyph unicode="&#x3ab;" horiz-adv-x="1275" d="M621 1675v-219h-248v219h248zM1008 1675v-219h-246v219h246zM1249 1286l-440 -696v-590h-342v571l-426 715h395l260 -473l267 473h286z" />
<glyph unicode="&#x3ac;" horiz-adv-x="1339" d="M520 1087l74 322h242l-138 -322h-178zM1171 913v-639q0 -47 21.5 -78.5t62.5 -31.5h35v-164h-131q-165 0 -254 92q-118 -121 -307 -121q-235 0 -382.5 135.5t-147.5 352.5q0 215 132 349t343 134q169 0 305 -104v75h323zM868 459q0 162 -61.5 249t-175.5 87 q-115 0 -176.5 -86.5t-61.5 -249.5q0 -164 61.5 -252t176.5 -88q114 0 175.5 88t61.5 252z" />
<glyph unicode="&#x3ad;" horiz-adv-x="1032" d="M446 1087l74 322h242l-137 -322h-179zM303 492q-205 72 -205 217q0 71 41 119t114.5 71.5t151 33t175.5 9.5q197 0 376 -92l-49 -154q-154 82 -295 82q-80 0 -132 -22.5t-52 -71.5q0 -123 299 -123h109v-166h-105q-69 0 -122.5 -4.5t-106 -17t-81 -38t-28.5 -63.5 q0 -66 59 -100.5t152 -34.5q166 0 346 107l56 -160q-221 -113 -439 -113q-101 0 -186 14t-159 44.5t-116.5 87.5t-42.5 135q0 91 65 155.5t175 84.5z" />
<glyph unicode="&#x3ae;" horiz-adv-x="1230" d="M563 1087l74 322h242l-138 -322h-178zM1118 -332h-323v987q0 62 -53.5 92.5t-143.5 30.5q-69 0 -160 -26v-752h-321v780q317 162 559 162q227 0 334.5 -82.5t107.5 -263.5v-928z" />
<glyph unicode="&#x3af;" horiz-adv-x="620" d="M205 1087l74 322h241l-137 -322h-178zM444 913v-637q0 -47 22.5 -77.5t61.5 -30.5h33v-168h-129q-138 0 -224.5 68.5t-86.5 181.5v663h323z" />
<glyph unicode="&#x3b0;" horiz-adv-x="1167" d="M426 1087l72 322h245l-139 -322h-178zM336 1286v-199h-205v199h205zM991 1286v-199h-205v199h205zM113 913h313v-559q0 -119 41.5 -169t140.5 -50q183 0 183 359q0 232 -91 419h297q90 -198 90 -424q0 -264 -117.5 -392t-359.5 -128q-252 0 -374.5 85.5t-122.5 260.5v598 z" />
<glyph unicode="&#x3b1;" horiz-adv-x="1339" d="M1171 913v-639q0 -47 21.5 -78.5t62.5 -31.5h35v-164h-131q-165 0 -254 92q-118 -121 -307 -121q-235 0 -382.5 135.5t-147.5 352.5q0 215 132 349t343 134q169 0 305 -104v75h323zM868 459q0 162 -61.5 249t-175.5 87q-115 0 -176.5 -86.5t-61.5 -249.5 q0 -164 61.5 -252t176.5 -88q114 0 175.5 88t61.5 252z" />
<glyph unicode="&#x3b2;" horiz-adv-x="1277" d="M862 715q151 -10 251.5 -100.5t100.5 -243.5q0 -185 -126 -292.5t-320 -107.5q-101 0 -186 32t-136 95v-430h-323v1157q0 221 150 352.5t382 131.5q76 0 142.5 -9.5t128 -32t106 -57t70.5 -88t26 -121.5q0 -114 -74.5 -186.5t-191.5 -99.5zM446 969v-666 q108 -168 265 -168q93 0 135.5 69t42.5 177q0 97 -47.5 163t-141.5 66q-65 0 -125 -8v152q106 9 166 78.5t60 173.5q0 73 -49.5 113t-128.5 40q-83 0 -130 -53.5t-47 -136.5z" />
<glyph unicode="&#x3b3;" horiz-adv-x="1064" d="M342 53l-324 860h336l224 -634q161 269 161 569q0 42 -2 65h256q6 -55 6 -108q0 -204 -83.5 -397.5t-249.5 -399.5v-340h-324v385z" />
<glyph unicode="&#x3b4;" horiz-adv-x="1245" d="M1182 406q0 -203 -149 -319t-410 -116q-259 0 -408 116t-149 319q0 198 114.5 314.5t315.5 125.5q-76 0 -140.5 67.5t-64.5 147.5q0 82 52.5 139t135 83t185.5 26q200 0 360 -78v-207q-156 78 -319 78q-52 0 -85.5 -23t-33.5 -59q0 -43 33 -71.5t104 -59.5 q58 -26 97.5 -44.5t92 -48t87.5 -55.5t72.5 -63.5t59 -76.5t36 -89t14.5 -106zM393 406q0 -146 56.5 -216.5t173.5 -70.5q118 0 174.5 70.5t56.5 216.5q0 149 -56.5 220.5t-174.5 71.5q-117 0 -173.5 -71.5t-56.5 -220.5z" />
<glyph unicode="&#x3b5;" horiz-adv-x="1032" d="M303 492q-205 72 -205 217q0 71 41 119t114.5 71.5t151 33t175.5 9.5q197 0 376 -92l-49 -154q-154 82 -295 82q-80 0 -132 -22.5t-52 -71.5q0 -123 299 -123h109v-166h-105q-69 0 -122.5 -4.5t-106 -17t-81 -38t-28.5 -63.5q0 -66 59 -100.5t152 -34.5q166 0 346 107 l56 -160q-221 -113 -439 -113q-101 0 -186 14t-159 44.5t-116.5 87.5t-42.5 135q0 91 65 155.5t175 84.5z" />
<glyph unicode="&#x3b6;" horiz-adv-x="860" d="M813 1286v-211q-101 -73 -174 -140.5t-131 -144t-87.5 -160.5t-29.5 -175q0 -85 33 -152.5t100 -101.5q82 -41 133 -71.5t96.5 -69t66 -80.5t20.5 -93q0 -118 -86 -221h-168q43 79 43 178q0 60 -52.5 98t-162.5 76q-346 119 -346 431q0 79 29.5 154t74.5 134.5t120 124 t144.5 113t169.5 110.5h-469v201h676z" />
<glyph unicode="&#x3b7;" horiz-adv-x="1230" d="M1118 -332h-323v987q0 62 -53.5 92.5t-143.5 30.5q-69 0 -160 -26v-752h-321v780q317 162 559 162q227 0 334.5 -82.5t107.5 -263.5v-928z" />
<glyph unicode="&#x3b8;" horiz-adv-x="1271" d="M1194 637q0 -666 -559 -666q-557 0 -557 666q0 672 557 672q559 0 559 -672zM635 1159q-118 0 -169.5 -97.5t-57.5 -338.5h454q-6 242 -57 339t-170 97zM635 119q119 0 170 96.5t57 337.5h-454q6 -240 57.5 -337t169.5 -97z" />
<glyph unicode="&#x3b9;" horiz-adv-x="620" d="M444 913v-637q0 -47 22.5 -77.5t61.5 -30.5h33v-168h-129q-138 0 -224.5 68.5t-86.5 181.5v663h323z" />
<glyph unicode="&#x3ba;" horiz-adv-x="1206" d="M756 459l467 -459h-394l-323 393h-60v-393h-323v913h323v-354h50l155 199q76 102 189 139t305 37v-166q-121 0 -193 -80z" />
<glyph unicode="&#x3bb;" horiz-adv-x="1128" d="M758 0l-221 494l-226 -494h-297l375 823l-100 226q-40 92 -189 92v168q225 0 353 -57.5t186 -186.5l477 -1065h-358z" />
<glyph unicode="&#x3bc;" horiz-adv-x="1245" d="M123 -410v1323h323v-639q0 -73 47 -106t152 -33q81 0 158 27v751h325v-817q-247 -125 -559 -125q-67 0 -123 6v-387h-323z" />
<glyph unicode="&#x3bd;" horiz-adv-x="1064" d="M745 913h242q10 -68 10 -122q0 -198 -83 -392.5t-248 -398.5h-304l-344 913h336l234 -647q162 271 162 559q0 30 -5 88z" />
<glyph unicode="&#x3be;" horiz-adv-x="858" d="M399 680q-49 10 -85.5 20t-77 28.5t-66 42t-42.5 59.5t-17 81q0 157 268 207h-326v168h740v-168h-70q-126 0 -207.5 -50.5t-81.5 -141.5q0 -69 56 -113.5t167 -44.5h72v-166h-84q-120 0 -188 -58t-68 -149q0 -141 189 -219q114 -46 175.5 -116.5t61.5 -178.5 q0 -126 -72 -213h-163q30 85 30 174q0 78 -57.5 128t-161.5 89q-46 17 -73 27.5t-66 29t-62 34.5t-49.5 40.5t-41 51.5t-24 63t-9.5 78q0 127 95 204t238 93z" />
<glyph unicode="&#x3bf;" horiz-adv-x="1251" d="M1184 457q0 -486 -557 -486t-557 486q0 485 557 485t557 -485zM858 457q0 181 -54 259.5t-177 78.5t-177.5 -78.5t-54.5 -259.5q0 -180 54.5 -259t177.5 -79t177 79t54 259z" />
<glyph unicode="&#x3c0;" horiz-adv-x="1341" d="M49 745v168h1227v-168h-139v-471q0 -47 23.5 -78.5t60.5 -31.5h32v-164h-129q-138 0 -224.5 68.5t-86.5 181.5v495h-303v-745h-324v745h-137z" />
<glyph unicode="&#x3c1;" horiz-adv-x="1275" d="M1208 455q0 -232 -130 -358t-371 -126q-161 0 -279 76v-379h-326v787q0 235 144 361t411 126t409 -126t142 -361zM885 455q0 178 -54.5 259t-173.5 81q-120 0 -174.5 -81t-54.5 -259q0 -174 55.5 -254t175.5 -80q118 0 172 79.5t54 254.5z" />
<glyph unicode="&#x3c2;" horiz-adv-x="952" d="M762 -332h-193q70 117 70 189q0 30 -16.5 57.5t-39.5 46.5t-61 38t-67 30t-72 26q-151 51 -235.5 162.5t-84.5 263.5q0 209 149.5 335t395.5 126q175 0 328 -84l-55 -145q-136 65 -248 65q-110 0 -178 -77t-68 -203q0 -181 172 -275q59 -33 92 -52.5t79.5 -53.5t71.5 -64 t43.5 -71.5t18.5 -87.5q0 -56 -27.5 -117.5t-74.5 -108.5z" />
<glyph unicode="&#x3c3;" horiz-adv-x="1325" d="M1184 457q0 -241 -140 -363.5t-417 -122.5t-417 122.5t-140 363.5q0 226 140 341t417 115h682v-149h-287q78 -54 120 -133.5t42 -173.5zM858 457q0 168 -52.5 238.5t-178.5 70.5q-125 0 -178.5 -71t-53.5 -238q0 -183 53.5 -260.5t178.5 -77.5q126 0 178.5 77.5 t52.5 260.5z" />
<glyph unicode="&#x3c4;" horiz-adv-x="917" d="M29 745v168h850v-168h-265v-471q0 -47 23.5 -78.5t60.5 -31.5h43v-164h-137q-138 0 -225.5 68.5t-87.5 181.5v495h-262z" />
<glyph unicode="&#x3c5;" horiz-adv-x="1167" d="M113 913h313v-559q0 -119 41.5 -169t140.5 -50q183 0 183 359q0 232 -91 419h297q90 -198 90 -424q0 -264 -117.5 -392t-359.5 -128q-252 0 -374.5 85.5t-122.5 260.5v598z" />
<glyph unicode="&#x3c6;" horiz-adv-x="1581" d="M958 1153v-219q274 -28 414.5 -149t140.5 -328t-140.5 -328t-414.5 -149v-312h-335v312q-274 28 -414.5 149t-140.5 328t140.5 328t414.5 149v219h335zM391 457q0 -156 55 -241t177 -114v709q-122 -29 -177 -113.5t-55 -240.5zM1186 457q0 154 -54 238.5t-174 115.5v-709 q120 31 174 116t54 239z" />
<glyph unicode="&#x3c7;" horiz-adv-x="1067" d="M324 -332h-308l365 596l-234 432q-21 39 -45.5 55.5t-66.5 16.5h-25v164h109q117 0 208 -50.5t146 -148.5l88 -164l197 344h307l-367 -596l222 -411q43 -88 98 -88h33v-164h-129q-213 0 -297 158l-107 198z" />
<glyph unicode="&#x3c8;" horiz-adv-x="1634" d="M111 913h335v-497q0 -242 211 -297v1038h336v-1032q228 74 228 369q0 230 -91 419h332q90 -196 90 -424q0 -229 -139 -356t-420 -156v-309h-336v307q-546 40 -546 402v536z" />
<glyph unicode="&#x3c9;" horiz-adv-x="1632" d="M657 354v283h324v-283q0 -107 31 -163t90 -56q65 0 99 77.5t34 225.5q0 121 -34 250.5t-91 224.5h324q57 -100 91 -231.5t34 -251.5q0 -209 -124.5 -335t-330.5 -126q-109 0 -183.5 55.5t-105.5 153.5q-30 -98 -104 -153.5t-183 -55.5q-206 0 -330 126t-124 335 q0 116 34 247.5t91 235.5h323q-57 -97 -91 -227t-34 -252q0 -146 34 -222.5t99 -76.5q127 0 127 219z" />
<glyph unicode="&#x3ca;" horiz-adv-x="620" d="M215 1286v-199h-217v199h217zM569 1286v-199h-219v199h219zM444 913v-637q0 -47 22.5 -77.5t61.5 -30.5h33v-168h-129q-138 0 -224.5 68.5t-86.5 181.5v663h323z" />
<glyph unicode="&#x3cb;" horiz-adv-x="1167" d="M510 1286v-199h-217v199h217zM864 1286v-199h-219v199h219zM113 913h313v-559q0 -119 41.5 -169t140.5 -50q183 0 183 359q0 232 -91 419h297q90 -198 90 -424q0 -264 -117.5 -392t-359.5 -128q-252 0 -374.5 85.5t-122.5 260.5v598z" />
<glyph unicode="&#x3cc;" horiz-adv-x="1251" d="M545 1087l73 322h242l-137 -322h-178zM1184 457q0 -486 -557 -486t-557 486q0 485 557 485t557 -485zM858 457q0 181 -54 259.5t-177 78.5t-177.5 -78.5t-54.5 -259.5q0 -180 54.5 -259t177.5 -79t177 79t54 259z" />
<glyph unicode="&#x3cd;" horiz-adv-x="1167" d="M459 1087l73 322h242l-137 -322h-178zM113 913h313v-559q0 -119 41.5 -169t140.5 -50q183 0 183 359q0 232 -91 419h297q90 -198 90 -424q0 -264 -117.5 -392t-359.5 -128q-252 0 -374.5 85.5t-122.5 260.5v598z" />
<glyph unicode="&#x3ce;" horiz-adv-x="1632" d="M731 1087l74 322h242l-138 -322h-178zM657 354v283h324v-283q0 -107 31 -163t90 -56q65 0 99 77.5t34 225.5q0 121 -34 250.5t-91 224.5h324q57 -100 91 -231.5t34 -251.5q0 -209 -124.5 -335t-330.5 -126q-109 0 -183.5 55.5t-105.5 153.5q-30 -98 -104 -153.5 t-183 -55.5q-206 0 -330 126t-124 335q0 116 34 247.5t91 235.5h323q-57 -97 -91 -227t-34 -252q0 -146 34 -222.5t99 -76.5q127 0 127 219z" />
<glyph unicode="&#x3cf;" horiz-adv-x="1411" d="M1448 0l-350 -334h-250l174 334l-490 608h-47v-608h-344v1286h344v-512h47l426 512h388l-510 -594z" />
<glyph unicode="&#x3d7;" horiz-adv-x="1298" d="M106 924q66 18 179 18q67 0 115.5 -20.5t77.5 -54t46 -88.5t23.5 -112t7.5 -137l186 115q107 235 383 301l133 -143q-64 -183 -243 -275q-8 -49 -8 -118q0 -237 208 -269q0 -233 -126 -353t-351 -120q-52 0 -125 25v203q54 -21 129 -21q70 0 119 35.5t49 103.5 q-211 44 -219 381l-153 -88q-49 -202 -236 -327l-195 100q9 191 136 307q2 33 2 92q0 128 -38.5 192t-133.5 64q-23 0 -35 -2z" />
<glyph unicode="&#x401;" horiz-adv-x="1208" d="M561 1675v-219h-248v219h248zM948 1675v-219h-246v219h246zM1128 1286v-164h-645v-374h570v-164h-570v-420h645v-164h-987v1286h987z" />
<glyph unicode="&#x402;" horiz-adv-x="1560" d="M956 0v164q103 0 152 67.5t49 190.5q0 116 -57 185t-154 69q-66 0 -155 -29v-647h-342v1122h-416v164h1169v-164h-411v-305q120 21 235 21q217 0 345 -112.5t128 -301.5q0 -194 -147 -309t-396 -115z" />
<glyph unicode="&#x403;" horiz-adv-x="1155" d="M739 1456h-227l176 223h293zM141 0v1286h979v-164h-635v-1122h-344z" />
<glyph unicode="&#x404;" horiz-adv-x="1247" d="M1157 236l51 -183q-258 -82 -463 -82q-306 0 -488.5 183.5t-182.5 490.5q0 306 181.5 488t487.5 182q97 0 223.5 -22.5t241.5 -59.5l-51 -172q-184 74 -334 74q-165 0 -261 -106.5t-113 -305.5h534v-166h-532q17 -192 111 -294.5t255 -102.5q155 0 340 76z" />
<glyph unicode="&#x405;" horiz-adv-x="1245" d="M662 821q299 -81 419.5 -172.5t120.5 -247.5q0 -198 -171.5 -314t-467.5 -116q-245 0 -471 99l41 143q209 -76 381 -76q346 0 346 187q0 58 -65.5 96.5t-208.5 73.5q-134 34 -230.5 72t-153.5 75t-90 82.5t-44 87t-11 94.5q0 188 170.5 299t458.5 111q197 0 410 -90 l-54 -154q-206 80 -354 80q-141 0 -225 -44t-84 -118q0 -55 58 -89t225 -79z" />
<glyph unicode="&#x406;" horiz-adv-x="626" d="M485 1286v-1286h-344v1286h344z" />
<glyph unicode="&#x407;" horiz-adv-x="626" d="M244 1675v-219h-248v219h248zM631 1675v-219h-246v219h246zM485 1286v-1286h-344v1286h344z" />
<glyph unicode="&#x408;" horiz-adv-x="649" d="M166 1286h342v-1300q0 -180 -158.5 -290t-419.5 -110q-24 0 -39 6v162h41q114 0 174 43t60 119v1370z" />
<glyph unicode="&#x409;" horiz-adv-x="2164" d="M614 1122l-32 -721q-9 -195 -155.5 -298t-401.5 -103v164q102 31 155.5 83t59.5 154l39 885h1013v-471h226q169 -1 306 -55t214.5 -148.5t77.5 -210.5q0 -213 -159.5 -307t-520.5 -94h-486v1122h-336zM1507 649h-215v-485h197q144 0 208 60t64 194q0 98 -72.5 164.5 t-181.5 66.5z" />
<glyph unicode="&#x40a;" horiz-adv-x="2197" d="M1325 1286v-538h225q258 -2 430 -107.5t172 -263.5q0 -193 -167 -285t-517 -92h-487v584h-498v-584h-342v1286h342v-538h498v538h344zM1325 166h199q139 0 205.5 52t66.5 159q0 89 -73 148t-183 59h-215v-418z" />
<glyph unicode="&#x40b;" horiz-adv-x="1597" d="M1501 0h-342v551q0 125 -211 125q-55 0 -155 -29v-647h-344v1122h-416v164h1175v-164h-415v-303q120 19 233 19q252 0 363.5 -81.5t111.5 -267.5v-489z" />
<glyph unicode="&#x40c;" horiz-adv-x="1411" d="M817 1456h-227l176 223h293zM1448 0h-426l-490 608h-47v-608h-344v1286h344v-512h47l426 512h388l-510 -594z" />
<glyph unicode="&#x40e;" horiz-adv-x="1142" d="M983 1729q-27 -133 -99.5 -207t-213.5 -74q-274 0 -320 281h123q23 -57 73.5 -86t117.5 -29q152 0 198 115h121zM817 418q-159 -424 -676 -424v168q192 0 312 86l-435 1038h400l252 -627l235 627h240z" />
<glyph unicode="&#x40f;" horiz-adv-x="1472" d="M565 -262v262h-424v1286h342v-1122h506v1122h342v-1286h-424v-262h-342z" />
<glyph unicode="&#x410;" horiz-adv-x="1400" d="M987 0l-104 315h-510l-111 -315h-239l448 1286h444l476 -1286h-404zM430 481h399l-196 590z" />
<glyph unicode="&#x411;" horiz-adv-x="1361" d="M1149 1286v-164h-666v-307h238q277 -1 438.5 -113t161.5 -301q0 -203 -168.5 -302t-513.5 -99h-498v1286h1008zM483 166h211q135 0 204 63.5t69 188.5q0 105 -69.5 168t-186.5 63h-228v-483z" />
<glyph unicode="&#x412;" horiz-adv-x="1427" d="M1018 700q169 -23 258.5 -109t89.5 -216q0 -185 -159 -280t-468 -95h-598v1286h553q290 0 426.5 -77.5t136.5 -243.5q0 -91 -60.5 -159t-178.5 -106zM672 1122h-189v-379q213 0 324 52.5t111 152.5q0 85 -62.5 129.5t-183.5 44.5zM483 164h191q336 0 336 235 q0 94 -92 145.5t-259 51.5q-72 0 -176 -8v-424z" />
<glyph unicode="&#x413;" horiz-adv-x="1155" d="M141 0v1286h979v-164h-635v-1122h-344z" />
<glyph unicode="&#x414;" horiz-adv-x="1456" d="M25 -262v426q102 30 155.5 81t57.5 156l41 885h976v-1122h142v-426h-344v262h-686v-262h-342zM616 1122l-34 -721q-6 -143 -88 -237h419v958h-297z" />
<glyph unicode="&#x415;" horiz-adv-x="1208" d="M1128 1286v-164h-645v-374h570v-164h-570v-420h645v-164h-987v1286h987z" />
<glyph unicode="&#x416;" horiz-adv-x="2172" d="M-37 0l602 692l-502 594h388l415 -512h49v512h342v-512h50l415 512h387l-499 -594l600 -692h-424l-479 608h-50v-608h-342v608h-49l-479 -608h-424z" />
<glyph unicode="&#x417;" horiz-adv-x="1193" d="M784 692q176 -36 261 -116t85 -222q0 -72 -27 -131.5t-68.5 -98.5t-99 -68.5t-112 -45t-114 -25t-98.5 -12t-72 -2.5q-264 0 -510 133l53 156q211 -125 407 -125q146 0 212.5 67t66.5 179q0 215 -401 215h-107v160h109q83 0 146.5 12.5t103.5 33t65 50t35 60.5t10 67 q0 78 -69 124t-181 46q-146 0 -336 -96l-49 151q222 111 428 111q152 0 272.5 -38.5t190.5 -113t70 -172.5q0 -111 -77 -187t-194 -112z" />
<glyph unicode="&#x418;" horiz-adv-x="1525" d="M354 1286v-1005l584 1005h446v-1286h-213v1006l-583 -1006h-447v1286h213z" />
<glyph unicode="&#x419;" horiz-adv-x="1525" d="M1081 1729q-27 -133 -99.5 -207t-213.5 -74q-273 0 -319 281h122q23 -57 73.5 -86t117.5 -29q153 0 199 115h120zM354 1286v-1005l584 1005h446v-1286h-213v1006l-583 -1006h-447v1286h213z" />
<glyph unicode="&#x41a;" horiz-adv-x="1411" d="M1448 0h-426l-490 608h-47v-608h-344v1286h344v-512h47l426 512h388l-510 -594z" />
<glyph unicode="&#x41b;" horiz-adv-x="1435" d="M618 1122l-38 -721q-9 -192 -154.5 -296.5t-400.5 -104.5v164q108 33 158.5 88t54.5 149l43 885h1011v-1286h-342v1122h-332z" />
<glyph unicode="&#x41c;" horiz-adv-x="1800" d="M1192 1286h393l129 -1286h-358l-78 993l-303 -993h-252l-295 991l-74 -991h-268l127 1286h420l274 -876z" />
<glyph unicode="&#x41d;" horiz-adv-x="1472" d="M989 748v538h342v-1286h-342v584h-506v-584h-342v1286h342v-538h506z" />
<glyph unicode="&#x41e;" horiz-adv-x="1552" d="M778 1315q332 0 515.5 -176.5t183.5 -495.5t-183.5 -495.5t-515.5 -176.5q-333 0 -516.5 176t-183.5 496t183.5 496t516.5 176zM778 141q167 0 239.5 116t72.5 386q0 272 -72.5 389t-239.5 117q-168 0 -240.5 -116.5t-72.5 -389.5q0 -271 72.5 -386.5t240.5 -115.5z" />
<glyph unicode="&#x41f;" horiz-adv-x="1472" d="M483 0h-342v1286h1190v-1286h-342v1122h-506v-1122z" />
<glyph unicode="&#x420;" horiz-adv-x="1366" d="M1319 913q0 -203 -182.5 -307t-540.5 -104h-111v-502h-344v1286h609q278 0 423.5 -95t145.5 -278zM975 911q0 97 -67.5 154t-184.5 57h-238v-456q257 0 373.5 53t116.5 192z" />
<glyph unicode="&#x421;" horiz-adv-x="1249" d="M1159 236l49 -183q-248 -82 -463 -82q-315 0 -493 179t-178 495q0 315 177 492.5t492 177.5q214 0 465 -82l-49 -172q-189 74 -336 74q-186 0 -281.5 -123.5t-95.5 -366.5q0 -485 371 -485q156 0 342 76z" />
<glyph unicode="&#x422;" horiz-adv-x="1253" d="M1221 1286v-164h-422v-1122h-342v1122h-424v164h1188z" />
<glyph unicode="&#x423;" horiz-adv-x="1142" d="M817 418q-79 -217 -244.5 -320.5t-431.5 -103.5v168q197 0 312 86l-435 1038h400l252 -627l235 627h240z" />
<glyph unicode="&#x424;" horiz-adv-x="1724" d="M1034 1286v-127q303 -29 463 -162.5t160 -357.5q0 -218 -160 -346t-463 -156v-137h-344v137q-303 28 -462.5 156t-159.5 346q0 224 159.5 357.5t462.5 162.5v127h344zM1268 639q0 147 -56.5 231t-177.5 113v-668q121 29 177.5 108t56.5 216zM457 639q0 -137 56 -216 t177 -108v668q-121 -29 -177 -113t-56 -231z" />
<glyph unicode="&#x425;" horiz-adv-x="1306" d="M1327 0h-428l-289 440l-329 -440h-301l495 631l-440 655h395l262 -391l291 391h289l-443 -577z" />
<glyph unicode="&#x426;" horiz-adv-x="1550" d="M1178 -262v262h-1037v1286h342v-1122h506v1122h342v-1122h191v-426h-344z" />
<glyph unicode="&#x427;" horiz-adv-x="1310" d="M102 1286h344v-629q0 -63 57 -92.5t154 -29.5q85 0 168 26v725h344v-1286h-344v385q-114 -20 -243 -20q-248 0 -364 82t-116 266v573z" />
<glyph unicode="&#x428;" horiz-adv-x="1984" d="M483 1286v-1122h336v1122h342v-1122h338v1122h344v-1286h-1702v1286h342z" />
<glyph unicode="&#x429;" horiz-adv-x="2060" d="M483 1286v-1122h336v1122h342v-1122h338v1122h344v-1122h189v-426h-342v262h-1549v1286h342z" />
<glyph unicode="&#x42a;" horiz-adv-x="1472" d="M594 1286v-471h237q166 -1 301.5 -55.5t213 -149t77.5 -209.5q0 -210 -160 -305.5t-513 -95.5h-498v1122h-225v164h567zM594 166h211q136 0 199 60.5t63 191.5q0 98 -71 164.5t-175 66.5h-227v-483z" />
<glyph unicode="&#x42b;" horiz-adv-x="1935" d="M485 1286v-471h238q168 -1 305 -55.5t215 -149t78 -209.5q0 -213 -159.5 -307t-520.5 -94h-500v1286h344zM1794 1286v-1286h-342v1286h342zM485 166h209q148 0 210.5 58t62.5 194q0 98 -73.5 164.5t-180.5 66.5h-228v-483z" />
<glyph unicode="&#x42c;" horiz-adv-x="1368" d="M483 1286v-471h238q166 -1 303.5 -56t216 -149.5t78.5 -208.5q0 -209 -162 -305t-518 -96h-498v1286h342zM483 164h211q140 0 205.5 61t65.5 193q0 98 -72.5 164.5t-181.5 66.5h-228v-485z" />
<glyph unicode="&#x42d;" horiz-adv-x="1247" d="M90 236q180 -76 340 -76q164 0 257 101t110 296h-533v166h535q-15 201 -110.5 306.5t-264.5 105.5q-143 0 -334 -74l-51 172q254 82 465 82q312 0 491 -179t179 -491q0 -315 -180 -494.5t-492 -179.5q-212 0 -463 82z" />
<glyph unicode="&#x42e;" horiz-adv-x="2201" d="M1425 1315q333 0 516 -176t183 -496t-183 -496t-516 -176q-317 0 -499 160.5t-199 452.5h-244v-584h-342v1286h342v-538h248q29 271 209 419t485 148zM1425 141q167 0 239.5 116t72.5 386q0 272 -72.5 389t-239.5 117q-169 0 -241 -116t-72 -390q0 -271 72 -386.5 t241 -115.5z" />
<glyph unicode="&#x42f;" horiz-adv-x="1411" d="M96 944q0 172 140.5 257t427.5 85h606v-1286h-342v520q-115 0 -211 8l-285 -528h-393l338 588q-143 50 -212 136t-69 220zM440 944q0 -120 120 -190t329 -70h39v438h-234q-123 0 -188.5 -46t-65.5 -132z" />
<glyph unicode="&#x430;" horiz-adv-x="1155" d="M1049 578v-533q-239 -74 -469 -74q-267 0 -403 76t-136 225q0 145 150 221.5t444 79.5q18 2 90 2v80q0 64 -51 93.5t-156 29.5q-165 0 -319 -43l-52 152q213 55 449 55q453 0 453 -364zM725 129v320q-61 0 -88 -3q-291 -3 -291 -176q0 -157 227 -157q74 0 152 16z" />
<glyph unicode="&#x431;" horiz-adv-x="1255" d="M1188 471q0 -226 -148 -364t-391 -138q-257 0 -414 165.5t-157 436.5q0 222 73 393.5t219.5 272t346.5 100.5q182 0 303 49v-167q-161 -50 -303 -50q-125 0 -192.5 -77.5t-96.5 -217.5q120 68 250 68q231 0 370.5 -129t139.5 -342zM406 580q0 -212 63.5 -328.5 t179.5 -116.5q105 0 163 90t58 254q0 140 -56.5 217.5t-158.5 77.5q-143 0 -247 -80q-2 -37 -2 -114z" />
<glyph unicode="&#x432;" horiz-adv-x="1204" d="M860 510q285 -21 285 -225q0 -146 -160.5 -215.5t-495.5 -69.5h-366v913h491q231 0 343 -51t112 -155q0 -145 -209 -197zM582 750h-136v-195q293 0 293 111q0 84 -157 84zM446 164h68q154 0 226.5 30.5t72.5 94.5q0 117 -184 117q-76 0 -183 -17v-225z" />
<glyph unicode="&#x433;" horiz-adv-x="813" d="M811 918l-68 -183q-85 31 -174 31q-63 0 -125 -23v-743h-321v834q234 108 491 108q92 0 197 -24z" />
<glyph unicode="&#x434;" horiz-adv-x="1300" d="M29 -238v402q84 26 129.5 78t52.5 159l37 512h862v-749h141v-402h-325v238h-557v-238h-340zM563 750l-26 -349q-12 -146 -82 -237h329v586h-221z" />
<glyph unicode="&#x435;" horiz-adv-x="1169" d="M1073 406h-678q2 -127 64 -199t172 -72q137 0 368 70l52 -144q-229 -90 -426 -90q-263 0 -409 128t-146 358t137 357.5t385 127.5q253 0 385.5 -124.5t134.5 -362.5q0 -49 -39 -49zM395 547h398q0 114 -50.5 177.5t-140.5 63.5q-97 0 -151 -63.5t-56 -177.5z" />
<glyph unicode="&#x436;" horiz-adv-x="1777" d="M383 485l-346 428h371l270 -354h49v354h324v-354h51l270 354h369l-344 -428l397 -485h-410l-282 393h-51v-393h-324v393h-49l-283 -393h-409z" />
<glyph unicode="&#x437;" horiz-adv-x="1019" d="M721 498q108 -20 171.5 -86t63.5 -160q0 -137 -128.5 -209t-372.5 -72q-207 0 -428 113l55 160q175 -107 338 -107q99 0 152 36t53 103q0 65 -77.5 95t-246.5 30h-106v166h110q150 0 218.5 30t68.5 93q0 41 -47 64.5t-133 23.5q-133 0 -287 -82l-51 154q179 92 370 92 q476 0 476 -227q0 -75 -54 -130.5t-145 -86.5z" />
<glyph unicode="&#x438;" horiz-adv-x="1257" d="M338 913v-661l352 661h445v-913h-217v659l-365 -659h-430v913h215z" />
<glyph unicode="&#x439;" horiz-adv-x="1257" d="M963 1360q-29 -133 -103 -207t-213 -74q-272 0 -317 281h123q22 -57 73 -85t117 -28q152 0 199 113h121zM338 913v-661l352 661h445v-913h-217v659l-365 -659h-430v913h215z" />
<glyph unicode="&#x43a;" horiz-adv-x="1169" d="M795 485l395 -485h-410l-282 393h-52v-393h-323v913h323v-354h52l270 354h369z" />
<glyph unicode="&#x43b;" horiz-adv-x="1253" d="M567 750l-28 -349q-17 -200 -147 -300.5t-361 -100.5v164q84 25 128.5 78t53.5 159l39 512h876v-913h-325v750h-236z" />
<glyph unicode="&#x43c;" horiz-adv-x="1675" d="M954 913h521l135 -913h-320l-116 739l-125 -739h-488l-147 727l-101 -727h-243l125 913h510l137 -700z" />
<glyph unicode="&#x43d;" horiz-adv-x="1228" d="M780 565v348h324v-913h-324v399h-331v-399h-326v913h326v-348h331z" />
<glyph unicode="&#x43e;" horiz-adv-x="1251" d="M1184 457q0 -241 -140 -363.5t-417 -122.5q-557 0 -557 486q0 485 557 485t557 -485zM858 457q0 178 -54.5 258t-176.5 80t-177 -80t-55 -258t55 -258t177 -80t176.5 80t54.5 258z" />
<glyph unicode="&#x43f;" horiz-adv-x="1228" d="M780 0v750h-331v-750h-326v913h981v-913h-324z" />
<glyph unicode="&#x440;" horiz-adv-x="1214" d="M1145 457q0 -239 -120 -362.5t-355 -123.5q-100 0 -230 31v-430h-321v1294q229 76 471 76q275 0 415 -122.5t140 -362.5zM821 457q0 184 -53.5 261t-181.5 77q-86 0 -146 -35v-610q115 -31 201 -31q98 0 139 77t41 261z" />
<glyph unicode="&#x441;" horiz-adv-x="989" d="M68 457q0 233 138.5 359t393.5 126q178 0 352 -55l-53 -142q-139 33 -246 33q-132 0 -196 -79t-64 -242q0 -162 64 -241t196 -79q110 0 246 31l53 -139q-177 -58 -352 -58q-255 0 -393.5 126.5t-138.5 359.5z" />
<glyph unicode="&#x442;" horiz-adv-x="1040" d="M1012 913v-163h-332v-750h-324v750h-327v163h983z" />
<glyph unicode="&#x443;" horiz-adv-x="1073" d="M389 41l-373 872h375l189 -548l213 548h272l-594 -1341h-303z" />
<glyph unicode="&#x444;" horiz-adv-x="1548" d="M942 -332h-338v312q-265 28 -400.5 148t-135.5 329q0 207 136 328t400 149v248l338 82v-330q266 -29 401.5 -149.5t135.5 -327.5q0 -209 -135.5 -329t-401.5 -148v-312zM393 457q0 -133 51.5 -211t159.5 -107v635q-108 -29 -159.5 -106.5t-51.5 -210.5zM1151 457 q0 132 -51 210t-158 107v-635q107 29 158 107.5t51 210.5z" />
<glyph unicode="&#x445;" horiz-adv-x="1097" d="M1102 0h-404l-200 272l-240 -272h-266l383 436l-352 477h374l187 -243l213 243h280l-366 -407z" />
<glyph unicode="&#x446;" horiz-adv-x="1337" d="M985 -238v238h-862v913h326v-749h331v749h324v-749h207v-402h-326z" />
<glyph unicode="&#x447;" horiz-adv-x="1183" d="M70 913h321v-315q0 -64 48.5 -94.5t150.5 -30.5q63 0 145 21v419h324v-913h-324v328q-108 -17 -221 -17q-227 0 -335.5 85t-108.5 263v254z" />
<glyph unicode="&#x448;" horiz-adv-x="1726" d="M702 913h324v-749h254v749h324v-913h-1481v913h326v-749h253v749z" />
<glyph unicode="&#x449;" horiz-adv-x="1839" d="M702 913h324v-749h254v749h324v-749h208v-402h-325v238h-1364v913h326v-749h253v749z" />
<glyph unicode="&#x44a;" horiz-adv-x="1220" d="M530 913v-288h117q261 0 396 -80t135 -234q0 -152 -120.5 -231.5t-352.5 -79.5h-498v750h-176v163h499zM530 164h115q92 0 141.5 39.5t49.5 111.5q0 69 -51.5 106.5t-149.5 37.5h-105v-295z" />
<glyph unicode="&#x44b;" horiz-adv-x="1658" d="M446 913v-288h117q261 0 396 -80t135 -234q0 -152 -120.5 -231.5t-352.5 -79.5h-498v913h323zM1536 913v-913h-326v913h326zM446 164h115q92 0 141.5 39.5t49.5 111.5q0 69 -49 106.5t-140 37.5h-117v-295z" />
<glyph unicode="&#x44c;" horiz-adv-x="1136" d="M446 913v-288h117q261 0 396 -80t135 -234q0 -152 -120.5 -231.5t-352.5 -79.5h-498v913h323zM446 164h86q107 0 163.5 39.5t56.5 111.5q0 69 -53 106.5t-152 37.5h-101v-295z" />
<glyph unicode="&#x44d;" horiz-adv-x="991" d="M188 381v164h404q-30 233 -254 233q-107 0 -246 -33l-53 142q171 55 352 55q252 0 392.5 -126.5t140.5 -358.5q0 -123 -40 -217t-112 -152.5t-168 -87.5t-213 -29q-172 0 -352 58l53 139q145 -31 246 -31q231 0 256 244h-406z" />
<glyph unicode="&#x44e;" horiz-adv-x="1783" d="M1714 457q0 -238 -141 -362t-416 -124q-258 0 -398 108.5t-157 319.5h-153v-399h-326v913h326v-348h159q31 186 169.5 281.5t379.5 95.5q275 0 416 -123.5t141 -361.5zM1389 457q0 178 -55 258t-177 80t-176.5 -80t-54.5 -258t54.5 -258t176.5 -80t177 80t55 258z" />
<glyph unicode="&#x44f;" horiz-adv-x="1187" d="M49 0l230 385q-205 73 -205 246q0 282 465 282h524v-913h-324v334h-69q-64 0 -95 2l-182 -336h-344zM416 627q0 -125 254 -125h69v248h-92q-118 0 -174.5 -30t-56.5 -93z" />
<glyph unicode="&#x451;" horiz-adv-x="1169" d="M522 1286v-199h-217v199h217zM877 1286v-199h-220v199h220zM1073 406h-678q2 -134 61.5 -202.5t174.5 -68.5q70 0 142 14.5t226 55.5l52 -144q-78 -31 -200.5 -60.5t-225.5 -29.5q-265 0 -410 127t-145 359t136 358.5t386 126.5q256 0 387 -122.5t133 -364.5 q0 -49 -39 -49zM395 547h398q0 115 -50 178t-141 63q-98 0 -151.5 -62.5t-55.5 -178.5z" />
<glyph unicode="&#x452;" horiz-adv-x="1236" d="M784 1049h-340v-158q122 51 248 51q222 0 327 -84t105 -264v-713q0 -156 -88 -238.5t-280 -82.5q-71 0 -144.5 18t-117.5 45l63 135q48 -20 139 -20q60 0 83.5 30t23.5 89v796q0 66 -48 95.5t-151 29.5q-87 0 -160 -24v-754h-321v1049h-109v135h109v102h321v-102h340 v-135z" />
<glyph unicode="&#x453;" horiz-adv-x="817" d="M524 1087h-227l180 226h293zM811 918l-68 -183q-85 31 -174 31q-63 0 -125 -23v-743h-321v834q234 108 491 108q92 0 197 -24z" />
<glyph unicode="&#x454;" horiz-adv-x="991" d="M68 457q0 233 138.5 359t393.5 126q181 0 352 -55l-53 -142q-139 33 -246 33q-225 0 -254 -233h406v-164h-408q27 -244 256 -244q94 0 246 31l53 -139q-177 -58 -352 -58q-255 0 -393.5 126.5t-138.5 359.5z" />
<glyph unicode="&#x455;" horiz-adv-x="1009" d="M475 -29q-230 0 -401 54l41 153q193 -43 323 -43q213 0 213 111q0 39 -69 68t-203 59q-73 17 -127.5 38.5t-100 54.5t-69 81.5t-23.5 111.5q0 283 482 283q166 0 358 -61l-47 -148q-170 45 -270 45q-209 0 -209 -96q0 -41 67 -68t211 -61q57 -13 100 -27.5t84.5 -37.5 t67.5 -52t42 -70.5t16 -93.5q0 -301 -486 -301z" />
<glyph unicode="&#x456;" horiz-adv-x="571" d="M446 1286v-205h-323v205h323zM446 913v-913h-323v913h323z" />
<glyph unicode="&#x457;" horiz-adv-x="571" d="M217 1286v-199h-217v199h217zM571 1286v-199h-219v199h219zM446 909v-913h-323v913h323z" />
<glyph unicode="&#x458;" horiz-adv-x="587" d="M465 1286v-205h-326v205h326zM465 913v-1050q0 -320 -367 -320q-70 0 -144.5 18t-117.5 44l64 135q49 -19 139 -19q57 0 78.5 29.5t21.5 89.5v1073h326z" />
<glyph unicode="&#x459;" horiz-adv-x="1818" d="M567 750l-28 -349q-17 -200 -147 -300.5t-361 -100.5v164q84 25 128.5 78t53.5 159l39 512h876v-288h117q263 0 398 -79.5t135 -234.5q0 -153 -121.5 -232t-356.5 -79h-497v750h-236zM1167 459h-39v-295h117q92 0 140.5 38.5t48.5 112.5q0 70 -68 107t-199 37z" />
<glyph unicode="&#x45a;" horiz-adv-x="1792" d="M780 571v342h324v-342h117q251 0 391.5 -75t140.5 -207q0 -136 -126.5 -212.5t-352.5 -76.5h-494v406h-331v-406h-326v913h326v-342h331zM1139 406h-35v-242h117q89 0 139.5 33t50.5 90q0 56 -72.5 87.5t-199.5 31.5z" />
<glyph unicode="&#x45b;" horiz-adv-x="1236" d="M1124 0h-321v653q0 66 -48 95.5t-151 29.5q-87 0 -160 -24v-754h-321v1049h-109v135h109v102h321v-102h342v-135h-342v-158q122 51 248 51q222 0 327 -84t105 -264v-594z" />
<glyph unicode="&#x45c;" horiz-adv-x="1169" d="M721 1087h-227l180 226h293zM795 485l395 -485h-410l-282 393h-52v-393h-323v913h323v-354h52l270 354h369z" />
<glyph unicode="&#x45e;" horiz-adv-x="1073" d="M893 1360q-29 -133 -102.5 -207t-212.5 -74q-273 0 -318 281h123q22 -57 73 -85t117 -28q152 0 199 113h121zM389 41l-373 872h375l189 -548l213 548h272l-594 -1341h-303z" />
<glyph unicode="&#x45f;" horiz-adv-x="1228" d="M453 -238v238h-330v913h326v-749h331v749h324v-913h-326v-238h-325z" />
<glyph unicode="&#x490;" horiz-adv-x="1155" d="M776 1526h344v-404h-635v-1122h-344v1286h635v240z" />
<glyph unicode="&#x491;" horiz-adv-x="917" d="M559 1151h326v-401h-436v-750h-326v913h436v238z" />
<glyph unicode="&#x1e02;" horiz-adv-x="1427" d="M508 1456v219h348v-219h-348zM1018 700q169 -23 258.5 -106t89.5 -219q0 -375 -627 -375h-598v1286h553q274 0 418.5 -82t144.5 -239q0 -89 -62 -158t-177 -107zM672 1122h-189v-379q435 0 435 205q0 174 -246 174zM483 164h191q170 0 253 58t83 177q0 94 -91.5 145.5 t-259.5 51.5q-75 0 -176 -8v-424z" />
<glyph unicode="&#x1e03;" horiz-adv-x="1214" d="M850 1292v-215h-324v215h324zM670 942q242 0 359.5 -119.5t117.5 -365.5q0 -486 -557 -486q-242 0 -471 74v1241h319v-383q140 39 232 39zM819 457q0 178 -42 258t-136 80q-96 0 -203 -39v-606q67 -31 148 -31q122 0 177.5 81t55.5 257z" />
<glyph unicode="&#x1e0a;" horiz-adv-x="1452" d="M537 1456v219h348v-219h-348zM141 1286h568q308 0 488.5 -174t180.5 -473q0 -295 -180.5 -467t-488.5 -172h-568v1286zM483 164h179q168 5 256 126t88 349q0 236 -92 359.5t-269 123.5h-162v-958z" />
<glyph unicode="&#x1e0b;" horiz-adv-x="1216" d="M651 1292v-215h-323v215h323zM1098 45q-230 -74 -471 -74q-275 0 -416 123.5t-141 362.5t120.5 362t356.5 123q108 0 229 -31v375h322v-1241zM631 119q85 0 145 31v614q-92 31 -201 31q-100 0 -140 -74.5t-40 -263.5q0 -187 53 -262.5t183 -75.5z" />
<glyph unicode="&#x1e0c;" horiz-adv-x="1452" d="M141 1286h568q308 0 488.5 -174t180.5 -473q0 -295 -180.5 -467t-488.5 -172h-568v1286zM483 164h179q168 5 256 126t88 349q0 236 -92 359.5t-269 123.5h-162v-958zM850 -362h-285v223h285v-223z" />
<glyph unicode="&#x1e0d;" horiz-adv-x="1216" d="M1098 45q-230 -74 -471 -74q-275 0 -416 123.5t-141 362.5t120.5 362t356.5 123q108 0 229 -31v375h322v-1241zM631 119q85 0 145 31v614q-92 31 -201 31q-100 0 -140 -74.5t-40 -263.5q0 -187 53 -262.5t183 -75.5zM743 -362h-284v223h284v-223z" />
<glyph unicode="&#x1e1e;" horiz-adv-x="1114" d="M432 1456v219h348v-219h-348zM1067 1286v-164h-584v-397h531v-164h-531v-561h-342v1286h926z" />
<glyph unicode="&#x1e1f;" horiz-adv-x="706" d="M600 1649v-215h-324v215h324zM565 1137q-63 0 -87.5 -29t-24.5 -90v-105h229v-178h-227v-735h-326v735h-100v178h100v82q0 320 373 320q77 0 155.5 -19.5t130.5 -48.5l-71 -133q-76 23 -152 23z" />
<glyph unicode="&#x1e24;" horiz-adv-x="1472" d="M989 748v538h342v-1286h-342v584h-506v-584h-342v1286h342v-538h506zM872 -362h-284v223h284v-223z" />
<glyph unicode="&#x1e25;" horiz-adv-x="1236" d="M1124 0h-321v653q0 66 -48 95.5t-151 29.5q-87 0 -160 -24v-754h-321v1286h321v-395q122 51 248 51q222 0 327 -84t105 -264v-594zM762 -362h-285v223h285v-223z" />
<glyph unicode="&#x1e40;" horiz-adv-x="1800" d="M731 1456v219h348v-219h-348zM1192 1286h393l129 -1286h-358l-78 993l-303 -993h-252l-295 991l-74 -991h-268l127 1286h420l274 -876z" />
<glyph unicode="&#x1e41;" horiz-adv-x="1816" d="M1098 1309v-215h-324v215h324zM1704 0h-320v655q0 66 -38.5 95.5t-124.5 29.5q-69 0 -148 -43v-737h-319v657q0 64 -42.5 92.5t-136.5 28.5q-57 0 -139 -26v-752h-319v821q242 121 536 121q180 0 279 -86q176 86 350 86q218 0 320 -83t102 -261v-598z" />
<glyph unicode="&#x1e44;" horiz-adv-x="1525" d="M616 1456v219h349v-219h-349zM1169 1286h215v-1286h-448l-582 1006v-1006h-213v1286h447l581 -1005v1005z" />
<glyph unicode="&#x1e45;" horiz-adv-x="1232" d="M782 1309v-215h-323v215h323zM1120 0h-323v653q0 66 -48 95.5t-151 29.5q-73 0 -158 -26v-752h-323v821q245 121 559 121q228 0 336 -84t108 -264v-594z" />
<glyph unicode="&#x1e56;" horiz-adv-x="1366" d="M543 1456v219h348v-219h-348zM1319 913q0 -200 -185 -305.5t-538 -105.5h-111v-502h-344v1286h609q273 0 421 -97t148 -276zM975 911q0 97 -67.5 154t-184.5 57h-238v-456q259 0 374.5 57.5t115.5 187.5z" />
<glyph unicode="&#x1e57;" horiz-adv-x="1212" d="M774 1309v-215h-323v215h323zM1145 457q0 -241 -120.5 -363.5t-356.5 -122.5q-103 0 -230 31v-430h-321v1294q232 76 471 76q557 0 557 -485zM819 457q0 178 -56 258t-179 80q-86 0 -146 -35v-610q115 -31 201 -31q94 0 137 80t43 258z" />
<glyph unicode="&#x1e5a;" horiz-adv-x="1413" d="M1317 944q0 -123 -76 -219t-205 -137l336 -588h-393l-285 528q-93 -8 -211 -8v-520h-342v1286h607q275 0 422 -88t147 -254zM973 944q0 86 -65.5 132t-188.5 46h-236v-438h41q209 0 329 69.5t120 190.5zM856 -362h-285v223h285v-223z" />
<glyph unicode="&#x1e5b;" horiz-adv-x="849" d="M854 924l-102 -189q-60 43 -172 43q-77 0 -140 -24v-754h-323v821q236 121 547 121q120 0 190 -18zM420 -362h-285v223h285v-223z" />
<glyph unicode="&#x1e60;" horiz-adv-x="1245" d="M434 1456v219h348v-219h-348zM662 825q298 -77 419 -171t121 -253q0 -198 -172 -314t-467 -116q-245 0 -471 99l41 143q209 -76 381 -76q160 0 253 50.5t93 136.5q0 58 -63.5 95.5t-210.5 76.5q-134 36 -230 74.5t-153.5 76t-90.5 83t-44 87.5t-11 96q0 185 170 293.5 t459 108.5q200 0 410 -88l-54 -154q-194 78 -354 78q-141 0 -225 -42.5t-84 -113.5q0 -56 59 -92t224 -78z" />
<glyph unicode="&#x1e61;" horiz-adv-x="1009" d="M655 1309v-215h-323v215h323zM475 -29q-230 0 -401 54l41 153q193 -43 323 -43q213 0 213 111q0 39 -69 68t-203 59q-73 17 -127.5 38.5t-100 54.5t-69 81.5t-23.5 111.5q0 283 482 283q166 0 358 -61l-47 -148q-170 45 -270 45q-209 0 -209 -96q0 -41 67 -68t211 -61 q57 -13 100 -27.5t84.5 -37.5t67.5 -52t42 -70.5t16 -93.5q0 -301 -486 -301z" />
<glyph unicode="&#x1e62;" horiz-adv-x="1245" d="M662 825q298 -77 419 -171t121 -253q0 -198 -172 -314t-467 -116q-245 0 -471 99l41 143q209 -76 381 -76q160 0 253 50.5t93 136.5q0 58 -63.5 95.5t-210.5 76.5q-134 36 -230 74.5t-153.5 76t-90.5 83t-44 87.5t-11 96q0 185 170 293.5t459 108.5q200 0 410 -88 l-54 -154q-194 78 -354 78q-141 0 -225 -42.5t-84 -113.5q0 -56 59 -92t224 -78zM780 -362h-284v223h284v-223z" />
<glyph unicode="&#x1e63;" horiz-adv-x="1009" d="M475 -29q-230 0 -401 54l41 153q193 -43 323 -43q213 0 213 111q0 39 -69 68t-203 59q-73 17 -127.5 38.5t-100 54.5t-69 81.5t-23.5 111.5q0 283 482 283q166 0 358 -61l-47 -148q-170 45 -270 45q-209 0 -209 -96q0 -41 67 -68t211 -61q57 -13 100 -27.5t84.5 -37.5 t67.5 -52t42 -70.5t16 -93.5q0 -301 -486 -301zM657 -362h-284v223h284v-223z" />
<glyph unicode="&#x1e6a;" horiz-adv-x="1253" d="M453 1456v219h348v-219h-348zM1221 1286v-164h-422v-1122h-342v1122h-424v164h1188z" />
<glyph unicode="&#x1e6b;" horiz-adv-x="745" d="M440 1567v-215h-323v215h323zM705 160l-17 -164q-86 -25 -213 -25q-352 0 -352 320v444h-100v178h100v250l326 60v-310h237v-178h-237v-467q0 -62 23 -89t77 -27q91 0 156 8z" />
<glyph unicode="&#x1e6c;" horiz-adv-x="1253" d="M1221 1286v-164h-422v-1122h-342v1122h-424v164h1188zM768 -362h-285v223h285v-223z" />
<glyph unicode="&#x1e6d;" horiz-adv-x="745" d="M705 160l-17 -164q-86 -25 -213 -25q-352 0 -352 320v444h-100v178h100v250l326 60v-310h237v-178h-237v-467q0 -62 23 -89t77 -27q91 0 156 8zM526 -362h-284v223h284v-223z" />
<glyph unicode="&#x1e80;" horiz-adv-x="1886" d="M928 1456l-242 223h293l176 -223h-227zM1589 1286h248l-285 -1286h-403l-193 795l-186 -795h-424l-311 1286h389l201 -956l225 956h313l228 -954z" />
<glyph unicode="&#x1e81;" horiz-adv-x="1646" d="M788 1087l-241 226h293l176 -226h-228zM1368 913h252l-293 -913h-317l-176 569l-189 -569h-307l-328 913h393l154 -587l193 587h268l194 -587z" />
<glyph unicode="&#x1e82;" horiz-adv-x="1886" d="M1114 1456h-227l176 223h293zM1589 1286h248l-285 -1286h-403l-193 795l-186 -795h-424l-311 1286h389l201 -956l225 956h313l228 -954z" />
<glyph unicode="&#x1e83;" horiz-adv-x="1646" d="M967 1087h-228l181 226h292zM1368 913h252l-293 -913h-317l-176 569l-189 -569h-307l-328 913h393l154 -587l193 587h268l194 -587z" />
<glyph unicode="&#x1e84;" horiz-adv-x="1886" d="M936 1675v-219h-248v219h248zM1323 1675v-219h-246v219h246zM1589 1286h248l-285 -1286h-403l-193 795l-186 -795h-424l-311 1286h389l201 -956l225 956h313l228 -954z" />
<glyph unicode="&#x1e85;" horiz-adv-x="1646" d="M799 1286v-199h-217v199h217zM1153 1286v-199h-219v199h219zM1368 913h252l-293 -913h-317l-176 569l-189 -569h-307l-328 913h393l154 -587l193 587h268l194 -587z" />
<glyph unicode="&#x1e92;" horiz-adv-x="1255" d="M1192 1286v-219l-739 -903h735v-164h-1153v203l776 919h-692v164h1073zM764 -362h-285v223h285v-223z" />
<glyph unicode="&#x1e93;" horiz-adv-x="1036" d="M967 729l-504 -565h506v-164h-916v182l565 578h-528v153h877v-184zM645 -362h-285v223h285v-223z" />
<glyph unicode="&#x1e9e;" horiz-adv-x="1435" d="M995 711q182 -25 280.5 -118.5t98.5 -242.5q0 -178 -154.5 -278.5t-428.5 -100.5q-61 0 -158 9v161q65 -6 117 -6q130 0 199 61t69 175q0 96 -87 163.5t-214 67.5h-84v164q131 18 194.5 69t63.5 126q0 79 -59.5 126.5t-159.5 47.5t-158.5 -42t-58.5 -114v-979h-324v895 q0 199 138 308.5t390 109.5q263 0 408 -84t145 -238q0 -102 -56 -174t-161 -106z" />
<glyph unicode="&#x1ea0;" horiz-adv-x="1400" d="M987 0l-104 315h-510l-111 -315h-239l448 1286h444l476 -1286h-404zM430 481h399l-196 590zM778 -362h-284v223h284v-223z" />
<glyph unicode="&#x1ea1;" horiz-adv-x="1155" d="M1049 578v-533q-239 -74 -469 -74q-539 0 -539 301q0 292 594 301q18 2 90 2v80q0 123 -207 123q-165 0 -319 -43l-52 152q213 55 449 55q453 0 453 -364zM725 129v320q-61 0 -88 -3q-61 -3 -107.5 -11t-91 -26t-68.5 -53t-24 -86q0 -81 65 -119t162 -38q66 0 152 16z M715 -362h-285v223h285v-223z" />
<glyph unicode="&#x1eb8;" horiz-adv-x="1208" d="M1128 1286v-164h-645v-374h570v-164h-570v-420h645v-164h-987v1286h987zM776 -362h-284v223h284v-223z" />
<glyph unicode="&#x1eb9;" horiz-adv-x="1169" d="M1073 406h-678q2 -134 61.5 -202.5t174.5 -68.5q70 0 142 14.5t226 55.5l52 -144q-78 -31 -200.5 -60.5t-225.5 -29.5q-265 0 -410 127t-145 359t136 358.5t386 126.5q256 0 387 -122.5t133 -364.5q0 -49 -39 -49zM395 547h398q0 115 -50 178t-141 63q-98 0 -151.5 -62.5 t-55.5 -178.5zM727 -362h-285v223h285v-223z" />
<glyph unicode="&#x1ebc;" horiz-adv-x="1208" d="M938 1673l59 -125q-47 -52 -93.5 -72t-119.5 -20q-83 0 -153 25q-72 26 -148 26q-51 0 -84.5 -12t-68.5 -43l-62 125q61 58 111.5 81t116.5 23t159 -34q58 -21 131 -21q54 0 87 10.5t65 36.5zM1128 1286v-164h-645v-374h570v-164h-570v-420h645v-164h-987v1286h987z" />
<glyph unicode="&#x1ebd;" horiz-adv-x="1169" d="M881 1305l63 -125q-47 -53 -95.5 -74t-121.5 -21q-64 0 -145 25q-93 29 -154 29q-49 0 -83 -12.5t-71 -43.5l-61 125q62 58 112.5 80.5t114.5 22.5q74 0 160 -33q58 -21 131 -21q55 0 88 10.5t62 37.5zM1073 406h-678q2 -134 61.5 -202.5t174.5 -68.5q70 0 142 14.5 t226 55.5l52 -144q-78 -31 -200.5 -60.5t-225.5 -29.5q-265 0 -410 127t-145 359t136 358.5t386 126.5q256 0 387 -122.5t133 -364.5q0 -49 -39 -49zM395 547h398q0 115 -50 178t-141 63q-98 0 -151.5 -62.5t-55.5 -178.5z" />
<glyph unicode="&#x1eca;" horiz-adv-x="626" d="M485 1286v-1286h-344v1286h344zM449 -362h-285v223h285v-223z" />
<glyph unicode="&#x1ecb;" horiz-adv-x="571" d="M446 1286v-199h-323v199h323zM446 913v-913h-323v913h323zM428 -362h-285v223h285v-223z" />
<glyph unicode="&#x1ecc;" horiz-adv-x="1552" d="M778 1315q333 0 516 -176t183 -496t-183 -496t-516 -176t-516.5 176t-183.5 496t183.5 496t516.5 176zM778 141q167 0 239.5 116t72.5 386q0 272 -72.5 389t-239.5 117q-169 0 -241 -116t-72 -390q0 -271 72 -386.5t241 -115.5zM918 -362h-285v223h285v-223z" />
<glyph unicode="&#x1ecd;" horiz-adv-x="1251" d="M1184 457q0 -486 -557 -486t-557 486q0 485 557 485t557 -485zM858 457q0 181 -54 259.5t-177 78.5t-177.5 -78.5t-54.5 -259.5q0 -180 54.5 -259t177.5 -79t177 79t54 259zM768 -362h-285v223h285v-223z" />
<glyph unicode="&#x1ee4;" horiz-adv-x="1495" d="M1022 1286h342v-895q0 -192 -167 -306t-449 -114q-283 0 -450 114t-167 306v895h342v-956q0 -93 72 -144t203 -51t202.5 50.5t71.5 144.5v956zM889 -362h-285v223h285v-223z" />
<glyph unicode="&#x1ee5;" horiz-adv-x="1234" d="M113 913h323v-639q0 -73 47 -106t152 -33q81 0 158 27v751h325v-817q-247 -125 -559 -125q-233 0 -339.5 83t-106.5 265v594zM762 -362h-285v223h285v-223z" />
<glyph unicode="&#x1ef2;" horiz-adv-x="1275" d="M614 1456l-241 223h293l176 -223h-228zM1249 1286l-440 -696v-590h-342v571l-426 715h395l260 -473l267 473h286z" />
<glyph unicode="&#x1ef3;" horiz-adv-x="1073" d="M514 1087l-242 226h293l176 -226h-227zM389 41l-373 872h375l189 -548l213 548h272l-594 -1341h-303z" />
<glyph unicode="&#x1ef8;" horiz-adv-x="1275" d="M965 1673l59 -125q-47 -52 -93.5 -72t-119.5 -20q-84 0 -154 25q-72 26 -147 26q-51 0 -85 -12t-69 -43l-61 125q61 58 111 81t116 23q67 0 160 -34q58 -21 131 -21q54 0 87 10.5t65 36.5zM1249 1286l-440 -696v-590h-342v571l-426 715h395l260 -473l267 473h286z" />
<glyph unicode="&#x1ef9;" horiz-adv-x="1073" d="M834 1305l63 -125q-47 -53 -95.5 -74t-121.5 -21q-64 0 -145 25q-93 29 -154 29q-49 0 -83 -12.5t-71 -43.5l-61 125q62 58 112.5 80.5t114.5 22.5q74 0 160 -33q58 -21 131 -21q55 0 88 10.5t62 37.5zM389 41l-373 872h375l189 -548l213 548h272l-594 -1341h-303z" />
<glyph unicode="&#x2000;" horiz-adv-x="996" />
<glyph unicode="&#x2001;" horiz-adv-x="1993" />
<glyph unicode="&#x2002;" horiz-adv-x="996" />
<glyph unicode="&#x2003;" horiz-adv-x="1993" />
<glyph unicode="&#x2004;" horiz-adv-x="664" />
<glyph unicode="&#x2005;" horiz-adv-x="498" />
<glyph unicode="&#x2006;" horiz-adv-x="332" />
<glyph unicode="&#x2007;" horiz-adv-x="332" />
<glyph unicode="&#x2008;" horiz-adv-x="249" />
<glyph unicode="&#x2009;" horiz-adv-x="398" />
<glyph unicode="&#x200a;" horiz-adv-x="110" />
<glyph unicode="&#x2010;" horiz-adv-x="698" d="M106 551h486v-137h-486v137z" />
<glyph unicode="&#x2011;" horiz-adv-x="698" d="M106 551h486v-137h-486v137z" />
<glyph unicode="&#x2012;" horiz-adv-x="698" d="M106 551h486v-137h-486v137z" />
<glyph unicode="&#x2013;" horiz-adv-x="868" d="M109 545h651v-176h-651v176z" />
<glyph unicode="&#x2014;" horiz-adv-x="1198" d="M109 545h978v-176h-978v176z" />
<glyph unicode="&#x2018;" horiz-adv-x="468" d="M209 1286h188l-49 -416h-295z" />
<glyph unicode="&#x2019;" horiz-adv-x="450" d="M264 870h-184l47 416h295z" />
<glyph unicode="&#x201a;" horiz-adv-x="471" d="M244 -193h-185l50 416h290z" />
<glyph unicode="&#x201c;" horiz-adv-x="860" d="M602 1286h186l-49 -416h-295zM209 1286h186l-47 -416h-295z" />
<glyph unicode="&#x201d;" horiz-adv-x="841" d="M264 870h-184l47 416h295zM657 870h-186l49 416h293z" />
<glyph unicode="&#x201e;" horiz-adv-x="866" d="M246 -193h-187l50 416h292zM637 -193h-186l49 416h295z" />
<glyph unicode="&#x2020;" horiz-adv-x="1167" d="M43 668v192h373v426h336v-426h372v-192h-372v-1000h-336v1000h-373z" />
<glyph unicode="&#x2021;" horiz-adv-x="1253" d="M86 289h373v379h-373v192h373v426h336v-426h372v-192h-372v-379h372v-193h-372v-428h-336v428h-373v193z" />
<glyph unicode="&#x2022;" horiz-adv-x="673" d="M522 399h-370v375h370v-375z" />
<glyph unicode="&#x2026;" horiz-adv-x="1421" d="M412 0h-318v223h318v-223zM868 0h-317v223h317v-223zM1325 0h-317v223h317v-223z" />
<glyph unicode="&#x202f;" horiz-adv-x="398" />
<glyph unicode="&#x2030;" horiz-adv-x="2834" d="M432 1309q383 0 383 -334q0 -336 -383 -336t-383 336q0 334 383 334zM1393 1286h245l-1071 -1286h-256zM432 1208q-82 0 -120 -56t-38 -177q0 -122 38.5 -180t119.5 -58t119.5 58t38.5 180q0 121 -38 177t-120 56zM1522 639q383 0 383 -334t-383 -334q-385 0 -385 334 t385 334zM2404 639q383 0 383 -334t-383 -334q-385 0 -385 334t385 334zM1522 541q-82 0 -121 -57.5t-39 -178.5t39 -177t121 -56t119.5 56t37.5 177q0 122 -37.5 179t-119.5 57zM2404 541q-82 0 -119.5 -57t-37.5 -179q0 -121 37.5 -177t119.5 -56t120 56t38 177 q0 122 -38 179t-120 57z" />
<glyph unicode="&#x2039;" horiz-adv-x="577" d="M260 600l244 -313l-129 -111l-324 424l324 424l127 -111z" />
<glyph unicode="&#x203a;" horiz-adv-x="575" d="M315 600l-239 313l123 111l325 -424l-323 -424l-125 111z" />
<glyph unicode="&#x2044;" horiz-adv-x="385" d="M465 1286h219l-747 -1286h-232z" />
<glyph unicode="&#x205f;" horiz-adv-x="498" />
<glyph unicode="&#x20ac;" horiz-adv-x="1228" d="M877 160q94 0 225 43l51 -174q-191 -58 -340 -58q-229 0 -383 118.5t-209 338.5h-172l49 164h101q-2 27 -2 96h-148l49 164h123q56 220 208.5 338.5t379.5 118.5q169 0 367 -66l-52 -168q-148 53 -241 53q-123 0 -207.5 -72t-116.5 -204h504l-47 -164h-481v-96h452 l-49 -164h-379q31 -129 113.5 -198.5t204.5 -69.5z" />
<glyph unicode="&#x2116;" horiz-adv-x="2236" d="M1843 729q-336 0 -336 295q0 291 336 291q334 0 334 -291q0 -295 -334 -295zM1171 1286h215v-1286h-448l-582 1006v-1006h-213v1286h447l581 -1005v1005zM1978 1024q0 107 -31.5 154t-103.5 47q-75 0 -107 -46.5t-32 -154.5q0 -110 32 -157.5t107 -47.5q72 0 103.5 47.5 t31.5 157.5zM1536 510v121h612v-121h-612z" />
<glyph unicode="&#x2122;" horiz-adv-x="1495" d="M1102 1286h235l58 -579h-185l-34 434l-136 -434h-116l-129 434l-33 -434h-141l55 579h231l94 -303zM584 1286v-94h-176v-485h-183v485h-178v94h537z" />
<glyph unicode="&#x2190;" horiz-adv-x="1406" d="M39 645l541 541l165 -166l-256 -258h848v-238h-850l254 -256l-166 -166z" />
<glyph unicode="&#x2191;" horiz-adv-x="1153" d="M449 0v846l-248 -246l-166 168l543 537l538 -541l-164 -168l-252 248v-844h-251z" />
<glyph unicode="&#x2192;" horiz-adv-x="1406" d="M70 522v240h845l-256 258l168 166l541 -541l-537 -543l-167 166l251 254h-845z" />
<glyph unicode="&#x2193;" horiz-adv-x="1150" d="M575 -29l-542 537l166 168l250 -248v858h251v-854l250 248l166 -168z" />
<glyph unicode="&#x2194;" horiz-adv-x="1816" d="M39 674l541 538l165 -163l-256 -261h836l-256 261l168 163l541 -538l-537 -543l-168 166l254 256h-840l254 -256l-166 -166z" />
<glyph unicode="&#x2195;" horiz-adv-x="991" d="M494 -29l-445 439l137 137l197 -197v578l-199 -199l-135 137l445 439l442 -443l-135 -137l-199 199v-574l201 201l133 -137z" />
<glyph unicode="&#x2196;" horiz-adv-x="1458" d="M111 1286h749v-235h-342l907 -908l-172 -172l-901 903v-342h-241v754z" />
<glyph unicode="&#x2197;" horiz-adv-x="1458" d="M33 143l907 908h-344v235h752v-754h-242v342l-901 -901z" />
<glyph unicode="&#x2198;" horiz-adv-x="1458" d="M33 1141l172 172l901 -901v342h242v-754h-752v236h344z" />
<glyph unicode="&#x2199;" horiz-adv-x="1458" d="M111 0v754h241v-342l901 901l172 -172l-907 -905h342v-236h-749z" />
<glyph unicode="&#x2202;" horiz-adv-x="1273" d="M508 823q110 0 190 -27.5t152 -90.5q-3 85 -12 147t-30.5 121t-55.5 95.5t-89.5 58.5t-130.5 22q-85 0 -178 -21l-41 154q132 33 246 33q304 0 468.5 -190t164.5 -541q0 -309 -153.5 -461t-465.5 -152q-250 0 -393 120t-143 331q0 187 125.5 294t345.5 107zM592 133 q120 0 188 77t68 208q0 108 -69 170.5t-191 62.5q-109 0 -170.5 -61.5t-61.5 -171.5q0 -133 63 -209t173 -76z" />
<glyph unicode="&#x2212;" horiz-adv-x="1048" d="M938 469h-827v195h827v-195z" />
<glyph unicode="&#x25fc;" horiz-adv-x="911" d="M0 911h911v-911h-911v911z" />
<glyph unicode="&#x2713;" horiz-adv-x="974" d="M383 135l-373 373l183 184l202 -207l404 408l170 -172z" />
<glyph unicode="&#xe132;" horiz-adv-x="1161" d="M983 1087h-227l180 226h293zM399 1087h-227l180 226h293zM446 913v-913h-323v913h323zM1036 913v-1050q0 -163 -89 -241.5t-277 -78.5q-156 0 -262 62l63 135q59 -19 139 -19q52 0 76.5 28.5t24.5 90.5v1073h325z" />
<glyph unicode="&#xe133;" horiz-adv-x="1275" d="M1075 1456h-227l176 223h293zM438 1456h-227l176 223h293zM485 1286v-1286h-344v1286h344zM793 1286h342v-1300q0 -191 -150 -295.5t-428 -104.5q-27 0 -39 6v164q8 -2 41 -2q115 0 174.5 41t59.5 121v1370z" />
<glyph unicode="&#xf8ff;" horiz-adv-x="2242" d="M446 874q72 -5 120 -39t48 -102q0 -47 -25 -85.5t-67 -55.5q-12 -6 -18 -8l135 -238h-186l-113 211q-23 -2 -72 -2v-209h-162v531h265q35 0 75 -3zM268 629q185 0 185 102q0 25 -15 44.5t-39 23.5q-14 2 -39 2h-92v-172zM1251 535q0 103 62 152.5t166 49.5q77 0 151 -22 l-24 -72q-58 14 -99 14q-104 0 -104 -122q0 -119 108 -119q45 0 95 12l24 -72q-74 -22 -151 -22q-103 0 -165.5 50.5t-62.5 150.5zM928 737q116 0 178.5 -46.5t62.5 -155.5q0 -201 -241 -201q-244 0 -244 201q0 111 64.5 156.5t179.5 45.5zM2138 580v-218q-103 -28 -207 -28 q-231 0 -231 125q0 42 31.5 71t71.5 41t89 15q31 2 95 2v33q0 26 -19.5 34.5t-62.5 8.5q-65 0 -133 -19l-27 70q87 22 201 22q100 0 146 -38.5t46 -118.5zM928 401q54 0 71 31t17 103q0 78 -17 107.5t-71 29.5q-57 0 -73.5 -29t-16.5 -108q0 -73 17 -103.5t73 -30.5z M1987 401v129q-45 0 -68 -2q-31 -4 -54.5 -21t-23.5 -48q0 -60 92 -60q38 0 54 2zM541 94q-209 0 -435 -53v168q206 49 429 49q212 0 417 -47q207 -49 408 -49q86 0 172 22q4 0 4 -4v-6q-171 -116 -274 -174q-134 5 -304 45q-210 49 -417 49zM1665 215q11 14 29 14h444v-184 h-577z" />
<glyph horiz-adv-x="1437" d="M1356 459q0 -230 -169.5 -359t-469.5 -129q-298 0 -465.5 129t-167.5 359q0 228 167.5 355.5t465.5 127.5q300 0 469.5 -127.5t169.5 -355.5zM717 139q131 0 191.5 77t60.5 245q0 166 -60.5 241.5t-191.5 75.5q-128 0 -187 -75.5t-59 -241.5q0 -168 59 -245t187 -77z" />
<glyph horiz-adv-x="815" d="M676 913v-913h-340v696h-293v111l422 106h211z" />
<glyph horiz-adv-x="1150" d="M1061 641q0 -141 -103 -211q-115 -80 -446 -266h535v-164h-979v203q104 38 305.5 129.5t285.5 154.5q99 76 99 142q0 68 -60.5 108.5t-162.5 40.5q-153 0 -359 -123l-53 154q236 133 481 133q457 0 457 -301z" />
<glyph horiz-adv-x="1206" d="M788 338q160 -34 254.5 -124.5t94.5 -213.5q0 -178 -159.5 -280.5t-432.5 -102.5q-115 0 -251.5 35.5t-258.5 97.5l53 156q95 -60 203 -93.5t205 -33.5q146 0 211 67t65 179q0 103 -105 160t-296 57h-105v159h109q102 0 175 17t112 48t56 66.5t17 79.5q0 77 -67.5 121.5 t-184.5 44.5q-149 0 -333 -96l-50 152q98 50 214 79t214 29q247 0 390 -83.5t143 -227.5q0 -97 -73.5 -176t-199.5 -117z" />
<glyph horiz-adv-x="1222" d="M1001 170h156v-170h-156v-373h-339v373h-607v205l551 708h395v-743zM662 170v516l-402 -516h402z" />
<glyph horiz-adv-x="1220" d="M604 465q253 0 406 -111.5t153 -294.5q0 -210 -162 -335t-434 -125q-114 0 -250 36t-258 97l54 155q211 -125 403 -125q129 0 203 73t74 202q0 126 -96.5 193t-278.5 67q-137 0 -303 -25l30 641h922v-165h-596l-10 -289q55 6 143 6z" />
<glyph horiz-adv-x="1304" d="M776 823q226 0 348.5 -104t122.5 -297q0 -144 -70.5 -247t-190 -153.5t-275.5 -50.5q-307 0 -463 154t-156 459q0 344 167.5 537.5t465.5 193.5q177 0 410 -82l-48 -150q-175 66 -335 66q-74 0 -129.5 -22t-89.5 -59t-55.5 -96t-31 -122t-12.5 -148q132 121 342 121z M692 133q107 0 171.5 77.5t64.5 207.5q0 107 -63 170t-169 63q-120 0 -190 -63t-70 -170q0 -131 69 -208t187 -77z" />
<glyph horiz-adv-x="1124" d="M1081 913v-215l-583 -1071h-416l649 1121h-688v165h1038z" />
<glyph horiz-adv-x="1415" d="M1024 715q146 -35 229.5 -125.5t83.5 -231.5q0 -188 -162 -287.5t-466 -99.5q-305 0 -467 100t-162 287q0 142 83.5 232t231.5 125q-95 28 -154 99.5t-59 166.5q0 154 142 244t385 90q241 0 382.5 -90t141.5 -244q0 -94 -57 -166t-152 -100zM926 977q0 184 -217 184 t-217 -184q0 -197 217 -197t217 197zM444 377q0 -118 69.5 -183t195.5 -65q127 0 195.5 64.5t68.5 183.5q0 115 -68 176t-196 61q-127 0 -196 -61t-69 -176z" />
<glyph horiz-adv-x="1316" d="M549 98q-226 0 -348.5 103.5t-122.5 292.5q0 216 138.5 332t395.5 116q313 0 467 -149.5t154 -454.5q0 -349 -163 -535t-468 -186q-195 0 -407 82l47 147q176 -65 336 -65q75 0 130.5 22.5t88.5 58.5t54 95t29.5 118.5t12.5 141.5q-76 -64 -155.5 -91.5t-188.5 -27.5z M633 780q-114 0 -175 -73t-61 -207q0 -111 60 -170.5t172 -59.5q124 0 192 60.5t68 169.5q0 135 -66.5 207.5t-189.5 72.5z" />
<glyph horiz-adv-x="929" d="M866 150q0 -188 -105.5 -291t-297.5 -103q-189 0 -294.5 103.5t-105.5 290.5q0 185 105 287t295 102q192 0 297.5 -101.5t105.5 -287.5zM463 -111q63 0 87.5 56.5t24.5 204.5q0 149 -24.5 205.5t-87.5 56.5q-61 0 -85 -57t-24 -205q0 -147 24.5 -204t84.5 -57z" />
<glyph horiz-adv-x="555" d="M453 528v-755h-250v583h-172v84l268 88h154z" />
<glyph horiz-adv-x="778" d="M717 338q0 -74 -58 -137q-142 -155 -307 -299h350v-129h-647v161l361 342q47 47 47 78q0 25 -28.5 40.5t-69.5 15.5q-124 0 -250 -91l-37 125q145 95 315 95q91 0 160 -17t116.5 -64t47.5 -120z" />
<glyph horiz-adv-x="792" d="M545 180q92 -26 140 -76.5t48 -121.5q0 -226 -368 -226q-170 0 -326 90l39 125q120 -86 244 -86q61 0 99 31.5t38 83.5q0 57 -50 83t-165 26h-51v122h53q107 0 153.5 24t46.5 79q0 76 -124 76q-98 0 -201 -68l-37 123q129 74 301 74q149 0 226 -48.5t77 -142.5 q0 -110 -143 -168z" />
<glyph horiz-adv-x="835" d="M690 51h88v-133h-88v-145h-252v145h-395v162l356 448h291v-477zM438 51v293l-250 -293h250z" />
<glyph horiz-adv-x="798" d="M391 287q169 0 260.5 -64.5t91.5 -183.5q0 -135 -96.5 -209t-273.5 -74q-178 0 -326 90l37 125q128 -86 246 -86q66 0 100.5 32.5t34.5 94.5q0 69 -56 106.5t-159 37.5q-78 0 -158 -6l21 378h569v-131h-326l-8 -112q2 0 18.5 1t24.5 1z" />
<glyph horiz-adv-x="831" d="M471 264q149 0 231 -63t82 -178q0 -126 -92 -196.5t-258 -70.5q-177 0 -272.5 87t-95.5 249q0 215 100.5 331t286.5 116q154 0 260 -52l-33 -116q-86 39 -203 39q-79 0 -121.5 -47.5t-42.5 -135.5q73 37 158 37zM432 -119q57 0 89 34t32 95q0 60 -31 92.5t-88 32.5 t-89 -32.5t-32 -92.5q0 -62 31 -95.5t88 -33.5z" />
<glyph horiz-adv-x="739" d="M698 528v-166l-329 -589h-283l375 624h-420v131h657z" />
<glyph horiz-adv-x="917" d="M684 188q91 -28 133.5 -78.5t42.5 -129.5q0 -114 -99 -169t-302 -55t-302.5 55t-99.5 169q0 82 42.5 132t133.5 76q-106 44 -106 154q0 94 87 145.5t245 51.5q157 0 243 -51.5t86 -145.5q0 -113 -104 -154zM565 332q0 43 -27.5 66.5t-78.5 23.5t-79 -23.5t-28 -66.5 q0 -44 28 -69t79 -25t78.5 25t27.5 69zM330 0q0 -58 33.5 -89.5t95.5 -31.5t95.5 31.5t33.5 89.5q0 56 -34 86.5t-95 30.5t-95 -30.5t-34 -86.5z" />
<glyph horiz-adv-x="831" d="M356 31q-148 0 -228.5 62t-80.5 179q0 126 92 196.5t258 70.5q177 0 273 -87t96 -249q0 -217 -99.5 -332t-285.5 -115q-153 0 -262 51l37 115q92 -37 202 -37q78 0 119 47t41 138q-39 -21 -73 -30t-89 -9zM399 412q-118 0 -118 -127t116 -127q121 0 121 127t-119 127z " />
<glyph horiz-adv-x="929" d="M866 1143q0 -187 -105.5 -290t-297.5 -103q-189 0 -294.5 103t-105.5 290q0 185 105 287t295 102q192 0 297.5 -101.5t105.5 -287.5zM463 883q63 0 87.5 56.5t24.5 203.5q0 149 -24.5 205.5t-87.5 56.5q-61 0 -85 -57t-24 -205q0 -147 24 -203.5t85 -56.5z" />
<glyph horiz-adv-x="555" d="M453 1522v-756h-250v584h-172v84l268 88h154z" />
<glyph horiz-adv-x="778" d="M717 1331q0 -74 -58 -137q-142 -155 -307 -299h350v-129h-647v162l361 342q47 47 47 78q0 25 -28.5 40t-69.5 15q-125 0 -250 -90l-37 125q143 94 315 94q91 0 160 -17t116.5 -64t47.5 -120z" />
<glyph horiz-adv-x="792" d="M545 1174q92 -26 140 -77t48 -122q0 -225 -368 -225q-170 0 -326 90l39 125q120 -86 244 -86q61 0 99 31t38 83q0 57 -50 83t-165 26h-51v123h53q108 0 154 23.5t46 78.5q0 76 -124 76q-98 0 -201 -68l-37 123q129 74 301 74q149 0 226 -48.5t77 -142.5q0 -109 -143 -167 z" />
<glyph horiz-adv-x="835" d="M690 1044h88v-133h-88v-145h-252v145h-395v162l356 449h291v-478zM438 1044v293l-250 -293h250z" />
<glyph horiz-adv-x="798" d="M391 1280q169 0 260.5 -64.5t91.5 -183.5q0 -135 -96.5 -208.5t-273.5 -73.5q-178 0 -326 90l37 125q128 -86 246 -86q66 0 100.5 32.5t34.5 94.5q0 69 -56 106t-159 37q-78 0 -158 -6l21 379h569v-131h-326l-8 -113q2 0 18.5 1t24.5 1z" />
<glyph horiz-adv-x="831" d="M471 1257q149 0 231 -63t82 -178q0 -126 -92 -196t-258 -70q-177 0 -272.5 86.5t-95.5 248.5q0 215 100.5 331t286.5 116q156 0 260 -51l-33 -117q-86 39 -203 39q-79 0 -121.5 -47t-42.5 -135q71 36 158 36zM432 874q57 0 89 34.5t32 95.5q0 60 -31 92t-88 32t-89 -32 t-32 -92q0 -62 31 -96t88 -34z" />
<glyph horiz-adv-x="739" d="M698 1522v-166l-329 -590h-283l375 625h-420v131h657z" />
<glyph horiz-adv-x="917" d="M684 1182q91 -28 133.5 -78.5t42.5 -130.5q0 -114 -99 -168.5t-302 -54.5t-302.5 54.5t-99.5 168.5q0 82 42.5 132.5t133.5 76.5q-106 44 -106 153q0 94 87 145.5t245 51.5q157 0 243 -51.5t86 -145.5q0 -112 -104 -153zM565 1325q0 43 -27.5 66.5t-78.5 23.5t-79 -23.5 t-28 -66.5q0 -44 28 -69t79 -25t78.5 25t27.5 69zM330 993q0 -58 33.5 -89.5t95.5 -31.5t95.5 31.5t33.5 89.5q0 56 -34 86.5t-95 30.5t-95 -30.5t-34 -86.5z" />
<glyph horiz-adv-x="831" d="M356 1024q-148 0 -228.5 62.5t-80.5 179.5q0 126 92 196t258 70q177 0 273 -87t96 -249q0 -216 -99.5 -331t-285.5 -115q-153 0 -262 51l37 114q90 -36 202 -36q78 0 119 47t41 137q-39 -21 -73 -30t-89 -9zM399 1405q-118 0 -118 -127t116 -127q121 0 121 127t-119 127z " />
<glyph d="M1280 641q0 -314 -156.5 -492t-433.5 -178q-278 0 -436 178t-158 492q0 316 158 495t436 179q277 0 433.5 -179t156.5 -495zM690 139q108 0 155.5 117t47.5 383q0 273 -47.5 392.5t-155.5 119.5q-111 0 -160 -119.5t-49 -392.5q0 -266 49 -383t160 -117z" />
<glyph d="M182 0v166h373v903h-322v111l449 106h213v-1120h330v-166h-1043z" />
<glyph d="M1210 958q0 -54 -19 -110t-48 -96q-52 -72 -216.5 -240t-357.5 -348h625v-164h-1049v217l682 639q78 75 78 143q0 67 -69.5 108.5t-182.5 41.5q-86 0 -196.5 -33.5t-204.5 -87.5l-49 154q107 60 239.5 96.5t241.5 36.5q235 0 380.5 -98.5t145.5 -258.5z" />
<glyph d="M868 690q163 -32 260 -122.5t97 -213.5q0 -175 -161.5 -279t-434.5 -104q-107 0 -245 36t-271 97l53 156q214 -125 412 -125q136 0 210 64.5t74 181.5q0 103 -106.5 159t-304.5 56h-107v160h109q175 0 273.5 57.5t98.5 161.5q0 83 -66 128.5t-188 45.5q-154 0 -344 -96 l-49 151q99 52 218 81.5t218 29.5q245 0 391 -89t146 -239q0 -95 -77 -175.5t-206 -121.5z" />
<glyph d="M1112 434h156v-168h-156v-266h-340v266h-686v205l631 815h395v-852zM772 434v625l-481 -625h481z" />
<glyph d="M682 838q260 0 411.5 -109.5t151.5 -296.5q0 -212 -161.5 -336.5t-438.5 -124.5q-115 0 -249.5 35.5t-258.5 97.5l51 156q223 -125 406 -125q135 0 207.5 71.5t72.5 203.5q0 127 -96.5 193.5t-279.5 66.5q-142 0 -305 -25l28 641h928v-166h-600l-12 -289q68 7 145 7z" />
<glyph d="M811 823q223 0 347 -105.5t124 -295.5q0 -212 -141 -331.5t-393 -119.5q-322 0 -471.5 147.5t-149.5 465.5q0 348 166 539.5t467 191.5q191 0 409 -82l-47 -150q-175 66 -336 66q-74 0 -129 -22.5t-89.5 -59.5t-56 -96t-30.5 -122t-12 -147q77 66 156 93.5t186 27.5z M727 133q109 0 172.5 75.5t63.5 209.5q0 114 -59.5 173.5t-172.5 59.5q-120 0 -190 -60t-70 -173q0 -134 67.5 -209.5t188.5 -75.5z" />
<glyph d="M1221 1286v-215l-607 -1071h-413l669 1120h-710v166h1061z" />
<glyph d="M971 715q154 -35 234.5 -127t80.5 -230q0 -186 -155 -286.5t-445 -100.5q-287 0 -440.5 100.5t-153.5 286.5q0 138 81 230t233 127q-102 30 -156.5 97t-54.5 169q0 161 126.5 247.5t364.5 86.5q239 0 367.5 -86.5t128.5 -247.5q0 -200 -211 -266zM872 977 q0 89 -47.5 136.5t-138.5 47.5q-88 0 -136 -47.5t-48 -136.5q0 -95 48 -146t136 -51q91 0 138.5 51t47.5 146zM457 377q0 -119 60 -183.5t169 -64.5q114 0 175 64t61 184q0 115 -61 176t-175 61q-109 0 -169 -61t-60 -176z" />
<glyph d="M565 453q-221 0 -346 107.5t-125 297.5q0 212 148.5 334.5t406.5 122.5q284 0 442 -164.5t158 -458.5q0 -343 -166 -532t-465 -189q-182 0 -409 82l47 148q195 -64 336 -64q74 0 128.5 22t88 57.5t55 93.5t31 118t14.5 143q-75 -64 -156 -91t-188 -27zM649 1151 q-112 0 -174.5 -76t-62.5 -211q0 -115 60 -177t173 -62q122 0 191 61t69 176q0 137 -67.5 213t-188.5 76z" />
<glyph d="M1280 461q0 -230 -155.5 -360t-432.5 -130q-281 0 -438.5 130t-157.5 360q0 227 157.5 354t438.5 127q277 0 432.5 -127t155.5 -354zM692 139q102 0 151.5 78.5t49.5 243.5q0 163 -49.5 240t-151.5 77q-108 0 -158.5 -76.5t-50.5 -240.5q0 -166 51 -244t158 -78z" />
<glyph d="M182 0v166h373v530h-322v111l449 106h213v-747h330v-166h-1043z" />
<glyph d="M1212 641q0 -57 -27.5 -106.5t-76.5 -104.5q-57 -64 -215.5 -141.5t-300.5 -124.5h604v-164h-1049v203q538 197 662 284q98 69 98 142q0 149 -264 149q-183 0 -389 -123l-49 154q124 69 238.5 101t242.5 32q526 0 526 -301z" />
<glyph d="M868 336q167 -34 263 -123.5t96 -212.5q0 -180 -158.5 -281.5t-435.5 -101.5q-121 0 -258 34.5t-260 98.5l53 156q204 -127 414 -127q137 0 208.5 63t71.5 183q0 106 -105 161.5t-306 55.5h-105v159h109q179 0 274.5 54.5t95.5 158.5q0 80 -65 122t-189 42 q-155 0 -342 -96l-49 152q99 51 215.5 79.5t220.5 28.5q250 0 392.5 -83.5t142.5 -229.5q0 -98 -75.5 -175.5t-207.5 -117.5z" />
<glyph d="M1120 150h154v-168h-154v-355h-342v355h-688v204l635 727h395v-763zM778 150v571l-483 -571h483z" />
<glyph d="M678 541q265 0 415 -108.5t150 -297.5q0 -217 -159.5 -340t-440.5 -123q-236 0 -508 133l53 158q216 -125 406 -125q128 0 203 73.5t75 201.5q0 124 -99 192t-279 68q-148 0 -304 -25l31 641h926v-166h-596l-14 -291q88 9 141 9z" />
<glyph d="M780 823q229 0 365.5 -109t136.5 -292q0 -204 -151 -327.5t-404 -123.5q-286 0 -443 160.5t-157 452.5q0 348 166 539.5t467 191.5q186 0 409 -82l-47 -150q-179 66 -336 66q-74 0 -129 -22t-89 -59t-55.5 -96.5t-30.5 -122t-13 -147.5q124 121 311 121zM727 133 q110 0 173 76t63 209q0 108 -62 170.5t-168 62.5q-122 0 -192 -62t-70 -171q0 -133 68.5 -209t187.5 -76z" />
<glyph d="M1219 913v-215l-607 -1071h-415l671 1121h-710v165h1061z" />
<glyph d="M971 715q143 -35 229 -127.5t86 -229.5q0 -183 -158.5 -285t-441.5 -102q-281 0 -438.5 102t-157.5 285q0 137 86.5 229.5t229.5 127.5q-96 30 -153.5 100.5t-57.5 167.5q0 157 129.5 244.5t361.5 87.5q233 0 364.5 -87.5t131.5 -244.5q0 -97 -56.5 -167.5t-154.5 -100.5 zM872 981q0 88 -47.5 134t-138.5 46q-89 0 -136.5 -46t-47.5 -134q0 -97 47.5 -149t136.5 -52q90 0 138 52t48 149zM457 377q0 -120 59.5 -184t169.5 -64q114 0 175 64t61 184q0 116 -60.5 176.5t-175.5 60.5q-111 0 -170 -60.5t-59 -176.5z" />
<glyph d="M610 100q-227 0 -365.5 110.5t-138.5 291.5q0 198 153 319t403 121q289 0 444.5 -156t155.5 -446q0 -343 -166 -533t-465 -190q-196 0 -408 82l47 149q173 -65 336 -65q158 0 234.5 106t81.5 330q-75 -63 -141 -91t-171 -28zM662 778q-111 0 -173.5 -71.5t-62.5 -198.5 q0 -110 61 -173t170 -63q122 0 191.5 63t69.5 173q0 127 -68 198.5t-188 71.5z" />
<glyph horiz-adv-x="929" d="M866 918q0 -188 -105.5 -291t-297.5 -103q-189 0 -294.5 103.5t-105.5 290.5q0 185 105 287t295 102q192 0 297.5 -101.5t105.5 -287.5zM463 657q63 0 87.5 56.5t24.5 204.5q0 149 -24.5 205.5t-87.5 56.5q-61 0 -85 -57t-24 -205q0 -147 24.5 -204t84.5 -57z" />
<glyph horiz-adv-x="555" d="M453 1296v-755h-250v583h-172v84l268 88h154z" />
<glyph horiz-adv-x="778" d="M717 1106q0 -74 -58 -137q-142 -155 -307 -299h350v-129h-647v161l361 342q47 47 47 78q0 25 -28.5 40.5t-69.5 15.5q-124 0 -250 -91l-37 125q145 95 315 95q91 0 160 -17t116.5 -64t47.5 -120z" />
<glyph horiz-adv-x="792" d="M543 948q92 -26 140 -76.5t48 -121.5q0 -226 -369 -226q-169 0 -325 90l39 125q120 -86 243 -86q61 0 99.5 31.5t38.5 83.5q0 57 -50 83t-165 26h-52v122h54q107 0 153.5 24t46.5 79q0 76 -125 76q-97 0 -200 -68l-37 123q129 74 301 74q149 0 226 -48.5t77 -142.5 q0 -110 -143 -168z" />
<glyph horiz-adv-x="835" d="M690 819h88v-133h-88v-145h-252v145h-395v162l356 448h291v-477zM438 819v293l-250 -293h250z" />
<glyph horiz-adv-x="798" d="M391 1055q169 0 260.5 -64.5t91.5 -183.5q0 -135 -96.5 -209t-273.5 -74q-178 0 -326 90l37 125q128 -86 246 -86q66 0 100.5 32.5t34.5 94.5q0 69 -56 106.5t-159 37.5q-78 0 -158 -6l21 378h569v-131h-326l-8 -112q2 0 18.5 1t24.5 1z" />
<glyph horiz-adv-x="831" d="M471 1032q149 0 231 -63t82 -178q0 -126 -92 -196.5t-258 -70.5q-177 0 -272.5 87t-95.5 249q0 215 100.5 331t286.5 116q154 0 260 -52l-33 -116q-86 39 -203 39q-79 0 -121.5 -47.5t-42.5 -135.5q73 37 158 37zM432 649q57 0 89 34t32 95q0 60 -31 92.5t-88 32.5 t-89 -32.5t-32 -92.5q0 -62 31 -95.5t88 -33.5z" />
<glyph horiz-adv-x="739" d="M698 1296v-166l-329 -589h-283l375 624h-420v131h657z" />
<glyph horiz-adv-x="917" d="M684 956q91 -28 133.5 -78t42.5 -130q0 -114 -99 -169t-302 -55t-302.5 55t-99.5 169q0 82 42.5 132t133.5 76q-106 44 -106 154q0 94 87 145.5t245 51.5q157 0 243 -51.5t86 -145.5q0 -113 -104 -154zM565 1100q0 43 -27.5 66.5t-78.5 23.5t-79 -23.5t-28 -66.5 q0 -44 28 -69t79 -25t78.5 25t27.5 69zM330 768q0 -58 33.5 -89.5t95.5 -31.5t95.5 31.5t33.5 89.5q0 56 -34 86.5t-95 30.5t-95 -30.5t-34 -86.5z" />
<glyph horiz-adv-x="831" d="M356 799q-148 0 -228.5 62t-80.5 179q0 126 92 196.5t258 70.5q177 0 273 -87t96 -249q0 -217 -99.5 -332t-285.5 -115q-153 0 -262 51l37 115q92 -37 202 -37q78 0 119 47t41 138q-39 -21 -73 -30t-89 -9zM399 1180q-118 0 -118 -127t116 -127q121 0 121 127t-119 127z " />
<glyph horiz-adv-x="929" d="M866 377q0 -187 -105.5 -290t-297.5 -103q-189 0 -294.5 103t-105.5 290q0 185 105 287t295 102q192 0 297.5 -101.5t105.5 -287.5zM463 117q63 0 87.5 56.5t24.5 203.5q0 149 -24.5 205.5t-87.5 56.5q-61 0 -85 -57t-24 -205q0 -147 24 -203.5t85 -56.5z" />
<glyph horiz-adv-x="555" d="M453 756v-756h-250v584h-172v84l268 88h154z" />
<glyph horiz-adv-x="778" d="M717 565q0 -74 -58 -137q-142 -155 -307 -299h350v-129h-647v162l361 342q47 47 47 78q0 25 -28.5 40t-69.5 15q-125 0 -250 -90l-37 125q143 94 315 94q91 0 160 -17t116.5 -64t47.5 -120z" />
<glyph horiz-adv-x="792" d="M543 408q92 -26 140 -77t48 -122q0 -225 -369 -225q-169 0 -325 90l39 125q120 -86 243 -86q61 0 99.5 31t38.5 83q0 57 -50 83t-165 26h-52v123h54q108 0 154 23.5t46 78.5q0 76 -125 76q-97 0 -200 -68l-37 123q129 74 301 74q149 0 226 -48.5t77 -142.5 q0 -109 -143 -167z" />
<glyph horiz-adv-x="835" d="M690 279h88v-134h-88v-145h-252v145h-395v162l356 449h291v-477zM438 279v292l-250 -292h250z" />
<glyph horiz-adv-x="798" d="M391 514q169 0 260.5 -64.5t91.5 -183.5q0 -135 -96.5 -208.5t-273.5 -73.5q-178 0 -326 90l37 125q128 -86 246 -86q66 0 100.5 32.5t34.5 94.5q0 69 -56 106t-159 37q-78 0 -158 -6l21 379h569v-131h-326l-8 -113q2 0 18.5 1t24.5 1z" />
<glyph horiz-adv-x="831" d="M471 492q149 0 231 -63.5t82 -178.5q0 -126 -92 -196t-258 -70q-177 0 -272.5 86.5t-95.5 248.5q0 215 100.5 331t286.5 116q156 0 260 -51l-33 -117q-86 39 -203 39q-79 0 -121.5 -47t-42.5 -135q73 37 158 37zM432 109q57 0 89 34t32 95q0 60 -31 92t-88 32t-89 -32 t-32 -92q0 -62 31 -95.5t88 -33.5z" />
<glyph horiz-adv-x="739" d="M698 756v-166l-329 -590h-283l375 625h-420v131h657z" />
<glyph horiz-adv-x="917" d="M684 416q91 -28 133.5 -78.5t42.5 -130.5q0 -114 -99 -168.5t-302 -54.5t-302.5 54.5t-99.5 168.5q0 82 42.5 132.5t133.5 76.5q-106 44 -106 153q0 94 87 145.5t245 51.5q157 0 243 -51.5t86 -145.5q0 -112 -104 -153zM565 559q0 43 -27.5 66.5t-78.5 23.5t-79 -23.5 t-28 -66.5q0 -44 28 -69t79 -25t78.5 25t27.5 69zM330 227q0 -58 33.5 -89.5t95.5 -31.5t95.5 31.5t33.5 89.5q0 56 -34 86.5t-95 30.5t-95 -30.5t-34 -86.5z" />
<glyph horiz-adv-x="831" d="M356 258q-148 0 -228.5 62.5t-80.5 179.5q0 126 92 196t258 70q177 0 273 -87t96 -249q0 -216 -99.5 -331t-285.5 -115q-153 0 -262 51l37 115q92 -37 202 -37q78 0 119 47t41 137q-39 -21 -73 -30t-89 -9zM399 639q-118 0 -118 -127t116 -127q121 0 121 127t-119 127z " />
<glyph horiz-adv-x="391" d="M203 -147h-152l39 340h240z" />
<glyph horiz-adv-x="366" d="M291 0h-213v182h213v-182z" />
<glyph horiz-adv-x="391" d="M205 393h-152l39 338h240z" />
<glyph horiz-adv-x="366" d="M291 541h-213v180h213v-180z" />
<glyph horiz-adv-x="391" d="M205 -365h-152l39 338h240z" />
<glyph horiz-adv-x="366" d="M291 -219h-213v182h213v-182z" />
<glyph horiz-adv-x="391" d="M205 618h-152l39 330h240z" />
<glyph horiz-adv-x="366" d="M291 756h-213v182h213v-182z" />
<glyph horiz-adv-x="466" d="M414 -45h-193q-155 189 -155 399q0 240 176 420h172q-50 -85 -80.5 -201t-30.5 -219q0 -207 111 -399z" />
<glyph horiz-adv-x="466" d="M53 -45q111 192 111 399q0 103 -30.5 219t-80.5 201h172q176 -180 176 -420q0 -208 -153 -399h-195z" />
<glyph horiz-adv-x="466" d="M414 504h-193q-155 189 -155 399q0 246 178 420h170q-50 -85 -80.5 -201t-30.5 -219q0 -205 111 -399z" />
<glyph horiz-adv-x="466" d="M53 504q111 189 111 399q0 103 -30.5 219t-80.5 201h172q176 -176 176 -420q0 -208 -153 -399h-195z" />
<glyph horiz-adv-x="466" d="M414 -262h-193q-155 189 -155 401q0 242 178 420h170q-50 -85 -80.5 -201t-30.5 -219q0 -203 111 -401z" />
<glyph horiz-adv-x="466" d="M53 -262q111 192 111 401q0 103 -30.5 219t-80.5 201h172q176 -176 176 -420q0 -119 -41 -215t-112 -186h-195z" />
<glyph horiz-adv-x="466" d="M414 727h-193q-155 189 -155 399q0 242 176 422h172q-50 -87 -80.5 -203.5t-30.5 -218.5q0 -207 111 -399z" />
<glyph horiz-adv-x="466" d="M53 727q111 192 111 399q0 102 -30.5 218.5t-80.5 203.5h172q176 -180 176 -422q0 -208 -153 -399h-195z" />
<glyph horiz-adv-x="806" d="M510 1456h-227l176 223h293z" />
<glyph horiz-adv-x="739" d="M688 1729q-27 -133 -99.5 -207t-213.5 -74q-274 0 -320 281h123q23 -57 73.5 -86t117.5 -29q152 0 198 115h121z" />
<glyph horiz-adv-x="849" d="M756 1679l-178 -223h-308l-178 223h219l113 -114l113 114h219z" />
<glyph horiz-adv-x="755" d="M711 1456h-222l-112 113l-111 -113h-221l178 223h309z" />
<glyph horiz-adv-x="903" d="M385 1675v-219h-248v219h248zM772 1675v-219h-246v219h246z" />
<glyph horiz-adv-x="411" d="M31 1456v219h348v-219h-348z" />
<glyph horiz-adv-x="557" d="M205 1456l-242 223h293l176 -223h-227z" />
<glyph horiz-adv-x="1044" d="M338 1456h-225l145 223h293zM735 1456h-225l145 223h293z" />
<glyph horiz-adv-x="763" d="M72 1456v201h622v-201h-622z" />
<glyph horiz-adv-x="729" d="M129 1587q0 142 233 142q104 0 169 -37.5t65 -104.5q0 -141 -234 -141q-233 0 -233 141zM449 1587q0 21 -2.5 34.5t-10 27.5t-26.5 21t-48 7q-52 0 -69 -21.5t-17 -68.5q0 -22 2.5 -35.5t10.5 -27.5t26 -20.5t47 -6.5q53 0 70 23t17 67z" />
<glyph horiz-adv-x="1296" d="M889 1673l59 -125q-47 -52 -93.5 -72t-119.5 -20q-83 0 -153 25q-72 26 -148 26q-51 0 -84.5 -12t-68.5 -43l-62 125q61 58 111 81t116 23q67 0 160 -34q58 -21 131 -21q54 0 87 10.5t65 36.5z" />
<glyph horiz-adv-x="477" d="M147 1378l74 322h242l-137 -322h-179z" />
</font>
</defs>
</svg>
